<?xml version="1.0" encoding="utf-8"?>
<!-- Generator: Adobe Illustrator 16.0.0, SVG Export Plug-In . SVG Version: 6.00 Build 0)  -->
<!DOCTYPE svg PUBLIC "-//W3C//DTD SVG 1.1//EN" "http://www.w3.org/Graphics/SVG/1.1/DTD/svg11.dtd">
<svg version="1.1" id="图层_1" xmlns="http://www.w3.org/2000/svg" xmlns:xlink="http://www.w3.org/1999/xlink" x="0px" y="0px"
	 width="260px" height="400px" viewBox="0 0 260 400" enable-background="new 0 0 260 400" xml:space="preserve">
<metadata><?xpacket begin="﻿" id="W5M0MpCehiHzreSzNTczkc9d"?>
<x:xmpmeta xmlns:x="adobe:ns:meta/" x:xmptk="Adobe XMP Core 5.3-c011 66.145661, 2012/02/06-14:56:27        ">
   <rdf:RDF xmlns:rdf="http://www.w3.org/1999/02/22-rdf-syntax-ns#">
      <rdf:Description rdf:about=""
            xmlns:dc="http://purl.org/dc/elements/1.1/">
         <dc:format>image/svg+xml</dc:format>
         <dc:title>
            <rdf:Alt>
               <rdf:li xml:lang="x-default">打印</rdf:li>
            </rdf:Alt>
         </dc:title>
      </rdf:Description>
      <rdf:Description rdf:about=""
            xmlns:xmp="http://ns.adobe.com/xap/1.0/"
            xmlns:xmpGImg="http://ns.adobe.com/xap/1.0/g/img/">
         <xmp:MetadataDate>2014-11-18T23:03:52+08:00</xmp:MetadataDate>
         <xmp:ModifyDate>2014-11-18T23:03:52+08:00</xmp:ModifyDate>
         <xmp:CreateDate>2014-11-18T23:03:52+08:00</xmp:CreateDate>
         <xmp:CreatorTool>Adobe Illustrator CS6 (Windows)</xmp:CreatorTool>
         <xmp:Thumbnails>
            <rdf:Alt>
               <rdf:li rdf:parseType="Resource">
                  <xmpGImg:width>256</xmpGImg:width>
                  <xmpGImg:height>224</xmpGImg:height>
                  <xmpGImg:format>JPEG</xmpGImg:format>
                  <xmpGImg:image>/9j/4AAQSkZJRgABAgEASABIAAD/7QAsUGhvdG9zaG9wIDMuMAA4QklNA+0AAAAAABAASAAAAAEA&#xA;AQBIAAAAAQAB/+4ADkFkb2JlAGTAAAAAAf/bAIQABgQEBAUEBgUFBgkGBQYJCwgGBggLDAoKCwoK&#xA;DBAMDAwMDAwQDA4PEA8ODBMTFBQTExwbGxscHx8fHx8fHx8fHwEHBwcNDA0YEBAYGhURFRofHx8f&#xA;Hx8fHx8fHx8fHx8fHx8fHx8fHx8fHx8fHx8fHx8fHx8fHx8fHx8fHx8fHx8f/8AAEQgA4AEAAwER&#xA;AAIRAQMRAf/EAaIAAAAHAQEBAQEAAAAAAAAAAAQFAwIGAQAHCAkKCwEAAgIDAQEBAQEAAAAAAAAA&#xA;AQACAwQFBgcICQoLEAACAQMDAgQCBgcDBAIGAnMBAgMRBAAFIRIxQVEGE2EicYEUMpGhBxWxQiPB&#xA;UtHhMxZi8CRygvElQzRTkqKyY3PCNUQnk6OzNhdUZHTD0uIIJoMJChgZhJRFRqS0VtNVKBry4/PE&#xA;1OT0ZXWFlaW1xdXl9WZ2hpamtsbW5vY3R1dnd4eXp7fH1+f3OEhYaHiImKi4yNjo+Ck5SVlpeYmZ&#xA;qbnJ2en5KjpKWmp6ipqqusra6voRAAICAQIDBQUEBQYECAMDbQEAAhEDBCESMUEFURNhIgZxgZEy&#xA;obHwFMHR4SNCFVJicvEzJDRDghaSUyWiY7LCB3PSNeJEgxdUkwgJChgZJjZFGidkdFU38qOzwygp&#xA;0+PzhJSktMTU5PRldYWVpbXF1eX1RlZmdoaWprbG1ub2R1dnd4eXp7fH1+f3OEhYaHiImKi4yNjo&#xA;+DlJWWl5iZmpucnZ6fkqOkpaanqKmqq6ytrq+v/aAAwDAQACEQMRAD8A9U4q7FXYq7FXYq7FXYq7&#xA;FXYq7FWO69+YPlLRC0d5fo1wuxtoP3slfAhahf8AZEYqxUfml5l1hivlXy3LcJWi3VzX0/8AZceK&#xA;D/kZiqFv5vzIYV13zNp3l6JtzArxiYf6oALH6JMVSWc+UCeOr+fdR1Bv2lgWfj36FvVWnXFUET+T&#xA;Sspkm1e7Pdm4b/PZPwxVqST8lmACxarH7qU/42Y4qofVPymZg9tqmrWUlaq0kaPx/wCRag/jiqZW&#xA;eqyWgA0X8wi1N1g1CGdUHtWRZ1p8hiqe2Pn/AM/wEBrfTvMMQ6tp06GY/wCwRmb/AJJYqnOnfnJ5&#xA;akm+rarDc6RdDZ0uIyyg+FUBb71GKsz07VdN1KD19PuoruH+eF1cA+Bodj88VRWKuxV2KuxV2Kux&#xA;V2KuxV2KuxV2KuxV2KuxV2KuxV2KuxV2KsZ82fmD5f8ALamK4kNxqB/u7CGjSb9OfZB8/oBxVht2&#xA;n5h+ard7rV7tPKnl2lXDn03Kf5VSrn/ZFR7Yqxm51z8vfLgMWgad+nNQX/pZahVoVbxSKi8qH2Hz&#xA;OKpNq35jecdTX05dReC3pQQWtIEC/wAv7ujEfMnFWNMzMxZiSxNSTuSTilrFXYq7FXYq7FW8VTWD&#xA;zRrEcSwTyi+tV2FveKtwgHgnqVZP9gRihEWuraWtwLi1W40O9H2biyld4gf9Rz6qg9/3jfLFXoPl&#xA;z8xPPdtatcXtkNf0mH+8v7SnqKvieA7Dejop8aYq9O0HXdP1zSoNTsGLW84NFagdWBoVcAmjDFUw&#xA;xV2KuxV2KuxV2KuxV2KuxV2KuxV2KuxV2KuxVTuLiC2gknuJFigiUtJK5CqqjqST0xV5xqPnbzD5&#xA;rvZNI8koYbRDxu9clBVVB/kqPh9tuR7AdcVY7NrXkvyQzrpijzB5mqfW1Kb4oopO5U777/smvi2K&#xA;sE1/zRruv3Pr6pdvPQ1ji+zEn+og+EfrxSlWKuxV2KuxV2KuxV2KuxV2KuxV2KpjofmDV9DvReaX&#xA;ctbzDZqbq4/ldT8LD54q9J0DzJ5f8wzerBcnyr5rb/j4gbjaXLjp6kbfA1T+y2/u2KGWaF+YZj1L&#xA;9A+aY0sNWFBDdKf9FuQTRXRj9nl77V22O2Ks3xV2KuxV2KuxV2KuxV2KuxV2KuxV2KuxVC6pqlhp&#xA;dhNf38ywWsC8pJG/AAdyegAxV5XdXWp+fnl1DU5m0TyLZHkSxCtPxNK16M1fmFOwqcVYv5r/ADC+&#xA;sWf6C8tw/ovy9ECnFPhlnHcuetG8K1P7WKsIxS7FXYq7FXYq7FXYq7FXYq7FXYq7FXYqibm8Sa2t&#xA;4RbQxPbgq08YYPKCaj1KsVJXsQo964qhsVR76tJLo0WlSxoyW8xmt7ilJEEgpIlR1ViA3sRir0vy&#xA;L+Y2oaHJbaN5mYtp86q1hqJYOFjaoFXFecddq9V6H2UPYlZXUMpDKwqrDcEHuMVbxV2KuxV2KuxV&#xA;2KuxV2KuxV2KqV3dW9pbS3VzIIreBTJLI2wVVFSTiryKa4n/ADB1WfUtRlaw8j6OS55Hj6hUd/8A&#xA;KYdf5RsNzirD/PPnibX50s7NPqmg2fwWNkg4ghRQO4G1adB+yPpJVYpil2KuxV2KuxV2KuxV2Kux&#xA;V2KuxV2KuxV2KuxVGaTpd5quoRafZhWup6iFHdYwzBS3Hk5C1NKCp64qnJ/LrzaI9RY2R9TS+H1m&#xA;CoLlXUsGjpUOKD9k4oSBru5e1jtXkZreJmeKI7hWcAMV8OXEVxS9J/Kv8ym06SLQtZlrp7kJZ3Ln&#xA;+4YmgRif91n/AIX5dFD27FXYq7FXYq7FXYq7FXYq7FXYq8v82X15528zDyfpMpj0qyPqazeL0JQ7&#xA;oPHidgO7ey1xViP5leZ7IJF5S0GkWiaZRJih2mmXrU/tBT37tU+GKsAxS7FXYq7FXYq7FXYq7FXY&#xA;q7FXYq7FXYq7FXYq7FW1YqQymhG4I6g4q9i/Kv8AMrUb/UE0XW7lGHo8bO4k2kkkVhRHcn4mKnbx&#xA;p44oYx+bdr5Xh8wSfooNBqCuRqVrwKx8mUOsqHp8XLenzxVgeKXsf5R/mKZRF5b1aX96AE025Y/a&#xA;AG0LHxH7H3eGKHrWKuxV2KuxV2KuxV2KuxVif5l+bD5c8uSSQNTULysFn4qSPik/2C/jTFWE3M58&#xA;gfl3FAnweZNeq8r/ALcakbnxrGjcR/lEnFXkuKWsVdirsVdirsVdirsVdirsVdirsVdirsVdirsV&#xA;dirsVbBIIINCNwRiqY63r9/rUltNflZLm3gW3a4p8cqoxKtIe7ANSvtviqlHpckulyX8MiyC3fjd&#xA;QDaSNWoEkp3RmPGo6Hr1FVUIrMjBlJVlNVYbEEdxir6G/K/zufMmkGC7YfpWxCrcH/fiHZZfppRv&#xA;f54oZrirsVdirsVdirsVdirxzUZW85fm1BZgGTStHch+6UgPKQn/AF5QE+VMVYV+YXmU+YPNF1do&#xA;3K0hP1ez8PSjJAYf65q304qxrFLsVdirsVdirsVdirsVdirsVdirsVdirsVdirsVdirsVdirsVXx&#xA;TSxMWjYoWVkYjurCjA+xBxVZir1b8goITqOrzlqTxwxIieKOzFjT2KLih7PirsVdirsVdirsVUrq&#xA;dYLeSVnRAo2aQhVqdhUkjvirx36ve+Rfy81CS7dP03r8vpQtG4kpEV3bmux+FnNQerDFXlOKXYq7&#xA;FXYq7FXYq7FXYq7FXYq7FXYq7FXYq7FXYq7FXYq7FXYq7FXYq7FU58o+Y7jy7r1tqcNSkZ43EQ/b&#xA;hb7a/duPemKH1Ba3MF1bRXNu4kgnRZIpB0ZWFVI+YOKqmKuxV2KuxV2KpH5zX1/L9xp6TwwXOpcb&#xA;K1NwCUaSY040Cua8a0298VeM/m/qkc3mOLSLb4bLRYEtoYx9kMVDNT6OK/7HFWCYpdirsVdirsVd&#xA;irsVdirsVdirsVdirsVdirsVdirsVdirsVdirsVdirsVdir3v8lNeN/5YfT5W5TaZJwWpqfRkq0f&#xA;48h9GKEw8pNrdnrnmFNTdYNGa/YacJzxYy3D86RFuqv6g2/mO3fFWZYq7FXYq7FWMazqdmfNdpYX&#xA;VuGTTLSXWfrPP7PDlBT0yKdHJBr1xV86atqEmo6peahIKPdzSTsvWhkYtT6K4pQmKuxV2KuxV2Ku&#xA;xV2KuxV2KuxV2KuxV2KuxV2KuxV2KuxV2KuxV2KuxV2KuxV6F+SOpm283NZlvgv7d0C+Lx/vAfoV&#xA;WxQ9Su/KdxqPneLWdQmMmm6fDG2nWlTxFzVuUhXpVdjXvt4YqynFXYq7FXYq8182+ZBFqnm1ZbYS&#xA;WljpUVi0kaD1PUvK8aybEJ+93Fe22+KvDMUuxVEyRWQsIZEmLXjySLNBxIVI1Cem3LuWJbbtTFUN&#xA;irsVdirsVdirsVdirsVdirsVdirsVdirsVdirsVdirsVdirsVdirsVT7yLeGz846NPWg+txRsfBZ&#xA;W9NvwbFD6PuzrP6Y08WoQaXxnOos1OXIKogVe+5LE/LFUwxV2KuxVxIAJJoBuScVeF+ePN8mn6l5&#xA;t0WCMOdTuIQ0rUZURIQsgA/mJAHt88VebkKAtDUkbjwNemKWsVdirsVdirsVdirsVdirsVdirsVd&#xA;irsVdirsVdirsVdirsVdirsVdirsVdiqK0yUw6laSr9qOaNx23VgcVfWeKHYq7FXYq8x/PHUdUs9&#xA;Ks4ra8eK0vWeK6tlReLhQGqZKch4ca74q8RJJJJNSdyTilrFXYq7FXYq7FXYq7FXYq7FXYq7FXYq&#xA;7FXYq7FXYq7FXYq7FXYq7FXYq7FXYq7FWwSDUbEdDir68xQ7FXYq7FXm358Mn+FbJSPjN8hB9hDL&#xA;X9YxV4Xil2KuxV2KuxV2KuxV2KuxV2KuxV2KuxV2KuxV2KuxV2KuxV2KuxV2KuxV2KuxV2KoiwjM&#xA;l9bxgVLyooB71YDFX1rih2KuxV2KvJvz9e9FrpCD/eJnmLj/AItULwr/ALEtTFXjeKXYq7FXYq7F&#xA;XYq7FXYq7FXYq7FXYq7FXYq7FXYq7FXYq7FXYq7FXYq7FXYq7FXYqm/lG3+seatHhIqHvbcN/q+q&#xA;tevtir6mxQ7FXYq7FWHfmzoqan5Lu3rSWwIvIj/xjBDD6UY4q+c8UuxV2KuxV2KuxV2KuxV2KuxV&#xA;2KuxV2KuxV2KuxV2KuxV2KuxV2KuxV2KuxV2KuxVmX5Sac1756sWArHaLJcSewVCq/8ADsuKHu2i&#xA;6jc315q3MAW9pd/VbYDqRHEhcn/no7D6MVTXFXYqgdD1QarpVvf+hJbGdSWt5RR0ZWKsp+kYqq6p&#xA;YJqGmXlhIxRLyCSB2G5AlQoT+OKvlC6gNvczQFg5hdoy67qeJpUexxSpYq7FXYq7FXYq7FXYq7FX&#xA;Yq7FXYq7FXYq7FXYq7FXYq7FXYq7FXYq7FXYq7FXYq9N/JK9sLK4126uCBNBaCVB+0YoyzS0+5cU&#xA;PW/K9rcW+iW7XS8by65Xd2vhNcsZXX/Yl+P0YqmuKuxV2KuxV8uectEOieZtQ03jxiilLQf8Yn+O&#xA;P/hWGKpLil2KuxV2KuxV2KuxV2KuxV2KuxV2KuxV2KuxV2KuxV2KuxV2KuxV2KuxV2KuxV7bbeVd&#xA;H0/RfK/l6e1STWNRuFuriQqPUVEAmuQW68eAEVOhxQ9QxV2KuxV2KuxV5J+e3l5mSy16FCeH+i3Z&#xA;A6A1aJjT35CvyxV47il2KuxV2KuxV2KuxV2KuxV2KuxV2KuxV2KuxV2KuxV2KuxV2KuxV2KuxV2K&#xA;p55J0j9L+a9MsSvKN51eYf8AFUf7yT/hVOKH0cdBgbzKNdkctNHaCzgi/ZQGRnd/m1VH0e+Kpnir&#xA;sVQ+pXq2NhcXjRSTLbxtIYYVLyNxFeKqOpOKojFXYq06I6FHUMjCjKwqCD2IOKvljzL5c1LQNVls&#xA;L6IxkEmBzuskdSFdSOoNMUpVirsVdirsVdirsVdirsVdirsVdirsVdirsVdirsVdirsVdirsVdir&#xA;sVdir2D8ivLbAXfmGdKBgbWzJHUVBlcfSAtfnih67irsVdirsVdirsVdirAfza8k3fmHTYL3Txzv&#xA;9PDkQd5Y3oWC/wCUvGo8d8VeAkEGh2I6jFLWKuxV2KuxV2KuxV2KuxV2KuxV2KuxV2KuxV2KuxV2&#xA;KuxV2KuxV2Kpp5b0C91/WbfTLQfHM3xyUqI4x9t29lH9MVfT+laZaaXpttp1mvC2tUEcY70Hc+5O&#xA;598UIrFXYq7FXYq7FXYq7FXYq8W/OXyQ9tdjzBptsFs5VpqAjAASXlQSED/fnKhPj164q8rxS7FX&#xA;Yq7FXYq7FXYq7FXYq7FXYq7FXYq7FXYq7FXYq7FXYq7FVeysru+u4rS0iae5nYJFEgqWJxV9Eflz&#xA;5Hs/LWmFy63Gp3QH1u4WhVeJ/ukI/ZU9fE/cFDLsVdirsVdirsVdirsVdirsVU7m2gureW2uEEsE&#xA;ymOWNtwysKEH5jFXzd578jah5Z1OVfTeTS5GJs7ulV4nojkdHHT364qxfFLsVdirsVdirsVdirsV&#xA;dirsVdirsVdirsVdirsVdirsVdir0b8t/L0mo3JttOcovEHWdXSqtHG3/HpbN2Z6fHIPo2HxqHud&#xA;tbQW1vHb26CKCFQkcaigVVFABiqpirsVdirsVdirsVdirsVdirsVUru0try2ktbqJZreZSksTiqs&#xA;p7EHFXiXnr8n9Q0+aS+8vxtd6eas1qDymh9gDvIvhTf9eKvNcUtYq7FXYq7FXYq7FXYq7FXYq7FX&#xA;Yq7FXYq7FXYq7FWWeSvy61nzNOsqqbXSgf3t842NOqxA/bb8B3xQ+gdB0HTNC02PTtOi9K3j3JO7&#xA;Ox6u57sf89sVTDFXYq7FXYq7FXYq7FXYq7FXYq7FXYq7FXnnmj8nNF1Nri505zZ393cLNLI5LRop&#xA;r6gjjXj9onluflTFXnHmf8qfNOiF5Yov0jYrU/WLYEsB/lxbsv0VHvirDcUtYq7FXYq7FXYq7FXY&#xA;q7FXYq7FXYq7FUbpWjapq12tppttJdXDfsRitB4seij3JxV7B5P/ACVsbP07zzC4vLkUYWSf3Cnr&#xA;8Z6yH26fPFD06KKOKNYokEcaAKiKAFUDYAAdBiq7FXYq7FXYq7FXYq7FXYq7FXYq7FXYq7FXYq7F&#xA;XYqxjzL+XPlbX+Ulza/V7xt/rlvSOQnxbbi/+yGKvK/MX5LeZtOLS6ay6pbDcBP3cwHvGxof9ix+&#xA;WKsDurO7s52gu4ZLedftRSqUYfMMAcUqOKuxV2KuxV2KuxV2KtgEkACpOwAxVk2iflt5y1cqYNPe&#xA;CE/7vuv3KAHv8XxMP9VTih6X5b/JDRbPhNrcx1Gcb+glY4Afo+N/vHyxV6HY6fYWEAt7G2itYB0j&#xA;hRUX7lAxVEYq7FXYq7FXYq7FXYq7FXYq7FXYq7FXYq7FXYq7FXYq7FVC+srW+tJbO7jE1tOpSWNq&#xA;0IPy3xVCaJoNno0ElvZyTtA7clinleYJ7JzJIHtXFUTfabp2oQ+jfWsV1F/JMiyDfwDA4qxTUfyg&#xA;8jXtSlo9m7dXtpGX7lfmn4Yqx+7/ACD0tifqmrTwjt6saS/8RMWKpbN+QV+AfQ1iJz+yHhZK/OjP&#xA;iqF/5UN5j/6uFn/yV/5oxVF2/wCQN6w/0jWY4z39OBpP1umKpjb/AJB6YtPrGrTSePpxJH+syYqn&#xA;dj+TPke1IMsE94Qa1nmYfhF6QxVlOmeXdB0sD9H6fb2p/njjVXPzanI/fiqYYq7FXYq7FXYq7FXY&#xA;q7FXYq7FXYq7FX//2Q==</xmpGImg:image>
               </rdf:li>
            </rdf:Alt>
         </xmp:Thumbnails>
      </rdf:Description>
      <rdf:Description rdf:about=""
            xmlns:xmpMM="http://ns.adobe.com/xap/1.0/mm/"
            xmlns:stRef="http://ns.adobe.com/xap/1.0/sType/ResourceRef#"
            xmlns:stEvt="http://ns.adobe.com/xap/1.0/sType/ResourceEvent#">
         <xmpMM:InstanceID>xmp.iid:A8A92EAE336FE41195E3D1493AEF96AB</xmpMM:InstanceID>
         <xmpMM:DocumentID>xmp.did:A8A92EAE336FE41195E3D1493AEF96AB</xmpMM:DocumentID>
         <xmpMM:OriginalDocumentID>uuid:5D20892493BFDB11914A8590D31508C8</xmpMM:OriginalDocumentID>
         <xmpMM:RenditionClass>proof:pdf</xmpMM:RenditionClass>
         <xmpMM:DerivedFrom rdf:parseType="Resource">
            <stRef:instanceID>xmp.iid:A7A92EAE336FE41195E3D1493AEF96AB</stRef:instanceID>
            <stRef:documentID>xmp.did:A7A92EAE336FE41195E3D1493AEF96AB</stRef:documentID>
            <stRef:originalDocumentID>uuid:5D20892493BFDB11914A8590D31508C8</stRef:originalDocumentID>
            <stRef:renditionClass>proof:pdf</stRef:renditionClass>
         </xmpMM:DerivedFrom>
         <xmpMM:History>
            <rdf:Seq>
               <rdf:li rdf:parseType="Resource">
                  <stEvt:action>saved</stEvt:action>
                  <stEvt:instanceID>xmp.iid:9FB6100F196FE41195E3D1493AEF96AB</stEvt:instanceID>
                  <stEvt:when>2014-11-18T22:56:30+08:00</stEvt:when>
                  <stEvt:softwareAgent>Adobe Illustrator CS6 (Windows)</stEvt:softwareAgent>
                  <stEvt:changed>/</stEvt:changed>
               </rdf:li>
               <rdf:li rdf:parseType="Resource">
                  <stEvt:action>saved</stEvt:action>
                  <stEvt:instanceID>xmp.iid:A8A92EAE336FE41195E3D1493AEF96AB</stEvt:instanceID>
                  <stEvt:when>2014-11-18T23:03:52+08:00</stEvt:when>
                  <stEvt:softwareAgent>Adobe Illustrator CS6 (Windows)</stEvt:softwareAgent>
                  <stEvt:changed>/</stEvt:changed>
               </rdf:li>
            </rdf:Seq>
         </xmpMM:History>
      </rdf:Description>
      <rdf:Description rdf:about=""
            xmlns:illustrator="http://ns.adobe.com/illustrator/1.0/">
         <illustrator:StartupProfile>Print</illustrator:StartupProfile>
      </rdf:Description>
      <rdf:Description rdf:about=""
            xmlns:xmpTPg="http://ns.adobe.com/xap/1.0/t/pg/"
            xmlns:stDim="http://ns.adobe.com/xap/1.0/sType/Dimensions#"
            xmlns:xmpG="http://ns.adobe.com/xap/1.0/g/">
         <xmpTPg:HasVisibleOverprint>False</xmpTPg:HasVisibleOverprint>
         <xmpTPg:HasVisibleTransparency>False</xmpTPg:HasVisibleTransparency>
         <xmpTPg:NPages>1</xmpTPg:NPages>
         <xmpTPg:MaxPageSize rdf:parseType="Resource">
            <stDim:w>260.000000</stDim:w>
            <stDim:h>400.000000</stDim:h>
            <stDim:unit>Pixels</stDim:unit>
         </xmpTPg:MaxPageSize>
         <xmpTPg:PlateNames>
            <rdf:Seq>
               <rdf:li>Cyan</rdf:li>
               <rdf:li>Magenta</rdf:li>
               <rdf:li>Yellow</rdf:li>
               <rdf:li>Black</rdf:li>
            </rdf:Seq>
         </xmpTPg:PlateNames>
         <xmpTPg:SwatchGroups>
            <rdf:Seq>
               <rdf:li rdf:parseType="Resource">
                  <xmpG:groupName>默认色板组</xmpG:groupName>
                  <xmpG:groupType>0</xmpG:groupType>
               </rdf:li>
            </rdf:Seq>
         </xmpTPg:SwatchGroups>
      </rdf:Description>
      <rdf:Description rdf:about=""
            xmlns:pdf="http://ns.adobe.com/pdf/1.3/">
         <pdf:Producer>Adobe PDF library 10.01</pdf:Producer>
      </rdf:Description>
   </rdf:RDF>
</x:xmpmeta>
                                                                                                    
                                                                                                    
                                                                                                    
                                                                                                    
                                                                                                    
                                                                                                    
                                                                                                    
                                                                                                    
                                                                                                    
                                                                                                    
                                                                                                    
                                                                                                    
                                                                                                    
                                                                                                    
                                                                                                    
                                                                                                    
                                                                                                    
                                                                                                    
                                                                                                    
                                                                                                    
                           
<?xpacket end="w"?>
	</metadata>
<g>
	<path fill="#727171" d="M27.424,171.073c-1.026,0.164-0.39-0.163-0.617-0.309c0.363-0.399-0.608-0.354,0.617-0.563
		c1.162-0.2,0.335,0.109,0.617,0.309C27.733,171.109,28.141,170.955,27.424,171.073L27.424,171.073z M45.09,163.656L45.09,163.656
		c-1.87-0.063-1.262-1.643-0.608-2.614c0.817-1.235-0.108-0.445,0.98-0.718C45.835,161.359,45.554,162.793,45.09,163.656
		L45.09,163.656z M208.768,124.448L208.768,124.448c-1.242-1.343-2.351-1.588-2.17-3.758c2.471,1.017,4.967,5.546,5.213,6.817
		C211.139,127.243,209.313,125.038,208.768,124.448L208.768,124.448z M191.266,108.243L191.266,108.243
		c0.536-1.461-0.988-3.676,1.963-2.351c1.061,0.481,2.076,1.779,2.887,2.596c2.74,2.742,4.847,3.922,4.394,6.01
		c-0.372,0.236-0.073,0.2-0.7,0.154c-0.398-0.036-2.187-0.999-2.276,0.046c-0.191,1.997,2.387,2.95,1.315,5.855l-4.248-4.058
		c-2.262-1.852-1.943-1.943-2.697-5.247c-0.362-0.526-1.496,0.272-2.032,0.345c-2.324-2.524-0.49-0.636-2.688-2.506
		c-0.916-0.78-2.152-1.416-1.77-3.34c1.47,0.072-0.083,0.254,1.615,0.545c0.563,0.109,1.314-0.1,2.061-0.1
		C189.568,107.19,189.904,108.089,191.266,108.243L191.266,108.243z M204.311,104.712L204.311,104.712
		c-0.799-0.79-1.197-1.598-2.723-1.48c-0.109,1.48,1.77,3.023,3.439,4.667c1.436,1.434,2.67,2.76,4.096,4.23
		c1.406,1.443,2.704,2.769,4.059,4.276c0.762,0.853,3.459,3.858,4.492,4.32c-0.443-3.068-6.999-9.332-9.214-11.828L204.311,104.712
		L204.311,104.712z M199.4,102.143L199.4,102.143c-0.99-0.445-5.104-4.748-5.34-5.402c0.989-0.199,3.232,1.508,3.939,2.052
		c1.063,0.836,2.098,1.843,2.643,3.305L199.4,102.143L199.4,102.143z M175.859,95.452L175.859,95.452
		c-1.262,0.236-3.067-0.2-3.477-1.435C173.173,93.083,175.688,93.709,175.859,95.452L175.859,95.452z M112.496,81.817
		L112.496,81.817l-0.255-0.273c-0.463-0.409,0.046-0.109-0.454-0.381c-1.144-0.599-2.124,0.291-3.323,0.49
		c-1.261,0.2-2.497-0.345-5.011,0.191c-4.394,0.953-18.375,4.775-20.862,6.981c-3.232,2.851-3.686,1.507-5.247,3.077
		c-0.98,0.972-2.415,1.398-3.749,1.97c-0.926,0.408-1.171,0.798-1.761,1.089c-2.941,1.471-2.451-0.79-7.308,3.885
		c-0.626,0.6-2.178,2.052-2.959,2.515c-3.014,1.752-1.543,0.445-2.86,2.869c-0.726,1.343-2.333,0.98-3.422,2.024
		c-1.28,1.244,0.263,2.615-2.569,3.177c-0.027,2.506-1.407,1.943-2.224,4.013c-0.49,1.235-0.863,1.18-1.208,2.161l-1.262,1.87
		c-1.562,1.335-0.762,1.181-0.753,3.142l-1.988-0.127c-0.635,2.233-1.098,3.213-3.259,4.412c0.563,2.597-0.045,3.195-1.516,5.102
		c-0.109,0.146-1.417,2.443-1.425,2.452c-0.554,1.18-0.2,1.416-1.18,2.75c-0.39,0.536-1.253,1.426-1.443,2.188
		c-0.454,1.843,0.59,0.69-0.681,2.697c-1.08,1.715-1.452,3.604-2.079,5.728c-0.599,2.033-1.325,3.522-2.061,5.483
		c-0.39,1.044-1.071,1.87-1.343,2.542c-0.445,1.108,0.526,1.117-0.554,2.851c-0.944,1.507-0.817,0.999-1.071,2.877
		c-0.291,2.152-1.099,0.818,0.037,2.915c0.553,1.053-0.509,2.941-1.589,3.55c-0.536,0.299-0.082,0.063-0.653,0.19
		c-0.064,0-0.246,0.036-0.3,0.045l-0.282,0.073c0.49,1.062,0.872,0.971,2.27,1.352c1.152,0.318,1.679,0.545,2.905,0.146
		c0.164-0.436,0.663-2.633,0.762-3.114c0.145-0.681,0.127-1.117,0.291-1.789c0.345-1.434,0.045-0.944,0.854-1.325
		c0.562,4.03-2.878,5.083,0.136,8.633c-0.872,1.298,0.163,2.006-1.398,2.624c-0.789-1.307-0.117-2.778-1.416-3.359
		c-1.063,1.852-0.753,14.715,0.39,17.512c0.88,2.16,1.57,2.088,1.453,5.075l1.244,0.771c-0.373,0.917-0.245,0.291-0.962,1.025
		l1.098,4.857c1.035,2.333,1.071,5.528,2.315,7.834c0.518,0.972,0.273,1.397,0.953,2.433c2.088,3.16,0.899,1.235,2.251,4.521
		c1.262,3.068,3.713,5.445,5.256,8.279c1.553,2.832,2.551,6.464,5.855,7.717c0.027-1.926-0.608-1.998-1.298-2.906
		c-1.198-1.57-0.917-4.574-2.161-6.182c-0.645-0.826-0.908-1.688-1.452-2.696c-1.598-2.896-2.833-3.758-2.851-7.299
		c0-1.289-0.072-0.472-0.436-1.38c-0.663-1.635,0.245-1.762-1.162-3.014c-2.188-1.935,0.027-3.504-2.188-6.138
		c-0.844-1.017-0.89-1.507-1.135-3.068c-0.145-0.89-0.69-2.406-0.454-3.25c0.644-2.251,0.072-1.244-0.508-3.014
		c-0.281-0.89,0.109-1.87-0.354-3.305c-1.062-3.232-0.535-3.785,0.654-6.6c0.989,1.243,0.935,3.286,1.234,4.23
		c0.372,1.117,0.899,0.381,0.617,1.752c-0.935,4.63,1.861,3.667,2.043,6.463c0.145,2.26-0.508,4.021,1.29,4.902
		c0.917-2.578-0.854-3.876-1.072-5.937c-0.136-1.217,0.009-1.979-0.263-3.341c-1.29-6.445,0.054-5.12-0.472-9.931
		c-0.128-1.18-0.309-2.433-0.318-3.631c-0.019-1.453,0.454-2.315-0.109-3.223c-1.461-0.771-1.616,0.172-2.933,0.39
		c-0.417-0.89-0.826-1.943-0.626-2.687c0.445-1.616-0.199-1.888,1.126-2.597c0.862,0.454,0.526,0.69,1.089,1.507
		c3.695-1.825,1.426-1.852,3.405-4.775c0.572-0.844,1.089-1.38,1.162-2.396c0.063-1.053-0.208-2.47-0.082-3.84
		c0.408-4.748,2.569-8.579,3.704-12.773l-1.216-1.017c-0.881,1.125-0.7,1.707-1.843,2.441l-0.635-0.553
		c0.527-0.654,0.972-1.725,1.525-2.415c1.199-1.48,1.734-0.136,3.096-0.79c0.671-1.025,0.036-1.153,0.536-2.278
		c0.235-0.545,1.116-1.198,1.497-1.67c0.899-1.108,1.026-3.378,1.861-4.376c1.198-1.434,1.57-1.543,2.415-3.595
		c2.533-6.063,5.728-9.731,10.466-13.962c1.108-0.98,2.361-1.825,3.332-2.923c0.944-1.053,1.998-2.016,3.141-2.842
		c1.225-0.898,2.197-1.888,3.404-2.841c4.702-3.704,9.033-7.245,14.86-9.604c1.526-0.608,2.47-1.262,4.13-1.852
		c1.635-0.572,3.079-0.935,4.676-1.562c1.77-0.708,2.66-1.425,3.967-2.024c2.46-1.135,12.529-2.787,15.342-3.15
		c10.903-1.435,22.414-0.608,32.91,2.306c1.598,0.444,3.049,0.907,4.584,1.416c2.114,0.69,2.713,0.2,4.846,1.38
		c1.363,0.763,2.471,1.543,4.287,1.725c1.742,0.191,2.359,1.38,3.994,2.233l4.357,1.87c1.497,0.653,2.232,1.607,3.783,2.324
		c0.128-1.807-0.733-1.435-1.715-2.497c0.182-0.899,1.045-1.044,1.271-2.243c-1.39-1.135-2.842-2.877-5.466-3.268
		c-2.496-0.381-6.189-3.395-8.996-4.502c-2.15-0.854-1.605-1.126-2.741-1.671c-1.063-0.517-2.569-0.227-3.813-0.635
		c-1.226-0.4-1.615-1.353-2.405-2.215c-2.896,0.508-7.489,0.508-9.877-1.125l-0.563,0.772c-0.189,0.309-0.264,0.462-0.473,0.771
		c-1.771,0.136-2.66-0.254-3.805-1.108c-1.36-1.017-2.459-0.49-3.193-1.707c0.391-1.216,1.334-0.962,2.76-1.117
		c0.219-0.917,0.271-0.454,0.354-1.525c-3.077,0.236-3.269-1.008-5.847-1.09l-0.672,1.58c-1.725-0.572-0.735-1.988-5.656-1.925
		c-0.455,0.727-0.246,0.899-0.863,1.389c-0.436-0.726,0.136-1.108-1.897-1.362c-1.226-0.145-2.679,0.019-3.85,0.072
		C115.091,79.774,114.337,79.856,112.496,81.817L112.496,81.817z M122.073,292.011L122.073,292.011h8.978
		c0.727-0.263,11.665-0.999,13.719-1.271c8.277-1.145,16.604-3.016,24.41-5.792c5.191-1.835,8.949-4.177,13.271-5.464
		c2.043-0.609,5.383-2.797,7.271-3.924c6.191-3.648,12.7-7.39,17.395-12.771l6.672-8.416c-1.707,0.6-3.885,2.77-5.092,3.749
		c-1.127,0.917-3.359,3.84-4.758,3.587c0.19-1.025,7.488-8.57,8.742-10.023c0.771-0.897,1.524-1.451,2.278-2.396
		c4.729-5.899,9.504-14.071,11.601-21.442c1.607-5.627,2.106-8.787,5.021-13.662l2.852,1.672c0.227,3.449-3.332,5.363-2.97,10.666
		c0.526-0.254,0.763-0.664,1.099-1.254c0.328-0.563,0.49-0.854,0.699-1.379c0.426-0.998,0.809-2.105,1.135-3.287
		c0.635-2.287,1.106-4.639,1.896-6.698c1.28-3.306,3.504-10.013,3.396-13.926c-1.825,2.278-1.381,4.647-2.069,7.698
		c-0.363,1.634-1.101,2.306-1.437,3.521c-0.397,1.452-0.453,5.065-2.478,3.051c-2.506-2.506-1.035-6.745-0.154-9.586
		c1.107-3.56,1.479-8.053,1.888-11.948c1.672-15.932,0.899-33.679-4.782-48.513c-1.337-3.485-2.843-6.264-4.54-9.259
		c-0.862-1.526-2.061-2.669-2.061-4.758c0.019-1.87,1.262-4.175,0.59-5.737c-1.732-4.031-14.599-18.438-18.582-22.532
		c-5.61-5.773-11.713-11.111-18.676-15.396c-3.957-2.433-5.328-1.652-6.363-4.048c-0.543-1.253-0.254-0.808-1.852-1.543
		c-11.975-5.501-22.994-8.915-36.313-11.566c-5.166-1.035-6.174-1.697-11.893-1.425c-4.403,0.208-8.86-0.127-13.399,0.163
		c-16.023,1.008-30.956,5.111-42.894,11.765c-13.028,7.254-24.792,16.059-34.043,27.625c-3.032,3.795-5.874,7.553-8.424,11.874
		c-1.698,2.887-3.314,5.864-4.685,9.105c-2.106,5.011-2.433,5.138-2.696,10.276c3.376,0.027,2.923-1.825,3.776-4.53
		c0.608-1.961,1.153-1.525,1.716-2.442c0.235-0.391,0.789-2.46,1.035-3.123c1.434-3.931,3.195-7.78,5.274-11.121
		c3.559-5.683,2.251-3.376,5.348-7.126c6.463-7.798,10.303-11.956,18.446-18.256c3.123-2.405,6.264-4.503,9.768-6.608
		c6.708-4.04,14.425-7.544,22.64-10.149c19.309-6.101,36.912-6.609,57.256-1.789c6.617,1.562,12.563,3.722,18.746,5.964
		c2.088,0.762,3.358,1.988,5.328,2.742c1.716,0.663,2.278-0.182,3.55,0.599l7.88,4.357c2.369,1.416,7.38,5.874,7.479,8.751
		c-1.324,0.109-1.65-0.518-2.277-1.198c-1.243-1.362-0.473-0.781-0.861-2.533c-4.104-0.082-3.205-0.463-6.064-2.251
		c-1.762-1.098-3.34-2.37-5.129-3.458c-3.924-2.406-6.736-4.784-11.229-6.209c-12.964-4.094-13.646-5.12-28.188-6.463
		c-10.72-0.981-21.886-0.872-32.462,0.699c-5.973,0.88-11.61,3.06-17.33,4.503l-8.47,4.293c-3.94,1.843-7.58,3.895-11.266,6.155
		c-9.504,5.846-18.401,13.654-24.919,22.695c-3.096,4.285-5.819,8.198-8.379,13.208c-1.916,3.768-3.568,7.979-5.384,11.792
		c-1.807,3.795-3.613,8.406-4.766,12.683c-0.282,1.062-0.5,2.587-0.845,3.567c-0.227,0.672-0.463,0.8-0.68,1.398
		c-0.228,0.635-0.2,1.089-0.363,1.725c-0.935,3.613,1.352,4.885-1.688,6.3c-0.028,2.179,1.425,2.833,0.971,4.648
		c-0.136,0.527-2.169,2.851-2.578,3.195c-2.097-3.204,0.726-1.134-1.234-4.339c0.29-1.08,0.245-0.381,0.798-1.308
		c0.817-1.334,0.753-3.559,0.727-5.065l-0.99-0.69c-3.141,5.828-0.291,13.98-2.805,14.616c-1.153,0.29,0.063-0.255-1.425-0.5
		c-0.654,0.753-0.981,1.48-1.598,1.943c-0.608,0.445-0.536,0.345-1.244,0.39l-1.153,0.163c0.245,1.707,1.798,1.099,1.262,3.26
		c-0.317,1.28-0.79,0.082-0.109,1.625c1.434,3.313-0.045,6.327,0.481,10.458c-1.888,1.761-1.208,3.05-0.381,5.882
		c0.263,0.926,0.472,2.27,0.771,3.114c0.317,0.871,0.79,1.407,1.135,2.523c0.581,1.915,0.427,5.238,1.017,6.509
		c0.417,0.89,1.125,1.534,1.353,2.597c0.2,0.927-0.063,1.688-0.49,2.307c-0.245,0.363-0.118-0.072-0.335,0.49
		c0.898,3.005,2.097,6.21,3.24,9.06c2.76,6.882,1.625,5.655,4.785,7.172c0.3,1.361,0.29,3.068,0.708,4.248
		c0.663,1.907,1.779,1.382,2.532,2.406c1.435,1.961-0.354,3.142,3.45,6.437c1.244,1.09,1.135,1.309,2.224,2.725
		c0.98,1.279,1.471,0.525,2.306,2.632c1.834,4.54,1.071,2.197,2.959,4.33c1.734,1.971,3.468,5.512,5.111,7.118
		c0.762,0.754,1.761,1.262,2.987,1.951c1.098,0.608,1.751,1.435,2.75,2.197c1.408,1.071,4.149,3.775,5.602,4.229
		c3.522,1.109,2.324,3.859,4.983,4.794c0.336-0.397,0.591-0.953,1.471-0.979c1.125-0.019,0.917,0.6,0.99,1.524
		c0.172,2.233,1.57,0.646,2.569,0.345l12.491,5.965c4.286,1.971,8.279,3.857,12.963,5.502c4.712,1.66,9.542,2.877,14.662,3.803
		c2.641,0.474,5.283,0.836,8.024,1.127C115.427,291.512,121.047,291.646,122.073,292.011z"/>
	<path fill="#727171" d="M55.884,113.155c1.189,0.254,0.626,0.299,1.38-0.473l3.359-3.677c3.713-3.712,10.83-9.55,15.497-12.083
		c1.843-0.999,4.158-2.215,6.055-3.05c1.18-0.508,2.533-0.527,3.594-1.089c1.653-0.89-0.69-0.073,2.923-1.762
		c0.999-0.454,1.689-1.117,2.842-1.58l6.563-2.805c0.509-0.372,0.727-0.708,1.461-0.844c1.126-0.218,0.945,0.254,1.898-0.436
		c-1.707-1.417-5.456,0.436-6.736,1.28c-1.525,1.007-1.96,0.554-3.513,1.18l-10.204,3.84c-2.333,0.99-3.94,2.533-5.573,3.795
		l-5.556,3.813c-2.987,1.579-2.615,0.78-5.329,4.03c-1.071,1.28-1.108,1.035-2.642,2.043c-0.663,0.436-3.441,4.157-4.231,5.147
		C57.055,111.248,55.857,112.12,55.884,113.155z"/>
	<path fill="#727171" d="M37.692,146.689c0.39-0.681,0.417-0.944,0.708-1.87c0.354-1.144,0.418-0.699,1.126-1.507
		c0.617-0.681,1.289-2.606,1.825-3.613c1.743-3.304,4.675-7.989,5.655-10.476c1.634-4.14,2.115-2.478,4.121-6.545
		c0.727-1.471,1.453-1.871,1.208-4.058c0.88-0.508,2.923-2.396,2.769-4.158c-1.888,0.291-2.714,1.298-3.241,2.978
		c-0.408,1.289-0.417,0.799-1.562,1.543c-1.987,1.289-2.197,4.457-3.295,6.327c-0.772,1.316-1.425,2.688-2.161,4.076
		c-1.461,2.75-2.887,5.601-4.231,8.524c-0.572,1.244-1.67,3.068-2.033,4.203c-0.563,1.761,0.373,1.271-0.608,2.514
		C37.964,144.637,36.629,145.327,37.692,146.689z"/>
	<path fill="#727171" d="M238.943,148.45c0.771-1.108,0.646-1.634,2.232-3.286c-1.033-1.58-2.387-2.833-3.703-4.24
		C238.173,143.829,236.92,146.744,238.943,148.45z"/>
	<path fill="#727171" d="M239.697,154.914l2.287-3.231c0.734-0.945,1.897-2.115,1.299-3.468c-0.898,0.254-2.715,1.688-3.359,2.197
		C238.707,151.374,239.09,153.761,239.697,154.914z"/>
	<path fill="#727171" d="M60.75,113.735c1.743-0.037,1.135-0.654,2.142-1.679c1.734-1.761,5.456-2.606,5.221-5.393
		C66.27,106.672,60.986,112.029,60.75,113.735z"/>
	<path fill="#727171" d="M21.95,150.737l0.136,2.325l-1.934,0.508c0.563,2.315-0.445,3.513,0.236,4.702
		c0.563,0.99-0.037,0.136,0.526,0.5c1.253-1.443,0.944-3.731,1.153-5.71c0.227-2.233,1.58-2.842,1.58-5.847
		C22.386,147.824,21.841,148.94,21.95,150.737z"/>
	<path fill="#727171" d="M35.849,175.003c-0.245,1.879-0.109,2.488,0.454,4.085c4.448-0.063,3.086-2.242,0.5-4.766L35.849,175.003z"
		/>
	<path fill="#727171" d="M68.72,106.246c0.182,0.1-0.054,0.699,1.771-0.372c1.516-0.88,4.611-2.024,3.477-3.25
		c-1.117-1.207-2.814,0.59-3.313,1.053C70.073,104.212,68.548,105.492,68.72,106.246z"/>
	<path fill="#727171" d="M23.121,140.697l1.652,1.907c-1.053,0.499-0.799,0.354-1.244,1.652c-0.445,1.29-0.454,1.616,0.863,1.87
		c0.762-1.135,0.335-1.252,0.681-2.696c0.245-1.062,0.681-1.743,0.898-2.805C25.136,140.579,23.385,140.226,23.121,140.697z"/>
	<path fill="#727171" d="M57.282,120.553c-0.236-1.035-0.063-0.863-0.717-1.435c-1.071,1.008-0.426,1.389-1.861,1.888
		c-1.017,0.354-1.878,0.844-1.325,2.169c0.681,0.763,1.68-0.163,2.479-0.517l-0.208-1.498L57.282,120.553z"/>
	<path fill="#727171" d="M81.857,287.781c-1.426-0.338-1.081-0.137-1.389,0.072c0.2,0.381-0.681,0.217,0.817,1.024
		c1.426,0.772,2.66,1.035,4.349,0.953C85.451,288.244,83.381,288.145,81.857,287.781z"/>
	<path fill="#727171" d="M240.842,163.392c0.936-0.889,1.643-1.615,1.315-3.422l-0.718-0.227
		C240.232,160.505,240.359,161.713,240.842,163.392z"/>
	<path fill="#727171" d="M1.979,213.967c0.635-1.39,0.745-2.896-1.307-3.35c-0.073,1.017-0.118,1.125,0.254,1.996
		C1.37,213.648,1.497,213.631,1.979,213.967z"/>
	<path fill="#727171" d="M105.887,83.869c0.68,0.454,1.198,0.726,2.206,0.744c0.49-0.753,0.481-0.672,0.644-1.916
		C107.267,82.743,106.513,82.797,105.887,83.869z"/>
	<path fill="#727171" d="M260.805,229.771v-2.516c-0.918,0.354-1.045,0.926-1.479,1.988
		C259.777,229.59,260.021,229.727,260.805,229.771z"/>
	<path fill="#727171" d="M110.716,83.833c0.1-0.437-0.636-1.217-1.045-1.48c-0.181,0.472-0.408,1.343,0.382,1.643
		C111.188,84.422,110.453,83.996,110.716,83.833z"/>
	<path fill="#727171" d="M113.503,83.996c0.327,0.072,0.2,0.182,0.781,0.082l0.38-0.109c0.363-0.172,0.255-0.208,0.4-0.354
		C114.457,83.097,113.684,82.779,113.503,83.996z"/>
	<path fill="#727171" d="M112.041,84.195h0.953c-0.271-0.663-0.136-0.526-0.753-0.835L112.041,84.195z"/>
</g>
</svg>
