<?xml version="1.0" encoding="utf-8"?>
<!-- Generator: Adobe Illustrator 16.0.0, SVG Export Plug-In . SVG Version: 6.00 Build 0)  -->
<!DOCTYPE svg PUBLIC "-//W3C//DTD SVG 1.1//EN" "http://www.w3.org/Graphics/SVG/1.1/DTD/svg11.dtd">
<svg version="1.1" id="图层_1" xmlns="http://www.w3.org/2000/svg" xmlns:xlink="http://www.w3.org/1999/xlink" x="0px" y="0px"
	 width="260px" height="400px" viewBox="0 0 260 400" enable-background="new 0 0 260 400" xml:space="preserve">
<metadata><?xpacket begin="﻿" id="W5M0MpCehiHzreSzNTczkc9d"?>
<x:xmpmeta xmlns:x="adobe:ns:meta/" x:xmptk="Adobe XMP Core 5.3-c011 66.145661, 2012/02/06-14:56:27        ">
   <rdf:RDF xmlns:rdf="http://www.w3.org/1999/02/22-rdf-syntax-ns#">
      <rdf:Description rdf:about=""
            xmlns:dc="http://purl.org/dc/elements/1.1/">
         <dc:format>image/svg+xml</dc:format>
         <dc:title>
            <rdf:Alt>
               <rdf:li xml:lang="x-default">打印</rdf:li>
            </rdf:Alt>
         </dc:title>
      </rdf:Description>
      <rdf:Description rdf:about=""
            xmlns:xmp="http://ns.adobe.com/xap/1.0/"
            xmlns:xmpGImg="http://ns.adobe.com/xap/1.0/g/img/">
         <xmp:MetadataDate>2014-11-18T23:12+08:00</xmp:MetadataDate>
         <xmp:ModifyDate>2014-11-18T23:12+08:00</xmp:ModifyDate>
         <xmp:CreateDate>2014-11-18T23:12+08:00</xmp:CreateDate>
         <xmp:CreatorTool>Adobe Illustrator CS6 (Windows)</xmp:CreatorTool>
         <xmp:Thumbnails>
            <rdf:Alt>
               <rdf:li rdf:parseType="Resource">
                  <xmpGImg:width>256</xmpGImg:width>
                  <xmpGImg:height>256</xmpGImg:height>
                  <xmpGImg:format>JPEG</xmpGImg:format>
                  <xmpGImg:image>/9j/4AAQSkZJRgABAgEASABIAAD/7QAsUGhvdG9zaG9wIDMuMAA4QklNA+0AAAAAABAASAAAAAEA&#xA;AQBIAAAAAQAB/+4ADkFkb2JlAGTAAAAAAf/bAIQABgQEBAUEBgUFBgkGBQYJCwgGBggLDAoKCwoK&#xA;DBAMDAwMDAwQDA4PEA8ODBMTFBQTExwbGxscHx8fHx8fHx8fHwEHBwcNDA0YEBAYGhURFRofHx8f&#xA;Hx8fHx8fHx8fHx8fHx8fHx8fHx8fHx8fHx8fHx8fHx8fHx8fHx8fHx8fHx8f/8AAEQgBAAEAAwER&#xA;AAIRAQMRAf/EAaIAAAAHAQEBAQEAAAAAAAAAAAQFAwIGAQAHCAkKCwEAAgIDAQEBAQEAAAAAAAAA&#xA;AQACAwQFBgcICQoLEAACAQMDAgQCBgcDBAIGAnMBAgMRBAAFIRIxQVEGE2EicYEUMpGhBxWxQiPB&#xA;UtHhMxZi8CRygvElQzRTkqKyY3PCNUQnk6OzNhdUZHTD0uIIJoMJChgZhJRFRqS0VtNVKBry4/PE&#xA;1OT0ZXWFlaW1xdXl9WZ2hpamtsbW5vY3R1dnd4eXp7fH1+f3OEhYaHiImKi4yNjo+Ck5SVlpeYmZ&#xA;qbnJ2en5KjpKWmp6ipqqusra6voRAAICAQIDBQUEBQYECAMDbQEAAhEDBCESMUEFURNhIgZxgZEy&#xA;obHwFMHR4SNCFVJicvEzJDRDghaSUyWiY7LCB3PSNeJEgxdUkwgJChgZJjZFGidkdFU38qOzwygp&#xA;0+PzhJSktMTU5PRldYWVpbXF1eX1RlZmdoaWprbG1ub2R1dnd4eXp7fH1+f3OEhYaHiImKi4yNjo&#xA;+DlJWWl5iZmpucnZ6fkqOkpaanqKmqq6ytrq+v/aAAwDAQACEQMRAD8A9U4q7FXYq7FXYq7FXYq7&#xA;FXYq7FXYq7FXYq7FXYqwvz751n0a1vrVNGvLlDBT6+sZFovqjj8Uu9KV+/FUi/KfzlfS6VY6Kmjz&#xA;y29u5gbUYviiTkTJWTbb7WKvUcVdirsVdirsVdirsVdirsVdirsVdirsVdirsVdirsVdirsVdirs&#xA;VdirsVdirsVdirsVdirsVdiqhfqrWU6sAymNqg7jocVSL8t0RfJGkFVALQAsQKVNT1xVkmKuxV2K&#xA;uxV2KuxV2KuxV2KuxV2KuxV2KuxV2KuxV2KuxV2KuxV2KuxV2KuxV2KuxV2KuxV2KuxVj35grcHy&#xA;Xq31e4NrKsBYTLyrRWDMg47/ABgcfpxVJ/yZWQeR4Wed5uc8pRHrSJQQvBa9vh5fTirOcVdirsVd&#xA;irsVdirsVdirsVdirsVdirsVdirsVdirsVdirsVdirsVdirsVdirsVdirsVdirsVdirAfzn1ufTv&#xA;KqQ2tyYLi9nWJ1RgsjQ8HL/5XGoANPGnfFUk/IXVLiWDVdOmuC8UHoy2sDGvENzEhUHoKha4q9Zx&#xA;V2KuxV2KuxV2KuxV2KuxV2KuxV2KuxV2KuxV2KuxV2KuxV2KuxV2KuxV2KuxV2KuxV2KuxVIvN3m&#xA;Ww0bTLhJL+Ky1Ca3mOnmXcGRV+E0oejEYq+aL/Ub/Ublrq+uJLm4f7UsrFmoOgqe2KVlpeXdlcJc&#xA;2k8lvcJuksTFHHyZaHFX0b5A8yQ6hotla3eq29/rXo+pcJE4Lha1HMCnxKrANt1xQyrFXYq7FXYq&#xA;7FXYq7FXYq7FXYq7FXYq7FXYq7FXYq7FXYq7FXYq7FXYq7FXYq7FXYq7FXYq8+/OuTTk8pobmMPc&#xA;vOqWbFSeLFSWNQy0+EHx+WKvA8UuxV7d+RMlnJo18qxRi7glAkmESq5RwSoMtSzioO1BTFD0/FXY&#xA;q7FXYq7FXYq7FXYq7FXYq7FXYq7FXYq7FXYq7FXYq7FXYq7FXYq7FXYq7FXYq7FXYqwX857e3k8j&#xA;zySKDJDNC0DHqrM4U0/2JOKvnzFLsVe9fkfbWSeUpJ4gv1ma4cXLA1b4AOAI7UB2xQ9DxV2KuxV2&#xA;KuxV2KuxV2KuxV2KuxV2KuxV2KuxV2KuxV2KuxV2KuxV2KuxV2KuxV2KuxV2KvnH8yfOGo69rksM&#xA;nqQWFm5S3s5F9NlYbM0i1Px1+7FWIYpdiqf+TPNt/wCWdYju4HY2rsq3tuNxJFXfYkDkB9k16+1c&#xA;UPpXTL+PUNOtr6OOSKO5jWVI5QFkUOKgMATQ/TiqJxV2KuxV2KuxV2KuxV2KuxV2KuxV2KuxV2Ku&#xA;xV2KuxV2KuxV2KuxV2KuxV2KuxVpmVFLMQqqKsx2AA7nFXlHnj850geTT/LXGWQVWTUmHJAf+KVO&#xA;zf6x28AeuKvIby9u725kuruZ57mU8pJZCWZj7k4pUMVdiq5HdHV0Yq6kFWBoQR0IOKvWvIX5xspj&#xA;03zM/Jdlh1Om48BMB1/1x9Pjih6/HJHJGskbB43AZHUgggioII6g4quxV2KuxV2KuxV2KuxV2Kux&#xA;V2KuxV2KuxV2KuxV2KuxV2KuxV2KuxV2KuxV2KvF/wA3fzCe5nl8u6VLS2iPHUZ0P9446xAj9lf2&#xA;vE7fNV5Vil2KuxV2KuxV2KvSvyr/ADHfSriPRNWlrpcp420z/wC6HY9Cf99sfuO/SuKHueKuxV2K&#xA;uxV2KuxV2KuxV2KrIJ4biJZoHEkTV4upqDQ0O/zxVfirsVdirsVdirsVdirsVdirsVdirsVdirFP&#xA;zK81ny75almgfjqF2fQs/EMw+KT/AGC7/OmKvm4kkkk1J3JOKWsVdirsVdirsVdirsVe9/k95wfW&#xA;NGbS7x+V/poAVmNWkgOyn5p9k/Rih6FirsVdirsVdirsVdiq2YxiJzKAYwp5gioK032xVJPJWoaR&#xA;f+X4ZtKCraB5FAVPTHIMSfhoPHFU9xV2KuxV2KuxV2KuxV2KuxV2KuxV2KuxV4D+dOtPfebjYhqw&#xA;abEsajt6kgEjn8VH0YqwDFLsVdirsVdirsVdirsVZR+WmsnSfOenTFuMNw/1WfsCs3wivsH4t9GK&#xA;H0rirsVdirsVdirsVdirz784vNF9o2jw21jcJFNf+pFKmxk9Iru69x/LX3xViX5I+YbuLWH0SS4V&#xA;bGdXmihegJmAAold91Fae2KvbsVdirsVdirsVdirsVdirsVdirsVdirTuiIzuwVFBZmY0AA3JJOK&#xA;vlrzddm7806tc8uQku5yhBqOIkIWh/1QMUpRirsVdirsVdirsVdirsVXI7I6uhKupBVh1BG4OKvr&#xA;DSL5b/SrK+XpdQRzj/nogb+OKEXirsVdirsVdirsVeEfnbrFhfeYre1tX9R7CIx3DKQV5sQ1AQTu&#xA;Oh98VYn5N1q10TzNY6pdI729qzNIsQBcgoy7Bio6t44pfT9tcRXNvHPCweKVQyMCCCD7ioxQqYq7&#xA;FXYq7FXYq7FXYq7FXYq7FXYqxf8AMrW7XS/J2petvJeQPawR1oWacemSDQ/ZDFvoxV81YpdirsVd&#xA;irsVdirsVdirsVdir2j8jvMYlsZ9BaEr9XJmjnAdg3qEkqxC8Upx2q2/bFD1XFXYq7FXYq4kAVOw&#xA;HU4q8T/Mf817m8ml0ny/MYrFapcXqGjzHoRG37Ke43b5dVXl+KWsVZF5Q88635Yuw9pIZbNj/pFj&#xA;IT6bjvT+VvBh9NRtih9F6Brun65pUGpWD84JhuD9pGH2kYdmU4qmGKuxV2KuxV2KuxV2KuxV2Kux&#xA;Vjf5h31pY+U724urD9IRBeAiIUqjOCiyMWrxCk9QK4q+ZsUuxV2KuxV2KuxV2KuxV2KuxV7Z+Rep&#xA;WMmm3lhDp/oXUHF7nUByYXBZ34hjxAQxqQFXlvufHFD1HFXYq7FUjfzDejzYugppxaIwC6a+9VQB&#xA;HXjX0yKk8/h6++Ksb/OTzTLpOgJp1q5S71QtGzA7rAoHqf8ABcgvyrirwLFLsVdirsVej/kp5lks&#xA;fMD6NK3+i6kCY1J2WeMEgj/WUFT47Yoe7Yq7FXYq7FXYq7FXYq7FXYql3mO91Cx0K+vNPhFxewRM&#xA;8MJqeRHsoYk06Dv0xV86695684axatp2r3rSwpIGeAxRREOlRvwRG2r0xVjuKXYq7FXYq7FXYq7F&#xA;XYq7FXYqnHlnzRrHl2+e70tlE80ZhYOvMFWZW+z41UYofQXkPW9c1jQ1udZsjZ3SsY/iqrScer+m&#xA;VXgN6AVOKsjxVI/OHmyw8saQ9/dD1JGPC2tgaNLIRWld6AdSe2KvCX/MnzK3mgeYg6LdKvpC3Ab0&#xA;PS/32V5VI3r1674qp+fvOH+KdQsr30/QMVqsUsPVVlDuWKnuCCMVYxil2KuxV2Ko/Qbx7LW9PvEJ&#xA;DW9zFIKdfhcGmKvcLPzZr2qee/8ADtoyW0GlvPPqUjjk08Sy8URP5fhkT6fluoZ9irsVdirsVdir&#xA;sVdirsVdir53/N+6tLnztcm2aNhFGkUxjUqfVSocPUCrA9/CmKsKxS7FXYq7FXYq7FXYq7FXYq7F&#xA;U58n6jHpvmbT72X0PThlqzXIZolBUjkQgZqrWq0HWmKH1Bb3ENxbxXELc4ZkWSNx3VhUHfxBxVUx&#xA;V89/nFrU1/5xntS1bbTVWCFe3JlDyN8yxp9AxVg2KXYq7FXYq7FXYq2rFSGU0I3BHUHFWc+UPOrR&#xA;fmO2rm2Ij1iVoZ4V/eMguHU/AaAni4Hbptih9B4qoteWa3K2rTxrcuOSwF1DkeIWtaYqrYqxfUPO&#xA;8Nn55sPLTLH6V3A0ktwWA4SfGUTrTf0zt7jFWUYq7FXYq7FXYq+fPzlsbS086SG3jEf1mCOeanRp&#xA;GLBm+njvirBcUuxV2KuxV2KuxV2KuxV2KuxVMfL36M/Tth+lKfo4Txm75Vp6fIcq8d6U8MVfSvlr&#xA;zJomu2ssmjsXtbST6vXgY1qqgjgDT4aEU2xQln5j+b5vLGgC6toxJeXMggty32UYqWLsO9AvTxxV&#xA;85317c315Pe3T+pc3MjSzSUAq7mpNBQDfsMUqGKuxV2KuxV2KuxV2KqkE80EqzQSNFKhqkiEqwPi&#xA;CNxiqd2/n3zjbWMljDq1wsErF3JYNJUgDaVgZFG3QNTFUkkmmklM0kjPMx5NIxJYnxJO+Kp7aef/&#xA;ADla2UllDq0/oSrwIdubKD/I7gun+xOKGPsxYlmNSdyT1JxSzTyx+bHmfQrVLL93f2iMOKXPNnRB&#xA;1RHDCg8OQNMUMpn/AD7I1JDBpddM4gSh3pOWPUqRVAB4U38RiqLtvz406TVxFPp7w6S3w/WOXKZT&#xA;X7bINuPiASfn0xVOfzL812kXko3Wlaqsc920f1J4GBaUBxzCkbrxFan6O+KpLon56aYVgt9Vs5oy&#xA;sarNeIyycpFUVYoAlAx8MVYR+aeu6brnmGDUdOl9S3ktIxvQMrK7gqw/ZPtirDsUuxV2KuxV2Kux&#xA;V2KuxV2KuxV2KovS9UvtKv4dQsJfRu4CTFLxVqEgqfhcMp2PcYqj9f8AOPmPzAkKavefWVtyzQj0&#xA;4o6FqA/3apXp3xVJcVdirsVdirsVdirsVdirsVdirsVdirsVdirsVdirdT08MVaxV2KuxV2KuxV2&#xA;KuxV2KuxV2KuxV2KuxV2KuxV2KuxV2KuxV2KuxV2KuxV2KuxV2KuxV2KuxV2KuxV2KuxV2KuxV2K&#xA;uxV2KuxV2KuxV2KuxV2KuxV2KuxV2KuxV2KuxV2KuxV2KuxV2KuxV2KuxV2KuxV2KuxV2KuxV2Ku&#xA;xV2KuxV2KuxV2KuxV2KuxV2KuxV2KuxV2KuxV2KuxV2KuxV2KuxV2KuxV2KuxV2KuxV2KuxV2Kux&#xA;V2KuxV2KuxV2KuxV2KuxV2KuxV2KuxV2KuxV2KuxV2KuxV2KuxV2KuxV2KuxV2KuxV2KuxV2KuxV&#xA;2KuxV2KuxV2KuxV2KuxV2KuxV2KuxV2KuxV2KuxV2KuxV2KuxV2KuxV2KuxV2KuxV2KuxV2KuxV2&#xA;KuxV2KuxV2KuxV2KuxV2KuxV2KuxV2KuxV2KuxV2KuxV2KuxV2KuxV2KuxV2KuxV2KuxV2KuxV2K&#xA;uxV2KuxV2KuxV2KuxV2KuxV2KuxV2KuxV2KuxV2KuxV2KuxV2KuxV2KuxV2KuxV2KuxV2KuxV2Ku&#xA;xV2KuxV2KuxV2KuxV2KuxV2KuxV2KuxV2KuxV2KuxV2KuxV2KuxV2KuxV2KuxV2KuxV2KuxV2Kux&#xA;V2KuxV2KuxV2KuxV2KuxV2KuxV2KuxV2KuxV2KuxV2KuxV2KuxV2KuxV2KuxV2KuxV2KuxV2KuxV&#xA;2KuxV2KuxV2KuxV2KuxV2KuxV2KuxV2KuxV2KuxV2KuxV2KuxV2KuxV2KuxV2KuxV2KuxV2KuxV2&#xA;KuxV2KuxV2KuxV2KuxV2KuxV2KuxV2KuxV2KuxV2KuxV2KuxV2KuxV2KuxV2KuxV2KuxV2KuxV2K&#xA;uxV2KuxV2KuxV2KuxV2KuxV2KuxV2KuxV2KuxV2KuxV2KuxV2KuxV2KuxV2KuxV2KuxV2KuxV2Ku&#xA;xV2KuxV2KuxVW+p3f++JP+Bb+mKu+p3f++JP+Bb+mKu+p3f++JP+Bb+mKu+p3f8AviT/AIFv6Yq7&#xA;6nd/74k/4Fv6Yq76nd/74k/4Fv6Yq76nd/74k/4Fv6Yq76nd/wC+JP8AgW/pirvqd3/viT/gW/pi&#xA;rvqd3/viT/gW/pirvqd3/viT/gW/pirvqd3/AL4k/wCBb+mKu+p3f++JP+Bb+mKu+p3f++JP+Bb+&#xA;mKu+p3f++JP+Bb+mKu+p3f8AviT/AIFv6Yq76nd/74k/4Fv6Yq76nd/74k/4Fv6Yq76nd/74k/4F&#xA;v6Yq76nd/wC+JP8AgW/pirvqd3/viT/gW/pirvqd3/viT/gW/pirvqd3/viT/gW/pirvqd3/AL4k&#xA;/wCBb+mKu+p3f++JP+Bb+mKu+p3f++JP+Bb+mKu+p3f++JP+Bb+mKu+p3f8AviT/AIFv6Yq76nd/&#xA;74k/4Fv6Yq76nd/74k/4Fv6Yq76nd/74k/4Fv6Yq76nd/wC+JP8AgW/pir//2Q==</xmpGImg:image>
               </rdf:li>
            </rdf:Alt>
         </xmp:Thumbnails>
      </rdf:Description>
      <rdf:Description rdf:about=""
            xmlns:xmpMM="http://ns.adobe.com/xap/1.0/mm/"
            xmlns:stRef="http://ns.adobe.com/xap/1.0/sType/ResourceRef#"
            xmlns:stEvt="http://ns.adobe.com/xap/1.0/sType/ResourceEvent#">
         <xmpMM:InstanceID>xmp.iid:ACD2D90B356FE41195E3D1493AEF96AB</xmpMM:InstanceID>
         <xmpMM:DocumentID>xmp.did:ACD2D90B356FE41195E3D1493AEF96AB</xmpMM:DocumentID>
         <xmpMM:OriginalDocumentID>uuid:5D20892493BFDB11914A8590D31508C8</xmpMM:OriginalDocumentID>
         <xmpMM:RenditionClass>proof:pdf</xmpMM:RenditionClass>
         <xmpMM:DerivedFrom rdf:parseType="Resource">
            <stRef:instanceID>xmp.iid:ABD2D90B356FE41195E3D1493AEF96AB</stRef:instanceID>
            <stRef:documentID>xmp.did:ABD2D90B356FE41195E3D1493AEF96AB</stRef:documentID>
            <stRef:originalDocumentID>uuid:5D20892493BFDB11914A8590D31508C8</stRef:originalDocumentID>
            <stRef:renditionClass>proof:pdf</stRef:renditionClass>
         </xmpMM:DerivedFrom>
         <xmpMM:History>
            <rdf:Seq>
               <rdf:li rdf:parseType="Resource">
                  <stEvt:action>saved</stEvt:action>
                  <stEvt:instanceID>xmp.iid:9FB6100F196FE41195E3D1493AEF96AB</stEvt:instanceID>
                  <stEvt:when>2014-11-18T22:56:30+08:00</stEvt:when>
                  <stEvt:softwareAgent>Adobe Illustrator CS6 (Windows)</stEvt:softwareAgent>
                  <stEvt:changed>/</stEvt:changed>
               </rdf:li>
               <rdf:li rdf:parseType="Resource">
                  <stEvt:action>saved</stEvt:action>
                  <stEvt:instanceID>xmp.iid:ACD2D90B356FE41195E3D1493AEF96AB</stEvt:instanceID>
                  <stEvt:when>2014-11-18T23:12+08:00</stEvt:when>
                  <stEvt:softwareAgent>Adobe Illustrator CS6 (Windows)</stEvt:softwareAgent>
                  <stEvt:changed>/</stEvt:changed>
               </rdf:li>
            </rdf:Seq>
         </xmpMM:History>
      </rdf:Description>
      <rdf:Description rdf:about=""
            xmlns:illustrator="http://ns.adobe.com/illustrator/1.0/">
         <illustrator:StartupProfile>Print</illustrator:StartupProfile>
      </rdf:Description>
      <rdf:Description rdf:about=""
            xmlns:xmpTPg="http://ns.adobe.com/xap/1.0/t/pg/"
            xmlns:stDim="http://ns.adobe.com/xap/1.0/sType/Dimensions#"
            xmlns:xmpG="http://ns.adobe.com/xap/1.0/g/">
         <xmpTPg:HasVisibleOverprint>False</xmpTPg:HasVisibleOverprint>
         <xmpTPg:HasVisibleTransparency>False</xmpTPg:HasVisibleTransparency>
         <xmpTPg:NPages>1</xmpTPg:NPages>
         <xmpTPg:MaxPageSize rdf:parseType="Resource">
            <stDim:w>260.000000</stDim:w>
            <stDim:h>400.000000</stDim:h>
            <stDim:unit>Pixels</stDim:unit>
         </xmpTPg:MaxPageSize>
         <xmpTPg:PlateNames>
            <rdf:Seq>
               <rdf:li>Cyan</rdf:li>
               <rdf:li>Magenta</rdf:li>
               <rdf:li>Yellow</rdf:li>
               <rdf:li>Black</rdf:li>
            </rdf:Seq>
         </xmpTPg:PlateNames>
         <xmpTPg:SwatchGroups>
            <rdf:Seq>
               <rdf:li rdf:parseType="Resource">
                  <xmpG:groupName>默认色板组</xmpG:groupName>
                  <xmpG:groupType>0</xmpG:groupType>
               </rdf:li>
            </rdf:Seq>
         </xmpTPg:SwatchGroups>
      </rdf:Description>
      <rdf:Description rdf:about=""
            xmlns:pdf="http://ns.adobe.com/pdf/1.3/">
         <pdf:Producer>Adobe PDF library 10.01</pdf:Producer>
      </rdf:Description>
   </rdf:RDF>
</x:xmpmeta>
                                                                                                    
                                                                                                    
                                                                                                    
                                                                                                    
                                                                                                    
                                                                                                    
                                                                                                    
                                                                                                    
                                                                                                    
                                                                                                    
                                                                                                    
                                                                                                    
                                                                                                    
                                                                                                    
                                                                                                    
                                                                                                    
                                                                                                    
                                                                                                    
                                                                                                    
                                                                                                    
                           
<?xpacket end="w"?>
	</metadata>
<path fill="#727171" d="M1.075,221.632c0.008-0.146,0.008-0.231,0.008-0.231S1.075,221.494,1.075,221.632L1.075,221.632z
	 M260.2,224.299V349.62H0V232c0.857,0.171,1.59,0.361,1.749,0.415c0.257,0.078-0.163-0.505-0.328-1.683
	c-0.172-1.176-0.256-1.771,0.238-2.603c0.509-0.847,0.595-1.185,0-2.022c-0.576-0.838-0.747-1.936-0.657-2.94
	c0.05-0.685,0.064-1.237,0.073-1.535c0,0.57,0.032,2.099,0.511,2.712c0.583,0.75,0.42,1.516,1.094,0.75
	c0.666-0.75,1.596-1.507,1.761-2.179c0.173-0.676,1.096-1.601,1.682-1.097c0.59,0.498,1.012,1.345,0.59,2.018
	c-0.419,0.675-1.843,0.675-1.845,1.516c0,0.842,0.251,2.271,0.249,2.946c0,0.665-0.676,1.093,0,2.181
	c0.667,1.1,0.757,1.266,1.515,2.527c0.755,1.26,1.26,1.678,0.165,3.025c-1.096,1.344-0.586,1.006-0.586,1.006h4.958v1.348h2.189
	l7.317-2.857l9.755,3.281c0,0,1.515-1.515,2.6-2.104c1.104-0.587,2.7-1.012,2.7-1.012v-2.771h0.757v-1.263h1.258v1.169h0.841v2.785
	c0,0,2.018,0.586,3.703,1.763c1.678,1.177,2.272,1.935,2.272,1.935h2.6l2.775,2.28l3.2-2.28l4.115,2.188l3.79-1.768l7.145,5.217
	l2.779-2.524c0,0,0.505-1.092,0.256-2.19c-0.256-1.082-0.93-0.834-0.595-1.34c0.339-0.506,1.179-0.758,1.179-1.259
	c0-0.505,0.248-0.843,0.248-0.843l0.848,1.263c0,0,0.839-0.677,0.839,0.333c0,1.012,0,2.272,0,2.272h4.042
	c0,0,1.433,1.178,1.672,1.178c0.257,0,3.457,0,3.457,0v1.597h1.423v-13.035l-1.68-1.683v-2.187h1.596v-2.103h-0.837v-0.672h0.921
	v-3.196h-1.088V219.8h-0.674l-0.713-0.709h-1.648v-1.819l-0.875-0.871l1.093-1.101h0.878v-1.214h5.554v-1.938h0.841v-2.021h-0.929
	v-1.092h1.177v-1.093h1.175v-3.036h-0.584v-0.664h-1.845v-1.271h-0.764v-0.664h1.515v-2.272h1.094v-4.882h1.68
	c0,0,0.173-7.982,3.111-14.717c2.946-6.728,6.305-11.772,10.767-16.398c4.454-4.625,12.278-8.658,12.278-8.658l-2.432-2.19v-0.839
	h1.593V150.5l4.372-4.289v-5.55l-1.186-1.173v-2.7l1.524-1.506v-1.002h-0.839v-0.847h1.168v-1.348h-1.853v-1.515h-1.004v-1.344h3.87
	v-1.601c0,0-0.923-1.092-0.502-2.191c0.419-1.087,1.507-1.758,2.438-1.758c0.921,0,3.364-1.426,3.613-2.273
	c0.255-0.839-0.165-3.868,0.345-4.874c0.501-1.01,2.264-1.686,2.264-1.686v-0.838h-1.096v-1.177l1.111-1.503
	c-0.916-0.359-1.569-1.25-1.569-2.301c0-1.16,0.812-2.138,1.892-2.398v-8.601h-1.516v-1.258h-4.033v-2.016h3.87v-1.014h1.431v-3.864
	h1.854v3.95h1.597v0.753h3.292v2.104h-3.382v1.344h-1.601v8.715c0.908,0.362,1.549,1.25,1.549,2.285
	c0,0.977-0.563,1.808-1.375,2.211l0.843,1.674v1.014h-0.923l-0.004,0.839c0,0,1.674,0.582,2.103,1.767
	c0.422,1.169,0.339,1.515,0.339,2.94c0,1.434,0,2.016,0.582,2.61c0.594,0.59,2.102,1.421,3.543,1.849
	c1.426,0.419,2.174,1.6,2.089,2.606c-0.081,1.01-1.427,1.348-1.427,1.348v1.597h4.546v1.092h-1.014v0.842H140.6v2.102h1.086v1.01
	h-1.006v0.671l1.35,1.344v3.03l-1.305,1.308v4.996l4.646,4.651v1.49h2.045v2.02l-2.275,1.185c0,0,9.338,6.643,11.271,8.74
	c1.935,2.101,9.337,9.415,12.106,18.169c2.771,8.738,3.285,13.622,3.285,13.622h1.43v3.693h1.597v2.361h1.345v1.088h-1.507v1.683
	h-0.847v0.766h-1.096v2.604h1.853v1.684h0.92v1.087h-1.173v1.521h1.429v2.187h4.546v1.429l2.27,0.506l-1.184,1.178v1.596h-2.605
	l-1.979,1.977v2.39h1.482v1.353h-1.102v1.602h2.44v1.934l-2.106,2.098v4.125h2.106l0.72-0.713h1.635v2.396H185v2.021h6.391v-1.516
	l0.551-0.546c0,0-0.461-2.646,1.64-4.5c2.103-1.849,2.694-1.597,2.694-1.597v-1.434l0.58,0.004c0,0-0.172-3.197,1.434-6.479
	c1.604-3.278,3.868-5.645,5.131-6.643c1.26-1.019,2.443-1.345,2.443-1.345v-1.606h0.839v-2.773h-0.509v-0.583h-0.5v-1.177h3.701
	v1.002h-0.674v0.514h-0.666v3.018h0.91v1.522c0,0,2.443,1.007,3.45,1.683c1.015,0.664,1.935,2.436,1.935,2.438
	c0,0-0.254-3.114,1.015-7.063c1.258-3.95,4.54-9.254,8.669-12.536c4.113-3.278,5.957-4.04,5.957-4.04v-1.673h1.43v-6.141
	l1.684-1.389l-0.713-0.712v-2.944h0.846v1.172h0.628v-1.217h0.677l1.262-2.439v-2.183h0.795v-5.216h-1.048v-0.55h0.8v-1.43h0.756
	v1.43h0.799v0.505h-0.842v5.221h1.049v2.187l1.259,2.476h0.465v1.429h0.506v-1.515h0.716v3.319l-1.009,0.26l2.021,1.642v5.799h2.019
	v2.268c0,0,5.213,1.429,10.093,7.866c4.873,6.432,5.549,14,5.676,16.185c0.127,2.19,0.162,5.302,0.162,5.302h0.183V224.299z"/>
</svg>
