<?xml version="1.0" encoding="utf-8"?>
<!-- Generator: Adobe Illustrator 16.0.0, SVG Export Plug-In . SVG Version: 6.00 Build 0)  -->
<!DOCTYPE svg PUBLIC "-//W3C//DTD SVG 1.1//EN" "http://www.w3.org/Graphics/SVG/1.1/DTD/svg11.dtd">
<svg version="1.1" id="图层_1" xmlns="http://www.w3.org/2000/svg" xmlns:xlink="http://www.w3.org/1999/xlink" x="0px" y="0px"
	 width="260px" height="400px" viewBox="0 0 260 400" enable-background="new 0 0 260 400" xml:space="preserve">
<metadata><?xpacket begin="﻿" id="W5M0MpCehiHzreSzNTczkc9d"?>
<x:xmpmeta xmlns:x="adobe:ns:meta/" x:xmptk="Adobe XMP Core 5.3-c011 66.145661, 2012/02/06-14:56:27        ">
   <rdf:RDF xmlns:rdf="http://www.w3.org/1999/02/22-rdf-syntax-ns#">
      <rdf:Description rdf:about=""
            xmlns:dc="http://purl.org/dc/elements/1.1/">
         <dc:format>image/svg+xml</dc:format>
         <dc:title>
            <rdf:Alt>
               <rdf:li xml:lang="x-default">打印</rdf:li>
            </rdf:Alt>
         </dc:title>
      </rdf:Description>
      <rdf:Description rdf:about=""
            xmlns:xmp="http://ns.adobe.com/xap/1.0/"
            xmlns:xmpGImg="http://ns.adobe.com/xap/1.0/g/img/">
         <xmp:MetadataDate>2014-11-18T23:05:13+08:00</xmp:MetadataDate>
         <xmp:ModifyDate>2014-11-18T23:05:13+08:00</xmp:ModifyDate>
         <xmp:CreateDate>2014-11-18T23:05:13+08:00</xmp:CreateDate>
         <xmp:CreatorTool>Adobe Illustrator CS6 (Windows)</xmp:CreatorTool>
         <xmp:Thumbnails>
            <rdf:Alt>
               <rdf:li rdf:parseType="Resource">
                  <xmpGImg:width>256</xmpGImg:width>
                  <xmpGImg:height>136</xmpGImg:height>
                  <xmpGImg:format>JPEG</xmpGImg:format>
                  <xmpGImg:image>/9j/4AAQSkZJRgABAgEASABIAAD/7QAsUGhvdG9zaG9wIDMuMAA4QklNA+0AAAAAABAASAAAAAEA&#xA;AQBIAAAAAQAB/+4ADkFkb2JlAGTAAAAAAf/bAIQABgQEBAUEBgUFBgkGBQYJCwgGBggLDAoKCwoK&#xA;DBAMDAwMDAwQDA4PEA8ODBMTFBQTExwbGxscHx8fHx8fHx8fHwEHBwcNDA0YEBAYGhURFRofHx8f&#xA;Hx8fHx8fHx8fHx8fHx8fHx8fHx8fHx8fHx8fHx8fHx8fHx8fHx8fHx8fHx8f/8AAEQgAiAEAAwER&#xA;AAIRAQMRAf/EAaIAAAAHAQEBAQEAAAAAAAAAAAQFAwIGAQAHCAkKCwEAAgIDAQEBAQEAAAAAAAAA&#xA;AQACAwQFBgcICQoLEAACAQMDAgQCBgcDBAIGAnMBAgMRBAAFIRIxQVEGE2EicYEUMpGhBxWxQiPB&#xA;UtHhMxZi8CRygvElQzRTkqKyY3PCNUQnk6OzNhdUZHTD0uIIJoMJChgZhJRFRqS0VtNVKBry4/PE&#xA;1OT0ZXWFlaW1xdXl9WZ2hpamtsbW5vY3R1dnd4eXp7fH1+f3OEhYaHiImKi4yNjo+Ck5SVlpeYmZ&#xA;qbnJ2en5KjpKWmp6ipqqusra6voRAAICAQIDBQUEBQYECAMDbQEAAhEDBCESMUEFURNhIgZxgZEy&#xA;obHwFMHR4SNCFVJicvEzJDRDghaSUyWiY7LCB3PSNeJEgxdUkwgJChgZJjZFGidkdFU38qOzwygp&#xA;0+PzhJSktMTU5PRldYWVpbXF1eX1RlZmdoaWprbG1ub2R1dnd4eXp7fH1+f3OEhYaHiImKi4yNjo&#xA;+DlJWWl5iZmpucnZ6fkqOkpaanqKmqq6ytrq+v/aAAwDAQACEQMRAD8A9U4q7FXYq7FXYq7FXYq0&#xA;6I6MjgMjAqyncEHYg4qw5P8AEHlF2ThLrPlmtY+FXvLNf5SDvNEvb9oD5YqyXSda0vV7RbvTblLm&#xA;Bv2kO6nwZT8Sn2IxVG4q7FXYq7FXYq7FXYq7FXYq7FXYq7FULqWqWGm2rXV9MsEK0HJupY9FVRuz&#xA;HsBucVSYRa7r7BrgPpGik1+q1peXC+EpH9wh/lU8z3K9MVZGqhQFUUUbADoBirsVdirsVdirsVdi&#xA;rsVdirsVdirsVdirsVdirsVUJb2OGTjMrRx9pyKx+9WBPGn+VT2xVi/mfQLKCvmDSZzpWpD4pL6E&#xA;Vt5FpUfW4xUNGe70qOp2GKrfJn5j6frkrabemO01uIlHhVw8UxXq0EgJDDvSvyqN8VZjirsVdirs&#xA;VdirsVdirsVdirsVYj5r/MXTtHuBplhGdU16VhHFYw78Xbp6jCtP9Ub/AC64qq6LoUtsRr/mu6jn&#xA;1elVLsFtrNW/3XACeIPYv1Pj4qsit7tZ9445PTPSRlKD6A/FvppTFVfFXYq7FXYq7FXYq7FXYq7F&#xA;XYqhbqbUo2rb20c8Y61mKP8AQpQr97DFUM2upCK3lld23uYTOPvtjOB9NMVQreevJ6EiTV7aNlry&#xA;R3CMKeKtRsVS+5/NbyFASG1RXYdo4pnr9Kpx/HFVsH5teQZaD9J+mx7PDOv48Kfjiqc2Pm3yvfEC&#xA;01W1lc7CMTIH/wCBJDfhiqbAgio3B6HFUsvNG0u5Sa0RmtJZl5yfVJDBIQajmQhAbv8AaBxV4j5z&#xA;/K3W/Lsv13TjJfacp5rPGp9aEjf94q+H842+WKpv5M/Om7tBHZeYla6txRVv03mUdP3i/tj3+188&#xA;VeqQahbSiPV7G5W50q6UeuynkqkbLKp7U+y4+nahqqm2KuxV2KuxV2KuxVDajqVhptpJeX86W1tE&#xA;KvLIaAe3uT2AxV4z53/OS9vzJY+Xi1nZH4XvD8M8g/yP99r/AMN8umKpp+UvlTVY7c6s1utnLcV4&#xA;6hcD1JzGf+WeI0VOXeR+Vey0xV6lHp1osqTOvr3Meyzy/G6kjfiTsla78QMVRJIAqdgOpxVKL7zf&#xA;5WsCVu9WtYnHWMyoXH+xBLfhiqTzfm15AiqP0n6jDskM5/HhT8cVXQfmv5BmIA1UIx7SRTJT6SnH&#xA;8cVRo8/+TG4hNWgkZ68UjJdzT/JUFvwxVUPmqOXbT9N1C+J+yy27QIT/AK90YFp7jFUZp13rVw9b&#xA;zT0soaHrcCSWvb4ETh/w+KphirsVQ95qOn2Sc7y5itkPRpnWMfexGKpXJ568mISG1qzPHrxmRvu4&#xA;k1xVSj/MLyTISF1m2FP5n4/8SpiqvH538nSV463Yin81xGv/ABJhiq29vvJ2rwGGa80675qRGXe3&#xA;mpUdQGLDbrirxDzp+Xi+XrFdQtdTh1KyeZYCYxR0Z1Zl5BWdaUTrXFWG4pdiqOsNc1rTqfUL+4tQ&#xA;N6Qyug+5SBiqPPnPXpdYstWvpV1C6sNoBcoGTjuaMF4E7t41xVlV/wDnJdapYSWepaYCJEZOdpdT&#xA;21CwpUhS3IezbYoecYpTbQfNOu6FI7abdNHHL/fW7UeGQUp8cbVU7d+uKGeeQ/zd1SGe00fVIfrs&#xA;MsiQQXAaksYdgqhq15gV77+5xV7XirsVdirsVePebPzs1GDUJbLRbRYVtpGjlmuhydmRiGARTRRU&#xA;eNflirzvzH5s13zFcifVLkyhK+lCvwxJX+VBt9PXFKUpx5DnXhUcqdad6Yq9Otvzoj02x+qaVpMh&#xA;IFVmvb2W5PKn8rCvvRWAxQxZfzJ85pcXs8WotFJqDiS44oh3UcVCclbgAtBt4Yqk+oa7repH/T7+&#xA;4uh4TSu4HyBNBilAYq7FWY+TPIdrrdsb/VNWg0qx5mOISMgllKAF+AdlAA5Dff5Yoe0+VrfyvoWl&#xA;R2NjqcM8KVpM8sBc1NSC0YSu/jiqaTeYdAgXlNqVrEu5q88ajbr1bFUtk/MLyTG5RtZtiR3V+Q+9&#xA;ajFV0P5geSpW4prVqD/lyBBv7vxGKpvZ6jp96nOyuorlP5oXWQfepOKpNN+X/k+ed7i401LieQ1e&#xA;WZ5JWJ+bs2Kq8fknydHXjolia9eVvG3/ABJTirV1pPlKyVRJpNseyxQ2Ylan+pFG7U+jFUnu9J0a&#xA;8DC38lJNy/3fNFa2gPbqW9b/AITFWHax+Tms6ldLNY2mn6LDvygW5uJ2Ne9Wj4/dTFUKPyJ8zBWU&#xA;alaBWpyUGWhp0r8GKrH/ACH8zBTwv7It2BMoH3iM4qpf8qI83f8ALXp//Iyb/qjiqCv/AMnPNljb&#xA;SXM8tksEW8kjT8FA8S0iooHzOKsHkQpIyEhipIqpqDTbYjqMUrcVdirsVRek3q2Gq2d80frLazxz&#xA;mKvHmI3Dca0NK0pXFX0Z5U/MPy55l/dWkphvQKtZT0WT3KUJVx8j86YoZNirsVY55r8++XvLURF5&#xA;N6t6RWOxio0pr05dkHu30VxV84avfDUNVvb8RiEXc8s4iBqE9Ry/GtB0rTFKExV2KuxV2Ksk8ueQ&#xA;db8xWzT6XJbS8DSWFpgsieHJCK0PY9MUJ6PyP85/z2Y/56v/AM0YqiE/IjzWWHO9sAvch5ifuMQx&#xA;VEJ+Q/mBqCXU7UKoolBI1N603C064qjNK/JvUtMuTNc29hrUQ+zDLPcW5Hy4Iyn/AGWKsxsdF063&#xA;VRN5Kt4mA3e3FnPT5tIYnP3YqmVppXlDUFeNdItgyU9SCezWJh/sZEWo9xtiq6TyP5OkNW0SyHb4&#xA;YI1/4iBiqnbeQvKFrMs9tpkUMyGqSxllYH2IIOKp/irsVdirsVdirsVS651y2juWs7aOS+vUp6lv&#xA;b8T6dehldiscfyZqnsDiqAv/ADvounaeLq8mjeVpBDHaWki3EjSE0EY48Ry+Zp74qw385Lye48p2&#xA;b3NLAyyqyadIQ07OK1qY5DHxVTU7NvTpirxTFLsVdirsVdiq+KWWGVZYnaOVCGSRCVZSNwQRuDir&#xA;3b8p/wAwLnXoZdK1Rw+pWqB4p+hmiBAJb/KUkV8fvxQh/wA1/wAxr7RZV0XST6d7JGJLm76mNWqF&#xA;VP8AKNK17fqVeIzTSzStLM7SSuSzyOSzMT1JJ3OKVmKuxV2KuxV2KozStW1LSb2O+064a2uo/syJ&#xA;4dwQdmB7g7Yq9M0b8+byNVj1jTlnps09s3Bvn6bcgT/shih6J5Z8++WvMZ9PT7krdAVa0mHpy08Q&#xA;KkN/sScVZDirsVdirsVdirsVdiq2SWOKNpJXCRruzsQAB7k4qx6//MbyRYuUn1eAsOoh5T0/5Eh8&#xA;VQ8H5o+SpQD9ckTl05W1xv71EZFPpxVLtR/NDRfUkS31eytIlNBK8N1cyn/niEgCn/ZHFUjTzf5c&#xA;1i4aC58w3ki9GkuJBp9p8WwCx23CaT5MwH+ViqWzeXfyjsYpZZvMlxJNIDz+pyKa8uoVUjk2PT4m&#xA;OKvNdS/R316b9G+t9RDfuDcFTKV8W4AL92KVBndqBmJCii1NaDwGKrcVdirsVdirsVdiqfeSLjVL&#xA;bzLZXGnTRW1wJPTWe55fV6yKQElK78X6YoU/OGq6hqnmG7utQkgluQ3pNJabwERDgDG2/IbdcUpL&#xA;irsVdirsVdiqI0/T7zUbyKysojPdTHjFEtKsaV7+wxVPNY/L7zXphLPp1xLABUzRxlgPHkEL0+nF&#xA;CT6WmmHUYk1ZporHlS4a3VTKB7ByBiln7eWfyjubdZtO8yz2U4+y04qQw7lCkTV+TYoZE/5h+V9M&#xA;vvqtvqFwlsf7q5tpXvYadhLFcgunyiJ+eKq1r+dGkxajDa3kkV1Zy9dRtkni9Pw9WCVSR/sJGxVk&#xA;E/5oeSYU5m+Z1pyqlvcMKeNfT4/jiqJ0n8wPJ2qsEtNUh9Q9IpiYWJ8AJQlfoxVkIIIBBqDuCMVd&#xA;iqQa3pXm69mYadrkWm2rbUWzEso2/neShr7KKYqkg/Kewu5RNr+rX+sSA1CSylI/oUVI+hsVZJpX&#xA;lLyzpNP0fptvA69JQgaT/kY3J/xxVNsVSLUbnzVOzQWGmWqR12uL+aqmnhDCrk/S4xVKJ/JnmC+J&#xA;a+utIBP+6xpaTLud95ZK+GKpFqf5N2twfWvNVtbWMbVt7JbYV/5HFfwxVLr/APKDyvaWjStq95Sl&#xA;RcR2r3EQHYn0Ubv/AJWKsH8x+SdQ0KIz3FzbSQMV9DjKvrSBu/o1LCg+1XpirHMUuxV2KuxV2Kux&#xA;V6l+S2m2uqWPmTTrh2RLqO2RzGQr8Ky8qEg07YoW/nbpa2H6AjV3lVIJYFml4l2WJkIDcQvQP4Yq&#xA;8vxS7FXYq7FXYqq29zcW06XFtK8M8RDRyxsVdWHcMNxir0vyl5i/MnULVbiPXIl0+NmW4edYZZow&#xA;tPi4MFkf2ox+/FDKL/yxa61aR3Gp6sJWmWqXc+lJBsenxOiOv0tiqBtvybtJQZYNVtLiEkhT9T5A&#xA;U/ykuF3xVkmn/lzpllCOMOnzXIJIlmsEZf8AgefLb/XxVMNPGs2N0tvJotsbY9L3T3SMDt8UEoQr&#xA;/sXbFU/xVLNV8seXtVUrqOnwXBNfjZBzFetHFGH0HFWOH8r7W0YvoGr3+jHqIYpTJD9Mbmp+lsVT&#xA;nQ9P83WcoTU9Wg1O2HVzbehP023R+H3riqe4q7FXYq7FXYq7FUM+p6ajMr3cKsv2g0igj51OKoO5&#xA;82eV7YH19Xs4yP2TPHy267cq4q8m/MTX/wAv9Tkd7X63q+rkFY5lkkSCMeADClF8ETfua74q83hs&#xA;bycsIIJJitQ3pqX6f6tcUqOKtYq7FXYquRHkdUQFnchVUdSTsBir3TyN5C1Dyj5khY3QubbULJ1u&#xA;QF48J42jag33G54nFCj578oar5w1TUnimEUehRiCytuJJnnkiS4arEgLUOq9+mKvEGUqSrChGxB6&#xA;g4paxV2KuxVcqs7BVBZmNFUbkk9hiqL/AEPqazrDLbPDI1QFmHo1I3IrJxFcVeqeRfzA8h6fBHaG&#xA;GfQ5QR6tJZLi3kalCx+1u3c8B88UPQk86+UZFQprNm5c0VFmQuSf8gHl+GKppaXttdxmW3bnGDTl&#xA;xYA/KoFfoxVWxV2KuxV2KuxV2KuxV2KuxV2KuJABJNANyTirG7rz7oyyvBpsVzrVxHs6adE06qf8&#xA;qXaIf8FiqT3PmX8y72VYtO8ufo+F6g3NxJHK67HfgXhUH5k4qleo/lzqV7dy33mXVYp4o6qL68ch&#xA;UWvWK3Roooh/rSMPFcVQFpL+VehS/V9I0+bzPqq9CkZuAW+kCMfNEOKsZ83/AJmeadRM2l+kNGtE&#xA;JjlsYQVk26pI5Ab2IAX3GKsHxS7FXYqybyR5G1DzXc3KW7iC3tYy0k7Co9RgfTQD/KI38BihNfyn&#xA;8pT6r5oS7njIstJcSzlhsZlP7uP58hyPsPfFXuyQTPqslzIKQwxCG3HclyHlb5HigHyOKotURSxV&#xA;QCxqxA6mgFT9AxV4J+a3kqXTfMqXVmlLLWJKxgdEuGPxp7Ak8h/ZiqR+evJN55U1NLeST6xaXCl7&#xA;W5px5AbMpG9GWv6sVY1il2KuxV6D5O/NPzHaejpN1bfpu1kpFFbvvPQ9FRqNz9lYHwxQyW6tvyl8&#xA;xSGG8gfy5qp+0kqfUnBPiCDAanx3xVG2X5c6por/AF3y5cwfWGX4LtAtWU9jHMs6mvcxyRj2xVG2&#xA;mufm1aycb7y9b30CHeWCeKGRl8aGWQV/2OKsksPNWn3DxwXcc2l3kholrfIYSx8I3NY5P9gxOKpz&#xA;irsVdirsVdirsVdiqnc3MFtbyXFw4jhiUtJI3QAYqxVfPl3qUxh8uaLdagOgvbgfVLUf5XOQcmp4&#xA;ca4qi4/LWoalSXzNeC6U7/ou25RWQ9nFfUm/2Z4/5OKp5/oGn2lP3VpZwLt9mKJFH3KoxVh2r/mL&#xA;Ncs1j5PsZNZvfsm7VSLSI+LSHiG+8D3xVhMw8ttd/W/PvmM6teqarpVkzyQoe6lowEHyXj8ziq/V&#xA;fzh0+ysH0/yhpa6fGwIFzIqIV2pyWJKgt7s30Yq8vkkeSRpJGLyOSzsxqSTuSTilbirsVbxV9L/l&#xA;35bGgeVrW1dON3OPrF5Xr6sgB4n/AFFov0YoT6z0+xslkW0t47dZXaWURKE5SOaszU6k+OKq+Kux&#xA;VJvN2nw3mhymRQzWbJexbVo9swk2HuFK/TiqWfmd5bGu+VLlI05XtmPrNrTqWQfEo/1kqPnTFXzd&#xA;il2KuxVcjvG6yRsUdCGR1NCCNwQRir1XSPze0a/05NP846aLwoOP1lI0kVu3Jo3K8W8Sv3DFC2CX&#xA;QY7kXPkDzH+jbgmraLfM6W8h/lUzfDU9NyfYjFWdaJ59BMdl5ntW0PVDRQZhS1mPjDNum/hy+ROK&#xA;spuLe1u7dobiJLi3lFHjkUOjA+INQcVSX/D2o6e3LQdQaGIf9K685XFtTwQkiWL/AGLFR/Liq2Tz&#xA;XNp22v6dNYxj7V9BW6tPmXjAkQf68YxVPbe4guYI7iCRZYZVDxyKaqykVBBxVUxV2KuxV2KuxVKN&#xA;U1LzBDKYtN0f63t/fzXEUMdfkPUc/wDAjFUHHB5+uz/pN1YaZEe1tHJczU8OcpjQf8AcVSvX4vJG&#xA;got35mu31S8A5RR3r+u7f8YrUcYlFe4QD3xV5n50/NPUtcibTtOj/Ruj04+ihAkkXwcrsF/yV28a&#xA;4qwXFLsVdirsVdirP/yl8kya1q6apdJ/uL09w242lmX4lQey7Fvu74oe/Yq7FXYq7FVk8Mc8EkEg&#xA;rHKrI4G2zChxVfir56/NTyUfL+tG7tUppWoMXhoNo5OrxbdB3X2+WKsHxS7FXYq7FXYq9A8teZtZ&#xA;0WxhW2uofMGjSKPrWiyn9/FtVgsTgtRd905J3NMUPRvLMnlPX7X1/LV9caTOorLZW8gT0z72snqQ&#xA;U91SnviqZvZ+f7Uj6rqFhqSV3F5A9vJTw5wMy/8ACYqmGl3uvSv6ep6Ylqf9/QXCzIfoZY3H3HFU&#xA;0xV2KuxV2KuxVB6nqQsIPVNtcXRNaRWsZlfb5UH44qkcnnHVyeNr5X1KQ9vV9CIff6jYqk2san+b&#xA;epwmDTNFi0eN9jcSXMMstDttQ0X/AIGvhirDD+S3ni+na4vry29aQ1kkmmlkkJPiQjV+/FVW5/Ja&#xA;LTrc3Os+YraxgHVzGSCfAc3jqflirzzVYdOh1CaLTrh7qzRuMVy6emXA6twqaCvSuKUJirsVdiqe&#xA;+TvKd95m1iOxtgUhWj3dxSqxR13PzPRRih9K6RpNjpOnQafYxiK1t14ovc+LMe5J3JxVF4q7FXYq&#xA;7FXYq7FUs8yeX7HX9Hn0y9H7uYVSQfajcfZdfcH+mKvmfzD5f1HQdVm02/TjLEaq4rxkQ/ZdCeqn&#xA;FKW4q7FXYqmnl+Ly/NeGDW5Zra2lFI7uABvSeuxdCDyTxpvir0bQ/wAptStry31ny95htbj0Tztr&#xA;kR8lJIoQQDIvQ74oZTd+W9YuGW41TRrO41BDVNU0i4ezu1NPtfvFSp+clPbFVljqf5m2l4bcaS+p&#xA;2C0pNfPa2twP8kvBLLG9P5gmKp7J5n1O1jDX3l6/XxNr6N2v3Ryep/wmKpppepx6hb+ukFxb709O&#xA;6heB/nxcDFUZirsVdirsVdirsVdiqldRyyW8kcMxt5GUhZ1CsUP8wDAqfpGKvnH8wk09dYYQa5Pr&#xA;l0CRcTSqOCf5KSBiDTwVeIxVIdL0jU9Vu1tNOtpLm4c0CRitK92PRR7nFLLvMFto3k/TJNFg9O+8&#xA;y3cfHUr3ZktY3HxQw16Ow6t1p86BQwXFKvY2V1fXkNnaxmW5uHEcUa9SzGgxV9L+SfKVp5Y0WOyi&#xA;o9y9HvLgdXkp/wARXouKE/xV2KuxV2KuxV2KuxV2Ksc88+TLLzRpDW0lI76IFrK5puj/AMpPXg37&#xA;Q+nFXzZe2dzZXc1ndRmK5t3aOaM9VZTQjFKhir0Dy5o3l7zloY0uCOLTfNdilYZVHGO7iX+cD9sf&#xA;tGle+4qAoYfrOgaxot0bXU7WS2lBIHMfC1O6MPhYe4OKU/8Ay9gsbi+aBtfn0C/Yj0JY9opR/Izc&#xA;ko1f5tj+tQ9v03R/NVnxE2vrfIO1xZoDT/WjkjP34qn4rQV3PcjbFXYq7FXYq7FXYq7FXYqsmmhg&#xA;ieaZ1iijBaSRyFVQOpJOwGKpAfOtlcHjo9leauegktoisFf+M8xij+4nFUm1vQPP3mlDbXd1BoGl&#xA;OKSWsDNcTuO4lcempHsrU8a4qt0f8l/J9jxe7E2oyjc+s/FK+yR8fxJxVOrwi2ZfL/lm3itLhwGu&#xA;biJFWK0iP7bACjSsP7te/U7DFWE+aNG8uRaHPrNwnLSLAPDo9tyo17dyGjXU7ghpOTjbfdVLdDTF&#xA;WMRflZdDyJceY7qYxXYjFzb2lBT6uNyXPXky/EtPp67Ksh/I7yorGfzJdR14kwafUd+ksg/4iPpx&#xA;V6/irsVdirsVdirsVdirsVdirsVeNfnl5YEVxbeYbdKLPS3vafzqP3bn5qOJ+QxVJdU/K+S28i2X&#xA;mS0meWdoEub62YCgiloytHQfsKw5V+ftirMPJFl5bk0q31m1jEVjeMkOowVNbO/QhUnhf7UYYtvQ&#xA;9GU9AcVZ/J9TuD+jNTjindwSkcyKyTKOpCsOJYD7Q7fLFWMa3+T/AJN1IM0EDadOdxJbNRa+8bck&#xA;p/q0xVT0HQfPvlZfq1vcwa/pK/3dvM7W9xH4CNm9ROP+SW+VMVZfpt7d3UZN1YTWEq9Y5WicH3Vo&#xA;nkH30OKozFXYq7FXYq7FXYq7FVk0EE6cJo1lSobi4DCoNQaHwxVfirsVdirG/NkerTRJpunQPBZ3&#xA;ZZ9V1KIAtHAP7xY0SsjSyD4RRT/RVgz2WoeePOUVhJaNY+WfLzKjWrileIFEYDbk4AHH9lffqqzH&#xA;8zb8WnlKeygAN3qjJYWUA6s0xCkAeyVxVPdA0iDR9Fs9MhpwtIljLDbkwFXb/ZNU4qj8VdirsVdi&#xA;rsVdirsVdirsVdiqVeatDj13y/e6W9OVxGREx6LKvxRt9DAYqln5e3kWpeSrO3nQGS0jOn3lu4+y&#xA;0A9Mow90p9+KsAg0nU/JnnSbR47ZtQ8u64kg+qdTLCFJZVrQGWJajj+0PcjFWb2E5t1TQPMqme0d&#xA;l/Q+rS1AmXrGkj/C0VwnYmhbqN8VZXbQehCIvUeUL0eU8mp2BagJp4nfxxVVxV2KuxV2KuxV2Kux&#xA;V2KuxV2KuxV2KuxVLPMFxq8dj6WkQ+rqFywihkb+7hDfamkPgg3p1J2xVU0TRrXSNPSzt6tQl5pn&#xA;3eWVzV5XPdmO+KpBLpN7rPn1b66QrpGgIFslYUEt3KoZ5F8RGpAr/MNu+KsuxV2KuxV2KuxV2Kux&#xA;V2KuxV2KuxV2KsOsbDUNE/MC69CB30TX09d5FUlIbyMEtyIrx9QAnfqSPDFWQa9odrrNj9WmJilj&#xA;YS2l0n95DMm6SIfFT9+Ku0j9IXGmehrUKG7jJhuCADFMF6SKD+y43oehqMVTBEREVEAVFAVVGwAG&#xA;wAxVvFXYq7FXYq7FXYq//9k=</xmpGImg:image>
               </rdf:li>
            </rdf:Alt>
         </xmp:Thumbnails>
      </rdf:Description>
      <rdf:Description rdf:about=""
            xmlns:xmpMM="http://ns.adobe.com/xap/1.0/mm/"
            xmlns:stRef="http://ns.adobe.com/xap/1.0/sType/ResourceRef#"
            xmlns:stEvt="http://ns.adobe.com/xap/1.0/sType/ResourceEvent#">
         <xmpMM:InstanceID>xmp.iid:ABA92EAE336FE41195E3D1493AEF96AB</xmpMM:InstanceID>
         <xmpMM:DocumentID>xmp.did:ABA92EAE336FE41195E3D1493AEF96AB</xmpMM:DocumentID>
         <xmpMM:OriginalDocumentID>uuid:5D20892493BFDB11914A8590D31508C8</xmpMM:OriginalDocumentID>
         <xmpMM:RenditionClass>proof:pdf</xmpMM:RenditionClass>
         <xmpMM:DerivedFrom rdf:parseType="Resource">
            <stRef:instanceID>xmp.iid:AAA92EAE336FE41195E3D1493AEF96AB</stRef:instanceID>
            <stRef:documentID>xmp.did:AAA92EAE336FE41195E3D1493AEF96AB</stRef:documentID>
            <stRef:originalDocumentID>uuid:5D20892493BFDB11914A8590D31508C8</stRef:originalDocumentID>
            <stRef:renditionClass>proof:pdf</stRef:renditionClass>
         </xmpMM:DerivedFrom>
         <xmpMM:History>
            <rdf:Seq>
               <rdf:li rdf:parseType="Resource">
                  <stEvt:action>saved</stEvt:action>
                  <stEvt:instanceID>xmp.iid:9FB6100F196FE41195E3D1493AEF96AB</stEvt:instanceID>
                  <stEvt:when>2014-11-18T22:56:30+08:00</stEvt:when>
                  <stEvt:softwareAgent>Adobe Illustrator CS6 (Windows)</stEvt:softwareAgent>
                  <stEvt:changed>/</stEvt:changed>
               </rdf:li>
               <rdf:li rdf:parseType="Resource">
                  <stEvt:action>saved</stEvt:action>
                  <stEvt:instanceID>xmp.iid:ABA92EAE336FE41195E3D1493AEF96AB</stEvt:instanceID>
                  <stEvt:when>2014-11-18T23:05:13+08:00</stEvt:when>
                  <stEvt:softwareAgent>Adobe Illustrator CS6 (Windows)</stEvt:softwareAgent>
                  <stEvt:changed>/</stEvt:changed>
               </rdf:li>
            </rdf:Seq>
         </xmpMM:History>
      </rdf:Description>
      <rdf:Description rdf:about=""
            xmlns:illustrator="http://ns.adobe.com/illustrator/1.0/">
         <illustrator:StartupProfile>Print</illustrator:StartupProfile>
      </rdf:Description>
      <rdf:Description rdf:about=""
            xmlns:xmpTPg="http://ns.adobe.com/xap/1.0/t/pg/"
            xmlns:stDim="http://ns.adobe.com/xap/1.0/sType/Dimensions#"
            xmlns:xmpG="http://ns.adobe.com/xap/1.0/g/">
         <xmpTPg:HasVisibleOverprint>False</xmpTPg:HasVisibleOverprint>
         <xmpTPg:HasVisibleTransparency>False</xmpTPg:HasVisibleTransparency>
         <xmpTPg:NPages>1</xmpTPg:NPages>
         <xmpTPg:MaxPageSize rdf:parseType="Resource">
            <stDim:w>260.000000</stDim:w>
            <stDim:h>400.000000</stDim:h>
            <stDim:unit>Pixels</stDim:unit>
         </xmpTPg:MaxPageSize>
         <xmpTPg:PlateNames>
            <rdf:Seq>
               <rdf:li>Cyan</rdf:li>
               <rdf:li>Magenta</rdf:li>
               <rdf:li>Yellow</rdf:li>
               <rdf:li>Black</rdf:li>
            </rdf:Seq>
         </xmpTPg:PlateNames>
         <xmpTPg:SwatchGroups>
            <rdf:Seq>
               <rdf:li rdf:parseType="Resource">
                  <xmpG:groupName>默认色板组</xmpG:groupName>
                  <xmpG:groupType>0</xmpG:groupType>
               </rdf:li>
            </rdf:Seq>
         </xmpTPg:SwatchGroups>
      </rdf:Description>
      <rdf:Description rdf:about=""
            xmlns:pdf="http://ns.adobe.com/pdf/1.3/">
         <pdf:Producer>Adobe PDF library 10.01</pdf:Producer>
      </rdf:Description>
   </rdf:RDF>
</x:xmpmeta>
                                                                                                    
                                                                                                    
                                                                                                    
                                                                                                    
                                                                                                    
                                                                                                    
                                                                                                    
                                                                                                    
                                                                                                    
                                                                                                    
                                                                                                    
                                                                                                    
                                                                                                    
                                                                                                    
                                                                                                    
                                                                                                    
                                                                                                    
                                                                                                    
                                                                                                    
                                                                                                    
                           
<?xpacket end="w"?>
	</metadata>
<path fill="#727171" d="M203.777,233.009L203.777,233.009c6.699,2.08,3.805,2.755,10.121,4.761c4.713,1.49,7.619,3.019,10.111,4.705
	c-4.227,0.637-10.609-1.557-14.265-3.232c-0.037-0.143,0.028-0.544,0.028-0.44v-2.006
	C204.172,235.455,204.855,234.977,203.777,233.009L203.777,233.009z M194.266,214.284L194.266,214.284
	c4.44,0.319,6.729,1.875,11.357,3.438C201.566,218.061,197.396,216.121,194.266,214.284L194.266,214.284z M74.62,210.667
	L74.62,210.667c-0.732,0.899-0.535,0.956-2.119,1.631c-1.62,0.702-1.152,0.517-3.299,0.946L74.62,210.667L74.62,210.667z
	 M184.04,211.285L184.04,211.285l4.208-0.094c-0.768,0.524-0.301,1.041-2.249,0.898C183.861,211.923,185.1,211.96,184.04,211.285
	L184.04,211.285z M188.934,201.924L188.934,201.924c5.295,0.328,3.795-0.666,7.281,2.127c-0.206,0-3.178,0.057-3.552-0.037
	C188.988,203.001,191.331,204.352,188.934,201.924L188.934,201.924z M71.161,201.924L71.161,201.924
	c-1.836,1.949-0.6,2.465-7.853,1.932C65.969,201.84,66.175,202.252,71.161,201.924L71.161,201.924z M187.611,192.955
	L187.611,192.955c1.021-1.087,5.305,1.986,1.752,0.73C188.332,193.33,185.391,195.335,187.611,192.955L187.611,192.955z
	 M131.551,195.288L131.551,195.288c-3.299,1.209-1.63,1.678-3.693-1.115c0.676-0.628-1.293-1.725,1.865-0.918
	C132.544,193.967,130.698,192.036,131.551,195.288L131.551,195.288z M200.723,192.467L200.723,192.467
	c3.654-2.39,6.719-1.537,10.963-0.243v-2.474c4.435,0.581,9.532,1.968,12.879,4.648c-7.668,0.262-6.205-0.993-12.015-2.239
	l4.245,2.483C210.591,195.308,204.883,195.738,200.723,192.467L200.723,192.467z M43.215,194.96L43.215,194.96
	c4.723-3.823,9.166-4.779,15.867-3.214C55.792,195.991,48.951,195.261,43.215,194.96L43.215,194.96z M199.447,188.794
	L199.447,188.794l-4.002,1.349c3.422-0.019,4.264,0.441,6.654-0.825c-1.604-0.909-3.553-1.846-4.986-2.633
	c4.854,0.74,6.832,2.83,11.182,1.808c-0.234-0.252-0.3-1.593-4.509-2.952l-15.115-3.364l7.976,4.313
	c-3.729-1.013-3.252-1.594-7.375-2.269l1.414,2.98c0.252,0.684-2.586,0.113,0.723,1.181
	C192.973,188.887,196.805,188.344,199.447,188.794L199.447,188.794z M80.871,156.856L80.871,156.856
	c0.131-0.094,0.421,0.075,0.421,0.244c0,0.056,0.178,0.093,0.169,0.093C81.423,157.174,78.199,158.889,80.871,156.856
	L80.871,156.856z M82.642,155.141L82.642,155.141c-2.672,2.661,0.44,0.44,0.468,0.459C83.503,155.984,85.274,152.526,82.642,155.141
	z M82.642,155.141c-3.13-0.722-2.549-0.993-4.995-2.465l2.315,2.174c0.956,1.481,0.533,0.113,0.909,2.006
	c-5.277,0.928-9.878-2.681-13.917-4.377c4.423,2.952,11.771,3.974,16.578,7.479c2.85,2.08,2.531,2.202,5.465,3.364
	c-1.05,0.825,1.405,1.462-3.899,1.593c5.371,1.303,2.813,1.125,4.068,3.242l-9.851-1.406c-0.187-0.769-1.377-2.118,1.228-2.605
	c-2.895-0.3-2.313-0.3-4.433-1.021c-0.038,0.047,0.094,0.084,0.104,0.16l0.027,1.967c-0.018,0.094-0.037,0.431-0.131,0.619
	c-8.94-1.462-19.642-4.48-28.611-4.236c-5.913,0.168-7.712,1.452-14.919,0.684c-5.52-0.591-10.224-2.409-14.686-2.577l21.948,5.014
	c0.9,1.715-0.693,1.041-0.019,2.409l5.22,1.405c0.3,2.269,0.149,1.894,0.825,4.573l-2.597-1.574
	c-7.853,0.113-38.057-3.317-44.167,2.052c9.972-0.327,29.455-2.792,37.701,1.172c-3.701,1.742-11.939,2.305-17.749,4.582
	c10.637-1.752,14.526-2.821,25.5-2.708c5.21,0.057,26.362,0.037,29.248,1.2c-1.977,2.905,0.254,0.413-2.492,1.725l-1.978,1.893
	c0.778,1.331,2.437,0.543-1.771,2.793l3.214-0.15c-1.34,4.817-2.989,5.632-7.863,3.373l3.806-2.156
	c-1.481-0.712-3.187,0.038-4.564,1.257c-3.065,2.717-0.057-0.976-0.497,0.89l0.131,0.946c-7.525-2.502-3.242,2.08-10.646-0.356
	c3.712-2.474,4.002-2.052,7.882-3.327c-6.991,0.29-5.971,2.971-12.652,4.563c-2.033,0.488-11.948,3.224-13.129,3.824
	c0.15,0.084,0.431-0.019,0.497,0.15l16.184-3.589c-0.186,0.253-0.496,0.271-0.627,0.703l-1.285,1.255
	c-2.323,1.706-6.035,2.362-8.677,2.784c-5.164,0.816-8.894,0.047-13.851-0.093c-6.87-0.188-17.394,4.189-24.769,5.369
	c3.898,3.103,19.343-3.458,24.787-3.664c5.548-0.215,24.853,0.862,28.948,2.643c-4.619,0.609-8.35,0.226-12.548,0.646
	c-2.886,0.301-6.25,1.81-9.596,2.399c2.849,1.293,6.504-1.677,17.112-1.35c4.629,0.15,9.4-1.124,13.757-0.468l4.948,2.099
	l-14.619,2.324c3.373-0.103,3.917-0.843,6.457-0.938c3.167-0.104,4.826,0.77,9.259,0.73c-0.225,0.244-0.544,0.28-0.684,0.731
	l-3.16,2.306c3.759-1.162,2.204-0.207,5.436-0.037l1.228,0.168c0.131,0.02,0.478,0.047,0.684,0.149
	c-0.872,0.871-0.478,0.655-1.771,1.462c-6.691,4.217-14.301,3.148-22.117,2.971l12.08,0.892c-4.049,3.711-13.785,4.319-19.82,7.376
	c-2.728,1.377-6.167,3.308-8.941,4.413c-4.32,1.725-5.773,1.256-9.99,3.897c2.905,1.659,11.761-3.468,14.629-4.976
	c7.113-3.722,9.277-4.302,18.312-4.593c2.155-3.279,0.946,2.127-0.956-1.48c5.857-0.75,6.438-2.971,11.387-3.102
	c-2.915,2.455-5.379,1.556-7.994,4.02c7.581-1.434,13.71-6.645,24.141-6.138c-6.288,5.81-18.809,7.028-26.662,12.333
	c-5.015,3.393-7.375,4.048-13.71,6.41c-4.583,1.705-9.194,1.779-13.973,3.187l-2.155,0.806c9.971,0.226,17.225-3.758,25.557-6.071
	c8.864-2.476,11.404-7.181,23.785-9.447c-1.659,5.332-6.991,6.599-12.286,7.638c-7.469,1.453-6.935,3.664-13.101,6.897l-12.493,6.7
	c-5.333,2.248-12.558,1.172-16.897,3.111c4.657,1.125,32.565-2.211,39.135-2.924c-0.881,2.754-1.781,2.793-5.238,4.272
	c-2.503,1.069-5.379,2.268-7.085,3.522l7.169,0.93c-3.636,2.529-7.891,5.895-10.938,7.617c-4.479,2.541-9.624,1.933-13.363,5.437
	c7.169-2.474,29.023-7.31,33.999-10.554c0.114-0.073,10.788-10.963,7.808-4.141l-13.167,14.545c6.025-3.057,6.082-7.93,11.33-9.035
	c-0.891,3.299-7.311,12.56-9.644,14.254c3.973,3.123,5.089-11.096,13.205-12.623c-1.743,5.08-5.173,10.59-8.969,13.504
	c2.531,1.004-4.057-0.42,1.716-0.12l0.974,0.12c-1.293,3.01-3.401,4.658-5.538,8.268c2.793-1.078,2.315-1.716,4.479-4.415
	c1.283-1.593,2.353-2.97,4.282-5.304c2.464-2.99,4.021-8.855,7.798-10.646c1.377,1.611,1.742,1.48,2.043,4.498
	c0.627,6.371-4.237,10.674-5.126,16.729c3.861-2.764,5.716-10.047,8.19-15.782c5.426-12.586,12.96-18.771,20.327-29.341
	c3.167-4.536,5.154-13.289,9.258-16.4c1.837,2.202,1.21,3.317,2.446,6.11c4.227-2.118,0,0.675,1.959-1.575
	c2.399-2.755,3.776-6.345,4.695-9.259c0.89-2.812,0.262-1.583,2.155-3.617c5.876,3.711,1.706,6.166,0.609,11.545
	c6.542-12.94-0.263-10.964,1.894-23.953c2.023,1.34,4.985,1.05,1.714,3.298l4.096,0.704c-2.935-2.69-2.288-2.99,1.435-3.29
	c0.383,1.087,0.843,7.647,0.758,8.302c-0.711,5.492-2.848,2.586-1.611,9.109c1.939-4.724-1.264-3.168,3.723-5.586l2.258,4.067
	c1.846,4.985,5.744,8.827,6.672,13.542c0.104,0.523,1.041,6.213,1.041,6.27c-0.441-7.507-1.453-9.334,0.326-15.865
	c4.479,1.912,6.506,11.236,9.457,15.642c3.336,4.957,6.205,9.746,10.646,14.188c4.086,4.067,7.217,8.979,9.69,15.146l5.342,12.743
	c1.959,4.145,0.423,2.223,3.646,3.713c-1.798-6.055-5.538-9.475-5.35-15.594c0.14-4.611,1.161-6.776,4.065-3.844
	c1.528,1.555,1.146,1.555,1.855,2.887c3.271,6.166,7.591,11.357,12.333,15.933c-1.115-4.414-4.836-4.603-5.332-9.774l2.83,2.174
	c1.104-0.739-4.958-4.301-8.933-14.44c9.326,2.812,5.379,12.22,17.807,16.381c-5.032-2.728-12.979-12.353-14.131-17.692
	c6.793,1.519,8.049,9.597,15.594,11.096c-4.995-2.736-6.721-3.748-10.141-7.9c-2.728-3.309-7.197-7.309-8.229-10.092
	c2.004,0.458,1.573,0.037,1.873,0.084c3.824,0.721,3.244,4.977,14.152,8.031c6.943,1.939,13.494,5.229,20.438,5.182
	c-4.518-2.22-4.631-0.459-9.213-4.086c-2.782-2.201-6.737-3.438-8.696-6.689l14.254,0.271c-3.103-1.246-18.733-2.849-21.039-9.56
	c4.414,1.014,4.143,1.885,9.334,2.054c5.604,0.178,5.979,0.515,10.955,1.396c5.643,1.004,5.698-0.824,10.553-0.084
	c4.066,0.618,4.968,1.901,9.539,0.608c-2.473-1.519-11.461,0.263-22.762-6.372c-6.937-4.077-11.715-8.95-20.14-10.421
	c-0.956-0.169-3.31-0.487-4.06-0.692c-3.588-0.977-6.314-3.824-7.627-6.965c14.639,3.439,13.391,6.026,22.565,9.213
	c7.179,2.492,19.126,6.674,26.688,6.223c-9.407-3.467-19.539-2.229-29.145-9.502c-4.602-3.479-8.051-3.938-13.955-6.072
	c-4.433-1.604-10.562-3.571-13.438-7.235c13.494,0.226,17.299,6.522,30.851,6.916c6.298,0.188,9.802,2.604,14.31,4.789
	c3.553,1.716,8.979,3.57,13.11,5.511l1.341-0.554c0.112-0.469-6.981-2.812-9.09-3.58l-18.594-8.266
	c-3.579-0.638-8.705-1.837-11.18-2.455l3.721-1.968c0.271-0.075,3.279-0.311,4.602-0.75c-4.892-0.318-7.17,0.881-11.351-0.074
	c-3.167-0.73-7.075-2.643-9.239-3.543c2.446-2.361,3.168-2.006,7.488-1.162c-0.656,0-0.029,0.637-1.996-0.469
	c-2.307-1.303-1.303-0.592-2.82-2.213c4.113,0.086,6.615-0.637,9.305-0.842c2.925-0.207,4.884,0.637,8.052,0.938
	c-5.36-0.047-8.997-1.444-14.603-2.043l1.68-1.088c5.05-2.445,11.311-0.206,17.056-0.637c4.319-0.337,4.245-1.658,9.024-0.131
	c2.717,0.881,4.779,2.521,7.834,1.78c-8.35-3.298-11.594-2.624-21.536-3.223c-5.49-0.318-11.47,0.712-17.226-0.703
	c-4.049-0.983-3.109-0.815-3.346-3.102c3.422-2.117,12.186,1.809,16.092,2.681c10.01,2.212,27.748-4.086,39.539-0.562
	c4.441,1.33,13.514,4.349,18.076,3.317c-3.354-1.875-13.326-3.655-18.059-5.182c-5.913-1.912-5.219-0.703-10.655-0.629
	c-6.503,0.094-2.614-0.412-3.937-1.105c-0.739-0.393-0.065-0.29-1.763-0.965c-0.974-0.384-2.427-0.646-2.989-0.816
	c-3.636-1.002-5.237-1.687-8.781-2.567c-5.621-1.406-3.346-2.156-8.62-3.786c-3.833-1.2-7.825-1.836-10.919-4.161
	c-3.616-2.718,1.322,0.899-0.975-0.862l-4.115-2.971c9.382-0.178,18.688-0.6,28.201-0.956c5.642-0.206,6.307,0.123,11.779,0.778
	c2.596,0.309,4.366,0.169,7.028,0.74c2.37,0.516,3.147,1.171,5.622,1.444c-4.742-2.605-11.741-2.605-17.881-4.527
	c8.136-4.423,27.638-1.228,37.86-1.564c-3.852-2.746-17.638-3.364-22.051-2.709c-10.29,1.546-13.692,0.619-22.623,0.582l-2.39,1.949
	c1.06-4.264,0.646-4.742,5.547-6.073c5.418-1.472,3.638-0.525,2.813-1.368c-0.039-0.038-0.281-0.207-0.318-0.244
	c-0.047-0.047-0.235-0.272-0.272-0.319c-0.036-0.046-0.168-0.337-0.196-0.374c-0.028-0.047-0.225-0.281-0.168-0.413
	c4.525-1.163,17.805-2.99,20.767-4.536c-4.47-0.094-8.836,1.583-13.737,2.211c-7.854,1.012-9.091-0.225-15.632-0.422
	c-9.503-0.3-20.533,2.877-29.587,4.545c-0.646-0.9-0.188-0.478-0.59-1.313c-0.281-0.599,0.533,0.197-0.646-1.237
	c-1.406,4.423-6.139,4.312-12.043,4.686c1.688-2.643,0.967-2.296,4.743-3.149c-4.134-1.433-6.157,0.675-0.535-3.87
	c3.908-3.159,15.38-7.919,18.911-8.585c-3.363,0.609-6.625,2.915-10.214,3.965c-5.259,1.545-7.899,3.271-10.777,3.711
	c6.335-5.577,8.565-9.69,17.402-15.482c2.989-1.958,4.968-2.624,6.514-5.473c-0.233,0.141-0.579,0.094-0.692,0.45l-37.271,25.284
	c-4.143,2.699-4.246,1.116-5.146,1.106L147,169.396l0.676,6.204l-9.681,5.885c-1.875,1.387-3.712,2.586-4.509,4.03
	c-2.613,4.789,1.565,4.835-3.917,6.091c-2.521-0.291-1.406-5.829-7.543-10.028c-1.763-1.2-4.115-2.952-4.78-3.346
	c-1.491-0.872-2.419-0.909-4.732-2.371l0.3-7.065c-9.324-3.637-6.944-6.045-13.346-12.699c2.858,4.452,5.052,5.333,6.785,10.787
	c-5.67-1.706-7.31-4.217-11.565-6.635c-8.012-4.555-11.169-8.884-20.308-14.048c-2.315-1.313-3.673-2.081-5.267-3.309
	c-2.014-1.537-2.67-2.474-4.985-3.721C65.041,144.954,80.571,148.909,82.642,155.141z"/>
</svg>
