<?xml version="1.0" encoding="utf-8"?>
<!-- Generator: Adobe Illustrator 16.0.0, SVG Export Plug-In . SVG Version: 6.00 Build 0)  -->
<!DOCTYPE svg PUBLIC "-//W3C//DTD SVG 1.1//EN" "http://www.w3.org/Graphics/SVG/1.1/DTD/svg11.dtd">
<svg version="1.1" id="图层_1" xmlns="http://www.w3.org/2000/svg" xmlns:xlink="http://www.w3.org/1999/xlink" x="0px" y="0px"
	 width="260px" height="400px" viewBox="0 0 260 400" enable-background="new 0 0 260 400" xml:space="preserve">
<metadata><?xpacket begin="﻿" id="W5M0MpCehiHzreSzNTczkc9d"?>
<x:xmpmeta xmlns:x="adobe:ns:meta/" x:xmptk="Adobe XMP Core 5.3-c011 66.145661, 2012/02/06-14:56:27        ">
   <rdf:RDF xmlns:rdf="http://www.w3.org/1999/02/22-rdf-syntax-ns#">
      <rdf:Description rdf:about=""
            xmlns:dc="http://purl.org/dc/elements/1.1/">
         <dc:format>image/svg+xml</dc:format>
         <dc:title>
            <rdf:Alt>
               <rdf:li xml:lang="x-default">打印</rdf:li>
            </rdf:Alt>
         </dc:title>
      </rdf:Description>
      <rdf:Description rdf:about=""
            xmlns:xmp="http://ns.adobe.com/xap/1.0/"
            xmlns:xmpGImg="http://ns.adobe.com/xap/1.0/g/img/">
         <xmp:MetadataDate>2014-11-18T23:10:35+08:00</xmp:MetadataDate>
         <xmp:ModifyDate>2014-11-18T23:10:35+08:00</xmp:ModifyDate>
         <xmp:CreateDate>2014-11-18T23:10:35+08:00</xmp:CreateDate>
         <xmp:CreatorTool>Adobe Illustrator CS6 (Windows)</xmp:CreatorTool>
         <xmp:Thumbnails>
            <rdf:Alt>
               <rdf:li rdf:parseType="Resource">
                  <xmpGImg:width>172</xmpGImg:width>
                  <xmpGImg:height>256</xmpGImg:height>
                  <xmpGImg:format>JPEG</xmpGImg:format>
                  <xmpGImg:image>/9j/4AAQSkZJRgABAgEASABIAAD/7QAsUGhvdG9zaG9wIDMuMAA4QklNA+0AAAAAABAASAAAAAEA&#xA;AQBIAAAAAQAB/+4ADkFkb2JlAGTAAAAAAf/bAIQABgQEBAUEBgUFBgkGBQYJCwgGBggLDAoKCwoK&#xA;DBAMDAwMDAwQDA4PEA8ODBMTFBQTExwbGxscHx8fHx8fHx8fHwEHBwcNDA0YEBAYGhURFRofHx8f&#xA;Hx8fHx8fHx8fHx8fHx8fHx8fHx8fHx8fHx8fHx8fHx8fHx8fHx8fHx8fHx8f/8AAEQgBAACsAwER&#xA;AAIRAQMRAf/EAaIAAAAHAQEBAQEAAAAAAAAAAAQFAwIGAQAHCAkKCwEAAgIDAQEBAQEAAAAAAAAA&#xA;AQACAwQFBgcICQoLEAACAQMDAgQCBgcDBAIGAnMBAgMRBAAFIRIxQVEGE2EicYEUMpGhBxWxQiPB&#xA;UtHhMxZi8CRygvElQzRTkqKyY3PCNUQnk6OzNhdUZHTD0uIIJoMJChgZhJRFRqS0VtNVKBry4/PE&#xA;1OT0ZXWFlaW1xdXl9WZ2hpamtsbW5vY3R1dnd4eXp7fH1+f3OEhYaHiImKi4yNjo+Ck5SVlpeYmZ&#xA;qbnJ2en5KjpKWmp6ipqqusra6voRAAICAQIDBQUEBQYECAMDbQEAAhEDBCESMUEFURNhIgZxgZEy&#xA;obHwFMHR4SNCFVJicvEzJDRDghaSUyWiY7LCB3PSNeJEgxdUkwgJChgZJjZFGidkdFU38qOzwygp&#xA;0+PzhJSktMTU5PRldYWVpbXF1eX1RlZmdoaWprbG1ub2R1dnd4eXp7fH1+f3OEhYaHiImKi4yNjo&#xA;+DlJWWl5iZmpucnZ6fkqOkpaanqKmqq6ytrq+v/aAAwDAQACEQMRAD8A9U4qhtQ1PTtOgFxf3Mdr&#xA;AWCCWZgi8m6Cp27YqiEdJEWSNg6OAyOpqCDuCCMVbxV2KuxV2KuxVjPnnz1ZeU7KCaaBrq4umZbe&#xA;3VgleABYsxBoByHY9cVQHkz809G8yTNaSRnTr8AskEjh0dRueElEqQNyCBirxPzf5ovvMOuXF9NK&#xA;xg5kWcRJ4xxA/AAOxp198Veqflf5+iPlK9fXbvbR2UG4kJZ2hlB9Ne7M3JSo+jFVtn+e2kz6sltJ&#xA;pssFhI4RbxpFLgE0DPEFoB40c4q9PxV2KuxV2KuxV2KoS51fSra8hsri7iivLk0gt2dRI/b4VrU4&#xA;qi8VdiqE1PVtO0u1N3qE621sGCmV/sgt0GKvOfzn8x6bceVLK3sbmK5W/uOayROrrwhWrbrX9p1x&#xA;ViOj/mWbDyHN5edZWu3E8VvcK1PSjcKUHialn77bYq9D/KXzbc6x5bmTUpudxpjiOS5kO7RMKozs&#xA;e4oQT7YqymPzR5ZlmEEWr2TzE0ES3ERYnw4hq4qmeKuxVg/n/wDM618rzx2EFt9c1GRBIys3CONC&#xA;SAWIBJJp0GKvI/O3nu582Cya6tUtprMSDlEzFXEnH9lulOHjirGI5JI3WSNijqaqymhBHcEYpW4q&#xA;uEkgRowxEbEMyV2JWtCR7VOKtLx5DlUrXcDY0xV6xa/n5d/Wx9b0qP6mTuIpG9VV8asOLH7sUPXd&#xA;Pvra/sbe+tW529zGssTUpVXFRtiqviqHvtS06wiEt9dQ2kRNBJPIsak/NiBiqnYa1o2oEiwv7e7K&#xA;/aEEqSkfPgTirxa3/Nm6g87X2sXJludO4SW9nYo/FAnNeDUNVqQvInFUkHm1JvzJTzDMxa1+vBlL&#xA;VHG2DcF6/wAseKvfn8y6AmpR6YdQgOoSEqtqrhpOQ7ELWh+eKplirBvzC8/+VdLt59Gvrf8AStxM&#xA;lJ7BSAqg7j1JN+B7ilWHXFXz9KY2ldolKRFiURjyKrXYFqLWg70xSsxVUWedYXgWRhDIVaSMEhWZ&#xA;K8SR0NORp88VTrylq/l/Sb769qmnyalNEytawBwkSsN+b1DciOw6Yoej/wDK/rT/AKs0n/I9f+aM&#xA;Vab8/rWh46K5PYG4AFf+RZxV555382L5o1ddS+pLZOIxEyq5k5BSSpJ4rvQ06Yqx7FLsVdirsVdi&#xA;rsVeq6H+d0Om6Za6e2i/urSJYY2S46hAFFQ0Z/XihMP+V/Wn/Vmk/wCR6/8ANGKpR5l/NTy15ksR&#xA;ZapoUpRTyinjnUSRMRTknwfgdjirzaC4ntp0ntpXhmjPKOVCUdSOhBBqDilSxV2Ks0/Lfzf5e8t3&#xA;7XGo6e81xJVUv0YMYUYAELEQOvduVabYoe7/AOJND/Qn6c+uR/orhz+tV+GleNKdeXL4ePWu2Kvn&#xA;vVPKvmBtFuPNerI8Qu5uSKy/G5lapkfkVKIa/D1J8Kb4qxjFLsVdirsVdirsVdirsVdirsVdirsV&#xA;dirsVdirsVdirsVdiqY+X9IfWNXttNjZkkuWKIyqHoaE1ILJsKb96dj0xVkX+F/PXP8AwX9Vk9P6&#xA;19Z5/F9Xrw4ep6lKcKb/AMK7YoZt+feoBNL0zTw4rNM87oDvSJeIJ9v3hxV4uQR1xS1irsVdirsV&#xA;dirsVdirsVdirsVdirsVdirsVdirsVdirsVR+g3rafren31eP1e4il5dNkcE/Rtir6s9SP0/U5D0&#xA;6cudRSlK1r4YoSrUfKPlrUtQTUL/AE+K5vEAVZJAWFF6ArXiae4xV4F+ZyqvnvVlUBVV4wANgAIk&#xA;xSxbFXYq7FXYq7FXYq7FXYq7FXYq7FXYq7FXYq7FXYq7FXYq96/L3yx5f1r8vNIGqWMV0V+sFXYU&#xA;cf6TJ0daN+OKGcfonTv0X+ivQX9H+l9X+r78fS48ePj0xVF4q+avzNdX896uw6CVV+lY1U/qxVi+&#xA;KXYq7FXYq7FXYq7FXYq7FXYq7FXYq7FXYq7FXYq7FXYq+ifyfl5+QbBag+k86bdqzM2//BYoZpir&#xA;sVfLvnaVpPOGts3UX1wv0JKyj8BilJMVdirsVdirsVdirsVdirsVdirsVdirsVdirsVdirsVdir3&#xA;v8jp2k8myoekN7Ki/IpG/wDxvih6FirsVfLnnRGTzhrYbqb+5b6GlYj9eKUlxV2KuxV2KuxV2Kux&#xA;V2KuxV2KuxV2KuxV2KuxV2KuxV2KvefyLjK+T7hq/wB5fSsP+RUS/wAMUPRMVdir5g89/wDKZ61/&#xA;zGTf8TOKUhxV2KuxV2KuxV2KuxV2KuxV2KuxV2KuxV2KuxV2KuxV2KvevyNkDeTplHVL2VT8/Tjb&#xA;+OKHoeKuxV8t+cbmK582axPEaxveTFD4jmRXFKTYq7FXYq7FXYq7FXYq7FXYq7FXYq7FXYq7FXYq&#xA;7FXYq7FXuX5DTV8tX8O3wXpenf44kH/GmKHpeKuxV8m6rCYNUvIW6xTyIa+KuRilCYq7FXYq7FXY&#xA;q7FXYq7FXYq7FXYq7FXYq7FXYq7FXYq7FXtf5B/8cjVf+YhP+IYoepYq7FXy/wCe7cW/nLWYx0+t&#xA;yuAP+LGL/wDG2KpFil2KuxV2KuxV2KuxV2KuxV2KuxV2KuxV2KuxV2KuxV2KvcfyGip5bv5aD4rw&#xA;ry7njEhp/wANih6ZirsVfMf5gyc/O2stSlLp1p/q/D/DFWPYpdirsVdirsVdirsVdirsVdirsVdi&#xA;rsVdirsVdirsVdir3z8j4fT8mO1KereSvXxoiLX/AIXFD0HFXYq+a/zPgMPnzV0PeVH/AORkSP2/&#xA;1sVYtil2KuxV2KuxV2KuxV2KuxV2KuxV2KuxV2KuxV2KuxV2Kvor8oLcxeQrBiKGZ5pO/wDv1lH4&#xA;LihmeKuxV4F+dtn6HnMT02u7WKSvupaP9SDFXn+KXYq7FXYq7FXYq7FXYq7FXYq7FXYq7FXYq7FX&#xA;Yq7FXYq+ofI9kbLyfo9uRRhaxO48GkXmw292xQnmKuxV5N+fmmk22k6ko2R5LaQ/64Dp/wAQbFXj&#xA;eKXYq7FXYq7FXYq7FXYq7FXYq7FXYq7FXYq7FXYq7FUVpdi9/qVpYx/bupo4Vp4yMF/jir6xjjSO&#xA;NY0HFEAVVHYAUAxQuxV2KsX/ADL0f9KeS9ShUVlgT61EfeD4z96Bh9OKvmrFLsVdirsVdirsVdir&#xA;sVdirsVdirsVdirsVdirsVdirOvyb0j6/wCc4p2FYtPje4bw5fYQfe9foxQ+g8VdirsVYf8Am3cT&#xA;Q+Q9RMTFTIYo3I68WlUMPpG2KvnLFLsVdirsVdirsVdirsVdirsVdirsVdirsVdirsVdirMfykuZ&#xA;4fPunLETScSxyqO6ekzGvyKg/Rih9GYq7FXYqx78w7L675J1iGleNu0wHvARKP8AiGKvmPFLsVdi&#xA;rsVdirsVdirsVdirsVdirsVdirsVdirsVdir0D8krEXHnMzkbWdrLKp/ymKxfqkOKHvuKuxV2Kob&#xA;VLM3umXdmG4G5hkhDkV4+ohWtPauKvk+4gkt7iWCQUkhdo3HupocUqeKuxV2KuxV2KuxV2KuxV2K&#xA;uxV2KuxV2KuxV2KuxV67+Qmmyc9U1MkenRLZVoa8vtk1+7FD2DFXYq7FXYq+fvP/AJQuF/Mb6har&#xA;RdalSa3bqAZ2pIT/AKrhj8sVYt5k0O40PW7vS7jdrZyqP05od0f/AGSkHFK3VNDv9Ngsrida22oQ&#xA;rPazLurAj4lr/Mh2YYql2KuxV2KuxV2KuxV2KuxV2KuxV2KtgEkACpOwAxVH61ol/o1xFbXyelcy&#xA;QpO0R6oJKlVb3p1HbFUddeUb+28o2nmSSogurhoVjpuEA+CT/ZMrD7vHFD3X8sNCOj+TbKJxSe6B&#xA;u5+3xTAFQfcIFBxVlWKuxV2KuxVCTaTp0+o22pSwK99aK6W05rVFkoHp23p/nXFXln586KldN1mN&#xA;fjYtZzkd+skX/G+Ks0j8lWOpeRNP0HVI+LxWsQ5gUeKcJuy+4Yn54q8D8zeWdU8u6o+n6glGHxQz&#xA;L9iVOzof86YpSjFXYq7FXYq7FXYq7FXYq7FXYq9k/Kv8smgaHX9bipLs9hZON07iWQH9r+UduvXo&#xA;oSv84NBubjz1pojBCaskNvFIenqiT0yPoDKfpxV67P5f0i40VdEuLdZdNWJIRA1QOEYHHdaEEcRu&#xA;MVTBVCgKooo2AHQDFXYq7FXYq7FXYqhNQ0nT9R+rC9hWcWky3MCt0EqKyq1O9OZ64qi8VSfzT5V0&#xA;rzJppsdQTp8UE6U9SJ/5lJ/Ed8VfOvmvyjq3lnUTaXyVjaptrpR+7lUHqD2PivUYqkmKXYq7FXYq&#xA;7FXYq7FWwCSABUnYAYq9k/LT8qjbvFrfmCL9+KPaae4+we0ko/m8F7d9+ih6xiqFvtK0+/a3e7gW&#xA;V7SVbi2c7FJENQykYqisVdirsVdirsVdirsVdirsVdiqB1rQ9L1rT5LDUoFnt5N6H7St2ZG6qw8R&#xA;irwHz1+W+q+WJWuI63ekM1I7sDdKnZZQPsn36H8MVYdil2KuxV2KuxVEWGn3uoXcdnZQvcXMp4xx&#xA;IKkn/Pvir3T8vvyrs9CEeo6qFutX6ov2ooP9Wv2n/wAr7vEqHoOKuxV2KuxV2KuxV2KuxV2KuxV2&#xA;KuxV2KuxVbLFFLE8UqLJFICrxsAysp2IIOxBxV5F56/Jk/vNQ8sr4tLphP3mFj/xE/R4Yq8kmhmg&#xA;leGZGiljJV43BVlI6gg7g4pWYq7FWR+UfImu+Z7ilnH6VmppNfSAiNfED+ZvYfTTFD3vyl5J0Tyx&#xA;aelYx87lwBPeSUMrn5/sr/kjFU/xV2KuxV2KuxV2KuxV2KuxV2KuxV2KuxV2KuxV2KsP/NHWr3Sv&#xA;LTTWOpR6ddM9F5LyklWhqkWzUbcfFTbxGKvni6u7q7uHubqZ57iU1kmkYu7HpuxqTilRxV2Ks3/L&#xA;LzLq9rrtnp/6YFlpjSAvBcVeFwWHKNKghGepoajfFD6GxV2KuxV2KuxV2KuxV2KuxV2KuxV2KuxV&#xA;2KuxV2KuxVinnT8v9A8yOl9qVxPbPaRFRLE6hAgJYlldXG1dyKYq+croWwuZhbFjbB29AvTmUr8P&#xA;Km1adcUqWKuxV6B+WHkby35phu/r9xcx3do6kwQsiq0Tj4TVlY/aVgae2KHvNtbx29vFbx19OFFj&#xA;TkSx4qKCpO56YqqYq7FXYq7FXYq7FXYq7FXYq7FXYq7FXYq7FXYq7FWGfm5rZ0vyZcxxtxn1BhaR&#xA;068XqZP+SakfTir534sFDUPEkgN2JFKj8cUrcVdirMPyt1ltI862YkJSK7Js5wdv70gJWvhIFxQ+&#xA;jcVdirsVdirsVdirsVdirsVdirsVdirsVdirsVdirsVQOp6Ho+q+j+krOK8EBLRLModQWFD8J2P0&#xA;4q8h/PVYIL7RrO3jSGCGCVkijAVV5uBso2A+DFXl2KXYq+pToOg6vDaX97YQT3JSOVbh419UGgYH&#xA;mPi6++KE4xV2KuxV2KuxV2KuxV2KuxV2KuxV2KuxV2KuxV2KuxV2KvFvzps7nUPOWlWFnGZrue1V&#xA;Y4l6ktK4H0bHfFWOfmH5Lg8rLpECOZJri3ZruWuzTK3xcR2UBgBiqI/MT8vJfL0drqForNp1xGiz&#xA;g1Jhn4jkDXfi53H3eGKvdPLztJoGmO32ntIGPzManFUwxV2KuxV2KuxV2KuxV2KuxV2KuxV2KuxV&#xA;2KuxV2KuxV2KoU6Vpx1T9KmBTqHoi3FwalhEGLcRXYbsa064qwH849JN/N5aHHlzvvqpHX/egp/1&#xA;T8MVehXlna3ttJa3cSz20w4yxSAMrD3BxVdbW8NtbxW0C8IYUWOJKk0VBRRU1PQYqqYq7FXYq7FX&#xA;Yq7FXYq7FXYq/wD/2Q==</xmpGImg:image>
               </rdf:li>
            </rdf:Alt>
         </xmp:Thumbnails>
      </rdf:Description>
      <rdf:Description rdf:about=""
            xmlns:xmpMM="http://ns.adobe.com/xap/1.0/mm/"
            xmlns:stRef="http://ns.adobe.com/xap/1.0/sType/ResourceRef#"
            xmlns:stEvt="http://ns.adobe.com/xap/1.0/sType/ResourceEvent#">
         <xmpMM:InstanceID>xmp.iid:A8D2D90B356FE41195E3D1493AEF96AB</xmpMM:InstanceID>
         <xmpMM:DocumentID>xmp.did:A8D2D90B356FE41195E3D1493AEF96AB</xmpMM:DocumentID>
         <xmpMM:OriginalDocumentID>uuid:5D20892493BFDB11914A8590D31508C8</xmpMM:OriginalDocumentID>
         <xmpMM:RenditionClass>proof:pdf</xmpMM:RenditionClass>
         <xmpMM:DerivedFrom rdf:parseType="Resource">
            <stRef:instanceID>xmp.iid:C43F5A68346FE41195E3D1493AEF96AB</stRef:instanceID>
            <stRef:documentID>xmp.did:C43F5A68346FE41195E3D1493AEF96AB</stRef:documentID>
            <stRef:originalDocumentID>uuid:5D20892493BFDB11914A8590D31508C8</stRef:originalDocumentID>
            <stRef:renditionClass>proof:pdf</stRef:renditionClass>
         </xmpMM:DerivedFrom>
         <xmpMM:History>
            <rdf:Seq>
               <rdf:li rdf:parseType="Resource">
                  <stEvt:action>saved</stEvt:action>
                  <stEvt:instanceID>xmp.iid:9FB6100F196FE41195E3D1493AEF96AB</stEvt:instanceID>
                  <stEvt:when>2014-11-18T22:56:30+08:00</stEvt:when>
                  <stEvt:softwareAgent>Adobe Illustrator CS6 (Windows)</stEvt:softwareAgent>
                  <stEvt:changed>/</stEvt:changed>
               </rdf:li>
               <rdf:li rdf:parseType="Resource">
                  <stEvt:action>saved</stEvt:action>
                  <stEvt:instanceID>xmp.iid:A8D2D90B356FE41195E3D1493AEF96AB</stEvt:instanceID>
                  <stEvt:when>2014-11-18T23:10:35+08:00</stEvt:when>
                  <stEvt:softwareAgent>Adobe Illustrator CS6 (Windows)</stEvt:softwareAgent>
                  <stEvt:changed>/</stEvt:changed>
               </rdf:li>
            </rdf:Seq>
         </xmpMM:History>
      </rdf:Description>
      <rdf:Description rdf:about=""
            xmlns:illustrator="http://ns.adobe.com/illustrator/1.0/">
         <illustrator:StartupProfile>Print</illustrator:StartupProfile>
      </rdf:Description>
      <rdf:Description rdf:about=""
            xmlns:xmpTPg="http://ns.adobe.com/xap/1.0/t/pg/"
            xmlns:stDim="http://ns.adobe.com/xap/1.0/sType/Dimensions#"
            xmlns:xmpG="http://ns.adobe.com/xap/1.0/g/">
         <xmpTPg:HasVisibleOverprint>False</xmpTPg:HasVisibleOverprint>
         <xmpTPg:HasVisibleTransparency>False</xmpTPg:HasVisibleTransparency>
         <xmpTPg:NPages>1</xmpTPg:NPages>
         <xmpTPg:MaxPageSize rdf:parseType="Resource">
            <stDim:w>260.000000</stDim:w>
            <stDim:h>400.000000</stDim:h>
            <stDim:unit>Pixels</stDim:unit>
         </xmpTPg:MaxPageSize>
         <xmpTPg:PlateNames>
            <rdf:Seq>
               <rdf:li>Cyan</rdf:li>
               <rdf:li>Magenta</rdf:li>
               <rdf:li>Yellow</rdf:li>
               <rdf:li>Black</rdf:li>
            </rdf:Seq>
         </xmpTPg:PlateNames>
         <xmpTPg:SwatchGroups>
            <rdf:Seq>
               <rdf:li rdf:parseType="Resource">
                  <xmpG:groupName>默认色板组</xmpG:groupName>
                  <xmpG:groupType>0</xmpG:groupType>
               </rdf:li>
            </rdf:Seq>
         </xmpTPg:SwatchGroups>
      </rdf:Description>
      <rdf:Description rdf:about=""
            xmlns:pdf="http://ns.adobe.com/pdf/1.3/">
         <pdf:Producer>Adobe PDF library 10.01</pdf:Producer>
      </rdf:Description>
   </rdf:RDF>
</x:xmpmeta>
                                                                                                    
                                                                                                    
                                                                                                    
                                                                                                    
                                                                                                    
                                                                                                    
                                                                                                    
                                                                                                    
                                                                                                    
                                                                                                    
                                                                                                    
                                                                                                    
                                                                                                    
                                                                                                    
                                                                                                    
                                                                                                    
                                                                                                    
                                                                                                    
                                                                                                    
                                                                                                    
                           
<?xpacket end="w"?>
	</metadata>
<path fill="#727171" d="M11.221,54.581c-0.367-2.056,3.269-2.056,2.182-3.625c-4.166,0.358-6.198,4.67-8.738,5.441
	C2.942,45.946,9.913,41.046,18.121,39.313c-1.839-2.331-5.762-4.359-5.808-7.267c2.83-0.657,7.556,1.867,9.076,2.541
	c0.964-4.409,3.51-8.129,2.185-13.795c6.503-0.22,7.544,5.061,8.347,10.529c1.481-0.44,1.16-2.688,2.908-2.909
	c0.579,0.633,0.169,2.257,1.091,2.546c1.786-2.078,0.581-6.074,2.172-7.629c3.776,1.193,6.822,7.827,6.18,13.442
	c3.047-3.61,11.305-5.331,17.085-2.909c-0.918,3.463-5.497,3.244-6.193,6.909c12.579-1.321,25.783,0.963,35.61-1.826
	c-6.753-8.13,5.717-14.865,12.707-9.441c-1.889-2.877-1.596-7.607,0-10.525c6.195-5.644,12.342,1.614,15.279,5.809
	c0.723-3.12,1.252-6.414,2.513-8.983c1.257-2.564,3.226-4.455,6.754-4.776c0,0,0,0,0.027,0c7.066,0.628,7.869,7.511,9.295,13.759
	c2.907-4.194,9.051-11.452,15.254-5.809c1.619,2.918,1.887,7.647,0,10.525c6.996-5.423,19.484,1.312,12.707,9.441
	c9.828,2.789,23.019,0.504,35.616,1.826c-0.688-3.666-5.284-3.446-6.175-6.909c5.785-2.422,14.038-0.702,17.066,2.909
	c-0.633-5.615,2.42-12.249,6.175-13.442c1.614,1.55,0.407,5.551,2.174,7.629c0.918-0.289,0.505-1.913,1.088-2.546
	c1.748,0.22,1.427,2.469,2.904,2.909c0.825-5.469,1.862-10.75,8.377-10.529c-1.349,5.666,1.185,9.387,2.176,13.795
	c1.509-0.674,6.226-3.198,9.083-2.541c-0.072,2.908-3.996,4.937-5.813,7.267c8.185,1.733,15.182,6.634,13.438,17.084
	c-2.516-0.771-4.572-5.083-8.717-5.441c-1.082,1.569,2.523,1.569,2.174,3.625c-0.916,1.064-1.201,0.257-2.542,0
	c2.212,2.89,2.672,7.51,3.276,11.983c-0.17,2.115,2.396,1.458,2.175,3.633c-3.923,2.253-7.552-1.165-10.173-2.542
	c-0.719,11.286-0.012,21.958,1.095,31.619c-0.161,14.314-0.579,23.825,0.729,38.134c0.527,6.775-0.974,26.962-1.455,35.244
	c-0.969,15.64-4.088,31.715-8.713,44.686c6.104,7.561-0.705,18.322,0.34,29.417c0.341,1.192-1.159,0.504-1.432,1.086
	c-0.578,8.089-3.898,11.787-5.469,19.274c-3.175-0.734-3.85-7.038-5.807-10.194c-3.006,6.707-7.123,12.272-7.27,21.812
	c-5.639-2.881-6.465-12.369-5.449-20.725c-16.58,20.87-37.281,37.575-59.572,52.704c1.986,1.864,7.429,2.253,7.99,4.358
	c-0.17,1.768-1.912,1.965-3.637,2.176c1.508,2.615,5.813,4.335,6.176,6.904c-1.451,2.412-6.131,1.619-9.076,2.543
	c2.516,4.881,5.734,14.078,7.26,19.965c-3.653,0.365-7.91-1.733-11.256-2.898c1.109,7.047,1.262,19.781,1.455,26.889
	c-5.207-2.803-7.313-8.686-11.615-12.359c-0.73,7.497-1.634,13.359-2.547,21.077c-0.556-0.052-0.996-0.289-1.308-0.603
	c-0.333,0.313-0.752,0.551-1.302,0.603c-0.949-7.722-1.844-13.58-2.551-21.077c-4.326,3.675-6.442,9.557-11.644,12.359
	c0.202-7.106,0.368-19.842,1.454-26.889c-3.339,1.165-7.602,3.266-11.252,2.898c1.522-5.887,4.771-15.084,7.257-19.965
	c-2.928-0.924-7.598-0.131-9.075-2.543c0.363-2.569,4.672-4.289,6.177-6.904c-1.716-0.211-3.469-0.408-3.635-2.176
	c0.579-2.105,6.011-2.494,7.984-4.358c-22.292-15.129-42.989-31.834-59.574-52.704c1.014,8.354,0.193,17.844-5.446,20.725
	c-0.146-9.539-4.257-15.104-7.263-21.812c-1.955,3.156-2.612,9.46-5.805,10.194c-1.553-7.487-4.893-11.186-5.449-19.274
	c-0.268-0.582-1.791,0.106-1.454-1.086c1.039-11.095-5.762-21.856,0.365-29.417c-4.629-12.971-7.753-29.046-8.719-44.686
	c-0.342-5.377,0.441-10.699,0-15.984c-0.532-6.34-1.961-13.043-1.457-19.259c0.126-1.578,1-3.175,1.092-4.73
	c0.706-11.418-0.246-22.632-0.365-33.404c1.12-9.662,1.817-20.333,1.09-31.619c-2.611,1.376-6.249,4.794-10.186,2.542
	c-0.218-2.174,2.347-1.518,2.202-3.633c0.578-4.474,1.06-9.094,3.264-11.983C12.437,54.837,12.118,55.645,11.221,54.581z"/>
</svg>
