<?xml version="1.0" encoding="utf-8"?>
<!-- Generator: Adobe Illustrator 16.0.0, SVG Export Plug-In . SVG Version: 6.00 Build 0)  -->
<!DOCTYPE svg PUBLIC "-//W3C//DTD SVG 1.1//EN" "http://www.w3.org/Graphics/SVG/1.1/DTD/svg11.dtd">
<svg version="1.1" id="图层_1" xmlns="http://www.w3.org/2000/svg" xmlns:xlink="http://www.w3.org/1999/xlink" x="0px" y="0px"
	 width="260px" height="400px" viewBox="0 0 260 400" enable-background="new 0 0 260 400" xml:space="preserve">
<metadata><?xpacket begin="﻿" id="W5M0MpCehiHzreSzNTczkc9d"?>
<x:xmpmeta xmlns:x="adobe:ns:meta/" x:xmptk="Adobe XMP Core 5.3-c011 66.145661, 2012/02/06-14:56:27        ">
   <rdf:RDF xmlns:rdf="http://www.w3.org/1999/02/22-rdf-syntax-ns#">
      <rdf:Description rdf:about=""
            xmlns:dc="http://purl.org/dc/elements/1.1/">
         <dc:format>image/svg+xml</dc:format>
         <dc:title>
            <rdf:Alt>
               <rdf:li xml:lang="x-default">打印</rdf:li>
            </rdf:Alt>
         </dc:title>
      </rdf:Description>
      <rdf:Description rdf:about=""
            xmlns:xmp="http://ns.adobe.com/xap/1.0/"
            xmlns:xmpGImg="http://ns.adobe.com/xap/1.0/g/img/">
         <xmp:MetadataDate>2014-11-18T23:01:21+08:00</xmp:MetadataDate>
         <xmp:ModifyDate>2014-11-18T23:01:21+08:00</xmp:ModifyDate>
         <xmp:CreateDate>2014-11-18T23:01:21+08:00</xmp:CreateDate>
         <xmp:CreatorTool>Adobe Illustrator CS6 (Windows)</xmp:CreatorTool>
         <xmp:Thumbnails>
            <rdf:Alt>
               <rdf:li rdf:parseType="Resource">
                  <xmpGImg:width>252</xmpGImg:width>
                  <xmpGImg:height>256</xmpGImg:height>
                  <xmpGImg:format>JPEG</xmpGImg:format>
                  <xmpGImg:image>/9j/4AAQSkZJRgABAgEASABIAAD/7QAsUGhvdG9zaG9wIDMuMAA4QklNA+0AAAAAABAASAAAAAEA&#xA;AQBIAAAAAQAB/+4ADkFkb2JlAGTAAAAAAf/bAIQABgQEBAUEBgUFBgkGBQYJCwgGBggLDAoKCwoK&#xA;DBAMDAwMDAwQDA4PEA8ODBMTFBQTExwbGxscHx8fHx8fHx8fHwEHBwcNDA0YEBAYGhURFRofHx8f&#xA;Hx8fHx8fHx8fHx8fHx8fHx8fHx8fHx8fHx8fHx8fHx8fHx8fHx8fHx8fHx8f/8AAEQgBAAD8AwER&#xA;AAIRAQMRAf/EAaIAAAAHAQEBAQEAAAAAAAAAAAQFAwIGAQAHCAkKCwEAAgIDAQEBAQEAAAAAAAAA&#xA;AQACAwQFBgcICQoLEAACAQMDAgQCBgcDBAIGAnMBAgMRBAAFIRIxQVEGE2EicYEUMpGhBxWxQiPB&#xA;UtHhMxZi8CRygvElQzRTkqKyY3PCNUQnk6OzNhdUZHTD0uIIJoMJChgZhJRFRqS0VtNVKBry4/PE&#xA;1OT0ZXWFlaW1xdXl9WZ2hpamtsbW5vY3R1dnd4eXp7fH1+f3OEhYaHiImKi4yNjo+Ck5SVlpeYmZ&#xA;qbnJ2en5KjpKWmp6ipqqusra6voRAAICAQIDBQUEBQYECAMDbQEAAhEDBCESMUEFURNhIgZxgZEy&#xA;obHwFMHR4SNCFVJicvEzJDRDghaSUyWiY7LCB3PSNeJEgxdUkwgJChgZJjZFGidkdFU38qOzwygp&#xA;0+PzhJSktMTU5PRldYWVpbXF1eX1RlZmdoaWprbG1ub2R1dnd4eXp7fH1+f3OEhYaHiImKi4yNjo&#xA;+DlJWWl5iZmpucnZ6fkqOkpaanqKmqq6ytrq+v/aAAwDAQACEQMRAD8A9U4q7FXYq7FXYq7FXYq7&#xA;FXYq7FXYq7FXYq7FWL/mP5muPL3lmW5tP97rl1trQ0rxkkBPKncqqkj3pirF0/J+6k00ajLq90PN&#xA;hX1vrXqfAstK8K/b67cuXvTtirJPy08z3eveXuV//wAdKxla1uyRQsyAEOQOhIND7g4qyzFXYq7F&#xA;XYq7FXYq7FXYq7FXYq7FXYq7FXYq7FXYq7FXYq7FXYq7FXYq7FXYq7FXYqlfmbzDZeX9Gn1S7q0c&#xA;IASJftSO2yoPmfuG+KvPo9F80+aLL9N+atcOh6PKOdvYxOIlEbbqXZiqjbpz5H5Yq618lMkUl55D&#xA;82ST3MHxNbPMkqOf5X4UUVptzSn68VS7zP5mvPMfkxbqa39HWfLd/E2qWtKD9pA4HUAvsR23xV6t&#xA;FrumyaGutiUDTzB9ZMngnHka+46U8cVeU+WfNVx5f8rX2sLb+rqfmPUZf0VZ0qGIoC9BuVV340HU&#xA;0GKpjc+TLiaCPUPP3mqS1luN1s45khRD14ryqhIrvwT6T1xVx0DzN5dsv015P1463pkQ5TWEriZG&#xA;RPtcCpKkgfy8W+fTFWfeVPMtl5j0WHU7UFA9UmhJqY5V+0hP4j2xVN8VdirsVdirsVdirsVdirsV&#xA;dirsVdirsVdirsVdirsVdirsVdirsVdirsVedfnBwZvLcV3tpT6iv10n7IHwjf8A2BfFUf5v8nXv&#xA;mLzVpCXSmTyzbRSPdxLJw/fb8RxHxHl8I27V3HdVINc0XTfK35g+WG8vJ9WfUZDBe2iOxUxFkTkQ&#xA;xPUMx+a164qlXnq7h0Xzj5lCFRHqulcZIxQj1ZSkYNPHav01xVgC+ZtbXQG0AXLfotpPVMHv1416&#xA;8eXxceld8Us68kXcOs+afKFvIVMWl2Erekaf30bzAEe/wo30YoTyw0jTvM/5m6/Hr6G4GnKqWNm7&#xA;EKIwQvIBSNuh+bYqnnlXybeeXfOepPYoYvLN1bK0MRk5gXHJduLfF8ID7nsevgqgfyoEaav5uhtP&#xA;+OWl+PqfH7H2pQwWnbiE+jFXouKuxV2KuxV2KuxV2KuxV2KuxV2KuxV2KuxV2KuxV2KuxV2KuxV2&#xA;KuxV2KpT5q8tWXmPRptMuyUV6PFMBVo5F+y4B+4+2KsAvb382fKGjTep9T1PTbJQFvXq0qx1Crty&#xA;jY0r3DfPFU08j+XJ55k88eYtQS9vp4BLakfDDbwspJ6hQCFJHSg36nfFXkPnfzANe80X+oxk/V5H&#xA;CW9dv3UYCoaf5XHliqQ4pTnyhrp0PzLp+ptUxW8lJgNz6TgpJQf6rHFXs3nXy28jjzv5d1BbLULa&#xA;3M0s32obiBE5Amgap4CnQg7YoSfTdU/Nvzbo0TW31PTrC7DKdQSqSlQxRqDlIw6GhVR88VZ55R8r&#xA;WXlrRY9NtW9QgmS4nIoZJG6sR22AAHhiqdYq7FXYq7FXYq7FXYq7FXYq7FXYq7FXYq7FXlV7e+Y/&#xA;Pvme+0nS759M8v6W3p3M8VQ0jAlf2SC3IqeIrSgqd8VQ/mHydrnkew/T+g61cSRWrIby1nNUcMwS&#xA;pUHiwqwFCK964q9P0LU/0rotjqXD0/rkEcxj68S6gkfQcVR2KuxV2KuxV4t+aGrXt95k1SwuJJf0&#xA;TolvDKbKF/TEzzGIcnNG6Gcdu1BStcVV/wAu7yHT/Odlpmh3sl5o2pWIuby3dg4tpuDMVNAu6soH&#xA;T9rfFXsWKsM/NnXrLTfKF3ayupu9QX0LaE0LGpHNqeCr38aYq8o138wJ5fK1h5Y0wtHZQQRpe3Bq&#xA;GmcCrovhHyPzPt0xVhmKXYq7FWZ+WvzAmtPLt/5a1ItJp13BLFazCpeB5FIG3ePluR1HbFD1H8n9&#xA;dsr/AMo29gjqLzTuUc8OwPEuWR6eBBpXxrirOcVeRfmPdw3/AJzbSdbvpLHQrOyN1FEjBPrEoBag&#xA;JDVZj8IqD023OKpb+Wer3mn+YdItrWSVdJ1pJg9jK/qCOSIuOcey7EoN6eI3pXFXt+KuxV2KuxV2&#xA;KsA8wfmPqp16Ty/5T00anqNvUXMslfSRlNGWgKfZOxYsBXbFUGv5lebNDvoYvOmipZ2dw3Fby1qV&#xA;Qnxo8ytTuA1fbFXpMckcsayRsHjcBkdTUFSKggjxxVdirsVdirsVeY/k1KlrdeYdHnAS/t7ou69y&#xA;oJjNPZWX8cVZH+Y3l6XW9FSBtTXTdPhk9bUXcfC0SCu/T7LCoHT7hiqRWf5w+SrFLfT7a3vF023V&#xA;beG69NeACAKNi3OnEeFfbFXoVneWt7axXdrIs1tOoeKVdwyncHFVbFXYq7FXjGp+X9U80/mF5km0&#xA;i6jhk09YoqSryikPpiJ4n2YUPB+qnFVe0n83eSbaa4PlrSrVXHF70XKRlyOgHqTFz48VpiqS3354&#xA;ecJ0KW8draV/bjjZnH/IxmX/AIXFWDajqeo6ldNdahcyXVw2xllYsaeAr0HtilC4q7FXYq7FXYqi&#xA;bDUb/T7lbqxuJLa4T7MsTFGoeoqO2Ks5sPzv84W6BLhLW8p+3JGyufpjZF/4XFCd3F75t88WcMq+&#xA;W9LvEjBVbprlHMZbrURzrIv+q2KoW18u6t5W88eV73V7mOSS9keAJCvGGEFfSWJNgKfvuyj+OKva&#xA;sVdirsVdiqjPeWduVFxPHCW+yJHVa/KpGKvP/KOmavoX5i63bPYvLpusFruHUgKoihmkClzt1k4k&#xA;VrWh6b4qyH8ybS2uvJGrLcAERQmaMntJGeSEfSKYqp/ldPPP5C0h5iS4jeMV/kjldE/4RRirKcVd&#xA;irwTVfzK82X/ANY1W31ZNLtVlZLDTlTk78KE1IRwaKy1LsAT0GKvYvJuq32reWNO1G+j9O6uYuUg&#xA;AoDQkBwPBwOX04q8u8967pukee7fW/LF0tzqZBXU7WIF4m4gAgsux5KPiA6EV64qnPnDzbpvm38u&#xA;r19Jl43UPpS3tgxpMqI4L7ftKv2uQ22+jFWIQapfQG8is7GTVtE1LT1tLK3jDPFDN6ablFDASRyA&#xA;lhQEn4u9cVeuflzo1/o/k+wsb8cbpQ7vFWvD1JGcJ8wG398VVvO3mqLyzoUmotH60zOsNrD0DyuC&#xA;QCR2AUk/LFWAL5//ADA0y3i13VBZ3ejvcfV7u0tyvq2771Q8TyV6DoxPvirPfOPnDT/LmhvfSOrX&#xA;EyEWEB6ySEVG3XiK1Y/xxV5Fon5hR+WdBmjsFF75h1SQ3N9eSbxxFq8V2oZHG7HsC3fpirDdX1rV&#xA;dYu2u9Tunup2/ac7KOtFUfCo9gMUoHFXYq7FXYq7FXYq7FXYq7FUZper6npN2t3p1zJa3C9HjNKj&#xA;rRh0Yex2xVmmsfmGnmjy6tnqqi11uxdbmwvovhjkZBQo3eNmHQjbkB0xQ9a8i+cbPzNosU6uov4V&#xA;VL+DoVkp9oD+V6VX7u2KsGl8/wDnvVYrrWtGNnZ6JbXH1a3juSqvcPsVWrndyCDQFcVZ35H82L5m&#xA;0QXrRfV7uFzBeQb0WVQCaV3oQa7/ACxVkLEgEgVI6DxxV833Nzpl9pd95g1udr3X5b30F015GThF&#xA;x5F6D46L9kdhir0P8p7u+s9X1jy28rz2FmqT2ZkPIxLJQ+nXbqGFQBSoOKrPzJ8wy67fQ+R9BInu&#xA;rmVRqMqn4ECHlwJH8tOT+FKda4q9E0bS7fStKtNNt6mG0iWJSep4jdj7sd8VYLffnTpsF9cJb6Xc&#xA;3enWknpT38ZAUGpFQKUoafDyYVxVmH+KtF/w5/iL1/8AcX6Xq+rQ1pXjx4/zcvhp44q871H8p9e0&#xA;3U5bry61ld2MjmRbG/iST0yT0X1EddvEFTTxxVGSeTvzP14fV9d1mKw00/C9taDcr/LxQICP9Zz8&#xA;sVZh5Y8keXvLcPHTretwRSS8lo8zf7Kmw9loMVSTzN+Unl7V5mvLJm0m/apMluB6bE9S0fw7/wCq&#xA;RirC0/KLz/o9w02i6lECdvUgmkgcjwYUA/4Y4qyDQPL35wR6pbS6hq6CyjkRriOSQS84wwLKFCH7&#xA;QFOo+eKon84rrQZ9B+qS6nDb6raSrc20FS0jMqkcCqBmXkG2JFK07Yq8sF1Y3gk1IaRdzIjfWL23&#xA;SUix9UdXakZZVYn7PKu9A2KpXr/mHVNe1F7/AFGX1JWHFEUUSNB0RF7KMUpbirsVdirsVdirsVdi&#xA;rsVdirsVdirsVdiqYaFr2p6HqMeoabMYriPY91dT1R17qcVTaS50+IDU5dGuo4Jn+sQW3qEae8tS&#xA;OQJTkUB24cq9uWKHp/5OXuhxaTLGdThn1nUJmuLm3JKOCQBxCuFLU6krtviqa+ePzIXyrfw2smmS&#xA;3aTRCX6wG9OMEsV4AlWqRSp+YxV5Pr/nHStZ1BrvTvLMFvqcrcjcGSSdi1ftiFRHEW/1kbFU28pe&#xA;XfzMuoLqG0jfS4tTk9TUNUuQ0c8g32Bb95+0T8KitdzirK5PyT0uHTof0dfz22twHmuo1IDP7oD8&#xA;IHbia+NcVQ8Xnjz35TP1bzXpbahZpsuqW/cDuWA4N/suJ8cVYLfXmh3OpXL+UYtTaXUA6vphRRH+&#xA;9BUikTyF1+LZSv04q9H/AMDav/yqT/D9P9ynH1/RqKc/W9b0q9K8duvXFXouKuxV2KuxV2KsK/ND&#xA;zTfaRp9pp2mOItU1eQwwzkhfSQEB35H7J+MCvbc9sVY75CsfytMswa4XVNVt42uLq8vkYRkJvJJG&#xA;sg48V61b4u+KsM/MPz9L5huhZWFbfQrU0t4AOPqMP92OB/wo7fPFWGYpdirsVdirsVdirsVdirsV&#xA;dirsVdirsVdirsVZf+X/AJ8uPLd59Xuq3GiXJpd2xHLiTt6iA9x3HcfRihnPny0/Koi3Zpl07Ubu&#xA;Nbi0vbCNioVvsSSJGOJUkf62Kp3+Vvmm+1K1vNI1OUXGo6U4X60DyE0L14Py/a6fa7imKs4SONBR&#xA;FCjrRQBv9GKrsVdirsVWpHGleCheRq1ABU+OKrsVdirsVdirsVdirEfzE8kzeZbO2lspUh1TT3L2&#xA;zSfYYNTkjUB68RTY/jirwfzGt/a6pJY3JgjltF+rPHZ0ESgEsyEr9o8mPKtd8VSjFLsVdirsVdir&#xA;sVdirsVdirsVdirsVdirsVdirsVdiqa+Xjez6rBaW5geS5Bto47uhhIc1CfF9mrdKU3xV7t+XPka&#xA;fy3b3NzfypLqd9x9URf3ccaV4xrsPHfanQDpihmWKuxV2KuxV2KuxV2KuxV2KuxV2KsX/MbzYPLf&#xA;lyWeJgL+5/cWQ8HYbv8A7Bd/nTFXzY7u7s7sWdiSzE1JJ6knFK3FXYq7FXYq7FXYq7FXYq7FXYq7&#xA;FXYq7FXYq7FXYq7FWwSCCDQjcEYq+jvyy83f4j8uo078tRsqQ3lerGnwSf7MD7wcUMuxV2KuxV2K&#xA;uxV2KuxV2KuxV2KuxV87/mz5lOs+apoYn5WWm1toADsWB/ev9L7fIDFWFYpdirsVdirsVdirsVdi&#xA;rsVdirsVdirsVdirsVdirsVdirsVZf8Ald5lOh+a7f1H42V8Ra3QJ2Ac/A5/1Xpv4VxQ+jsVdirs&#xA;VdirsVdirsVdirsVdiqUebtZGi+WtQ1OtHt4W9Gv+/X+CP8A4dhir5aZmZizEliakncknFLWKuxV&#xA;2KuxV2KuxV2KuxV2KuxV2KuxV2KuxV2KuxV2KuxV2Kt4q+oPJGtnWvKunagzcppIglwe/qx/A5+l&#xA;lrihPMVdirsVdirsVdirsVdirsVeZ/ntqZg8vWWnqaNeXBdh4pCu4/4J1xV4dil2KuxV2KuxV2Ku&#xA;xV2KuxV2KuxV2KuxV2KuxV2KuxV2KuxV2KuxV7Z+Q2pmXSNS01jvbTpMgP8ALMvE0+mL8cUPUcVd&#xA;irsVdirsVdirsVdirsVeJfn1dFtd0207RWplp/xlkK/8ysVeX4pdirsVdirsVdirsVdirsVdirsV&#xA;dirsVdirsVdirsVdirsVdirsVelfkTdGPzPe2xPwz2bN/so5Ep+DHFD3PFXYq7FXYq7FXYq7FXYq&#xA;7FXgn54EnznGCa0s4gP+DkOKvPcUuxV2KuxV2KuxV2KuxV2KuxV2KuxV2KuxV2KuxV2KuxV2KuxV&#xA;2Ks8/JYked46GlbeYH7hih9A4q7FXYq7FXYq7FXYq7FXYq8E/PAEec4yRStnER/wcgxV57il2Kux&#xA;V2KuxV2KuxV2KuxV2KuxV2KuxV2KuxV2KuxV2KuxV2KuxVnn5LAnzvHQVpbzE/cMUPoHFXYq7FXY&#xA;q7FXYq7FXYq7FXiX59WpXXdNu+0tqYq/8YpC3/M3FXl+KXYq7FXYq7FXYq7FXYq7FXYq7FXYq7FX&#xA;Yq7FXYq7FXYq7FXYq7FXpX5E2pk8z3tyR8MFmy/7KSRKfgpxQ9zxV2KuxV2KuxV2KuxV2KuxV5n+&#xA;e2mGfy9Zagoq1ncFGPgky7n/AIJFxV4dil2KuxV2KuxV2KuxV2KuxV2KuxV2KuxV2KuxV2KuxV2K&#xA;uxV2KuxV7Z+Q2mGLSNS1JhvczpChP8sK8jT6ZfwxQ9RxV2KuxV2KuxV2KuxV2KuxVKPN2jDWvLWo&#xA;aZSr3ELejX/fqfHH/wAOoxV8tMrKxVgQwNCDsQRilrFXYq7FXYq7FXYq7FXYq7FXYq7FXYq7FXYq&#xA;7FXYq7FXYq7FW8VfUHkjRDovlXTtPZeM0cQe4Hf1ZPjcfQzUxQnmKuxV2KuxV2KuxV2KuxV2KuxV&#xA;87/mz5aOjeappok42WpVuYCBsGJ/ep9D7/IjFWFYpdirsVdirsVdirsVdirsVdirsVdirsVdirsV&#xA;dirsVdirsVZf+V3lo655rt/UTlZWJF1dEjYhD8CH/Wem3hXFD6OxV2KuxV2KuxV2KuxV2KuxV2Ku&#xA;xVi/5jeUx5k8uSwRKDf237+yPi6jdP8AZrt86Yq+bHR0dkdSrqSGUihBHUEYpW4q7FXYq7FXYq7F&#xA;XYq7FXYq7FXYq7FXYq7FXYq7FXYq2ASQAKk7ADFX0d+WXlH/AA55dRZ046je0mvK9VNPgj/2AP3k&#xA;4oZdirsVdirsVdirsVdirsVdirsVdirEfzE87TeWrO2isokm1TUHKWyyfYULTk7UI6chTcfhirwf&#xA;zIb+61WW+ufQklu1+svLZ0MTAkqXov2TyU8qgb4qlGKXYq7FXYq7FXYq7FXYq7FXYq7FXYq7FXYq&#xA;7FXYq7FU18vC9g1WC7txAklsDcxyXdBCAhoH+L7VG6Urvir3b8ufPM/mS3uba/jSLU7Er6pi/u5Y&#xA;3rxkSpPh406EdcUMyxV2KuxV2KuxV2KuxV2KuxV2KuxVhX5oeVr7V9PtNR0xBLqmkSGaGAgN6qEg&#xA;unE/aPwA077jvirHfId9+VgknLW66XqtxG0F1Z3zsYwr7SRxtIeHFulG+LtirDPzD8gy+XroXthW&#xA;40K6NbecHl6bH/dbkf8ACnv88VYZil2KuxV2KuxV2KuxV2KuxV2KuxV2KuxV2KuxVl/5feQ5/Ml7&#xA;9YuqwaJbGt3ck8eRG/poT3Pc9h9GKGc+fLz8qQturQrqOo2ka29pZ2EjBSq/Yjd4zwCgn/WxVO/y&#xA;t8rX2m2t5q+pxC31HVXDfVQOIhhSvBOP7PX7PYUxVnWKuxV2KuxV2KuxV4F5g88atrOp3E95ql1p&#xA;mhrO8FtDYrVyE/mHOEE0IJLN32G2yrI9O8q+cY9Nt9a8n+aJNSt5V5JbXPJFahoV4yNJHyqCPipT&#xA;xxVONC/NeOO5OlebrVtG1OOgMrK3ov79ylex3X3xVL9Y/NTWtTN1H5Qsa2dorPc6vcrRERQSWCtR&#xA;V6VHKpP8uKsFttU87686zXnmH6hbyE+nNd3RtYmINDwRKVp0qq0xVnGi/lt54t7i2u181N6IdXYR&#xA;SzSK8fIMacjxbkPEUxVMPzitdCg0H61LpkNzqt5Ktraz0KyKzAnkWQqzcQuwJpWnbFXli21jZiTT&#xA;Rq93DG7fV724SImx9U9UNJAzKpH2uPaoXFUr1/y9qmg6i9hqMXpyqOSOpqkiHo6N3U4pS3FXYq7F&#xA;XYq7FXYq7FXYq7FXYq7FXYq7FUw0LQdT1zUY9P02Ey3Em57Kijq7t2UYqm8lrYShdLl1i6khhf6v&#xA;Bc+kTYJLUniAX5BGO/LjXvxxQ9N/J2y0ObR5pP0bDb6zYTNbXNzTnISACHVnL8SehC7VGKpbqn5a&#xA;eeSs13cebKopMjyTzTxIqjepNSqgfcMVYdLrXnrQXM1rr7XtqjANcW9z9btwx6c1flxr25IK4qz/&#xA;AEj81NT064t7LzjZfVluFDW+qwCsMiNuHovJWUg/aQ/RiqI1n805ru8Ok+TLJtWvzs10VPoJ2qPs&#xA;1A/mYhfniqUax5V80x6VNrPnDzXNaRqATa2vJ15MfhQKrRJy9lX6cVSbyh531nTddsEj1G61PQr+&#xA;4FqyXwpKjMVFR8c3HjzB+F6HwxV7rirzPWfyjv3vb6TQ9XNlY6kS13ZSKSlWJJAoaEfEabVHjirN&#xA;vKvl6Dy9oVtpMMhmEAYvMwoXd2LMab0FTsMVee+b1k88+eofLFtRNO0mr6hdgAvXb1Arb0pUIB/N&#xA;UnpirKPOflpIfy71DR9CtfTCRoYoIh8TCORHfpuzMqn3OKvJLW48q3ly2oazKv1OLTEtrfTk9QTL&#xA;dRRJEAoApRmDSBq0333rir1j8oodRi8j2YvQwDPI9qrdRCzVXr2JqR7YqmvnbyrF5m0KTTmk9GZX&#xA;Wa1m6hJUBAJA7EMQfnirAF8gfmBqdvFoWqGztNHS4+sXd3bhfVuH3q54jkz0PVgPfFWe+cfJ+n+Y&#xA;9DexkRVuIUJsJz1jkAoN+vE0ow/jiryLRPy9j8zaDM9gRZeYdLkNtfWcm0cpX7LbV9NzQqexK9uu&#xA;KsN1fRdV0e7a01O1e1nX9lxsw6VVh8LD3BxSgcVdirsVdirsVdirsVdirsVRml6RqerXa2mnW0l1&#xA;cN0SMVoOlWPRR7nbFWaax+Xsflfy6t5qrC71y/dbawsYt442cVZ27yMo2FNuRHXFD1ryL5Os/LOi&#xA;xQKim/mVXv5+paSn2Qf5UrRfv74qwaXyB570qK60XRhZ3miXNx9Zt5LkKz277BWo42cAAVAbFWd+&#xA;R/Ka+WdEFk0v1i7mcz3k+9GlYAGld6ACm/zxVI/zphv5PJwNsGMEdzG98qdfRAYVPsHK9sVeY6nc&#xA;eV7a61C50J1bTtQsltoNNb1DMsz8OXMMD9hl515GrdMVew6H5VhvfIOn6Jr8HqMLdRIjfbibcrxP&#xA;7LIDTFWK+QJZ/KPm+88mX3EwXZ9fTrriFL0UkVPfkqkezCg64qzjzn5Wh8zaFJpkkxt2LLLDMBy4&#xA;unSq1FRQkdcVYr5f/Km+g1Wxv9d1Y6gmmcfqNqikIpTdSST2IBoBv3OKvRsVdirsVeY/lIUTzH5t&#xA;huKfpD61V6/aKiWUNT/ZHf6MVZJ+ZVzr9l5Yk1DRboWs9lIs0+ykvEKqyjkCOrA/Rirfl3TPK/mD&#xA;S7HzBNo9mby7jWWVzChPqjZzuN/jBoTirKQABQbAdBirsVdirsVeMan5g1Tyt+YXmSHSLWOaTUFi&#xA;lrK3GKM+mJXlfdRQc36sMVV7SDzd52tprc+ZdKulQcnshbJIUr0I9WAOPDktfniqS3v5H+b4ELwS&#xA;2t3QfYjkZXP/ACMVV/4bFWDajpeo6ZdNa6hbSWtwu5jlUqaeIr1HuMUoXFXYq7FXYq7FUTYadf6h&#xA;cra2NvJc3D/ZiiUu1B1NB2xVnNh+SHnC4QPcPa2dRUpJIzOK+0auv/DYoTu5svN3kizhiXzJpdmk&#xA;gqtq1siGQr1JMcDSN/rNiqFtfMWreafPHley1e2jjkspJJw8LcoZgF9VZU3Ip+57Mf4Yq9qxV2Ku&#xA;xVplV1KsAysKMp3BB7HFWH+a7Py55V0K91+x0izj1CBR9WkWFARLI4RWFBtxLV2xVHfl82tyeVbO&#xA;51m6+t3V2PrKSU3EU3xopI6mhr7dO2KsT/MIpJ+ZXlGO3P8ApiSxtMATUQ+uCK/Qr4q9PxV2KuxV&#xA;2KuxVgHmvyFrQ17/ABP5TultNVYUurd9kl2AqKgrvQcg2x69cVSzUPL/AObHmiJdM1qS103S2Km5&#xA;aEqxkCmo+FWctQitKqMVej6RpdrpWmW2m2oIt7WMRpXcmnUn3J3OKovFXYq7FXYq8W/NDSb2x8ya&#xA;pf3Ecv6J1u3hiN7Cnqei8JiPFxVepgHfoaipFMVV/wAu7OHUPOdlqWh2Ulno2m2Itru4dQguZuLK&#xA;WNC1WZmB6/s74q9ixVhn5s6DZal5Qu7qVFF3p6+vbTGgYUI5rXwZe3jTFXlOufl/PF5WsPM+mBpL&#xA;KeCN7233Z4XpR3Xxj5D5r79cVYXil2KuxVmnlv8AL+e68u3/AJl1INHp1rbyy2sA2ed41JXftHy6&#xA;nqe2KHqH5P6FZWHlG3v0RTeajyknm2J4hyqJXwAFaeNcVZziryL8x7OGx85tq2t2Ul9oV5ZG1jlR&#xA;Q/1eUgrUAlQCpPIbjrtuMVS78s9IvNR8w6Rc2scraTokcxe+lT0xJJKXPCPdtgXG1fE7Vpir27FX&#xA;Yq7FXYql/mDRLTXNHutKuyRBdLxLL9pSpDKwr/KwBxV59YaP+cHl22/RemPaajYRVFrNIVDIp6AB&#xA;yjD5GoHyxVN/JnkLU7TWJfMnmW7F7rkoKxhN0iBHE70Xfj8IAFAPHFWdYq7FXYq7FXYq7FXYq7FX&#xA;Yq7FXYq7FXYq7FUo81eZbLy5os2p3Y5hKJDCDRpJG+ygP4nwGKsBvLP82fN+jS+p9T03Tb1AVsnq&#xA;srR1DLvxkYVp3K/LFU08j+ZJ4J08jeYtPSyvoLcR2oHxRXEKqQepYEsoJrWh36HbFXkPnfy+ug+a&#xA;L/TYgfq8biS3Jqf3UgDIK/5PLjX2xVIcUpz5Q0I655l0/TGqIriSsxGx9JAXkof9VTir2Xzt5kkj&#xA;ceSPLunreahdW5hli6RW8DpxFaFaHga7kAbYoSjTdL/Nryjo0S231PUdPtAzHT0q8oUsXeh4xsTu&#xA;dlY/LFWeeUfNNl5l0WPUrZfTYkx3EBPIxyr1UnavUEHwxVOsVdirsVdirsVdirsVdirsVdirsVdi&#xA;rsVdirsVdirsVdirsVdirsVdirsVedfnBwVvLct3vpSaiv10H7JHwnf/AGAfFUf5v84Xvl3zVo73&#xA;TmPyzcxSJdyrHz/fb8TyHxCnwmg7V2OKpBretab5q/MHywvl5zctp8jT3t2iMFEQZG4ksAdgrD5t&#xA;TriqVeerSHWvOPmUoFMelaVykkFAPViKSAV8d6fRTFWAL5Z1ttAbXxbN+i1k9Iz+/TlTrx5fDy6V&#xA;2xSzryRaQ6N5p8oXEgURapYSr6pp/fSPMQB7/Ei/TihPNP1fT/K/5meYH19zbjUVWSxvXQlTHXlx&#xA;BUHboPmuKp55V85XnmLznqSWLmXyza2yrDKY+ANxyXfk3xfEC+x7Dp4qoH8qDG+r+bprT/jlvfj6&#xA;nx+x9qUsVp24lPoxV6LirsVdirsVdirsVdirsVdirsVdirsVdirsVdirsVdirsVdirsVdirsVdiq&#xA;V+ZvL1l5g0afS7uqxzAFJV+1G67q4+R+8bYq8+j1rzT5Xsv0J5q0M65o8Q4W99EglUxrsodWDKdu&#xA;nPifnirrXzq7RSWfkPynJBcz7NdPCkSL25Pwqpp25vTFUu8z+Wbzy55MW1muPW1nzJfxLql1Wo/a&#xA;cID1ID7k998VerRaFpsehrogiB08QfVjH4px4mvuetfHFXlPljytceYPKt9oyXHpal5c1GX9FXdS&#xA;ApO5TbcKzryqOhxVMbnzlcwwJYefvKsl1Lb7LeRwpMjnpyXlRAT3KPv4DFXHX/M3mKy/Qvk/QTom&#xA;mSjjNfyoIUVH+1wCgKCR/Lyb5dcVZ95U8tWXlzRYdMtSXCVeaYihklb7TkfgPbFU3xV2KuxV2Kux&#xA;V2KuxV2KuxV2KuxV2KuxV2KuxV2KuxV2KuxV2KuxV2KuxV2KuxV2KsX/ADH8s3HmHyzLbWn+91s6&#xA;3NoK05SRgjjXsWViB70xViy/nBdppv6Ol0i6PmxV9H6t6fwGWlOfGvPrvx4+1e+Ksl/LTyxd6D5e&#xA;43//AB0r6Vrq7BNSrOAAhI6kAVPuTirLMVdirsVdirsVdirsVdirsVdirsVdirsVdirsVf/Z</xmpGImg:image>
               </rdf:li>
            </rdf:Alt>
         </xmp:Thumbnails>
      </rdf:Description>
      <rdf:Description rdf:about=""
            xmlns:xmpMM="http://ns.adobe.com/xap/1.0/mm/"
            xmlns:stRef="http://ns.adobe.com/xap/1.0/sType/ResourceRef#"
            xmlns:stEvt="http://ns.adobe.com/xap/1.0/sType/ResourceEvent#">
         <xmpMM:InstanceID>xmp.iid:A2A92EAE336FE41195E3D1493AEF96AB</xmpMM:InstanceID>
         <xmpMM:DocumentID>xmp.did:A2A92EAE336FE41195E3D1493AEF96AB</xmpMM:DocumentID>
         <xmpMM:OriginalDocumentID>uuid:5D20892493BFDB11914A8590D31508C8</xmpMM:OriginalDocumentID>
         <xmpMM:RenditionClass>proof:pdf</xmpMM:RenditionClass>
         <xmpMM:DerivedFrom rdf:parseType="Resource">
            <stRef:instanceID>xmp.iid:A1A92EAE336FE41195E3D1493AEF96AB</stRef:instanceID>
            <stRef:documentID>xmp.did:A1A92EAE336FE41195E3D1493AEF96AB</stRef:documentID>
            <stRef:originalDocumentID>uuid:5D20892493BFDB11914A8590D31508C8</stRef:originalDocumentID>
            <stRef:renditionClass>proof:pdf</stRef:renditionClass>
         </xmpMM:DerivedFrom>
         <xmpMM:History>
            <rdf:Seq>
               <rdf:li rdf:parseType="Resource">
                  <stEvt:action>saved</stEvt:action>
                  <stEvt:instanceID>xmp.iid:9FB6100F196FE41195E3D1493AEF96AB</stEvt:instanceID>
                  <stEvt:when>2014-11-18T22:56:30+08:00</stEvt:when>
                  <stEvt:softwareAgent>Adobe Illustrator CS6 (Windows)</stEvt:softwareAgent>
                  <stEvt:changed>/</stEvt:changed>
               </rdf:li>
               <rdf:li rdf:parseType="Resource">
                  <stEvt:action>saved</stEvt:action>
                  <stEvt:instanceID>xmp.iid:A2A92EAE336FE41195E3D1493AEF96AB</stEvt:instanceID>
                  <stEvt:when>2014-11-18T23:01:21+08:00</stEvt:when>
                  <stEvt:softwareAgent>Adobe Illustrator CS6 (Windows)</stEvt:softwareAgent>
                  <stEvt:changed>/</stEvt:changed>
               </rdf:li>
            </rdf:Seq>
         </xmpMM:History>
      </rdf:Description>
      <rdf:Description rdf:about=""
            xmlns:illustrator="http://ns.adobe.com/illustrator/1.0/">
         <illustrator:StartupProfile>Print</illustrator:StartupProfile>
      </rdf:Description>
      <rdf:Description rdf:about=""
            xmlns:xmpTPg="http://ns.adobe.com/xap/1.0/t/pg/"
            xmlns:stDim="http://ns.adobe.com/xap/1.0/sType/Dimensions#"
            xmlns:xmpG="http://ns.adobe.com/xap/1.0/g/">
         <xmpTPg:HasVisibleOverprint>False</xmpTPg:HasVisibleOverprint>
         <xmpTPg:HasVisibleTransparency>False</xmpTPg:HasVisibleTransparency>
         <xmpTPg:NPages>1</xmpTPg:NPages>
         <xmpTPg:MaxPageSize rdf:parseType="Resource">
            <stDim:w>260.000000</stDim:w>
            <stDim:h>400.000000</stDim:h>
            <stDim:unit>Pixels</stDim:unit>
         </xmpTPg:MaxPageSize>
         <xmpTPg:PlateNames>
            <rdf:Seq>
               <rdf:li>Cyan</rdf:li>
               <rdf:li>Magenta</rdf:li>
               <rdf:li>Yellow</rdf:li>
               <rdf:li>Black</rdf:li>
            </rdf:Seq>
         </xmpTPg:PlateNames>
         <xmpTPg:SwatchGroups>
            <rdf:Seq>
               <rdf:li rdf:parseType="Resource">
                  <xmpG:groupName>默认色板组</xmpG:groupName>
                  <xmpG:groupType>0</xmpG:groupType>
               </rdf:li>
            </rdf:Seq>
         </xmpTPg:SwatchGroups>
      </rdf:Description>
      <rdf:Description rdf:about=""
            xmlns:pdf="http://ns.adobe.com/pdf/1.3/">
         <pdf:Producer>Adobe PDF library 10.01</pdf:Producer>
      </rdf:Description>
   </rdf:RDF>
</x:xmpmeta>
                                                                                                    
                                                                                                    
                                                                                                    
                                                                                                    
                                                                                                    
                                                                                                    
                                                                                                    
                                                                                                    
                                                                                                    
                                                                                                    
                                                                                                    
                                                                                                    
                                                                                                    
                                                                                                    
                                                                                                    
                                                                                                    
                                                                                                    
                                                                                                    
                                                                                                    
                                                                                                    
                           
<?xpacket end="w"?>
	</metadata>
<path fill="#727171" d="M212.508,134.192c0.131-0.06,0.258-0.119,0.389-0.149c0.078-0.01,0.396-0.05,0.485-0.06
	c4.228-0.249,7.726,0.109,10.856-1.75c3.5-2.068,4.582-4.564,2.476-7.766c-1.59-2.405-6.551-0.974-6.501,1.681
	c0.029,1.819,1.163,2.476,2.087,2.376c0.945-0.16,1.611-1.014,0.966-1.949c-0.041-0.06-0.199-0.269-0.238-0.329
	c-0.418-0.676-0.199-1.551,0.478-1.958c0.604-0.377,1.37-0.218,1.819,0.319l0.02-0.021c2.206,2.426,0.348,6.582-2.773,6.8
	c-3.313,0.239-5.348-2.674-5.209-5.269c0.308-5.905,7.992-7.565,11.682-3.3c2.805,3.24,1.372,7.973-1.421,10.558
	c5.774-1.999,10.735-5.946,13.032-11.314c1.97-4.345,0.636-10.539-4.018-11.681c-4.979-1.442-9.324,3.489-5.06,7.276h0.011
	c0.128,0.169,0.238,0.338,0.297,0.547c0.239,0.775-0.238,1.601-1.054,1.83c-0.604,0.168-1.224-0.04-1.608-0.458
	c-2.09-2.048-3.609-6.224-1.166-9.286c2.348-2.803,6.114-3.569,9.396-2.764c7.208,2.039,8.441,10.32,6.095,15.569
	c-0.974,2.228-2.286,4.215-3.866,5.946c5.745,3.4,12.158,7.655,17.061,4.971c2.763-1.461,2.724-4.672,0.148-5.468
	c-1.67-0.368-2.267,0.199-2.297,0.775c-0.02,0.517,0.428,1.034,0.975,0.835h0.011c0.159-0.139,0.348-0.239,0.575-0.308
	c0.796-0.229,1.66,0.249,1.91,1.044c0.188,0.586,0,1.163-0.418,1.531h0.01l-0.029,0.02c-0.05,0.04-0.119,0.069-0.18,0.109
	c-3.032,1.849-6.354-0.975-5.936-3.848c0.666-3.142,3.995-3.778,6.203-3.013c3.908,1.004,4.771,5.1,3.561,8.024
	c-0.559,1.332-1.371,2.256-2.914,2.972c-2.116,0.974-4.104,1.193-6.055,1.074c-5.597-0.338-10.498-4.286-14.793-6.591
	c-6.383,5.468-15.628,7.695-24.029,6.084h-0.021c-0.05-0.02-0.108-0.02-0.149-0.02v-0.02c-0.437-0.1-0.823-0.378-1.033-0.756
	c-0.09-0.1-0.18-0.189-0.248-0.298C211.634,135.484,211.842,134.61,212.508,134.192z"/>
<path fill="#727171" d="M47.482,131.428c-0.119-0.079-0.248-0.119-0.386-0.159c-0.071-0.01-0.399-0.06-0.477-0.06
	c-4.227-0.248-7.726,0.1-10.857-1.749c-3.5-2.068-4.593-4.563-2.485-7.755c1.59-2.406,6.552-0.984,6.502,1.67
	c-0.03,1.809-1.164,2.485-2.078,2.376c-0.945-0.169-1.611-1.014-0.965-1.949c0.039-0.05,0.199-0.268,0.229-0.328
	c0.417-0.677,0.198-1.552-0.468-1.949c-0.616-0.378-1.371-0.219-1.819,0.318l-0.02-0.02c-2.217,2.416-0.347,6.562,2.774,6.78
	c3.301,0.249,5.339-2.665,5.209-5.249c-0.308-5.905-8.003-7.576-11.692-3.301c-2.802,3.241-1.371,7.963,1.423,10.548
	c-5.767-1.999-10.738-5.935-13.035-11.314c-1.958-4.344-0.636-10.528,4.026-11.681c4.972-1.432,9.316,3.499,5.05,7.277
	c-0.139,0.159-0.248,0.337-0.308,0.537c-0.228,0.795,0.239,1.61,1.065,1.849c0.596,0.169,1.223-0.04,1.601-0.467h0.009
	c2.078-2.038,3.6-6.214,1.154-9.286c-2.336-2.803-6.114-3.569-9.385-2.763c-7.218,2.038-8.441,10.33-6.104,15.568
	c0.974,2.217,2.296,4.206,3.867,5.956c-5.746,3.39-12.159,7.655-17.06,4.961c-2.764-1.461-2.724-4.663-0.149-5.458
	c1.671-0.378,2.267,0.198,2.296,0.765c0.02,0.517-0.427,1.044-0.974,0.846H4.414c-0.159-0.14-0.347-0.259-0.566-0.319
	c-0.796-0.218-1.66,0.25-1.918,1.054c-0.189,0.577,0,1.154,0.418,1.521v0.01l0.02,0.02c0.06,0.04,0.119,0.06,0.179,0.1
	c3.032,1.849,6.362-0.974,5.945-3.838c-0.676-3.151-3.996-3.788-6.203-3.022c-3.907,1.004-4.772,5.111-3.56,8.024
	c0.557,1.332,1.362,2.256,2.903,2.972c2.127,0.974,4.106,1.193,6.065,1.074c5.587-0.338,10.489-4.285,14.794-6.591
	c6.382,5.458,15.619,7.705,24.029,6.084h0.009c0.05-0.01,0.1-0.01,0.16-0.029v-0.02c0.427-0.09,0.815-0.358,1.024-0.756
	c0.1-0.08,0.178-0.179,0.247-0.289C48.367,132.711,48.159,131.836,47.482,131.428z"/>
<path fill="#727171" d="M209.346,276.958c0.131,0.06,0.258,0.119,0.389,0.14c0.068,0.02,0.396,0.059,0.478,0.068
	c4.226,0.248,7.726-0.109,10.856,1.739c3.498,2.077,4.594,4.573,2.486,7.765c-1.593,2.416-6.554,0.985-6.504-1.681
	c0.03-1.81,1.163-2.464,2.088-2.366c0.934,0.16,1.6,1.005,0.965,1.95c-0.039,0.05-0.199,0.258-0.248,0.327
	c-0.408,0.666-0.189,1.551,0.486,1.959c0.605,0.367,1.361,0.199,1.819-0.319l0.021,0.011c2.207-2.416,0.338-6.57-2.773-6.789
	c-3.311-0.24-5.35,2.674-5.219,5.258c0.315,5.918,8.002,7.565,11.689,3.313c2.805-3.262,1.372-7.975-1.421-10.561
	c5.774,1.99,10.737,5.938,13.032,11.314c1.959,4.346,0.638,10.539-4.025,11.682c-4.971,1.424-9.314-3.488-5.051-7.275v-0.012
	c0.139-0.148,0.249-0.327,0.309-0.535c0.238-0.776-0.238-1.604-1.063-1.83c-0.607-0.178-1.224,0.02-1.601,0.458
	c-2.09,2.047-3.609,6.213-1.164,9.284c2.346,2.805,6.114,3.56,9.395,2.766c7.209-2.05,8.441-10.33,6.095-15.57
	c-0.974-2.228-2.286-4.214-3.866-5.955c5.746-3.391,12.158-7.653,17.061-4.961c2.765,1.451,2.724,4.664,0.148,5.469
	c-1.67,0.357-2.267-0.219-2.297-0.774c-0.029-0.519,0.428-1.054,0.975-0.835l0.011-0.011c0.159,0.139,0.349,0.249,0.565,0.308
	c0.806,0.23,1.662-0.238,1.92-1.043c0.188-0.576,0-1.162-0.418-1.521v-0.01l-0.028-0.011c-0.05-0.05-0.11-0.078-0.169-0.108
	c-3.032-1.857-6.354,0.965-5.938,3.838c0.666,3.15,3.986,3.789,6.194,3.013c3.906-1.004,4.782-5.091,3.56-8.013
	c-0.547-1.334-1.361-2.258-2.903-2.973c-2.128-0.975-4.105-1.205-6.054-1.085c-5.599,0.349-10.5,4.296-14.795,6.603
	c-6.383-5.469-15.627-7.704-24.027-6.084h-0.03c-0.041,0-0.101,0.02-0.149,0.02l0.012,0.02c-0.438,0.101-0.826,0.358-1.035,0.756
	c-0.1,0.091-0.18,0.18-0.249,0.299C208.461,275.665,208.671,276.539,209.346,276.958z"/>
<path fill="#727171" d="M47.9,276.958c-0.13,0.06-0.258,0.119-0.388,0.14c-0.08,0.02-0.397,0.059-0.488,0.068
	c-4.214,0.248-7.724-0.109-10.846,1.739c-3.499,2.077-4.603,4.573-2.486,7.765c1.581,2.416,6.552,0.985,6.502-1.681
	c-0.029-1.81-1.163-2.464-2.087-2.366c-0.945,0.16-1.601,1.005-0.965,1.95c0.039,0.05,0.199,0.258,0.238,0.327
	c0.418,0.666,0.2,1.551-0.477,1.959c-0.607,0.367-1.373,0.199-1.819-0.319l-0.02,0.011c-2.208-2.416-0.338-6.57,2.774-6.789
	c3.31-0.24,5.337,2.674,5.209,5.258c-0.308,5.918-7.994,7.565-11.682,3.313c-2.804-3.262-1.373-7.975,1.421-10.561
	c-5.776,1.99-10.737,5.938-13.033,11.314c-1.969,4.346-0.637,10.539,4.025,11.682c4.971,1.424,9.315-3.488,5.051-7.275v-0.012
	c-0.139-0.148-0.25-0.327-0.308-0.535c-0.239-0.776,0.239-1.604,1.054-1.83c0.605-0.178,1.221,0.02,1.601,0.458h0.009
	c2.078,2.047,3.6,6.213,1.165,9.284c-2.347,2.805-6.116,3.56-9.396,2.766c-7.208-2.05-8.441-10.33-6.095-15.57
	c0.964-2.228,2.286-4.214,3.867-5.955c-5.746-3.391-12.169-7.653-17.07-4.961c-2.764,1.451-2.714,4.664-0.14,5.469
	c1.66,0.357,2.256-0.219,2.287-0.774c0.03-0.519-0.427-1.054-0.974-0.835v-0.011c-0.16,0.139-0.348,0.249-0.567,0.308
	c-0.805,0.23-1.66-0.238-1.918-1.043c-0.19-0.576,0-1.162,0.417-1.521v-0.01l0.02-0.011c0.06-0.05,0.119-0.078,0.179-0.108
	c3.022-1.857,6.353,0.965,5.935,3.838c-0.666,3.15-3.986,3.789-6.193,3.013c-3.917-1.004-4.782-5.091-3.559-8.013
	c0.547-1.334,1.352-2.258,2.903-2.973c2.117-0.975,4.105-1.205,6.054-1.085c5.597,0.349,10.499,4.296,14.794,6.603
	c6.382-5.469,15.627-7.704,24.03-6.084h0.02c0.05,0,0.1,0.02,0.158,0.02l-0.009,0.02c0.436,0.101,0.824,0.358,1.033,0.756
	c0.091,0.091,0.18,0.18,0.249,0.299C48.774,275.665,48.566,276.539,47.9,276.958z"/>
<path fill="#727171" d="M241.299,291.193h-3.132c-0.039-0.159-0.069-0.299-0.108-0.457h3.16
	C241.249,290.896,241.279,291.034,241.299,291.193L241.299,291.193z M227.887,291.193L227.887,291.193h-1.312
	c0.198-0.1,0.427-0.139,0.655-0.139c0.141,0,0.289,0.021,0.429,0.059C227.748,291.134,227.816,291.152,227.887,291.193z"/>
<path fill="#727171" d="M210.41,265.285c-1.373,5.329-8.93,6.592-14.874,8.292c-0.03,0-0.089,0.03-0.149,0.039
	c-0.766,0.079-1.521,0.26-2.187,0.557c-0.427,0.181-0.835,0.378-1.224,0.586c4.037-3.667,7.766-7.685,11.146-11.97
	c-0.068,0.796,0.107,1.631,0.636,2.466c1.593,2.158,5.468,1.819,6.144-1.392c0.012-0.061,0.041-0.118,0.041-0.189l0.01-0.02h-0.01
	c0.02-0.518-0.239-1.032-0.726-1.272c-0.677-0.358-1.512-0.099-1.858,0.558c-0.101,0.199-0.142,0.398-0.149,0.597h-0.011
	c-0.428,1.022-2.645-0.277-0.219-1.929C209.078,260.434,211.176,262.512,210.41,265.285L210.41,265.285z M183.607,281.879
	L183.607,281.879c-0.041,0.048-0.051,0.119-0.08,0.169c-2.596,3.599-4.116,7.903-4.533,12.308c-0.746-0.705-1.602-1.271-2.485-1.629
	c-1.958-0.776-3.55-0.896-5.229-1.035c-0.141,0-0.955-0.068-1.094-0.08c-1.303-0.069-2.604-0.059-3.918,0
	c6.344-2.823,12.369-6.361,17.965-10.497c-0.157,0.198-0.316,0.378-0.467,0.586C183.695,281.77,183.627,281.85,183.607,281.879
	L183.607,281.879z M158.592,314.588L158.592,314.588c3.004,4.543-0.158,11.135-5.229,13.014c-5.1,2.228-11.543,0.129-13.44-5.24
	c-3.608-9.127,2.267-17.834,10.25-22.936c-1.571,3.042-1.938,6.721-0.519,9.833c-2.654,0.824-4.961,2.683-5.926,5.478
	c-1.539,3.104-0.467,8.113,3.688,9.367c3.29,0.912,8.422-1.254,7.685-5.938v-0.012l-0.027-0.107
	c-0.012-0.107-0.021-0.219-0.051-0.326h-0.01c-0.179-0.52-0.666-0.896-1.253-0.896c-0.745,0-1.333,0.596-1.333,1.33
	c0,0.16,0.03,0.301,0.08,0.438h-0.011c0.687,1.73-2.147,3.479-4.396,2.903c-2.047-0.596-2.99-3.42-1.889-5.768
	C147.926,310.66,156.048,309.795,158.592,314.588L158.592,314.588z M132.039,319.311L132.039,319.311
	c0.564-5.131,2.654-10.082,6.083-13.969c-2.962,0.924-6.033,1.471-9.126,1.471c-3.093,0-6.164-0.547-9.126-1.471
	c3.429,3.876,5.528,8.838,6.083,13.969c0.926-1.045,1.939-2.01,3.043-2.863C130.1,317.301,131.113,318.266,132.039,319.311
	L132.039,319.311z M129.185,337.314L129.185,337.314c-0.069,0.01-0.308,0.01-0.377,0c-4.097-0.807-5.687-6.254-4.286-10.312
	c0.866-2.704,2.447-5.069,4.475-7.028c2.026,1.959,3.608,4.324,4.474,7.028C134.871,331.061,133.281,336.509,129.185,337.314
	L129.185,337.314z M118.069,322.361L118.069,322.361c-1.898,5.369-8.35,7.467-13.451,5.238c-5.06-1.877-8.222-8.47-5.209-13.013
	c2.535-4.793,10.668-3.928,12.369,1.144c1.102,2.347,0.148,5.17-1.889,5.767c-2.238,0.575-5.082-1.173-4.394-2.903h-0.021
	c0.061-0.139,0.1-0.277,0.1-0.438c0-0.735-0.605-1.331-1.342-1.331c-0.586,0-1.074,0.377-1.251,0.896h-0.011
	c-0.029,0.108-0.039,0.219-0.059,0.327l-0.02,0.108l0.009,0.011c-0.746,4.683,4.385,6.851,7.675,5.937
	c4.156-1.254,5.229-6.264,3.698-9.367c-0.974-2.793-3.281-4.651-5.945-5.477c1.432-3.111,1.063-6.791-0.516-9.833
	C115.803,304.525,121.678,313.234,118.069,322.361L118.069,322.361z M87.807,291.611L87.807,291.611
	c-0.139,0.011-0.945,0.08-1.093,0.08c-1.681,0.139-3.272,0.258-5.231,1.033c-0.885,0.357-1.739,0.924-2.494,1.629
	c-0.408-4.402-1.928-8.707-4.524-12.307c-0.03-0.05-0.04-0.121-0.081-0.169c-0.02-0.03-0.089-0.11-0.158-0.181
	c-0.149-0.207-0.308-0.387-0.466-0.586c5.596,4.137,11.612,7.675,17.954,10.498C90.412,291.552,89.109,291.541,87.807,291.611
	L87.807,291.611z M62.604,273.616L62.604,273.616c-0.059-0.009-0.12-0.039-0.148-0.039c-5.945-1.7-13.492-2.964-14.874-8.292
	c-0.766-2.773,1.332-4.852,3.431-3.678c2.425,1.649,0.208,2.951-0.219,1.928h-0.02c0-0.197-0.05-0.396-0.141-0.598
	c-0.358-0.654-1.182-0.914-1.859-0.557c-0.486,0.24-0.746,0.756-0.725,1.271h-0.011l0.011,0.021c0,0.071,0.029,0.13,0.04,0.188
	c0.676,3.212,4.552,3.551,6.144,1.393c0.527-0.835,0.705-1.67,0.636-2.455c3.381,4.274,7.109,8.292,11.146,11.959
	c-0.399-0.208-0.796-0.404-1.212-0.586C64.125,273.876,63.379,273.695,62.604,273.616L62.604,273.616z M148.034,297.497
	L148.034,297.497c-6.203,1.272-12.575,1.878-19.038,1.709c-6.453,0.169-12.835-0.437-19.039-1.709
	c5.646,3.867,12.287,6.642,19.039,6.642C135.745,304.139,142.378,301.364,148.034,297.497L148.034,297.497z M128.996,119.17
	L128.996,119.17c-45.962-1.223-87.209,40.036-85.997,85.997c-1.223,45.961,40.035,87.222,85.997,85.997
	c45.96,1.225,87.209-40.036,85.997-85.997C216.205,159.206,174.956,117.947,128.996,119.17L128.996,119.17z M54.233,145.078
	L54.233,145.078c-1.592-2.157-5.468-1.819-6.144,1.392c-0.011,0.06-0.04,0.119-0.04,0.189l-0.011,0.02h0.011
	c-0.021,0.517,0.239,1.024,0.725,1.273c0.677,0.358,1.501,0.1,1.859-0.567c0.091-0.189,0.141-0.388,0.141-0.587l0.02,0.011
	c0.427-1.035,2.644,0.268,0.219,1.918c-2.099,1.173-4.197-0.915-3.431-3.678c1.382-5.329,8.929-6.602,14.874-8.292
	c0.028-0.01,0.089-0.03,0.139-0.04c0.775-0.079,1.531-0.258,2.208-0.556c0.417-0.179,0.813-0.378,1.212-0.586
	c-4.036,3.668-7.765,7.685-11.146,11.96C54.938,146.749,54.76,145.903,54.233,145.078L54.233,145.078z M74.384,128.446
	L74.384,128.446c0.041-0.04,0.05-0.109,0.081-0.169c2.596-3.589,4.116-7.895,4.524-12.298c0.755,0.706,1.609,1.273,2.494,1.631
	c1.958,0.766,3.55,0.895,5.231,1.034c0.148,0,0.955,0.069,1.093,0.079c1.302,0.06,2.605,0.06,3.906,0
	c-6.342,2.824-12.358,6.363-17.954,10.499c0.158-0.199,0.317-0.398,0.466-0.586C74.295,128.565,74.365,128.485,74.384,128.446
	L74.384,128.446z M99.409,95.747L99.409,95.747c-3.013-4.543,0.149-11.135,5.209-13.014c5.101-2.227,11.553-0.14,13.451,5.239
	c3.609,9.117-2.267,17.835-10.259,22.926c1.579-3.032,1.948-6.71,0.516-9.833c2.664-0.825,4.971-2.674,5.945-5.468
	c1.531-3.102,0.458-8.112-3.698-9.365c-3.29-0.925-8.421,1.253-7.675,5.925l-0.009,0.02l0.02,0.109
	c0.02,0.109,0.03,0.219,0.059,0.329h0.011c0.178,0.516,0.666,0.895,1.251,0.895c0.737,0,1.342-0.597,1.342-1.333
	c0-0.159-0.039-0.298-0.1-0.438l0.021-0.01c-0.688-1.72,2.156-3.47,4.394-2.903c2.037,0.596,2.991,3.43,1.889,5.776
	C110.077,99.674,101.944,100.539,99.409,95.747L99.409,95.747z M125.953,91.025L125.953,91.025
	c-0.556,5.129-2.655,10.081-6.083,13.968c2.962-0.925,6.034-1.472,9.126-1.472c3.092,0,6.164,0.547,9.126,1.472
	c-3.429-3.888-5.519-8.839-6.083-13.968c-0.926,1.043-1.939,2.008-3.043,2.863C127.892,93.033,126.879,92.068,125.953,91.025
	L125.953,91.025z M128.807,73.01L128.807,73.01c0.069,0,0.308,0,0.377,0c4.097,0.814,5.687,6.263,4.285,10.319
	c-0.865,2.704-2.445,5.07-4.474,7.029c-2.028-1.959-3.609-4.326-4.475-7.029C123.121,79.273,124.71,73.825,128.807,73.01
	L128.807,73.01z M148.034,112.837L148.034,112.837c-5.656-3.877-12.289-6.641-19.038-6.641c-6.751,0-13.382,2.764-19.039,6.641
	c6.203-1.283,12.586-1.879,19.039-1.71C135.459,110.958,141.831,111.554,148.034,112.837L148.034,112.837z M139.923,87.972
	L139.923,87.972c1.897-5.379,8.341-7.466,13.44-5.239c5.07,1.878,8.232,8.471,5.229,13.014c-2.544,4.792-10.666,3.927-12.377-1.143
	c-1.104-2.346-0.158-5.18,1.889-5.776c2.248-0.567,5.082,1.183,4.396,2.903l0.011,0.01c-0.05,0.139-0.08,0.279-0.08,0.438
	c0,0.736,0.588,1.333,1.334,1.333c0.586,0,1.073-0.378,1.252-0.895h0.02c0.02-0.11,0.029-0.219,0.041-0.329l0.027-0.109v-0.02
	c0.737-4.672-4.395-6.85-7.685-5.925c-4.155,1.253-5.229,6.264-3.688,9.365c0.965,2.793,3.271,4.643,5.926,5.468
	c-1.422,3.122-1.055,6.8,0.519,9.833C142.189,105.808,136.313,97.089,139.923,87.972L139.923,87.972z M170.186,118.722
	L170.186,118.722c0.139-0.01,0.953-0.079,1.094-0.079c1.681-0.139,3.271-0.268,5.229-1.034c0.886-0.358,1.739-0.925,2.485-1.631
	c0.417,4.404,1.938,8.709,4.533,12.298c0.029,0.06,0.039,0.129,0.08,0.169c0.02,0.04,0.088,0.12,0.158,0.189
	c0.148,0.188,0.309,0.387,0.467,0.577c-5.596-4.126-11.621-7.666-17.955-10.489C167.58,118.782,168.883,118.782,170.186,118.722
	L170.186,118.722z M195.396,136.717L195.396,136.717c0.051,0.01,0.108,0.03,0.14,0.04c5.944,1.69,13.501,2.963,14.874,8.292
	c0.766,2.764-1.332,4.852-3.432,3.678c-2.424-1.65-0.209-2.953,0.22-1.918l0.011-0.011c0.009,0.199,0.05,0.398,0.148,0.587
	c0.349,0.667,1.184,0.925,1.859,0.567c0.485-0.249,0.744-0.756,0.725-1.273h0.011l-0.011-0.02c0-0.07-0.028-0.129-0.039-0.189
	c-0.676-3.211-4.553-3.549-6.145-1.392c-0.527,0.825-0.705,1.681-0.636,2.456c-3.37-4.275-7.108-8.292-11.146-11.97
	c0.388,0.218,0.795,0.417,1.223,0.597C193.866,136.459,194.621,136.638,195.396,136.717L195.396,136.717z M205.945,259.041
	L205.945,259.041c11.096-15.566,17.607-34.328,17.09-53.874c0.52-19.546-5.994-38.306-17.1-53.875
	c2.974,1.611,5.976-0.447,7.078-3.082c0.518-1.233,0.616-2.366,0.119-3.857c-0.676-2.028-1.77-3.48-3.042-4.692
	c-2.506-2.366-5.905-3.4-9.116-4.246c1.521-0.964,2.664-2.445,2.934-4.423c0.716-5.389-5.409-9.873-9.862-6.323
	c-1.958,1.57-2.754,4.901-0.457,7.138c2.156,2.108,6.343,0.796,6.671-2.355h-0.021c0.092-0.667-0.276-1.313-0.932-1.521
	c-0.728-0.219-1.504,0.179-1.721,0.914c-0.021,0.06-0.07,0.319-0.08,0.378c-0.27,1.064-1.304,1.133-2.02,0.557
	c-0.676-0.606-0.913-1.849,0.369-3.022c1.889-1.749,6.082,0.925,5.367,3.619c-0.955,3.559-3.449,4.375-7.188,3.172
	c-3.331-1.063-5.317-3.828-8.202-6.711c-0.02-0.02-0.078-0.079-0.139-0.119c-3.021-4.215-4.514-9.604-4.105-14.823l-0.011-0.01
	c0-0.079-0.029-0.169-0.029-0.258c0.367-1.631,0.147-3.341-0.944-4.852c-3.092-4.295-10.42-3.37-11.193,2.128
	c-0.338,2.415,1.332,5.308,4.453,5.358c2.923,0.041,5.012-3.688,3.143-6.134l-0.029,0.011c-0.369-0.527-1.056-0.736-1.662-0.448
	c-0.666,0.329-0.934,1.133-0.615,1.789c0.029,0.07,0.18,0.279,0.199,0.329c0.537,0.945-0.158,1.67-1.055,1.74
	c-0.885,0.03-1.879-0.686-1.771-2.386c0.17-2.486,4.933-3.42,6.233-1.035c0.627,1.173,0.854,2.218,0.727,3.152
	c-0.051,0.119-0.11,0.229-0.119,0.368v0.029l0,0v0.04c-0.396,1.382-1.611,2.535-3.578,3.47c-1.512,0.735-3.072,0.895-4.732,0.974
	c-1.819,0.08-3.809-0.06-5.787-0.238l0,0c-1.957-0.179-3.907-0.557-5.815-1.093c-0.169-0.269-0.408-0.477-0.705-0.577
	c-5.528-1.511-8.222-7.108-6.063-12.408c0.039-0.089,0.039-0.199,0.039-0.298c3.391,0.2,6.84-1.183,8.588-4.384
	c4.009-6.273-0.196-14.604-6.461-16.911c-6.113-2.843-14.623,0-16.95,6.701c-1.49,3.857-1.601,7.576-0.726,11.025
	c-1.293-2.774-2.078-5.806-2.178-8.857h-0.011c-0.009-0.359-0.158-0.687-0.397-0.925c0.774-1.262,1.432-2.635,1.909-4.105
	c1.67-4.892,0.05-12.428-6.353-13.701c-0.229-0.039-0.458-0.079-0.696-0.079c-0.228,0-0.467,0.04-0.696,0.079
	c-6.402,1.273-8.014,8.809-6.353,13.701c0.488,1.471,1.134,2.843,1.909,4.105c-0.239,0.229-0.388,0.566-0.397,0.925h-0.011
	c-0.109,3.051-0.885,6.083-2.178,8.857c0.876-3.45,0.766-7.168-0.725-11.025c-2.327-6.701-10.837-9.544-16.952-6.701
	c-6.263,2.307-10.478,10.637-6.463,16.911c1.75,3.201,5.201,4.584,8.591,4.384c0.011,0.1,0,0.209,0.039,0.298
	c2.158,5.299-0.536,10.896-6.064,12.408c-0.289,0.1-0.536,0.308-0.705,0.577c-1.909,0.537-3.858,0.914-5.817,1.093l0,0
	c-1.978,0.179-3.967,0.318-5.787,0.238c-1.659-0.079-3.221-0.238-4.741-0.974c-1.958-0.935-3.173-2.088-3.57-3.47v-0.04h-0.011
	l0.011-0.029c-0.011-0.139-0.069-0.258-0.119-0.368c-0.13-0.945,0.1-1.979,0.727-3.152c1.292-2.386,6.064-1.451,6.233,1.035
	c0.109,1.7-0.885,2.416-1.77,2.386c-0.885-0.07-1.592-0.795-1.054-1.74c0.02-0.05,0.169-0.259,0.2-0.329
	c0.317-0.656,0.05-1.46-0.607-1.789c-0.616-0.289-1.301-0.079-1.681,0.448l-0.02-0.011c-1.87,2.446,0.208,6.175,3.151,6.134
	c3.123-0.05,4.782-2.943,4.444-5.358c-0.774-5.498-8.103-6.423-11.204-2.128c-1.083,1.511-1.302,3.221-0.935,4.852
	c-0.009,0.089-0.029,0.179-0.029,0.258l-0.011,0.01c0.408,5.22-1.084,10.608-4.105,14.823c-0.061,0.04-0.119,0.1-0.139,0.119
	c-2.885,2.884-4.872,5.648-8.203,6.711c-3.739,1.203-6.233,0.387-7.188-3.172c-0.726-2.694,3.479-5.368,5.368-3.619
	c1.282,1.173,1.043,2.416,0.369,3.022c-0.716,0.577-1.75,0.507-2.019-0.557c-0.009-0.06-0.059-0.318-0.08-0.378
	c-0.217-0.735-0.994-1.133-1.72-0.914c-0.655,0.208-1.024,0.854-0.924,1.521h-0.03c0.33,3.151,4.514,4.463,6.671,2.355
	c2.297-2.236,1.492-5.567-0.458-7.138c-4.463-3.549-10.578,0.935-9.862,6.323c0.269,1.978,1.422,3.459,2.943,4.423
	c-3.221,0.846-6.622,1.879-9.126,4.246c-1.282,1.212-2.357,2.665-3.043,4.692c-0.497,1.491-0.397,2.624,0.12,3.857
	c1.104,2.635,4.105,4.692,7.068,3.082c-11.094,15.569-17.607,34.33-17.089,53.875c-0.518,19.546,5.995,38.308,17.089,53.865
	c-2.963-1.601-5.964,0.458-7.068,3.091c-0.517,1.234-0.616,2.365-0.12,3.857c0.686,2.028,1.761,3.479,3.043,4.684
	c2.505,2.365,5.906,3.409,9.126,4.244c-1.521,0.975-2.674,2.455-2.943,4.436c-0.716,5.389,5.398,9.872,9.862,6.322
	c1.95-1.57,2.754-4.9,0.458-7.139c-2.158-2.098-6.342-0.795-6.671,2.355h0.03c-0.1,0.666,0.269,1.313,0.924,1.521
	c0.726,0.218,1.502-0.189,1.72-0.914c0.021-0.069,0.071-0.319,0.08-0.379c0.269-1.072,1.303-1.133,2.019-0.557
	c0.675,0.596,0.914,1.84-0.369,3.021c-1.889,1.751-6.094-0.924-5.368-3.617c0.955-3.561,3.449-4.375,7.188-3.171
	c3.331,1.063,5.318,3.825,8.203,6.71c0.02,0.02,0.078,0.068,0.139,0.119c3.021,4.215,4.513,9.604,4.105,14.822l0.011,0.011
	c0,0.079,0.02,0.157,0.029,0.25c-0.367,1.64-0.159,3.349,0.935,4.86c3.102,4.293,10.43,3.369,11.204-2.129
	c0.338-2.425-1.321-5.31-4.444-5.359c-2.943-0.038-5.021,3.689-3.151,6.137l0.02-0.012c0.379,0.527,1.065,0.736,1.681,0.447
	c0.657-0.328,0.924-1.133,0.607-1.799c-0.03-0.061-0.18-0.269-0.2-0.328c-0.538-0.934,0.169-1.671,1.054-1.729
	c0.885-0.03,1.878,0.676,1.77,2.375c-0.169,2.495-4.94,3.431-6.233,1.045c-0.627-1.173-0.856-2.22-0.727-3.151
	c0.05-0.119,0.108-0.229,0.119-0.367l-0.011-0.031h0.011v-0.051c0.397-1.381,1.611-2.523,3.57-3.467
	c1.521-0.728,3.082-0.886,4.741-0.966c1.82-0.08,3.809,0.06,5.787,0.238v-0.011c1.958,0.188,3.908,0.558,5.817,1.095
	c0.169,0.278,0.417,0.485,0.705,0.586c5.528,1.512,8.222,7.108,6.064,12.397c-0.039,0.1-0.028,0.198-0.039,0.308
	c-3.39-0.197-6.841,1.185-8.591,4.375c-4.015,6.282,0.2,14.614,6.463,16.921c6.114,2.833,14.625,0,16.952-6.699
	c1.49-3.857,1.601-7.587,0.725-11.037c1.292,2.784,2.069,5.807,2.178,8.868h0.011c0.009,0.358,0.158,0.696,0.397,0.927
	c-0.774,1.262-1.421,2.633-1.909,4.104c-1.661,4.881-0.05,12.428,6.353,13.698c0.229,0.041,0.468,0.08,0.696,0.08
	c0.238,0,0.466-0.039,0.696-0.08c6.403-1.271,8.023-8.817,6.353-13.698c-0.478-1.472-1.135-2.843-1.909-4.116
	c0.239-0.219,0.389-0.557,0.397-0.915h0.011c0.1-3.063,0.885-6.084,2.178-8.856c-0.875,3.438-0.766,7.168,0.726,11.025
	c2.327,6.699,10.837,9.532,16.95,6.699c6.265-2.307,10.47-10.639,6.461-16.921c-1.748-3.19-5.197-4.572-8.588-4.375
	c0-0.108,0-0.208-0.039-0.308c-2.157-5.299,0.535-10.887,6.063-12.397c0.297-0.101,0.536-0.308,0.705-0.586
	c1.908-0.537,3.858-0.906,5.815-1.095v0.011c1.979-0.181,3.968-0.318,5.787-0.238c1.66,0.08,3.222,0.238,4.732,0.966
	c1.967,0.942,3.182,2.098,3.578,3.479v0.04l0,0v0.03c0.009,0.139,0.068,0.237,0.119,0.356c0.129,0.935-0.1,1.989-0.727,3.162
	c-1.302,2.386-6.063,1.451-6.233-1.045c-0.108-1.699,0.886-2.405,1.771-2.375c0.896,0.059,1.592,0.796,1.055,1.729
	c-0.021,0.061-0.17,0.269-0.199,0.328c-0.317,0.666-0.051,1.471,0.615,1.799c0.606,0.289,1.293,0.08,1.662-0.447l0.029,0.012
	c1.869-2.446-0.22-6.175-3.143-6.137c-3.121,0.051-4.791,2.936-4.453,5.359c0.773,5.498,8.104,6.422,11.193,2.129
	c1.094-1.513,1.313-3.222,0.944-4.86c0-0.093,0.029-0.171,0.029-0.25l0.011-0.011c-0.408-5.219,1.084-10.607,4.105-14.822
	c0.061-0.051,0.119-0.1,0.139-0.119c2.885-2.884,4.871-5.646,8.202-6.71c3.739-1.204,6.233-0.39,7.188,3.171
	c0.715,2.693-3.479,5.368-5.367,3.617c-1.282-1.182-1.045-2.426-0.369-3.021c0.716-0.576,1.75-0.517,2.02,0.557
	c0.01,0.06,0.059,0.31,0.08,0.379c0.217,0.725,0.993,1.132,1.721,0.915c0.654-0.21,1.022-0.856,0.932-1.522h0.021
	c-0.328-3.15-4.515-4.453-6.671-2.355c-2.297,2.236-1.501,5.568,0.457,7.139c4.453,3.55,10.578-0.936,9.862-6.322
	c-0.27-1.979-1.412-3.461-2.934-4.436c3.211-0.835,6.61-1.878,9.116-4.244c1.272-1.203,2.366-2.654,3.042-4.684
	c0.497-1.491,0.396-2.623-0.119-3.857C211.911,259.49,208.909,257.432,205.945,259.041z"/>
<path fill="#727171" d="M128.996,290.221c46.984,0,85.313-38.207,85.313-85.054c0-46.846-38.326-85.053-85.313-85.053
	s-85.312,38.207-85.312,85.053C43.685,252.014,82.01,290.221,128.996,290.221z"/>
</svg>
