<?xml version="1.0" encoding="utf-8"?>
<!-- Generator: Adobe Illustrator 16.0.0, SVG Export Plug-In . SVG Version: 6.00 Build 0)  -->
<!DOCTYPE svg PUBLIC "-//W3C//DTD SVG 1.1//EN" "http://www.w3.org/Graphics/SVG/1.1/DTD/svg11.dtd">
<svg version="1.1" id="图层_1" xmlns="http://www.w3.org/2000/svg" xmlns:xlink="http://www.w3.org/1999/xlink" x="0px" y="0px"
	 width="260px" height="400px" viewBox="0 0 260 400" enable-background="new 0 0 260 400" xml:space="preserve">
<metadata><?xpacket begin="﻿" id="W5M0MpCehiHzreSzNTczkc9d"?>
<x:xmpmeta xmlns:x="adobe:ns:meta/" x:xmptk="Adobe XMP Core 5.3-c011 66.145661, 2012/02/06-14:56:27        ">
   <rdf:RDF xmlns:rdf="http://www.w3.org/1999/02/22-rdf-syntax-ns#">
      <rdf:Description rdf:about=""
            xmlns:dc="http://purl.org/dc/elements/1.1/">
         <dc:format>image/svg+xml</dc:format>
         <dc:title>
            <rdf:Alt>
               <rdf:li xml:lang="x-default">打印</rdf:li>
            </rdf:Alt>
         </dc:title>
      </rdf:Description>
      <rdf:Description rdf:about=""
            xmlns:xmp="http://ns.adobe.com/xap/1.0/"
            xmlns:xmpGImg="http://ns.adobe.com/xap/1.0/g/img/">
         <xmp:MetadataDate>2014-11-18T22:57:15+08:00</xmp:MetadataDate>
         <xmp:ModifyDate>2014-11-18T22:57:15+08:00</xmp:ModifyDate>
         <xmp:CreateDate>2014-11-18T22:57:14+08:00</xmp:CreateDate>
         <xmp:CreatorTool>Adobe Illustrator CS6 (Windows)</xmp:CreatorTool>
         <xmp:Thumbnails>
            <rdf:Alt>
               <rdf:li rdf:parseType="Resource">
                  <xmpGImg:width>116</xmpGImg:width>
                  <xmpGImg:height>256</xmpGImg:height>
                  <xmpGImg:format>JPEG</xmpGImg:format>
                  <xmpGImg:image>/9j/4AAQSkZJRgABAgEASABIAAD/7QAsUGhvdG9zaG9wIDMuMAA4QklNA+0AAAAAABAASAAAAAEA&#xA;AQBIAAAAAQAB/+4ADkFkb2JlAGTAAAAAAf/bAIQABgQEBAUEBgUFBgkGBQYJCwgGBggLDAoKCwoK&#xA;DBAMDAwMDAwQDA4PEA8ODBMTFBQTExwbGxscHx8fHx8fHx8fHwEHBwcNDA0YEBAYGhURFRofHx8f&#xA;Hx8fHx8fHx8fHx8fHx8fHx8fHx8fHx8fHx8fHx8fHx8fHx8fHx8fHx8fHx8f/8AAEQgBAAB0AwER&#xA;AAIRAQMRAf/EAaIAAAAHAQEBAQEAAAAAAAAAAAQFAwIGAQAHCAkKCwEAAgIDAQEBAQEAAAAAAAAA&#xA;AQACAwQFBgcICQoLEAACAQMDAgQCBgcDBAIGAnMBAgMRBAAFIRIxQVEGE2EicYEUMpGhBxWxQiPB&#xA;UtHhMxZi8CRygvElQzRTkqKyY3PCNUQnk6OzNhdUZHTD0uIIJoMJChgZhJRFRqS0VtNVKBry4/PE&#xA;1OT0ZXWFlaW1xdXl9WZ2hpamtsbW5vY3R1dnd4eXp7fH1+f3OEhYaHiImKi4yNjo+Ck5SVlpeYmZ&#xA;qbnJ2en5KjpKWmp6ipqqusra6voRAAICAQIDBQUEBQYECAMDbQEAAhEDBCESMUEFURNhIgZxgZEy&#xA;obHwFMHR4SNCFVJicvEzJDRDghaSUyWiY7LCB3PSNeJEgxdUkwgJChgZJjZFGidkdFU38qOzwygp&#xA;0+PzhJSktMTU5PRldYWVpbXF1eX1RlZmdoaWprbG1ub2R1dnd4eXp7fH1+f3OEhYaHiImKi4yNjo&#xA;+DlJWWl5iZmpucnZ6fkqOkpaanqKmqq6ytrq+v/aAAwDAQACEQMRAD8A9U4q7FXYq7FXYqk/mvy8&#xA;mvaS1nyENwrCS1uvi5QyCo5rwKmtCR1xV3lTy7+gNJFi1097MZHlnupRRndzuTux7dycVTjFXYq7&#xA;FXYq7FXYq7FXYq7FXYq7FXYqoX+oWOn2r3V9OltbR/bllYKorsNz44ql2q+adN0/TbPUSfVtb2a3&#xA;ijcEIAtwRSRudCFVTyOKpXd/mZ5as5rwXEjLa2jRxrdrSRJ5JVLcYeBbmEA+M9sVT7Rtc0nWrIXu&#xA;mXKXNuTQstQVb+VlNGU+xGKsJi038wx5tktLy9uU8tPdSTwTW/CRmjZuSQvJX1o1A2J/28VeiYq7&#xA;FXYq7FXYq7FXYq7FVkxlELmEAy8T6YbpyptX2rirET5n8xeX/KT6t5ps1ku47gI8NoQOMMjABieT&#xA;qSKnuOw98VSvzT5bi8zC31Wxeeax1G2FzJbO7R25MChoi3FWKu6uV/j4qpZrtp9Z1by55htrq2td&#xA;LvY7EXekXEyIWClXoqycUcpFIKE7jqOoxVS/MW10XVodP1XS+D2upsVlbg6GSSGVFWREojlyjOvT&#xA;4hTwXFU38i6TJaWt3p+p2NvoR1dZbfTrOMVu3jVGLu8pZ3bird6fIbYqhdA8/wBr5d8t3n6V1Vtc&#xA;ube6MMCASrcAlTRJfWUEAcCeVW8N8VTqb81tDGlW15BBK9xdXJshayUjMcy8S/qsagKocbiv66Ks&#xA;2xV2KuxV2KuxV2KuxV5h5u82Lq140Og6sdK1vQZroTwTh1SaKEkScWUSI/8AdcgjDf6MVW6bonnD&#xA;URqd5b61bevqly8bWt9A7vHbwOwaH0pl4r/eDmvpkdPixVW1LX18taBr2mN9aknh5W9pcLG72S+s&#xA;P3SRsoKwtGkgrGTT4duuKt+T/IUi6lb3VzaGwsbPjc21rMkFzJJJLU/FMyc4zGEWqDptRq1xVrQ3&#xA;tJvN5GqolrbaStxLY2LsGjW6kmo0lv3ZWVOSpvxYmnTZVAW+vXd35ntdevLOeT0LiW30q5mC2yJa&#xA;ysI3kuI/ib936tFYLRi25BFMVRXm7QNK+vya/ok9hPMt3bRyaeVWeOS7lleJmm4tswMlR8mqMVTT&#xA;UfL9nFdz6fNqxuNR1OxuY2jduVxLNKnxSrGSIoUVEp8IWo2J2GKoXypb+dJLHy3b2F7HDocECvfS&#xA;uUkmmCyMSiBlYiOlFQgjbFXoU9xDBbyXErcYYkMjv1AVRUnb2xVCaFrum65pseoadL6tvJtuKMrD&#xA;qrDsR3xVH4q7FXYqlE/mawj119BSrar9V+twRMeCSbsOAff4vhqdunyOKvMLJvLV75g8wX97ot/p&#xA;l7DFO1ynqK0TNcI0TBiyKsLuX5Kxeld602xVF69N5tu5/LD3ljPaanaXA9O6s2ikt7r1inI+orhY&#xA;3ZFOzbGp3piqI8x6ldBLU6mlhA0uo2uoX1nGUS6FusyJHHNG7cy4Q1Z6ce23dVkVr+YlimlW83mC&#xA;OTSbu/M31e14SFxGhIUluNFYjxp49MVeT+Yr2/05bJNWtYbm5e3dBFMvpFoWdZoLk/VnX94SWHIO&#xA;ehB74qraJ598x30txp7XMVpPqCE3WtUcXKJCDKTzDbKqKygKBSu2+Ks0sZvL2uzWcsfl26WfU7pX&#xA;vr5fXtoucUbOt3G0bcG+JjQ1qK79RVVj8dhDrWqT31vqxe+mhaPUdQdkjit7RR9XjDSHb17lYx4U&#xA;DHbFWQ+UYtJ8o+ULnUriCfSr6/lNsZbusyo4RjAwaNF/cnryCnfucVVPLeqah5M8nRr5wSRreW+a&#xA;zgXaZo4WRjVhX4o+UbUpXY7bYqy3yvdeVwbzSvL6RxxadIFulhUqgletRyP2mHChP0YqnuKuxVjm&#xA;h+fdB1m3vZbVn9TT1MlzAF5uE3oyemWD7L+zXFWKxeePLGtecLLULW6WyW1iMTXU8KKW5SAmOR2r&#xA;xRkqEaoo3zoyqvdPqVnrvmKbT70apd6xbctOtbdopWgS3SnqOrsFAR5KKoryqdsVQWrS+YrnTrWf&#xA;U9EvTeW8trpyyeuP3gLhmvI0j4vHPzjWjbgV774qi/PHlfVIdKaZtS/Sdw4FnardWdo8wE1VI+s0&#xA;iZFCliW7dcVYvLo3mXSp7jSLmKy1TV9WiSS9MLSz3y20LqzbTcYeiUCjr74qkX5j6vfa3qaak5jk&#xA;sEH1W1lQBW+BQzrJHUsjcmOzfiMVSXR9Vhs9ca9jt7dIHE6C3ufWkgSOeN4yjemTKw4PxHfFWaXP&#xA;5jpc6HYeVtIRtNtGjW1u7tQ08hB2KwIOLnlXqdzWmKpncflbqtpBb6Tp8n16wl/3IXRu4xFC0kVE&#xA;ER9MeurlJDxHqDv7nFU+l832H+F9Hg8taP8ApGLUGaCO0eNjHB6RX1PUT4qgM/8ANTvXFUs1DWHj&#xA;vtZ0B7uJfLkUsMEup6oTdelKYh6kUKPXm5f4v5UoTQCmKp75duNL0TzTPpX10u2rRR3kMlwkCSXM&#xA;spYl42gSP4aKdpKGv2euKs4xV2KsY1K/8peTbiO5ktVsxq87LPdxIKCSgNZKbhTTttXenU4qxHzD&#xA;cajPqOsmSxg0zypp7qbm5a2YLeSrKi8ZeBR5V5k7Iabb4qjfMt35O0O/0uXRYodO1hik1nJHAYra&#xA;4hkHExyyqvHi6t9rfiaE4qluq6vquqfo7S7q4itdXe/nkjkmpHcWyVWS3ROQ4MTvxdfhYLx5fFiq&#xA;ZXK6VrC3eu6k+sWn6Pltw1hcwFkEcEiPVIVVg3qFDyblt32piqKEJ1bzpLqWkMLG/W1hEM97ayH1&#xA;LcO6zPGjPGVNSqfEoNOnWuKvPfOvljUns7/Wb2S3/S1reOupW0DozehKw9Cd0Q/D8T8dwKjietcV&#xA;X6B5Snj0601bSPqWqTKLefUI5x6kluryElRCSV4hV+NyK9eNKHFWY69rflvUdP0PVruwSDTJlvZQ&#xA;rwt64WP/AEaJg8at6SEyh670PEitMVas/Lsf+I9PefzvKdTaCITWUcoLyMEHIKxanFuoVo6nriqv&#xA;+nNFs9f1nVItPHrRw8tKcKqtNcI7WskSiNiTzlZaBhXqad8VSPR9LmTSr++vL6dv0I88urQz2sVx&#xA;bTXhcs/ooxXmyMCrOWBrShUDFU3s9O8zapr2i317pVvqWn28cM1nrwla2uODASK0ih/feMxn/W74&#xA;q9LxV2KsI/MTSFu7iwuJ7+IWiV9TR7kApdGOrcYST8MzKxUEb7+2Kql5ceadUtLuZrK0m0F9Mklg&#xA;tUY3DXU7xlkj5fA/HemwU16Yqh5NSm81W9toX6Jm0+O7sDPcXLAKbYiQxeihZPhLemwrSvH9nFUD&#xA;caxp81i9j5j8tOdL0iMWzyqVuPSljFNrmsIA9PjuKHkadcVSy68165YeXnezFwNAvoTDbXlxMktx&#xA;YmUcYnd4S0oXevFlLDsx6Yq1b6+vl27tNG068TUdRh0x/Rvipmje4vLlJwrcWU8AlW5Fthvv0xV1&#xA;9qYh0TzFDrFmWnmjuo4NZtYZntGnk+KaAOyggfWI9mIp2r8NSqx3yPNqFxp8kL+XrrWVEZtrS8jK&#xA;qkEfJnKqJI3iLcnY8mqRirNta1uZra0/SOiajbXGmxtIthHLDcJc29Ajx3CKxYxtxHJjGQMVYxq3&#xA;nDQL6O/GmadFb60RFFpN3pqO04jBUvVikXE+mClRv2xVFWmrMn1rzdqJj1HzNE6QWHl/4o2tQ7cV&#xA;LQsquzfGacR3rWp2VZB5v8z+ZZobDQNKjjt9bvUiN+snCMASx82EXqOduQdWr8Xh1xVPNNub++81&#xA;uLLV7JvL+nxhE0y0dJJi/ALWWg+BVYmlG7DbFW/KN952utR1JfMFotpawOVsuHH4+Z5dRXmEWgDC&#xA;netT0VZTirDvP8PlfWdPuNMv2kuL3T+N0LK0ZVu+NPiaJXBDjgxJ2P34qxzStPvPMGkXmo6FqU1r&#xA;fRzn0rG2kazY0dgDeIG4FpI+MhZV68uvZVLr3zVHoUiK2t3l7runUIikk+uWc8zx8ZYzwERXiW4j&#xA;4iR1pirpvzCtNYi1C21rTL6906+9GRbWEUNv6IUsg+FdmdSeYfcdlxVDXllPfRBI9FutO0C6lhuf&#xA;37OUuJHcKjzzKKQxJHJ0Ht8wqx5tOtfLXn9LPUrP61aRsvq2KD1+S3EVRGnKnqFTJRTtUiu2Ks/1&#xA;rXL+xsdU05NG/R2h3+jz3UPNWWVJpECOJN2AblIoK9a4qlnkW00e48teX1uPrMeqSX9wmn3No3F4&#xA;/stIXrUFPhFdjirIbHUdE8v6reanqLyTTy3c+nJqM7lzFawqsgRjuSPV+CtK1pU7Yqxa01yDRvMd&#xA;xqenSJb6hqN1xm0VZBLbSoyIWjFwgCLL6rFkb7NGFSNxiqM0rTNbk00aLLc2+nh59ru+04JK8zFB&#xA;FFSeivI6cvsKwAQfFvirJLDzZb6ezabHoU062M0yX97axRLAv1Y/37cAsasyqW4dR064qgobv8vL&#xA;HTn87WVnFb6rJC89vZesUkLVKf3KtxHI/aIX3xVnei6rBq2k2mpQArFdxLKqnqvIbqfkdsVRuKvN&#xA;fMNxd2/nVJrnTYX1KJfU07UbNbiaaO0DFHae2R057OR9+xGKpN5q06KSyjmtLSewtpJpIbfVJoxB&#xA;e3l1cCSSKNqBHWDl1eQVO3Tc4qnl5Z6b5VhsL+wQW93HbR20enzQCa6dI7kepJGEf4Wl9X4zvtSn&#xA;SmKqmtTP5k1+00T0ootYsbeWW/kSWQx2pkKKrK6hPVPByeDACpFTSoxVRu5LB49O0LTdSl1jR7qW&#xA;OG/ZpA5hiV0hggLRG2VUk4uDUl2p+10KrBvzU8vQaJr8Nzp80klrIAo5StK0E0VD6PMkutI2QqCa&#xA;0xVM/N+saimiGM21xaRastu1tYXE73gmjR2leZpXkff93HUADZt64qnv5f8AnLQ9G0fTNMuLa5ij&#xA;vZblrO+9NWh4eu4+J+XOo4jl8O22Ku0FJZLRNZ0e0N/dyaxczalcER+pHbeqxMISVkb95GwZfBjU&#xA;064qrav5w8q3VndTzeX4plMzGy+tLGklxOYwPUWJh6hViipyWvviqCu/Mmhw61beZ9ftbuyuoEjS&#xA;Cz+qShLgpEf3gacKoZZHPpkGoUb/AGsVWL5ymvNUvb0ztJDewvFa6Lpr8rmSVaJGrsiluJVi3qIV&#xA;odgT3VQflby682pzR3qXFpqEln9TuNNiVDMyRwChkkmXhFFIIwqla77Fx3Ver+XbO5stEs7S5AWW&#xA;CP0woCiiKSEB4UXkEpy47V6YqmOKoDXItak02ZdFlgg1JhSKW5VmQf8AA9/DY/LFWC29vfalPqVp&#xA;5rmku59CghaeezjkXjO1Z42tvTIVpFUryrFvtsAKsqlsd1Df38V/5muL61tHijisdXid7Ro+LH91&#xA;eRIWWJpNm5dG6g02CqMvNdntLa/1aw8xKbS4nHo6dduiyhreSrmF09VnWYRcFATcOD23VSVr3z1q&#xA;l8vnS0s49O02AK1vBNxcSAkrsiKkkxrIxU0B3+E4qlc3l7zJry3l1IYlh1DUZUSO3V3EtxGrSO8a&#xA;TuOACxkdeZ+zQ4qkttafo1ze6jOfrFhI9rPbyKkskTBGRYxE7Ubk3Kh+yoWpDV44qyrQvOXlS68n&#xA;22har9dSW0umlisrQc3ugXaRUd+NDVpPiHw79MVRVnbXHmrzbcte6i+gR6vGpOk2cjPcXEUSleUx&#xA;QGNPhU15ivbj3Kqld6FpWg+aYVtJ7meKW6jWYXH7m7Wa2BlQQ3EqKksb03G1fh+LpirILaXzdros&#xA;NPvtTgsktpimoh42hnvACrL6cMsaEfC3FunxeO2KqGlP5msvOtsClnFcX8kn13TYSA6WCFFhk4Fi&#xA;qEEs1FNT1IPZVMtW0qbXfNN7p8d5cWOpacLa6t9SjiAjEZMvCEgMC28hqajlSlPh3VZ6K03698Vd&#xA;irsVdQb+/XFXn+ueT9WtRrsulRnUbjzHcwh45H9NLeGMFjJyLL8Sufhp02xVJbTQLmDV9YMEP6W1&#xA;fTLUWcyBUjLtd8RbvFIyrwMcIYyP1J7muyqca5ofmC8tdNZmmS40m6RGSJf9DeO2X1EuxCXB5Doo&#xA;DbtsduiqW3emwS6JHrOhnlodykSpPLJL9bgkNzHG/wBWREKpI0i1Mh5Hl7dVUg80eUdFttf199Vv&#xA;rqVIIYZIbuWSL1DLNDIVDjivqEvEFCoBsak7Yqmf5N+WdJ1TS9R1HVbOG75SpbQ+tGjBREgJ41Gz&#xA;HmKmu+Kpkvl/Uo72VtHsdR03S6B7mENHHdoUl3S0m5S80cEu0Ranga7FVH3kml6reajpWuHUI7fz&#xA;BLFFp6yRSxwxrbqChjMqK0btJ9oMtCfEblVGQflX5fEcX1qe6ubqGVZ4btpSsqusccexXb/dIPti&#xA;qcDynYf4s/xKzM12LYWyRn7IIJq+3cqeOKp3QVrTc7E/LFXYq7FXYq7FXYqtWKNXZ1QB3pzYAAtT&#xA;YVPemKrsVWQwQQR+nDGsUdWbggCirksxoO5YknFXzz+b92lx57vVTcW6QxE+4jDH7i1MVZR+Xvl5&#xA;fMv5c3Gmrdy2UsGotKkkTEVZYkZOYHVeRr8xXFXr8KGOJELFyihSxrU0FK7kn8cVXYq7FXYq7FXY&#xA;q7FXYq7FXYq7FXYqlfmPzHpfl/TXvtQmWNQCIYyfikelQigAnf5bdcVfMGqahcalqV1qFwazXUrz&#xA;SeFXJNB7DFL0b8j9aNlrE+kXB4x6nEJrWvQyQlgafNeX/A4oe24q7FXYq7FXYq7FXYq7FXYq7FXY&#xA;q7FWHeZvyw0fzDcSXd7eXhuihWFjIGjjJ6cYytAK9gRX8cVSew/IryzCK3l3dXTeClIk+4Bm/wCG&#xA;xVFwfkv5XtryG8s7u/tp4HEkTRyxHiymoPxxN0xVn2KuxV2KuxV2KuxV2KuxV2KuxV2KuxV2KuxV&#xA;2KuxV2KuxV2KuxV2KuxV2KuxV2KuxV2KuxV2KuxV2KuxV2KuxV2KuxV2KuxV2KuxV2KuxV2KuxV2&#xA;KuxV2KuxV2KuxV2KuxV2KuxV2KuxV2KuxV2KuxV2KuxV2KuxV2KuxV2KuxV2KuxV2KuxV2KuxV2K&#xA;uxV2KuxV2KuxV2KuxV2KuxV2KuxV2KuxV2KuxV2KuxV2KuxV2KuxV2KuxV2KuxV2KuxV2KuxV2Ku&#xA;xV2KuxV2KuxV2KuxV2KuxV2KuxV2KuxV2KuxV2KuxV2KuxV2KuxV2KuxV2KuxV2KuxV2KuxV2Kux&#xA;V2KuxV2KuxV2KuxV2KuxV2KuxV2KuxV2KuxV2KuxV2KuxV2KuxV2KuxV2KuxV2KuxV2KuxV2KuxV&#xA;2KuxV2KuxV2KuxV2KuxV2KuxV2KuxV2KuxV2KuxV2KuxV2KuxV2KuxV2KuxV2KuxV2KuxV2KuxV2&#xA;KuxV2KuxV2KuxV2KuxV2KuxV2KuxV2KuxV2KuxV2KuxV2KuxV2KuxV2KuxV2KuxV2KuxV2KuxV2K&#xA;uxV2KuxV2KuxV2KuxV2KuxV2KuxV2KuxV2KuxV2KuxV2KuxV2KuxV2KuxV2KuxV2KuxV2KuxV2Ku&#xA;xV2KuxV2KuxV/9k=</xmpGImg:image>
               </rdf:li>
            </rdf:Alt>
         </xmp:Thumbnails>
      </rdf:Description>
      <rdf:Description rdf:about=""
            xmlns:xmpMM="http://ns.adobe.com/xap/1.0/mm/"
            xmlns:stRef="http://ns.adobe.com/xap/1.0/sType/ResourceRef#"
            xmlns:stEvt="http://ns.adobe.com/xap/1.0/sType/ResourceEvent#">
         <xmpMM:InstanceID>xmp.iid:A0B6100F196FE41195E3D1493AEF96AB</xmpMM:InstanceID>
         <xmpMM:DocumentID>xmp.did:A0B6100F196FE41195E3D1493AEF96AB</xmpMM:DocumentID>
         <xmpMM:OriginalDocumentID>uuid:5D20892493BFDB11914A8590D31508C8</xmpMM:OriginalDocumentID>
         <xmpMM:RenditionClass>proof:pdf</xmpMM:RenditionClass>
         <xmpMM:DerivedFrom rdf:parseType="Resource">
            <stRef:instanceID>xmp.iid:9FB6100F196FE41195E3D1493AEF96AB</stRef:instanceID>
            <stRef:documentID>xmp.did:9FB6100F196FE41195E3D1493AEF96AB</stRef:documentID>
            <stRef:originalDocumentID>uuid:5D20892493BFDB11914A8590D31508C8</stRef:originalDocumentID>
            <stRef:renditionClass>proof:pdf</stRef:renditionClass>
         </xmpMM:DerivedFrom>
         <xmpMM:History>
            <rdf:Seq>
               <rdf:li rdf:parseType="Resource">
                  <stEvt:action>saved</stEvt:action>
                  <stEvt:instanceID>xmp.iid:9FB6100F196FE41195E3D1493AEF96AB</stEvt:instanceID>
                  <stEvt:when>2014-11-18T22:56:30+08:00</stEvt:when>
                  <stEvt:softwareAgent>Adobe Illustrator CS6 (Windows)</stEvt:softwareAgent>
                  <stEvt:changed>/</stEvt:changed>
               </rdf:li>
               <rdf:li rdf:parseType="Resource">
                  <stEvt:action>saved</stEvt:action>
                  <stEvt:instanceID>xmp.iid:A0B6100F196FE41195E3D1493AEF96AB</stEvt:instanceID>
                  <stEvt:when>2014-11-18T22:57:15+08:00</stEvt:when>
                  <stEvt:softwareAgent>Adobe Illustrator CS6 (Windows)</stEvt:softwareAgent>
                  <stEvt:changed>/</stEvt:changed>
               </rdf:li>
            </rdf:Seq>
         </xmpMM:History>
      </rdf:Description>
      <rdf:Description rdf:about=""
            xmlns:illustrator="http://ns.adobe.com/illustrator/1.0/">
         <illustrator:StartupProfile>Print</illustrator:StartupProfile>
      </rdf:Description>
      <rdf:Description rdf:about=""
            xmlns:xmpTPg="http://ns.adobe.com/xap/1.0/t/pg/"
            xmlns:stDim="http://ns.adobe.com/xap/1.0/sType/Dimensions#"
            xmlns:xmpG="http://ns.adobe.com/xap/1.0/g/">
         <xmpTPg:HasVisibleOverprint>False</xmpTPg:HasVisibleOverprint>
         <xmpTPg:HasVisibleTransparency>False</xmpTPg:HasVisibleTransparency>
         <xmpTPg:NPages>1</xmpTPg:NPages>
         <xmpTPg:MaxPageSize rdf:parseType="Resource">
            <stDim:w>260.000000</stDim:w>
            <stDim:h>400.000000</stDim:h>
            <stDim:unit>Pixels</stDim:unit>
         </xmpTPg:MaxPageSize>
         <xmpTPg:PlateNames>
            <rdf:Seq>
               <rdf:li>Cyan</rdf:li>
               <rdf:li>Magenta</rdf:li>
               <rdf:li>Yellow</rdf:li>
               <rdf:li>Black</rdf:li>
            </rdf:Seq>
         </xmpTPg:PlateNames>
         <xmpTPg:SwatchGroups>
            <rdf:Seq>
               <rdf:li rdf:parseType="Resource">
                  <xmpG:groupName>默认色板组</xmpG:groupName>
                  <xmpG:groupType>0</xmpG:groupType>
               </rdf:li>
            </rdf:Seq>
         </xmpTPg:SwatchGroups>
      </rdf:Description>
      <rdf:Description rdf:about=""
            xmlns:pdf="http://ns.adobe.com/pdf/1.3/">
         <pdf:Producer>Adobe PDF library 10.01</pdf:Producer>
      </rdf:Description>
   </rdf:RDF>
</x:xmpmeta>
                                                                                                    
                                                                                                    
                                                                                                    
                                                                                                    
                                                                                                    
                                                                                                    
                                                                                                    
                                                                                                    
                                                                                                    
                                                                                                    
                                                                                                    
                                                                                                    
                                                                                                    
                                                                                                    
                                                                                                    
                                                                                                    
                                                                                                    
                                                                                                    
                                                                                                    
                                                                                                    
                           
<?xpacket end="w"?>
	</metadata>
<g>
	<path fill="#727171" d="M7.003,172.322c0.658,0.104,1.965-1.125,3.664,4.237c-1.917-0.659-0.983,0.038-2.318-1.403
		C7.337,174.068,7.185,172.552,7.003,172.322L7.003,172.322z M150.835,296.73L150.835,296.73c1.688,0.133,0.906,1.26,1.401,2.278
		c0.658-1.077,0.916,1.326,0.324-1.649l-2.375-3.578c2.461,1.393,1.098,2.014,4.638,2.986l-2.624-1.945
		c3.635-1.957,2.488-2.223-2.311-5.953c-1.992,1.592-0.629,1.26-1.755,2.27l-2.231,1.26l0.981,1.853
		C149.23,299.717,149.938,295.279,150.835,296.73L150.835,296.73z M246.277,208.672L246.277,208.672
		c0.656,0.438,0.353,0.42,1.449,0.668c1.278,0.277,0.84,0.172,2.156,0.096c0.075,2.947,0.803,2.584,1.307,2.977l2.004-1.784
		c2.156-1.765,1.841-1.001,2.813-3.711c-0.878-1.756-0.916-0.496-1.868-2.44l1.897-1.433c0.104-0.076,0.257-0.21,0.362-0.286
		c0.104-0.096,0.295-0.238,0.381-0.306c0.097-0.076,0.268-0.2,0.4-0.306c-2.424,0.152-3.254,1.203-4.617,4.504
		c-0.83-1.202-0.677,0.533-0.486-1.316c0.152-1.557,0.066-0.688,0.813-1.241c-0.068-0.047-0.229-0.114-0.248-0.036
		c-0.02,0.075-0.211-0.029-0.24-0.029l-0.744-0.258c-1.287-0.992,1.175-0.457-1.641-1.584c-2.271,1.154-1.383,0.592-2.822,4.313
		C246.373,208.605,247.098,205.686,246.277,208.672L246.277,208.672z M122.127,273.928L122.127,273.928l-16.83-87.17l0.506-0.535
		l-0.897-0.21c0.679-4.97,0.22-3.024-0.485-4.475c-2.1-4.284,1.965-7.413,5.724-9.216c-0.391,3.196,0.897,5.496,0.257,7.995
		c-0.582,2.232-1.812,2.023-3.233,3.225c-0.945,0.801-0.201-0.401-0.936,1.125l1.889,1.927c3.1-1.336,3.712-4.541,8.147-0.763
		c-4.665,4.188-5.304,1.126-10.465,0.391l-0.506,0.535c0.354,5.066,3.244,3.167,3.484,11.381c0.132,4.904-0.746,8.053-2.205,12.288
		c1.823,1.03,7.309,4.284,2.328,7.251c-0.048-0.096-0.019-0.286-0.019-0.344c-0.01-1.728,0.372-1.659-0.219-2.633
		c-0.391-0.648-1.365-1.431-1.937-1.47c-4.379,0.877,1.154,8.377,1.774,20.646c1.031-1.717,1.708-3.319,4.504-1.908
		c1.898,0.974,1.735,2.291,2.928,4.505c3.101-0.496,8.053-1.89,10.122,0.733c2.776,3.521-2.261,8.442-3.845,3.664l0.592,0.104
		c0.104,0.019,0.505,0.133,0.648,0.151c1.221,0.077,0.182,0.868,1.336-0.247c1.325-1.26,0.715-1.908,0.362-3.32
		c-4.313-0.754-7.957-0.162-10.581,2.51c-3.492,3.55-3.654,4.093-1.012,8.435c3.054,5.026,3.616,2.146,3.436,7.756
		c-0.144,4.103,1.087,6.927,5.313,7.681c-2.604-6.248-5.21-5.974-4.389-9.988c7.537-1.088,8.32-0.85,12.001-14.902
		c2.167-8.244,3.073-15.551,3.007-24.109c-1.908-0.935-5.467-2.852-7.842-3.186c-3.196-0.449-5.286,1.611-4.675,4.799
		c1.25,0,1.898-0.803,2.786-0.268c-0.725,1.975,1.135,0.849-1.555,1.66c-1.49,0.447-3.417-0.688-2.968-3.932
		c0.411-2.957,2.138-3.683,3.684-4.809l0.648-0.534c-1.402-2.538-5.38-8.167-2.518-12.441c3.559-5.324,11.257,3.95,4.111,3.568
		c2.643-2.566,1.135-2.462,1.03-2.585c-7.689-4.284-5.313,12.173,7.405,13.979l-1.052-12.31c-1.25-8.491-11.831-20.53-16.608-24.194
		l-4.809-2.719c-0.067-0.029-0.229-0.085-0.295-0.124c-11.878-4.846-20.254,5.896-15.389,6.201c2.585,0.162,0.667-0.935,1.145-1.86
		c0.744,0.734,1.766,1.555,0.715,3.348c-0.963,1.66-1.746,0.19-3.005,0.982c3.177,1.193,2.356,3.616,1.039,6.364
		c-4.732-5.534-1.937-3.206-1.85-7.537c0.009-0.152-2.928-10.017,5.133-10.113c-6.688-2.862-20.836,0.84-24.061-9.369
		c-0.753-2.385,0.191-1.555-1.87-2.805c-2.938-1.793-13.347-6.287-13.214,0.401c0.038,1.832,1.431,0.936,1.517,0.936
		c0.449-0.058,1.174-2.09,1.527,1.087c-1.918,1.326-2.405,0.896-4.284,0.362c-1.002-5.467,1.278-6.783,4.245-9.14
		c-7.709-12.307-1.26-15.57,2.614-14.196c2.061,0.734,3.587,4.293-0.124,4.98c-0.925-2.509,0.287,2.69,0.315-1.584
		c0.009-1.412,1.011-0.553-0.754-1.593c-6.172-3.625-6.621,14.778,12.126,15.351c-0.963-5.848-7.823,3.349-4.694-14.244
		c1.202,0.868,0.688,0.524,1.661,1.479c6.745,6.583,5.342,2.881,3.854,10.905c2.614,2.29,4.122-0.849,5.447,3.501
		c-0.916,1.593,0.105,0.516-1.154,1.107c-1.173,0.553-0.029,0.248-1.517,0.19c0.009,0,2.729-1.431,0.163-2.48
		c-3.588-1.451-6.832,4.856-1.432,8.319c4.905,3.12,12.766,2.375,19.234,2.843c-6.697-9.473-3.645-9.445-5.61-14.291
		c-0.734-0.153-1.612-0.325-2.976-0.268c0.2,4.427,0.715,0.22,1.728,3.177l-1.946,0.286c-1.136-1.898-1.117-1.775-0.659-4.341
		c2.997-1.068,3.148,0.21,3.578-1.507l1.269-9.254c-3.835-0.944-8.863-1.64-7.881,3.148c0.125,0.02,0.296-0.066,0.363-0.076
		c0.048-0.01,0.276-0.058,0.343-0.077c0.067-0.01,0.258-0.058,0.324-0.058c1.403-0.171,0.916-0.381,1.336,0.802
		c-0.993,0.84-1.346,0.982-3.187,0.801c-1.231-3.473-0.591-4.522,1.517-6.974c-1.498-1.871-5.59-5.391-3.53-9.588
		c1.394-2.232,4.952-1.946,4.856,0.754c-0.086,2.471-0.086,1.116-1.106,1.622c-0.362-1.107,0.439-0.22,0.229-2.243
		c-7.699,0.172-1.431,9.312,7.432,9.484c1.65-7.309,7.108-17.593,1.708-22.754c-3.12-0.314-5.267,1.088-4.904,4.208
		c3.177,0.496-0.133-1.555,2.233-0.219c-0.983,1.479-0.936,1.86-2.815,1.431c-3.234-6.726,8.663-10.656,10.065-2.509
		c1.03,5.982-2.242,13.7-3.254,19.176c2.271-2.432,3.148-4.779,8.673-3.959c3.32,5.124-0.859,6.498-2.146,3.425
		c0.514-0.105,2.518,1.87,1.726-1.927c-4.207-0.763-8.663,6.926-9.645,11.61c-0.554,7.175,1.154,14.549,4.704,19.071
		c1.478-1.86,0.915-3.721,3.091-4.694c1.927-0.859,4.149-0.296,6.42,0c-5.228,8.739-6.535,3.358-9.321,5.724
		c2.481,1.04,7.775,1.699,10.981,2.901c1.222-1.222,0.42-1.622,1.756-3.483c3.024-0.143,4.97,1.518,3.835,4.188
		c-3.263-1.078-0.295,0.287-1.336-1.717c-0.782-1.526,0.506-0.668-1.325-1.441c-1.708,2.547-0.573,0.468-0.649,1.975
		c-0.229,4.732,9.226,6.983,14.616,13.223c-0.029-1.87-1.584-8.032-3.014-9.951c-0.401,1.364-0.964,2.682-1.584,3.559
		c-1.68-2.118-5.658-1.469-1.87-9.292l2.947,2.309c-1.421-2.996,1.975-15.732-8.214-12.413c0.573,1.555,0.276,0.649,1.049,1.708
		l1.031,1.201l-2.51,0.287c0.286,3.301,0.772,4.827-3.31,5.19l0.343-4.427l2.47-0.553c-0.362-4.179-0.725-6.087,4.36-5.286
		c4.026,0.63,2.814,2.509,5.8,4.389l-0.123-3.358c-2.157-11.887-0.811-14.253-1.451-21.695c-0.353-4.227-12.144-11.296-5.208-14.654
		c1.965,0.877,2.395,0.82,2.155,3.186c-0.744,0.229,0.086,0.382-1.344-0.019c-1.231-0.343-0.363,0.516-0.535-0.458
		c-0.487-2.652,0.43,0.505,0.993-1.489c-2.452,0.182-0.726-0.61-2.147,0.783c0.411,1.928,1.412,3.502,2.539,5.094
		c1.229,1.736,2.06,3.549,4.188,4.16c4.102-5.314,3.53-28.239-10.801-25.025c0.746,3.835-0.075,1.06,1.146,1.746
		c0.534,0.296,1.001-0.019,0.505-0.286c-0.286,1.278,0.019,0.993-1.383,1.565l-1.737-1.545c-2.585-1.89-1.488,0.019-3.53-2.319
		c1.26-1.164,1.164-1.021,3.34-1.097c-3.177-3.167-1.432-3.893,0.411-6.907c2.299,5.343,1.822,3.063,0.362,7.785
		c4.55-1.583,5.877,0.219,7.737-0.4c1.431-4.15-2.613-4.656,5.676-6.402c-3.186,9.445,0.544,3.616-5.313,6.956
		c2.853,2.461,5.352,3.759,6.84,7.918c1.165,3.292,0.659,9.922,2.022,11.716c1.451-1.479,1.184-0.916,2.253-3.215
		c-0.478-1.135-0.153-0.41-0.669-0.963c-0.553-0.592-0.344,0.744-0.678-0.544c-0.047-0.201-0.258-0.152-0.381-0.248
		c1.183-1.441,0.953-0.325,1.115-2.337c-3.636-2.595-2.242-3.053-1.26-6.449c-1.688-1.871-2.376-1.231-2.928-4.494
		c-3.263,0.029-1.728,1.307-3.053-0.773c0.161-0.086,0.362-0.172,0.504-0.21c4.418-1.354-2.222-0.572,3.148-0.362
		c0.811-7.537,9.702-4.828,17.03,2.824c-4.877-0.152-6.879,2.729-12.498,3.816c1.24,1.459,1.859,2.146,0.906,4.541
		c-1.871,4.704-0.896,0.344-0.268,4.227c0.602,3.74-3.196,6.23-4.646,8.348c-3.302,4.846-1.879,16.724,0.238,21.847
		c5.886,0.077,8.483-3.511,11.917-6.201c1.563-1.231,5.981-3.759,4.771-6.22c-0.669-1.374-0.333-0.458-1.526-0.325l-0.763,0.096
		c-0.021,0-0.478-0.076-1.375,0.058c-1.363,4.922-4.36,3.721-8.806,2.442c2.576-1.498,2.634-3.969,5.267-4.197
		c2.834-0.248,1.336,0.896,3.702,0.601c3.501-0.449-1.107-0.945,4.111-0.973c1.135,1.688,0.819,1.44,1.373,3.729
		c4.715-0.667,2.424-0.858,5.323,1.928l-2.909,0.667c-0.916-0.954-1.564-1.784-2.414-2.595c-1.394,1.699-3.072,4.198-4.513,5.286
		c-2.585,1.938-3.883,1.909-5.333,4.675c4.704-0.134,5.99-0.801,9.827,0.782l-0.104,1.984c3.748-0.906-1.06-5.991,5.914-6.936
		c-1.326,5.849,4.322,5.925,0.144,8.214c-2.7-1.279-0.382-0.115-0.362-2.385c-2.623,0.343-2.986,0.515-3.586,3.11l-1.729,15.57
		c4.293-2.757,7.186-0.839,9.406,3.053c-3.529,0.381-3.156,0.877-6.896,0.058c-0.487-1.05-0.728-2.119-1.241-3.129
		c-1.201,1.269-1.031,2.633-0.048,4.531c2.537,4.875,20.481-6.23,23.767-15.541c4.865-13.833-6.766-12.117-9.789-12.469
		c-0.097-0.01-0.258-0.048-0.363-0.067l-1.229,0.039c-3.54,0.171-5.057-0.478-6.259-5.896l6.268,1.164
		c1.842,1.106-0.275,3.015,3.568,4.58c1.393-2.52,2.882-8.32,2.309-11.792c-0.313-1.927-1.679-3.606-3.92-3.396
		c-2.797,0.268-1.146,1.107-1.146,1.135c0.144,2.93-0.125-2.261,0.19,0.678c0.199,1.813,0.715,0.343-0.162,1.545
		c-5.371-2.366,0.324-7.155,5.238-4.217l2.088,2.022c0.049-0.095,0.191,0.21,0.287,0.306c13.031-14.463,18.889,3.759,9.139,1.526
		c1.271-4.064-0.687-0.573,2.613-0.878c2.291-8.214-5.886-3.415-8.013-1.583c-3.396,2.91-4.418,8.739-3.854,13.223
		c2.861,1.965,4.875,1.985,5.85,6.03c1.135,4.751-0.362,6.01-1.088,9.712c5.523-3.225,7.775-6.363,11.668-12.317
		c0.781-1.202,11.792-15.188,1.841-11.076c1.185-2.003,1.595-1.87,4.008-2.49c-0.907-2.281-0.2-0.534-2.079-1.765
		c-3.568-2.328-1.213-4.79-1.461-9.903c-1.841,0.687-1.115,0.726-3.129,1.574l-3.206,1.479c0.744-3.816,0.306-1.135-0.153-3.807
		c-0.256-1.479,0.174-2.557,0.918-3.577c1.631-2.214,4.789-2.977,6.813-3.759c-0.734,1.803-1.003,4.846-1.337,7.938
		c8.901,4.694,5.888,7.794,4.397,10.713c0.765,2.31-0.467-1.469,0.182,1.002c1.191,4.562,2.021,1.298-0.344,8.749
		c3.379-0.639,4.666,0.01,7.813-1.164c-0.553,2.546-1.87,5.638-3.653,6.754c-3.808,2.376-2.117-0.811-6.976,0.496
		c0.545-2.824,1.192-0.363,0.746-2.776c-2.625,5.476-12.251,14.807-11.507,19.443c2.892,0.506,4.466,0.306,6.563-1.345
		c-1.029-1.917-0.771-0.659-2.146-2.347l2.719-1.879c3.606-2.08,7.117,1.002,8.435,3.339c-2.93,0.382-2.892,1.011-5.219,1.583
		c-5.238,1.26-0.879,0.153-4.514,1.718l1.898,0.553c2.785,0.954,2.107,1.374,5.16,2.681c-7.354,4.532-6.066,0.42-9.263-0.696
		l0.667-0.668c0.096-0.076,0.382-0.333,0.479-0.42c0.42-0.362,0.85-0.706,1.115-0.906c-2.242,0.162-11.535,2.146-13.91,2.9
		c-5.647,1.765-6.631,4.103-10.398,5.963c5.486,2.404-0.391-5.248,11-1.871l1.279,0.439c0.064-0.124,0.275,0.077,0.399,0.153
		c-0.688,0.725-1.125,1.316-1.946,2.042l-2.395,2.051c2.213,1.708,3.663,3.215,5.467,5.123l1.221-0.458
		c2.138-1.116,2.472-3.74,6.897-2.804c1.632,0.343,2.565,1.221,4.008,1.946c1.765,0.897,2.193,0.706,3.71,1.278
		c-1.937,1.584-4.406,3.816-7.632,4.188c-7.136,0.849-3.091-3.101-7.519-3.339c-0.705,0.896-0.066-0.124-0.534,1.24
		c-0.161,0.448-0.209,0.83-0.372,1.365c-0.764,2.442-2.546,4.989-5.18,3.558c2.223-0.944,1.765-0.687,3.281-1.879
		c0.229-4.561-2.328-7.346-5.41-8.529c0.238,2.48-0.113,4.789-0.324,6.659c-0.266,2.338-2.002,3.111-3.118,4.169
		c-0.868-5.295-0.313-4.666,2.995-6.44c-1.174-6.64-9.512-6.249-15.579-4.006c-6.813,2.519-11.19,7.527-13.576,8.968l1.526,10.856
		l1.115,3.32c1.279-2.061,4.569-4.693,2.071-7.651c-3.292,0.096-1.099,0.267-1.604,0.725c-3.225,2.843,2.586-0.429-1.086,0.983
		l0.285-2.681c4.379-1.106,4.245,1.24,5.646,3.826c2.635-0.306,6.212-1.717,8.357,0.525c1.821,1.908,0.975,5.057-2.643,4.703
		l-0.486-1.641l2.768,0.323l-0.354-2.662c-5.486-1.851-10,1.651-11.334,5.857c4.273,2.376,11.285,0.897,16.485,1.813
		c4.874,0.857,9.845,4.444,13.565,0.523c-0.926-0.85,0.285-0.286-1.66-0.563h-0.812c-0.086,0-0.296,0-0.372,0l-0.687-0.021
		c0.84-2.203,2.175-1.879,4.427-0.937c1.202,4.143-3.549,4.17,0.84,4.99c4.665,0.868,13.708-2.051,18.116-5.848
		c16.603-14.272,0.621-17.25,1.632-9.789c2.719-1.317-0.725-0.801,2.139-2.023c0.428,2.347,0.074,3.797-2.814,3.358
		c-1.288-1.66-1.279-4.102,0.334-5.486c1.309-1.135,3.328-1.03,4.922-1.717c-1.766-4.322-2.079-7.385,0.048-10.819
		c2.872-0.524,5.286-1.164,5.896,2.356c-0.161,0.162-0.17,1.297-2.785,0.859c1.201-3.101-0.161,1.517,1.688-1.813
		c-9.492-3.511-1.076,11.391-1.097,13.948c-0.028,2.118-1.239,3.825-1.461,5.571c0.556-1.154,1.871-1.975,2.825-3.025
		c4.197-4.607,4.15-8.223,6.152-11.209c1.26-3.988,7.396-16.114,5.334-19.958c-2.194-4.103-4.39,0.458-4.39,0.468l-0.905-2.338
		c5.818-2.786,8.203-0.544,8.463,6.526c3.442-1.87,8.004-5.877,13.289-6.068c3.178-0.124,6.135,1.145,6.801,3.416
		c1.175,4.045-2.508,4.713-2.174,5.61c1.67,2.624,0.039,0.668,3.435,1.297c5.592,1.021,2.223,6.335,5.162,8.376
		c-11.62,1.165-8.653-7.117-9.007-8.376c-0.371-1.355,0.076-0.525-1.869-2.013l-0.764-0.611c6.362-0.439,3.873-5.285,0.104-5.657
		c-6.964-0.678-18.099,10.342-19.872,18.604c1.938-1.527,4.713-4.751,8.596-2.682c2.156,1.154,5.268,6.249,8.024,2.738
		c-0.802-1.66-0.011-0.439-1.222-0.992l-1.25-0.181c1.145-1.917,1.183-1.574,3.806-0.696l-0.533,4.016
		c-4.142,1.059-5.428-0.448-8.155-2.032l-1.231,3.101l-2.653-0.353c0.497-1.622,3.196-1.537,1.813-3.454
		c-2.299-1.44-2.719-0.362-4.846,0.688c-2.814,2.738-3.217,3.587-5.468,6.688c-4.293,5.934-10.18,14.882-17,18.222l1.716,1.05
		c2.997,1.401,6.471,2.967,10.01,3.932c0.477-5.658-3.979-8.357,6.791-10.791c-0.934,2.891-0.15,6.049-1.238,7.805
		c-0.631,1.021-1.25,1.105-2.471,1.555l-2.662,1.221c-0.059-0.104-0.211,0.105-0.344,0.229c4.245,1.136,8.596,1.374,12.394-0.64
		c0.372-5.495-1.386-2.434-2.776-3.016c0.667-2.613,0.98-1.803,3.768-1.201l0.707,3.205c1.688-0.371,5.666-1.067,5.181,1.965
		c-0.438,2.69,0.229,0.555-0.953,1.336c-0.468-1.564,0.657-0.152-0.458-2.346c-5.143-0.363-9.254,6.135-24.271,0.457
		c-0.944,4.561-6.219,5.78-7.099,0.974c1.938,1.546,3.816,2.575,4.541-1.164c-3.3-3.101-11.181,0.649-15.378,1.47
		c0.926,1.717,8.615,9.168,10.657,10.914c6.782,5.82,13.508-0.545,8.698-3.77c-2.879,1.06,0.25-0.123-1.639,1.918
		c-1.433-1.621-1.013-2.909,1.314-2.909c2.623-0.011,1.805,1.612,4.227-0.935c3.215-3.388,4.789-0.982,8.586,0.409
		c-0.104,0.144-0.267,0.295-0.361,0.382c-6.383,5.952-5.495,2.022-9.809,1.545c2.49,7.09-5.828,9.521-11.494,6.221
		c-4.218-2.471-8.482-8.09-11.269-9.529c1.88,5.686-2.29,10.17-7.146,7.632c0.41-2.548,1.145-3.426,3.289-2.548
		c-0.942,0.544-1.145,0.373-1.22,1.277l2.644,0.068c1.191-3.234-0.754-8.367-2.672-10.447c-7.918-8.559-24.185-4.847-33.306-2.644
		c0.285,13.338-0.43,25.654-0.888,38.705c-0.21,5.867-0.678,13.776,6.324,13.729c4.724-0.019,11.543-4.703,13.453-6.592
		c1.201-2.396-1.899-9.8-5.916-10.019c0.896,3.416,0.734-0.229,1.631,2.748l-2.317-0.146c-1.106-4.568,1.813-2.947,2.271-4.205
		c0.076-0.211,0.324-0.115,0.467-0.211c-1.449-11.143,4.934-20.646,0.496-27.457c-3.264-0.344-3.578,0.02-4.11,2.689
		c-0.124-0.133-0.259-0.324-0.345-0.41s-0.248-0.285-0.354-0.391c-2.461-2.356-5.59,1.135-7.308-6.469
		c7.633,1.487,4.493-0.707,7.317,4.693c6.153-3.529,4.017-1.202,8.262,0.696c0.592-3.453-0.905-7.224,6.088-7.232
		c-0.869,1.929-0.508,3.599-1.508,5.183c-1.441,2.309-2.338,0.695-4.484,2.461c-0.247,1.908,0.096,5.496-0.172,8.1
		c-0.258,2.586-0.887,4.838-1.098,7.26c1.612-1.41,7.441-7.106,7.947-0.209c-1.24,0.945,0.295,0.506-2.156,0.658
		c-0.571-1.326,0.735-0.572,0.345-2.613c-3.158,0.409-3.32,1.975-4.771,4.531c-3.894,6.926-0.183,12.65,5.018,16.781
		c6.879-1.488,8.615-3.367,6.869-9.359c-1.766,0.791-0.782,0.496-1.783,1.326c-3.227,2.662,1.906-0.354-0.678,0.658
		c-1.192-1.736-1.736-2.195,0.457-3.043c1.688-0.658,2.996,0.172,3.605,1.326c1.795,3.34-0.771,5.914-1.593,8.014
		c4.903-0.869,10.801-4.693,16.381-6.201c9.778-2.613,4.142-0.459,9.606-7.365c0.517-0.647,0.754-0.85,1.317-1.584
		c0.075-0.096,0.19-0.248,0.257-0.334l0.706-1.078c-3.053-1.603-3.272-0.533-3.139-5.352c3.481,1.955,3.032,0.62,3.959,5.182
		c2.929,0.267,4.761,1.889,2.022,4.045c-1.106-0.19-1.822,0-1.422-1.278c0.668-2.156-0.477,0.305,0.811-0.859l0.888-0.532
		c-2.594,0.189-3.491,1.049-4.778,3.032c-0.563,0.878-2.052,3.599-2.232,4.886c5.877,1.27,23.679-1.946,18.699-15.228
		c-3.551,0.754-0.897,0.248-1.946,1.756c-1.488-0.974-0.812,0.324-0.992-2.043c5.114-3.873,5.677,3.588,4.865,8.302
		c3.685,1.287,4.731,3.416,2.205,7.116c-0.525-2.881-1.154-1.049-2.187-3.015c-1.354-2.52-0.066-1.487-0.02-4.104
		c-1.555,5.705-4.932,4.934-7.899,8.053c5.763,7.65,21.952-4.141,19.291-10.494c-3.024,0.335-0.323,1.354-2.909,1.394l-0.037-2.71
		c3.328-0.172,4.539-0.4,5.047,2.614c0.429,2.612-0.449,4.121-1.395,5.705c5.133-1.642,8.586-5.64,14.539-6.793l2.577-0.841
		c-0.792-3.032-4.151-1.239-3.358-6.982c0.361-2.614,2.176-4.713,3.053-6.525c0.297,0.479,3.76,6.821,3.854,7.309
		c0.857,4.732-3.377,4.197-2.374,6.803c0.562,1.459,4.749,3.063,1.955,7.471c-1.489,2.365-6.707,2.957-4.017-0.803
		c1.555,2.271-2.101,1.289,2.117,1.613c3.711-5.047-0.765-7.824-6.229-5.352c-1.918,0.877-7.67,4.635-8.604,5.924
		c1.506,1.936,4.228,4.502,7.289,2.166c-0.307-1.795-0.049-0.345-0.744-1.316c-2.032-2.807,0.543,1.736-0.649-0.688
		c4.245-1.604,4.151,3.893-2.155,4.979c1.24,7.229-2.49,11.274-5.248,8.396c-1.898-1.984,0.115-2.689,0.764-3.08
		c0.603,0.981-1.125,1.869,1.461,2.604c4.388-2.471,1.238-9.617-1.938-10.971c-2.899-1.24-7.946,2.957-12.126,3.969l-0.047,4.121
		c0.372-0.287,0.754-0.324,0.152,0.934c-3.252,6.727,3.006,7.652,5.248,9.008c-0.145-11.354-1.984-6.182-4.828-9.713
		c-1.459,0.83-1.059,0.133-0.602-0.219l-3.931-0.049l-0.124-1.813c3.367-0.238-0.545,2.69,3.033,0.362
		c-0.868-3.933-5.256-1.299-9.598-1.881c-4.713-0.629-6.162-2.067-9.599-3.271c-5.343-1.89-15.073,2.938-17.944,5.744
		c0.648,3.186,4.416,5.647,7.088,7.422c2.48,1.641,5.811,5.36,8.91,3.358l-0.553-0.897c-0.027-0.058-0.115-0.22-0.152-0.285
		l-1.261-1.471c-4.655-1.906-3.69-0.4-4.282-7.089c4.244,1.604,4.418,2.015,5.781,6.277c0.047,0.135,0.096,0.297,0.143,0.409
		c1.078,2.482,2.434,1.775,1.24,4.666c-6.066,2.08-9.225-4.034-13.355-5.198c0.496,1.879,1.336,5.989,3.091,6.621
		c0.104,0.036,0.324,0.114,0.448,0.172c0.135,0.037,0.314,0.096,0.458,0.144c4.771,1.555,4.274,3.786,4.149,8.797
		c-4.492-2.09-7.23-2.978-6.162-8.615c-0.086,0.027-1.994,0.619-2.232,0.648c-1.766,0.172-0.516,0.305-1.965-0.354l0.506-2.709
		c4.006,0.143-0.975,0.944,1.82,1.211c0.152-3.738-3.48-6.851-5.484-8.472c-6.813-5.496-14.482,2.166-20.313,5.554
		c-2.756,1.602-7.613,3.327-9.645,4.885c2.557,0.181,5.628,1.164,7.459,0.522c-0.104-1.438-1.258,0.029-1.982-1.534
		c1.517-1.052,0.392-0.668,2.784-0.611c0.707,1.718,0.183,1.031,0.325,2.195c0.171,1.315-0.382,0.36,0.344,1.336
		c0.285,0.381,2.348,1.448,3.148,2.021c3.931,2.795,7.346,7.365,11.543,9.562c5.009,2.612,5.057-0.431,3.931-3.933
		c-1.039,0.517-0.782,0.937-1.383,1.621l0.229-2.346c2.93,0.953,3.683,2.527,2.537,6.086c-6.029,3.188-10.608-4.236-13.93-5.781
		c1.098,6.517-0.324,5.275-3.911,5.438c-3.454,0.151-3.987,0.896-6.497-2.138c0.497-0.371,2.377-1.297,3.663-1.153
		c1.681,0.2,1.843,0.688,2.558,2.119c0.953-0.794,0.496-0.525,1.688-1.261c0.591,1.592-1.718,1.297,1.345,1.25
		c0.945-8.604-10.934-12.203-17.83-11.076c-0.125,3.73-0.344,2.871-1.918,4.826c0.065,0.097,0.113,0.162,0.123,0.324l-0.371,3.426
		c-1.213,4.81-2.252,11.152-1.346,16.037c0.344,8.521,1.67,12.853,4.637,21.209l2.978,6.371c1.622,3.332,3.463,5.439,4.817,7.768
		c-6.363,0.457-13.604-1.26-20.703-1.116c-7.001,0.146-10.99,2.795-18.728,2.737l-0.086-2.051l-14.721-1.021
		c6.297-2.861,9.244-5.953,13.299-9.521c2.088-1.834,0.629-0.772,2.185-1.184c0.897-0.486,0.201,0.219,1.135-0.734
		c0.478-0.485,0.516-0.707,0.725-1.041c-2.261,0.937-0.458,0.592-1.507-0.371c4.37-3.998,6.631-18.155,7.194-23.27
		c0.4-3.998,0.142-14.406-1.022-17.764c-9.445-2.348-8.08,3.262-7.794,3.604c0.907,1.029,1.355-0.477,2.462,0.134
		c-2.157,4.914-3.777,0.039-4.713-1.574c-2.128,3.369-3.129,2.93-7.118,1.422c0.478-0.752,2.796-2.547,3.407-2.785
		c1.726-0.639,2.27,0.268,4.216,0.496c0.859-2.691,1.402-2.041,2.424-4.217c-8.139-5.361-4.905-14.129,0.905-10.229
		c0.362,2.388,0.84,1.813-0.992,2.845l0.029-0.447c0-0.039,0.009-0.201,0.009-0.25c0-0.047,0.01-0.219,0-0.275
		c-0.009-0.354,0.457,0.152-0.201-1.373l-2.909,0.371C109.324,270.18,117.233,276.676,122.127,273.928L122.127,273.928z
		 M104.363,186.319L104.363,186.319l-0.105,3.615c0,0-3.826,1.603-4.027,3.139c-6-2.594,0.85-2.566-7.937-0.41
		c2.184,1.154,3.11,4.923,7.298,1.222l0.639-0.602c0.048,0.582,0.669,1.135,2.234,1.574c0.209-0.582-0.688-1.603,0.219-2.442
		c2.462-2.309,5.295,1.946,4.532,8.7c-0.659,5.857-3.196,10.104-5.219,15.142c-1.164-1.708-1.917-2.51-3.292-3.836
		c-1.726-1.669-2.871-1.976-3.377-4.388c2.662-0.401,5.467-2.348,6.487-4.112c2.395-4.103-1.364-3.74,0.401-7.27
		c-1.316-0.058-0.42,0.058-1.536,0.649c-7.384,3.835-4.168,1.125-5.705,10.466c-1.327-0.313-1.183-0.238-2.099-0.812
		c-4.284-5.37-20.407-10.093-19.901-18.327c2.137-0.114,1.327-0.524,3.654,1.354c2.271,1.842-1.994-0.391,0.648,0.524
		c0.993-3.567-0.582-2.613-2.843-4.083c0.802-1.145,1.545-1.898,2.185-3.425c-0.258,2.442,0.2,3.272,0.792,4.112l1.946-1.421
		l0.324-4.475l-3.043,1.813c0.343-4.217-1.107-5.744-4.914-4.57l-0.115,3.263c3.482-0.82,0.458,0.096,1.135-0.944
		c0.907-1.393-0.906-0.572,1.03-1.507c0,0,3.091,0.114,0.869,3.854c-1.412,2.375-8.224,5.457-0.334,12.613
		c-16.009-3.244-26.045-23.87-16.934-23.394c1.403,0.077,1.584,0.535,2.156,1.317l1.326,2.299c0.591-3.655-0.849-5.563-4.589-5.219
		c-3.396,0.325-3.406,3.082-4.742,5.667c-3.721,1.24-7.67,1.699-11.391-0.257c-9.369-4.952-6.525-10.667-3.33-9.894
		c3.196,0.782,0.21,1.583,0.83,2.977c2.414-0.801,1.717-1.727,1.183-4.083c-7.499-2.127-10.256,5.008-1.364,11.906l2.003,1.89
		c-2.843,2.575-3.54,4.808-1.583,8.7c2.623,0.687,4.006,0.763,4.169-2.337c-3.931,0.372,0.715,2.033-2.814,1.26
		c-4.255-7.938,8.252-6.087,13.49-6.03c2.185,7.309,10.438,12.498,16.714,16.095c6.975,4.007,17.936,6.163,21.18,11.944
		c-8.958-2.699-5.294-1.793-13.319,0.734c-1.975,0.621-6.02,1.364-7.518-0.229c-0.982-1.06-1.336-6.431,1.459-1.879
		c1.355-2.691-0.333-2.845-2.833-2.119l-0.468,4.504c-3.854-4.369-1.889-3.683-8.434-2.978c0.907,0.64,1.393,1.928,2.605,2.623
		c3.167,1.843,1.822-0.477,5.199,0.058c-1.946,2.377-1.946,0.772-2.547,5.313c1.545-0.361,1.975-0.248,2.958-1.432l1.613-2.813
		c2.614,2.146,7.174,1.097,10.303,0.144c0.086,0.113,0.172,0.181,0.191,0.381l0.363,0.802c0.953,2.414,0.763,3.455,4.083,4.713
		c-1.469,1.164-1.212,0.259-2.232,1.719c-0.391,0.563-0.868,2.175-1.154,2.766c5.304-0.973,2.996-1.678,4.608-4.148
		c0.067,0.143,0.105,0.229,0.125,0.468c0.02,0.239,0.096,0.344,0.125,0.457c0.677,2.414,0.238,1.899,1.564,3.293
		c0.763-1.604,0.514-0.89,0.142-2.548c-0.048-0.229-0.353-1.061-0.353-1.127l0.257-1.411c0.125-0.593,0.516,1.011,0.191-1.192
		c-0.343-2.3-1.946-2.031-3.234-1.326c0.869,1.908,1.087,0.02,1.946,1.87c-4.044,0.668-5.457-2.29-3.319-5.571
		c3.281-1.697,6.134,0.896,8.51,1.803l1.793,1.527c-3.778,20.272-29.938,13.231-25.625,7.659c2.309,0.097,0.629,1.489,2.175,0.917
		c0.353-1.642,0.172-1.449-0.811-2.729c-3.416-0.305-4.809,2.49-3.339,5.553c1.278,2.672,3.73,2.805,6.268,4.045
		c-6.659,1.643-8.51-3.979-13.366-6.238c-2.595-1.222-3.196-1.012-4.37-3.559l1.822-0.01c0.029,0,0.181,0.037,0.268,0.01
		l-0.315-1.805c-6.163-0.295-0.104,1.774-4.045,1.928l-18.088-1.125c-3.835-0.668-6.85-2.232-8.376-4.561
		c-3.52-5.345,0.62-5.01,2.681-7.328c-9.216,0.066-5.219,9.16,0.505,11.793c4.961,2.289,3.282,0.619,6.908,4.234
		c1.584,1.604,7.327,2.081,4.923-1.259l3.101,0.438c-0.181,0.229-0.878,1.164-0.878,1.164c-1.975,2.461-0.267,0.572-1.851,1.621
		c-1.545,1.03-1.345-0.334-2.185,4.293c4.245-0.553,2.137-1.621,6.563-0.82l-0.305-1.926c-0.038-0.088-0.191-0.25-0.268-0.383
		l-1.183,0.648c-0.276-2.424,0.21-2.596,2.51-3.701c3.73-1.794,7.441-0.764,10.447,1.869c1.851,1.604,1.937,1.201,3.349,3.615
		c-3.082,0.201-3.263,0.383-6.02,1.137c-2.786,0.763-3.931,0.82-4.751-1.641c0.983-0.498,2.376,0.457,3.358,0.037
		c0.181-1.736-1.145-2.528-3.387-1.509c-2.395,1.107-0.763,2.845,0.038,4.677c-3.139,0.981-4.942,3.262-7.308,4.541
		c-4.98,2.689-13.08-2.881-14.024-8.549c-0.305-1.852,0.268-3.416,2.233-3.328c3.453,0.143,0.696,1.648,1.145,2.756
		c6.191-3.109-6.335-9.254-4.57,2.309c-2.185-0.781-4.789-1.105-6.64-1.773c1.173,6.049,4.036,7.728,9.149,5.676
		c-0.734,2.605-2.938,2.377-3.548,5.41c-0.63,3.071,1.087,4.799,3.729,2.633c-0.515-1.68-0.944-0.399-2.318-1.164
		c0.362-6.307,7.079-2.04,10.208-0.858c-1.259,2.521-8.224,8.664-10.866,9.494c-5.686,1.793-8.691-3.406-5.792-5.334
		c2.127-1.422,1.555,0.61,2.738,1.099l-0.038-2.683c-1.374,0.021-2.375-0.076-3.578,0.84c-2.289,1.767-0.162,2.224-1.679,4.713
		c-1.25,2.023-1.679,0.152-3.444,1.822c-0.85,0.812-1.193,3.426-1.603,4.59l4.542-1.078c0.601-1.993,0.429-3.12,0.954-4.913
		c5.934,10.665,18.852-4.39,22.057-6.976c1.126,0.772-1.25,3.884,0.296,6.67c1.04,1.869,3.33,2.558,5.82,1.66l-0.153-2.624
		c-1.841,0.505,0.172,1.363-2.49,1.556c-5.009,0.334,1.698-15.59,12.107-15.228c-3.225,0.029-7.518,3.824-6.173,8.281
		c0.935,3.119,7.193,5.857,9.245,1.412c-0.983-1.709-0.152-1.164-2.929-1.471c0.114,0.135,0.315,0.135,0.363,0.363
		c0.048,0.219,0.277,0.275,0.333,0.344c0.716,0.973,1.088,1.773-1.106,1.841c-6.058,0.21-6.449-8.749,7.251-9.616
		c3.062-0.201,5.008,0.791,7.737,0.066c1.383-0.363,5.763-2.844,7.346-0.916c2.634,3.205-1.249,14.215-6.439,11.486
		c-0.306-2.881,0.973-1.24,1.45-3.129c-3.825-0.582-3.282,2.709-1.66,4.578c1.183,1.346,0.973,0.516,0.944,1.166l-0.982,0.285
		c-0.124,0.028-0.343,0.086-0.497,0.114l-3.014,0.447c-1.174,2.069-1.222,4.561-3.129,5.85c2.08,0.306,4.103,0.267,5.886-0.727
		c2.328-1.277,1.412-2.138,2.195-4.73c1.078-3.56,4.312-1.223,6.983-7.813c2.328,0.658,3.004,1.535,6.086,0.867
		c1.432-1.641,2.596-2.929-0.314-3.969c-0.077,0.114-0.077,0.211-0.077,0.383l-0.01,1.059c0,0.41,1.642-0.641-0.123,1.059
		c-0.936,0.879-2.243,0.277-2.968-0.305c-1.927-1.527-1.498-5.323-1.564-7.881l6.44-1.049c2.032,3.787,6.516,1.449,4.742-1.767
		c-3.273,0.716-0.144-0.37-1.164,1.479c-0.678,1.203,1.222,0.82-1.631,1.098c-1.879-4.025,6.048-10.504,9.234-10.848
		c3.826,3.539,5.238,11.182,5.037,17.336c-4.617-0.43-11.382-7.186-7.727-11.783c2.089-0.038,2.949,0.286,2.471,1.736
		c-1.031,3.188-1.193-1.316-0.362,0.878c2.823,0.153,3.252-5.591-3.808-3.646c-2.451,6.831,0.496,6.603,1.937,11.344
		c-1.812,0.869-3.319,1.451-3.71,4.313c-0.391,2.796,1.802,4.504,3.873,2.043c-1.279-1.051-0.525,0.123-2.481-0.592
		c0.516-6.766,10.114-2.538,11.325,1.611c2.538,8.672,5.533,11.067,6.621,14.406c-4.464,1.059-19.529,6.448-19.652-3.816
		c2.404-0.668,2.546,0.42,3.177-3.033c-3.549,0.926-2.92,3.512-5.114,5.619c-3.417-7.27-0.916-6.316,4.941-7.623l0.831-3.225
		c-1.298,0.287-2.119,0.43-2.882,1.049l-1.536,1.852c-0.086,0.115-0.209,0.305-0.343,0.439c0.773-3.377,2.567-5.438-2.261-7.51
		c-0.048,2.186-0.42,3.598,0.601,5.237l1.269,1.832c-3.234,0.877-5.143,2.461-3.271,6.535c1.373,2.996,3.3,4.073,5.952,5.942
		l-4.274,1.604c0.353-0.449,0.659-0.688,1.087-1.067l1.05-0.974c0.086-0.076,0.257-0.229,0.381-0.354
		c-1.718-0.535-1.488-0.602-2.748-2.223c-3.463,0.113-3.549,0.248-5.62,1.85c2.671,2.31,2.128,1.756,5.334,2.797
		c-5.754,0.658-10.333-1.698-15.237,0c-0.2,3.931-0.429,1.955,1.125,2.66c0.029-0.076,0-0.323,0-0.248
		c-0.019,0.191-0.505-0.047-0.162-1.657c2.195-0.154,3.187-0.136,4.608,0.741c-0.162,5.41-9.845,7.49-17.115,5.439
		c-7.709-2.176-13.624-9.389-10.743-13.186c2.204,0.84-0.038-0.592,0.783,0.647l0.381,1.117c1.574-0.83,0.611,0.058,1.755-1.584
		c1.403,1.688,0.296,2.192,2.996,2.623c1.755,0.287,4.045-0.285,5.276-1.308c-1.526-1.2-1.861-2.854-4.303-3.178
		c-4.503-0.608-0.907,1.558-5.973,0.498c2.738-2.844,2.271-1.137,3.816-5.783c-5.906,0.459-3.339,2.07-5.104,5.324
		c-0.067,0.113-0.172,0.238-0.249,0.344c-2.222,3.263-2.328,1.496-1.106,7.193c-2.805-1.078-5-4.98-8.911-6.516
		c0.678-9.168,1.107-4.438-3.32-9.971c-1.784,2.5-1.641,5.856,0.84,7.824c0.115,0.094,0.257,0.188,0.372,0.274l1.193,0.955
		c-11.286-2.615-8.815,8.231-3.482,7.563l-0.019-2.328c-1.908,0.135-0.295,0.021-0.916,0.574c-0.067,0.074-0.306,0.324-0.372,0.381
		l-0.449,0.371c-1.708-1.66-1.574-1.916-1.125-4.35c3.272-5.104,17.182,10.064,21.323,12.24c0.372,0.188,1.975,0.992,1.975,1.002
		c2.614,2.061-1.583,3.596,3.082,5.063c-0.878,0.869-0.763,0.671-1.289,1.843l3.883,0.696c0.897-1.021,0.792-1.039,1.755-1.832
		c-0.725-0.668-1.45-1.278-2.594-1.936c-2.042-1.175-1.345,0.36-3.044-0.841c1.183-2.672,2.948-0.981,10.896-0.448
		c-0.897,0.879-12.898,10.639-2.347,9.024l-2.701-0.744c0.888-2.299,2.061-3.76,3.883-4.961l2.185-0.41
		c-1.374,2.929-0.324,3.711,0.544,7.175c4.75-7.472,2.061-3.388,0.524-8.464l9.674-5.686c-2.453,4.217-4.083,6.01-1.106,11.029
		c-6.488,2.604-2.958,0.791-5.353,6.373c5.133-1.154,4.742-1.174,5.353-6.373c2.575,1.184,1.927,1.488,5.371,1.039
		c-2.479-1.535-10.37-4.168-1.392-12.316c2.08-1.889,14.196-7.174,16.952-3.797c1.814,2.213-3.243,13.805-5.752,15.266
		c-1.011-1.164-1.392-1.021-1.125-2.424c0.362-1.965-0.391,0.334,0.639-1.106c1.909-2.709,1.545-3.109-0.343-6.992
		c-0.963,1.519-2.136,2.213-2.414,4.017c-0.399,2.586,0.23,1.735,0.458,2.69c0.974,4.207,0.83,1.125-0.334,2.451
		c-0.629-3.521-1.479-4.171-5.227-4.341c1.812,5.236,2.613,3.015,5.542,5.418c1.051,0.869-0.295,0.459,1.747,1.632
		c-2.07,1.461-2.7,1.098-3.301,4.579c3.234-0.467,2.91-0.161,3.788-2.69c1.087-3.155-0.028-0.78,2.422-3.403
		c2.634-2.824,2.577-5.851,4.6-7.806c1.125,2.978-0.201,5.478,3.511,5.925c1.564-0.173,0.696-0.755,1.822-1.765
		c0.945-0.84,0.305-0.211,1.001-0.718c1.642-1.19,1.432-0.198,1.728-3.442c-4.999,1.125-1.517,1.813-4.379,3.33l-1.231,0.744
		c-2.681-7.699,1.365-14.341,11.392-13.691c0.869,1.3,4.732,9.847,5.829,10.267c-0.905,1.24,0.258-0.269-0.639,1.203
		c0.907,1.221-1.355,1.125,1.793,0.856L104.363,186.319L104.363,186.319z M227.188,214.529L227.188,214.529
		c0.095,0.096,0.285,0.057,0.324,0.229l2.424,2.309c0.877,1.166,1.344,2.023,3.348,2.521c2.969,0.733,6.804-0.688,8.844-2.137
		c-6-3.761-7.574-5.812-11.505-4.16l-0.733,0.382c-0.755,0.354-0.26,0.172-1.021,0.43c-0.085,0.028-0.258,0.066-0.344,0.096
		L227.188,214.529L227.188,214.529z M217.799,279.471L217.799,279.471c1.146-2.852,3.436-4.646,3.979-6.602
		c0.592-2.137,0.248-2.699-0.629-4.283l-1.584-3.264c-0.076,0.135-0.133,0.344-0.182,0.439c-0.058,0.096-0.145,0.313-0.211,0.42
		c-1.555,2.536-3.091,1.602-3.787,2.612C214.393,272.908,215.404,277.01,217.799,279.471L217.799,279.471z M180.238,227.639
		L180.238,227.639c-1.174,0.84-0.545-0.506,0.037,3.262c0.803,5.19,5.516,6.099,10.429,5.173c-1.479-1.89-2.338-4.904-3.769-6.488
		c-0.982-1.088-1.881-1.469-3.73-1.621c-1.012-0.086-0.943,0.021-2.146-0.096C180.104,227.771,179.552,227.075,180.238,227.639
		L180.238,227.639z M25.397,222.4L25.397,222.4c-0.869-0.162-1.202-0.496-1.632-0.582c-1.65-0.324-0.849-0.049-2.07-0.104
		c-4.799-0.22-5.734-5.601-5.629-9.96c1.069,0.505,6.612,2.775,7.308,3.424C24.672,216.361,25.426,222.182,25.397,222.4
		L25.397,222.4z M127.06,233.189L127.06,233.189c1.488-2.021,2.986-8.604-0.229-10.283c-3.224-1.68-0.715,1.229-3.281-2.061
		l-0.936,2.766C120.735,228.85,124.236,228.63,127.06,233.189L127.06,233.189z M205.377,269.691L205.377,269.691
		c-1.47-1.086-6.43-0.582-6.631-0.496c3.865,2.891-3.463,7.328,10.438,7.004C208.582,274.969,206.617,270.627,205.377,269.691
		L205.377,269.691z M48.6,281.121L48.6,281.121c-1.927-1.984-3.664-5.236-2.643-9.072c1.174-1.365,1.106-0.811,1.87-1.518
		l1.364-1.889C54.028,275.207,51.309,275.951,48.6,281.121L48.6,281.121z M19.597,261.707L19.597,261.707l-1.622-1.689
		c4.675-0.926,5.17-4.561,9.425-2.041l2.662,1.498c0.095,0.027,0.286,0.086,0.42,0.133l-1.279,1.099
		C28.001,261.85,25.474,266.029,19.597,261.707L19.597,261.707z M10.991,229.67L10.991,229.67c1.126,0.334,6.268,1.994,7.175,2.986
		c1.001,1.088,1.001,2.193,1.44,3.979c0.62,2.51,0.936,1.879-1.517,1.536c-2.404-0.344-2.929,0.554-4.732-1.278
		C11.84,235.355,11.201,232.294,10.991,229.67L10.991,229.67z M198.299,263.311L198.299,263.311
		c7.928-0.373,6.926-1.061,10.047-7.643C200.178,255.648,199.434,257.766,198.299,263.311L198.299,263.311z M231.26,239.535
		L231.26,239.535c0.889,0.609-0.027,0.162,0.84,0.219c6.832,0.391,5.857-3.549,8.577-8.205c-10.267,1.088-8.311,2.538-8.862,6.432
		c-0.285,2.09,0.125-0.096-0.276,1.146C231.346,239.727,231.26,239.506,231.26,239.535L231.26,239.535z M237.977,252.404
		L237.977,252.404c1.67,4.951-1.66,7.977,8.139,8.473c-0.479-1.279-1.717-5.572-2.241-6.26
		C242.661,253.016,239.742,253.148,237.977,252.404L237.977,252.404z M141.064,245.422L141.064,245.422
		c2.033,4.693,3.367,7.213,7.957,5.781l2.672-1.24c-2.356-0.516-0.486,0.344-1.688-2.176
		C148.344,244.295,146.875,246.146,141.064,245.422L141.064,245.422z M210.07,266.764L210.07,266.764
		c1.384-0.82,4.142-2.07,5.4-3.684c1.658-2.127,0.268-3.063,0.772-5.848l-2.91,1.098c-1.271,0.334-1.813,0.582-2.938,1.059
		L210.07,266.764L210.07,266.764z M41.187,211.954L41.187,211.954c-1.345-3.588-1.059-4.007-0.916-8.195l1.498,1.192
		c0.343,0.258,0.668,0.533,1.031,0.764c5.285,3.529,2.48,2.193,3.253,7.918L41.187,211.954L41.187,211.954z M75.103,220.826
		L75.103,220.826c9.111-1.86,4.16-9.006,4.15-9.025c-0.162,0.115-0.411,0.066-0.506,0.324c-0.867,2.213,0.688-0.516-2.222,1.184
		c-0.983,0.563-1.545,0.963-1.794,2.014C74.216,217.563,75.99,218.154,75.103,220.826L75.103,220.826z M228.656,235.805
		L228.656,235.805c0.496-1.842,1.039-1.393,2.709-2.881c0.296-3.787-1.355-5.438-0.879-7.633c-3.435,1.813-6.297,5.189-3.232,8.986
		c0.123,0.145,0.533,0.592,0.658,0.727L228.656,235.805L228.656,235.805z M59.552,283.439L59.552,283.439
		c0.696-1.277,1.603-4.056,1.613-5.484c-1.794,1.344-3.101-1.031-5.515,0.982c-1.412,1.19-2.233,3.787-2.452,6
		C55.125,284.156,57.586,284.021,59.552,283.439L59.552,283.439z M50.107,214.673L50.107,214.673
		c1.335-1.231,3.606-2.233,4.141-3.349c0.782-1.622,0.115-4.352,0.372-6.67c-1.956,0.83-4.045,1.594-4.875,3.406
		C48.495,210.79,50.087,212.088,50.107,214.673L50.107,214.673z M215.613,230.176L215.613,230.176
		c2.9,0.086,3.654,2.004,6.277,0.182l4.094-3.366C217.303,223.783,218.361,226.34,215.613,230.176L215.613,230.176z M108.809,253.74
		L108.809,253.74c-1.45,0.23-2.213,0.602-3.319,1.27c-0.201-2.863-0.43-2.691-1.135-5.066c-2.671,1.632-4.274,3.683-3.235,6.841
		l0.763,1.536l3.006-1.745c1.106-0.029,0.553,0.688,2.89,0.563L108.809,253.74L108.809,253.74z M72.27,260.189L72.27,260.189
		c-1.479-2.918-2.337-6.258-9.302-3.863c0.725,0.658,1.116,0.963,1.764,1.766c4.398,5.457,2.376,2.48,8.062,3.09
		c-0.085-0.172-0.2-0.371-0.267-0.506C72.46,260.553,72.346,260.342,72.27,260.189L72.27,260.189z M160.213,271.543L160.213,271.543
		c0.619,0.268,0.889,0.457,1.68,0.592c3.119,0.496,4.475-3.225,5.905-5.285c-1.881-0.151-4.837-0.592-6.45,0.144
		c-1.535,0.705-1.115,1.098-1.593,1.993c-0.981,1.851,0.63,0.269-1.116,1.746L160.213,271.543L160.213,271.543z M235.382,271.209
		L235.382,271.209c4.999-7.385,1.364-5.771,0.726-9.35l-1.431,1.145C230.982,266.029,233.148,268.586,235.382,271.209
		L235.382,271.209z M144.871,234.202L144.871,234.202c1.574-0.858,3.826-1.593,4.79-2.929c1.174-1.604,0.743-4.666,0.163-5.553
		c-0.27-0.191-3.313,1.307-3.95,2.317C145.205,229.098,144.919,233,144.871,234.202L144.871,234.202z M16.802,244.963
		L16.802,244.963l-2.366,0.955c-3.416,0.82-5.066-0.611-6.755-4.551c1.803,0.162,4.865-0.354,5.934,0.047
		C15.399,242.111,15.141,243.438,16.802,244.963L16.802,244.963z M196.189,227.064L196.189,227.064
		c0.152-8.614-0.981-5.828-5.974-8.527C192.087,224.471,187.279,221.704,196.189,227.064L196.189,227.064z M194.195,276.771
		L194.195,276.771c0.563,0.85,0.076,0.248,0.83,0.973c0.619,0.592,0.41,0.314,1.125,0.764c0.793-1.25,2.186-2.92,2.139-4.885
		c-0.105-4.283-1.365-0.258-1.928-4.188c-0.104,0.123-0.221,0.305-0.297,0.391c-1.717,2.061-2.852,2.137-2.758,4.369
		C193.348,275.111,193.671,275.969,194.195,276.771L194.195,276.771z M146.266,258.664L146.266,258.664
		c6.916,0.104,5.608-2.271,6.659-6.736c-2.29,1.125-3.454,0.172-4.827,1.813C147.219,254.781,146.73,257.424,146.266,258.664
		L146.266,258.664z M174.771,251.088L174.771,251.088c3.567-3.271,3.777,2.328,5.638-7.766
		C175.42,244.182,174.075,245.859,174.771,251.088L174.771,251.088z M45.137,268.871L45.137,268.871
		c-2.748,0.4-3.559-0.438-6.211-0.781c0.591-1.279,1.583-2.824,3.005-3.512c2.127-1.01,3.196-0.295,5.553,1.469
		C45.957,267.326,46.11,267.727,45.137,268.871L45.137,268.871z M28.756,270.742L28.756,270.742
		c0.248-3.711-1.098-5.229,1.564-7.107c1.459-1.041,0.114,0.658,1.889-1.412C33.554,265.084,34.938,268.5,28.756,270.742
		L28.756,270.742z M113.437,231.454L113.437,231.454c1.64-0.554,2.776-0.229,4.723-0.687l1.536-4.293
		C114.171,226.579,114.333,227.027,113.437,231.454L113.437,231.454z M165.736,242.482L165.736,242.482
		c0.41,1.067,1.125,1.384,2.231,2.146l0.841,0.573c0.229-2.528,1.393-2.672,0.086-5.104c-0.572-1.05-1.67-2.186-2.49-2.892
		C165.823,238.838,164.964,240.508,165.736,242.482L165.736,242.482z M56.355,247.807L56.355,247.807
		c0.067,0.992,0.993,2.443,1.345,3.959c1.555-0.926,0.306,0.066,1.374-0.936c2.71-2.547,0.84-4.961-1.021-6.783
		C57.263,245.859,56.184,245.594,56.355,247.807L56.355,247.807z M121.793,243.952L121.793,243.952
		c-0.62-0.478,1.116-1.394-4.284-0.152c-0.706,1.47-1.27,3.11-1.994,4.704l5.152-1.174L121.793,243.952L121.793,243.952z
		 M175.066,231.33L175.066,231.33c0.011,1.439-0.066,2.118,0.469,3.215c1.068,2.195,0.904,1.279,2.24,1.908
		c0.717-2.891,1.488-1.717,1.395-5.199c-0.964-1.125-0.926-0.678-1.622-2.014L175.066,231.33L175.066,231.33z M69.379,235.27
		L69.379,235.27c0.887,1.062,1.708,2.225,3.11,2.787c2.652,1.049,2.652-0.602,4.723-1.279
		C73.128,232.857,75.256,234.068,69.379,235.27L69.379,235.27z M192.471,241.586L192.471,241.586
		c-5.297,0.896-4.703,0.84-5.297,5.896l4.026-1.088L192.471,241.586L192.471,241.586z M165.833,232.104L165.833,232.104
		c1.754,0.782,0.601,0.268,2.03,1.736c2.375,0,4.294-0.648,5.887-1.68C170.174,230.139,169.904,227.771,165.833,232.104
		L165.833,232.104z M177.186,279.279L177.186,279.279c1.088-0.639,2.748-1,3.377-2.488c0.525-1.25,0.078-2.881-0.027-4.389
		c-2.938,0.973-1.967,0.811-4.018,2.67L177.186,279.279L177.186,279.279z M201.305,237.331L201.305,237.331
		c5.199-2.634,3.07,0.831,4.817-6.487C201.676,231.512,201.266,232.848,201.305,237.331L201.305,237.331z M111.328,214.529
		L111.328,214.529c0.754,1.021,1.289,2.289,1.87,3.244l4.885,0.42c-0.621-1.842-1.202-3.188-2.452-3.998
		c-1.078-0.715-1.956-0.61-3.158-0.2C111.452,214.338,111.681,214.32,111.328,214.529L111.328,214.529z M171.891,274.834
		L171.891,274.834c0-0.01-1.289-1.67-3.854-1.326C162.322,274.262,168.732,281.369,171.891,274.834L171.891,274.834z
		 M188.004,252.652L188.004,252.652c-3.473,1.223-4.408,3.521-3.206,6.774C189.302,258.092,187.898,257.137,188.004,252.652
		L188.004,252.652z M83.728,249.027L83.728,249.027c-1.632-0.496-3.463,0.268-4.514,0.764l2.69,2.91l4.132-0.592
		C84.71,250.23,85.482,249.563,83.728,249.027L83.728,249.027z M94.06,264.654L94.06,264.654l1.478,3.703l3.76,1.01
		C98.983,265.637,98.667,264.598,94.06,264.654L94.06,264.654z M174.398,265.551L174.398,265.551
		c2.387,4.047,1.213,3.607,6.604,2.777l-1.795-2.834L174.398,265.551L174.398,265.551z M164.307,231.141L164.307,231.141
		c0.963-0.43,2.299-0.756,2.795-1.757c0.553-1.116,0.219-2.872,0.182-4.169C163.743,226.799,164.027,227.256,164.307,231.141
		L164.307,231.141z M66.078,268.395L66.078,268.395l-0.02-3.51c-0.907-0.631-1.555-1.031-2.996-1.412l-0.039,4.006
		C64.227,267.918,64.685,268.176,66.078,268.395L66.078,268.395z M211.664,228.383L211.664,228.383
		c0.717,0.506,1.412,1.001,2.08,1.508l1.212-2.442l-1.604-3.167C212.104,225.254,211.475,224.891,211.664,228.383L211.664,228.383z
		 M109.772,228.907L109.772,228.907l2.347,1.745c0.238-0.916,0.648-2.014,0.449-3.205c-0.067-0.363-0.343-1.03-0.563-1.355
		c-0.582-0.857-1.202-0.992-1.345-1.105C109.563,226.521,109.554,226.684,109.772,228.907L109.772,228.907z M112.043,209.168
		L112.043,209.168c-0.533,1.287,0.134-0.688-0.62,1.622c-0.439,1.325,0.123-0.363-0.468,1.774c4.685-0.439,2.986-0.392,4.866-3.416
		L112.043,209.168L112.043,209.168z M76.124,260.914L76.124,260.914c0.888-1.105,1.747-1.02,1.632-2.938
		c-0.029-0.345-0.391-1.373-0.63-1.718c-0.802-1.145-0.039-0.172-1.241-0.973C75.055,258.281,73.653,257.967,76.124,260.914
		L76.124,260.914z M211.798,249.686L211.798,249.686c2.157-0.026,2.834,0.394,3.97-1.574c0.705-1.229-0.183,0.468,0.687-1.772
		l-4.017,0.447L211.798,249.686L211.798,249.686z M167.302,247.215L167.302,247.215c0.744-3.912-1.708-2.938-5.009-2.061
		C163.6,246.49,164.496,247.521,167.302,247.215L167.302,247.215z M124.713,249.506L124.713,249.506
		c0.982-1.643,1.03-1.814,0.82-3.951l-2.128-1.631l-0.907,2.775C123.454,248.094,123.511,248.35,124.713,249.506L124.713,249.506z
		 M59.81,242.865L59.81,242.865l1.669,2.594l3.769,0.076l-2.022-3.09L59.81,242.865L59.81,242.865z M220.67,237.207L220.67,237.207
		l-2.595,0.945l1.498,2.146l3.606-0.021C222.254,238.152,222.475,238.57,220.67,237.207L220.67,237.207z M185.285,247.482
		L185.285,247.482c-0.324-3.017-0.163-2.625-2.9-3.301C182.624,247.539,182.165,247.158,185.285,247.482L185.285,247.482z
		 M104.906,186.013L104.906,186.013l-0.543,0.306L104.906,186.013L104.906,186.013z M41.206,151.373L41.206,151.373l-0.763,0.687
		c-0.125,0.114,2.985,3.434,3.777,4.198c0.668,0.639,1.183,1.211,2.328,1.774c2.023,0.974,1.852,0.182,3.483,1.756
		c-2.5,1.774-4.684,4.14-3.606,8.213c1.03,2.338,0.849,1.04,1.593,2.071c0.792,1.087,0.324,0.687,1.002,1.965l1.956-2.519
		c3.73-3.74,0.201-5.41-0.296-10.619c3.893-3.597,2.29-1.364,4.684-2.442l-1.602-1.518c-1.05-1.412-1.308-3.244-3.702-3.987
		C47.254,150.094,43.801,152.288,41.206,151.373L41.206,151.373z M44.879,133.341L44.879,133.341
		c-0.143,3.987-0.544,9.77,1.679,12.374c2.72,3.196,3.94,0.057,7.671,1.765c0.649,0.306,0.878,2.31,1.526,0.096
		c0.821-2.786-1.536,1.126-0.438-3.54c2.051-8.758-4.055-6.249-9.131-9.798C45.212,133.551,46.252,134.113,44.879,133.341
		L44.879,133.341z M212.542,156.62L212.542,156.62c0.104-0.115,0.183-0.535,0.21-0.439c0.039,0.095,0.152-0.343,0.21-0.439
		c1.347-2.767,1.029-1.459,2.317-2.881c3.73-4.103-3.004-10.714-5.627-12.068c0.18,4.741-4.694,9.531,0,12.822l2.088,1.47
		c0.076,0.095,0.173,0.248,0.229,0.353L212.542,156.62L212.542,156.62z M176.859,150.265L176.859,150.265
		c3.102-0.858-3.139,1.564,1.767-1.049c0.754-0.401,0.229-0.163,1.632-0.497c6.659-1.612,3.016-7.718,5.887-11.296
		c-2.709,0.095-6.201,1.775-7.899,3.501c-2.824,2.891-1.087,5.324-1.002,6.859C177.29,148.662,177.08,148.949,176.859,150.265
		L176.859,150.265z M26.409,195.144L26.409,195.144c1.44-3.158,1.336-6.678,2.337-8.701c0.849-1.717,5.6-3.32,7.556-3.787
		c-1.097,3.664-1.021-0.229-0.353,4.627C36.617,192.052,30.616,194.142,26.409,195.144L26.409,195.144z M20.999,172.962
		L20.999,172.962c4.045,0.429,6.755-1.383,9.789-0.372c2.185,0.706,1.67,0.973,2.595,2.748c1.536,2.958-0.478-0.114,2.194,2.299
		l-4.437,1.841c-1.717,0.696-2.872,0.534-4.541-0.286C24.043,177.923,22.22,175.366,20.999,172.962L20.999,172.962z
		 M220.154,212.326L220.154,212.326c0.115-0.086,0.269-0.41,0.316-0.315l0.98-0.858c3.789-2.461,7.947,0.345,4.332-11.705
		c-5.678,6.765-8.588,2.471-5.973,11.134l0.229,1.067c0.019,0.076,0.048,0.287,0.058,0.345
		C220.117,212.049,220.117,212.221,220.154,212.326L220.154,212.326z M229.361,187.225L229.361,187.225l1.918,1.632
		c0.086,0.085,0.191,0.22,0.268,0.314c0.505,0.611,0.143,0.325,0.688,1.031c0.877,1.097,1.851,1.784,3.701,1.87
		c2.662,0.115,6.039-1.803,8.301-2.786c-5.086-3.072-7.403-5.343-11.144-3.377C230.077,187.492,233.313,187.311,229.361,187.225
		L229.361,187.225z M24.109,200.353L24.109,200.353c-0.935,0.486-0.095,0.209-1.421-0.258c-0.096-0.029-0.248-0.124-0.363-0.162
		c-4.465-1.632-6.469-0.667-6.259-11.066c5.143,3.692,7.919,3.396,7.738,8.5C23.708,199.933,24.023,199.437,24.109,200.353
		L24.109,200.353z M207.658,166.742L207.658,166.742l-6.508,3.597c-1.707,1.478-1.508,6.544-1.325,6.706
		c0.706,0.668-0.011-0.333,2.47-0.62C206.264,175.986,208.831,175.08,207.658,166.742L207.658,166.742z M226.596,162.916
		L226.596,162.916l0.467-1.812c0.011-0.029,0.431-0.84,0.555-1.154c0.591-1.499,0.677-2.233-0.145-3.626
		c-1.135-1.937-4.369-3.692-6.877-4.55c0.57,2.747-0.212,5.629,0.467,7.413C221.701,160.855,224.543,162.038,226.596,162.916
		L226.596,162.916z M174.818,196.68L174.818,196.68c2.472,1.631,6.813,4.684,9.723,2.185c0.953-0.811,0.354-0.572,1.078-1.317
		c0.096-0.095,0.201-0.229,0.295-0.314c0.096-0.086,0.23-0.201,0.324-0.268c0.125-0.095,1.061-0.553,1.146-0.591
		C181.583,191.079,180.648,194.208,174.818,196.68L174.818,196.68z M48.065,192.911L48.065,192.911
		c9.893,8.644,6.754,2.213,12.412,2.614c-0.114-0.134-0.314-0.516-0.381-0.401l-1.631-2.213c-1.632-2.48-3.339-2.337-6.994-1.288
		c-0.257,0.066-1.736,0.486-1.784,0.505l-1.24,0.553C48.361,192.72,48.18,192.816,48.065,192.911L48.065,192.911z M35.023,164.29
		L35.023,164.29c-1.307-3.053-0.257-0.983-2.404-2.318c-3.645-2.271-2.156-7.212-0.41-9.683l1.154,1.335
		c1.421,1.555,2.681,2.194,3.243,3.854c0.735,2.194-0.095,3.129-1.202,5.935L35.023,164.29L35.023,164.29z M22.411,207.031
		L22.411,207.031c-3.244-1.137-8.329,1.83-9.521-7.633c2.557,1.193,5.466,0.744,7.107,2.176
		C21.171,202.596,21.066,203.902,22.411,207.031L22.411,207.031z M147.048,185.145L147.048,185.145
		c-0.743,5.629,1.06,5.057,2.776,8.319l1.593-2.614c3.263-7.213-0.383-4.627-1.278-8.787L147.048,185.145L147.048,185.145z
		 M231.871,208.652L231.871,208.652c4.072-1.946,7.1,1.641,9.188-8.157c-7.309,1.823-7.861,2.508-8.691,6.239l-0.219,0.974
		C232.1,207.871,231.919,208.463,231.871,208.652L231.871,208.652z M232.119,163.374L232.119,163.374
		c1.201-2.423,2.375-0.82,3.559-3.043c0.889-1.679,0.124-4.742,0.189-6.993c-2.069,0.496-4.158,1.927-5.075,3.357
		C229.162,159.233,230.287,161.275,232.119,163.374L232.119,163.374z M121.555,192.682L121.555,192.682
		c-0.497-2.461,2.414-2.003,1.241-6.048c-0.516-1.774-2.061-2.356-3.063-5.19c-2.147,3.826-4.351,6.955-0.067,10.036
		C121.27,192.634,120.334,192.434,121.555,192.682L121.555,192.682z M76.486,177.417L76.486,177.417
		c-0.057-4.102,5.229-2.089-0.954-11.229c-1.927,1.65-4.064,5.81-1.775,8.51L76.486,177.417L76.486,177.417z M155.166,165.683
		L155.166,165.683c3.225-7.375,0.41-8.376-1.841-10.304l-0.744-0.668C152.505,159.176,147.523,158.441,155.166,165.683
		L155.166,165.683z M29.319,209.893L29.319,209.893c0.772-2.498,0.181-1.679,0.381-3.511c0.124-1.011,0.629-1.851,1.25-2.461
		c1.25-1.231,4.131-2.185,6.202-1.917c-1.546,1.277-1.011,3.672-2.023,5.514C34.107,209.368,32.4,208.986,29.319,209.893
		L29.319,209.893z M122.805,152.927L122.805,152.927c-1.785-6.087,2.996-3.063-6.813-9.292
		C116.737,148.51,115.316,151.668,122.805,152.927L122.805,152.927z M196.963,156.562L196.963,156.562
		c-2.699-6.526-0.831-5.935-7.919-7.355C190.887,154.539,188.042,156.028,196.963,156.562L196.963,156.562z M219.229,178.619
		L219.229,178.619c3.723-0.124,3.006,2.214,6.346,0.983c1.574-0.582,3.005-2.757,3.845-4.226c-2.356-0.058-4.617-1.031-6.297-0.744
		c-1.917,0.333-1.67,0.916-3.177,3.043L219.229,178.619L219.229,178.619z M60.525,172.228L60.525,172.228
		c2.376,0.019,1.021-0.343,3.063,1.946c4.58,0.42,3.692-0.763,7.422-1.632c-1.755-2.519-4.904-4.646-7.966-2.767
		c-0.753,0.468-0.258,0.2-0.944,0.868c-0.143,0.133-0.591,0.592-0.715,0.725L60.525,172.228L60.525,172.228z M153.41,197.472
		L153.41,197.472c1.756-1.565,3.367-1.203,4.398-3.101c1.096-2.013,0.506-4.427,0.133-6.631c-2.68,2.843-6.631,3.177-4.789,9.159
		c0.02,0.066,0.104,0.248,0.115,0.295C153.287,197.242,153.354,197.395,153.41,197.472L153.41,197.472z M78.671,190.583
		L78.671,190.583c4.236,4.398-0.707,4.122,10.113,3.702c-0.964-1.354-1.917-3.11-3.511-4.141
		C82.392,188.274,81.285,190.163,78.671,190.583L78.671,190.583z M98.954,158.06L98.954,158.06c0.677-0.601,5.916-1.211,3.663-8.891
		c-0.019-0.067-0.094-0.239-0.151-0.353c-3.283,1.946-5.248,2.843-4.475,6.344C98,155.169,98.83,157.783,98.954,158.06
		L98.954,158.06z M195.848,180.165L195.848,180.165c-0.459-3.567,2.202-6.659-6.164-8.834c2.203,9.178-0.84,5.019,5.715,8.559
		C195.514,179.945,195.693,180.07,195.848,180.165L195.848,180.165z M41.301,200.648L41.301,200.648
		c-0.543-1.041-0.763-1.479-1.488-2.52c-3.587-5.18-0.114-3.959-0.296-7.823c0.134,0.125,0.277,0.296,0.373,0.372
		c2.337,2.166,4.932,2.519,3.282,7.204L41.301,200.648L41.301,200.648z M211.35,196.956L211.35,196.956
		c0.448-0.248,4.934-2.452,5.057-2.576c0.392-0.391,2.318-5.524-0.189-4.98c-1.88,0.401-3.313,0.601-4.255,1.717
		C210.49,192.834,210.938,194.953,211.35,196.956L211.35,196.956z M228.025,198.979L228.025,198.979
		c0.572-3.759,2.93-5.609,0.268-7.794l-2.003-1.393c-0.058-0.048-0.183-0.181-0.276-0.277l-1.201,2.119
		c-0.621,0.973-1.24,1.755-0.793,3.205C224.449,196.241,227.063,198.12,228.025,198.979L228.025,198.979z M56.814,204.654
		L56.814,204.654c8.558-2.557,4.426-4.895,5.657-8.614c-1.106,0.201-3.778,1.222-4.455,2.166
		C57.282,199.227,57.195,203.109,56.814,204.654L56.814,204.654z M204.146,160.168L204.146,160.168l5.371,0.896
		c-2.539-6.182,2.289-3.416-7.299-7.193C202.801,157.268,202.868,157.84,204.146,160.168L204.146,160.168z M85.072,157.668
		L85.072,157.668c1.221,1.641,1.612,3.339,3.359,4.122c1.306,0.591,3.864,0.2,5.132-0.544c-1.555-1.688-0.963-1.937-1.993-3.578
		C89.566,157.173,86.428,156.934,85.072,157.668L85.072,157.668z M163.99,151.754L163.99,151.754
		c-0.602,3.301,0.125,3.664,0.353,6.64c3.884-1.946,5.431-4.083,2.529-8.768L163.99,151.754L163.99,151.754z M153.868,152.86
		L153.868,152.86l1.183,2.042c1.813,3.072,3.12,2.614,7.854,1.812c-0.105-0.133-0.268-0.486-0.314-0.381l-2.854-3.167
		C157.32,151.276,156.416,153.051,153.868,152.86L153.868,152.86z M111.786,204.826L111.786,204.826
		c0.992,0.992,2.014,2.357,3.348,2.872c1.298,0.516,1.642,0.438,2.834,0.114c2.604-0.705-1.317-0.754,2.738-0.705
		c-0.115-0.125-0.286-0.459-0.334-0.363L119.771,206c-0.886-1.184-2.194-4.111-6.763-2.041
		C111.462,204.654,112.988,203.605,111.786,204.826L111.786,204.826z M173.568,199.017L173.568,199.017l-1.411-5.667
		c-1.068-0.678-0.964-0.553-2.375-1.107l-2.042-0.82C167.911,192.539,166.527,198.368,173.568,199.017L173.568,199.017z
		 M185.848,207.184L185.848,207.184c4.219-1.965,6.03-4.809,3.272-8.776c-1.556,2.538-2.634,0.877-3.254,3.434
		C185.552,203.139,186.049,205.523,185.848,207.184L185.848,207.184z M86.742,180.136L86.742,180.136l-3.034,4.913
		c2.976,0.067,4.255-0.019,6.449-0.954l1.097-4.542L86.742,180.136L86.742,180.136z M135.025,145.705L135.025,145.705
		c-0.151-5.372-3.815-5.094-6.907-6.277C129.789,147.499,130.533,144.141,135.025,145.705L135.025,145.705z M105.765,156.724
		L105.765,156.724c2.376,1.011,3.597,3.53,6.88,1.822c1.135-0.61-0.344-0.372,2.022-1.354c-2.71-2.204-3.025-3.33-6.459-1.965
		L105.765,156.724L105.765,156.724z M164.896,203.596L164.896,203.596l3.148,0.717c2.107-3.711-0.764-5.677-5.371-6.153
		C163.495,200.028,163.791,202.041,164.896,203.596L164.896,203.596z M174.104,208.118L174.104,208.118
		c0.4,0.268,1.822,0.954,2.215,1.088c3.615,1.259,3.356-1.394,5.533-3.187C173.6,203.177,176.984,205.657,174.104,208.118
		L174.104,208.118z M58.388,167.686L58.388,167.686c0,1.794,0.353,0.668,0.668,2.929c2.347-1.44,3.92-0.849,3.568-5.581
		c-0.182-2.404,0.286-0.859-0.83-2.233C60.382,164.566,58.388,164.719,58.388,167.686L58.388,167.686z M62.862,187.587
		L62.862,187.587c1.345,1.25,1.985,1.24,3.025,2.671c0.81-2.604,2.862-3.587-1.975-8.568
		C63.043,184.315,62.529,184.363,62.862,187.587L62.862,187.587z M183.311,175.442L183.311,175.442
		c0.209-6.554,1.67-3.034-2.156-7.432C179.18,172.037,179.732,173.391,183.311,175.442L183.311,175.442z M80.693,152.698
		L80.693,152.698c4.972-1.326,3.902-0.487,5.754-5.085C81.763,147.833,81.485,148.452,80.693,152.698L80.693,152.698z
		 M69.589,161.657L69.589,161.657c-0.439,1.717-0.601,3.005-1.422,4.197c2.471,0.01,4.608-0.648,4.856-3.272l-0.305-1.669
		c-0.019-0.038-0.115-0.191-0.172-0.287c-0.324,0.229,0.057,0.191-1.116,0.592C70.686,161.466,70.218,161.485,69.589,161.657
		L69.589,161.657z M163.104,192.148L163.104,192.148l-0.326,4.283c4.162-1.937,3.731-1.479,3.551-5.962L163.104,192.148
		L163.104,192.148z M142.793,186.232L142.793,186.232l-0.02,4.446l3.168-1.755l-0.096-3.758L142.793,186.232L142.793,186.232z
		 M117.939,142.203L117.939,142.203l3.473,0.582l0.83-2.384C119.6,139.752,118.35,139.713,117.939,142.203L117.939,142.203z
		 M114.294,322.393L114.294,322.393l0.697-1.01C114.037,321.506,114.39,320.238,114.294,322.393L114.294,322.393z M143.891,318.578
		L143.891,318.578l-0.363,0.057l0.354,1.115l0.563-0.209L143.891,318.578L143.891,318.578z M144.441,319.541L144.441,319.541
		l0.611,0.486C145.188,319.131,145.35,319.34,144.441,319.541L144.441,319.541z M145.055,320.027L145.055,320.027
		c-0.115,1.211-0.479,1.031,0.514,1.031C145.798,319.723,146.218,319.865,145.055,320.027L145.055,320.027z M143.174,320.504
		L143.174,320.504c1.105,0,0.926,0.287,0.706-0.754C142.982,319.637,143.297,319.484,143.174,320.504L143.174,320.504z
		 M187.852,288.152L187.852,288.152c-0.344-2.012-1.679-3.969-3.109-4.836c-1.756-1.068-4.704-0.363-6.039,0.295
		c1.688,1.441,0.439,0.191,1.47,1.975c0.687,1.184,0.64,1.137,1.298,2.156L187.852,288.152L187.852,288.152z M96.893,282.705
		L96.893,282.705c0.43,1.68-0.62,3.701,0.61,5.285c0.411,0.535,3.817,2.844,4.237,3.121
		C102.875,286.674,101.873,283.01,96.893,282.705L96.893,282.705z M67.919,290.672L67.919,290.672
		c1.583-2.09,3.015-4.914,1.441-7.338l-1.441-1.926c-0.992,2.156-0.411,0.639-1.422,1.889
		C64.322,285.969,65.724,288.172,67.919,290.672L67.919,290.672z M84.901,285.969L84.901,285.969
		c1.087-2.023,0.811-1.852,0.543-4.189c-0.877-0.391-1.622-0.79-2.375-1.229c-0.2,1.336-0.61,2.023-0.181,3.359
		C83.337,285.262,84.309,285.625,84.901,285.969L84.901,285.969z M112.931,288.906L112.931,288.906
		c2.385-1.279,3.177-2.928,1.25-5.037C111.242,285.244,112.167,285.979,112.931,288.906L112.931,288.906z M144.021,149.331
		L144.021,149.331l0.162,1.478c-1.764-0.906-0.399,1.021-1.183-0.534c-0.134-0.276-0.392-0.181-0.573-0.315l-0.209,0.392
		c0.678,1.307-0.257,0.753,1.44,1.402l-0.867-1.05c2.623,1.698,0.64,0.496,1.392,0.104c0.135-0.124,0.354-0.295,0.383-0.391
		c0.02-0.066,0.115-0.305,0.134-0.381C145.243,147.27,145.55,150.417,144.021,149.331L144.021,149.331z M63.234,134.972
		L63.234,134.972c2.366-2.604,2.9,0.22,6.297-4.168c2.194,1.984,4.675,2.738,8.348,2.232c2.117-2.137,0.783-2.509,3.644-3.301
		l-1.258-0.696c-7.442-4.074-5.295,0.963-10.733,1.765c0.382-3.292,0.095-5.162,1.708-7.384c-3.864,0.524-8.978,2.423-8.662,7.308
		c0.009,0.191,0.047,0.343,0.066,0.516l0.487,3.357C63.149,134.667,63.177,134.857,63.234,134.972L63.234,134.972z M114.724,117.856
		L114.724,117.856c-0.553-3.825-0.821,0.906-0.677-4.665c0.163-6.755-5.591-5.8-9.073-8.949l-0.648-0.649
		c-0.067-0.077-0.201-0.229-0.314-0.343c0.782,14.92,3.482,11.467,8.442,13.528C113.627,117.255,111.767,117.446,114.724,117.856
		L114.724,117.856z M164.975,127.387L164.975,127.387c0.125-0.095,0.275-0.439,0.334-0.324c0.019,0.019,0.019-0.649,3.215-1.651
		c1.393-0.448,2.223-0.658,2.86-2.432c0.993-2.786,0-6.526-0.696-9.445c-4.244,5.056-7.221,3.75-6.19,9.56L164.975,127.387
		L164.975,127.387z M61.279,135.268L61.279,135.268c-0.896-2.195-0.677-0.439-0.582-3.378c0.248-7.432-5.286-4.245-7.861-8.5
		c-2.251,11.629,5.324,10.685,6.697,11.229C60.306,134.944,58.512,135.258,61.279,135.268L61.279,135.268z M74.645,113.821
		L74.645,113.821c-1.975,8.051,1.488,9.826,7.528,12.049c-1.536-4.284,1.335-5.428-1.403-8.539l-4.608-3.005
		c-2.175-1.269,1.774,0.658-0.62-0.353C74.283,113.459,75.99,113.459,74.645,113.821L74.645,113.821z M134.034,119.24
		L134.034,119.24c3.196-1.087,1.288-0.333,4.12-0.477c1.535-0.066,2.566-0.629,3.379-1.584c0.963-1.125,1.029-2.07,1.755-3.567
		c1.021-2.1,1.507-1.774,2.128-2.872C136.791,109.355,135.742,112.676,134.034,119.24L134.034,119.24z M91.76,110.92L91.76,110.92
		l0.849-0.124c7.49-2.805,4.007,0.85,7.613-10.742c-11.008,3.263-8.195,5.237-8.28,9.426
		C91.942,109.604,91.741,110.816,91.76,110.92L91.76,110.92z M161.177,115.138L161.177,115.138l-0.399-1.574
		c-0.028-0.133-0.059-0.305-0.086-0.449c-1.434-7.976-2.435-3.835-9.142-7.976c0.83,10.914,5.104,9.178,7.947,9.674
		C160.88,115.061,159.594,115.423,161.177,115.138L161.177,115.138z M163.256,127.235L163.256,127.235
		c-0.066-2.843-0.382-0.84-0.372-3.53c0-1.879-0.124-3.033-1.288-4.035c-1.688-1.441-5.6-1.937-7.994-2.166
		c2.738,4.226,1.078,8.262,6.336,8.777C163.505,126.624,160.518,125.918,163.256,127.235L163.256,127.235z M196.229,134.963
		L196.229,134.963c3.807-1.155,4.045,1.526,7.23-0.974c1.756-1.374,2.748-4.246,3.436-7.031c-2.51,0.811-6.297,0.677-7.689,1.631
		C198.098,129.324,196.677,133.389,196.229,134.963L196.229,134.963z M144.91,130.841L144.91,130.841l2.261-2.242
		c2.662-2.433,1.374-7.222-0.323-10.103c-0.953,0.782-3.271,3.376-3.816,5.514C141.818,128.78,145.023,126.491,144.91,130.841
		L144.91,130.841z M179.273,123.953L179.273,123.953c-0.771-2.462-0.058-4.484-1.773-6.135c-0.602-0.582-4.789-2.776-5.295-2.958
		C172.291,122.77,173.378,122.083,179.273,123.953L179.273,123.953z M105.671,124.039L105.671,124.039
		c5.275,1.593,6.63,2.223,8.481-0.896l0.42-0.792c0.067-0.095,0.162-0.258,0.229-0.343c0.029-0.048,0.782-0.859,0.907-1.011
		c-4.866-0.773-3.921-3.148-8.634,1.507L105.671,124.039L105.671,124.039z M103.687,130.937L103.687,130.937
		c2.05,0.124,3.329,1.393,5.313,0.534c0.42-0.172,3.338-2.881,4.064-3.587C105.499,125.556,107.253,126.615,103.687,130.937
		L103.687,130.937z M90.759,112.562L90.759,112.562c-0.201-1.422,0.171-4.026-0.611-5.095c-0.487-0.687-3.749-2.251-4.502-2.881
		C84.338,111.284,87.143,110.854,90.759,112.562L90.759,112.562z M139.48,133.56L139.48,133.56l4.16,0.372
		c-2.214-5.324-0.039-4.255-6.965-6.029C137.326,130.832,138.23,131.871,139.48,133.56L139.48,133.56z M118.769,136.737
		L118.769,136.737c0.706,0.344,3.158,1.279,4.104,1.583c-0.64-2.127,0.552-2.966-0.821-4.827c-0.307-0.42-3.54-2.824-4.065-3.015
		C117.91,133.102,118.102,134.781,118.769,136.737L118.769,136.737z M101.301,129.295L101.301,129.295l2.709-2.012l0.42-5.658
		C100.586,123.266,98.868,125.775,101.301,129.295L101.301,129.295z M147.6,132.453L147.6,132.453l-0.15,3.769l3.453-0.935
		l0.781-4.103C149.557,130.708,149.452,130.898,147.6,132.453L147.6,132.453z M125.582,283.869L125.582,283.869
		c1.44,0.211,2.251,0.744,2.986-0.611l0.077-0.686c-0.01-0.096-0.086-0.268-0.125-0.363c-0.42-1.125-0.639-1.594-0.763-1.707
		c-0.048-0.049-0.077-0.029-0.086,0.027c-0.086,0.363,0.259,1.994-0.41,0.154l0.41-0.154l0.086-0.027l0.907-0.334
		c2.347,4.988-1.317,3.93-3.597,4.617l0.926,5.467c1.382-0.793,3.71-2.814,5.18-4.273
		C140.884,276.371,122.366,271.887,125.582,283.869L125.582,283.869z M138.395,255.945L138.395,255.945l-0.478,0.18
		c-0.61,0.697,0.115,0.459-0.458,1.736c-1.193,2.672-1.174-0.086-3.845,1.852c-5.429,3.922-0.517-1.039-3.674,1.564
		c-0.485,0.896-1.164,2.977-1.421,3.35c-2.175,3.043,0.868-0.984-2.815,0.811l-0.782,7.48l2.033-2.92
		C131.658,260.189,140.816,262.299,138.395,255.945L138.395,255.945z M132.432,253.578L132.432,253.578l0.182,0.314l0,0l0,0l0,0l0,0
		C132.584,253.836,132.498,253.482,132.432,253.578L132.432,253.578z M132.908,253.789L132.908,253.789
		c0.344-3.158,0.973-4.398-0.438-7.061c-1.633,1.098-1.25,4.282-1.347,6.479c-0.181,3.902-0.639,2.994-1.269,6.621l2.663-1.842
		c0.267-0.221,1.314-1.041,1.879-1.555c4.779-4.275,2.633-0.563,3.787-3.568C136.038,252.301,135.093,253.359,132.908,253.789
		L132.908,253.789z M126.535,256.297L126.535,256.297c0.687,0.916,0.516,0.992,0.839,2.139l-3.424,2.861
		c-1.116,1.736-0.115,0.84-0.696,2.213c-0.669,1.545,0.257-0.133-0.707,0.955c-0.048,0.057-0.276,0.305-0.314,0.209
		c-0.039-0.096-0.229,0.123-0.334,0.211c0.563,2.441,0.725,3.357,2.472,4.922C124.14,259.551,132.622,258.568,126.535,256.297
		L126.535,256.297z M134.502,235.289L134.502,235.289c0.02-0.104,0.209-0.209,0.236-0.457c0.029-0.287,0.193-0.325,0.287-0.479
		c-1.641,0.803-1.106-0.248-1.803,1.547c-0.229,0.572-0.066,1.584,0.076,2.156c0.305,1.297,1.012,2.45,1.383,3.987
		c0.916,3.797-0.486,5.209-0.248,7.947c0.629-0.793,2.967-4.134,2.566-5.507c-1.27-4.444,0.641-1.697-1.203-5.188
		C134.291,236.434,134.082,237.006,134.502,235.289L134.502,235.289z M141.581,327.908L141.581,327.908
		c0.754-3.807-0.573-5.887-3.873-6.184C138.212,323.137,140.693,326.791,141.581,327.908L141.581,327.908z M137.573,273.184
		L137.573,273.184c0.135,0.314-1.394,1.127,1.202,2.404c2.834-2.424-1.89-5.963-3.598-1.773
		C135.18,273.814,137.077,272.039,137.573,273.184L137.573,273.184z M137.249,163.183L137.249,163.183l-2.634,1.412l0.027,4.36
		l3.235-2.28L137.249,163.183L137.249,163.183z M110.66,232.848L110.66,232.848c-0.516,1.965,1.479-0.229-0.353,1.717
		c-1.07,1.125-0.821,0.362-0.85,0.362l-0.63,0.097c0.249,2.175,0.717,4.492,1.46,6.162
		C111.814,239.344,116.986,233.896,110.66,232.848L110.66,232.848z M168.675,100.541L168.675,100.541
		c-1.498-2.443-1.717-1.537-5.391-3.587c1.671-1.526,5.028-2.366,7.938-8.529l-11.314,3.186c-1.889-3.072,0.086-3.263-4.857-3.015
		C158.104,96.324,152.133,98.651,168.675,100.541L168.675,100.541z M227.759,136.604L227.759,136.604
		c0.41,0.744-0.067,2.528,2.128,3.549c-0.172-0.61-0.285-1.297-0.677-2.003C228.131,136.203,228.455,137.042,227.759,136.604
		L227.759,136.604z M63.444,110.939L63.444,110.939c-4.436-1.259-3.072,2.919-2.767,6.077l5.628,0.258
		c0.105-3.225,1.202-2.328,0.888-5.8c-2.118-1.393-0.333,0.248-2.175-0.591l0.162-2.242c-0.162,0.429-0.324,0.897-0.458,1.307
		l-1.021,2.834L63.444,110.939L63.444,110.939z M115.64,73.999L115.64,73.999l-4.742,2.557c2.729,0.306,7.204-0.429,8.997-1.564
		c3.654-2.29,0.439-4.293,2.881-7.747c-2.186-0.21-2.241-0.477-3.673,1.164c-0.096,0.095-0.2,0.267-0.276,0.362l-0.544,0.725
		c-3.54-0.573-6.592-1.889-9.397-2.385C111.232,72.301,114.313,72.645,115.64,73.999L115.64,73.999z M226.242,136.651
		L226.242,136.651c0.076,0.181,0.544,0.868,0.563,0.982c0.02,0.076,0.075,0.249,0.086,0.324c0.162,1.603-3.054,2.214,1.573,6.145
		c0.964,0.82-0.485,0.219,1.06,0.744c2.08-1.202,0.182-0.515,1.595-1.335c1.325-0.763,0.981-0.115,2.729-1.001
		c-1.574-5.057-1.1-5.591-3.656-5.391c-3.51,0.287,2.356,1.021-0.84,0.115l-0.705-2.825c-0.592,1.088-0.371,1.069-1.145,1.794
		C226.146,137.462,227.512,136.212,226.242,136.651L226.242,136.651z M5.41,172.952L5.41,172.952
		c0.973,1.794,0.038,0.287,2.166,1.594c-1.574,3.139-3.559,1.994,1.908,6.411c1.793,1.46-0.782,0.306,1.641,1.289
		c0.162-0.172,1.66-2.156,1.746-2.233l1.574-0.887c0.038-0.01,1.345-0.344,1.727-0.525l-2.214-4.426
		c-1.717-2.709-3.004-1.488-3.024-1.479c-0.162,0.048-0.678,0.315-0.82,0.382l-1.917-2.948C5.61,171.598,9.465,170.682,5.41,172.952
		z"/>
</g>
<path fill="#727171" d="M268.721,658.982h-62.037"/>
</svg>
