<?xml version="1.0" encoding="utf-8"?>
<!-- Generator: Adobe Illustrator 16.0.0, SVG Export Plug-In . SVG Version: 6.00 Build 0)  -->
<!DOCTYPE svg PUBLIC "-//W3C//DTD SVG 1.1//EN" "http://www.w3.org/Graphics/SVG/1.1/DTD/svg11.dtd">
<svg version="1.1" id="图层_1" xmlns="http://www.w3.org/2000/svg" xmlns:xlink="http://www.w3.org/1999/xlink" x="0px" y="0px"
	 width="260px" height="400px" viewBox="0 0 260 400" enable-background="new 0 0 260 400" xml:space="preserve">
<metadata><?xpacket begin="﻿" id="W5M0MpCehiHzreSzNTczkc9d"?>
<x:xmpmeta xmlns:x="adobe:ns:meta/" x:xmptk="Adobe XMP Core 5.3-c011 66.145661, 2012/02/06-14:56:27        ">
   <rdf:RDF xmlns:rdf="http://www.w3.org/1999/02/22-rdf-syntax-ns#">
      <rdf:Description rdf:about=""
            xmlns:dc="http://purl.org/dc/elements/1.1/">
         <dc:format>image/svg+xml</dc:format>
         <dc:title>
            <rdf:Alt>
               <rdf:li xml:lang="x-default">打印</rdf:li>
            </rdf:Alt>
         </dc:title>
      </rdf:Description>
      <rdf:Description rdf:about=""
            xmlns:xmp="http://ns.adobe.com/xap/1.0/"
            xmlns:xmpGImg="http://ns.adobe.com/xap/1.0/g/img/">
         <xmp:MetadataDate>2014-11-18T23:00:48+08:00</xmp:MetadataDate>
         <xmp:ModifyDate>2014-11-18T23:00:48+08:00</xmp:ModifyDate>
         <xmp:CreateDate>2014-11-18T23:00:48+08:00</xmp:CreateDate>
         <xmp:CreatorTool>Adobe Illustrator CS6 (Windows)</xmp:CreatorTool>
         <xmp:Thumbnails>
            <rdf:Alt>
               <rdf:li rdf:parseType="Resource">
                  <xmpGImg:width>256</xmpGImg:width>
                  <xmpGImg:height>140</xmpGImg:height>
                  <xmpGImg:format>JPEG</xmpGImg:format>
                  <xmpGImg:image>/9j/4AAQSkZJRgABAgEASABIAAD/7QAsUGhvdG9zaG9wIDMuMAA4QklNA+0AAAAAABAASAAAAAEA&#xA;AQBIAAAAAQAB/+4ADkFkb2JlAGTAAAAAAf/bAIQABgQEBAUEBgUFBgkGBQYJCwgGBggLDAoKCwoK&#xA;DBAMDAwMDAwQDA4PEA8ODBMTFBQTExwbGxscHx8fHx8fHx8fHwEHBwcNDA0YEBAYGhURFRofHx8f&#xA;Hx8fHx8fHx8fHx8fHx8fHx8fHx8fHx8fHx8fHx8fHx8fHx8fHx8fHx8fHx8f/8AAEQgAjAEAAwER&#xA;AAIRAQMRAf/EAaIAAAAHAQEBAQEAAAAAAAAAAAQFAwIGAQAHCAkKCwEAAgIDAQEBAQEAAAAAAAAA&#xA;AQACAwQFBgcICQoLEAACAQMDAgQCBgcDBAIGAnMBAgMRBAAFIRIxQVEGE2EicYEUMpGhBxWxQiPB&#xA;UtHhMxZi8CRygvElQzRTkqKyY3PCNUQnk6OzNhdUZHTD0uIIJoMJChgZhJRFRqS0VtNVKBry4/PE&#xA;1OT0ZXWFlaW1xdXl9WZ2hpamtsbW5vY3R1dnd4eXp7fH1+f3OEhYaHiImKi4yNjo+Ck5SVlpeYmZ&#xA;qbnJ2en5KjpKWmp6ipqqusra6voRAAICAQIDBQUEBQYECAMDbQEAAhEDBCESMUEFURNhIgZxgZEy&#xA;obHwFMHR4SNCFVJicvEzJDRDghaSUyWiY7LCB3PSNeJEgxdUkwgJChgZJjZFGidkdFU38qOzwygp&#xA;0+PzhJSktMTU5PRldYWVpbXF1eX1RlZmdoaWprbG1ub2R1dnd4eXp7fH1+f3OEhYaHiImKi4yNjo&#xA;+DlJWWl5iZmpucnZ6fkqOkpaanqKmqq6ytrq+v/aAAwDAQACEQMRAD8A6r5m/PG2tLuW10SzW8ER&#xA;K/XJmIjYjrwRd2HvyGKsftvzp8yXEpW7mgsYzurwWpmp7EPMpp9+Ks40LXvN+tWzXOi6to+oxpQS&#xA;RzQXEEikj9pVditaeFMVTVdZ89WxpeeX4rtR9qWxu0/COcRn/hsVV4/PGjpRdSjudHckAfpCFoUq&#xA;f+Lhyh/4fFU9hmhniWWF1licVSRCGUjxBGxxVfirxT80IbvV/wAxLPRby9Wy0544vQklNIkDgl3p&#xA;sOTMCo+gVxV6BoWsWOma7B5LhlNylvYrNBdM/qSVDENHL2rT4lp22p0xVleKuxVJvMPm7RNAaBdR&#xA;kdWuAzII43kISOnN24A0VeQxVM7O8tb21iurSVZ7aZQ0UqGqsD4HFVbFXYq7FXYq7FXYqo3t7aWN&#xA;pLd3cqwW0Cl5ZXNAoGKpb5e82aPr/wBZGntIWtSgmSWNomAkBKMAwGzcTTFU4xV2KsT13WLLVNen&#xA;8lyyG2S4sWnnulk9OSpYBY4u1ePxNXt264qwL8rYLnSfzDv9FtL0XunpFJ6skRrE4UrxelaclLcT&#xA;9IxV7Tiq2WaKGNpZnWOJBV3chVA9ycVSOTzrozErp63GrOpIP6PhedKj/i7aH/h8VUG1nzrcGln5&#xA;fjtVJ2lv7tBt7xwCY/8ADYqlOva/5u0W2W41nVdH02N6iNIoLi4kcgD7Ks6lqH2A8cVYLc/nR5lt&#xA;56WlxBfRbVee19HcHoAkrGh96YqyHy1+eVtdXMdrrlmLT1CFF5AxMQJ2+NG+JV96nFXmPnHy3N5d&#xA;8w3WmPUxIedrI37cL7o38D7g4pSTFU58peZbzy5rcGpW5JRSFuYQaCSIn4kP8PA4q+nIrqC809bq&#xA;2mpBcRCSG4FNldaq4rt0Nd8UPD9fvvzS8tzvPLqUt9p0hPC9XjcWrqTT4gwdUr/KfoxVR0L8xrOK&#xA;453Fu+j3Dmr3ulUWJj4zWUnKF/crQ+GKvV9H803kltFPdRpfadL/AHesadyeL/ntbmssR8acgO5G&#xA;KpH+cHlJta0SPV7FfUu9OUuQm5kt23alOvH7Q9q4q8x8k+Y9O0Bbm6t7W4ufMk0bW+n8eDQL6lPj&#xA;K/bLg9t64q9/8vasNT0yKZyPrkQWK/jWtI7kRq0se/8AIzUP3YqmWKpH5p5WNlP5gtYPrGo6dazL&#xA;DEfssjlHcMBuaekDt/HFXnP5XedriPXG068tvqWm627z6aihhCk3Ih1h5fsOwIoDs22KvYsVdirs&#xA;VdirsVdirx38z/OtzJrqWllbfXNK0OVJNQDKxge5r8CSlf2UO1Cd2rir0ry0GurOLXLiD6vqGqW9&#xA;u1zHXZQikooB3H94x333xVOMVSzzHq40vSpp0I+uSK8dhGwJElyY2aKPb+dloPuxV4B518yadr4t&#xA;rue1uLfzFFGkF/y4CBjGCCwWnNWJ7dsVemfk55UbR9El1m+X07rUVDIH29O2XdSa9Of2vlTFWQ6t&#xA;5nuo7WW4tkSw06L+81jUAyx+H7m3HGWU+FeIPauKvJtd/MazluOVvbvrFwhqt7qp5RKfGGyj4wp7&#xA;FqnxxVX8v335p+ZJ0nh1GWy06MgvesFt7VEBpsFCK9PAfTir2+W5hs7B7m5mrDbxGSac03VFqzmm&#xA;3QV2xV8x+bPMt55j1ufUrkkKx420JO0cQPwoP4++KUmxVO/J3lyXzD5htNMWoidudy4/ZhTdz92w&#xA;9zir1r86/LAv9Dj1mBK3Wmmk1Bu1u53r/qNv8q4oeFYpdir1n8sPM6an5fvvJd5MIrieCeLTJmPV&#xA;ZkYNH81Lch7fLFDBNH8weYfKeqTRQsYnjcx3thL8UTlfhZZE6fT1xV6FJ5U8o+ftDl1Ty5Euma1F&#xA;/f2gosfqUrxdB8NG/ZdQPfwCrDPJvm/VvJmtyQXCP9U9T09RsG6gqeJZQejr+PTFX0VZ3lte2kN3&#xA;bSCW2uEEkUg6MrCoOKvF/wA0Py4m0q4fzBoaFbEt6lzDHUNbvWvNKfsV/wCB+XRVH/lV5i1K38o6&#xA;ha6XYfpTVLe79Y2vqrEfRlQfHV/tUaM7DFWf+S/ONp5n017mOJra6t39K8tHNWjfqN6CoPbYYqyA&#xA;gEEEVB2IOKvPdU8lLax3Gkw/BpN3N9Z0a5APLTtQ6qtRuIpGHwnsdupBxVlvljWJNW0aG5nT0rxO&#xA;UF9AdjHcRHhKtP8AWFR7YqmuKuxV2KuxVKPNerzaXo0ktqofUJ2W206I/t3Ex4xjfw+0fYYqxbRv&#xA;KEV5Fa6a4D6Hp0xuL6dgeWo6gPtua7mFG23+1SnQVxV6BirH/OnnG08saalzJE1zdXD+lZ2iGjSP&#xA;1O9DQDvscVYB+avmPUbjyhp9tqlh+i9Tubr1ha+qsp9GJD8dU+zVpBsd9jiqD/LH8tZNUlTX9eRj&#xA;acvUtraSvKduvqPX9jw/m+XVV7Nd3VtZ2st1cyCG3gQySyNsFVRUnFXzr5z83ar5012O3tUf6n6g&#xA;i02xHUljxDsOhdvw6YqzIeVfJvkDR4tR8wRrqutyj9xaNQpzpUqiHbiv7TsD7DtirANc8z+YvNmo&#xA;xQSsWV3Edlp0PwxIWPFVVPH3OKs5/M7zTHpfl6z8l2MwluIbeGHUZlNeKRIAI9v2mK1b2+eKvJcU&#xA;uxV7r+SnlgWGhyazOlLrUjSGo3W3Q7U/123+VMUPRbiCG4gkt50EkMytHLG3RlYUYH5g4q+Y/Onl&#xA;W68ta7NYSgtbkl7OY9JIifhNfEdG98VSHFK+GaWGVJoXaOWNg0cikhlYGoII6EYqzB7/AErzkI11&#xA;SePTfMqqI11FxxtrsAUUT8R+7cdOdKfhihC2y+bfIOuQ3ktu8DA8d/iguIz1XmtVYEb9ajrirIfz&#xA;I0+w8waZB530McoZAsOrQj7cUgACs4HcVCn/AGJ74qjfyX87C3m/w1fyUhmJbTnY7LId2i37P1X3&#xA;+eKp55m/NW78v+a7nSNS0xZ9MUIUkQkStHIgJajVR96im3zxVieueXVijfzf5AvH+okE3dtbsyTW&#xA;tRVxxB5cPFe3XdeiqG/J3zCdP83fVZ5D6OrKYXLH/dwPKNjXqSar/ssVe/4q7FUhWMaV5pZl+Gz1&#xA;0bjst7An/M2FfvT3xVPsVdirsVdirH4kGq+a5Lhhys9CX0YP5WvJlBlb/nlEVUe7NirIMVdirwD8&#xA;4/MJv/N31WCT9zpKiFGU/wC7j8UjA9iDRf8AY4qjPL3l31FTzj5+vG+oKAbSC6YvLc0FUHE1Yp3C&#xA;9/8AV6qsr8t/mrd+YvNlvpOm6aItNIdpZpCTKsaKSGovwp8VBTfriqQfnP54FxN/huwkrDCwbUZF&#xA;OzSD7MW3ZOre/wAsVS/8ubOw8v6dcedtaWkUIMOkwnZ5ZWFGZAf+BB/1j2xVIZYfNvn3XZryK3e4&#xA;kc8Sw+GCCMfZQuaKoUfSfc4qijfaR5PDx6TPHqfmNlKSamgrbWoIowtq/bk/4s6eHfFWHySSSSNJ&#xA;IxeRyWd2JJJJqSSepOKVuKsg8j+U7nzNrsVkgK2iESXs4GyRA77/AMzdFxQ+mreCG3gjt4EEcMKr&#xA;HFGvRVUUUD5AYqvxVK/MPlrR/MFibPU4BLHuY5BtJGx/aRux/wAzirxjzV+Tev6WXuNKrqlkN+KC&#xA;lwo94/2/9j9wxV5+6PG7JIpR1JDKwoQR1BBxSn+l+Wru1vtPvNc0y6bQpjHLNPEjFGgcA8hIlRSh&#xA;rsa0xQ9V81ecvL3labTfLY0xLvQri3WWXk5kRYJHZV4B+fOnEt1+WKsY8w2F35F1CPWvLzC88ras&#xA;tJLWSskDK4r6T9agrujdeo+aqQv5c0zW3+veT7gx3gPqNoczhLmNh8VbeQ0Eqjt+0MVZHLNa+fdO&#xA;j0fV6ab5208FLeS4UxC4HdGBAox68abHddqjFWE2GoeZfJmusVV7O9hPGe2kB4SJ/K61oynsR8wc&#xA;VTfVNIstWtX80+VA0Etswm1LSR/e2rg8vWhp9qLlv/k/gFXtPkjzVb+ZdAgvlIF0o9O9hH7Eqjfb&#xA;wb7S+2Kp/iqA1zTnv9NkhhYJdIVms5T0SeIh4yaduQo3iKjFVbTb5L+wgu0UoJkDGNvtI3Rkb3Vq&#xA;g4qicVdiqE1e/wDqGnT3YT1HjWkMQ6vK5Cxxj3d2C4qs0PTTp2mQ2rt6k+8lzN/vyeVi8r/7J2Jx&#xA;VHYqkHnfzVb+WtAnvmIN0wMdlEf25mHw7fyr9pvbFXi+l6ZY6LCvmbzYhuLu4Jm0zR5NpLhya+vP&#xA;UHjHXff7Xy6qpNqGpeZfOWuJzD3l7MeFvbRj4I18EXoqjuT8ycVZot1B5D0p9F0gi/8AOmpAJdyQ&#xA;D1PqwNaRpSpLjsPHc9hirH4fLuk6Ifr3m+cyXleaaFA4e4kY7/6RIKiJT3/axVPfLOny+d9Rk1nz&#xA;AFtPK+jJxhtUrFboqivpJSnwqoq7deg+SrKfKnnXQPM8+p+XRpiWeh29u0sRRjErQRuqtzCcOFeQ&#xA;NAfGuKvKdT8t3l1e6heaJpd0mhRGSWGaVWCLAgJ5GR6DoK9a4qkMcUksixxIZJHIVEUEsSegAGKX&#xA;oHlj8mPMOpGOfVT+i7M7lHHK4Ye0f7P+yNR4Yoez+XvLekeX7AWOmQ+lFXlI5NXkalOTt3OKpnir&#xA;sVdirw380PMPmjRvO92tlqdzb200cMsMKSMIwPTCGiE8d2Q9sVYJrGvarrMyz6lMLidBxExjjVyP&#xA;BmRVLf7KuKWd/ld+ZculzQaHqrhtLkbjb3DHeBmOwJ/32T93yxQyn8x7fyvq+oJpWuNJo1+ik6Vq&#xA;7gG2lVgCyMwP7LdQ1KdQd91WMWR81+TbSTTta04a35RuRVzF++hCsa84pAPg33o1N9xQ74qltz5G&#xA;0zV63/ke/F0R8Z0mdhFeRU3+HkRzC+P4nFUs1DzB5hhUab5nsjeGIUiN6jR3cVO8dwOMnX+bkvti&#xA;rR87TXtoLDXrUatZx1FtNK/G8hB6cLkDf5OpBxVLNO1mfRNYTUNFnkRojVDKoBKn7UbqpIZex8fb&#xA;FXoGh6oltM/nHytCRbii+ZvLyH+7U1PqwjunVl/l37VAVewaZqVlqdhBf2UomtbhQ8Ug7jwI7EdC&#xA;MVROKpZYr9T1W6sukF1W8th2DEgXCj/ZssnuXOKpnirsVSq7H13W7a16w2A+uXA8ZG5JAv8AxN/Y&#xA;hcVTXFUFrOsWGj6bPqN/J6VtAvJj3J7Ko7sx2AxV4/qmrGV186+aIQ5kBHljQXNVKg1E0op9gda/&#xA;tH2pirAb7VptY1aTUNauJZHmPKR41DNQdEUEqFXsPDwxSmQ86T2Vo1joFuNJtZBS4njbneTD/LuC&#xA;BT5IqjFC/T9d8wTg6f5ZsTaNIOMrWSNJdyA9TJcHlJ/wPFfbFU0tvIum6QPr/njUFtK/GNJgcS3k&#xA;td/i4k8QfH8RiqZXn+K/OVpHp2jaeND8oW+6GU+lCVU15ySH7e+9Frv1qd8VZP8Alxb+V9I1B9K0&#xA;NpNZv3UHVdXQAW0SqCVRWJ/aboFrXqTtsqxX80fzLl1WWfQ9KcLpcbcLi4XrOyncA/77B+/5Yqwf&#xA;R/MGraNI8umSrbzOKGYRxvIB4K7qzL/saVxSzr8rdf8ANOtedrZb3U7m4toIpppoXlb0yOBjFUB4&#xA;7NIO2KHuOKuxV2KuxV5b+eXluS50+112BOTWVYLug39JzVG+SvUf7LFXimKXYq9e8qfmF5V1fy7H&#xA;oHnEKWhAjSeZWZJFUURuajkkijbl9Nd8UJdc6PodnOT5R88LYJI1RazzyRICfGVNqf6y/TiqCuvy&#xA;l8+O51CKS3vpZD6izQXA5MezKziMb+NcVdaeab2ylbStbv720liPGW21OCPU4P8AZBxHKi0/l5e2&#xA;Ks00XyJ5U8xWrT3Nnp0i/wC677R5poxXwe3YcYz9J+jFWD6r5S/LuS5eDR/NAiuFJX0r6KT0qjan&#xA;rqiKPuOKpXDB5n8j6tbakEBifaO4jYS2tzEftIJFqrBh26jrir0Hy75j0/RmTWtMJ/whqkgXUbSt&#xA;W0y8favEdInP+fQFV6mrKyhlIZWFQRuCDiqB1lGW3S9jUtLYP64UdWQArKoA6kxs1B/NTFUcrK6h&#xA;lIZWFVYbgg9xirUkkcUbSSMEjQFnY7AACpJxVA6JFJ9Va7mUpcXzm5kRtioYBY0I7FI1VT71xVHs&#xA;yqpZiFVRUk7AAYq8q1/W7DWppPMWr7+UdJkMelWR2Oo3YqOVO6A/h/shirz64j8zedtWudSMYMa/&#xA;3k8jCK1tol+yhkeiKFHbqevXFU00nyn+XyXCQa15pWSdiAYrGKQx1P8Ay8MjIfuGKs71fyN5T8uW&#xA;qzwWWnIoHx32sTyyDl4LbgFZD7ArirC7zzXfX0q6VouoX15JKeENtpkEemwe/EIJJXWnXlxxVq1/&#xA;KXz4jjUJZLexljPqNNPcDkp7szIJBt41xVG2+j6HeTg+bvPC36RkE2sE8ksZI8JX2p/qr9OKpj5r&#xA;/MLyrpHl2TQPJwUNMDG88KsqRqwo7c2HJ5GG3L6a7Yq8hxS7FXtn5GeXZLbTbvW504tfEQ2tevpR&#xA;n4mHsz7f7HFD1HFXYq7FXYqp3NtBc28lvcIJYJlKSxsKhlYUIPzGKvC/PH5RarpUst7oqNe6YSW9&#xA;FatPCOtCvV1HiN/HxxV52QQaHYjqMUp35U8v2ur3kzX92LDSrKP1r67O5C1CqiDu7k0H8emKE3vP&#xA;MvkWxJg0Xy4l2i7G81GSR3kp39NSAv3/AEYqyXyZ+bGgWCmyudMGlQyn+/tGeSFWP7RhYkj3K1Pt&#xA;irvODW+qfVofM5hEU9f0L5tsV5QupqRHcRgmg8aH4T02qcVYlP5X88+WZ1vbJZvRI5RajpztJC6d&#xA;Qecf7J/yhiqyXzvNeMV17SrPVJOj3Dxm3uajxlgMfT/KBxVDw+Y7azR4tPimGnXBH1vSLtxcW8g8&#xA;QyiJlYfssByH83iqraVrNvot2bqyJu9EvgYdS0uY/F6bdY3psStaxyD8Nxir178uNdiCfoE3Bube&#xA;OP19EvG2M1nWnpt/xZA3wMP4YqznFUDpQ9BZbA7fVG4wj/ih94qeyisf+xxVvU0Fwsdj1W5b98P+&#xA;KUoZAfZtkP8ArYqjcVYL+YmvRMDoC3JtbYxfWNdvF6w2daekv/Fk5+FR+FDiryfWdXh1ueO8vgbL&#xA;QLFRBpWmREcyi0HCOvc0/eSnp7mgxVBzeY7a8VIr+KX9HW5/0TSLN1t4EHiWZZWZj+0xHI/zeCqJ&#xA;g87z2NE0DS7PTJNglwsZuLqv/GWcydf8lRiq+Dyv558zTte3qzeiAWl1HUWaOFE6k8pP2R/kjFWW&#xA;eTXt9M+sxeWTCYYP+Oz5tv14woo39O3jJXbwqdz12pirfnP82NAv1FlbaYNVhiP9/ds8cLMP2hCp&#xA;BPsWofbFWOWnmbyLqD+hrnl2OzjfYXmmu6NH2qYySG/z2xVJ/Nnl+10e9iNheLqGl3kfrWN2tKlO&#xA;RUq47OhFD/DpiqR4peheRfyl1PV5Yr7WEay0oUYRtVZph4KOqKf5j9HiFD3a3t4La3jt7dBFBCoS&#xA;KNRRVVRQAD2GKqmKuxV2KuxV2KpV5p1m70XRLjVLay+vm1AeW3Enpn06/EwPGT7I3O3TFXg3mzzr&#xA;onmL1JX8vx2d8xJW8hnIcn/iwemFk96ivuMVYkJJAjRhiI2IZkrsStaEj2qcUs7spfJ/lPSrWe8s&#xA;49d8x3kSz/V5CDbWqSDkiuPiBehBIpX5d1CI0Lz3f67rdlpMug6XPaXcyxPbJa0Kxk0ZlbkePBam&#xA;uKom5utJCeY/K2i6PdXMDSOqL66yWtvLExVbgO6AxDb4uT0PSuKpHorarp5OnaZqd/f3LVLafo0k&#xA;ghUnbk09GWvuiEf5QxVmFjoX5w3EPENBZRvTe/kF5IVqacjN9bI67gAfLFXXXkX8xSpa8t9D1fv6&#xA;bQRxt0pQOkVsw/4LFWCeavLV7pxaWfRbjSD0ZQxuLQk/yS78fkWb5jFUF5b8w3elXUDRycfRl9e2&#xA;Y9I5acWr/kSr8Entv+yMUvpbRtVt9W0u31C3qI51rwb7SMDR0b3VgVOKG7z07e4jv2YRxIrR3LsQ&#xA;qiM/EGYmn2WH0Bjiq6zdLiR7xSHjeiW7qagxjfkDv9pq9OoAxVbrGpwaXplzqE9THboW4D7TN0VF&#xA;/wAp2IUe+KvmrzL5gutTu5+cnL1pjPdOpqJJqcQR/kRL8EftvtyOKUV5U8uajqbCWLRbjVwPhiUu&#xA;YLUUNfjl2r/qhl+eKGeWvkX8xQA9pb6HpHf01gjkbwoXeK5Y/wDBYq6+0P8AN+3g4t6F7GlaGwl+&#xA;pyAV7GD6rXpsCD8sVYjrjalqHHTtR1TULC5XcadrUkhiYjoVnoq/S6Af5WKp3aXmk8fLnlfWtGur&#xA;eBJEVlM6paTyysFa5LotZdz8NHoK0riqH1rz7qGg67e6VFoOlw2lpM8aWzW27Rg0ViwYVLpQ1piq&#xA;F1S78meatKuZ7OxTQ/MVpE1x6EZAt7mOMcpFWnEcwoLAcQfn2VYIZJCixliY1JZUrsC1KkD3oMUs&#xA;v8q+d9D8vLFJH5diu71KF72actJXv6YMZWP2oK+NcUPd/K2s3etaJb6pc2X1A3QLxW5k9Q+nX4WJ&#xA;4x/aG426YqmuKuxV2KuxV2KuxVplVlKsAysKEHcEHFXh/wCYP5S31hcS6joELXOnSEs9nGC0sFeo&#xA;Ubl08Kbj8cVYFpdrpU1yYdUu5bCPoJkg9ehHUOvONh9FflilkMXlbyNx9SbzhGI6V4pZTlz7UJGK&#xA;GV+VLnQ9OEsfkrRL3XdRmUxSapdAQQqG2ID7cR7fCffFU2m8nRwacLzzvqcNppEB5poung29mrda&#xA;HiA8rH2+L3OKse1H84LXToDp/k/S4bK0WoFxKgq3+UI1pv7sT7jFWG6j57846g5a51e5o3VIpDCn&#xA;/AR8F/DFUDB5h1+B+cGp3UT/AMyTyKfwbFLK9D/OHzTYUi1Apq1mdnjuAA/HuBIo/wCJBsUJzP5f&#xA;8ieeIWn8typo+vULNpsvwRyHqaKNvpj+lcVT78oLvU7SbUfLmpRPDdWdJWif9novIHoQ68aU8OX7&#xA;WKsg/NGWyj8jal9cWR4W9JQkLBHLeqpX4irgCvXbpiq38qp7GXyRYCyEqxRmRGSZw7B/UYsOQCCm&#xA;9RtiqRfm7darfTad5Z0uJprm8rMUUdQCVBJ6BU3Jrt0P7OKpBHoHkLyNEs3mKRdZ16gZdOio8cZp&#xA;XdTQfTJ17LiqTa7+cXmq/JisGTSrMfCkVuAX49gZGH/EQuKsVn8xa/cPzn1O6lf+Z55GP4tilG6f&#xA;57842Dh7fV7nbokshmT/AICXmv4YoZjp/wCb9rqMA0/zhpUN9aNsbiJRyX/KMbd/dWFOwxVkEXku&#xA;G40/675H1SG60qY8n0a/H1i0Y9StGBeNvmOX+UMVSrzVc6LqPpReddDvND1CICKPVbWk0TKOgZ9+&#xA;Q9viPvirFZfK3kanqQ+cIzH1o9lOHG/TiCSfuxVjmp22mRXfo6ZdSX0XT1nh9Dkx7KnOQkfOnyxS&#xA;z/8AL78pb6/uItR1+FrbToyGSzkBWWenQMNiieNdz+OKHuCqqqFUBVUUAGwAGKt4q7FXYq7FXYq7&#xA;FXYq7FUu1Dy35f1F/Uv9NtrmT/fksSM//BEVxVD2/kzylbyCSHR7NZB0b0IyR8qjbFUzuJ7Wxs5b&#xA;iUiK1to2kkIFAqIKnYeAGKvmjzp5w1DzPqz3U7MlohIs7Svwxp8unJv2j/CmKsfxS7FXYqznSPyf&#xA;816npEepRtbwrOokgt5nZZGQioOyso5DpU/dihimpaXqui6g1rfQyWd7CQwB2I8GVhsR4EHFL138&#xA;uvM891rcGneZ7d4PMUMBWxvpVMcs9u45GKUEDn9nkp708a1UMu/MfTf0h5J1aAfaSE3Cn3gIl/EJ&#xA;TFUP+Vmmmw8j6arfbuFa5b/nsxZf+EpirGPzG80z2es3OneWYZJtfuIFXUL2IGSSC3jBYRRgA8ft&#xA;FmPavjSiryPTNL1bWtQW1sYXu72YliBuT4szNsB4knFLK9X/ACf816ZpEmpSNbzLApknt4XZpFQC&#xA;pO6qp4jrQ/fihg2KXYq7FU/8meb9Q8s6vHdwMz2rkLeWtfhkj77dOQ/ZP8K4ofTFvcWt9ZRXERE1&#xA;rcxrJGaVVkcVGx8QcVSy48meUriQyTaPZtIerehGCfnQb4qiNP8ALnl/Tn9Sw022tZB/uyKJFf8A&#xA;4ICuKpjirsVdirsVdirsVdirsVdirsVdirsVY7+YiTv5I1kQ/bFuzH/UUgv/AMKDir5kxSy/8sfL&#xA;Wj6/5ha21RyYYYWmS2VuLTMpHwVG9ACSab4oRnnm4/La504NoVtPp+rwyBHtmjdAUGzeoGLKCPbf&#xA;xxVgmKX1P5S1GDUfLOmXkBBSS3jBA3oyqFdf9iwIxQxH87dDgu/LC6qFAudOkT953MUrCMr/AMGy&#xA;nFUw1by5LrfkvSrq3/d69YWsF1p042ZZkjVinbZ6U+dDiqD86eZBqX5TTarAODX0UUciD9hmlVJk&#xA;+ghlxVS8i+ZRp35ULqU/7xtPE0USH9t/UIiT6S6riqY6N5bk0Pyfql5cj1Nfv7ae61G4Iq5ldGf0&#xA;/khPTxxVL/yT0KC08rnVSgNzqMj/ALzuIomMar/wSscVZd5t1GDTvLOp3k5ASO3kAB2qzKVRf9kx&#xA;AxV8sYpZ35FuPy3g09jrtrPf6xNL6cdssbuOJoF9MKyqST47+GKEH+Z3lnSPL/mFbbS5D6M0Ime2&#xA;ZuTQsxI4V60IFRU1xViGKX01+XUc0fkfRlm+2bcMK/yMSyf8KRihkeKuxV2KuxV2KuxV2KuxV2Ku&#xA;xV2KuxV2KuxVbNDFNE8Mqh4pFKSIehVhQg/MYq+bvNnlWTyl5ojjuoTcaWZVmtmO4lgDAsh/ygPh&#xA;b7+hxVmXnrylYXOmwedPJhESxgSzpafu6KP92oq04OnR1Hz7GqqTeXfOvmvXLr6i2j6f5guljLsb&#xA;uGITNGtAfjLIp6+BOKp9Fdfl7rMx0XzFoC+WdWI4xsqLAvI7ArIqoPlzXj7nFUz8ope+R9c/w1qc&#xA;vq6NqbmTR787L62waJuvEttt49OuKs71zR7bWdLm026LC3uOAl4bEqrhyAffjTFUaiKiKiAKqgBV&#xA;GwAHQYq8q89Wr2HlfzXpij/R0vLa/t/8mO8kXkKdlE0b0xVS/Ly2OoeXPLumsK251C5v7geKWYHE&#xA;EeHrSpXFXrToroyOAysCGU7gg9RiqC0PR7bRtLh021LG3t+Yi57kKzlwCfblTFWCebVvvPWt/wCG&#xA;tLlEWj6a4fV7/qpm3CxINuRXfbx+W6qVyXP5f6HONH8uaCPM2sps8jKJ1DL1YuVcVHfgoHuMVSHz&#xA;F5382aPd/VP0Rp+gXrIHD20EZnCPUfbrIBWngDiqc+SfJ2mW2kT+cvOn78SAzQxXR51U9JJFb7by&#xA;H7Kn+OyrDfKnlS483eZJFtYTbaX6xluXUUWGFmJCL25EfCo/gMVfSMEMUEMcMShIolCRoOgVRQD7&#xA;sVX4q7FXYq7FXYq7FXYq7FXYq7FXYq7FXYq7FXYqgda0PS9asHsdSgW4t334nYqw6MrDdWHiMVea&#xA;SeTPO3ki6kvvKk51LS2PKfTpN3IA/aQUDn/KSje1MVSuztPIvmi9WSwml8peZ1aohBpCZQf917pQ&#xA;+wKn2OKo7X7jVLKGLSPzEsV1HS2PC08w2o/exMe5IA3HcECtP2sVV7OEmCPyVr90L3SNTQSeV9dX&#xA;ejKB6a1rsVrsK/5PQjFWY+Rdb1C7tbrSdY21vRnEF43+/UIrFMP9dR/HvirJ8VYf+aOnxP5M1udQ&#xA;fWkgt1cj+W3n9Rf+Jtiql+U2nxJ5K0m6YH1wl0FO2yy3BJ+/0lxVmuKsX8963qFra2ukaRvresub&#xA;e0P++kArLMf9RT/HtirDr0FLdvJXlu5FnpunL6nmfXmNACd5AW/mam4r/k9AcVUtAn1a/gfSfy8s&#xA;l03SYzwuvMF0P30zDqa0O+/QCo/ycVQN9a+QvLF6XvZZfNvmZmq0RasQlr+3TnvXsS59hiqax+Tf&#xA;Ovne5jvfNcx0zS0PKDTYhR6eyGvA/wCU9W9qYq9K0fRdM0axSx023W3tk/ZXqT3ZmO7MfE4qjcVd&#xA;irsVdirsVdirsVdirsVdirsVdirsVdirsVdirsVdirGPOP5f6H5mt2M0Yt9RC0hv4wA4I6B/519j&#xA;9FMVYX5O1+6+vXX5e+cUFwGrBbyynkTQclQseoK/FG3Ube1FUgnL2vknzBo0kpaXy1q0Z0+Ymjrz&#xA;laP4fAHgzbeOKvWdF0m4fWV8xTUjkvdMtobiEbEzgl2Zv9UEKMVZDiqT+cbQ3flTV7cCrPZzcB/l&#xA;CMlfxGKqPkO2Nt5M0aIihNpFIR7yLz/42xVPsVSDWtKnXVm1+Gjy2em3UNvGeomYq6MPmFIxV5HA&#xA;JbryP5f0W3k4TeY9Ul+vy1qz+nIqfF4gc1b6MVZF5w167a+tfy98nL6HECC5ljPEjarJyHQKtWkb&#xA;qfvqqzLyb+X+ieWbdTDGLjUSP319IBzJ7hP5F9h9NcVZPirsVdirsVdirsVdirsVdirsVdirsVdi&#xA;rsVdirsVdirsVdirsVdiryL879MezvtK8yWn7udXEMkg7SRn1IW+ezfdiqEvNMj1DXtf0UkQP5og&#xA;ttU0eZz8DzIDLwr/AJReRfoxV6n5Z1Q3+lRCaI29/bKsN9aPs0UygAj3VvtKe4xVNcVcyhgVYVU7&#xA;EHoRiqyGGKGFIYl4RRKEjUdAqigH3YqvxVKfNGpyWOlSLbRNcajdBoLC1TdpJmU0+SqPiYnoBirz&#xA;HT9MXS/MWhaOHWf/AAtbXWpaxOn2FllXmUr7cYxiqv8Akfp8l5f6x5huhzndvRSU93lJlmPz+z9+&#xA;KvXcVdirsVdirsVdirsVdirsVdirsVdirsVdirsVdirsVdirsVdirsVdiqTeb/LcHmPQbjS5W9Np&#xA;KPBNSvCVN1anh2PtirzWC3mtLK38ueebWWyWxamieZYKlYTX4FMy7BdhSvQUqBSuKvUdBk1Y2np6&#xA;kY55I6elqEBHp3KEfDJwBqjfzDp4HwVTLFXYq7FXYql+uNqIsXFhJFbzMCGvZ6cIEpVpOJ+0QOg6&#xA;eJxV5dcW897Y3Hl3yPby3i37n9OeZZ6hJjU8gJT1G5rx7dAa1xV6R5Q8tW/lvQbfS4m9R0q9xNSn&#xA;qStuzU/AewxVOcVdirsVdirsVdirsVdirsVdirsVdirsVdirsVdirsVdirsVdirsVdirsVWy+n6b&#xA;+rT0qHnypx403rXtiqT6J+gvrc36Fr9X39b6vX6l6ld+H+6+fXl6f+y3piqdYq7FXYq7FUi1/wDw&#xA;/wDWoP07y+q7ej9Yr9S9Sv8Auz/dfPw9X/Y98VTuL0vSX0uPpUHDhTjTtSm1MVXYq7FXYq7FXYq7&#xA;FXYq7FXYq7FXYq7FX//Z</xmpGImg:image>
               </rdf:li>
            </rdf:Alt>
         </xmp:Thumbnails>
      </rdf:Description>
      <rdf:Description rdf:about=""
            xmlns:xmpMM="http://ns.adobe.com/xap/1.0/mm/"
            xmlns:stRef="http://ns.adobe.com/xap/1.0/sType/ResourceRef#"
            xmlns:stEvt="http://ns.adobe.com/xap/1.0/sType/ResourceEvent#">
         <xmpMM:InstanceID>xmp.iid:A1A92EAE336FE41195E3D1493AEF96AB</xmpMM:InstanceID>
         <xmpMM:DocumentID>xmp.did:A1A92EAE336FE41195E3D1493AEF96AB</xmpMM:DocumentID>
         <xmpMM:OriginalDocumentID>uuid:5D20892493BFDB11914A8590D31508C8</xmpMM:OriginalDocumentID>
         <xmpMM:RenditionClass>proof:pdf</xmpMM:RenditionClass>
         <xmpMM:DerivedFrom rdf:parseType="Resource">
            <stRef:instanceID>xmp.iid:A4B6100F196FE41195E3D1493AEF96AB</stRef:instanceID>
            <stRef:documentID>xmp.did:A4B6100F196FE41195E3D1493AEF96AB</stRef:documentID>
            <stRef:originalDocumentID>uuid:5D20892493BFDB11914A8590D31508C8</stRef:originalDocumentID>
            <stRef:renditionClass>proof:pdf</stRef:renditionClass>
         </xmpMM:DerivedFrom>
         <xmpMM:History>
            <rdf:Seq>
               <rdf:li rdf:parseType="Resource">
                  <stEvt:action>saved</stEvt:action>
                  <stEvt:instanceID>xmp.iid:9FB6100F196FE41195E3D1493AEF96AB</stEvt:instanceID>
                  <stEvt:when>2014-11-18T22:56:30+08:00</stEvt:when>
                  <stEvt:softwareAgent>Adobe Illustrator CS6 (Windows)</stEvt:softwareAgent>
                  <stEvt:changed>/</stEvt:changed>
               </rdf:li>
               <rdf:li rdf:parseType="Resource">
                  <stEvt:action>saved</stEvt:action>
                  <stEvt:instanceID>xmp.iid:A1A92EAE336FE41195E3D1493AEF96AB</stEvt:instanceID>
                  <stEvt:when>2014-11-18T23:00:48+08:00</stEvt:when>
                  <stEvt:softwareAgent>Adobe Illustrator CS6 (Windows)</stEvt:softwareAgent>
                  <stEvt:changed>/</stEvt:changed>
               </rdf:li>
            </rdf:Seq>
         </xmpMM:History>
      </rdf:Description>
      <rdf:Description rdf:about=""
            xmlns:illustrator="http://ns.adobe.com/illustrator/1.0/">
         <illustrator:StartupProfile>Print</illustrator:StartupProfile>
      </rdf:Description>
      <rdf:Description rdf:about=""
            xmlns:xmpTPg="http://ns.adobe.com/xap/1.0/t/pg/"
            xmlns:stDim="http://ns.adobe.com/xap/1.0/sType/Dimensions#"
            xmlns:xmpG="http://ns.adobe.com/xap/1.0/g/">
         <xmpTPg:HasVisibleOverprint>False</xmpTPg:HasVisibleOverprint>
         <xmpTPg:HasVisibleTransparency>False</xmpTPg:HasVisibleTransparency>
         <xmpTPg:NPages>1</xmpTPg:NPages>
         <xmpTPg:MaxPageSize rdf:parseType="Resource">
            <stDim:w>260.000000</stDim:w>
            <stDim:h>400.000000</stDim:h>
            <stDim:unit>Pixels</stDim:unit>
         </xmpTPg:MaxPageSize>
         <xmpTPg:PlateNames>
            <rdf:Seq>
               <rdf:li>Cyan</rdf:li>
               <rdf:li>Magenta</rdf:li>
               <rdf:li>Yellow</rdf:li>
               <rdf:li>Black</rdf:li>
            </rdf:Seq>
         </xmpTPg:PlateNames>
         <xmpTPg:SwatchGroups>
            <rdf:Seq>
               <rdf:li rdf:parseType="Resource">
                  <xmpG:groupName>默认色板组</xmpG:groupName>
                  <xmpG:groupType>0</xmpG:groupType>
               </rdf:li>
            </rdf:Seq>
         </xmpTPg:SwatchGroups>
      </rdf:Description>
      <rdf:Description rdf:about=""
            xmlns:pdf="http://ns.adobe.com/pdf/1.3/">
         <pdf:Producer>Adobe PDF library 10.01</pdf:Producer>
      </rdf:Description>
   </rdf:RDF>
</x:xmpmeta>
                                                                                                    
                                                                                                    
                                                                                                    
                                                                                                    
                                                                                                    
                                                                                                    
                                                                                                    
                                                                                                    
                                                                                                    
                                                                                                    
                                                                                                    
                                                                                                    
                                                                                                    
                                                                                                    
                                                                                                    
                                                                                                    
                                                                                                    
                                                                                                    
                                                                                                    
                                                                                                    
                           
<?xpacket end="w"?>
	</metadata>
<g>
	<path fill="#727171" d="M2.93,150.367v2.297c1.261,1.806,4.271,8.072,5.137,9.99c5.917,12.9,6.915,12.778,18.985,18.893
		c0.771,0.376,1.741,0.922,2.446,1.336c0.922,0.536,1.759,0.998,2.117,1.713l-10.867-1.393c0.066,6.153,2.71,13.322,6.689,17.387
		c3.83,3.904,13.99,7.922,14.63,9.164l-10.142,0.197c0.404,1.4,2.211,4.109,2.888,4.977c3.773,4.752,8.759,7.752,15.571,7.961
		c18.11,0.525,28.526-16.945,49.149-10.84c5.871,1.75,10.875,4.328,15.222,8.262l4.093,3.875c-0.564-2.539-3.199-7-4.385-9.145
		c-2.408-4.311-5.315-7.678-8.59-11.348c-0.988-1.101-1.957-2.521-2.954-3.611l-6.238-6.888c-3.951-4.798-8.515-9.39-12.993-13.519
		c-2.38-2.192-12.23-11.3-15.787-9.794c-0.772,3.575,4.544,8.666,6.924,10.594c3.001,2.426,7.009,4.798,10.612,6.943
		c-4.676-0.208-12.522-4.667-14.95-6.907c-1.929-1.787-3.707-3.48-5.316-5.795c-1.42-2.051-3.076-4.317-4.402-6.454
		c-1.345-2.183-3.039-4.591-4.714-6.397c-2.051-2.221-3.001-3.331-5.692-5.156c-2.229-1.505-13.557-6.548-16.295-3.782
		c0.01,3.123,8.43,5.927,11.422,7.396c7.329,3.584,7.479,11.111,14.019,16.521c1.279,1.054,2.738,1.797,4.14,2.671
		c1.571,0.997,11.243,5.589,12.052,6.831c-3.942-0.376-9.935-3.33-12.889-4.977c-4.064-2.249-7.216-4.695-9.879-7.536
		c-3.152-3.378-13.332-16.935-18.958-15.393c-1.571,3.933,2.729,8.779,4.328,10.34c2.38,2.325,6.407,3.961,9.427,5.448
		c8.533,4.215,3.556,6.943,16.578,13.473c7.611,3.819,15.354,3.913,23.455,6.585c4.299,1.43,6.98,3.237,9.512,5.636
		c1.364,1.298,2.578,2.229,3.942,3.631c0.649,0.658,2.945,3.144,3.095,3.999l-4.591-4.008c-1.637-1.316-3.048-2.408-4.911-3.679
		c-2.596-1.771-9.248-5.307-12.983-2.794c0.574,1.335,5.429,2.323,6.887,2.822c1.241,0.433,2.464,0.922,3.688,1.374
		c0.696,0.244,1.213,0.442,1.862,0.657c0.254,0.086,0.716,0.228,0.941,0.329l0.706,0.425c-4.695-0.075-12.476-2.127-16.352-3.726
		c-2.418-0.998-4.535-2.184-6.924-3.171c-1.337-0.555-6.36-1.948-7.188-2.747c4.695,0.047,8.854,1.759,13.087,2.117l-0.828-0.658
		c-1.844-1.072-4.385-1.628-6.379-2.202c-2.719-0.791-5.015-1.11-7.63-2.202c-5.74-2.408-11.14-5.814-14.235-10.519
		c-2.963-4.479-6.417,1.9-1.75,5.287c6.539,4.742,10.377,4.78,12.993,6.36c-2.917,0.791-6.802-0.15-9.352-1.167
		c-2.427-0.959-5.156-2.738-7.226-3.462c0.395,3.067,9.296,7.865,13.652,8.383c3.264,0.385,6.981,0.178,9.371,1.759
		c2.333,1.543,3.415,3.444,5.936,5.166c9.644,6.567,17.424,2.398,26.795,6.529c0.132,0.066,6.972,3.905,6.869,4.141l-0.358,0.104
		c-2.625-1.825-10.8-4.422-15.1-4.693c-13.435-0.848-23.982,12.539-37.878,12.146c-2.041-0.058-6.35-0.669-7.451-2.701
		c8.035,0.819,14.969,0.988,18.375-4.639c2.86-4.714-2.776-4.459-6.013-3.48c-4.233,1.3-4.45,3.104-7.178,4.779
		c-1.082-2.636,1.957-6.735,6.962-7.508c8.119-1.261,8.175,2.051,12.212,2.39c-0.537-2.615-7.188-6.867-11.14-7.525
		c-3.989-0.658-8.834,1.854-11.403,4.646c-0.245,0.264-0.348,0.434-0.592,0.659c-0.518,0.518-0.198,0.217-0.611,0.507
		c-0.424-4.045,2.106-5.945,5.184-7.037c4.893-1.74,9.483-0.376,10.358-0.94c-3.509-1.393-3.801-2.823-9.202-2.559
		c-9.399,0.452-7.912-4.102-13.039-9.833c-1.6-1.796-4.743-3.64-4.902-6.594l8.063,1.919c-1.515-3.114-5.419-5.589,1.468-6.463
		l-0.631-0.668c-0.131-0.113-0.479-0.301-0.64-0.405c-15.684-9.832-14.526-16.832-19.24-22.627
		c-3.067-3.763-4.544-3.387-9.878-4.629c3.519-1.731,20.745,1.393,24.818,2.559c3.65,1.044,6.897,2.39,10.284,3.849
		c2.907,1.27,6.934,3.64,9.521,4.354c-2.945-2.372-8.336-4.817-11.996-6.426c-9.85-4.347-27.783-8.204-38.499-5.146
		C5.169,147.47,4.66,148.025,2.93,150.367z"/>
	<path fill="#727171" d="M255.383,152.664v-2.297c-1.025-1.392-0.658-1.477-2.145-2.389c-9.324-5.759-32.543-0.264-41.67,3.772
		c-3.594,1.59-9.125,4.111-11.996,6.426c2.748-0.809,6.521-3.049,9.521-4.355c3.388-1.468,6.623-2.795,10.283-3.849
		c4.063-1.167,21.304-4.291,24.812-2.559c-5.25,1.224-6.888,0.894-9.869,4.629c-4.912,6.125-2.269,10.021-16.07,20.529
		c-0.818,0.622-1.363,0.932-2.115,1.411l-2.324,1.76c6.764,0.865,3.047,3.207,1.459,6.463l8.07-1.919
		c-0.178,2.973-3.293,4.789-4.91,6.594c-5.129,5.749-3.641,10.285-13.031,9.833c-5.41-0.264-5.701,1.167-9.211,2.559l1.195,0.206
		c3.387-0.301,5.795-0.47,9.174,0.734c3.076,1.101,5.607,2.974,5.174,7.037c-0.414-0.29-0.084,0.011-0.602-0.507l-1.779-1.771
		c-0.818-0.64-1.684-1.186-2.746-1.769c-2.221-1.242-4.422-2.276-7.471-1.77c-3.951,0.658-10.602,4.911-11.139,7.526
		c1.523-0.122,3.648-1.543,5.221-2.106c3.426-1.187,9.551-0.641,12.061,1.957c0.867,0.902,2.578,3.604,1.883,5.269
		c-1.092-0.679-1.899-1.825-3.151-2.738c-3.78-2.755-13.746-4.676-10.028,1.438c3.405,5.627,10.34,5.459,18.375,4.64l-1.336,1.187
		c-0.584,0.328-1.056,0.545-1.74,0.78c-4.074,1.431-9.287,0.583-13.088-0.733c-9.097-3.161-19.418-11.291-29.177-10.678
		c-4.299,0.271-12.465,2.868-15.09,4.693l6.5-4.253c9.324-4.093,17.343,0,26.808-6.528c2.521-1.731,3.61-3.623,5.936-5.157
		c2.389-1.581,6.105-1.374,9.371-1.759c4.346-0.518,13.246-5.316,13.641-8.383c-2.061,0.724-4.797,2.502-7.215,3.462
		c-2.551,1.017-6.445,1.957-9.354,1.167c2.297-1.44,6.625-1.75,12.994-6.36c4.655-3.387,1.205-9.766-1.75-5.287
		c-3.105,4.704-8.496,8.119-14.234,10.519c-2.625,1.091-4.91,1.411-7.631,2.202c-1.213,0.348-2.389,0.715-3.65,1.166
		c-0.594,0.208-1.213,0.415-1.844,0.659c-1.158,0.433-1.035,0.301-1.713,1.035c4.234-0.357,8.383-2.069,13.078-2.117
		c-0.818,0.81-5.842,2.192-7.178,2.747c-2.4,0.988-4.519,2.173-6.937,3.171c-3.781,1.562-11.75,3.688-16.343,3.726
		c0.048-0.047,0.142-0.17,0.17-0.123c0.027,0.057,0.132-0.085,0.179-0.104l1.299-0.527c0.64-0.225,1.168-0.413,1.854-0.658
		l7.34-2.521c1.186-0.386,2.822-0.697,3.234-1.675c-3.734-2.521-10.386,1.035-12.974,2.794c-3.5,2.381-6.332,5.033-9.504,7.687
		c0.351-2.061,5.517-6.191,7.039-7.63c8.946-8.477,22.514-6.972,33.125-12.297c3.416-1.732,7.028-3.933,8.946-6.209
		c1.263-1.515,1.779-3.01,3.183-4.413c1.326-1.336,2.746-2.004,4.629-2.936c6.146-3.03,12.213-5.824,13.634-12.88
		c1.579-7.847-10.359,2.71-11.158,3.5c-6.822,6.774-8.517,11.629-18.084,16.747c-3.17,1.703-8.617,4.516-12.701,4.911
		c0.594-0.913,1.883-1.411,2.822-1.91c3.041-1.627,6.268-3.048,9.229-4.911c4.291-2.7,6.819-4.299,9.512-9.173
		c2.597-4.724,4.056-7.791,8.646-10.029c2.992-1.468,11.412-4.272,11.423-7.395c-2.796-2.748-14.037,2.258-16.296,3.782
		c-8.618,5.852-11.62,15.947-20.125,23.803c-2.438,2.249-10.282,6.699-14.95,6.907c5.478-3.256,11.385-6.305,14.979-11.422
		c0.924-1.317,3.028-3.951,2.561-6.115c-2.174-0.913-7.16,2.756-8.629,3.838c-7.441,5.448-14.281,12.344-20.162,19.476
		l-12.352,14.15c-3.002,3.585-8.732,11.968-9.814,16.841c0.838-0.412,0.406-0.131,1.035-0.884
		c4.668-5.552,11.225-9.155,18.281-11.253c20.604-6.098,31.076,11.365,49.158,10.839c6.803-0.208,11.797-3.218,15.563-7.96
		c0.676-0.865,2.482-3.574,2.896-4.977l-10.144-0.197c1.438-2.823,14.885-4.366,19.146-16.503c1.006-2.851,2.146-6.689,2.164-10.048
		l-11.055,1.42c5.654-5.015,13.453-5.504,18.279-12.034c3.104-4.215,5.354-9.991,7.865-14.855
		C253.475,156.126,254.32,154.178,255.383,152.664z"/>
	<path fill="#727171" d="M109.808,279.375h0.649c-1.788-1.468-4.177-2.503-6.011-3.82c-8.28-5.964-5.401-6.962-7.311-12.361
		c-2.917-8.231-8.703-10.273-15.374-14.17c-2.465-1.447-6.746-4.063-8.176-6.717c-0.508-0.959-1.091-3.039,0.066-3.84
		c2.766-1.938,6.012,6.051,9.531,8.129c4.233,2.493,8.176,3.012,11.751,6.153c5.598,4.95,2.775,6.321,4.854,13.321
		c0.809,2.721,2.07,3.857,3.886,5.214c0.471,0.348,5.053,3.631,5.24,3.536l0.292-0.243c-1.873-1.487-5.306-5.438-6.37-7.245
		c-2.587-4.412-0.64-6.811-2.22-11.178c-2.963-8.137-14.32-8.861-14.094-12.605c3.566-0.865,6.783,1.824,8.825,3.235
		c15.872,10.95,1.393,14.103,12.673,21.911c0.423,0.293,0.216,0.16,0.414,0.32l0.574-0.076c-0.311-0.215,0.038,0.096-0.405-0.318
		c-0.019-0.028-0.348-0.387-0.357-0.396c-4.799-5.86-1.769-7.687-2.202-10.715c-0.499-3.406-3.585-7.498-5.711-9.652
		c-3.754-3.82-8.147-6.682-13.717-7.246c-5.175-0.545-12.373-5.674-5.382-9.162c2.879-1.439,5.984,0.338,6.378,2.736
		c-0.62,3.078-7.244-1.205-5.654,1.967c1.223,2.445,7.536,2.041,9.089,2.08c6.783,0.179,10.838,6.086,14.271,10.961
		c1.835,2.597,3.66,4.938,3.416,9.285c3.65-3.642-1.816-10.133-3.538-12.447c-2.107-2.822-5.617-7.45-6.849-11.592
		c-1.966-6.576,2.192-10.235,8.053-6.793c4.037,2.381,5.523,6.963,5.363,13.174c1.364-0.734,2.173-3.444,2.333-5.617
		c0.291-3.811-1.892-8.167,1.072-6.756c5.4,2.568,8.881,14.404,9.832,19.588c0.479-6.604-2.72-14.309-6.06-19.551
		c-1.581-2.482-3.951-4.787-6.529-6.332c-9.39-5.605-16.832-9.963-29.194-6.379C68.661,219.98,58.162,230.499,69,243.596
		c3.331,4.016,9.747,7.008,15.42,10.075c6.181,3.349,8.251,6.999,10.406,15.091C96.891,276.534,103.241,275.291,109.808,279.375z"/>
	<path fill="#727171" d="M147.855,279.375h0.647c1.815-1.129,6.683-2.955,9.033-3.934c10.479-4.365,2.342-14.168,16.521-21.863
		c8.018-4.348,18.063-8.741,19.588-18.741c0.67-4.366-0.875-7.011-2.738-9.636c-2.877-4.064-9.256-7.582-16.012-9.493
		c-12.146-3.415-19.879,0.817-29.316,6.624c-2.502,1.543-4.732,3.839-6.313,6.313c-3.33,5.203-6.427,12.918-5.955,19.391
		c1.082-5.926,3.217-12.26,6.727-16.85c0.631-0.828,1.205-1.355,2.031-2.015c4.422-3.575,1.863,3.237,2.164,6.284
		c0.197,2.09,0.988,4.648,2.315,5.363c-0.17-6.19,1.315-10.811,5.361-13.172c5.891-3.426,10.01,0.207,8.045,6.793
		c-1.957,6.586-8.179,12.26-10.604,17.17c-1.147,2.324-1.486,5.156,0.226,6.867c-0.252-4.422,1.666-6.828,3.512-9.444
		c1.664-2.353,3.763-5.316,5.651-6.972c7.705-6.709,12.673-1.863,16.992-5.231c0.338-0.265,0.537-0.396,0.688-0.847
		c0.424-1.194-0.01-0.838-0.149-0.998c-1.103-0.713-3.896,1.882-5.57-0.799c0.404-2.476,3.631-4.205,6.539-2.645
		c6.924,3.707-0.754,8.563-5.758,9.089c-3.527,0.356-5.035,1.062-7.771,2.615c-1.826,1.016-4.516,3.556-5.75,4.854
		c-10.564,11.121-2.322,11.025-6.471,18.008l-1.912,2.615c-0.027,0.027-0.121,0.15-0.141,0.112l0.196,0.414
		c0.15-0.17,0.039-0.075,0.367-0.349l2.858-2.418c4.998-4.647-0.666-8.524,3.916-14.019c2.681-3.228,10.104-10.104,15.006-8.919
		c0.234,3.8-11.215,4.393-14.149,12.795c-1.676,4.799,1.231,8.59-5.239,14.969l-2.982,3.481c1.25-0.94,2.973-1.808,5.371-3.624
		c8.695-6.566-1.242-15.175,14.244-21.864c7.875-3.396,6.248-1.946,10.529-7.64c5.051-6.717,8.579-2.105,2.84,3.341
		c-4.892,4.656-12.955,6.613-17.603,11.958c-5.533,6.379-3.453,10.725-5.776,13.896
		C155.654,275.441,150.885,276.891,147.855,279.375z"/>
	<path fill="#727171" d="M179.467,164.085c-0.555-2.155-4.732-3.077-6.764,2.568c-1.102,3.058-2.09,6.012-3.52,8.854
		c-2.793,5.532-3.33,5.72-6.39,9.267c-6.144,7.141-9.078,10.951-14.469,19.362c-1.375,2.154-7.902,13.962-8.216,16.351
		c0.979-2.002,2.552-4.506,3.681-6.5c3.489-6.088,10.34-16.275,14.959-21.395l7.414-7.978c2.858-2.937,8.129-7.621,10.366-10.086
		c1.656-1.825,3.65-3.217,5.345-5.005c2.769-2.936,4.938-4.808,7.735-7.922c0.789-0.884,1.562-1.562,2.453-2.598
		c2.345-2.728,7.236-10.377,5.043-14.224c-1.871-3.274-6.537-1.797-6.481-0.208c0.039,1.186,6.237,3.162,2.599,5.495
		c-1.007,0.64-2.568,1.101-3.482,0.057c-1.326-1.515-0.535-2.352-0.064-3.904c-1.881,0.385-2.758,2.173-2.719,4.412
		c0.045,2.767,0.996,2.955,2.502,3.331l0.641,0.197c-0.463,1.223-1.646,1.779-3.219,1.345c-1.928-0.517-1.607-1.863-2.191-2.605
		c-0.762,0.706-1.496,1.834-1.082,3.368c0.509,1.938,1.402,1.364,2.55,2.201c-2.078,2.399-2.88-0.884-4.291-1.853
		c-0.048,2.804-0.009,5.522-0.902,7.931c-0.731,1.967-2.596,4.159-4.883,3.077C175.393,164.753,177.059,164.489,179.467,164.085z"/>
	<path fill="#727171" d="M68.637,146.219c0.329,1.157,0.81,1.072,0.64,2.324c-0.292,2.079-2.145,2.953-4.347,1.43
		c-3.246-2.239,2.963-4.337,2.738-5.561c-0.301-1.628-4.798-2.775-6.567,0.527c-1.345,2.53,0.188,5.786,1.232,7.875
		c3.5,6.934,8.684,11.205,14.225,16.832c1.694,1.721,3.604,3.114,5.222,4.882c3.236,3.575,8.439,7.969,13.021,12.974
		c0.903,0.988,1.608,1.581,2.474,2.578c5.052,5.805,6.624,7.602,11.356,14.648c2.917,4.348,7.31,11.168,9.559,15.758
		c-0.527-4.09-9.888-19.211-13.172-23.764l-11.12-13.613c-4.206-5.231-6.012-10.124-8.289-16.456
		c-1.996-5.523-6.191-4.827-6.765-2.568c2.324,0.395,4.093,0.565,3.388,3.537c-2.287,1.082-4.159-1.11-4.884-3.077
		c-0.894-2.409-0.856-5.127-0.903-7.931c-1.393,0.95-2.136,4.215-4.3,1.862c1.195-0.894,2.051-0.357,2.559-2.22
		c0.414-1.524-0.329-2.653-1.091-3.358l-0.395,0.875c-1.101,2.784-4.328,2.211-5.005,0.385l1.496-0.385
		C72.26,152.936,71.958,146.905,68.637,146.219z"/>
	<path fill="#727171" d="M129.386,262.723c0.81-3.104,1.215-8.496,1.525-11.894c0.479-5.306,1.147-13.415,0.094-18.759
		c-0.537-2.729-1.346-2.24-0.556-4.912c0.518-1.74,1.082-3.697,1.072-5.606c-0.008-1.845-0.658-4.252-2.548-3.933
		c-3.688,0.621-1.063,8.561-0.555,10.273c0.356,1.231-0.057,1.213-0.471,2.313c-0.302,0.81-0.471,1.75-0.611,2.672
		C126.32,239.295,128.097,260.408,129.386,262.723z"/>
	<path fill="#727171" d="M94.811,153.754c-0.179-1.373-0.367-2.183-0.019-3.461c2.371-1.036,4.168,1.938,4.996,3.819
		c-1.42-0.028-2.653-0.564-3.51,0.509c-1.514,3.105,7.085,10.895,8.374,11.873c-0.546-1.072-7.913-9.991-4.281-9.051
		c0.932,0.235,1.599,1.167,2.107,1.694c4.628,4.779,18.695,38.367,21.95,46.212c0.414,1.008,2.955,6.586,3.048,7.228
		c-0.462-2.146-14.818-35.959-15.261-36.928c-2.935-6.407-8.759-21.066-13.651-25.732c-3.772-3.603-6.595-0.338-4.253,3.246
		c0.029,0.047,0.076,0.113,0.114,0.16L94.811,153.754z"/>
	<path fill="#727171" d="M130.582,212.585l12.4-28.95c2.605-5.645,7.123-15.891,10.293-21.018c1.177-1.919,2.813-5.381,5.382-5.213
		c0.026,2.654-2.212,4.827-3.744,6.849c-0.537,0.697-0.896,1.459-1.459,2.033l0.18,0.226c0.132,0.075,4.554-4.45,5.015-5.081
		c0.924-1.242,4.082-4.647,3.188-6.896c-0.948-0.875-2.078-0.555-3.5-0.348c0.283-0.922,1.543-2.775,1.968-3.217
		c0.997-1.044,1.928-1.317,3.096-0.339c0.338,1.449,0.02,2.239-0.142,3.255c3.356-4.281-0.065-7.479-3.34-4.309
		c-6.756,6.52-17.576,34.557-21.763,44.369C136.086,198.82,132.406,208.794,130.582,212.585z"/>
	<path fill="#727171" d="M185.311,209.848c-0.424-3.32,5.541-7.168,7.433-8.983c-2.164-1.082-7.197,3.235-8.74,4.354
		c-5.053,3.67-5.502,0.997-11.215,2.164c1.092,0.667,4.092,1.11,5.532,1.618c4.677,1.675,12.673,5.833,14.479,6.247
		c-1.299-1.977-2.521-2.137-1.786-5.316C188.857,210.346,186.975,211.146,185.311,209.848z"/>
	<path fill="#727171" d="M65.57,200.863c1.834,1.796,7.875,5.71,7.433,8.984c-1.666,1.297-3.556,0.498-5.702,0.084
		c0.724,3.18-0.64,3.565-1.788,5.307c1.618-0.367,10.029-4.639,14.659-6.305c1.43-0.518,4.167-0.826,5.353-1.552
		c-2.003-0.415-4.44-0.188-6.624-0.159C74.696,207.289,68.731,199.272,65.57,200.863z"/>
	<path fill="#727171" d="M130.986,216.339c1.008-2.173-2.089-4.667-3.424-2.173C125.981,217.12,129.631,217.676,130.986,216.339z"/>
</g>
</svg>
