<?xml version="1.0" encoding="utf-8"?>
<!-- Generator: Adobe Illustrator 16.0.0, SVG Export Plug-In . SVG Version: 6.00 Build 0)  -->
<!DOCTYPE svg PUBLIC "-//W3C//DTD SVG 1.1//EN" "http://www.w3.org/Graphics/SVG/1.1/DTD/svg11.dtd">
<svg version="1.1" id="图层_1" xmlns="http://www.w3.org/2000/svg" xmlns:xlink="http://www.w3.org/1999/xlink" x="0px" y="0px"
	 width="260px" height="400px" viewBox="0 0 260 400" enable-background="new 0 0 260 400" xml:space="preserve">
<metadata><?xpacket begin="﻿" id="W5M0MpCehiHzreSzNTczkc9d"?>
<x:xmpmeta xmlns:x="adobe:ns:meta/" x:xmptk="Adobe XMP Core 5.3-c011 66.145661, 2012/02/06-14:56:27        ">
   <rdf:RDF xmlns:rdf="http://www.w3.org/1999/02/22-rdf-syntax-ns#">
      <rdf:Description rdf:about=""
            xmlns:dc="http://purl.org/dc/elements/1.1/">
         <dc:format>image/svg+xml</dc:format>
         <dc:title>
            <rdf:Alt>
               <rdf:li xml:lang="x-default">打印</rdf:li>
            </rdf:Alt>
         </dc:title>
      </rdf:Description>
      <rdf:Description rdf:about=""
            xmlns:xmp="http://ns.adobe.com/xap/1.0/"
            xmlns:xmpGImg="http://ns.adobe.com/xap/1.0/g/img/">
         <xmp:MetadataDate>2014-11-18T23:03:31+08:00</xmp:MetadataDate>
         <xmp:ModifyDate>2014-11-18T23:03:31+08:00</xmp:ModifyDate>
         <xmp:CreateDate>2014-11-18T23:03:31+08:00</xmp:CreateDate>
         <xmp:CreatorTool>Adobe Illustrator CS6 (Windows)</xmp:CreatorTool>
         <xmp:Thumbnails>
            <rdf:Alt>
               <rdf:li rdf:parseType="Resource">
                  <xmpGImg:width>256</xmpGImg:width>
                  <xmpGImg:height>244</xmpGImg:height>
                  <xmpGImg:format>JPEG</xmpGImg:format>
                  <xmpGImg:image>/9j/4AAQSkZJRgABAgEASABIAAD/7QAsUGhvdG9zaG9wIDMuMAA4QklNA+0AAAAAABAASAAAAAEA&#xA;AQBIAAAAAQAB/+4ADkFkb2JlAGTAAAAAAf/bAIQABgQEBAUEBgUFBgkGBQYJCwgGBggLDAoKCwoK&#xA;DBAMDAwMDAwQDA4PEA8ODBMTFBQTExwbGxscHx8fHx8fHx8fHwEHBwcNDA0YEBAYGhURFRofHx8f&#xA;Hx8fHx8fHx8fHx8fHx8fHx8fHx8fHx8fHx8fHx8fHx8fHx8fHx8fHx8fHx8f/8AAEQgA9AEAAwER&#xA;AAIRAQMRAf/EAaIAAAAHAQEBAQEAAAAAAAAAAAQFAwIGAQAHCAkKCwEAAgIDAQEBAQEAAAAAAAAA&#xA;AQACAwQFBgcICQoLEAACAQMDAgQCBgcDBAIGAnMBAgMRBAAFIRIxQVEGE2EicYEUMpGhBxWxQiPB&#xA;UtHhMxZi8CRygvElQzRTkqKyY3PCNUQnk6OzNhdUZHTD0uIIJoMJChgZhJRFRqS0VtNVKBry4/PE&#xA;1OT0ZXWFlaW1xdXl9WZ2hpamtsbW5vY3R1dnd4eXp7fH1+f3OEhYaHiImKi4yNjo+Ck5SVlpeYmZ&#xA;qbnJ2en5KjpKWmp6ipqqusra6voRAAICAQIDBQUEBQYECAMDbQEAAhEDBCESMUEFURNhIgZxgZEy&#xA;obHwFMHR4SNCFVJicvEzJDRDghaSUyWiY7LCB3PSNeJEgxdUkwgJChgZJjZFGidkdFU38qOzwygp&#xA;0+PzhJSktMTU5PRldYWVpbXF1eX1RlZmdoaWprbG1ub2R1dnd4eXp7fH1+f3OEhYaHiImKi4yNjo&#xA;+DlJWWl5iZmpucnZ6fkqOkpaanqKmqq6ytrq+v/aAAwDAQACEQMRAD8A9U4q7FXYq7FXYq7FXYq7&#xA;FXYq7FXYq7FXYq7FXYq+cvOfnu+1PzgNTtZiLbTZgNNUH4eMbV5/89CKn22xVGy/mDe2f5l3OsrM&#xA;7WH1g28sVTxa0RuFAviAOQ98Ve/o6uiuhDKwBVhuCD0OKt4q7FXYq7FXYq7FXYq7FXYq7FXYq7FX&#xA;Yq7FXYq7FXYq7FXYq7FXYq7FUDJr2jRaoulSXsKai6hktWcByG6UB6k+HXFUdirsVdirsVS6+8ye&#xA;XrC4Ftfana2twd/SmmjRqHuQxFMVSb8w/MMWn+SL69tZldrlBb20sbAgtN8JKsD2XkfoxV82YpbJ&#xA;JNTuT1OKvpD8r9ZGpeSLCSRv3loptZiT09HZan/jHxOKGUQ3NtOGMEqShTRuDBqHwNMVVMVdirsV&#xA;diqAbX9EXVE0o30P6RkrxtA4MmwqaqOmwrviqPxV2KuxV2KuxV2KuxV2KuxV2KuxV2KuxV2KuxV5&#xA;p+cvm3W9E/RdvpVy1q05llmkQCp9PiFXcHb4jXFXl/mrzG3mP6pqk4EeqwRi2vOA4iQIS0cygdCa&#xA;lWHagp12VZ5+W/5ssGj0fzHPUGiWuov1r0CTN+p/v8cVeieafOGieWrNbnUpTykqILeMcpZCOvEV&#xA;AoO5JpiqzQvMWqajp41K50eSytHAeJTIJJ2Q/t+kFXam9K8vAHFU0vrorpVxd2rK5EDywOPiUkIW&#xA;U7dRirH9e/LXytrNoY5bYQXlKjUIgFmL/wA8hH94SevLFWEeVPyoc32saN5gkdrWJIpLIwylVZnZ&#xA;wtwqVI5KEK/EO5xVhfnbyBq/la4rL/pGnSNSC9QUUnrxcb8W9vuxVX8kfltrHmdxcH/Q9KU0e8cV&#xA;5U6rEu3I+/QfhirMPMn5XFtR0vy/5fu2is2ikuNSWaYuFKsqidogQCz14jiorx9q4qy7RPyz0LQI&#xA;PX031W1eND6d68jgl6bAopWPgT1UjFWUfXrcWC3rnjC0aydCTRgCAABUk1oBSpOKpF5l8061olgN&#xA;TGi/WtPUBrkrcBZ4lPVmiEbKQO9HOKozyz5t0XzHp5vNOl2Ta4gkoskRO9HFT942xV5t+Yf5uyO0&#xA;uk+W5SkYqlxqSH4mPQrCew/y/u8cVYN5N1a30bVm1+6BmeyVzbQV3muJVKKCevFQxZj7e+KvT/ys&#xA;/MPXPMes39lqhjYLD9YtxGnDgFcKyinUfGOprir0zFXYq7FXYq7FXYq7FXYq7FXYq7FXYq7FXYq8&#xA;h/P62b/cLcivD/SI2PYH92y/fviryDFKIsLG5v76CytU9S4uZFiiTxZjQYq9d1T8vLCz8zeWZNV1&#xA;U3VtJwtpY7tixeWBOSJHUUEbsAOJPfvXFDMfPvna18q6UJeIlv7iqWVsdgSBu7U/YWu/3Yq8JaaL&#xA;VrDVdXvL2b9O28kcsUY4rG0Mj8H40pxKs42FAB+ClO/Kf5u+YtGdIb921TTxsY5m/fKPFJTUn5NX&#xA;6MUK3mv8wrg+eLXzFozOLeO2ijhEisiyxVJlRgeo5symldxsdsVT/wDMD81dKvvLMVjpaLNPqcQN&#xA;0sqhxbrWhUg7epyGx7fa8MVVtH/OKwt/JTNJbomr2QS2gtI14xOSp4SDiKKoCnkvtt1GKsU8lecd&#xA;UsNd1LzXqcVxfQvC0N1Mg+H1JGUxJyNFXdaADoOgxVD+Y/zX82ayXjjn/R1m2wt7Y8Wp/lS/bPvQ&#xA;ge2KqP6dvfKWuxRaZqMl/HbcGvYJv952nG7oE5OPg6cuoYVGKvevL+u6b5k0OO/twGt7hSk8D0PB&#xA;qUeNx/nUYq808uflla3sHmKfTNWIt5XnstP+rOePFWDUmYfaU7LQdRv3GKvKLm2ntbmW2nQxzwO0&#xA;csZ6qymjA/IjFKnir1D8hLUtrep3dNorZYif+Msgb/mVih7ZirsVdirsVdirsVdirsVdirsVdirs&#xA;VdiqG1LU7DTLKW+v51t7WEVklfoO3bck9gMVeT+bvNeg+f5LHy5pfqw3bXIeC9uFCQmkbgrsWf4q&#xA;inw9cVSe6/I3zhEC0M1nceCpI6sf+DRR+OKo/wDLby5F5c83SN5oeHT76KAHToZ5Y/jMpKGRGDFd&#xA;gpXr3xVDfnjqrXHmSysYnqllbhxTtJM1TSn+QqYqkn5kaf5gtb3TH1y8+tXU9jCQp2aLiKMjDueV&#xA;SW7muKsRDMKgGgIofcdcUtYq9R/SXk+6/J+KO7j9S+05mt7eMELMlzK7OGU0+wwJY7b0PcYoVvMO&#xA;leXvNnka21fy9EtteaJGsM9mSAyxd0ZjTlQkurd9++KqXmceXfJ3k0eVXgjv9cvgk981TSJ+qvyF&#xA;D8PRF8Kk9d1UH5x82WOp+XrXy/5VszFpcFut5qSop/d8aHgxP8rEcm7tTFXnOKW2ZmYsxJZjViep&#xA;JxVmnly084W3kXXNS02f0dKlKR3CCvqOFNJHjIPw8Q1G8R8sUMj/ACR8x2Nha6vaahdR2tupjuY3&#xA;mdUWpBR92I3+FMVQHm7y9b+cfOE8/lCWK85QrJqHxemqSA8OQLheXIAfZrv164qoj8jvORQsZbIE&#xA;Uohlep+VI6fjirJPy1udG8nXepaDrl7Dba1LPHXc+kYxGGj/AHpAUH94djTFXq2KuxV2KuxV2Kux&#xA;V2KuxV2KuxV2KuxV2KpTr1hYXrWMeo26XVkLgc45RyjEjIyxMynZhyPGh7sMVUL7yZ5emjaS10+2&#xA;tL9ATa3kMSRyRygfA4ZAD8JAO+KvKdK/OnzTpk7WuswR34hYpLUCGYFTQjkg4bf6uKpR+Yn6a1q/&#xA;Hmn6hPFo15FGLSVgGCqihSHKFgtX5EVpXFU7msND0n8rdG1yWxik1wzq1pO4YVYTtIBIFK809KOl&#xA;DiqEtNa0zz551tn18R2MTWTWqqHopm+PgULDY8pOShu474qw7zDoV7oWsXOl3g/e27UDgUV0O6uv&#xA;sw3xSluKsg84nTvrOmJZxiORdLsPrhXo87W6sWp48GWvvih2jW1rBoGo6hqE00dtcGOztreB+Bnl&#xA;V0lk5VDArEgFajqwxV3nbT4LbWPrdnM9zpupRrd2M8rM7mN9ijsxJ5RupU1Ndt8VTbyLqVuPLnmv&#xA;SpUUSXFg1xFJSjH0K1Svf7QIHzxVhOKU78peXv03qqwzSi20+3Uz6jdsQqxQJ9o1O1T0HviqZ2nn&#xA;6/0bQb/y7paxyWlxcTkXkgLEwSKE4qjAAVCk1avXpihlfnXTtJuvyv0W/wBHsY7dpZoWeOBPiLtG&#xA;6SKSKs37wU3OKpX5Q0nzd5MS4823enFbGKAxy2sr+nNIsrqq0WjsvF+JPIDbFVmo/nT5zvZBHYLB&#xA;ZBjxjWKP1ZCT0FZOYJ+SjFXpifln5YvLSOXWrP63qsqK19eGSRXeYgc2+BlA+LoBtTFU78t2iWWl&#xA;LYxzPPBaPJBBLKavwjcgKT34fYr7YqmmKuxV2KuxV2KuxV2KuxV2KuxVQv722sLKe9uW4W9tG0sr&#xA;eCoKn9WKsU8i6tqXmq2u9avZXhsXmaDT7CFjGEjSlXd0IdnNafap4DFWD/mr5ou11w+WotSmg0uJ&#xA;Ea9anNubrzCchxd1CldmY7nfoMVee6iLuxu2iS+NzEPiguonbhInZlrQj3B3B2xSyvyl5r8lm0TT&#xA;fNWjxzkMx/SyJWY82LfvivGRqV+0CT7YoVbH82tX0aabTrWK3vdDgkkis4ZFIItwxCKHBBPw93BP&#xA;jiqpq0B1e0ittV1e30q1vB+kfLlkQTbRpOzh4ZZQi+nw4gL+yN8VYJqWnXenXslndqEnipyCsHUh&#xA;lDKyspIIZWBBGKUdfa7NqumQW+oN6t5YDhZ3TfbaDvC7d+P2kJ9x3FFUnxVVuLh55A79QiRj5RoE&#xA;H4LiqreXMzpDas4aKzVo4uIoPicux9yWbr4UxVekr3GntbyzORaVktYiapR2AlAHWp+FvoOKrLC9&#xA;ktJZHQ09SGaFu9RLGyf8bYqhcVRZ1CVdP+oREpA7iW4A29RxsvL2QH4R7k98VRGj6XZXTvLqN/Hp&#xA;9nDx9RyDJM/LcLFCvxMfc0UdzirMrLUl03SZPMvl27uPqWjSizs9Mvx6i8rhD6k59N1UFubbAfTT&#xA;bFCTT/mX5mv7uE6vcG800So1zpwVI4pY1YM0Z4rvWneuKqeu+ary4jRrPRbPRbSav1eW3tUWVgpB&#xA;2uGXkSDTdKYqgbXU9flhnnbVnijBUtJNM5ZnH2eH235CnVenyxS9d/KjzBL5j0iS1v7mT61pvFDH&#xA;Exi5xsCUlZk4uz1DBvip3O5xQi/NPmi+8n+YdPe4ma58vanySWOT43t5EIq6P9srRweLV70xVnSs&#xA;rqGUhlYVVhuCD3GKtkgAkmgG5JxVpHR15IwZT0Kmo/DFW8VdirsVczBQWY0UbknoBirxn8yNZ8ne&#xA;bo4Dp2sCLUbLmsUc6SRwTKxFRzZQqNtsxoPH2Ved22s+YNJm4Wt9cWjp+zHKyrt7KeJH4YpZp5Z8&#xA;y+bvOry+U7/UF+rXkTNJdtCplQRUcAcDGDyZQDXtihmHlnzDonkdF8o65c+lcwMZYrwI3oSJMea1&#xA;I5MpBJBqKe+KvIvOd4L3zZq9yriWOS6l9KRTyVowxEbKR1BQCmKpLilPvJOs2Wl69C+owx3GmXH7&#xA;i+hlUOvpuR8VGB+wwDYoUfN+nQ6d5n1OzgUJbx3Dm3VdwInPOMA1NRwYYpWa3qM17baQJIPRFrYi&#xA;3jatRIqTynmPDclfmMVQdtemKOSCSNZbeUgyIQAwK1oyPQlSK/LxBxVQbiGPEkr2J2NMVW4q7FXY&#xA;q2CR0+X34q1irsVbVuLBqA03oRUfdiq6aaWaQySsXdurH2FB9wxVMLefUV8u3scc4TTzc24nt6Dk&#xA;8jJK0bDb7KiNq79x9CqM8hWYvPOWkQsAyLcpK4PTjD+9ate1E3xQifzF80/4i8yzXERrY23+j2Q7&#xA;GNCfj/2bVPypirGCSaVNabDFLOPyk1+z0PXrm71CX0NOe2aOWYhmUPyVk+yCaniaYoZnqV1pP5pX&#xA;selafLNaWumVuJruSMEyc6IFROQI77n7sVYj5x81+cdC1Sby1b6rLHZaascMDIFSRo/TVkLSKA9e&#xA;JHfFWFz3mpahMonnmu5nICiRnlYsdhSpJril6n+Vw0Pysbi51rWba3vrxVjGniUN6Sg1rNxqof2/&#xA;ZHXrsoewKwYBlNVO4I6EYq7FXYq06K6MjCqsCGHscVfLfmzy9ceX9eutMmB4xtyt5D+3C26N93X3&#xA;rilJ8VZ1+TLqvnmBSd3gmVfnw5fqGKE9/PTRpZNY0y+t4zLJPA0DpGOTfum5KSBvv6h+7FUq86x6&#xA;TL5O8tXCzQ/pTT4ktb7TzIi3AQrUc46+oOJTw/axVrV/yysrmIXnlPVYNSjkUONPeaP6ytRXiCpo&#xA;xHgaH54qwO6tbm0uHt7qJ4J4zxkikUqynwIO+KVW9vpbwQNN8U0MawmTuyR7R191X4fkBiqlJO0k&#xA;MMbbmEMqn/JLcqf8EzHFVLFXYq7FXYq7FXYq7FXYq7FXYqrm4P1IWw6GQyP70UKv3VbFVaw1GSxj&#xA;uWhqtxcRG3Eg/Zjk/vae7L8PyJxVRtLK4u5fThA8Wd2VEUeLuxCqPcnFWQXOj+T7DRbh5dYGoa6V&#xA;At7S1R/QRiwBLTMoD0WvSn04oT6wubLV/wAvrfyjocT3WvNKbu5josanizMxDuVB4rxXFWQ/k/Zw&#xA;+X59VtdamisNWmeFEs55ESQoiluSgn4g3qdvDFWGfm80Z8/ahw6hYOZ9/QQ/qpirDVZlNVJBIINN&#xA;tjsRilGaNpN3q+q22m2i8p7pwi+AH7TH2UbnFX1ZawLb20VuhJWFFjUnrRRQfqxQqYq7FXYqw/8A&#xA;MjyNH5n0oPbgLq1oC1o52DjqYmPg3bwP04q8q8oflRr+vAXNwRp+nhmUzSDlIxQlWCR7dCKVJH04&#xA;qzvWvyw0PQvKWo3Wk+sNXt4Glj1BpWEoCfFIE4cVHJAy7CtDTFXnP5e6jqel+a7PU2hnktpG9G8l&#xA;4OwMUooWY0/Z2b6MVRH5kad9d8331/o1NRsbgRyGez/fxq5QKys8fJQ3Ja098VYbLFLFIY5UaORd&#xA;mRgQR8wcUqs9/eXEaR3EzTLGKR+oS5UeCk1IHsNsVQ+KuxV2KuxV2KuxV2KuxV2KuxV2KuxV2Kux&#xA;VVht7mc8II3lPXiilj9wxVGWnl7Wbu/Wwgtma8ZPUEJKqePieRAH04qzryBaHyR5jN35sB0wXNs8&#xA;VkGBlLuZIy20PqUoP5vHFCQ+dNH83X/mDUNVutIvEjuJS0bGF2Cxj4YwWAI2RRir0Ty/+WXlzWvJ&#xA;GltfRGPUXg5/XoWpL8bF1D9VbipC/EKgCm2KvNvOf5fa15XuF9YfWbCVuMF7GCFLH9ll34t7fdir&#xA;1P8AKjyAdCs/0rqMdNWu0okbdYIjvx/12/a8Onjir0LFXYq7FXYqxj8wm12TRItO0Sq32qXCWnqg&#xA;8fTjZHkkfl2+GM1P3b4qkK/l95p0TylJY+X9dm+vcvVaEhEiao+JImILxknevKh9sVebaV5N8++a&#xA;ZjIwneNJGR7y+lcIroSrbuWZiGBB4g4qyrzV+a/m/Rb6TRfq1tHdWipHNdnlL6rBRWRPsKobrQg0&#xA;6Yqxy21eaHya+o6DcyabqkN1x1uKCRkEqSkmGZUrRQp+CiU6/LFWMfp3XPrE1z+kLn6xcgLcTetJ&#xA;zkC7AO1asBTauKUNPdTTtylIZj1bioJ+ZABOKqOKuxV2KuxV2KuxV2KuxV2KuxV2KuxV2KuxVvFW&#xA;sVZXbavo9h5IWKP07jzDPeCSKRk5PaQxcSCjMNi7L0Hb5YoZF5W/ODzXLdRabeG2uTcH0o7yci39&#xA;Nm2Du6jhxXqfhqcVYreWPnHypfh1lnt3nb91eWshaKck/suh4vX+U7+IxV6TqFh+a2o+SIZ57mJL&#xA;2F1ujapHwunSKjx8mHwc1ZeXAKPc12xV6D5e1N9U0LT9RdQkl3bxzOg6BnUFgPauKphirsVdirsV&#xA;ULy0ju4DE7NGahkljPF0dTVWU77g+Ox6GoxV455y85+ctee+0rQ4ZpNO09nivryzjflNxJUkkcuK&#xA;/wCSDv16bBV5mlxMqiCSST6sGq8KsQP8qgNRX6MUs5ufIvlvU/Kr6r5TvJ7y/tP3l7YTlPWEdPiA&#xA;jVVNV6jcht6b4oYNZTQQ3Uck8IuIFP72EkryU7EBh0PgfHFLV1DHFMRE/qQn4opCKFkPSo3ofEeO&#xA;KqOKuxV2KuxV2KuxV2KuxV2KuxV2KuxV2KuxV2KuxVE2FvDLODcMY7SOjXDrTlwB6ID1Zuij+FcV&#xA;b1O9F9fTXSwR2ySH4IIgFRFAoqinWgHXqepxVmWj/l9pK+VDr3mbUX0pLg8rCMKGeSMA7+mfiYuS&#xA;ONO2/Q7KGJ2M2pR3pTRpblisglhEYZXPpHkjtGhcVWleppil7N+XX5g6z5jin0m6RE1e3XkbwgKP&#xA;SB4s7R95FYjYUB9u6h6HbW8NtbxW8KhIYUWONB0CqKAfdiqpirsVdiqy4nit4JJ5W4xRKzyN4Koq&#xA;T92KpF5avU8yaPb61I8qLcmQxQRSvGsaLIyBT6bLyai/EW79KYq8B8zLqmieY9V06O4mgVLqRgqy&#xA;MvJWPJHND1KMDiqRyzTTOZJnaSQ9XclifpOKVWw1C+0+6S7sZ3t7mM1SWMlWH3YqranqS6jM11LC&#xA;kV5IazPCAqSN3coNlY9+O3tiqBxV2KuxV2KuxV2KuxV2KuxV2KuxV2KuxV2KuxV2KuxVuppSu3Wm&#xA;KomwuoLSYTvbrcyIaxxy7xAjoXUfb+XTxqNsVX6trOqavdG61G5e5nOwLHZR/KqiiqPYDFVK31C/&#xA;tqfVrmWDieS+m7JQ+Pwkb4q9F/JSybUvMep316oulS24SNMBJWSWRSrHlXekTYoela1rUHl3V9Gt&#xA;htZ6tM1q0JJIjc8fTeOp+FQx4so23r81WTYq7FXYqgdcFs2kXkNzOltFPDJCZpWCKPUQr1bbviry&#xA;/wDLDWtb8uaBePrOnXQ0FALq2u1j5cedAeKkgtG4owYbDr3xVJfMt75d/MDzbYx6W76bczI0Elxd&#xA;qoSVl3iACM3xHcb9dhiqU3/kMaH5gXT/ADHcvZ6dPUWuqxRepExrtyFQV/yh1Hy3xVC6rZ+QbQmO&#xA;yv77UZF6yJFHDET3oXPP/hcVY5IYy5MalU7BiGP3gL+rFK3FXYq7FXYq7FXYq7FXYq7FXYq7FXYq&#xA;7FXYq7FXYq7FXYq2vHkOQJXuAaH76HFU60uXyYXC6rbaiid5ra4gYj/nm8K/8TxQnHlXyRZ+a9fu&#xA;odMmktdFtfiaW5aN7gqdl+FQgqxHhRfE91U08r/mFpHkua/0uysm1O0a5Y/pH1BG8ioOIonFhx2J&#xA;X4u+Kpx50tvMmp6to3mm9thY+XbI20rLJIpkgR5UZ3kjHxcjt8K1NAO+KvT9L8waJqyctNvoLvap&#xA;WJ1LD/WX7Q+kYqj8VeIea/zs1e6mkt9AQWVoCVF06hp3HSoDVVK/In3xV53f6nqOozme/upbqb+e&#xA;Z2civhyJpil7J+TPmyDUNJfy3fMGuLVWNsr7iS3b7SUPXgT0/lPtihjfmzyDoNj52s7Kz1iHToL1&#xA;vUaJyxe2IoQARsOR+xyYYqhfzc0HzJY6ql1f3k2o6ZL8NncSEfAabxsqhUVtq1A+Lr44qxOfy7ql&#xA;pYR39/F9UtpmAhWUqs0inq0cLFXZR49PfFKCuGs68bZXKj/dkpHI+4Vdl+VW+eKqGKuxV2KuxV2K&#xA;uxV2KuxV2KuxV2KuxV2KuxV2KuxV2KuxVXtpbZGpcwGWM9eDGOQf6rUZfvU4qmOn+WNS1W1ubrSU&#xA;F0LZjzs1YG6EfaT0ti670+Cu+Kso/KnyPdaxqbajderBpdpySRkZomlcihiDKVagB+P7u+KE08o+&#xA;VfIw/MO5tI9R+uxWRD6fbSAcZJRUsvPpJ6VOw+L5A4qmH55eZ0S3t/Ltu9ZJCLm9p2Qf3aH5t8X0&#xA;DFXj0UssUiyxO0ciGqOpKsCO4IxSz/yh+b/mDTbiK31Z21PTyQrF97hAT1V+r/JvvGKEH50866dq&#xA;Op3KQ+XbKApI6PPKj/WGZTxLOY2iFfY1+eKsMldXfksaxj+VeRH/AAxY4pZR+Wmgatq/mi2ewme0&#xA;WyYT3F4lKxoDSgrUEv8AZodutQRXFCK8xfl55v8A8XNYMj6hcXzNNFfnZJEqOUjt0TjyHIdtqdRV&#xA;VkHm+M+WtI0XR9R8yXlzdQTpPcWluEbhEpBBUtxb4Cv7vmTX+UYqxLzxDb3N+NYs9ZGsW98x4+qw&#xA;F3ERv6ckVFoBXYqvHFWL4pdirsVdirsVdirsVdirsVdirsVdirsVdirsVdirsVdirsVdirJvIdhG&#xA;+qjVLjVU0i00wrLNc8wJzWtEhj3LlqUOxHz6YoZn5Ssm8y6d5i0/S/M94ks8zSR21wqgtGzVMjkF&#xA;mpITxfhx/wAoGoGKsP0jyL5pfzbHoyxPaX9u6yyXI+zEgNRMHGxH8tDudsVd+ZOhappPmq6F/M93&#xA;9bPrwXjgAyI229NgUpxoP1UxVjUMqRtVokl3Bo/Km3+qy9cUs38leftM0vULdbjy9ZNV1VbuBCLh&#xA;CxpyBkMlTv0HHFD1Dzh+VugeYpHu1rYak+7XUQBDn/iyPYN8xQ++KvKdd/KLzjphZ4bcajbjpJan&#xA;k1PeI0evyBxVn3lO/wBA8k/l2uoyyxz3lxSWaKJ1LvcOP3cBpXjwUUbw+I4qwHRdV82+bPPEN7He&#xA;ta3KEyPcKaRWtsm7/Cfh4AbUb7R69cVSvzLaPqPmfUTpVxPrq8mme7WMlio+0SFH2U6cgAPDbFUj&#xA;t7m5tZ0ntpXgnjNY5Y2KOp8QRQjFKtdag12S9zFG0x3adFEbH/WC0Q+541PjiqExV2KuxV2KuxV2&#xA;KuxV2KuxV2KuxV2KuxV2KuxV2KuxV2Kou0u7e1YSC2S4mH2TP8UYPj6YoD/siR7YqpXl5cXly9zc&#xA;MHmkNXYKqjYUFFUBRsOwxVOvIUt/H5t042F3FZ3DShRLOSI2B+1G1OvMfCB44oTl/wAwfN+j+d7i&#xA;+1Ny88Uht72wBIh9JGPwRg1oB1Vvp3qaqs6/NWDT/MPkKDzBYsJFtSk8Mnf0pSI5EPgQxFR4rirz&#xA;DQvy883a0ym1sHigb/j5uAYo6eILbsP9UHFXrfkn8pNK0GaO/wBQkF/qcZ5RmlIYm8UU7sw/mb6A&#xA;DirPsVdirzf8qvJVha6PqK6rZxXF6109vcRzosgVYQAq8WBG/It7gjFXn35i39rY+ZdT0rQoksNP&#xA;4x295FbgKsrp8bcqdAGalBttiqD8q/mFrXlmBoNNgtSkjcpjLGWZz25MrK1F7CuKq2sfmAmshn1L&#xA;y/psty1a3MazQuT2JZJQzfScVYtPLHK/JIUgH8kZcj/h2c/jilSxV2KuxV2KuxV2KuxV2KuxV2Ku&#xA;xV2KuxV2KuxV2KuxV2Kr4jEJAZVZo/2lVgpPyJDU+7FWRaN5g8pacA8nlw6hcKaq91dlkH/PJYkU&#xA;/TihS82+Z7LXp4J4NLj06WFRGWikZwyLsq8SAAF/Zp/TFLMfy60fRvPF3e3HmKN7i/s0t05q7IJY&#xA;wrIGk4nkXHAAmorihkGq+UUtPPvluy0YPDpkQa6uLISO0MYgfl6hVi1C7MF+eKvTMVdirsVdiqGu&#xA;LC0lf1pOSOB8UkcjxEgfzGNlqB74q+fdfuINE8xa59a06LU576Yz6be3Jdolid3b1FTYS8q0rWlR&#xA;3xViU88k8hkcKGPZEWNfoVAqj6BilMNI8t6nqcM11Gog062FbrUJyUgjHu1CWbfZVBY+GKoC5Fss&#xA;pW2Z3iGwkcBS3vxFePyqcVUiCpIIoR1BxVrFXYq7FXYq7FXYq7FXYq7FXYq7FXYq7FXYq7FXYquS&#xA;N3bigq3Wg67Yqvt/q/qAXHIRHZmjoWX3ANA1PCo+YxVM9V8r6jY2cWpR0vNIuP7nUIKmOvTjIOsb&#xA;joVb8cVQ+lazcafMjCOO4hVgTBOiSKaGu3MNxPuMVelflPa3SPqfmKYSadp17J6cclusZjSjlmqJ&#xA;FciNSQvICg3rQDFD1y2soLcs6AtK4AkmclnanQFjvQVNB0HbFVfFXYq7FXYqx/zjrWn6XBp41P4d&#xA;NvLxbe7kP2FUxu686fsl0Xl241rtiq7zV5S0PzRpixXoAKDna3sZHOOorVT0KnuDsfxxV4t5f8le&#xA;V73Xr3S77zHCqwt6dnJCConbxDyAJt0oCanoablVLPNsl1pd1P5Zg1ebUNKsZAAjVSMSgfEqryf7&#xA;JJHz7Yql9vY3drpqa2yxiFpjb2qy8uTyBCWkRRsRFVdyaVI2O+KUtJJNTuT1OKtYq7FXYq7FXYq7&#xA;FXYq7FXYq7FXYq7FXYq7FXYq7FVysyMGUlWU1VhsQR3GKphf2l1PafpqO0EFhLL9XZ0KlBcKgZxx&#xA;FCnKvIClOw6Yqr+Xpbu7uYdBfVZNO02/lCzkFjFyYcQXQMgNTQbnFCeXWhfl5Y+ZLCxbWZryxBI1&#xA;O5jjX0uQPwhXU14n9oryp4+Cr2++1fy95e8uLds8UWlQxAWqRlSsi8aokQrRiw6Yq35Ovp77yvpl&#xA;5OvCWaBWKjsP2f8AhaYqnGKuxV2KuxVKvNOgWOvaHc6beHhHIvJJu8brurivgevtirzb8u/LZ1fQ&#xA;tV0qbzLLJaiRoFs7KTZUViPU/eKW4SdgtFI679FUo8z/AJOT6JZzan+k45tMtqPcckMcwQsBRAOa&#xA;s2+1SMVTe7vPyd8wRCC2spE1MpwtILeKSKaRwvwJVA0RY9OT/fiqQXekWmoaTZ2Wuava6BfaMjWy&#xA;aU0TseJpJ6rkO37yQmrUH3Yqw+102zntmmk1S2tWDlVgmW4MjAAfEPRilUA17tilDXEVrGeMU5mI&#xA;/aCFVPyLHl/wuKqGKuxV2KuxV2KuxV2KuxV2KuxV2KuxV2KuxVXtrSW4bjG0YPT95LHEPvkZRiqL&#xA;k8v6nHPZwSLGrX7BLZvWiZSSQPiZWIXdh9qmKswOiat5c8s6hpt7BBqseryRoltaTGSa2miDMJSq&#xA;o3y64oZLpi/k35Zg5yzreXrLR/rCNPMpI+JPTVeEbDoeh7VxVJfKv5OprUKapJqQj0i4Z2tUiUmd&#xA;ow5Uc+VFRtt/tYqjPzE8ueRNI/Qtg97cQmGRUltVdpyLZ25SSFWb92fDiN/5TTFXrtgbI2Nv9RKN&#xA;ZemgtjGap6YACcSO1MVV8VdirsVdiryL84/Proz+WtNkKmg/SUyHehFRCCPbd/u8cVeT2GoXun3S&#xA;XdlO9vcxmqSxsVYfd29sUvQ7Dzd5q8+abN5SlFv9amUSresWi5LAwcq6oGFSR1AGKF/kby5/hLzh&#xA;Hcea5IdO4QSGweSRCkkjUQkMCQKKx+1TFWHedppLnzXql3QtDcXMrW0o3WSIOVjdG6MrKBQjFUvt&#xA;tF1m6YLa2FxOxNAI4nc1+gHFLeo6Pe6a3pXwWC572xYNKv8ArqteHyah9sVQOKuxV2KuxV2KuxV2&#xA;KuxV2KuxV2KuxV2KuxVUjt55Ed442dIhWQqCeI8TToMVU8VZv+Tbsvnu0UHZ4p1b5emW/WMUIv8A&#xA;MPybqd158vE0W0kvBdBLhxCOSxvJUOJH+yhLoT8RHXFVWfzr5n8laLH5SSGODUbcF5LvkJeCzn1Q&#xA;qLThyHPc7j274q89urq5uriS5uZWmuJSWklkJZmJ7knFL0j8n/Pb2F6nl6/krY3bUsnY/wB1Mx+x&#xA;/qyH/hvmcUPcMVdirsVacuEYoAXoeIPSvbFXzXceRfO9zc3V3f2LwfE815eXTLFEKks7l2IBH+rX&#xA;FWOXEcMcpSKUTKuxkAKqT348t6eFQPlilmf5NXKw+erZGNPXhmjX3PAvT/hMUI789Ll5PNltBX4I&#xA;LNKCv7TyOSfupiqRaz5hhm1Ty5LMDPbaTZWMUkKkCvo0d170J+ya4qmPmP8AN/zRqsTW1q/6OtXr&#xA;y9H+9YHt6mxUf6u/iTirBwJJJKCryOdh1JJ/WTilWv7RrO8ltHNZYD6c1OgkXZ1/2LVHviq26g9G&#xA;RUqGrHG9Rv8A3iB6fRypiqjirsVdirsVdirsVdirsVdirsVRNta+tb3cg2NtGspPsZUip98gxVvT&#xA;LJr69js0NJrg+nBXoZT9hf8AZN8P04qsguLyxullgkktrqBvhdCUdGHuKEHFWVr57sr/AEq5std0&#xA;q3nvXhkW21eCGJZ1kZSFMg48W36kUI+eKEHZ3mnw+QLyMJCNUbUI1inAUXAhaIlhy+3wrH40qcVZ&#xA;v+QM7+prUH7BFu49jWQH78VYh+a14l1581Nk3WIxw1944lVv+GrirFrcW7ShbhmSI7F0AYr78SVr&#xA;9+KWWW/5X+bLqOC90cQ6jZy0aC8t5kQCh7iUxurDuKVBxQ+iLVZ1toVnYNOqKJWHQuB8RHTviqpi&#xA;rsVdirDvzN8qa95k0q3s9KuI4kjlMlzDKzIsgpRN1DfZNTQ/wxV5tbfkd5wlI9WWzgXvykdiPoVG&#xA;xVlGgfkrPpV3FqP6ZP1+2PqWwjhAQSAfDzLMxZf5hQbYqivy/wD9yetarH5rtYZvNNjIpWSaJOQt&#xA;6UX0gBx4q1TyA/aG+KsP/NzQ7a28+Q3FwzW9hqixSTXCry4lT6cpUbVKqoYj3xVhOtPpn11odLjZ&#xA;bKElIpZDyklod5HNFHxdlAoB71JUozyjLe2usxahaaY2qS2QMyQgMURlFVkfiDsn2uo3xQk0kjyS&#xA;NI55O5LMx7kmpOKU884aIumeZJtNtYjxVIDEicnLGSBGNK1JqzHFUBDYW8cMs9/N6TRSGL6itfrL&#xA;OtKggikaitCzd+gNDiqCdgzEhQoJ2UVoPvxVbireKtYq2qsxooqf6bnFWsVdiq+MRlwJCVU/tAVp&#xA;9GKr7m2e3kCsyOGUOjxsGVlPQgj9R3HfFUz0HRZ9QsNZuUnaCPT7T1pAoJElZFAjbcbHr8xihKre&#xA;eS3uIp4zSSF1kQ+6moxSmnmvV7HWNbuNTtLY2i3R9SWEkECQ/aIIp1/XviqzT7jRnsbqHVI5DMkR&#xA;/R80AUOJdyFkJ2ZCaVruB0PYqvV/yZ8owpol3qWowRzfpEiKOCVVcCGPf4lNftseh8AcUN3vq6P5&#xA;+i0nyLZwRT3EatrQKs8CDlVS4DD0+CmtEIrUDriqW63+RusXF3Pd2urw3M1xI0shuY2iJZyWYkp6&#xA;vc+GKpBJ+S3nhWosdvIK05LMKfP4guKvSPys8ma75Zs72PU542W6ZHitYmLhCoIZiSAKtsNvDFWc&#xA;4q7FXYq7FXYq7FXYqhrnTdPuZ4rie3jkuIP7mcqPUSvXg/2l+g4qlOu+XdG1FYNNmsYpY7mT1Lly&#xA;vx8IhUkSfaDMxVK1rQmmKsVv/wAjPK8jNJbXd1aL1KFkkQD25KG+9sVYFpn5kXHl/S7rQtJtLeaw&#xA;Z5wt1MH9WUSEqJHCsorwoMVZXN5I/KXQrWK61bUJZ/VRZUt5JvjYMKikcCq9D4/jiqUavqfnDyvo&#xA;VrqCzwzya8TLFqnEy3EMJjT04RI4+EFDUDtvTFXm8kkksrSSMZJZGLO7GrMzGpJJ6knFKcajoE2j&#xA;aZDLqS+lqN+vK1s22eOCu80g7F/sqp9z2GKpJiqrcQTWt1LBJVZoHZHHQhkND+IxVXv7G4hSC7dF&#xA;W3vlaa3MdeFA5VkFehRhQjFVSO2ubTT/AK/Lbn0b4S29nOSBR0KeqwX9ocHKeFT4jFUPYWcl5dx2&#xA;6AlnqSBuaKCzU+gYqh8VRy6XPJpbajAPUhgcR3YG7RFvsMw/kfoD4inhVVdouuX2j3RuLT029RTH&#xA;PDMiyxSxkglHRgQQaYqz60hu7vS11mOyt9B8p6qEtdeNuQxIWUoJkWRT6a834gJXfdqjFCMu/wAo&#xA;fKr6TdappmuvNa20TzM49KZaRoWILIVp0xVjOt+fdP15Utr3Q7O1jd4xNfW6/wCkogYcij+PEEfE&#xA;Dir1jQfyr8k6aY7mO2N/JQNHNdMJRQjYhAFj/wCFxVPdN0+wMb8UR2t5JIYp02cRqxpHzWjUj+xS&#xA;vbFUZZabp9ijJZW0Vssh5SCJAnJv5moNz7nFURirsVdirsVdirsVdirsVdirsVdiqUeZ9L1K/wBO&#xA;H6Ku/qWqWziaznpVeYBBSQEGqOGodvftirz228xfmTc6zB5c8wwJY2d6Xgub4RcKx8WL+nNUxcmU&#xA;UWnfFWXaX+V/kWxKyR6alw/UPcM04P8AsXJT/hcVeMedPKt5b+cdQs9LtJLmF5PWt1tkaQBJvjCg&#xA;ID9kkr9GKsk8weY9Lj8gWPlXXba5g1y3SMqvpj9zwYiNzyZa1h2oPGm2KpY1lp/kPzhpF+W/S2ly&#xA;263Uc/BfjEisvJAa0KtRhvXFWK6/rl9rur3Gp3hrNOxIQbhEH2UX2VcUpbiqceabmK/1efVba2kg&#xA;sb1yYGkFObIqiQg9N23p2riqaaGl9P5P1SO40uW/0q2linguUbgYJyypJxYhiQ8f2wAabHbrihZ+&#xA;YdxfvrUVtPp76VZ2cEcWnWD0+CGla1BIZmYnkfoO4xVZ5AvNIs9YuLnUZPTZLK5FlX7JneMqFJ7V&#xA;UsB74qxoAkgAVJ2AGKU38reZLjQNUF4kS3FvIjQ3dnJ/dzROKMjA1+eKppa+SVuPJM3mq5vFtFWd&#xA;kjgKVEqVC/u6EfFz5ADpt1GKGXeb/Mug6l+X1tovlcS3KwNCk8Aik5xQxgnnJQcalwu9cVYp+V+h&#xA;Sat5ugt5FJs4FeW/jNeLRqKcHHcM5AIOKvXNR/LD8uyDPcWKWqj7TrNJEv3cwuKsWWy8+avqtxo/&#xA;l3W6eVLIpbQ6hE0RCRiNT6QkjAkkdAafa+ZxV6fo+lW2k6Zb6dbVMNunEMxqzEmrMx8WYknFUZir&#xA;sVdirsVdirsVdirsVdirsVdirsVdiryr8/NQKadpWng7TTSTuP8AjEoVa/8AI04q8XxSzj8qPOKa&#xA;Brptrt+GmajxjmY9I5B/dyew3o3tv2xQy388fLM1wtjrlpEZHWlpcKgLEh2rCaD/ACmK/SMVSfWf&#xA;yw83/wCDNOkaZru4sfUkOlBQXhjmoxWNh8TsONWX/gfdVhmnW+lJoWrTXNz6WqoqRWlqwIJrKnM/&#xA;MpyHtTfriqURRSyyLFEjSSOaIigsxJ7ADFL0TzP5x8sz6Ponl6fSpGOmeh+kf90PE6KFuIYwQCWL&#xA;cgxNN/vxQjfzC/MDSo9GtvLvlRlisXiR55oQUCxsOSxL35Hq/ft44qqwedvKfmbyZPB5uWuqadGT&#xA;FInwzSk0VXhaho7GgcHbuduiqRQ6h5H1bySmkG1ksvMFgjPZOimQ3MzbsvJRU8z+yw22ocVYJQhq&#xA;HYg717HFLIPNFvpmoeZnPlvldQ6gVlito0fkksgq8QUgE0atKDpihmOqflZ5ng8hwKbqSe6tZHup&#xA;dHUho1VwAfToPikUCp3pueO/2lWS/kt5f/RvlyfVrkenLqTclLbUgiqFJr0qSx+VMVecfmV5x/xB&#xA;5kMtm1LGxBgtHXYvv8clR/MentTFWIu7uxZ2LMerE1P44peufkHqJ5atprHYiK5iX70c/wDEMUPX&#xA;8VdirsVdirsVdirsVdirsVdirsVdirsVdirxb8/K/pbSvD6vJT/gxirzUWE40837jjbmT0Yif23A&#xA;5Nx8Qopy8KjxxSh445JJFjjUvI5Coigkkk0AAHUnFXsieUvzQm8lafbpqSxXFrIJorBv3cwRKNCj&#xA;TVoSjCoRunc7ABQzTy7rXmm5tBDq+iSWuoRrR5vUh+rOw25VV2da+AVsVQOv/l/5VuLebUtSskuL&#xA;1SJ7u5VpIQyhw0vwxsopwqBWp9yd8VT7SfLXl7RlJ02wgtDT4pVUc6e8hq1PmcVec2v5d6b5m876&#xA;trLXUc+gx3QHGFqmab00eRCw6KGbcjr28cVRH5w6H5OTTEupZUsdXijEdlFCoLSogosbRinwqNg3&#xA;7Pv0xVHflx5d8iXHlmaCzdNSkvEC6m0wCyg7Hhw+1GqtutO+9TiqRW35eQ+UfPOl6lPeRjQDM4iu&#xA;J3VHSYxOY43rQGpGzD8MVel6poPlm+RrvUrC1uAi8zPLEjtxArXlStKYqg9I8rWGnWNpcabZQWOp&#xA;pEnrMqKpkJQB4pWUFqE9+x336FVCebdf80xWT2ehaLcyajOvFbpvS9GLltyDBzyYdq0Hj4YqxC98&#xA;rfmfB+Xr6e12szBuUljHV7n6uR8UXrVo2+5QdtuR+zirx4ggkEUI2IOKUba6XPd2F1dWwMjWVHuY&#xA;gKsIW29QAfsq2zeFR74qzj8ijJ/i664iqGxk5+372Kn44oe74q7FXYq7FXYq7FXYq7FXYq7FXYq7&#xA;FXYq7FUj8z+TNC8yrbDVImY2rFonjYo1GpyUkfsmgxVg/wCY/wCXWt6peaTaeX7SJNJs4GiVOaRp&#xA;E7PVmIJ5HkKVIBOKp95G/K/SvLfG8uSL3V6f35H7uLxESn/iR3+WKs2xV2KuIBBBFQdiDirBfNf5&#xA;b6nrHKKz8w3NrYN106TlLCB4AhkPHwDVxViXmCw8y/lpoMcOk6iJoNSmb6zcGEK0UgQcRHyaQfGo&#xA;NT/k4q8vu7u6vLh7i7me4uJDV5ZWLux92NTildY399YXC3NlcSW1wn2ZYmKMPpWmKvUPK9jrn5la&#xA;RLFr2oOttpsqfVpo40DSSMp5B6AA8FpT54oZr5Y/LLStDkSRry6vvSYPDBNJS3RwahxCvwlh2Jr4&#xA;9cVZhirsVdirB/O/5V6R5hZ721YWGqtu0yiscp/4sUd/8ob+NcVY1+XX5c+a9C82m51CGMaeIZYp&#xA;ZVkR0lDigULXn1ofiUYq9I0fyr5e0W4uLjS7GO1muqesyctwN6KCSFHstBiqa4q7FXYq7FXYq7FX&#xA;Yq7FXYq7FXYq7FXYq7FXYq7FXYq7FXYq7FXYqx38wPLx17yre2Ma8rpV9e0Hf1YviAH+sKr9OKvm&#xA;UKxbiASxNAvevhilGa1p7abrF9p7Ag2k8kO++yMVBrt1AxV9Fflx5fbQ/KNnaypwupgbm6U7ESS0&#xA;ND7qoVfoxQybFXYq7FXYq7FXYq7FXYq7FXYq7FXYq7FXYq7FXYq7FXYq7FXYq7FXYq7FXYq7FXYq&#xA;7FXYq7FXg2u/4N/5Wxb+jz+o/W0/SHHj6f1rn8XGv+6+dOf+yp2xVM9f/wAF/wDK31+ver6fKL6z&#xA;9n0PrfFeHLvw+zy/yuu1cVezYq7FXYq7FXYq7FXYq7FXYq7FXYq7FXYq7FXYq//Z</xmpGImg:image>
               </rdf:li>
            </rdf:Alt>
         </xmp:Thumbnails>
      </rdf:Description>
      <rdf:Description rdf:about=""
            xmlns:xmpMM="http://ns.adobe.com/xap/1.0/mm/"
            xmlns:stRef="http://ns.adobe.com/xap/1.0/sType/ResourceRef#"
            xmlns:stEvt="http://ns.adobe.com/xap/1.0/sType/ResourceEvent#">
         <xmpMM:InstanceID>xmp.iid:A7A92EAE336FE41195E3D1493AEF96AB</xmpMM:InstanceID>
         <xmpMM:DocumentID>xmp.did:A7A92EAE336FE41195E3D1493AEF96AB</xmpMM:DocumentID>
         <xmpMM:OriginalDocumentID>uuid:5D20892493BFDB11914A8590D31508C8</xmpMM:OriginalDocumentID>
         <xmpMM:RenditionClass>proof:pdf</xmpMM:RenditionClass>
         <xmpMM:DerivedFrom rdf:parseType="Resource">
            <stRef:instanceID>xmp.iid:A6A92EAE336FE41195E3D1493AEF96AB</stRef:instanceID>
            <stRef:documentID>xmp.did:A6A92EAE336FE41195E3D1493AEF96AB</stRef:documentID>
            <stRef:originalDocumentID>uuid:5D20892493BFDB11914A8590D31508C8</stRef:originalDocumentID>
            <stRef:renditionClass>proof:pdf</stRef:renditionClass>
         </xmpMM:DerivedFrom>
         <xmpMM:History>
            <rdf:Seq>
               <rdf:li rdf:parseType="Resource">
                  <stEvt:action>saved</stEvt:action>
                  <stEvt:instanceID>xmp.iid:9FB6100F196FE41195E3D1493AEF96AB</stEvt:instanceID>
                  <stEvt:when>2014-11-18T22:56:30+08:00</stEvt:when>
                  <stEvt:softwareAgent>Adobe Illustrator CS6 (Windows)</stEvt:softwareAgent>
                  <stEvt:changed>/</stEvt:changed>
               </rdf:li>
               <rdf:li rdf:parseType="Resource">
                  <stEvt:action>saved</stEvt:action>
                  <stEvt:instanceID>xmp.iid:A7A92EAE336FE41195E3D1493AEF96AB</stEvt:instanceID>
                  <stEvt:when>2014-11-18T23:03:31+08:00</stEvt:when>
                  <stEvt:softwareAgent>Adobe Illustrator CS6 (Windows)</stEvt:softwareAgent>
                  <stEvt:changed>/</stEvt:changed>
               </rdf:li>
            </rdf:Seq>
         </xmpMM:History>
      </rdf:Description>
      <rdf:Description rdf:about=""
            xmlns:illustrator="http://ns.adobe.com/illustrator/1.0/">
         <illustrator:StartupProfile>Print</illustrator:StartupProfile>
      </rdf:Description>
      <rdf:Description rdf:about=""
            xmlns:xmpTPg="http://ns.adobe.com/xap/1.0/t/pg/"
            xmlns:stDim="http://ns.adobe.com/xap/1.0/sType/Dimensions#"
            xmlns:xmpG="http://ns.adobe.com/xap/1.0/g/">
         <xmpTPg:HasVisibleOverprint>False</xmpTPg:HasVisibleOverprint>
         <xmpTPg:HasVisibleTransparency>False</xmpTPg:HasVisibleTransparency>
         <xmpTPg:NPages>1</xmpTPg:NPages>
         <xmpTPg:MaxPageSize rdf:parseType="Resource">
            <stDim:w>260.000000</stDim:w>
            <stDim:h>400.000000</stDim:h>
            <stDim:unit>Pixels</stDim:unit>
         </xmpTPg:MaxPageSize>
         <xmpTPg:PlateNames>
            <rdf:Seq>
               <rdf:li>Cyan</rdf:li>
               <rdf:li>Magenta</rdf:li>
               <rdf:li>Yellow</rdf:li>
               <rdf:li>Black</rdf:li>
            </rdf:Seq>
         </xmpTPg:PlateNames>
         <xmpTPg:SwatchGroups>
            <rdf:Seq>
               <rdf:li rdf:parseType="Resource">
                  <xmpG:groupName>默认色板组</xmpG:groupName>
                  <xmpG:groupType>0</xmpG:groupType>
               </rdf:li>
            </rdf:Seq>
         </xmpTPg:SwatchGroups>
      </rdf:Description>
      <rdf:Description rdf:about=""
            xmlns:pdf="http://ns.adobe.com/pdf/1.3/">
         <pdf:Producer>Adobe PDF library 10.01</pdf:Producer>
      </rdf:Description>
   </rdf:RDF>
</x:xmpmeta>
                                                                                                    
                                                                                                    
                                                                                                    
                                                                                                    
                                                                                                    
                                                                                                    
                                                                                                    
                                                                                                    
                                                                                                    
                                                                                                    
                                                                                                    
                                                                                                    
                                                                                                    
                                                                                                    
                                                                                                    
                                                                                                    
                                                                                                    
                                                                                                    
                                                                                                    
                                                                                                    
                           
<?xpacket end="w"?>
	</metadata>
<path fill="#727171" d="M128.998,96.393c0.299-43.544-20.558,15.405-14.788,41.831c-5.771-26.426,46.829-62.918,37.312-25.896
	c9.519-37.022-35.066,9.816-31.626,33.236c-3.439-23.42,49.162-59.912,37.311-25.896c11.851-34.016-32.735,12.823-31.627,33.236
	c-1.108-20.414,35.125-67.898,25.7-33.689c9.425-34.209,19.722,25.963,7.304,42.687c12.418-16.724-4.623-80.942-12.09-45.548
	c7.467-35.395,37.446,23.814,21.271,41.984c16.176-18.169-0.867-82.388-12.09-45.549c11.223-36.839,41.203,22.37,21.271,42.003
	c19.932-19.633,30.664-81.27,7.609-43.727c23.055-37.543-23.082,1.676-32.726,27.831c9.644-26.155,71.664-28.92,43.996-1.964
	c27.668-26.956-33.158-11.446-43.158,11.001c10-22.447,72.021-25.221,43.998-1.965c28.022-23.256-32.813-7.726-43.149,11.001
	c10.338-18.728,63.409-40.654,37.647-15.548c25.762-25.105,8.235,32.119-12.438,40.596c20.674-8.477,32.938-73.399,8.709-46.049
	c24.229-27.35,25.791,38.958,1.109,47.042c24.682-8.083,36.945-73.004,8.697-46.059c28.248-26.946,29.818,39.363,1.109,47.042
	c28.709-7.679,65.172-56.704,25.875-34.788c39.297-21.916-18.119-11.174-40.74,7.631c22.621-18.805,75.162,11.098,37.281,21.213
	c37.881-10.116-20.355-28.323-41.318-12.919c20.963-15.404,73.516,14.519,37.273,21.224c36.241-6.705-22.005-24.913-41.31-12.919
	c19.305-11.994,74.071-3.343,38.853,6.137c35.221-9.48-6.966,30.876-29.923,28.631c22.957,2.245,64.681-47.484,29.586-35.279
	c35.095-12.206,4.834,45.887-21.465,41.213c26.299,4.674,68.015-45.066,29.595-35.278c38.42-9.788,8.159,48.304-21.464,41.204
	c29.623,7.101,84.181-16.406,38.697-16.677c45.481,0.271-7.533-20.01-37.601-14.393c30.066-5.617,57.234,47.427,19.269,37.629
	c37.967,9.798-0.653-35.896-27.396-32.408c26.742-3.487,53.908,49.558,19.266,37.63c34.643,11.928-3.979-33.776-27.387-32.417
	c23.408-1.358,63.668,34.287,28.553,25.279c35.115,9.008-19.691,22.532-38.881,9.604c19.188,12.928,78.264-9.625,41.906-16.012
	c36.356,6.387-17.023,41.656-37.871,25.028c20.848,16.628,79.922-5.925,41.906-16.013c38.016,10.088-15.365,45.356-37.869,25.028
	c22.504,20.328,79.508,27.216,40.442,4.896c39.063,22.32,5.69-22.102-23.672-31.521c29.362,9.422,23.267,68.861-4.324,42.166
	c27.591,26.695,19.865-32.367-5.481-41.896c25.348,9.529,19.25,68.979-4.324,42.178c23.574,26.801,15.838-32.273-5.492-41.906
	c21.33,9.633,35.848,60.567,10.299,36.126c25.549,24.441-26.803,9.171-37.129-10.827c10.326,19.998,71.203,28.938,43.178,6.348
	c28.025,22.592-34.035,27.408-44.024,3.41c9.989,23.998,70.854,32.938,43.188,6.35c27.666,26.589-34.395,31.404-44.027,3.41
	c9.634,27.994,55,61.328,32.177,23.641c22.823,37.688,14.778-17.465-5.703-39.122c20.481,21.657-13.293,72.091-23.967,35.771
	c10.674,36.32,31.51-20.135,14.786-40.037c16.724,19.902-17.053,70.336-23.969,35.77c6.916,34.566,27.754-21.878,14.787-40.048
	c12.967,18.17,0.443,70.462-8.883,37.101c9.326,33.361-27.407-5.935-26.059-27.869c-1.348,21.936,44.883,60.384,32.803,27.281
	c12.08,33.103-42.167,6.012-38.487-19.229c-3.68,25.24,42.553,63.689,32.793,27.282c9.76,36.407-44.479,9.307-38.478-19.228
	c-6.001,28.533,15.646,80.221,15.357,36.664c0.289,43.557,20.007-9.72,13.988-37.793c6.02,28.073-48.217,58.352-38.467,21.475
	c-9.75,36.877,35.336-4.76,31.975-29.527c3.361,24.77-50.868,55.047-38.468,21.475c-12.4,33.572,32.687-8.055,31.982-29.527
	c0.705,21.474-35.701,62.725-25.818,29.258c-9.883,33.467-22.552-18.699-8.997-37.003c-13.555,18.304,8.073,73.765,15.346,39.344
	c-7.272,34.421-40.712-15.019-23.718-35.076c-16.994,20.058,4.634,75.509,15.337,39.345c-10.703,36.164-44.131-13.275-23.708-35.076
	c-20.423,21.801-27.081,77.339-4.73,39.4c-22.351,37.938,22.321,1.205,31.695-26.059c-9.375,27.264-73.168,27.494-45.26,0.164
	c-27.909,27.33,33.564,13.352,43.611-9.913c-10.047,23.265-73.842,23.485-45.258,0.153c-28.584,23.332,32.89,9.354,43.611-9.922
	c-10.722,19.276-64.219,37.879-37.958,13.207c-26.262,24.672-10.202-27.07,11.396-36.713c-21.598,9.643-30.731,68.707-6.473,41.896
	c-24.258,26.812-27.822-32.64-2.524-42.167c-25.298,9.527-34.431,68.592-6.483,41.888c-27.947,26.704-31.503-32.735-2.523-42.157
	c-28.979,9.422-63.044,54.815-24.162,32.207c-38.882,22.608,19.643,12.514,41.511-7.158c-21.869,19.672-79.43-11.138-40.837-21.869
	c-38.592,10.731,23.526,28.834,44.074,12.852c-20.548,15.982-78.109-14.836-40.837-21.867
	c-37.272,7.031,24.845,25.144,44.065,12.851c-19.221,12.293-77.186,1.405-41.118-7.726c-36.068,9.131,7.698-26.089,31.05-24.972
	c-23.353-1.117-65.722,42.89-30.067,31.214c-35.655,11.676-3.604-39.672,22.745-36.436c-26.348-3.237-68.727,40.771-30.058,31.213
	c-38.669,9.558-6.618-41.8,22.735-36.424c-29.353-5.376-84.863,14.093-39.382,13.804c-45.48,0.289,11.57,22.794,40.472,15.974
	c-28.902,6.82-64.037-49.344-24.923-39.845c-39.113-9.499,6.349,38.313,32.244,33.92c-25.895,4.394-61.029-51.771-24.923-39.845
	c-36.106-11.926,9.346,35.885,32.245,33.919c-22.899,1.966-68.592-37.898-32.408-28.284c-36.185-9.614,21.869-15.472,41.174-4.162
	c-19.305-11.31-80.827,2.235-43.641,9.615c-37.186-7.38,19.778-32.63,40.415-17.909c-20.636-14.721-82.167-1.186-43.651,9.604
	c-38.516-10.79,18.459-36.03,40.415-17.909c-21.955-18.121-81.079-32.167-41.937-9.971c-39.142-22.196-1.715,27.784,26.541,35.453
	c-28.256-7.669-29.633-73.93-0.964-46.994c-28.669-26.936-14.604,37.928,9.971,46.011c-24.576-8.083-25.943-74.334-0.972-46.994
	c-24.971-27.34-10.906,37.524,9.981,46.011c-20.887-8.487-40.184-66.53-13.691-41.174c-26.493-25.356,27.707,0.115,38.449,18.072
	c-10.742-17.957-72.08-38.881-43.515-14.846c-28.564-24.036,35.095-15.857,45.162,5.81c-10.067-21.667-71.405-42.591-43.515-14.856
	c-27.89-27.735,35.771-19.556,45.163,5.8c-9.393-25.356-54.787-68.226-32.205-30.404c-22.582-37.822-13.151,24.384,6.694,44.124
	c-19.845-19.74,9.615-78.188,20.897-41.464c-11.282-36.724-28.931,26.734-12.525,45.019c-16.406-18.285,13.045-76.733,20.896-41.454
	c-7.851-35.279-25.501,28.179-12.515,45.009c-12.986-16.83-2.668-76.993,7.313-42.678c-9.981-34.315,25.866,15.096,25.433,35.047
	c0.434-19.952-42.802-69.922-30.673-35.442c-12.129-34.48,40.251,5.154,37.157,28.111c3.094-22.958-40.146-72.938-30.665-35.443
	c-9.48-37.495,42.909,2.138,37.157,28.101C148.063,113.368,129.296,52.849,128.998,96.393z"/>
</svg>
