<?xml version="1.0" encoding="utf-8"?>
<!-- Generator: Adobe Illustrator 16.0.0, SVG Export Plug-In . SVG Version: 6.00 Build 0)  -->
<!DOCTYPE svg PUBLIC "-//W3C//DTD SVG 1.1//EN" "http://www.w3.org/Graphics/SVG/1.1/DTD/svg11.dtd">
<svg version="1.1" id="图层_1" xmlns="http://www.w3.org/2000/svg" xmlns:xlink="http://www.w3.org/1999/xlink" x="0px" y="0px"
	 width="260px" height="400px" viewBox="0 0 260 400" enable-background="new 0 0 260 400" xml:space="preserve">
<metadata><?xpacket begin="﻿" id="W5M0MpCehiHzreSzNTczkc9d"?>
<x:xmpmeta xmlns:x="adobe:ns:meta/" x:xmptk="Adobe XMP Core 5.3-c011 66.145661, 2012/02/06-14:56:27        ">
   <rdf:RDF xmlns:rdf="http://www.w3.org/1999/02/22-rdf-syntax-ns#">
      <rdf:Description rdf:about=""
            xmlns:dc="http://purl.org/dc/elements/1.1/">
         <dc:format>image/svg+xml</dc:format>
         <dc:title>
            <rdf:Alt>
               <rdf:li xml:lang="x-default">打印</rdf:li>
            </rdf:Alt>
         </dc:title>
      </rdf:Description>
      <rdf:Description rdf:about=""
            xmlns:xmp="http://ns.adobe.com/xap/1.0/"
            xmlns:xmpGImg="http://ns.adobe.com/xap/1.0/g/img/">
         <xmp:MetadataDate>2014-11-18T23:12:22+08:00</xmp:MetadataDate>
         <xmp:ModifyDate>2014-11-18T23:12:22+08:00</xmp:ModifyDate>
         <xmp:CreateDate>2014-11-18T23:12:22+08:00</xmp:CreateDate>
         <xmp:CreatorTool>Adobe Illustrator CS6 (Windows)</xmp:CreatorTool>
         <xmp:Thumbnails>
            <rdf:Alt>
               <rdf:li rdf:parseType="Resource">
                  <xmpGImg:width>192</xmpGImg:width>
                  <xmpGImg:height>256</xmpGImg:height>
                  <xmpGImg:format>JPEG</xmpGImg:format>
                  <xmpGImg:image>/9j/4AAQSkZJRgABAgEASABIAAD/7QAsUGhvdG9zaG9wIDMuMAA4QklNA+0AAAAAABAASAAAAAEA&#xA;AQBIAAAAAQAB/+4ADkFkb2JlAGTAAAAAAf/bAIQABgQEBAUEBgUFBgkGBQYJCwgGBggLDAoKCwoK&#xA;DBAMDAwMDAwQDA4PEA8ODBMTFBQTExwbGxscHx8fHx8fHx8fHwEHBwcNDA0YEBAYGhURFRofHx8f&#xA;Hx8fHx8fHx8fHx8fHx8fHx8fHx8fHx8fHx8fHx8fHx8fHx8fHx8fHx8fHx8f/8AAEQgBAADAAwER&#xA;AAIRAQMRAf/EAaIAAAAHAQEBAQEAAAAAAAAAAAQFAwIGAQAHCAkKCwEAAgIDAQEBAQEAAAAAAAAA&#xA;AQACAwQFBgcICQoLEAACAQMDAgQCBgcDBAIGAnMBAgMRBAAFIRIxQVEGE2EicYEUMpGhBxWxQiPB&#xA;UtHhMxZi8CRygvElQzRTkqKyY3PCNUQnk6OzNhdUZHTD0uIIJoMJChgZhJRFRqS0VtNVKBry4/PE&#xA;1OT0ZXWFlaW1xdXl9WZ2hpamtsbW5vY3R1dnd4eXp7fH1+f3OEhYaHiImKi4yNjo+Ck5SVlpeYmZ&#xA;qbnJ2en5KjpKWmp6ipqqusra6voRAAICAQIDBQUEBQYECAMDbQEAAhEDBCESMUEFURNhIgZxgZEy&#xA;obHwFMHR4SNCFVJicvEzJDRDghaSUyWiY7LCB3PSNeJEgxdUkwgJChgZJjZFGidkdFU38qOzwygp&#xA;0+PzhJSktMTU5PRldYWVpbXF1eX1RlZmdoaWprbG1ub2R1dnd4eXp7fH1+f3OEhYaHiImKi4yNjo&#xA;+DlJWWl5iZmpucnZ6fkqOkpaanqKmqq6ytrq+v/aAAwDAQACEQMRAD8A9U4q7FXYq7FXYqx38w2K&#xA;+T78qaEejQj/AIzpirIsVdirsVdirsVdirsVdirsVdirsVdirsVdirsVdirsVdirsVdirsVdirsV&#xA;Y5+Yn/KHah/zx/5PpirI8VdirsVdirsVdirsVdirsVdirsVdirsVdirsVdirsVdirsVdirsVdirs&#xA;VYf+bMl3F5Gvpbd1T03gMwYV5IZlWg8DyKnFWXRCQRoJSGkAHNlFAWpuQCTQYquxV2KuxV2KuxV2&#xA;KuxV2KuxV2KuxV2KuxV2KuxV2KuxV2KuxV2KuxV2KsQ/Nv8A8l9qv/Rv/wBRMWKsvxV2KuxV2Kux&#xA;V2KuxV2KuxV2KuxV2KuxV2KuxV2KuxV2KuxV2KuxV2KuxVhX5xXSw+Q72MqzG5kgiUqNlIlWSre1&#xA;I6fOmKsusLoXljb3YRohcRJKI3pyXmobi1CRUV3xVXxV2KuxV2KuxV2KuxV2KuxV2KuxV2KuxV2K&#xA;uxV2KuxV2KuxV2KuxV2KsE/On/lB5f8AmIh/WcVZho3/AByLH/mHi/4gMVReKuxV2KuxV2KuxV2K&#xA;uxV2KuxV2KuxV2KuxV2KuxV2KuxV2KuxV2KuxV51+d+p2UPldNPkkpeXUySQRUJqsR+M1pQU5DFW&#xA;W+UtXsNV8vWVzYyerCsaxMaFSHjUKwowHQjFU4xV2KuxV2KuxV2KuxV2KuxV2KuxV2KuxV2KuxV2&#xA;KuxV2KuxV2KuxV2KvAfzra+PnMifl9XFvF9Ur9nhT4uP+z5VxVmf5FJqQ8u3jT8vqLXH+hhulQtJ&#xA;Stf2a0+mvvir0vFXYq7FXYq7FXYq7FXYq7FXYq7FXYq7FXYq7FXYq7FXYq7FXYq7FXYq8m/P4D6p&#xA;ox7+pPv9CYqzD8rv+UC0j/jG/wDydfFWU4q7FXYq7FXYq7FXYq7FXYq7FXYq7FXYq7FXYq7FXYq7&#xA;FXYq7FXYq7FXkX5/XMPHRrYN++BnkK+CngoP0kHFWY/lVLHJ5C0vga8FkRtiNxK9euKssxV2KuxV&#xA;2KuxV2KuxV2KuxV2KuxV2KuxV2KuxV2KuxV2KuxV2KuxV2KvFvz21bTby50q1tbmOe4s/rIuo42D&#xA;GMv6XENTofgO2Ksz/KPV9PuvJthZR3EbXtqsguLYMPUQes/EletCCDXFWbYq7FXYq7FXYq7FXYq7&#xA;FXYq7FXYq7FXYq7FXYq7FXYq7FXYq7FXYq8z/OXzrc6Xaw6Jp8hiu71DJczIaMkNSoVSOhcg7+A9&#xA;8VeHYpRFjf3lhdxXlnM0FzC3KKVDQgj/AD3xV9MeSfMq+Y/LlrqVAs7Ax3Ua9FlTZqex+0PY4oT3&#xA;FXYq7FXYq7FXYq7FXYq7FXYq7FXYq7FXYq7FXYq7FXYq7FXYq+fPzmE3+OZ/U+wYIfS/1eH/ADVX&#xA;FWC4pdir3X8iY5l8q3jttHJeuYx8oowT/DFD0jFXYq7FXYq7FXYq7FXYq7FXYq7FXYq7FXYq7FXY&#xA;q7FXYq7FXYq85/OPyaNU0v8ATluwS70yJvWVv92QA8iAfFCSR8zirwjFKZ+XfLup+YNUj07T4+cz&#xA;/E7nZI4wQGdz2UV/h1xV9L+WdAttA0O10q3bmlup5SEULuxLOxHuxxQmeKuxV2KuxV2KuxV2KuxV&#xA;2KuxV2KuxV2KuxV2KuxV2KuxV2KuxVIvPn/KGa1/zBzf8QOKvnKxltl0XVI5GUTyeh6Cn7R4uS3H&#xA;6OuKs0/Ij/lLrv8A7Z8n/J6HFXu2KuxV2KuxV2KuxV2KuxV2KuxV2KuxV2KuxV2KuxV2KuxV2Kux&#xA;V2KpF58/5QzWv+YOb/iBxV8yx2lxJbzXCJWGDiJWqPh5khfvIxS9B/Ij/lLrv/tnyf8AJ6HFD3bF&#xA;XYq7FXYq7FXYq7FXYq7FXYq7FXYq7FXYq7FXYq7FXYq7FXYq7FUi8+f8oZrX/MHN/wAQOKvmiC/m&#xA;hs7m0UKY7v0/UJrUemxYU38cUs+/Ij/lLrv/ALZ8n/J6HFD3bFXYq7FXYq7FXYq7FXYq7FXYq7FX&#xA;Yq7FXYq7FXYq7FXYq7FXYq7FUi8+f8oZrX/MHN/xA4q+b7a1tX0W+uX2uYZrdId6fDIJee3f7AxS&#xA;zf8AIj/lLrv/ALZ8n/J6HFD3bFXYq7FXYq7FXYq7FXYq7FXYq7FXYq7FXYq7FXYq7FXYq7FXYq7F&#xA;Ui8+f8oZrX/MHN/xA4q+YhFK0bShGMaEB3APEFq8QT2rQ0xS9E/Ij/lLrv8A7Z8n/J6HFD3bFXYq&#xA;7FXYq7FXYq7FXYq7FULeXbwT28aqCJm4kntuo/jiqKxV2KqL3AW9it+W8kckgXuRGyCv0epiqtir&#xA;sVdirsVdirsVdirsVSLz5/yhmtf8wc3/ABA4q+a4NQ9LTLux4V+tSQyepX7Poh9qU3r6mKWd/kR/&#xA;yl13/wBs+T/k9Dih7tirsVdirsVdirsVdiqFmvUGn3N0h2hWbcb7wllPX3XFUUrBgGU1U7gjoRiq&#xA;TaxIF1jSVP7ZkA+YaM/qGKpziriSASBU9hirwLzZ+bGvaheSRW9ummmFZLdWR2aZayxux9QFRXlA&#xA;Og8cVRXkr81fOD61bafdMmprfTRwqJqRshZqVV0AA671U4q9zxV2KuxV2KuxV2KuxVIvPn/KGa1/&#xA;zBzf8QOKvm63sIpdHvb0sRLbS28aKKcSJhJyr/yLFMUs4/Ij/lLrv/tnyf8AJ6HFD3bFVKa4WKSB&#xA;CCTO5jUjsQjPv/wGKquKuxV2KoDXNd0vQ9Pa/wBTlMNqrBC4VnPJugogJ3xVgPmP879Js5YU0SJd&#xA;UjdSZpGMsHBq7LxeME4qxy0/OqVNNurG40pWFwblhJHKRRrmR5PslTsvqeOKvSrnz1oGk+WtP1PU&#xA;JvSN3axTwWi0aZ+cYYBVHzpU7e+KvIPMH5oa9rmtWktuf0fa28o+rRR0LirCpdyNyadtsVfQuKux&#xA;V8naz/x177/mIl/4mcUpl5E/5TPRf+YyH/iYxV9P4odirsVdirsVdirsVSLz5/yhmtf8wc3/ABA4&#xA;q+YgkhjZwp9JSFZqHiGIJUE+JoaYpeifkR/yl13/ANs+T/k9Dih7tiqEvv8AerT/APmIb/qHlxVh&#xA;+v8A5x+VdKuJrWETX9zCxRhCoEYZTQj1GI+9QcVZP5c8yaZ5h083+nMzQBzESylfjVQxoDQ7csVT&#xA;TFWCfnT/AMoPL/zEQ/rOKvn3FLsVVJp55mVppGkZVWNS5LEIg4qor2UCgGKrrP8A3rg/4yL/AMSG&#xA;KvrfFCSeZvOWg+XLUT6jP8bHjFbRUeVyOtFqOniSBir5kv7hbi+uLhQQs0ryKD1AZid/vxSm/kT/&#xA;AJTPRf8AmMh/4mMVfT+KHYq7FXYq7FXYq7FUi8+f8oZrX/MHN/xA4q+bob+FNCvLAhvWuLq2nRgB&#xA;xCwR3CMCa1qTOtNvHFLOPyI/5S67/wC2fJ/yehxQ92xV5Z+bP5g3Gm3J0KyhZLkJ6jXvOhUTRPHR&#xA;ABWtH61xV4ril75+R/8Ayhj/APMZL/xBMUIDzd+Y8em/mBp1pHdyDTLP93qyR0KF3qN/H06gtT5d&#xA;cVTT85nR/IjujBkaeBlZTUEEkggjFXz9il2KuxVsEggg0I3BGKvW/JH5ow6jZt5e80zMouEMEWph&#xA;ihIYcaSuKFW8H+/xxQwTz35etPL/AJkuNMtJpJ4UVHDygcv3ihqVXZuvWgxVj2KU+8if8pnov/MZ&#xA;D/xMYq+n8UOqK07+GKuxV2KuxV2KuxV5n+bnn+3sLWfy3Zos15dRcbx2+zDHIPs7H7bDf2GKvDsU&#xA;pp5e8yav5fvJLzS5RDcSxNAzsqv8DENsGBFaqDiqbp+afn5WDDV3qPGOEj7ilMUJHrWuaprd8b7U&#xA;5/rF0yhDJxRPhXoKIFX8MUoDFXo3l7zxb6B+W9zYW8rprV3NKbQqrURT6aM/MUoQOXH3GKHnkssk&#xA;sryyuZJZGLO7GrMzGpJJ6knFKc3Pmi+u/K8Oh3UrypbXCy2xY14RiNk4b9txQdsVSPFXYq7FXYq7&#xA;FW2ZmNWJJ6VO+wxVrFU+8if8pnov/MZD/wATGKvp/FCAtrn1NavoK/3MNv8AD/rmU1xVH4qteWJG&#xA;RHdVaQlY1JALEAsQo77AnFV2KuxV2KvljzbcSXPmjVppHEjPdzUcGooJCFp7AbDFKU4q7FXYq7FX&#xA;YqqvcyvbxQMR6cJYoKb1enLf6MVUsVdirsVdirsVdirsVdirsVTnybcw23mzSJ5m4RR3cJduwHMC&#xA;p+WKvU/zC/NrUNF1a40XS7RFuLfiJruf4h8aBx6aKR2YbsfoxQ85t/zI852+qXOpx6gfrV2EW45R&#xA;xlGWMUQBCvFaf5NMVet/lh5/1LzSt3Bf20aTWaoxuIiQH5kgAoa0Pw9QfoxVgXlz8y9Uv/OOmXfm&#xA;O+SPTbRp5OIjCxozW8iA/AC5J5UFa4q9j0HzZ5f19XOk3a3JjAaRQrqygkqOQcKRXicVTbFXYq+b&#xA;vzN8t3Oi+a7tmjItL6R7m0k/ZIkPJlr4oxpT5eOKsTxS7FXYq7FXYq7FXYq7FXYq7FXYq7FXYq7F&#xA;XYq2CQajYjocVRF/qN9qFy11fTvc3LgBppWLMQooKk+AxVDYqzv8m9X1C1842+nQS8LPUOf1yLip&#xA;5+hBK8fxEFl4sf2SMUMExSjLHV9U09Jksbua1W4AE3ou0ZYLWgJUg98VXw69rkEglh1C5jkBqHWa&#xA;QGvzBxV6Z5A/OG6N1FpnmSRXikISHUiArIx2AmpQFf8AK7d/EKGS/mhr3lqbyXeoLi1vZ3KJaojx&#xA;yssrNs4oWK0Xka4q+f8AFLsVdirsVdirsVdirsVdirsVdirsVdirsVdirsVdirsVZh+Un/kwdK/6&#xA;OP8AqGlxQw/FLsVdirsVdirsVdirsVdirsVdirsVdirsVdirsVdirsVdirsVdirsVdirMPyk/wDJ&#xA;g6V/0cf9Q0uKGH4pdirsVdirsVdirsVdirsVdirsVdirsVdirsVdirsVdirsVdirsVdirsVZh+Un&#xA;/kwdK/6OP+oaXFDD8UuxV2KuxV2KuxV2KuxV2KuxV2KuxV2KuxV2KuxV2KuxV2KuxV2KuxV2Ksw/&#xA;KT/yYOlf9HH/AFDS4oYfil2KuxV2KuxV2KuxV2KuxV2KuxV2KuxV2KuxV2KuxV2KuxV2KuxV2Kux&#xA;VmH5Sf8AkwdK/wCjj/qGlxQw/FLsVdirsVdirsVdirsVdirsVdirsVdirsVdirsVdirsVdirsVdi&#xA;rsVdirMPyk/8mDpX/Rx/1DS4of/Z</xmpGImg:image>
               </rdf:li>
            </rdf:Alt>
         </xmp:Thumbnails>
      </rdf:Description>
      <rdf:Description rdf:about=""
            xmlns:xmpMM="http://ns.adobe.com/xap/1.0/mm/"
            xmlns:stRef="http://ns.adobe.com/xap/1.0/sType/ResourceRef#"
            xmlns:stEvt="http://ns.adobe.com/xap/1.0/sType/ResourceEvent#">
         <xmpMM:InstanceID>xmp.iid:ADD2D90B356FE41195E3D1493AEF96AB</xmpMM:InstanceID>
         <xmpMM:DocumentID>xmp.did:ADD2D90B356FE41195E3D1493AEF96AB</xmpMM:DocumentID>
         <xmpMM:OriginalDocumentID>uuid:5D20892493BFDB11914A8590D31508C8</xmpMM:OriginalDocumentID>
         <xmpMM:RenditionClass>proof:pdf</xmpMM:RenditionClass>
         <xmpMM:DerivedFrom rdf:parseType="Resource">
            <stRef:instanceID>xmp.iid:ACD2D90B356FE41195E3D1493AEF96AB</stRef:instanceID>
            <stRef:documentID>xmp.did:ACD2D90B356FE41195E3D1493AEF96AB</stRef:documentID>
            <stRef:originalDocumentID>uuid:5D20892493BFDB11914A8590D31508C8</stRef:originalDocumentID>
            <stRef:renditionClass>proof:pdf</stRef:renditionClass>
         </xmpMM:DerivedFrom>
         <xmpMM:History>
            <rdf:Seq>
               <rdf:li rdf:parseType="Resource">
                  <stEvt:action>saved</stEvt:action>
                  <stEvt:instanceID>xmp.iid:9FB6100F196FE41195E3D1493AEF96AB</stEvt:instanceID>
                  <stEvt:when>2014-11-18T22:56:30+08:00</stEvt:when>
                  <stEvt:softwareAgent>Adobe Illustrator CS6 (Windows)</stEvt:softwareAgent>
                  <stEvt:changed>/</stEvt:changed>
               </rdf:li>
               <rdf:li rdf:parseType="Resource">
                  <stEvt:action>saved</stEvt:action>
                  <stEvt:instanceID>xmp.iid:ADD2D90B356FE41195E3D1493AEF96AB</stEvt:instanceID>
                  <stEvt:when>2014-11-18T23:12:22+08:00</stEvt:when>
                  <stEvt:softwareAgent>Adobe Illustrator CS6 (Windows)</stEvt:softwareAgent>
                  <stEvt:changed>/</stEvt:changed>
               </rdf:li>
            </rdf:Seq>
         </xmpMM:History>
      </rdf:Description>
      <rdf:Description rdf:about=""
            xmlns:illustrator="http://ns.adobe.com/illustrator/1.0/">
         <illustrator:StartupProfile>Print</illustrator:StartupProfile>
      </rdf:Description>
      <rdf:Description rdf:about=""
            xmlns:xmpTPg="http://ns.adobe.com/xap/1.0/t/pg/"
            xmlns:stDim="http://ns.adobe.com/xap/1.0/sType/Dimensions#"
            xmlns:xmpG="http://ns.adobe.com/xap/1.0/g/">
         <xmpTPg:HasVisibleOverprint>False</xmpTPg:HasVisibleOverprint>
         <xmpTPg:HasVisibleTransparency>False</xmpTPg:HasVisibleTransparency>
         <xmpTPg:NPages>1</xmpTPg:NPages>
         <xmpTPg:MaxPageSize rdf:parseType="Resource">
            <stDim:w>260.000000</stDim:w>
            <stDim:h>400.000000</stDim:h>
            <stDim:unit>Pixels</stDim:unit>
         </xmpTPg:MaxPageSize>
         <xmpTPg:PlateNames>
            <rdf:Seq>
               <rdf:li>Cyan</rdf:li>
               <rdf:li>Magenta</rdf:li>
               <rdf:li>Yellow</rdf:li>
               <rdf:li>Black</rdf:li>
            </rdf:Seq>
         </xmpTPg:PlateNames>
         <xmpTPg:SwatchGroups>
            <rdf:Seq>
               <rdf:li rdf:parseType="Resource">
                  <xmpG:groupName>默认色板组</xmpG:groupName>
                  <xmpG:groupType>0</xmpG:groupType>
               </rdf:li>
            </rdf:Seq>
         </xmpTPg:SwatchGroups>
      </rdf:Description>
      <rdf:Description rdf:about=""
            xmlns:pdf="http://ns.adobe.com/pdf/1.3/">
         <pdf:Producer>Adobe PDF library 10.01</pdf:Producer>
      </rdf:Description>
   </rdf:RDF>
</x:xmpmeta>
                                                                                                    
                                                                                                    
                                                                                                    
                                                                                                    
                                                                                                    
                                                                                                    
                                                                                                    
                                                                                                    
                                                                                                    
                                                                                                    
                                                                                                    
                                                                                                    
                                                                                                    
                                                                                                    
                                                                                                    
                                                                                                    
                                                                                                    
                                                                                                    
                                                                                                    
                                                                                                    
                           
<?xpacket end="w"?>
	</metadata>
<path fill="#727171" d="M259.566,308.992V382H2.557v-71.896l0.684-0.142c5.162-1.142,5.89-1.769,5.89-1.769v-2.375l1.445-0.623
	v10.257c0,0,1.031,0.618,2.269-0.623c1.242-1.242,2.274-0.726,2.274-0.726s0.829,2.59,1.861,1.549
	c1.031-1.033,1.86-0.823,1.86-0.823v4.762c0,0,6.409-3.106,13.739-1.348c7.339,1.765,11.47,7.251,11.47,7.251l1.141,1.451h7.023
	v2.07l2.788-7.248v-2.901c0,0-5.215-2.537-6.967-7.82c-1.765-5.278-1.089-6.626-1.089-6.626l0.772-0.417v-1.188l-0.772,0.205
	c0,0-0.364-3.207,1.448-7.352c1.806-4.143,6.145-7.096,6.145-7.096l0.673-0.364v-104.15c0,0-5.749-3.945-6.065-12.574
	c-0.307-8.63,4.479-13.63,6.098-15.151c1.622-1.521,3.895-2.731,5.235-3.249c1.343-0.518,1.655-0.554,1.655-0.554l0.279-8.698
	c0,0-1.258-0.243-1.258-1.258c0-1.02,1.291-1.294,1.291-1.294l0.1-18.784c0,0-2.723-1.655-2.687-5.555
	c0.038-3.904,2.242-5.389,2.242-5.389s-0.656-1.201-0.105-1.93c0.549-0.728,1.343-1.072,1.343-1.072l0.93-0.307V87.904
	c0,0-0.654-0.381-0.654-1.243c0-1.172,1.343-1.347,1.343-1.347V63.222c0,0-1.032-0.069-1.032-1.489c0-1.408,1.322-1.331,1.322-1.331
	V36.395c0,0,0.312-0.906,0.907-0.906c0.593,0,0.836,0.833,0.836,0.833v24.104c0,0,1.304,0.064,1.304,1.307
	c0,1.246-0.963,1.553-0.963,1.553v21.993c0,0,1.375,0,1.375,1.417c0,1.036-0.82,1.177-0.82,1.177v20.371c0,0,2.135,0.064,2.787,1.48
	c0.656,1.416-0.275,2.076-0.275,2.076s1.897,2.035,1.963,4.07c0.069,2.034-0.308,2.832-0.858,4.041
	c-0.554,1.206-1.864,2.347-1.864,2.347v18.881c0,0,1.108,0.28,1.12,1.125c0.024,0.983-1.012,1.222-1.012,1.222
	s0.24,9.119,0.24,8.982c0,0,5.061,1.48,8.159,5.352c3.1,3.864,4.167,7.383,4.41,11.288c0.24,3.904-1.375,8.629-2.479,10.7
	c-1.104,2.071-5.854,5.976-5.854,5.976v101.567c0,0,1.617,0.998,1.691,1.035c0.064,0.031,2.582-1.449,2.787-1.449
	c0.207,0,14.121,0.551,14.121,0.551v-7.008l3.479-1.791h0.413l0.238-20.682l0.316,20.782h0.825v-1.865l4.231-5.729l8.715-2.45v2.07
	h2.273l1.068-0.651v28.996l1.243-0.692v-2.867h-0.38v-2.797h1.274l1.104-1.343l0.789,1.173h0.863v-3.418h0.894v-2.525l2.071-0.407
	l4.443-6.906v-3.45h3.2v3.521l4.653,6.905h1.654v1.793h1.303v3.729h0.691l0.756-1.76v-4.939h1.174v-24.683l1.927-0.38l6.026,0.343
	v-2.763l1.963-0.48l4.029,0.238v-0.516l1.897,0.105l0.444-9.701l0.484,9.872h3.37l1.004,0.833h3.099l0.414-13.816l0.449,14.088
	l0.788,0.138v6.631l15.947-10.494l0.444-20.059l0.248,19.608h0.994l0.308-19.472l0.348,19.608h1.861v20.397l12.153,10.293
	l2.447,0.101v-4.623l0.898-0.202v-0.521c0,0-0.656-0.037-1.348-1.211c-0.686-1.173-1.102-0.895-2.24-1.068
	c-1.135-0.17-1.785-0.9-1.959-1.104c-0.174-0.206-0.073-1.314-0.073-1.314s1.828-1.101,4.104-1.342
	c2.271-0.244,2.306-0.106,2.306-0.106s2.034-2.313,3.825-3.106c1.789-0.793,2.856-0.967,2.856-0.967v-19.711
	c0,0-1.104-0.691-0.93-1.586c0.174-0.9,2.132-1.689,3.649-2.176c1.517-0.485,2.414-0.551,2.414-0.551l0.271-11.709l0.484,11.672
	l1.236-0.071l0.068-0.726h0.726v-2.451l2.2,1.554c0,0,4.445-0.065,4.648,0c0.211,0.067,0.179,1.242,0.179,1.242
	s3.718,0.971,4.409,1.558c0.685,0.588,0.854,0.829,0.854,0.829s-0.097,0.552-0.753,1.206c-0.653,0.659-0.653,0.659-0.653,0.659
	v52.229l2.029,6.528l3.374,0.203l-0.825-5.729c0,0,3.649-2.104,5.479-2.863c1.82-0.762,5.611-1.52,5.611-1.52v-0.863l0.982-0.983
	l0.498-12.312l0.343,9.15h0.414v3.589h0.384v1.278c0,0,4.547,0.381,7.094,1.521c2.549,1.135,4.166,1.928,4.166,1.928l-0.793,7.596
	h2.877V308.992z M63.72,280.682v-7.349c0,0-1.343-0.485-1.66-1.282v8.631H63.72L63.72,280.682z M63.963,262.938v-6.316
	c0,0-1.486-0.174-1.724-1.245v8.495c0,0,0.48-0.448,1.031-0.688C63.82,262.938,63.963,262.938,63.963,262.938L63.963,262.938z
	 M64.032,246.434v-6.246c0,0-1.655,0.104-1.655-1.416v8.73c0,0,0.72-0.72,1.027-0.895C63.72,246.434,64.032,246.434,64.032,246.434
	L64.032,246.434z M64.132,229.551v-6.21c0,0-1.274-0.384-1.755-1.42v8.84c0,0,0.582-0.688,1.101-0.963
	C63.994,229.52,64.132,229.551,64.132,229.551L64.132,229.551z M64.165,212.705v-6.21c0,0-1.376-0.591-1.65-1.421v8.84
	c0,0,0.682-0.725,1.168-0.963C64.165,212.705,64.165,212.705,64.165,212.705L64.165,212.705z M64.302,195.827v-8.153l-1.756-0.517
	l-0.031,10.045c0,0,0.307-0.376,0.582-0.651C63.375,196.275,64.302,195.827,64.302,195.827z"/>
</svg>
