<?xml version="1.0" encoding="utf-8"?>
<!-- Generator: Adobe Illustrator 16.0.0, SVG Export Plug-In . SVG Version: 6.00 Build 0)  -->
<!DOCTYPE svg PUBLIC "-//W3C//DTD SVG 1.1//EN" "http://www.w3.org/Graphics/SVG/1.1/DTD/svg11.dtd">
<svg version="1.1" id="图层_1" xmlns="http://www.w3.org/2000/svg" xmlns:xlink="http://www.w3.org/1999/xlink" x="0px" y="0px"
	 width="260px" height="400px" viewBox="0 0 260 400" enable-background="new 0 0 260 400" xml:space="preserve">
<metadata><?xpacket begin="﻿" id="W5M0MpCehiHzreSzNTczkc9d"?>
<x:xmpmeta xmlns:x="adobe:ns:meta/" x:xmptk="Adobe XMP Core 5.3-c011 66.145661, 2012/02/06-14:56:27        ">
   <rdf:RDF xmlns:rdf="http://www.w3.org/1999/02/22-rdf-syntax-ns#">
      <rdf:Description rdf:about=""
            xmlns:dc="http://purl.org/dc/elements/1.1/">
         <dc:format>image/svg+xml</dc:format>
         <dc:title>
            <rdf:Alt>
               <rdf:li xml:lang="x-default">打印</rdf:li>
            </rdf:Alt>
         </dc:title>
      </rdf:Description>
      <rdf:Description rdf:about=""
            xmlns:xmp="http://ns.adobe.com/xap/1.0/"
            xmlns:xmpGImg="http://ns.adobe.com/xap/1.0/g/img/">
         <xmp:MetadataDate>2014-11-18T23:07:57+08:00</xmp:MetadataDate>
         <xmp:ModifyDate>2014-11-18T23:07:57+08:00</xmp:ModifyDate>
         <xmp:CreateDate>2014-11-18T23:07:57+08:00</xmp:CreateDate>
         <xmp:CreatorTool>Adobe Illustrator CS6 (Windows)</xmp:CreatorTool>
         <xmp:Thumbnails>
            <rdf:Alt>
               <rdf:li rdf:parseType="Resource">
                  <xmpGImg:width>256</xmpGImg:width>
                  <xmpGImg:height>256</xmpGImg:height>
                  <xmpGImg:format>JPEG</xmpGImg:format>
                  <xmpGImg:image>/9j/4AAQSkZJRgABAgEASABIAAD/7QAsUGhvdG9zaG9wIDMuMAA4QklNA+0AAAAAABAASAAAAAEA&#xA;AQBIAAAAAQAB/+4ADkFkb2JlAGTAAAAAAf/bAIQABgQEBAUEBgUFBgkGBQYJCwgGBggLDAoKCwoK&#xA;DBAMDAwMDAwQDA4PEA8ODBMTFBQTExwbGxscHx8fHx8fHx8fHwEHBwcNDA0YEBAYGhURFRofHx8f&#xA;Hx8fHx8fHx8fHx8fHx8fHx8fHx8fHx8fHx8fHx8fHx8fHx8fHx8fHx8fHx8f/8AAEQgBAAEAAwER&#xA;AAIRAQMRAf/EAaIAAAAHAQEBAQEAAAAAAAAAAAQFAwIGAQAHCAkKCwEAAgIDAQEBAQEAAAAAAAAA&#xA;AQACAwQFBgcICQoLEAACAQMDAgQCBgcDBAIGAnMBAgMRBAAFIRIxQVEGE2EicYEUMpGhBxWxQiPB&#xA;UtHhMxZi8CRygvElQzRTkqKyY3PCNUQnk6OzNhdUZHTD0uIIJoMJChgZhJRFRqS0VtNVKBry4/PE&#xA;1OT0ZXWFlaW1xdXl9WZ2hpamtsbW5vY3R1dnd4eXp7fH1+f3OEhYaHiImKi4yNjo+Ck5SVlpeYmZ&#xA;qbnJ2en5KjpKWmp6ipqqusra6voRAAICAQIDBQUEBQYECAMDbQEAAhEDBCESMUEFURNhIgZxgZEy&#xA;obHwFMHR4SNCFVJicvEzJDRDghaSUyWiY7LCB3PSNeJEgxdUkwgJChgZJjZFGidkdFU38qOzwygp&#xA;0+PzhJSktMTU5PRldYWVpbXF1eX1RlZmdoaWprbG1ub2R1dnd4eXp7fH1+f3OEhYaHiImKi4yNjo&#xA;+DlJWWl5iZmpucnZ6fkqOkpaanqKmqq6ytrq+v/aAAwDAQACEQMRAD8A6B+avnDzNpXm2S007UZb&#xA;a2EMTCJCKVYGp6Yqpflh5y80an5xtLO/1Ka4tXSYvE5HElY2I7eOKvabpmW2mZTRlRiD7gHFXzX/&#xA;AMrG88f9Xm4+8f0xV7B+T+tarq/lm5udTuXup0vXjWSTchBFEwXb3Y4qznFXnf5yeaNS0XTtOi02&#xA;5a1urmZ3aSMgN6cS0K79iZB92KvKv+VjeeP+rzcfeP6Yq+gfJ2qPqvlbS7+Ruc01unrP4yKOEh+l&#xA;lOKpxirxv82/N3mXSfNSWum6hLa25tY3MaEAcizgnce2KpL5K/MnzGvmjT01XUpbjT5pPRnjkI4j&#xA;1BxVun7LEHFXv2Kvm/VPzC86RandxR6vOsaTSKigigAcgDpir1L8ndc1fWNDvZ9TunupY7rgjyUJ&#xA;C+mppt7nFWfYq8T/ADF/NjULi9m0vy/cG3soSUlvYjSSVhs3Bx9lAehG58aYq8xlmlmkMkztJI27&#xA;O5LMfmTillnk38ydc8vXcayzSXmlk0ms5GLUXxiLfZI+498UPoewvrXULKC9tJBLbXCLJFIO6sKj&#xA;/axVXxV2KqdzcwWtvLc3DiKCFTJLI2wVVFST8hir5/8AO/5pa1rl1Lb6fM9jpKkrHHESkkq/zSsN&#xA;9/5enzxVhAdw/MMQ4NQwO9fGuKXoPkL81tV0q7istZne80qQhTJKS8sNduSsd2Ud1Pbpih7yjo6K&#xA;6MGRgGVlNQQdwQRirEPzV1bUdK8pSXenXDW1yJolEqdaMTUYq8W/5WN54/6vNx94/pir33yRrv6c&#xA;8rafqDNyneMJcn/i2P4HP0kVxVgv5yeZ9f0fU9Oi0y+ktI5YXaRYyACQ9ATUYqx38vvO/mzUPOOm&#xA;Wd7qc09rM7iWJyOLARsRXbxGKoX86f8AlOJf+YeH9RxVR/J3/lPbL/jHP/yabFX0Fef7xz/8Y3/4&#xA;icVfJGKXu35Ef8ojd/8AbQk/5Mw4oej4q8I/PLUfX81W9mpqlnbKGHg8rFj/AMLxxV5zil75+SOo&#xA;m58ntas1WsbmSNV8EcCQf8M7Yoeg4q8D/PD/AJTNP+YOL/ib4q8/BINRsR0OKX1D5K1wa55X0/US&#xA;3KaSIJcePqx/BJ97LXFD5p1n/jr33/MRL/xM4pey/kN/yjmof8xn/MpMUJ/+aPmB9F8oXUkLcLq7&#xA;ItIGHUGQHkR8kVqe+Kvm/FKYWvl7Xbuye+tdPuJ7OOvO4jidkHH7XxAU274ql+KvcPyK1p7nRLzS&#xA;pGqbCUSQ17Rz1PEfJ1Y/Tih6birsVeafnh5hks9EttHgbjJqLFpyOvoxEGn+ycj7jirw3FKYP5f1&#xA;1NPGovp1ytgRUXRicRUPfnSlPfFUvxV7/wDkx5gfUvKxspm5T6W4hBPX0WHKL7viX5DFC/8AOn/l&#xA;B5f+YiH9ZxV8+4peu/kPrtH1DQ5G2YC7twfEUSUf8QP34oQv5+f8dfSv+Yd/+J4qxb8r/wDlPdI/&#xA;4yP/AMmnxSmP50/8pxL/AMw8P6jihJ/y/wBfsdA80W2p3wc20SSqwiAZquhUUBK9zir1W4/OzydJ&#xA;byxql3ydGUViTqRT+fFXg+KXu35Ef8ojd/8AbQk/5Mw4oej4q+YfPuojUPOWr3QPJTcNGjeKw/ul&#xA;P3JiqTzWk0UFvO60juVZom8eDFD+IxS9O/ITUOGp6ppxP9/Ck6j3ibif+ToxQ9oxV4H+eH/KZp/z&#xA;Bxf8TfFXn2KXr/5D67tqGhyN0pd2wP0JKP8AiB+/FDyzWf8Ajr33/MRL/wATOKXsv5Df8o5qH/MZ&#xA;/wAykxQln5+3pro9kD8P76aRff4FQ/8AEsVeU6fZyXt/bWUW0lzKkKd/ikYKP14pfVunWFrp9hb2&#xA;Nqgjt7aNYolHgop9/jih4z5x/KTzFceZL250W0jbTp3EsQ9WNKFwC68WIoA9ae2Kp7+VHkfzT5d1&#xA;u7n1S3SG0ntigZZEcmQSIVFFJ/Z5Yq9RxV2KvAPzrvmuPOjQV+Gzt4ogPAtWU/8AJwYqkv5d6JDr&#xA;PnDT7K4TnbBzNcKdwUiUvxb2YgKfnir6XeKJ4midFaJlKNGQCpUihBHSlMVfLvnDSE0fzPqWmxik&#xA;UEzeiD2jb40H/AsMUsz/ACIvWj8yX1nX4Li0L/7KKRafg7YoZt+dP/KDy/8AMRD+s4q+fcUp35M1&#xA;w6H5m0/USaRRShbj/jE/wSfcrVxQzj8+yDq2lEbg270P+zxVi35X/wDKe6R/xkf/AJNPilMfzp/5&#xA;TiX/AJh4f1HFDBMUuxV2KvdvyI/5RG7/AO2hJ/yZhxQz7VL5LDTLu+f7FrDJMwPhGpb+GKvk13eR&#xA;2dzydyWZj3J3OKWdec9D+p+QPKF0FoTHL6rU3P1kidKn5VxQgfyq1D6l5604k0juC9u/v6iEKP8A&#xA;g+OKvo/FXgf54f8AKZp/zBxf8TfFWD2llJcxXcib/VYfXYD+X1EjP3epXFKaeSNbOi+adOvyaRJK&#xA;En/4xSfA/wBwauKpdrP/AB177/mIl/4mcVey/kN/yjmof8xn/MpMUMc/Plj/AIh05a/CLSoHaplb&#xA;+mKsR8gRCXzroqmm11G+4r9g8v4Yq+h/NeuPoXl+81ZIRO1qqsIi3ENycL1of5sVeY/8r+vP+rNH&#xA;/wAj2/5oxVP/ACP+a9x5l15NLfTktlaN5PVWUufgFaUKrir0XFXYq+bvzUdn8/asW6h4l+hYUA/V&#xA;iqafkgqnzoxIqVtJSPY8kH8cVe+4q+dvzgRV8/X5AoWSAt7n0UH6hiqp+TUnDz1bLSvqQzLXw+At&#xA;/wAa4q9M/OWOSTyTIsal2+sQ/CoJPU+GKvDIfLvmCY0h0y7kNafBBI2/hsuKUyf8vfOQuZYY9Iun&#xA;Ebsgk9NlVgpIqC1BQ02xQy7zP5O886/pXl+mlubuys2t7pXkiQgo9EJLutSyAE4qqeQ/yx83aV5p&#xA;sNSv7eOK2tnZpP3qM1GjZdgpPc4qkv50/wDKcS/8w8P6jirF/LugX2v6rFpliUFzKGZTKSq0RSxq&#xA;QD2GKWWSfkn5xjjaRntOKAsaSt0Ar/JihgGKXu35Ef8AKI3f/bQk/wCTMOKE4/NjUfqXkbUKGklz&#xA;wt09/Ucch/wAbFXzmiNI6ogqzkKo8Sdhil7r+bFjZ/8AKvY4IZUf9GPblAGBNFHodv8AjJih4jpt&#xA;49jqNrep9u1mjmWnWsbBh+rFL6yilSWJJYzyjkUMjDuCKg4oeC/nh/ymaf8AMHF/xN8VQ35R6fBq&#xA;PmK9sJxWG6064hfatA5QVHuMVYff2U9jfXFlOOM9tI8Mo/ykYqf1YpWrHdXMjOqPNIzVYqCxLMfb&#xA;xxV7h+R1pdW3l6/W4heFmu6qJFKkj00FRUDFCV/nH5W1/V9csJtMsZbuNbYo7RrUKwkY0J6ftYqk&#xA;Pkr8vPO1j5n0y/n0xora3nR5pHkiHFCaMePPkdvAYq9e87aPeaz5Xv8ATLPj9ZuVVY+Z4rUSKxqa&#xA;HsMVeSQ/kV5sehkurGMdxzlZvwjp+OKst8hflVqPlvXU1S5voZgsTxmKNW6uKfaanT5Yq9JxV2Kv&#xA;MPOOi/lSvmK7uNf1CaLUZeLz26mQgVQBaCONj9kDviqv5Fk/KqDX1i8tvI+pyxPGjv8AWKMgHN/7&#xA;wKv7Phir0jFXmHnH8wPJum+Yrq1uvL0Wo6hb8VkvHjhqxKA05srP8IPHFUT5C/MHTNe179HWOgxa&#xA;eFheX6wjpUKpA48ViTqW/mxVkfn7zNd+W/Lz6naxRzTLLHGEl5caOaH7JBxV5TN+efnB/sQWUXX7&#xA;MchP/DSNirJPzP8AOXnLQLyxfT7pYbG+tgyn0Y2IlX+8FXVuzKcVYBN+aHnyb7eryCu/wJFH/wAQ&#xA;RcVTf8vvNvmfUPO2l297qt1PbySP6kLStwb92xoVBoRXFUT+bmh63fedZJLLT7m6RoIgGhhkkBIB&#xA;qKqD0xVv8qvKvmSx842l5e6Zc2tqkc3KWaJowOUZUV5AdScVe33KM9vKi7syMqj3IpirwCH8mPPM&#xA;n24YIt6fHMp+n4OWKvVvyy8qan5Z0Cex1FomnlunnX0WLAK0caAElV3qhxVd+YnlKbzPpltZrfJY&#xA;wwzetI0i8gzBSqj7S/zHFWBf8qd8uQGl35rhG9COEUZ26j4pm3xVofl9+VcNDc+axINyfRnt+n0C&#xA;TFXfoD8j7b+91meag3+J3rX/AIxQ4q9X8t3uk3mh2c2kTGfTljENvKwYMVh/d78wrV+DuMVYb5+8&#xA;wfl5puupHr2kSX+omFHWRY0dRHVuKnnInevbFVnkTzj5L1HXksNE0FdPuGidvrXpwo/FdytUq1Dt&#xA;3xVE/mF51j8p31vTQ4bsXyFxeM4Ql0ajoR6bE0BU15d8VYjL+fWtH+50u2QV2DtI23boUxVnn5Z+&#xA;cNT806TdXmoRQxSwT+igt1dVK8Fbfmz7/FiqE/NvzD5j0HSrK90e4+rq8zQ3DenHJuy8k/vFan2G&#xA;xV5NJ+aHnyRgzavJseVFSJBt/qqu2Kvb9D/MHyvqekRX76hb2r8Abi3mlWN43p8S0YgkV6Hvirxf&#xA;8w/O0uu+Ypp9PuJU06JBb24VmQOqkkuV2+0zHrvSmKo38mXd/PUbOxZjbzVJNT9keOKvoDFXYq8N&#xA;/PXTWg8yWd+BSO8tuBPjJCxDf8K64qwby3rUuia7ZarEvNrWQMydOSEcXWv+UpIxS98m/NfySmlm&#xA;/W/EjcaraBW9ctT7HCmx9+nvih8+atqU+p6pd6jP/e3crzOBuAXNaD2HQYpemfkJprNf6pqZFFii&#xA;S2Q+Jkbm33emv34oZX+dP/KDy/8AMRD+s4q+fcUvoH80tC/SnkP10WtxpqpdIe/BVpKPlwPL6MUP&#xA;n7FLKvyv/wCU90j/AIyP/wAmnxVn35j/AJmeY9A8xPpmnrbiBYY3DyRln5OCTvyA/DFCE/Lz8yPN&#xA;Wu+brbT7+eNrSVJS8SRIu6Rlh8VOXUeOKvW7pmW2mZTRlRiD7gHFXzDL5184S7PrV7TcELcSKDXx&#xA;CsMUvY/yTvb288q3ct3cSXMovpFEkrs7BRDEaVYk03xQwL87dRNz5y+qg/DY28cfH/KespP3OMVY&#xA;95K8pT+adXbTorgW3CFp3lZS4CqyrSgI7uMUs6/5UDef9XmP/kQ3/NeKHll3bSWt1NbSf3kEjRv2&#xA;3QlT+rFL2/8AIvUTP5YurJjVrO5JUeCSqGH/AAwbFDC/zw/5TNP+YOL/AIm+KqP5Lf8AKcRf8w83&#xA;6hir0v8AODQv0n5PmuI1rcaawuUPfgPhlHy4nl9GKvnnFL3H8hv+Uc1D/mM/5lJihmHnby/+n/LN&#xA;7pqgeu6c7YntLGeSb9qkcT7HFXzDLHJFI8UqlJIyVdGFCGBoQQe4xSsxVsAmtBWm5xVnX5Lf8pxF&#xA;/wAw836hih9BYq7FWH/mj5Wk1/yxILZC9/Yn6xaqNy9BR4x/rL09wMVfOeKWsVXIju6oilnYhVVR&#xA;UknYAAYq+l/y98sny75YtrKUAXklZ7wj/fr0+H/YqAv0YoSj86f+UHl/5iIf1nFXz7il9aQwxT6d&#xA;HDKoeKWEJIh6FWWhB+YxQ+XPMOkS6Prd7pklSbWZo1Y/tJWqN/slocUpz+V//Ke6R/xkf/k0+KvU&#xA;vOn5T/4m1xtU/Sv1TlGkfo/V/U+wKV5eonX5YoWeTvyj/wAOa9Bq36W+teirr6P1f0680K/a9V+l&#xA;fDFXoM0fqQvHWnNStetKimKvJP8AoX//ALX3/Tp/1+xVnfkTyf8A4U0ibTvrf131bhrj1fT9KnJE&#xA;Tjx5Sf7761xVivmL8l5Na1u81WTW/Sa7kMgi+q8uK9FXl6y14qAK0xVOPIP5ap5TvLq6N/8AXpLm&#xA;NYl/c+lxAbkf25K12xVmuKvLtb/I+PUtYvdRj1j6ut5M8/ofVufEyMWI5eqtdz4Yqn/kD8vJPKM9&#xA;441L67HeKitH6PpUaMkq1fUkr9o9sVQfnj8q/wDFGtLqf6U+p0hSH0vQ9X7BY15eon83hiqzyX+U&#xA;/wDhnXF1T9K/W+Mbx+j9X9P7YpXl6j9PlirPp4IriCSCZQ8UqskiHoVYUI+7FXkrf84/ryPHXSFr&#xA;sDa1NPn6wxVm/kLyX/hPTriy+ufXfXm9b1PT9KnwhaU5yV+zirJsVeeeffyltteuX1PS5Us9Sk3n&#xA;SSvoyn+Y8QSreJANfDvirBIvyS86vKEb6rGhNDK0pKgeNFUt+GKs7sfyd0y28rXmlfWQdTvxGJtS&#xA;MfLgI5Fk4RoWFF+Ch+Kp/DFV3kv8p/8ADOuLqn6V+t8Y3j9H6v6f2xSvL1H6fLFXoOKuxV2KvN/O&#xA;35O2esXUmo6PMtjfTEtPDID6Ejnct8ILISetAQfDFWED8lPOxk4lbYLWnqGb4fnstfwxVn/kT8pr&#xA;Hy/cJqOoyrfamm8PEEQxHxUHdm8GP3V3xV6BiqRedPK/+JtDbS/rP1TlIknrcPU+wa048k6/PFXn&#xA;3/Qv/wD2vv8Ap0/6/Yq9bhj9OFI614KFr0rQUxVgnnf8p4PM2sjVI9Q+oyNEscyej6vNkqA9fUj/&#xA;AGaD6MVQnlf8m/0Fr1pq36X+s/VWZvR+rcOXJCv2vVan2vDFXpOKuxV2KuxV2KuxV2KuxV2KuxV2&#xA;KuxV2KuxV2KuxV2KuxV2KuxV2KuxV2KuxV2KuxV2KuxV2KuxV2KuxV2KuxV2KuxV2KuxV2KuxV2K&#xA;uxV2KuxV2KuxV2KuxV2KuxV2KuxV2KuxV2KuxV2KuxV2KuxV2KuxV2KuxV2KuxV2KuxV2KuxV2Ku&#xA;xV2KuxV2KuxV2KuxV2KuxV2KuxV2KuxV2KuxV2KuxV2KuxV2KuxV2KuxV2KuxV2KuxV2KuxV2Kux&#xA;V2KuxV2KuxV2KuxV2KuxV2KuxV2KuxV2KuxV2KuxV2KuxV2KuxV2KuxV2KuxV2KuxV4H/wArw85/&#xA;yWf/ACKf/mvFXf8AK8POf8ln/wAin/5rxV3/ACvDzn/JZ/8AIp/+a8VTDy/+cXm2/wBe02wnS1EF&#xA;3dQQSlY2DcJJFRqHmd6HFXtmKsX89+e7DyrYKzKLjULiv1W0rStOrueyj8enyVeKan+Z3ne/uDK2&#xA;pyWy1+GG2/dIo8Bx+I/7InFVfRPzX85aZOrSXjX9vX95BdfHyHs/21+/FXunlXzRpvmTSU1CxJG/&#xA;CeBvtxSAVKt9+x74qnGKuxVAa6uuNp0n6EeBNRBBj+tBjERX4geO426Yq8u1zz3+beh1Oo6ZBHCP&#xA;+PhIWki/4NJGUfTirOPy5813Hmby4L66CLeRSvDcCMFVqKMpAJP7DDviqD/M/wA7XnlfTbR7ARte&#xA;3cpVRKCy+nGtXNAV3qy4q83/AOV4ec/5LP8A5FP/AM14q9x0d7+TSrSTUQovnhRrlUBVRIygsoBJ&#xA;6HbFUB5t816d5Z0lr+8+NieFvbqQHlk/lFeg8T2xV4ZrX5rec9SuGeO9NhBX4Le1+AKPd/tsfpxV&#xA;R0z8zvO1hOso1OS5UGrQ3P71GHgeXxD/AGJGKvbfI3nmw81ae0ka+hfwUF1aE1K16Op7ocVZNirz&#xA;380/Pet+V7jTo9NWErdJK0vrIW3QqBSjL/NirFfL/wCcXm2/17TbCdLUQXd1BBKVjYNwkkVGoeZ3&#xA;ocVe2Yq8X8z/AJvea9M8w6jp9slqYLW4kiiLxsW4q1BUhxirI/yu8/675nv76DUlgCW8SvH6KFTU&#xA;tTerNirPtQne3sLmeOnOKJ3SvSqqSK4q8K/5Xh5z/ks/+RT/APNeKu/5Xh5z/ks/+RT/APNeKomx&#xA;/PbzLFKDeWdrcxV+JUDxP9DcnH/C4q9X8o+cNK80acbuxJSSMhbm2f7cbHcVp1B7HFXy9il2KuxV&#xA;OPJ3/KXaH/20LX/k8uKvqR3VEZ3IVVBLMdgAOpxQ+XfOHmGbzB5hu9Scn03cpbIf2YU2jX7tz71x&#xA;SkuKuxVmv5TeZZNH81w27tSz1Mi2nWuwdj+6f5hjT5E4ofRGKuxVp1DIykkBgQSCQd/Ajpirw7/l&#xA;aHnHyzrF3pGpFNUhs5nhP1gcZSinYiRKfaXerA4qzjyD568paxey2unWP6M1K5HqzwBFCSFBuwZK&#xA;Bjv3AOKpd+aXkPzB5lvYL7S5oZorSIwizZuD8+RLEMfgqdhuR0xV5/5T8j6y3nTTtP1Sxmto1l9a&#xA;b1UIRo4fjIDfZYNTjse+KvovFXzn+anmV9a813EaPWy04m2tlHSqmkjf7Jx18AMVYdil2Kp75K8x&#xA;y+X/ADHaairEQBhHdqP2oHNHFO9PtD3GKH0+rKyhlIZWFQRuCDirxz8/v97NG/4xz/8AEkxV595O&#xA;/wCUu0P/ALaFr/yeXFL6lxQ+YPPf/KZ61/zGTf8AEzilmv5B/wDHX1X/AJh0/wCJ4oev6z/xyL7/&#xA;AJh5f+IHFXybil2KuxVnX5N6rJZ+dYLYNSG/jkgkHaqqZEP/AASU+nFD07/lTvkL/lik/wCR8v8A&#xA;zVirxXz1pVlpPmzUNOsUMdrbuqxISWIBjVjuanqcUpr+VXlrSPMPmG4stUiMtvHaPMqq7IeayxqD&#xA;VSD0c4oeuWP5U+SrG9t723tHW4tZEmhYzSkB42DKaFqHcYqjPzE1BrDyTq9wpoxgMIPgZ2EX/G+K&#xA;vmTFL3n8nfKlhZ+XYdZlhV9RvyzrK4BaOJWKoqV6VpyNPHFCS/nd5UsYLa216zhWGVpfq94I1Ch+&#xA;QLI5A7jiQT8sVeRxSPFIksbcZEIZGHUEGoOKX1lpt4t7p1reL9m5hjmFOlJFDfxxQiMVdirw7889&#xA;E+ra9a6tGtI7+LhKR/v2GgqfmhX7sVYX5R1r9CeZdP1MkiO3lHrU3PpP8ElB/qMcVd/ivXYtZutV&#xA;s7ya0ubuZ5pPTcgEuxNCOjAV7jFL2/8AKrzJ5h8waLcXmrtG6xyiG3mVODvxWrlqHiftClFHfFDM&#xA;5nVIXdnESqpLSNQBQBXka7UGKvBde/JvzZZl7iyaPVoTVucR4ykHfkUc71/yWOKsn/JzyQsEd1q+&#xA;r2RS9SUwWsNxGVaMIAXcK46sWpX2xVMfzk8q2V35ek1mGFU1CxZWklUANJEzBWDU68a8hX3xV4Pi&#xA;l9PeQdQOoeTdIuWPJjbrG7datDWJj96Yoedfn9/vZo3/ABjn/wCJJirz7yd/yl2h/wDbQtf+Ty4p&#xA;fUuKHzB57/5TPWv+Yyb/AImcUs1/IP8A46+q/wDMOn/E8UPX9Z/45F9/zDy/8QOKvk3FL238nfL+&#xA;g6h5See/021u5xdSKJZ4I5H4hUoOTqTTfFDG/wA6PLGj6Nfabc6ZbparepKssMQ4pyhKUYL0FRJ2&#xA;8MVY3+W4Y+edHCip9eu3gFJP4Yq+mMVfNn5of8p7q/8AxkT/AJNJilPfyI/5S67/AO2fJ/yehxQ9&#xA;2xVg35zOy+RrhR0eeFT8ufL+GKvnvFL6m8nw+j5T0aOlCtjb8gPH0lJ/HFCR/m/CsnkHUHPWJ4HG&#xA;3czIn/G2KvnXFL6h8jOz+TdELGpFlAPoVAB+AxQnmKuxVh/5r6J+lfJl2UXlPY0u4vlHX1P+SZbF&#xA;XzlilvFX1F5L0T9C+V9O04rxljiDTjv6snxyfczEYoUfzBlMfkrWWHU2rr9Djif14q+fND84+ZtD&#xA;I/RuoSwxD/dBPOI/8835L9NK4q+hfImuXmu+VLDVb0ItzcCQSCMFV/dyvGCASeoSpxVHeYNK/S2h&#xA;32m8xGbuB4lkIqFZlorEexxV4Fr35VecdI5P9U+vWy1PrWhMmw8UoJB/wOKvWfyfZv8AAtpE9Q8M&#xA;s6MjAgqfVZqb/wCtirD/AM/v97NG/wCMc/8AxJMVefeTv+Uu0P8A7aFr/wAnlxS+pcUPmDz3/wAp&#xA;nrX/ADGTf8TOKWa/kH/x19V/5h0/4nih6/rP/HIvv+YeX/iBxV8m4pZ15L/NO48r6O2mx6cl0rTN&#xA;N6rSlD8QUUoFb+XFCUedfO2oea76G4uokt4bZSlvBHU0DGrFmPUmg8MVZD+SehTXnmg6oyH6tpsb&#xA;HmRsZZVKKv8AwLMcVe84q+bPzQ/5T3V/+Mif8mkxSnv5Ef8AKXXf/bPk/wCT0OKHu2KsG/OZGbyN&#xA;cMOiTwsflz4/xxV894pfU3k+b1vKejSVqWsbfkR4+koP44oSP835lj8g6gh6yvAg37iZH/41xV86&#xA;4pfUPkZGTybogYUJsoD9DICPwOKE8xV2KrZI0kjaORQyOCrqdwQRQg4q+V/MukPo2v3+mNWlrMyI&#xA;T1Mdaxt9KEHFKZfl1on6Y84adbMvKCOT6xcV6cIfjof9YgL9OKH0xirH/wAwYjJ5K1lR2tZG/wCA&#xA;HL+GKvmLFL6M/KJ1b8v9MUHdDOrfP6xI36jihN/O0wi8n625NP8AQbhQem7xso/E4q8F0L8y/OGj&#xA;cUhvmubdelvdfvUp4Ak81+hsVe8eSfME3mDy5batNbrbSXBkDRoSVPpuU5Cu+/HFUi/MvyBc+azZ&#xA;vaXkUF1aJIFglB4uHK78lqVoV/lOKvMtL8i+atD83aM9/p8ggTULUm5i/exU9ddy6VC/7KmKvobF&#xA;XzB57/5TPWv+Yyb/AImcUs1/IP8A46+q/wDMOn/E8UPX9Z/45F9/zDy/8QOKvk3FLsVdir2P8k/N&#xA;8bo3lqaGOJ0Vp7WaNeJkP7Yk8WpuD4D2xQ9axV82fmh/ynur/wDGRP8Ak0mKU9/Ij/lLrv8A7Z8n&#xA;/J6HFD3bFWO/mJp7X/knV7dRVhAZgPEwMJf+NMVfMmKXvP5O+a7C88uw6NLMqajYFkWJyA0kTMWR&#xA;kr1pXiaeGKEl/O7zXYz21toNnMs0qy/WLwxsGCcQVRCR3PIkj5Yq8jijeWRIo15SOQqKOpJNAMUv&#xA;rLTbNbLTrWzX7NtDHCKdKRqF/hihEYq7FXYq+cvzb/8AJg6r/wBG/wD1DRYqmP5H/wDKZv8A8wcv&#xA;/E0xV75iqF1ayF9pV7YnpdQSwH/nohX+OKvk50ZHZHBV1JDKeoI2IxS9f/JHzXYxWdxoF3MsM3qm&#xA;ez5mgcOAHRSdqgrWneuKE3/OTzVZWnl6TRoZlfUL5lWSJSC0cSsGYtTpypxFffFXg+KX095B086f&#xA;5N0i2YcWFusjr0o01ZWH3vihgf58G4t59CvbeR4pU+sKJUYqVI9MrQihB64qxfQPzh83aYUju5V1&#xA;O1FAyXA/ece/GVaNX/W5Yq9xg8yaDPpq6kl/ALJk9T1mkVQBSvxVOxHcYq8s80flRe61e3eu6Bqd&#xA;vqMV7K8/pcgtC55cUkUujUr3piqO/Jvy3rujazqq6pZyWh9GNVLj4WJcn4HFVbp2OKvTNZ/45F9/&#xA;zDy/8QOKvk3FL2n8ofLHl3U/Kj3Ooadb3U4upEEssas3EKhAqfnihif5v+VtO0LXbaTTYhb2l9EX&#xA;9Fa8VkRqNxr0BBXbFUq/LKZofPekMvUysh+Txsh/Xir6VxV82fmh/wAp7q//ABkT/k0mKU9/Ij/l&#xA;Lrv/ALZ8n/J6HFD3bFWnRXRkcBlYEMp3BB6jFXy75w8uzeX/ADDd6bIpESMXtXP7cLGsbV+Wx964&#xA;pSXFXYqzX8pvLUmsea4bh1rZ6YRcztTYup/dJ8ywr8gcUPojFXYq7FXYq+cvzb/8mDqv/Rv/ANQ0&#xA;WKpj+R//ACmb/wDMHL/xNMVe+Yq7FXzp+avlp9F81zyItLPUSbq3YdKsf3if7Fz9xGKsNxS7FU98&#xA;leXJfMHmO005VJgLCS7YfswIaua9q/ZHucUPqBVCgKooo2AHQDFWDfnFocmp+UJJ4V5T6dILmg6m&#xA;MArJ9ytyPyxV894pdiqL07VtT0ycT6fdS2sv88TlK/OnX6cVfRH5aal5g1PytDf63IJZp3Y278Aj&#xA;GFaKCwUAVLA9ulMUMkvYUns54Xf00ljdGf8AlDKQTv4Yq8K1v8lvMtopn0uWLVbYiq+mRHKV8eLH&#xA;if8AYscVehfk5YXtj5Ultr23ktrhbyXlFKpRh8CdmAOKsU/P7/ezRv8AjHP/AMSTFWDeQJGTzror&#xA;L1N1Gv0MeJ/Xir6dxV4951/KjzRrPmi/1Oze2FtcurRiSRlagRV3AQ9xiqaflj+XPmDy1r1xf6i0&#xA;BgltXgUQuzNzaSNxsVXaiHFXpuKuxVjHnvyJYea7BUdvq+oW9Ta3QFaV6o47qfw/Wq8T1L8sfO9h&#xA;OYm0yS5UGizW371GHiOPxD/ZAYqr6J+VHnLU7hUlszYW9f3lxdfBQeyfbb7sVe6eVfK+m+W9JTT7&#xA;EE78552+3LIRQs33bDtiqcYq7FXYq7FXkXnz8q/M2u+a77VbJrYW1x6XpiSRlb4IUjNQFPdTiqM/&#xA;Lb8tvMXlzzE2oag1uYDbvEBE7M3JmUjYqv8ALir1HFXYqkvm3ypp3mbSWsLz4GB529woBeKT+YV6&#xA;jxHfFXhmtflT5z024ZI7I38FfguLX4ww90+2p+jFVHTPyx87X84iGmyWyk/FNc/ukUePxfEf9iDi&#xA;r27yN5H0/wAq6eYoj699PQ3d2RTkR0VR2VcVZLirTKrqVYBlYUZTuCD2OKvF/Of5L6jHdyXnltRc&#xA;WshLGxZlSSMnchCxCsvhvX54qwo+QvOgbj+hbuoNP7pqff0xVl3lD8l9XurmO58wL9SsUIY2wYNN&#xA;IOvH4SQgPfeuKvbYYYoIUhhQRxRKEjjUUCqooAB4AYqp6hA9xYXMEdOcsTolelWUgVxV5Bon5d/m&#xA;tojA6ZqUFunUwiZmiPzjaNk/DFXqflz/ABF+jQPMAt/0grEcrXlwZKChPL9rrWmKpN59/L+182xW&#xA;xa6a0ubQOIZAodCJONQ61U/sbUOKvPLD8nPOmm6vb3lrcWbG0mSaKXm4rwYMKqU9txir2/FXYq7F&#xA;XYq7FXYq7FXYq7FXYq7FXYq7FXYq7FXYq7FXYq7FXYq7FXYq7FXYq7FXYq7FXYq7FXYq7FXYq7FX&#xA;Yq7FXYq7FXYq7FXYq7FXYq7FXYq7FXYq7FXYq7FXYq7FXYq7FXYq7FXYq7FXYq7FXYq7FXYq7FXY&#xA;q7FXYq7FXYq7FXYq7FXYq7FXYq7FXYq7FXYq7FXYq7FXYq7FXYq7FXYq7FXYq7FXYq7FXYq7FXYq&#xA;7FXYq7FXYq7FXYq7FXYq7FXYq7FXYq7FXYq7FXYq7FXYq7FXYq7FXYq7FXYq7FXYq7FXYq7FXYq7&#xA;FXYq7FXYq8+86fmx/hnXG0v9FfW+MaSet9Y9P7YrTj6b9PniqRf9DAf9qH/p7/684qqW/wCf9szg&#xA;XGivHH3aO4Eh+4xp+vFXoPljzfofmW0a40yYsY6Ca3kHGWMnpyWp6+IJGKpziqE1nUP0bpF9qPp+&#xA;r9St5bj0q8eXpIX48qGladaYq8s/6GA/7UP/AE9/9ecVd/0MB/2of+nv/rziqL078+9KllC6hpc1&#xA;rGTT1IpFnp7kFYvwxV6Rpeq6dqtjHfafOtxayiqSL7dQQdwR3BxVF4q8+86fmx/hnXG0v9FfW+Ma&#xA;Set9Y9P7YrTj6b9PniqRf9DAf9qH/p7/AOvOKu/6GA/7UP8A09/9ecVTXyv+cn6d1600n9EfVvrT&#xA;MvrfWefHihb7PpLX7Pjir0nFXYqwXz3+aMflXVYdPGn/AF55IRO7et6XHkzKFp6cn8tcVSPT/wA+&#xA;I7q/traXRvQinlSN5vrXLgrsFLcfSWtAa0rir1bFXYqxzz35w/wppEOo/VPrvq3C2/pep6VOSO/L&#xA;lxk/330pirBP+hgP+1D/ANPf/XnFWd+RfOKea9IlvxbfU2inaBoPU9XoqsG5cU68/DFUX5u8xp5c&#xA;0C51ZofrBgKBYOXDmXcJTlRqU5V6Yq85/wChgP8AtQ/9Pf8A15xVl/5f/mB/i/6//oH1H6j6X+7f&#xA;V5+rz/yI6U9PFWX4qkPnDzlpXlfTxdXhMk0pK2tohHORh169FHdv44q8kvvzw83TTlrWO2tYf2Iw&#xA;hkNP8pmO5+QGKph5f/PTUkuEj121jmtmIDXFuCkiDxKklW+Qpir2OyvbS+tIru0lWa2nUPFKhqGU&#xA;4q8U/Nzy75gv/OMlxY6Zd3UBgiUSwQSSJUA1HJVIxVhf+DvN3/Vj1D/pFm/5pxS7/B3m7/qx6h/0&#xA;izf804qm/lSx88+Xtct9Tt9E1EiM8Z4hazUkib7aH4e46e+KH0ajB0VwCAwBAYEHfxB3GKpX5tik&#xA;l8q6zFEhklksblURQSzMYWAAA6k4q+af8NeY/wDq1Xn/AEjy/wDNOKXf4a8x/wDVqvP+keX/AJpx&#xA;V3+GvMf/AFarz/pHl/5pxV6T+Sh1/TtVu9NvLO5gsbqL1laWKREWaMgdWAA5ITX5DFD2LFXhX5v6&#xA;NrF35zkmtbG4uIjBEBJFE7rUA1FVBGKsJ/w15j/6tV5/0jy/804pd/hvzF/1arz/AJES/wDNOKsh&#xA;/LTTNSh886VJLaTRxrI/J3jZVH7p+pIxQ+isVdir54/M+PVNR87ajLHaTvDEUgiZY3IpGgU0IH81&#xA;TirFho+sA1FlcAjofSf+mKX1Jo1497pFldyKVkuII5HVgQQzICwIPShxQjMVed/nlDNL5StREjSF&#xA;b+NmCgmg9GUVNPc4q8M+p3f++JP+Bb+mKXr35CzTxx6xZSoyCsM0YYEVrzV+vyXFCZ/njcSjyxaW&#xA;kSszXF0rMFBPwRoxPT/KK4q8O+p3f++JP+Bb+mKXrn5BwzR/p31EZK/VKcgRWnreOKHreKvnD8yd&#xA;S1DWfN99KY5Wt7Vza2y8WoEiJUkbftNVvpxViz21wi8nidVHUspA/HFKlir2T8iNelkgvtDlbksF&#xA;Lq1B7Kx4yD5cuJ+k4od+ZH5keZtA8zPp2nPEtssUbgPGGNWG++KqHkL8x/NfmHzNb6Xe3CR28yyM&#xA;zQxIr1RCwoWDjqPDFWXee7nzhoukSaro98s8VtRrmC4hjZ+HQurIEHw9xTpirzFPzq87qwJe2cD9&#xA;kw7H7iDir17yB5jufMPli21K6CrdM0kc4jBVOSOQKAk/s0xVM/MF9NYaDqV/BQz2lrPPEGFV5xxs&#xA;61G21RirxL/leHnP+Sz/AORT/wDNeKvWfy/1++1/yvbanfBBcyvIrCIFVojlRQEt2GKsX/M3z75n&#xA;8r6xBDYm2e0uofUQSxsXVlPFhUOKjv0xVLfIf5qeZtd812OlXq2wtrj1fUMcbK3wQvIKEse6jFXr&#xA;uKvK/wAwvzO8xeXPM76fYx20lssUclJkdiS4NalXTFWvIX5q+YfMPma30u9t7SO3mWRmaFJVeqIW&#xA;FC0jjqPDFXquKuxV2KrZpUhieWQ0jjUu58AoqcVeGN+e/m3keNnYBa7AxzE0/wCR2Ktf8r283/8A&#xA;LHp//Iub/qtir1D8vPNVx5m8urqN0kcd0k0kM6QhggK0YUDFz9hh3xVk2KsV/Mbzbe+VtEg1Czhj&#xA;nlluVtyk3LiFaN3r8JXf4MVec/8AK+fMf/Vvs/8Akr/zXirI/IP5rap5i8xJpd7a28EcscjI8XPl&#xA;zQcqfExFOIOKoz8yPzK1DytqdrY2VtDO00PrymblUAuVWnFl/lOKsQ/5Xz5j/wCrfZ/8lf8AmvFW&#xA;cfln591HzZ+kvrtvDB9S9D0/R5b+r6la8i3T0xirOMVeMT/nxq0c0kY0u3IRioPN+xpirL/y+/Mu&#xA;DzO89reJFZ6ghBggVj+8jpuVLdSp6jwxVkOqv5uW6A0mHT5LXiKtdSzJJz3rtHG4p074q1pb+cDd&#xA;AarDp6WlDVrWWd5OXbaSNFp9OKvFfzp/5TiX/mHh/UcVUfyd/wCU9sv+Mc//ACabFXvms2y3WkX1&#xA;s+6T28sbV6UdCp/Xir5OxS94/IqQt5QulJ+xfSADwBiiP6ycUMu84/8AKI65/wBs+6/5Mtir5ZxS&#xA;9V8hfmr5e8veWbfS723u5LiJpGZoUiZKO5YULSIeh8MUMV/MTzonmrV4rmCBre0tovShSQguasWL&#xA;NTYVr0riqdfkfpM1z5pl1DifQsIGq/b1JvgVfpXkfoxV7xir59/On/lOJf8AmHh/UcVYhpWr6jpN&#xA;6l9p0xt7qMMElUAkBhQ7MCOhxSn3/K0PPv8A1d5P+Ai/5oxV6d+TvmbXNdttUfVrtrpoHhERZVXi&#xA;GD1+yF8MUPRcVY7+Ymo/UPJWrzg8WaAwqe9ZyItv+DxV8yqpYhVFSdgB1JxSyb8xtFGj+aJLNBSM&#xA;W9sY/ksKof8AhkOKGdfkHqNY9W01j9kxXEY+YKP+pcVeuYq84/Pf/lEbT/toR/8AJmbFXh9nAZ7u&#xA;GAKWMsioFHU8iBtillX5cWGtW3nHSbxLC5MKzBZJRDIVVJVMZYsBQDi9a4oZJ+ZnlDzdr3nKebT9&#xA;NkntY44oYZqoiMAoZqF2Xo7kYqk8f5MedpGA9GGFSqkmWZTRioLD4OfRtsVej/lf5D1XyouonUJo&#xA;JWvfR4CAuwX0vUrUuqdfUxVnWKvI9X8j/lTpup3A1fWZo7pnMj2vNRwEh5gcUjZuh8emKoNLj8ib&#xA;Fg8cdxeyJ8SOPrQNRvtUxDFU6f8APLyvbRLDaWN7KsYCqZOA2G32jJIx+nFWdeW/Mml+YdMTUNOc&#xA;tGx4yRts8bjqjjxxV4j+dP8AynEv/MPD+o4qo/k7/wAp7Zf8Y5/+TTYq+gb9lSxuXY0VYnJPsFOK&#xA;vknFL3T8h4wPKt7J+0186nwosMR/42xQzLzj/wAojrn/AGz7r/ky2KvlnFLsVdir3b8lda0SfQ5N&#xA;LtIPq2oW37y7qeRm5beqDt8qdtsUPR8VfPv50/8AKcS/8w8P6jirCba1urqYQ2sLzzNUrHEpdjTc&#xA;0CgnFKN/w15j/wCrVef9I8v/ADTir1v8jdO1CytdXF5azWxeSAoJo2j5UD1pyArih6hirFfzI8t6&#xA;x5j0KPTNMeGNmuEknedmVfTRW2+FXP2iMVYPov5HanbahaXV/qNv6cE0ckkUSu3IIwYqCwTrQjpi&#xA;rI/zD8leV9V1S31PWtYXS6Q+giM0UZkEbM5KmQ7kep2GKofyNp35caJrqpoutPealdxtAImdXRht&#xA;IacI1UfYqN8Vej4qxj8wvMGl6FosN5qOnJqcTXKxRwOEIV2jc8/jVgPhUjp3xVg+l/nQJ9TtLKy0&#xA;KGzjuZ44WYSVIEjhSaLHH44qgNY/Obzda6tc2XoWkK2s7wvxjcuRG/E15ORX4fDFUt8xfmp5yfWb&#xA;6Cw1H0rJLiVLVI4oq+mHIT4uJYnjTviql+YHmTzRaeZ73T11a7SGD0k9OOZ0Wvopy2Ujqd8VZb+R&#xA;F5eXTa61zPJOw+q0aR2civrV+0Tir1jFWDfmP+W8fmdEvbJ1t9WgXgC/2Jk6hXI6Edm+/wBlXhmt&#xA;eXta0S5+rapaSWsm/EsKq1O6OKqw+RxSl2KvQfyV1yWy81jTi3+janGyMnb1IlMiN86Bl+nFCj+d&#xA;P/KcS/8AMPD+o4qhvyjngg882ck0ixRiOaruQqisTdzir1T8xvPWi6d5cvbW3vIrjUbyJoIYInV2&#xA;USDiztxrxCqSRXqcVfPOKX0P+Tti1t5GtXYUN1LLPT258B94SuKGR+aLae68s6vbW6GSeeyuI4o1&#xA;6s7xMqqPmTirwS2/Kfz7PQjTDGv80ksK/gX5fhir0Dy3+S2jfoiL9PxP+k6v6vozHhTkeNKD+WmK&#xA;pbqP5GWcd3JImuLZ2DGsInjDuBQbFucSnfFU48jeTfK3l/X45rPzFHfahLG8S2iPCC6kcm+BWdtu&#xA;FfoxV6Rirzfz1rv5b6dr7DXNJkv9UEcZZ1QOvDfiPjkRfwxVZ5J87+TtR8xW+m6N5ejsJZFci7Ec&#xA;MbgIhY/YBJr0+1ir0vFXYq7FXi/52eY9Rh1+106zvJoIorbnMkUjIC8rHZgpFfhUffirzrTNe1XT&#xA;tUh1S3nJvYCxiklAloWUqdnqOjYpRvmPzp5g8xxwJq0yzLbFmh4xohBegb7IHgMVQvlrUf0b5h02&#xA;+J4rb3MTuf8AIDjn/wALXFX1Vih5x+e//KI2n/bQj/5MzYq8b8tf8pHpX/MZb/8AJ1cUpr+Zdl9T&#xA;886vEBQPMJh7+siyn8XxQlnlezN75l0q1I5Ca7hV/wDVMg5H7sUpt+aH/Ke6v/xkT/k0mKs1/wCc&#xA;f/8Apff9Gn/M7FD1ueRo4JJFXkyKzBSaVIFaVof1Yq8k/wChgP8AtQ/9Pf8A15xVmnlHzLpvnjQp&#xA;5bqwjVEmMM1lKVuF2UMrHkq9eXhiryH81vKmm+XdfiTTjwtryL1hbE19M8ipArvxNNq++Kpf+W/L&#xA;/HOj8a19cdPDia4q9Q89eWfy+vdfa98wa01ndGJFNoksaniv2SVKO2+Kse+rfkPZj45575h1X/Sd&#xA;9vFFiX8cVbHm78mrI0tvL0lwR0LxI6nf/i6Vj28MVRGmfmfok+oW+n6F5SgFzcusUO8UVGbapCRN&#xA;sK1O/TFXsCigA6U7DpiqXeZby4svLuq3ls3C4trO4mhegPF44mZTQ1BoR3xV883P5leerivqaxMt&#xA;f99hIv8Ak2q4q9p/Kq+vb7yVaXN7cSXVw0kwaaZ2kcgSsBVmJOwxV57+fP8Ayken/wDMH/zNfFWP&#xA;flVIY/P+ksBWrSr/AMFA6/xxV9I4q+ffzp/5TiX/AJh4f1HFWCYpdiqfeRP+Uz0X/mMh/wCJjFX0&#xA;/ih8z/mPqIv/ADvq0ymqpN6C+FIAItvpTFUq0vy/reqrI2m2M14sRAlMKF+JatK08aYpRN15O81W&#xA;lvJc3Ok3UNvEOUsrxMFVR3JIxVJsVfVPlXUf0j5b0y+Jq89tE0h6/HxAf/hq4oYZ+e//ACiNp/20&#xA;I/8AkzNirxvy1/ykelf8xlv/AMnVxSzL88bL0fN0NwB8N1aRsT/lIzIR/wACFxQlf5S2f1nz5p1R&#xA;VIPVmb/YxNx/4YjFVH80P+U91f8A4yJ/yaTFLNf+cf8A/pff9Gn/ADOxQ9exV8r+aNIfR/MOoac6&#xA;8RbzOIx4xk8oz9KEHFLWheZdd0Gd59Ju2tXkHGQAKysB05I4ZTTttiqhq2sanq9417qVw9zcsADI&#xA;9NgOgAFAB7DFWW/k1pcl551guOJMVhFJPIe1WUxqPvev0YoTr81fJ/mbVfNsl3p2nS3NsYYlEqAU&#xA;qoNR1xVh/wDyrnzx/wBWa4+4f1xVXtfyt893LhV0p4wTQvK8cYHueTV+4Yq9X/Lv8srfy0f0hfOt&#xA;zrDqVVkr6cKnYhK0JY92p7DvVVneKpZ5otp7ryzq9tboZJ57K4jijXqzvEyqo+ZOKvnn/lXPnj/q&#xA;zXH3D+uKvbvyw0vUNM8nWlnfwNb3SPMXif7QDSMR+GKsT/OTynrur6pp91pdlJdhIGilMdDxo/Ja&#xA;18eRxVivk/yd520nzPpuoPo84jhnX1SwAAR/gc9eyscVfQOKvFvzV8n+ZtV82yXenadLc2xhiUSo&#xA;BSqg1HXFWH/8q588f9Wa4+4f1xV3/KufPH/VmuPuH9cVTjyf5E832fmnSrq50qeK3huonlkYCiqr&#xA;AknfFXv8rskTuql2VSwRerECtB88VfNlx5A8+XFxLPLo9wZJXZ3NBuzGp74q9a/J/wAuajovl+6X&#xA;Ubdra7uLkt6b0r6aooXp78sVZdrlj9f0W/saVN1bywge7oVH68VfOf8Ayrnzx/1Zrj7h/XFXtn5W&#xA;2er2PlGCw1S2e1uLWWVEjkFCUZvUB+VXIxVB/nBouq6v5ZtrbTLZ7qdL1JGjj3IQRSqW392GKvLd&#xA;B8gec4Nc06ebSZ0iiuoXkcgUCrICSd+wxVn35zeVdY1k6VcaVaPdSw+tHOIwCQrcClakdw2Kpd+T&#xA;/k7XtK8wXV9qtjJaxi1MURkFKs7qdqeAXFUl/MHyR5s1Dzjqd5ZaZNPazOhilQDiwEag038RirLP&#xA;yX8ua5o36Y/SlnJaev8AVvR9QAcuHq8qUPbkMVemYq8+/NH8uZPMKJqelhRq0C8HiJCiaMbgVO3N&#xA;e1f6Yq8MvtO1DT5zBfW0trMOscyMjfcwGKUVovlvXNanWHTLKW5YmhdVpGvuzmir9JxV9Bfl95Kh&#xA;8q6QYXZZdQuSHvJ16VA+FFr+ylT88UP/2Q==</xmpGImg:image>
               </rdf:li>
            </rdf:Alt>
         </xmp:Thumbnails>
      </rdf:Description>
      <rdf:Description rdf:about=""
            xmlns:xmpMM="http://ns.adobe.com/xap/1.0/mm/"
            xmlns:stRef="http://ns.adobe.com/xap/1.0/sType/ResourceRef#"
            xmlns:stEvt="http://ns.adobe.com/xap/1.0/sType/ResourceEvent#">
         <xmpMM:InstanceID>xmp.iid:BF3F5A68346FE41195E3D1493AEF96AB</xmpMM:InstanceID>
         <xmpMM:DocumentID>xmp.did:BF3F5A68346FE41195E3D1493AEF96AB</xmpMM:DocumentID>
         <xmpMM:OriginalDocumentID>uuid:5D20892493BFDB11914A8590D31508C8</xmpMM:OriginalDocumentID>
         <xmpMM:RenditionClass>proof:pdf</xmpMM:RenditionClass>
         <xmpMM:DerivedFrom rdf:parseType="Resource">
            <stRef:instanceID>xmp.iid:BE3F5A68346FE41195E3D1493AEF96AB</stRef:instanceID>
            <stRef:documentID>xmp.did:BE3F5A68346FE41195E3D1493AEF96AB</stRef:documentID>
            <stRef:originalDocumentID>uuid:5D20892493BFDB11914A8590D31508C8</stRef:originalDocumentID>
            <stRef:renditionClass>proof:pdf</stRef:renditionClass>
         </xmpMM:DerivedFrom>
         <xmpMM:History>
            <rdf:Seq>
               <rdf:li rdf:parseType="Resource">
                  <stEvt:action>saved</stEvt:action>
                  <stEvt:instanceID>xmp.iid:9FB6100F196FE41195E3D1493AEF96AB</stEvt:instanceID>
                  <stEvt:when>2014-11-18T22:56:30+08:00</stEvt:when>
                  <stEvt:softwareAgent>Adobe Illustrator CS6 (Windows)</stEvt:softwareAgent>
                  <stEvt:changed>/</stEvt:changed>
               </rdf:li>
               <rdf:li rdf:parseType="Resource">
                  <stEvt:action>saved</stEvt:action>
                  <stEvt:instanceID>xmp.iid:BF3F5A68346FE41195E3D1493AEF96AB</stEvt:instanceID>
                  <stEvt:when>2014-11-18T23:07:57+08:00</stEvt:when>
                  <stEvt:softwareAgent>Adobe Illustrator CS6 (Windows)</stEvt:softwareAgent>
                  <stEvt:changed>/</stEvt:changed>
               </rdf:li>
            </rdf:Seq>
         </xmpMM:History>
      </rdf:Description>
      <rdf:Description rdf:about=""
            xmlns:illustrator="http://ns.adobe.com/illustrator/1.0/">
         <illustrator:StartupProfile>Print</illustrator:StartupProfile>
      </rdf:Description>
      <rdf:Description rdf:about=""
            xmlns:xmpTPg="http://ns.adobe.com/xap/1.0/t/pg/"
            xmlns:stDim="http://ns.adobe.com/xap/1.0/sType/Dimensions#"
            xmlns:xmpG="http://ns.adobe.com/xap/1.0/g/">
         <xmpTPg:HasVisibleOverprint>False</xmpTPg:HasVisibleOverprint>
         <xmpTPg:HasVisibleTransparency>False</xmpTPg:HasVisibleTransparency>
         <xmpTPg:NPages>1</xmpTPg:NPages>
         <xmpTPg:MaxPageSize rdf:parseType="Resource">
            <stDim:w>260.000000</stDim:w>
            <stDim:h>400.000000</stDim:h>
            <stDim:unit>Pixels</stDim:unit>
         </xmpTPg:MaxPageSize>
         <xmpTPg:PlateNames>
            <rdf:Seq>
               <rdf:li>Cyan</rdf:li>
               <rdf:li>Magenta</rdf:li>
               <rdf:li>Yellow</rdf:li>
               <rdf:li>Black</rdf:li>
            </rdf:Seq>
         </xmpTPg:PlateNames>
         <xmpTPg:SwatchGroups>
            <rdf:Seq>
               <rdf:li rdf:parseType="Resource">
                  <xmpG:groupName>默认色板组</xmpG:groupName>
                  <xmpG:groupType>0</xmpG:groupType>
               </rdf:li>
            </rdf:Seq>
         </xmpTPg:SwatchGroups>
      </rdf:Description>
      <rdf:Description rdf:about=""
            xmlns:pdf="http://ns.adobe.com/pdf/1.3/">
         <pdf:Producer>Adobe PDF library 10.01</pdf:Producer>
      </rdf:Description>
   </rdf:RDF>
</x:xmpmeta>
                                                                                                    
                                                                                                    
                                                                                                    
                                                                                                    
                                                                                                    
                                                                                                    
                                                                                                    
                                                                                                    
                                                                                                    
                                                                                                    
                                                                                                    
                                                                                                    
                                                                                                    
                                                                                                    
                                                                                                    
                                                                                                    
                                                                                                    
                                                                                                    
                                                                                                    
                                                                                                    
                           
<?xpacket end="w"?>
	</metadata>
<path fill="#727171" d="M4.271,115.955v-8.83l11.064-0.797v9.627H4.271L4.271,115.955z M4.271,103.276L4.271,103.276V57.383h11.064
	V77.26H25.64V57.383h11.075v43.583l-11.075,0.78v-8.515H15.336v9.257L4.271,103.276L4.271,103.276z M36.715,104.807L36.715,104.807
	v11.148H25.641v-10.35L36.715,104.807L36.715,104.807z M57.222,95.921L57.222,95.921h6.957l-3.441-20.294L57.222,95.921
	L57.222,95.921z M42.994,115.955L42.994,115.955l2.43-11.76l30.163-2.152l2.875,13.912H67.49l-1.3-7.735H55.219l-1.335,7.735H42.994
	L42.994,115.955z M46.231,100.28L46.231,100.28l8.885-42.897h11.223l8.459,40.875L46.231,100.28L46.231,100.28z M84.769,115.955
	L84.769,115.955v-14.561l10.5-0.761v15.322H84.769L84.769,115.955z M84.769,97.544L84.769,97.544V57.383h10.5l9.683,27.241
	c0.297,0.77,0.613,1.855,0.945,3.255c0.334,1.41,0.687,3.108,1.068,5.092c-0.102-1.039-0.158-2.17-0.214-3.423
	c-0.046-1.233-0.065-2.754-0.065-4.535v-27.63h10.546v37.851L99.71,96.478l-2.698-7.568c-0.307-0.789-0.631-1.911-0.984-3.367
	c-0.351-1.465-0.694-3.135-1.057-5.018c0.111,1.039,0.176,2.115,0.232,3.246c0.047,1.123,0.065,2.708,0.065,4.75v8.273
	L84.769,97.544L84.769,97.544z M117.232,99.075L117.232,99.075v16.88h-10.546l-5.63-15.73L117.232,99.075L117.232,99.075z
	 M152.598,115.955L152.598,115.955l-0.537-5.045c-1.254,2.245-2.746,3.915-4.519,5.018c-1.772,1.104-3.812,1.661-6.158,1.661
	c-4.935,0-8.813-2.764-11.659-8.255c-1.558-3.023-2.689-6.66-3.395-10.907l11.314-0.808c0.187,0.715,0.408,1.364,0.66,1.938
	c1.103,2.616,2.791,3.933,5.045,3.933c1.623,0,3.014-0.631,4.137-1.91c1.066-1.215,1.742-2.82,2.05-4.804l10.212-0.724v19.904
	L152.598,115.955L152.598,115.955z M125.829,94.623L125.829,94.623c-0.24-2.467-0.36-5.102-0.36-7.911
	c0-9.785,1.577-17.372,4.749-22.78c3.162-5.388,7.604-8.097,13.319-8.097c4.497,0,8.115,1.911,10.869,5.713
	c2.754,3.785,4.396,9.126,4.906,16.037h-10.498c-0.428-2.328-1.104-4.109-2.051-5.333c-0.947-1.224-2.115-1.836-3.507-1.836
	c-2.208,0-3.868,1.447-4.971,4.341c-1.095,2.885-1.651,7.188-1.651,12.92c0,2.3,0.104,4.35,0.315,6.149L125.829,94.623
	L125.829,94.623z M144.593,93.287L144.593,93.287l15.155-1.085v-8.338h-15.155V93.287L144.593,93.287z M191.486,86.721
	L191.486,86.721c0,1.131,0.02,2.207,0.065,3.218l-11.141,0.788c-0.065-1.299-0.103-2.634-0.103-4.016
	c0-9.544,1.613-17.076,4.814-22.585c3.2-5.528,7.577-8.292,13.115-8.292c5.525,0,9.887,2.764,13.087,8.292
	c3.198,5.509,4.795,13.041,4.795,22.585c0,0.491,0,0.992-0.011,1.474l-11.186,0.798c0.02-0.723,0.028-1.475,0.028-2.263
	c0-5.584-0.529-9.684-1.614-12.262c-1.076-2.588-2.773-3.877-5.092-3.877s-4.035,1.299-5.129,3.896
	C192.023,77.083,191.486,81.155,191.486,86.721L191.486,86.721z M191.866,93.76L191.866,93.76c0.278,2.115,0.696,3.84,1.254,5.185
	c1.094,2.588,2.81,3.895,5.129,3.895c2.317,0,4.017-1.298,5.092-3.886c0.63-1.512,1.085-3.553,1.345-6.104l11.26-0.807
	c-0.5,7.049-2.041,12.8-4.617,17.242c-3.2,5.528-7.561,8.301-13.087,8.301c-5.538,0-9.915-2.773-13.115-8.301
	c-2.272-3.905-3.729-8.82-4.397-14.738L191.866,93.76L191.866,93.76z M224.35,115.955L224.35,115.955V91.451l10.498-0.751v25.255
	H224.35L224.35,115.955z M224.35,87.611L224.35,87.611V57.383h10.498l9.685,27.241c0.157,0.408,0.313,0.909,0.489,1.502l-9.098,0.65
	c-0.104-0.381-0.203-0.798-0.314-1.234c-0.354-1.465-0.707-3.135-1.058-5.018c0.111,1.039,0.177,2.115,0.231,3.246
	c0.037,0.798,0.056,1.818,0.063,3.089L224.35,87.611L224.35,87.611z M245.932,89.911L245.932,89.911
	c0.195,0.927,0.399,1.947,0.611,3.061c-0.093-0.946-0.148-1.967-0.193-3.098l10.461-0.742v26.823h-10.545l-9.1-25.422
	L245.932,89.911L245.932,89.911z M246.266,86.043L246.266,86.043c0-0.333,0-0.677,0-1.029v-27.63h10.545v27.908L246.266,86.043
	L246.266,86.043z M11.505,213.677L11.505,213.677v-43.176H1.582v-15.387h30.914v15.387h-9.924v43.176H11.505L11.505,213.677z
	 M50.516,184.442L50.516,184.442c0,5.556,0.538,9.618,1.633,12.225c1.095,2.597,2.8,3.896,5.129,3.896
	c2.318,0,4.006-1.29,5.092-3.876c1.075-2.588,1.614-6.66,1.614-12.243c0-5.584-0.539-9.674-1.614-12.262
	c-1.086-2.588-2.774-3.876-5.092-3.876c-2.329,0-4.034,1.298-5.129,3.895C51.054,174.805,50.516,178.876,50.516,184.442
	L50.516,184.442z M39.339,184.433L39.339,184.433c0-9.544,1.605-17.076,4.814-22.594c3.2-5.518,7.577-8.282,13.115-8.282
	c5.519,0,9.887,2.764,13.078,8.282c3.209,5.519,4.804,13.05,4.804,22.594c0,9.516-1.595,17.057-4.804,22.575
	c-3.19,5.528-7.559,8.301-13.078,8.301c-5.538,0-9.915-2.771-13.115-8.301C40.944,201.489,39.339,193.949,39.339,184.433
	L39.339,184.433z M108.169,213.677L108.169,213.677V192.01l-10.5-30.524l13.43,4.86l2.598,8.719l2.104-7.013l10.23,3.701
	l-6.789,20.256v21.667L108.169,213.677L108.169,213.677z M96.065,156.83L96.065,156.83l13.672,4.943l-1.985-6.659H95.473
	L96.065,156.83L96.065,156.83z M116.907,164.371L116.907,164.371l10.342,3.747l4.368-13.003h-11.928L116.907,164.371
	L116.907,164.371z M148.016,184.442L148.016,184.442c0,5.556,0.539,9.618,1.633,12.225c1.094,2.597,2.81,3.896,5.129,3.896
	c2.318,0,4.016-1.29,5.093-3.876c1.065-2.56,1.604-6.595,1.612-12.114l11.064,4.007c-0.408,7.586-1.977,13.728-4.691,18.429
	c-3.201,5.528-7.56,8.301-13.088,8.301c-5.527,0-9.914-2.771-13.115-8.301c-3.198-5.519-4.803-13.059-4.803-22.575
	c0-3.07,0.156-5.936,0.489-8.598l10.825,3.923C148.063,181.177,148.016,182.745,148.016,184.442L148.016,184.442z M161.381,180.453
	L161.381,180.453l11.27,4.081v-0.102c0-9.544-1.596-17.076-4.795-22.594c-3.201-5.518-7.56-8.282-13.088-8.282
	c-5.527,0-9.914,2.764-13.115,8.282c-1.649,2.847-2.875,6.233-3.682,10.157l10.666,3.858c0.249-1.438,0.594-2.653,1.012-3.655
	c1.094-2.597,2.81-3.896,5.129-3.896c2.318,0,4.016,1.289,5.093,3.876C160.675,174.109,161.176,176.864,161.381,180.453
	L161.381,180.453z M182.359,155.114L182.359,155.114h11.076v36.089c0,0.297,0,0.584,0.008,0.862l-11.084-4.007V155.114
	L182.359,155.114z M193.907,196.304L193.907,196.304c0.194,0.826,0.446,1.502,0.762,2.041c0.815,1.428,2.179,2.133,4.099,2.133
	c1.42,0,2.533-0.398,3.34-1.205l11.611,4.202c-0.686,2.338-1.633,4.34-2.838,6.02c-2.781,3.867-6.826,5.814-12.113,5.814
	c-5.322,0-9.377-1.947-12.195-5.824c-2.803-3.887-4.211-9.479-4.211-16.796v-0.557L193.907,196.304L193.907,196.304z
	 M203.646,195.757L203.646,195.757l10.908,3.933c0.334-2.115,0.498-4.453,0.498-7.002v-37.573H203.98v36.089
	C203.98,193.002,203.878,194.514,203.646,195.757L203.646,195.757z M237.193,180.287L237.193,180.287h5.019
	c1.771,0,2.986-0.417,3.654-1.234c0.667-0.807,1.011-2.216,1.011-4.239c0-2.077-0.344-3.506-1.011-4.313
	c-0.668-0.807-1.976-1.224-3.933-1.224h-4.74V180.287L237.193,180.287z M226.26,213.677L226.26,213.677v-5.667l10.936,3.961v1.706
	H226.26L226.26,213.677z M226.26,203.938L226.26,203.938v-48.822h16.5c5.166,0,8.856,1.307,11.064,3.932
	c2.208,2.616,3.312,6.919,3.312,12.921c0,3.57-0.454,6.548-1.362,8.913c-0.9,2.355-2.301,4.211-4.193,5.602
	c1.93,0.677,3.33,2.041,4.193,4.072c0.879,2.022,1.345,5,1.408,8.913l0.187,8.162c0,0.056,0.01,0.13,0.019,0.195
	c0.057,2.337,0.391,3.552,0.992,3.663v2.188h-5.186l-6.297-2.282c-0.057-0.5-0.111-0.965-0.158-1.399
	c-0.103-1.048-0.148-1.864-0.148-2.438v-5.853c0-3.015-0.352-5.148-1.057-6.382c-0.696-1.233-1.911-1.845-3.646-1.845h-4.691v14.414
	L226.26,203.938L226.26,203.938z M15.336,296.576L15.336,296.576h2.978c2.754,0,4.665-1.047,5.732-3.135
	c1.058-2.115,1.595-5.854,1.595-11.271c0-5.276-0.538-9.015-1.632-11.213c-1.095-2.207-2.94-3.302-5.565-3.302h-3.107
	L15.336,296.576L15.336,296.576z M4.271,311.396L4.271,311.396v-7.336l29.541-3.199c-1.447,3.543-3.404,6.242-5.871,8.104
	c-1.113,0.892-2.532,1.505-4.211,1.874c-1.697,0.371-4.405,0.557-8.144,0.557H4.271L4.271,311.396z M4.271,300.203L4.271,300.203
	v-32.73l31.043,0.11c0.965,4.063,1.447,8.933,1.447,14.589c0,5.667-0.538,10.564-1.633,14.684L4.271,300.203L4.271,300.203z
	 M4.271,263.632L4.271,263.632v-10.796h13.384c3.395,0,5.926,0.259,7.586,0.77c1.66,0.511,3.107,1.363,4.341,2.569
	c1.911,1.91,3.432,4.433,4.591,7.568L4.271,263.632L4.271,263.632z M59.884,278.008L59.884,278.008h5.027
	c1.771,0,2.977-0.408,3.646-1.225c0.678-0.807,1.01-2.217,1.01-4.238c0-2.077-0.333-3.516-1.01-4.313
	c-0.148-0.205-0.353-0.371-0.585-0.52l11.816,0.057c0.019,0.611,0.037,1.26,0.037,1.928c0,3.563-0.455,6.539-1.354,8.904
	c-0.908,2.355-2.301,4.221-4.192,5.604c1.919,0.686,3.321,2.049,4.192,4.08c0.445,1.011,0.78,2.273,1.01,3.785l-11.139,1.205
	c-0.037-0.084-0.075-0.157-0.112-0.224c-0.694-1.241-1.911-1.854-3.654-1.854h-4.693v2.986l-10.926,1.188v-27.732l10.926,0.037
	L59.884,278.008L59.884,278.008z M48.958,311.396L48.958,311.396v-12.168l10.926-1.188v13.355H48.958L48.958,311.396z
	 M48.958,263.809L48.958,263.809v-10.973h16.491c5.167,0,8.858,1.316,11.064,3.934c1.419,1.688,2.384,4.07,2.894,7.158
	L48.958,263.809L48.958,263.809z M79.834,295.891L79.834,295.891c0.019,0.418,0.038,0.854,0.038,1.317l0.195,8.151
	c0,0.048,0.009,0.121,0.019,0.195c0.046,2.327,0.38,3.541,0.992,3.653v2.188H69.892c-0.205-1.41-0.353-2.633-0.463-3.674
	c-0.102-1.048-0.148-1.863-0.148-2.447v-5.854c0-0.871-0.028-1.66-0.083-2.383L79.834,295.891L79.834,295.891z M92.643,311.396
	L92.643,311.396v-16.898l11.066-1.205v3.85h17.167v14.256H92.643V311.396z M92.643,290.643L92.643,290.643v-22.836l11.066,0.045
	v6.809h13.939v13.271l-1.558,0.168h-12.381v1.344L92.643,290.643L92.643,290.643z M92.643,263.975L92.643,263.975v-11.139H120.2
	v11.24L92.643,263.975L92.643,263.975z M143.979,291.363L143.979,291.363h6.947l-0.518-3.116l9.794-1.058l5.009,24.207h-10.975
	l-1.297-7.733h-10.973l-1.337,7.733h-10.889l4.433-21.396l10.23-1.104L143.979,291.363L143.979,291.363z M149.759,284.464
	L149.759,284.464l-2.264-13.394l-2.41,13.894l-10.092,1.095l3.737-18.067l17.512,0.073l3.181,15.352L149.759,284.464
	L149.759,284.464z M139.527,264.16L139.527,264.16l2.339-11.324h11.223l2.356,11.391L139.527,264.16L139.527,264.16z
	 M185.495,311.396L185.495,311.396h-10.019v-25.857l10.019-1.094V311.396L185.495,311.396z M175.479,281.682L175.479,281.682
	v-13.543l15.99,0.057l1.883,11.548l-7.012,0.751c-0.064-0.473-0.13-0.982-0.195-1.502c-0.193-1.643-0.463-3.868-0.797-6.68
	c0.045,2.523,0.082,4.686,0.11,6.476c0.009,0.649,0.019,1.252,0.026,1.799L175.479,281.682L175.479,281.682z M175.479,264.3
	L175.479,264.3v-11.464h13.485l1.874,11.527L175.479,264.3L175.479,264.3z M193.936,283.536L193.936,283.536
	c0.047,0.353,0.103,0.771,0.168,1.241c0.186,1.43,0.455,3.377,0.797,5.863c0.225-1.957,0.418-3.674,0.611-5.14
	c0.104-0.835,0.204-1.56,0.297-2.17l7.265-0.779l-0.028,0.167l-4.258,28.678h-7.727l-4.164-27.101L193.936,283.536L193.936,283.536z
	 M196.459,279.398L196.459,279.398l1.864-11.176l16.026,0.063v9.183l-9.925,1.076l0.011-1.085c0.008-1.66,0.026-3.367,0.037-5.147
	c-0.242,1.984-0.529,4.1-0.836,6.316L196.459,279.398L196.459,279.398z M198.962,264.393L198.962,264.393l1.921-11.557h13.467
	v11.621L198.962,264.393L198.962,264.393z M214.35,281.328L214.35,281.328v30.068h-10.017l0.093-28.826v-0.166L214.35,281.328
	L214.35,281.328z M226.334,293.154L226.334,293.154h10.786c0.297,2.115,0.825,3.636,1.612,4.554
	c0.781,0.928,1.939,1.392,3.479,1.392c1.289,0,2.312-0.38,3.052-1.132c0.742-0.76,1.104-1.78,1.104-3.116
	c0-2.115-1.541-3.83-4.647-5.156c-0.621-0.26-1.104-0.465-1.429-0.604c-2.541-1.112-4.563-2.123-6.075-3.032
	c-1.502-0.918-2.598-1.779-3.283-2.578c-0.891-1.086-1.642-2.317-2.234-3.701l21.814-2.364c0.982,0.631,1.734,1.243,2.244,1.817
	c1.521,1.726,2.645,3.683,3.35,5.881c0.703,2.207,1.047,4.805,1.047,7.791c0,6.482-1.336,11.445-3.997,14.914
	c-2.652,3.469-6.466,5.213-11.437,5.213c-4.582,0-8.209-1.744-10.88-5.213C228.161,304.35,226.657,299.471,226.334,293.154
	L226.334,293.154z M227.539,276.042L227.539,276.042c-0.391-1.837-0.585-3.878-0.585-6.094c0-0.548,0.01-1.087,0.037-1.604
	l10.751,0.037c0,0.064,0,0.13,0,0.204c0,1.929,1.512,3.552,4.535,4.841c0.277,0.131,0.473,0.223,0.611,0.279
	c0.314,0.129,0.731,0.314,1.279,0.537L227.539,276.042L227.539,276.042z M227.391,264.504L227.391,264.504
	c0.575-3.302,1.717-6.048,3.424-8.255c2.576-3.312,6.11-4.972,10.619-4.972c4.434,0,7.922,1.596,10.461,4.768
	c1.754,2.207,2.986,5.055,3.684,8.57L227.391,264.504L227.391,264.504z M256.105,268.455L256.105,268.455
	c0.037,0.406,0.074,0.814,0.094,1.242h-10.5c-0.047-0.465-0.111-0.891-0.194-1.289L256.105,268.455z"/>
</svg>
