<?xml version="1.0" encoding="utf-8"?>
<!-- Generator: Adobe Illustrator 16.0.0, SVG Export Plug-In . SVG Version: 6.00 Build 0)  -->
<!DOCTYPE svg PUBLIC "-//W3C//DTD SVG 1.1//EN" "http://www.w3.org/Graphics/SVG/1.1/DTD/svg11.dtd">
<svg version="1.1" id="图层_1" xmlns="http://www.w3.org/2000/svg" xmlns:xlink="http://www.w3.org/1999/xlink" x="0px" y="0px"
	 width="260px" height="400px" viewBox="0 0 260 400" enable-background="new 0 0 260 400" xml:space="preserve">
<metadata><?xpacket begin="﻿" id="W5M0MpCehiHzreSzNTczkc9d"?>
<x:xmpmeta xmlns:x="adobe:ns:meta/" x:xmptk="Adobe XMP Core 5.3-c011 66.145661, 2012/02/06-14:56:27        ">
   <rdf:RDF xmlns:rdf="http://www.w3.org/1999/02/22-rdf-syntax-ns#">
      <rdf:Description rdf:about=""
            xmlns:dc="http://purl.org/dc/elements/1.1/">
         <dc:format>image/svg+xml</dc:format>
         <dc:title>
            <rdf:Alt>
               <rdf:li xml:lang="x-default">打印</rdf:li>
            </rdf:Alt>
         </dc:title>
      </rdf:Description>
      <rdf:Description rdf:about=""
            xmlns:xmp="http://ns.adobe.com/xap/1.0/"
            xmlns:xmpGImg="http://ns.adobe.com/xap/1.0/g/img/">
         <xmp:MetadataDate>2014-11-18T22:56:30+08:00</xmp:MetadataDate>
         <xmp:ModifyDate>2014-11-18T22:56:30+08:00</xmp:ModifyDate>
         <xmp:CreateDate>2014-11-18T22:56:30+08:00</xmp:CreateDate>
         <xmp:CreatorTool>Adobe Illustrator CS6 (Windows)</xmp:CreatorTool>
         <xmp:Thumbnails>
            <rdf:Alt>
               <rdf:li rdf:parseType="Resource">
                  <xmpGImg:width>240</xmpGImg:width>
                  <xmpGImg:height>256</xmpGImg:height>
                  <xmpGImg:format>JPEG</xmpGImg:format>
                  <xmpGImg:image>/9j/4AAQSkZJRgABAgEASABIAAD/7QAsUGhvdG9zaG9wIDMuMAA4QklNA+0AAAAAABAASAAAAAEA&#xA;AQBIAAAAAQAB/+4ADkFkb2JlAGTAAAAAAf/bAIQABgQEBAUEBgUFBgkGBQYJCwgGBggLDAoKCwoK&#xA;DBAMDAwMDAwQDA4PEA8ODBMTFBQTExwbGxscHx8fHx8fHx8fHwEHBwcNDA0YEBAYGhURFRofHx8f&#xA;Hx8fHx8fHx8fHx8fHx8fHx8fHx8fHx8fHx8fHx8fHx8fHx8fHx8fHx8fHx8f/8AAEQgBAADwAwER&#xA;AAIRAQMRAf/EAaIAAAAHAQEBAQEAAAAAAAAAAAQFAwIGAQAHCAkKCwEAAgIDAQEBAQEAAAAAAAAA&#xA;AQACAwQFBgcICQoLEAACAQMDAgQCBgcDBAIGAnMBAgMRBAAFIRIxQVEGE2EicYEUMpGhBxWxQiPB&#xA;UtHhMxZi8CRygvElQzRTkqKyY3PCNUQnk6OzNhdUZHTD0uIIJoMJChgZhJRFRqS0VtNVKBry4/PE&#xA;1OT0ZXWFlaW1xdXl9WZ2hpamtsbW5vY3R1dnd4eXp7fH1+f3OEhYaHiImKi4yNjo+Ck5SVlpeYmZ&#xA;qbnJ2en5KjpKWmp6ipqqusra6voRAAICAQIDBQUEBQYECAMDbQEAAhEDBCESMUEFURNhIgZxgZEy&#xA;obHwFMHR4SNCFVJicvEzJDRDghaSUyWiY7LCB3PSNeJEgxdUkwgJChgZJjZFGidkdFU38qOzwygp&#xA;0+PzhJSktMTU5PRldYWVpbXF1eX1RlZmdoaWprbG1ub2R1dnd4eXp7fH1+f3OEhYaHiImKi4yNjo&#xA;+DlJWWl5iZmpucnZ6fkqOkpaanqKmqq6ytrq+v/aAAwDAQACEQMRAD8A9U4q7FXYq7FXYqkFz5ln&#xA;udRl0vQbcXtzbnje3chK2tu38rMATJJ/kJ9JGKqr6FqtzH/pmuXSyHqLNIbeMH/JDJLJ/wAE5xVI&#xA;P8H+f4NRD2nm1zZVrS5hWZxvXiVPwt86rirJ47u/so0GqGOWICkl/CPSRfeSN2bgPcM3vTFXj/nn&#xA;829YudRltNCufqumRHilxGKSTU2L8zuq1+zxp/RVj1j+ZvnazlDpqksi1BMc1JlPj/ecj9xGKvXv&#xA;y9/Mi380I1pcxrbatEvNo1J9ORRQFo67ihO6n8cVZrirsVdirsVdirsVdirsVdiqndXMFrbS3Nw4&#xA;jghRpJZG6KqipJ+jFXz/AOd/zT1rXbiW2sJXsdIBISKM8ZJAP2pWG+/8o2+fXFXuflz0f8PaX6H9&#xA;z9Ug9Kn8vpLx/DFUxxV2KuxV2KuxV2KuxV2KuxV2KqV3C89tLCkrQNIpQTR05pyFOS125Dtiqlpm&#xA;mWOmWUVlYxCG2hFEQfiSepJ6knriqKxV2KtMqupVgGVhRlO4IPY4q8RtfIei6l5h1zy5dStY6zBc&#xA;PcabcVLLLbyfEqMjHfipB+E13PWmKsX8w/l15r0SRhPZvPAPs3NuGljO/ioqv+yAxVN/yk0LWZPN&#xA;9nfR28iWlr6jXNwysqANGyBKmgJYt0+nFX0BirsVdirsVdirsVdirsVdirCvzhupYPIt2sZp68kM&#xA;Tkfylwx+/jTFXzvil75+TPmVdS8t/oyZq3elkIK9TA1TGf8AY7r9AxQ9BxV2KuxV2KuxV2KuxV2K&#xA;uxVp3REZ3YKigszMaAAbkknFXnHmv86dG053tdGjGpXS7NOSVt1PsRvJ/sdvfFWE2P5zea01aO8v&#xA;3FzZpyrp8QSBGLKQKvwkeinfriqZ3P596yw/0bS7aI9jI7yD/hfTxVLJvzt86yNVPqsQ32SIkf8A&#xA;Ds2Koyx/PfzJE1LyxtblP8jnE338nH/C4qk/nLz7ba7qNhrOn2sul6zafC0qyB1ZVPJDWibqSeo3&#xA;BxV7d5Q806f5h0iC5guY5rpUUXkSjgySU+KsZJKgnp1HucVTzFXYq7FXYq7FXYqxzzB+YPlPQi0d&#xA;5eq9yuxtYP3stR2IXZf9kRirBtR/PyMMV03SSy/sy3MoU/SiBv8AieKpO/57+ayx4WVgF7ApMT94&#xA;lGKq1r+fWvKw+t6bayr3ERkiP3s0uKo/zB+ZPlfzd5Wu9LufU0u/dRJb+qPUiMsZDKokTf4qcaso&#xA;64q8hxSzf8nL2a3892kKGkd3FPFMP8lY2lH/AA0YxQ9Y1D81/I1lctbvf+s6NxdoI3kQH/XA4n/Y&#xA;k4qm+gebvLuvqx0q9S4dBV4d0kUdKlHCtT3pTFU3xV2KuxV2KuxV2KoHW9b03RdOl1DUZhDbxD/Z&#xA;M3ZUH7THwxV4D54/MnV/M0rQRlrPSAf3dop3enRpWH2j7dB+OKsOxS7FXYq7FXYq7FURY6hfWFyl&#xA;1YzyW1wn2ZYmKsPpHbFXq3k387H5R2fmZQVNFXUoloR7yxr+tPuxQ9bt7i3uYEuLeRZoJQGjlQhl&#xA;ZT0II2OKqmKuxVAa3rml6Jp8l/qU4gt02BO7M1KhUH7THwxV4Z5w/NrXtbd7ewZtN0w7CONqTOP+&#xA;LJBvv/Ku3zxVguKWsVdirsVdirsVVILieCT1IJGik4snNCVPF1KMKjsysQcVbtra4up47e2iaaeU&#xA;hY4owWZmPQADc4q9A8t/lt+Yul39rrNrbRxT27iQQSTIrOv7SNQkAMNjvih7tGzNGrMhjZgCyGhK&#xA;kjoSCRt7YquxV2KuxVKrjX/38tvp9lPqUsDcLgwGNI43ArwMkrxqW8VWpHemKrLfzRYmK4N/FLpk&#xA;9pE09xBdAAiJPtSIyF0kUf5LHFXz955853vmjVmuJKx2MNVsrauyJX7R/wAtu5+jFWN4pdirsVdi&#xA;rsVdirsVdirsVZj5A/MTUPLF0sExa40aVv39r1KE9ZIq9D4jofxxQ+hbC/tNQsob2zlE1rcKHikX&#xA;oVOKobX9e03QtMl1HUZPTgj2AG7O5+yiDux/z2xV83ebfNmp+ZdUe8vHIhUkWttX4IkPYDx2+I98&#xA;VSPFLsVdirsVdirsVdirsVVYbiWCWKeB2iuIWDxSoaMrKaqQR3BxV75+Wv5kR+Y4f0df0j1mBKlh&#xA;QLOo6uo7MP2h9I9lDPMVdirsVdirDfysn1JdBn03VLeSDUdPuplnMgIMnrOZfUr+1VnYVGKsV/PX&#xA;X7cJY6JFvdAm5nkGxWMgoqVH8+5I9hirx7FLsVdirsVdirsVdirsVdirsVdir0D8qfPv6Cv/ANF6&#xA;hLTSLxtnY0EEp2D1PRW6N9/jihK/zE86z+Ztado3I0u2JSxi6AjoZCP5n/AbYqxPFLsVdirsVdir&#xA;sVdirsVdirsVTHy9q0uka5Y6lGSDazI7U7pWjr/slqMVfVasrKGU1UioI7g4obxV2KuxV2Kvlnzb&#xA;rLaz5k1DUi3JJ5m9H2iX4Yx/wCjFKUYq7FXYq7FXYq7FXYq7FXYq7FXYq7FXYq7FXYq7FXYq7FXY&#xA;q7FXYq7FXYq7FX1T5WufrXlnSbitTLZwMx/yjGtenvihNMVdirsVSzzPdmz8t6rdKaNDaTuh6fEs&#xA;bFfxxV8q4pdirsVdirsVdirsVdirsVdirsVdirsVdirsVdirsVdirsVdirsVdirsVdirsVfQP5L6&#xA;q175NW2c1fT5ngFevA0kX/iZH0YoZlqGq6Zp0Xrahdw2kR6PM6xg+w5EVxVAWXnPynezeha6tayT&#xA;E8Vj9VQzH/JBI5fRiqc4qkXnz/lDNa/5g5v+IHFXy/il2KuxV2KuxV2KuxV2KuxV2KuxV2KuxV2K&#xA;uxV2KuxV2KuxV2KuxV2KuxV2KuxV6H+Vvm59HtNR060gN1q+oSwJpltvwLkOHeQ9lTYnff8AHFD0&#xA;+y8laJZrJq/mF01TUwpku9QvaNEgUVIjjb4I0XttiqrFb+SvMlqsf6NSa1nUm3mktWhV1HUxSFUI&#xA;6VFCDTcbYqp+Wvrmj67c+WJ5nurIW4vdJmlPKRIQ4jkgdu/psV4+xxVPNftGvNC1GzUVa5tZoQB1&#xA;rJGy/wAcVfKGKXYq7FXYq7FXYq7FXYq7FXYq7FXYq7FXYq7FXYq7FXYq7FXYq7FXYq7FXYq7FXpv&#xA;5FaQlxr17qbrUWEISKvaSckVH+wRh9OKHr/mG0jutJmilj9aENFLNDQsXjhlWR0Cj7XJUIp36Yqs&#xA;t/M3lye0W5g1C3eDovF15V6ceH2uXbjSuKqOl2lxdaxPrlzE0CtCLSwgccZBCH5vJIp3VpGpReyg&#xA;V3qAqnWKvlrzfpR0nzPqen0osM7+mP8Aitzzj/4RhilJ8VdirsVdirsVdirsVdirsVdirsVdirsV&#xA;dirsVdirsVdirsVdirsVdirsVdir3T8ibL0vLN5dkUa5uyoNOqxooH/DM2KHpOKqKWVmk7TpBGs7&#xA;V5SqihzXrVgK4qrYq7FXi357aCYdRstbjX93cp9WuCP9+R7oT/rJUf7HFXleKXYq7FXYq7FXYq7F&#xA;XYq7FXYq7FXYq7FXYq7FXYq7FXYq7FXYq7FXYq7FXYq+nPy90k6X5N0u1ccZTCJpQeoeYmUg/LlT&#xA;FDIcVdirsVdiqS+cfL0fmDy7eaY1BLIvK2c/szJ8SH79j7Yq+X5oZYJnhlUpLExSRG2KspoQfkcU&#xA;rMVdirsVdirsVdirsVdirsVdirsVdirsVdirsVdirsVdirsVdirsVdiqe+SdAbXvM9jp5XlA0gku&#xA;vaGP4n+8Dj8zih9QAACg2A6DFXYq7FXYq7FXYq8R/OnyebPUV8wWkf8Aot6Qt4FGyT02Y+0g/wCG&#xA;+eKvMMUuxV2KuxV2KuxV2KuxV2KuxV2KuxV2KuxV2KuxV2KuxV2KuxV2KuxV7j+SXlZrHSZdcuU4&#xA;3GofBbA9Rbqa1/2bb/IDFD0zFXYq7FXYq7FWC6v+bOkQX507RbOfXb5ahktASm3WjAOW/wBipHvi&#xA;qHvfPVve6dPYebPLeoaZp90nCWdo2lhUH9ouFQqVO4IU4q8T1zTE03UZLaK4S7tvt211EQUlib7L&#xA;CnQ9iOxqMUoDFXYq7FXYq7FXYq7FXYq7FXYq7FXYq7FXYq7FXYq7FXYq7FXYqnXlDQBrmuQ2ksgg&#xA;sowZr+4YhVjt493YsdhX7IPicVe0zfm35E08LaWjy3EFuoRfqsJ9NFX4QAXKbDpttihM/Lv5j+VN&#xA;fuBa2d0Y7tvsW06+m7f6p3Vj7A1xVk+KuxV2KvPfzp8xXOmeXYbG1cxy6m7RyOpofRjAMgH+sWUH&#xA;2riqb/lpoOl6X5TsJrSMevfwRXF1cU+N3kUNxJ8ErQD+OKouDzPNqc8seh2P161hYxy6hNIILUsN&#xA;mWNgsryU8VTj74qwT8wvywvr4fpPRtMt7e5UFrq2tpiRJtUlI2iiXl8jv4VxV48ysrFWBDA0IOxB&#xA;GKWsVdirsVdirsVdirsVdirsVdirsVdirsVdirsVdirsVdirsVek/ll5Ptryyl1S/wBPvNThLhY7&#xA;GH04oX4nZ3aaSBZaHsDQd/DFD1nTtc0SC5i0f6udJuZATb2U0Swq4HX0ilYn+StXFWC/nL5TsLfT&#xA;ofMWnRLaXtvMi3DwjhyV/sueNPjVwKH3+WKs08geYJde8qWN/Oa3XExXJ8ZIjxLf7IAN9OKshxV2&#xA;KvM/zp0S41NvLqxMEEl21l6jfZV7ooFLU7fuzirKrrSbzTfy/n0u0cy3drprwRSKCC0iwkVUV2JP&#xA;2cVXeQbvT7rydpL2BX0Y7eOJ0X9mVFAkVvflX59cVT/kvLjUcqV496eOKvK/zS/LA3Zm17RIq3e7&#xA;31mo/vPGSMfz/wAy9/n1VeMYpaxV2KuxV2KuxV2KuxV2KuxV2KuxV2KuxV2KuxV2KuxVn35X/l6/&#xA;mC9Go6jGRo1s26mo9eQfsD/JH7R+j5KHvscccUaxxqEjQBURQAoA2AAHTFWI/mwlt/gq7uJDwuLW&#xA;SGWylGzpMJVClD1rQnFUw8y6Bc+ZPKD6XLILa7uY4WaVlqEkRlkb4QR14kYqkn5MWstv5M+OlJbq&#xA;ZkYdCFIjqP8AZIcVZ3irsVS/XtFtdZ0yWwuSyq9GjlTZ45EPJJEP8ysK4qjLZJ0toknkEs6oqyyg&#xA;cQzAULcd6VO9MVYhceQr6w1GfUPKmqHSGujyurF4xNau38wU/Y+j6KDFVby75N1W28wS+Ydd1P8A&#xA;SOptD9XgWNPSijjrXYDr93j1OKstxV5b+Z/5XpepJrehQ0vh8V3ZRigm8ZEA/b7kftfPqq8VIIJB&#xA;FCNiDilrFXYq7FXYq7FXYq7FXYq7FXYq7FXYq7FXYq7FWVeQPI135p1Ti3KLS7cg3lyPD/faH+dv&#xA;w6/NQ+jLGxtLCzhs7SJYbaBQkUSigAGKsd8z6P5wbWLbV/Ll/EjRQ+hPpt2X+ryDkW50Wvxb0rsd&#xA;uuKoe28q+YtXv7W+833VvLDZOJbXSbJWFv6o6SSs/wATlew6fjVVlV9byXNlPbxzNbvMjRidPtJy&#xA;FOS/5Q7Yqt0zTbTTNPt9PtE4W1sgjiXvRR1J7k9ScVROKuxV2KuxV2KuxV2KuxV51+Yv5V2+tCTV&#xA;NHVYNW+1LDssdx/BX9+/fxxV4XcW89tPJb3EbRTxMUkicFWVhsQQcUqeKuxV2KuxV2KuxV2KuxV2&#xA;KuxV2KuxV2Ksh8m+S9U80aiLe2Ux2kZBu7xgSka/xY9l/hih9G6FoenaHpkOm6fH6dvCOp+07H7T&#xA;ue7HFUfirsVdirsVdirsVdirsVdirsVdirsVdirsVYd5+/LjT/M8BuIeNrrEa0iuafDIB0SWnUeB&#xA;6j8MVeBazomqaLfPY6lbtb3Cdm6MOzIw2ZT4jFKAxV2KuxV2KuxV2KuxV2KuxV2KuxVmPkP8uNT8&#xA;zzLcS8rXSEakt0R8T06rED1Pv0H4Yoe/6Po2m6Pp8Vhp0KwW0Q2UdSe7MerMe5OKo3FXYq7FXYq7&#xA;FXYq7FXYq7FXYq7FXYq7FXYq7FXYqlXmPyvo3mKxNnqcAkUVMUy7SRsf2kbt+o98VeDedfy21ry0&#xA;7TgG80on4LxB9mvQSrvxPv0/VirEMUuxV2KuxV2KuxV2KuxVciO7qiKWdiAqgVJJ6ADFXq3kP8nJ&#xA;ZjHqPmVDFCKNFpvR2/4zH9kf5PXxp0xQ9ihghghSGFFihjAWONAFVVHQADpiq/FXYq7FXYq7FXYq&#xA;7FXYq7FXYq7FXYq7FXYq7FXYq7FXYq06I6MjqGRgVZWFQQdiCDiry/zp+S9neepe+XCtpcmrNYMa&#xA;Quf+Kz+wfb7PyxV47qWmahpl29nqFu9tcx/aikFD8x4jwI2xShcVdirsVdirsVTzyt5O1zzLdmDT&#xA;of3SEevdSVWKOv8AM1Dv7DfFD3PyZ+WuheWlWen1zVKfFeSKPhPhEu/D9fvirLsVdirsVdirsVdi&#xA;rsVdirsVdirsVdirsVdirsVdirsVdirsVdirsVdiqWa/5a0XX7T6tqlss6ivpydJEJ7o43XFXjHm&#xA;/wDJzWtJ53WkFtTsBUlAP9IQe6D7fzX7sVeespUlWFCNiD1BxS1ireKvSvJP5OXupol9rxksbNt4&#xA;7VaCdx4tyB9MfMV+XXFDMpfIXmTQI/U8maxIsSVY6TekSQtU1IRiKLX5f7LFUz8pefY9Vu30fVrY&#xA;6X5hgr6lnJsslBUtET123p4bgkb4qy3FXYq7FXYq7FXYq7FXYq7FXYq7FXYq7FXYq7FXYq7FXYq7&#xA;FXYq7FXYq7FXYqwb8yfK/kebTJ9W1gfUrhBRby3oJpHP2U4fZlJ996dwMVfPjceR4kla7Eihp8t8&#xA;UvdPy2/K+z0u3g1jVkW41SRVkgiNGjgBFR7M/v27eOKGb6xrcWmooW3mvbuQExWdqnOVgP2j0CqO&#xA;7MafTiqW2Pm26eVF1XRbvSoZCqpdS+m8QZiFUSFGJSpIAqKYqhfzC8oDWtO+v2NYde04erYXMfwu&#xA;Sh5emSPH9nwP04qj/I/mM+YfLVpqTgLckGO6UdBLGeLbduX2h88VT7FXYq7FXYq7FXYq7FXYq7FX&#xA;Yq7FXYq7FXYq7FXYq7FXYq7FXYq7FXYqtlljijeWRgkcYLO7GgCgVJJxV82/mF50uPM+tNIrFdNt&#xA;iUsYTt8Nd5GH8z/2YqzHyn+TkF/5Vlu9TZodTvow9gKkCAfaRnUdS/7QPRffFXoH5d2V5Y+TtPsr&#xA;2ourb1o5VbcqVmf4fkB09sVRHl5jLqWuzy/70C9EG/VYYoIzEvy/eM/zY4qmWo2MV/YzWcppFOOL&#xA;060rvTFVeSRI42kkYJGgLOzGgAAqSTirEfyttTH5eubpVKW+o31zd2qNtSF2CJsegISuKswxV2Ku&#xA;xV2KuxV2KuxV2KuxV2KuxV2KuxV2KuxV2KuxV2KuxV2KuxV2KsB/OfzA+m+VhYwtxn1R/RJHX0VH&#xA;KX7/AIV+RxV5R+W3lxNe82WttMvO0grc3anoY4yPhPszlVPzxV9K4qlM16ll5it7VlPDV0kKMD8I&#xA;ntlBNR4vEf8AhMVVb/Trn1XvdMkjt9QcKshlUtFKqV4rIFKmoqaMNx7jbFUufXPN0XwN5aaeQDd7&#xA;e8t/TJ9jKYn+9cVQ0+leZvMQ9HWhHpWjn++062kM1xOP5JZgFVU8Qm56VxVlMUUUUSRRII4o1Cxo&#xA;ooqqooAAOgAxVdirsVdirsVdirsVdirsVdirsVdirsVdirsVdirsVdirsVdirsVdirsVeIfnzdO3&#xA;mHTrU/YitPVX5yysp/5NDFVf8gxF+lNWJH730IuJ/wAnmeX40xV7RirGvM0gPmTytbqf3z3c8o/1&#xA;I7WQP/xMYqyXFXYq7FXYq7FXYq7FXYq7FXYq7FXYq7FXYq7FXYq7FXYq7FXYq7FXYq7FXYq7FXYq&#xA;8U/PrT5V1jTdRofSmtzb17BonL/iJcVSr8ltTWz85rbuaLfwSQCv8wpKv/Jsj6cVe/u6Ro0kjBEQ&#xA;FndjQADckk4qwbyvPJ5n833fmYA/ofT42sNIJFPUYms0wHv0+R9sVZ1irsVdirsVdirsVdirsVdi&#xA;rsVdirsVdirsVdirsVdirsVdirsVdirsVdirsVdirsVSjzV5Y0/zJpEmm3tVBIeGZaFo5F6MtfnQ&#xA;+2KvL/MX5T3nlq0ttd0C6ku7vTSs9ykiqCTGeXqRqv7IpupJ274qjJ/Nt/8AmLc2fl3SlksLKSMT&#xA;a5PX4gqkB40I6pU7V+13AFcVep6dp1nptjBY2UYhtbdAkUY7AfrJ6k98VRGKuxV2KuxV2KuxV2Ku&#xA;xV2KuxV2KuxV2KuxV2KuxV2KuxV2KuxV2KuxV2KuxV2KuxV2KsP/ADR82Hy/5bcW7BdQvyYLXuVF&#xA;P3klP8lfxIxVhHlXRdc8j2Vj5rK/W9Mv4F/S9oin1YYpDzjlXx4ihb6R7hV7DZ3lte2sV3ayCa2n&#xA;USRSr0ZWFQcVVsVdirsVdirsVdirsVdirsVdirsVdirsVdirsVdirsVdirsVdirsVdirsVdirsVd&#xA;irsVeA/nXqkl15xNnU+np8Ecar25SD1WP0h1+7FXt+iyW93oNjIqq9vPaxEKd1KPGNiDXse+KsXg&#xA;trryRfymNXm8n3TFyqgu2nysalqbkwN3/l/4kqzWOSOSNZI2DxuAyOpBBBFQQR1BxVdirsVdirsV&#xA;dirsVdirsVdirsVdirsVdirsVdirsVdirsVdirsVdirsVdirsVdirsVef+dfyni8ya8uqR331P1I&#xA;wl0vp+oWZBRGX4l7bH5YqjvJEereXlTyxrJWRE5HSL9K+nKlSzQmv2ZErUKeo6fZxVmWKrIIIYIx&#xA;FBGsUYqVRAFUVNTQD3xVfirsVdirsVdirsVdirsVdirsVdirsVdir//Z</xmpGImg:image>
               </rdf:li>
            </rdf:Alt>
         </xmp:Thumbnails>
      </rdf:Description>
      <rdf:Description rdf:about=""
            xmlns:xmpMM="http://ns.adobe.com/xap/1.0/mm/"
            xmlns:stRef="http://ns.adobe.com/xap/1.0/sType/ResourceRef#"
            xmlns:stEvt="http://ns.adobe.com/xap/1.0/sType/ResourceEvent#">
         <xmpMM:InstanceID>xmp.iid:9FB6100F196FE41195E3D1493AEF96AB</xmpMM:InstanceID>
         <xmpMM:DocumentID>xmp.did:9FB6100F196FE41195E3D1493AEF96AB</xmpMM:DocumentID>
         <xmpMM:OriginalDocumentID>uuid:5D20892493BFDB11914A8590D31508C8</xmpMM:OriginalDocumentID>
         <xmpMM:RenditionClass>proof:pdf</xmpMM:RenditionClass>
         <xmpMM:DerivedFrom rdf:parseType="Resource">
            <stRef:instanceID>uuid:2304d5ad-13c6-af41-8646-360ef867abec</stRef:instanceID>
            <stRef:documentID>xmp.did:0980117407206811822A897E387FE54C</stRef:documentID>
            <stRef:originalDocumentID>uuid:5D20892493BFDB11914A8590D31508C8</stRef:originalDocumentID>
            <stRef:renditionClass>proof:pdf</stRef:renditionClass>
         </xmpMM:DerivedFrom>
         <xmpMM:History>
            <rdf:Seq>
               <rdf:li rdf:parseType="Resource">
                  <stEvt:action>saved</stEvt:action>
                  <stEvt:instanceID>xmp.iid:9FB6100F196FE41195E3D1493AEF96AB</stEvt:instanceID>
                  <stEvt:when>2014-11-18T22:56:30+08:00</stEvt:when>
                  <stEvt:softwareAgent>Adobe Illustrator CS6 (Windows)</stEvt:softwareAgent>
                  <stEvt:changed>/</stEvt:changed>
               </rdf:li>
            </rdf:Seq>
         </xmpMM:History>
      </rdf:Description>
      <rdf:Description rdf:about=""
            xmlns:illustrator="http://ns.adobe.com/illustrator/1.0/">
         <illustrator:StartupProfile>Print</illustrator:StartupProfile>
      </rdf:Description>
      <rdf:Description rdf:about=""
            xmlns:xmpTPg="http://ns.adobe.com/xap/1.0/t/pg/"
            xmlns:stDim="http://ns.adobe.com/xap/1.0/sType/Dimensions#"
            xmlns:xmpG="http://ns.adobe.com/xap/1.0/g/">
         <xmpTPg:HasVisibleOverprint>False</xmpTPg:HasVisibleOverprint>
         <xmpTPg:HasVisibleTransparency>False</xmpTPg:HasVisibleTransparency>
         <xmpTPg:NPages>1</xmpTPg:NPages>
         <xmpTPg:MaxPageSize rdf:parseType="Resource">
            <stDim:w>260.000000</stDim:w>
            <stDim:h>400.000000</stDim:h>
            <stDim:unit>Pixels</stDim:unit>
         </xmpTPg:MaxPageSize>
         <xmpTPg:PlateNames>
            <rdf:Seq>
               <rdf:li>Cyan</rdf:li>
               <rdf:li>Magenta</rdf:li>
               <rdf:li>Yellow</rdf:li>
               <rdf:li>Black</rdf:li>
            </rdf:Seq>
         </xmpTPg:PlateNames>
         <xmpTPg:SwatchGroups>
            <rdf:Seq>
               <rdf:li rdf:parseType="Resource">
                  <xmpG:groupName>默认色板组</xmpG:groupName>
                  <xmpG:groupType>0</xmpG:groupType>
               </rdf:li>
            </rdf:Seq>
         </xmpTPg:SwatchGroups>
      </rdf:Description>
      <rdf:Description rdf:about=""
            xmlns:pdf="http://ns.adobe.com/pdf/1.3/">
         <pdf:Producer>Adobe PDF library 10.01</pdf:Producer>
      </rdf:Description>
   </rdf:RDF>
</x:xmpmeta>
                                                                                                    
                                                                                                    
                                                                                                    
                                                                                                    
                                                                                                    
                                                                                                    
                                                                                                    
                                                                                                    
                                                                                                    
                                                                                                    
                                                                                                    
                                                                                                    
                                                                                                    
                                                                                                    
                                                                                                    
                                                                                                    
                                                                                                    
                                                                                                    
                                                                                                    
                                                                                                    
                           
<?xpacket end="w"?>
	</metadata>
<g>
	<g>
		<path fill="#727171" d="M206.132,110.097c2.089-11.602-7.928-14.444-5.036-26.819c-2.438,0.764-4.507,2.031-6.158,3.123
			c-1.692,1.112-3.386,3.355-4.304,5.114l-0.291,0.503c-1.081,2.146-1.169,5.627-1.071,7.985c0.174,4.409,2.039,4.621,2.504,7.126
			c-3.172-0.697-6.015-2.311-9.805-3.036c-14.027-2.736-28.385,1.412-39.647,9.185l-6.884,5.733
			c-1.178,1.257-1.816,2.417-2.979,3.558c-5.858,5.733-6.032,7.715-8.352,10.394c-6.275-9.629-14.454-17.451-24.856-22.759
			c-1.73-0.879-3.761-1.914-5.221-2.919c-4.698-3.239-1.982-2.543-1.876-3.413c-3.064-3.819-4.862-4.698-6.912-10.635
			c1.865,0.435,7.976,4.602,11.755,5.772c12.917,3.974,11.863-12.54-2.997-14.164c-2.939-0.329-5.385,0-7.474,1.547
			c-0.879,0.638-1.479,1.131-2.137,2.359c-0.831,1.557-0.977,1.625-2.397,2.311c2.069,0.745,1.267,1.286,1.653,3.78
			c0.358,2.263,3.452,9.185,4.786,10.171c-3.238,0.271-10.954-2.359-16.455-2.166c-5.54,0.193-11.427,1.431-17.15,1.508l0.686-2.224
			c-6.39-1.315-28.8,13.109-33.509,24.382c-0.667-0.658-3.964-7.386-11.234-3.422c-3.887,2.117-5.385,9.339,0.106,10.044
			c0.02-3.432-2.378-4.379-1.489-7.299c1.421-4.679,9.639-3.441,11.379,0.174c1.044,2.185-0.947,4.235-1.798,6.091
			c-10.925,23.89-0.493,51.975,13.709,71.967c0.987,1.393,2.804,3.685,3.375,5.25c-3.693-1.575-12.056-8.701-20.883,0.059
			c-6.661,6.604-2.629,19.404,1.431,20.604c-0.493-1.838-1.711-2.854-2.05-4.979c-0.802-5.037,1.818-1.024,2.224-4.785
			c0.609-5.666-2.155-6.517,2.755-10.558c5.908-4.883,16.165-0.02,18.572,4.021c-18.378-3.229-18.61,13.245-8.16,16.34
			c2.378,0.705,6.217,0.732,7.531-1.645c0.958-1.723,0.628-1.547,0.087-2.766c-2.563-0.232-1.286,1.76-3.597,2.591
			c-1.808,0.657-3.78,0.039-5.085-0.773c-1.963-1.237-4.873-4.254-4.002-7.928c1.401-5.976,12.433-7.879,16.155-3.017
			c3.644,4.768,8.13,8.565,12.355,12.529c1.199,1.131,1.953,2.203,3.142,3.364l16.475,14.481
			c15.961,12.375,26.973,19.123,44.781,29.371c2.621,1.519,5.356,2.806,7.841,4.332c-16.058,13.157-18.214,35.5-9.224,41.571
			c2.543-1.235,2.321-2.629,6.594,2.263c2.988,3.424,1.315,2.834-0.686,6.787c-2.312,4.524-6.546,13.438-0.91,16.744
			c1.364-0.638,1.016-1.122,2.62-0.945c0.793,0.097,2.233,0.965,2.746,1.353c1.287,0.967,3.007,2.871,4.497,3.249
			c-0.909-0.813-2.196-2.959-3.172-4.178c-4.002-5.026-4.195-13.883-0.686-17.537c5.375,4.332,9.331,11.871,16.145,14.425
			c-1.449-1.16-3.412-3.276-4.775-4.718l-8.798-10.364c-3.325-4.166,5.279-8.585,8.44-17.363c1.122-3.112,2.067-12.364-1.257-15.083
			c0.251,3.249,1.439,4.768,0.977,8.982c-0.744,6.641-4.68,11.234-8.904,15.652c-0.938,0.985-1.218,1.701-2.233,2.707
			c-4.099-2.263-6.883-14.222-6.226-20.845c0.571-5.714,6.537-15.739,9.582-17.034c1.585,1.527,2.503,3.285,3.8,5.008
			c0.396,0.513,0.299,0.387,0.607,0.619c-0.223-4.14,1.383-6.518-2.06-8.024c1.519-3.269,9.929-9.204,13.321-11.642
			c3.819-2.744,4.651-2.242,8.963-0.153c3.113,1.499,5.289,3.045,7.214,4.997c3.635,3.685,8.159,10.877,2.978,16.755
			c-1.877,2.128-4.419,3.597-8.422,3.944c-5.395,0.475-6.371-0.871-10.111-2.271c0.317,0.493,0.01,0.126,0.561,0.668
			c0.087,0.076,0.521,0.443,0.656,0.551c1.441,1.055,3.057,1.674,4.863,2.088c2.707,0.629,5.491,0.416,7.967-0.502
			c4.177-1.548,7.918-5.183,8.701-10.084c1.461-9.068-9.783-18.504-17.691-19.402c1.334-1.926,6.835-5.096,8.672-6.275
			c9.406-5.975,24.634-17.827,32.068-25.766l10.094-11.504c0.947-1.035,2.156-2.477,3.171-3.741c4.38-5.474,4.649-3.944,7.599-6.787
			l-2.765,0.638c1.576-3.363,7.842-7.328,13.737-6.477c6.816,0.984,7.271,5.779,7.396,12.684c2.126,0.348,2.727,0.579,2.358,3.385
			c-0.261,1.943-1.218,2.899-1.576,4.621c3.065-1.363,4.052-6.787,4.012-9.795c-0.104-8.4-5.181-14.55-14.144-13.467
			c-5.085,0.609-6.313,2.658-9.734,4.293c1.672-4.893,11.417-17.326,15.092-35.163c1.672-8.112,1.652-18.979,9.869-23.126
			c11.545-5.82,21.252,4.748,14.541,11.669c-4.08,4.235-7.174,3.355-11.068,0.464c2.252,8.566,21.346-1.933,11.891-11.921
			c-2.969-3.142-8.382-4.495-13.747-2.678c-5.356,1.799-5.819,4.747-9.677,7.377c-0.543-4.737-0.532-7.551-1.896-11.959
			c-0.521-1.663-1.229-3.635-1.373-5.414c-0.416-5.27-1.324-12.453-4.572-16.359c-2.32-2.804-5.152-4.215-6.682-7.26
			c3.598-2.031,6.053-3.007,10.906-1.692l-2.688-5.24c-1.094-1.256-3.056-2.552-5.201-2.919
			C208.723,104.78,208.578,109.71,206.132,110.097L206.132,110.097z M137.16,296.766L137.16,296.766l-2.396-4.91L136.01,294
			C136.783,295.509,137.016,295.471,137.16,296.766L137.16,296.766z M16.727,230.134L16.727,230.134l-0.126-0.153
			C17.21,229.303,16.911,230.348,16.727,230.134L16.727,230.134z M80.69,90.007L80.69,90.007l11.795,14.599l-0.126-0.087
			c0.039-0.029,0.126,0.029,0.126,0.087L80.69,90.007L80.69,90.007z M241.023,164.431L241.023,164.431l-0.765-1.663
			c-1.519-6.168,6.884-8.672,7.521-3.877c-0.338-1.015-0.695-1.575-1.934-1.798c-1.935-0.357-1.904,0.493-2.938,1.344
			C240.704,160.273,239.775,160.37,241.023,164.431L241.023,164.431z M232.177,229.458L232.177,229.458
			c0.531-0.755,0.28,0.444,0.146,0.231C232.313,229.67,231.568,230.337,232.177,229.458L232.177,229.458z M213.219,214.561
			L213.219,214.561c16.735-1.238,14.764,13.912,5.239,16.405c-4.901,1.295-8.565-2.92-5.733-4.352
			c1.383,0.483,1.664,3.413,6.149,2.312c4.583-1.132,7.019-8.537,2.078-12.269C218.158,214.529,215.51,215.721,213.219,214.561
			L213.219,214.561z M156.873,288.093L156.873,288.093c0.271-2.793,0.367-4.959-2.262-5.346c-1.663-0.252-6.188-0.117-7.639,0.599
			c-1.654,0.813-2.668,3.135-2.852,5.704c-0.098,1.402,0.087,2.708,0.607,3.829c0.291,0.6,0.406,0.706,0.813,1.219l1.103,1.362
			c-0.93-0.377-0.066,0.106-0.813-0.415c-3.896-2.804-3.673-8.876,1.383-12.703C152.475,278.357,160.412,283.279,156.873,288.093
			L156.873,288.093z M213.421,121.505L213.421,121.505c-2.165-2.417-3.635-2.987-4.544-4.332
			C210.656,117.677,214.154,120.48,213.421,121.505L213.421,121.505z M85.205,92.076L85.205,92.076
			c-0.097-4.756,4.061-6.864,8.73-5.888c10.886,2.272,11.92,9.311,8.121,11.263C97.821,99.636,88.744,93.98,85.205,92.076z"/>
		<path fill="#727171" d="M47.771,95.334c3.693-2.919,7.271-7.937,14.096-9.155c5.202-0.929,6.555,2.281,9.494,1.759
			c0.502-0.097,5.085-2.185,8.72,1.827l0.648-0.222c0.01-0.039-5.559-3.442-8.082-4.08c-7.677-1.943-18.021,0.861-22.681,6.342
			C48.718,93.265,48.699,93.758,47.771,95.334z"/>
	</g>
	<path fill="#727171" d="M85.205,92.076c3.539,1.904,12.617,7.561,16.852,5.375c3.799-1.953,2.765-8.991-8.121-11.263
		C89.266,85.212,85.108,87.319,85.205,92.076z"/>
	<path fill="#727171" d="M213.421,121.505c0.733-1.025-2.765-3.829-4.544-4.332C209.786,118.518,211.256,119.088,213.421,121.505z"
		/>
</g>
</svg>
