<?xml version="1.0" encoding="utf-8"?>
<!-- Generator: Adobe Illustrator 16.0.0, SVG Export Plug-In . SVG Version: 6.00 Build 0)  -->
<!DOCTYPE svg PUBLIC "-//W3C//DTD SVG 1.1//EN" "http://www.w3.org/Graphics/SVG/1.1/DTD/svg11.dtd">
<svg version="1.1" id="图层_1" xmlns="http://www.w3.org/2000/svg" xmlns:xlink="http://www.w3.org/1999/xlink" x="0px" y="0px"
	 width="260px" height="400px" viewBox="0 0 260 400" enable-background="new 0 0 260 400" xml:space="preserve">
<metadata><?xpacket begin="﻿" id="W5M0MpCehiHzreSzNTczkc9d"?>
<x:xmpmeta xmlns:x="adobe:ns:meta/" x:xmptk="Adobe XMP Core 5.3-c011 66.145661, 2012/02/06-14:56:27        ">
   <rdf:RDF xmlns:rdf="http://www.w3.org/1999/02/22-rdf-syntax-ns#">
      <rdf:Description rdf:about=""
            xmlns:dc="http://purl.org/dc/elements/1.1/">
         <dc:format>image/svg+xml</dc:format>
         <dc:title>
            <rdf:Alt>
               <rdf:li xml:lang="x-default">打印</rdf:li>
            </rdf:Alt>
         </dc:title>
      </rdf:Description>
      <rdf:Description rdf:about=""
            xmlns:xmp="http://ns.adobe.com/xap/1.0/"
            xmlns:xmpGImg="http://ns.adobe.com/xap/1.0/g/img/">
         <xmp:MetadataDate>2014-11-18T23:06:22+08:00</xmp:MetadataDate>
         <xmp:ModifyDate>2014-11-18T23:06:22+08:00</xmp:ModifyDate>
         <xmp:CreateDate>2014-11-18T23:06:22+08:00</xmp:CreateDate>
         <xmp:CreatorTool>Adobe Illustrator CS6 (Windows)</xmp:CreatorTool>
         <xmp:Thumbnails>
            <rdf:Alt>
               <rdf:li rdf:parseType="Resource">
                  <xmpGImg:width>256</xmpGImg:width>
                  <xmpGImg:height>196</xmpGImg:height>
                  <xmpGImg:format>JPEG</xmpGImg:format>
                  <xmpGImg:image>/9j/4AAQSkZJRgABAgEASABIAAD/7QAsUGhvdG9zaG9wIDMuMAA4QklNA+0AAAAAABAASAAAAAEA&#xA;AQBIAAAAAQAB/+4ADkFkb2JlAGTAAAAAAf/bAIQABgQEBAUEBgUFBgkGBQYJCwgGBggLDAoKCwoK&#xA;DBAMDAwMDAwQDA4PEA8ODBMTFBQTExwbGxscHx8fHx8fHx8fHwEHBwcNDA0YEBAYGhURFRofHx8f&#xA;Hx8fHx8fHx8fHx8fHx8fHx8fHx8fHx8fHx8fHx8fHx8fHx8fHx8fHx8fHx8f/8AAEQgAxAEAAwER&#xA;AAIRAQMRAf/EAaIAAAAHAQEBAQEAAAAAAAAAAAQFAwIGAQAHCAkKCwEAAgIDAQEBAQEAAAAAAAAA&#xA;AQACAwQFBgcICQoLEAACAQMDAgQCBgcDBAIGAnMBAgMRBAAFIRIxQVEGE2EicYEUMpGhBxWxQiPB&#xA;UtHhMxZi8CRygvElQzRTkqKyY3PCNUQnk6OzNhdUZHTD0uIIJoMJChgZhJRFRqS0VtNVKBry4/PE&#xA;1OT0ZXWFlaW1xdXl9WZ2hpamtsbW5vY3R1dnd4eXp7fH1+f3OEhYaHiImKi4yNjo+Ck5SVlpeYmZ&#xA;qbnJ2en5KjpKWmp6ipqqusra6voRAAICAQIDBQUEBQYECAMDbQEAAhEDBCESMUEFURNhIgZxgZEy&#xA;obHwFMHR4SNCFVJicvEzJDRDghaSUyWiY7LCB3PSNeJEgxdUkwgJChgZJjZFGidkdFU38qOzwygp&#xA;0+PzhJSktMTU5PRldYWVpbXF1eX1RlZmdoaWprbG1ub2R1dnd4eXp7fH1+f3OEhYaHiImKi4yNjo&#xA;+DlJWWl5iZmpucnZ6fkqOkpaanqKmqq6ytrq+v/aAAwDAQACEQMRAD8A9U4q7FXYq7FXYqkWivPZ&#xA;azqWk3BJjlka/wBOc/tRTNWZB7xzEn5MuKp7irsVdirsVdirsVdirsVdirsVdirsVdirsVdirsVd&#xA;irsVdirsVdirsVdirsVdirsVdirsVdirsVSm282eXLrWZdFgvo31OCoktxUGq/aUMRxZl7gGoxVN&#xA;SqlgxALL9k9xXwxVvFXYq7FXYq7FXYq7FXYq7FXYq7FXYq7FXYq7FXYq7FXYq7FXYq7FXYq7FXYq&#xA;7FXYq7FXYq7FXYq+cvzB0XUvLXnOe6iZo1uJmvdPuV2+0/MgH+aNjT7j3xV7Z5E81xeZvL8N7st3&#xA;H+6vYh+zKo3IH8rfaH3dsVZDirsVdirsVdirsVdirsVdirsVdirsVdirsVdirsVdirsVdirsVdir&#xA;sVdirsVdirsVdirsVdirsVSLzn5VtPMuhzWEwCzgF7OcjeOUD4T8j0b2xV4b5F813fk7zHIl2rC0&#xA;dzb6nb/tKUYjkB/NG1fxGKvoFLqDV9IebS7wcLqJhb3kVG4MykBwD3U9jiqIs/rX1SH63xF1wX1+&#xA;BqnqU+LjUDavTFVbFXYq7FXYq7FXYq7FXYq7FXYq7FXYq7FXYq7FXYq7FXYq7FXYq7FXYq7FXYq7&#xA;FXYq7FXYq7FXzp+afl3UdM81313NC31K/lae2uKVRi/xMtR+0prtiqZfkv5mmsPMQ0iWT/QdSBCo&#xA;x+FZ1FUYe7AcffbwxV7zirsVdirsVdirsVdirsVdirsVdirsVdirsVdirsVdirsVdirsVdirsVdi&#xA;rsVdirsVdirsVdirsVUL6xs7+1ktLyFLi2lHGSKQBlI+nFXzh5z8v3PlHzW0Vq7JGjLdabP+0E5V&#xA;XfxRhx+jFXu/knzZa+ZtDjvo6Jcp+7vIB+xKBvT/ACW6riqrptjqln5j1Mli+j3ix3FuCwPpXG6z&#xA;Io6gPs/hWvviqdYq7FXYqk/mnzVpflrTlvtR5mN5FiSOIBnZmqdgSo2AJ64qmtvPDcQR3EDiSGZV&#xA;kikXoysKqR8wcVX4q7FXYq7FXYq7FXYq7FXYq7FXYq7FXYq7FXYq7FXYq7FXYq7FXYq7FXYq7FWK&#xA;fmH5Gi81aWiRusOpWpLWkzfZPL7Ub0/Zag37HFWHfktbXek69rujagpt71UiZrdup9NmBYeI/eDc&#xA;da4q9cxVpgSpAPEkUDdaHx3xVIPI2uz6voSPeSK+p2kklrqAUAUlicrUqKU5LRumKsgxV5j+fULH&#xA;QNNmH2Euyh+bxsR/xA4qzXyZDJD5R0aOT7a2UFQe1YwafR0xVOcVdiqSeY/Mi6Vc6VZRKJb3VbuK&#xA;COI9oea+vJt/Ih+8jFU7xV2KuxV2KuxV2KuxV2KuxV2KuxV2KrJ7iC3hee4kWGGMcpJZGCqo8Sxo&#xA;BirzPzX+brPK2meT4Wv701DXixmRVpt+6joS59yOPzxVkX5byecpdImm80FxPJLW1SVUSQR8RXkq&#xA;hafF05b4qy3FXYq7FXYq7FXYq7FWCfmbpN7bJbebtH+DVdH3moKiS2P21cdwtTX/ACScVZL5V8yW&#xA;XmLRYNTtfhEnwzRE1Mcq/bQ/Lt4ihxVNsVeU3sU2i3fndrUtDfQ3Fnq8MqEgyQtIZJF2pVRydT88&#xA;VepW1xDc28VxCweGZFkicdCriqn6QcVef/njc2qeUobeRv3810hgTueCtyPyAb8cVZ5p3D9H23p0&#xA;4eknCnSnEUxVEYq7FXn2gg+ZPzH1DXT8Wm6GpsLBuzTEESMPGnJvoK4q9BxV2KuxV2KuxV2KuxV2&#xA;KuxV2KpNr3nDy3oSk6nfRwyUqIAecp+Ua1b6emKsDu/zh1bVrk2PlHRpLiY9JpgWIH83poaKPdnx&#xA;VEWn5a+ZdfdLvztq0si15LptuwCr8yo9NfD4F/2WKs+0fQdH0a1FtplpHaxftBB8TEd3Y1Zj7k4q&#xA;j8VdirsVSXUvNFtYa/p+jPa3EsuoAss0Sco46Gg5nw618MVTrFXYq7FXYqtlijljeKRQ8cgKujCo&#xA;KkUIIxV5P5Ku4vJXnbU/K+oSelYXzrJp0zmiVNfTqT/Op4k/zLTFXrWKpTrXl6z1FLuQrS6uLGaw&#xA;L1oDHNuA3+qwqvhU4q89/J/z0Aq+VtUbhPESunyP3ANTCa9x+z93hiqT/nzdF/MOn23KohtPU49g&#xA;ZJGB+8IMVenfl3fm+8k6POTUi3EJJ6kwExf8aYqr+a/N+j+WbD61fyVleot7VKepKw/lHgO7dBir&#xA;Abb82dW8y2smi6Tppt9dvXMVvKr8oooWHxys1FYMg9vf2xV6L5Z8v2fl/RbfS7X4lhFZJSKGSRt3&#xA;c/M/htiqaYqltnoVtb6rdaq8ss97cjgGlclYoqg+lEn2VWqgnuTiqZYq7FXYq7FXYq7FUh8zed/L&#xA;vl2Fm1C5BuKVSzio8zeHw1+H5tQYq8o1P8yPPPmy7On+X7eS1ifpFaVaYr4yTbcR7jiMVTryx+SA&#xA;YreeZrgySMeTWULd/wDiyXqffj/wWKvT9L0fS9KtRa6dax2sA/YjWlT4serH3OKozFXYq7FXYq7F&#xA;XYq7FXYq7FXYq7FXnf5y+Un1XRk1a0j53umgmVVHxNbndvnwPxfKuKpN+V/5owJBFoWvz8Cnw2V/&#xA;Ifh49o5WJ2p+y3Smx91XrnNOHqchwpy512p1rXFXy95tubH/ABbqVzpEh+rG6eW3lQ0+LlyLIR25&#xA;14+2KUDq+salrF899qU7XF04CtIwA2UUAAUADFU80H8xvMuhaS+nafMFVto5JAZPSWrNSJG+AEs7&#xA;FiVNdvDFCQajqeoaldtd39xJdXL/AGpZWLGg6AV6AeAxS9I/KPzh5P0aGS0v0+p6lcPRtRf4o2T9&#xA;lC3+6wPu7k4oT/8AM/8AMiG1s/0NoNyJtRuvhmuLdufpRt+yrL/ux/boPemKsl8heT08u6RCtwxm&#xA;1SSMC5lZiwQHf0o6miqvt16+GKsnxV2KuxV2KpdrXmPQ9Eg9bVLyO1Q/ZVjV2p/Ki1ZvoGKsOX80&#xA;r7WJ3tvKOhz6k67PdTkQwr4E79/8plOKun8tfmlrS01PXoNJgfrb2CsWAPYt8Df8lDirel/kn5Wt&#xA;5PW1CW41KYmriR/TjJ8aJR/vfFWcafpmnadbi2sLaO1gG/pxKEFfE06n3xVE4q7FXYq7FXYq7FXY&#xA;q7FXYqpXl1FaWk91LX0reNpZOIqeKKWNB8hirGPLv5oeUdcnW2guGtbpzSOC7URsx8FYFkJ9uVcV&#xA;ZZirsVUIb6ynuLi2imSS4tSq3MKkFkLryXkO1Rir5W1mBbfWL6BAAsNxLGoXpRXIFMUrRq+rCz+p&#xA;C9nFketr6r+l/wABXj+GKoTFXYq7FXYq7FWVfljpK6n5102J15RQObmUHcUhHNa/NwoxQ+k8Vdir&#xA;TMqqWYhVUVJOwAGKsZ1j8yvJulkxyagtzcdre1HruT4VT4AfmwxVKZtZ/MXzGvDRNPGgWD9b+/p6&#xA;5U90io3Hb2PzxVTtPyb0Z/UuNcvbnV9QlUhp5XZVDEGjABuZp7virNdI0y20vTbewt0RI4EVT6ae&#xA;mrMB8Tcan7R36nFUZirsVdirsVdirsVdirsVdirsVdirsVcyhgVYVU7EHoRirzHzb+SmmXiyXWgP&#xA;9SujVvqjkmBj4Kd2T8R7DFUm8q/mXrflm8/QPm6KVoYTwWdwTPEO1f8AfieB6+FemKpx5j/PDR4b&#xA;V4tBikurthRJ5l9OFK96H42I8KD54q8gi13WYdSk1OG9miv5mZpbmNyjsXNWqVp18MUoFmLEsxqT&#xA;uSepOKtYq7FXYq7FXYq7FXsX5D6Fxjv9dk6v/odv40FJJD9J44oel67qy6TYC9dOUKywpOxIUJHJ&#xA;IqNISeyBuRxVhHmL847CKYaf5Zt21fUHPBHCt6XL/JUfHIflQe+Kpbb+QPPfmuRbrzdqb2lmx5DT&#xA;4yOVPDgv7pPmeR8cVZ55e8keWdAVTp1kgnA3upP3kx8fjbpXwWgxVPcVdirsVdirsVdirsVdirsV&#xA;dirsVdirsVdirsVdirsVYz588lWXmfSXiZVTUYFLWNz0Kv14Mf5G6H78VfNTo8bsjgq6EqynqCNi&#xA;MUrcVdirsVdirsVdirsVdiqe+U7zzhDeNH5aa5+sSAerHbgupA6F1oV28WxVm1r+Wf5g+YruOXzP&#xA;fPBbDdhLKJpAPCONCUWvzFMUPUPLfk7QPLtv6em2wWUikt0/xTP/AKzn9QoMVTrFXYq7FXYq7FXY&#xA;q7FXYq7FXYq7FXYq7FUr8v3HmG4tZZNctYbKcysIIIX9SkVBx5tUgt16YqmmKuxV2KuxV2KuxV80&#xA;ed/KfmDRNQa61aONRqEsskUkTh1LcuTCmxH2h1GKsZxS7FXYq7FXYq7FXYq7FXpn5Y/mNpHl+wfT&#xA;9SHpwlmcSRQ1csSKFnVqsKVG67eJ7KHs2l6tpuq2aXunXCXNtJ9mRD38CDuD7HFUXirsVdirsVdi&#xA;rsVdirsVdirsVdirsVdirsVdirsVdirsVdirsVQ1/qenafAZ765itYV3LyuEH0VO+Kvn38zfOyeZ&#xA;9ZT6pUaZZBkteWxcsRzkIPTlQADwGKsNxS7FXYq7FXYq7FXYq7FXYqjdN1nV9Mdn069ns2cUcwSN&#xA;HyH+VxIrirOfKvmXygDa3Pma41Qatbt6jTvNLLDL8XJSVBL/ADFKHFD1/RPOHlnXHMel6hFcSgV9&#xA;H4kkoOp4OFan0YqnGKuxV2KuxV2KuxV2KuxV2KuxV2KuxV2KuxV2KuxV57+cHmfzFoun2iaTzgiu&#xA;GYXN8i14UpxjDEHiWqTXrttirxSfX9euWJn1G6mZtiXmkYmvzOKU80T8tPOeu0mS0NvC9D9ZvCYg&#xA;R2IBBkYe4XFCOv8A8qL22Vki1rTJ7xTxaz+sCOQt/KvOgr86YqwmeCa3nkgmQxzRMUljbYqymjA/&#xA;I4pU8VdirsVdirsVdirsVdirI/y/0bTtX80WtpqF2LSDd1aoVnkX7EaFgy8i2+/WlOuKH0bquiaR&#xA;q9ubfUrSK6i7CRQSPdW+0p9wcVYvpn5SeVtM1qDVrKS7iltn9SKD1VMYPgaoXI/2WKs1xV2KuxV2&#xA;KuxV2KuxV2KuxV2KuxVKdd82eXdCaJdWvktXm/u0IZ2IrSvFAxA9ztiqbYq7FXYq7FVs0MU0TRTI&#xA;skTijxuAykeBB2OKoG08ueXrOYTWel2ltMOkkMESN96qDiqYYqhF0jSUmE62Vusw6SiJAw3r9qlc&#xA;VfOX5jzafN531aXT3WS2eVSHQ1Uv6a+qQe/7zlirGsUuxV2KuxV2KuxV2KuxVF6Tc2trqdrc3cJu&#xA;LaGVJJYA3AuqmpHLtir6i0HXtM13TItR06X1LeTYg7MjDqjjsw/z2xQmGKuxV2KuxV2KuxV2KuxV&#xA;2KuxV2KuxVh+t/lrpms+aYdevbmVxF6f+hUUxkRbha9eJO5GKswxV2KuxV2KuxV2KuxVKPNulWeq&#xA;eXr2zvLl7S2aPnLcxmhQJ8dT4rtuPDFXy24VXYKeSgkBulR44pW4q7FXYq7FXYq7FXYq7FV/pS+n&#xA;6nBvT6c6Gn34qyz8v/zCuPKc08ZthdWV2yNNHyKupSo5Id13Dbgjeg6Yoe8eXPNWieYrP61pk4kC&#xA;/wB7C3wyxnwdO3z6HtiqbYq7FXYq7FXYq7FXYq7FXYq7FXYq7FXYq7FVDUL63sLG4vrluNvaxtNK&#xA;w3PFAWNB47Yq8D1f84/ON3ftNY3C2FqG/c2yRxvRe3NnVix8e2KvXPy983t5o0AXk0YivIJDBdKv&#xA;2C4AbktezBumKsnxV2KpF551tNF8q6jelqSekYrcdzLL8CU+RNfkMVfL+KXYq7FVazs7u9uUtrSF&#xA;7i4kNI4o1LMT7AYq9E0T8jdfu4ll1O6i05W39ID1pR/rAFUH/BHFCY6l+Qk6Wrvp2qia5UVWGaL0&#xA;1b25qzU+7FXld7ZXdjdy2l3E0FzAxSWJxQqRil1lZ3N7dw2dqhlubh1ihjHVmY0A3xV7p5I/KbTd&#xA;M02ca9DBf3t4AHQrySFBvxRjQ8q9WH0e6hnNjpmn2FhHYWcCQ2cS8UgUfCAdz1rWtd64qxvX/wAr&#xA;vJ2sBnazFlct/wAfFpSI190A9M/StcVefXn5T+dfLt6NR8t3gumi3RoiIZwO4ZHPBh7cjXwxVMLD&#xA;87tRsOVl5h0hvrsPwyNGTC1R/PE42PyP0YqmNh+e+gzXQjvLCe1gY09cFZae7KKGnyrir0ezvLW9&#xA;to7q0lWe2mHKKWMhlYexGKq2KuxV2KuxV2KuxV2KuxV2KofUY76SxnSwlSG8KH6vLIvNFftyXwxV&#xA;B+XT5k+oFfMAtvrquQr2hco6UFGIcChrXFVTzDpI1jQ77TC/p/W4WjWTrxYj4TT2OKvn6f8AKzz1&#xA;FeG1GmNKQ3FZo3QxMOxDkgAfOmKvbfy+8qN5Z8ux2EzrJdyu090y/Z9RwBxX2VVAxVkmKuxV5D+f&#xA;N7dvLpGlxgmGTnMUG/OSoRPuBP34qu178t/LWg/l1PdXkXLWY4kZrou1RO7KOCqDxKgmnT3xVgXl&#xA;r8vvM3mK3kurCBVtUqBcTNwR2X9lNiWPyFPfFUs0PQ7/AFrV4NKs1/0mduPxVAQDdmbwCgVOKX0Z&#xA;5P8AJOj+V7L0rRPUu5APrN64HqSHwH8q+Cj8TvihkGKuxViHn78u9P8ANFt60fG21iJaQXVNmA/Y&#xA;lA6r4HqPwxV495Ph/wAPfmHYQ65E1u1tOY5VbYK7oUjevQryYNXw3xV9IYq7FXYq7FWK+fPIGn+a&#xA;bKvw2+qQj/Rryn/CSU3KH8O3cFV8/wCu+XNZ0K7Nrqlq9u+/Bjujgd0cbMMUsh/Lv8xLnyxdG2uQ&#xA;1xo85rLCD8UbH/dkYPt1Xvih7/peqafqljFfafOtxazCsci/cQQdwR3BxVFYq7FXYq7FXYq7FXYq&#xA;7FXYq7FXYq7FXYq7FXYqhb3StNvZraa7to55bN/VtXdQxjf+ZSenTFXmHnS6uvOnne28oWTkaZYP&#xA;6mpSr/Mv94f9gDwX/KOKvU7OztrK0htLWMRW8CCOKNeiqooBirzH8p9Jtz5t80aiQOdtcPbwD+US&#xA;SuzH/kmBir1TFXYq7FXYqwL82fJUWtaM+p2sf+5XT0Lggbywru6GnUgfEv3d8VR/kfzLf6x5U0m7&#xA;giFzOsotNULPxZBGpDSiv2m+w1PfFWXYq7FXYq7FUNqOmafqdq9pf26XNu/2o5AGHzHgfcYq8u8x&#xA;fkTHJKZtAvRCrH/eW75FV/1ZVDNT2Kn54qzvyL5ak8t+XLfTJpVmuFZ5J3SvDm7VotQDQCgxVP8A&#xA;FXYq7FXYq7FXYq7FXYq7FXYq7FXYq7FXYq7FWG/mj5xuPLehoLIf7kL9mit5CKiMAVd/9YVHH3+W&#xA;KqX5V+UZdE0Vr2+U/pbUyJrgvu6J1RCTvXfk3ufbFWbO6ojO54ooJZj0AG5OKvEfyl82RQ+cdQtp&#xA;24w647PEzf7+V2dB/sg7D50xV7firsVdirsVcQCKHcHqMVeNeT9XufKf5iX3ld0/3GX12Uij7xl9&#xA;4HX/AFkZQ39mKvZcVdirsVdirsVdirsVdirsVdirsVdirsVdirsVdirsVdirsVdirsVdiqEvtI0y&#xA;/mtpry2juJLN/VtmkHLg/wDMK4qi8VYj+amunSPJt2Y24z3tLOE+Hqg8z/yLDYq+c4ZpYJkmiYpL&#xA;EweN12KspqCPkcUvqbytrB1ny7p+psAHuYVaUDoJB8L09uQOKE0xV2KuxV2KoC40HRrjU4NUms4n&#xA;1C32huio5rsR170rtXpiqPxV2KuxV2KuxV2KuxV2KuxV2KuxV2KuxV2KuxV2KuxV2KuxV2KuxV2K&#xA;uxV2KvIvz/nlCaJbioiY3Eh8Cy+mB9wY/firyGOOSWRY41LyOQqIoqSxNAAB44pfUnlHR5NH8s6d&#xA;psh/fW8Kiam49RvicD2DMcUJvirsVdirsVdirsVdirsVdirsVdirsVdirsVdirsVdirsVdirsVdi&#xA;rsVdirsVdirsVdirsVdirA/zh/w1/hyP9Mep9Y9T/cf6FPU9Snxfa24U+1X9dMVYX+UP+Bv00v1j&#xA;1f01X/QfrPD0a/8AFdP92f630b4q9wxV2KuxV2KuxV2KuxV2KuxV2KuxV2KuxV2KuxV2KuxV2Kux&#xA;V2KuxV//2Q==</xmpGImg:image>
               </rdf:li>
            </rdf:Alt>
         </xmp:Thumbnails>
      </rdf:Description>
      <rdf:Description rdf:about=""
            xmlns:xmpMM="http://ns.adobe.com/xap/1.0/mm/"
            xmlns:stRef="http://ns.adobe.com/xap/1.0/sType/ResourceRef#"
            xmlns:stEvt="http://ns.adobe.com/xap/1.0/sType/ResourceEvent#">
         <xmpMM:InstanceID>xmp.iid:BB3F5A68346FE41195E3D1493AEF96AB</xmpMM:InstanceID>
         <xmpMM:DocumentID>xmp.did:BB3F5A68346FE41195E3D1493AEF96AB</xmpMM:DocumentID>
         <xmpMM:OriginalDocumentID>uuid:5D20892493BFDB11914A8590D31508C8</xmpMM:OriginalDocumentID>
         <xmpMM:RenditionClass>proof:pdf</xmpMM:RenditionClass>
         <xmpMM:DerivedFrom rdf:parseType="Resource">
            <stRef:instanceID>xmp.iid:BA3F5A68346FE41195E3D1493AEF96AB</stRef:instanceID>
            <stRef:documentID>xmp.did:BA3F5A68346FE41195E3D1493AEF96AB</stRef:documentID>
            <stRef:originalDocumentID>uuid:5D20892493BFDB11914A8590D31508C8</stRef:originalDocumentID>
            <stRef:renditionClass>proof:pdf</stRef:renditionClass>
         </xmpMM:DerivedFrom>
         <xmpMM:History>
            <rdf:Seq>
               <rdf:li rdf:parseType="Resource">
                  <stEvt:action>saved</stEvt:action>
                  <stEvt:instanceID>xmp.iid:9FB6100F196FE41195E3D1493AEF96AB</stEvt:instanceID>
                  <stEvt:when>2014-11-18T22:56:30+08:00</stEvt:when>
                  <stEvt:softwareAgent>Adobe Illustrator CS6 (Windows)</stEvt:softwareAgent>
                  <stEvt:changed>/</stEvt:changed>
               </rdf:li>
               <rdf:li rdf:parseType="Resource">
                  <stEvt:action>saved</stEvt:action>
                  <stEvt:instanceID>xmp.iid:BB3F5A68346FE41195E3D1493AEF96AB</stEvt:instanceID>
                  <stEvt:when>2014-11-18T23:06:22+08:00</stEvt:when>
                  <stEvt:softwareAgent>Adobe Illustrator CS6 (Windows)</stEvt:softwareAgent>
                  <stEvt:changed>/</stEvt:changed>
               </rdf:li>
            </rdf:Seq>
         </xmpMM:History>
      </rdf:Description>
      <rdf:Description rdf:about=""
            xmlns:illustrator="http://ns.adobe.com/illustrator/1.0/">
         <illustrator:StartupProfile>Print</illustrator:StartupProfile>
      </rdf:Description>
      <rdf:Description rdf:about=""
            xmlns:xmpTPg="http://ns.adobe.com/xap/1.0/t/pg/"
            xmlns:stDim="http://ns.adobe.com/xap/1.0/sType/Dimensions#"
            xmlns:xmpG="http://ns.adobe.com/xap/1.0/g/">
         <xmpTPg:HasVisibleOverprint>False</xmpTPg:HasVisibleOverprint>
         <xmpTPg:HasVisibleTransparency>False</xmpTPg:HasVisibleTransparency>
         <xmpTPg:NPages>1</xmpTPg:NPages>
         <xmpTPg:MaxPageSize rdf:parseType="Resource">
            <stDim:w>260.000000</stDim:w>
            <stDim:h>400.000000</stDim:h>
            <stDim:unit>Pixels</stDim:unit>
         </xmpTPg:MaxPageSize>
         <xmpTPg:PlateNames>
            <rdf:Seq>
               <rdf:li>Cyan</rdf:li>
               <rdf:li>Magenta</rdf:li>
               <rdf:li>Yellow</rdf:li>
               <rdf:li>Black</rdf:li>
            </rdf:Seq>
         </xmpTPg:PlateNames>
         <xmpTPg:SwatchGroups>
            <rdf:Seq>
               <rdf:li rdf:parseType="Resource">
                  <xmpG:groupName>默认色板组</xmpG:groupName>
                  <xmpG:groupType>0</xmpG:groupType>
               </rdf:li>
            </rdf:Seq>
         </xmpTPg:SwatchGroups>
      </rdf:Description>
      <rdf:Description rdf:about=""
            xmlns:pdf="http://ns.adobe.com/pdf/1.3/">
         <pdf:Producer>Adobe PDF library 10.01</pdf:Producer>
      </rdf:Description>
   </rdf:RDF>
</x:xmpmeta>
                                                                                                    
                                                                                                    
                                                                                                    
                                                                                                    
                                                                                                    
                                                                                                    
                                                                                                    
                                                                                                    
                                                                                                    
                                                                                                    
                                                                                                    
                                                                                                    
                                                                                                    
                                                                                                    
                                                                                                    
                                                                                                    
                                                                                                    
                                                                                                    
                                                                                                    
                                                                                                    
                           
<?xpacket end="w"?>
	</metadata>
<g>
	<path fill="#727171" d="M145.795,212.479c-0.202,0.403,0.027-0.496-0.23,0.651c-0.328,1.513,0.268,2.468,1.516,3.22
		c-5.119,1.651-9.164,4.515-13.303-0.22c0.688-1.973,1.752-3.651,2.459-6.175c1.468-5.257,2.229-11.403,6.101-15.375l2.211-1.844
		c-1.185-0.137-1.319,0.221-2.211,0.312c-1.165,0.119-1.294-0.367-2.267-0.679c-1.295,1.422-2.625,2.78-3.623,4.257
		c-1.057,1.578-2.129,2.751-4.027,3.633c-0.816-0.221-2.495-1.459-3.797-2.073c-1.615-0.771-2.642-1.092-3.477-2.523
		c0.532-1.045,1.551-1.724,2.375-2.605c2.267-2.43,4.45-5.091,6.193-8.118c0.854-1.486,6.146-12.018,4.468-14.229
		c-0.927,1.706-2.496,4.174-3.386,6.366c-1.651,4.101-4.063,10.834-7.421,12.614c-1.505-1.467-1.918-2.624-4.248-1.027
		c-2.166,1.486-3.981,3.467-6.184,4.807l-0.339,0.183c-1.01,0.616-5.615,3.339-6.404,2.523c-0.889-1.404,0.826-1.367,0.552-2.651
		c-1.395-0.33-1.873,2.917-1.991-1.174c-0.128-4.624-2.156-8.843-1.863-13.577c0.239-3.707,1.954-7.963,0.578-11.614
		c-0.504-1.339-0.843-2.055-1.908-2.55c-4.255,2.174-0.815,11.944-1.22,15.981c-0.184,1.816-0.78,2.156-1.422,3.486
		c-1.568,3.229,0.202,9.247-3.494,10.771l-3.23-4c-1.11-1.339-2.293-2.743-3.312-4.238c-4.403-6.477-1.733-8.99-4.824-9.944
		c1.091,5.991,1.991,12.742,3.843,18.082c0.532,1.542,0.972,1.908,0.129,3.275c-1.166,1.909-2.651,3.322-5.157,3.503
		c-4.247,0.313-9.201-4.917-10.605-6.751c-1.458-1.908-2.669-2.568-4.274-4.275c-1.689-1.798-1.872-3.468-2.826-5.761
		c-0.918-2.238-2.184-3.578-3.44-5.248c-1.018-1.358-2.743-3.183-3.513-5.192c-1-2.615,0.532-4.44-1.33-7.357
		c-1.175-1.854-2.285-3.064-3.422-5.009c-2.634-4.532-1.964-8.219-6.257-11.137c-0.954-0.642-1.77-1.009-2.44-1.908
		c-0.413-0.532-0.496-0.789-0.955-1.358c-0.394-0.485-0.568-0.642-0.89-1.137c-2.779-4.23-5.046-9.339-8.815-12.697
		c-1.936-1.725-7.404,0.715-1.046,8.733c1.853,2.339,3.789,4.615,5.146,7.651c1.193,2.696,0.018,4.99,1.743,7.082
		c1.138,1.358,2.972,2.156,4.963,3.596c1.358,1,2.468,3.018,3.431,5.018c0.477,1,0.945,2,1.432,2.909
		c1.027,1.89,2.284,3.302,4.137,4.55c4.661,3.146,10.725,19.1,14.193,24.715c1.742,2.834,2.522,2.22,2.679,5.906
		c0.136,3.341,0.935,4.295-1.194,6.541c-1.697-0.725-4.201-1.752-4.788-3.273l-1.175,1.762c-1.991,3.211-4.661,5.045-8.366,5.715
		c-2.532,0.469-2.431,0.063-3.926-1.184l-6.431-4.825c-1.395-0.881-5.862-3.522-7.76-2.696c-1.468,3.66,1.963,4.732,4.293,5.908
		c1.385,0.696,2.248,1.19,3.412,1.989l3.046,2.284c2.926,1.943,6.294,5.752,6.679,9.504c0.211,1.98-0.707,3.229-0.55,4.578
		c1.404,0.541,2.817,0.146,3.862,1.037c1.468,2.669-1.724,6.355-2.642,7.402c-5.56,6.33-21.632-0.092-22.238,9.035
		c1.238,0.9,2.183,2.028,4.284,2.588c7.312,1.936,14.394-6.514,22.586-3.67c2.385,0.826,2.624,1.092,3.468,3.448
		c2.311,6.423-0.414,7.312-3.615,8.679c-0.11,1.707,0.541,1.791,1.606,2.533c1.358,0.944,1.036,1.257,0.9,3.119
		c-0.78,0.292-0.891,0.119-1.56,0.605c0.311,0.898,0.366,0.513,1.183,1.082c-0.835,7.771-8.101,14.467-2.302,17.834
		c1.733-0.816,2.44-4.138,3.412-5.809c1.284-2.191,3.523-3.273,5.781-1.313c0.624,5.486-3.386,8.258-5.083,12.494
		c-1.614,4.057-7.521,6.68-4.852,11.074c3.33-0.688,6.237-7.468,8.633-11.349c2.083-3.357,3.385-6.696,6.842-8.779l1.349-0.706
		c0.744-0.313,1.083-0.367,1.882-0.439c1.981,3.018,1.742,7.632,1.65,11.008c-0.12,4.387-0.532,6.835-1.908,10.477
		c-1.751,4.643-6.285,15.799,0.578,18.109c3.302,1.12,6.743-2.514,7.797-4.092c8-11.881-5.678-17.101-3.503-27.566
		c0.201-0.982,0.449-1.605,0.778-2.495c2.34-6.11,2.89-5.541,7.496-9.458c1.496-1.267,3.367-2.056,4.973-2.992
		c0.688-0.402,1.091-0.642,2.037-0.972c3.348-1.12,6.888-1.963,10.458-1.129c2.166,0.506,4.274,2.778,5.733,4.34
		c0.037,0.037,0.083,0.093,0.119,0.129c0.037,0.046,0.184,0.2,0.331,0.356l4.009,3.644c14.814,13.229,7.862,21.099,14.953,21.853
		l0.238-0.248c0.853-0.963-0.533,0.742,0.237-0.266c2.515-3.34-2.083-6.203-2.771-8.166c-1.202-3.439-2.063-6-3.614-9.164
		c-0.458-0.928-2.119-3.68-2.147-4.357c-0.046-0.898,0.808-4.357,1.146-5.137c0.46-1.056,2.605-1.937,3.615-2.762
		c1.357-1.109,1.779-2.615,2.779-3.66c1.238,0.2,2.303,1.283,3.303,1.201c2.763-0.221-0.586-4.313,9.679-0.854
		c4.596,1.541,8.66,3.613,13.237,5.173c1.193,0.405,2.35,0.974,3.203,1.487c0.963,0.586,1.742,1.174,2.549,1.963
		c1.359,1.32,3.268,3.385,4.727,4.477l5.889,3.357c2.037,1.093,3.742,2.221,5.844,3.083c2.688,1.101,4.9,1.872,5.898-1.083
		c1.092-3.192-0.283-3.871-1.77-4.844c-2.23-1.459-4.064-3.66-5.917-5.568c-6.451-6.65-9.12-3.495-13.615-4.268
		c-3.595-0.623-8.825-4.476-11.824-6.604l-2.909-1.725c-1.025-0.531-1.927-1.026-3.045-1.32c-0.102-2.505-0.99-3.413-2.35-4.789
		l-3.641-3.221c0.531-1.035,1.963-1.605,1.365-3.184c-0.248-0.65-1.853-1.505-2.457-2.092c-0.027-1.613-0.146-0.33,0.402-1.505
		c1.568-3.394,0.706-1.421,2.495-2.165c-0.074-1.486-0.312-0.66-0.845-1.789c3.771-4.357,10.679,4.505,16.082,1.516
		c-0.478-6.588-14.092-2.404-13.477-8.074c2.661-0.229,5.303,1.074,5.871-1.623c-5.156-1.35-7.68,2.248-12.174-0.577
		c-1.376-0.863-2.898-2.331-4.568-2.604c-2.484-0.404-4.414,0.045-4.679-2.404c1.155,0.248,1.155,1.174,2.696,0.953
		c-0.623-1.146-2.155-0.771-3.09-2.53c0.658-1.753,3.814-3.103,6.311-3.707c4.521-1.101,3.273-0.302,7.247-2.733
		c12.33-7.521,25.979-12.871,39.621-17.943c0.644-0.238,1.084-0.422,1.495-0.02c1.164,1.083-0.457,1.377,1.13,1.98
		c0.266-0.477,0.146,0.147,0.1-0.512c-0.046-0.606-0.448-0.938-0.55-1.606c6.046-4.742,9.661-4.724,18.514-6.771
		c6.807-1.569,12.348-4.468,17.834-7.477l25.53-12.312c3.651-1.596,7.834-0.624,6.779-5.624c-2.816-1.458-5.21,0.854-6.816,2.009
		c-5.715,4.128-13.549,6.642-20.19,9.21c-4.762,1.835-9.485,3.634-13.854,5.854c-1.146,0.569-2.293,1.156-3.33,1.779
		c-0.972,0.579-2.082,1.385-2.99,1.854c-7.312,3.816-17.926,5.293-26.604,9.743c-0.055,0.037-0.119,0.063-0.176,0.091l-8.393,4.11
		c-4.688,1.817-10.074,3.185-14.789,4.899c-3.66,1.338-11.908,6.184-13.303,6.457C146.721,214.037,146.711,213.744,145.795,212.479z
		"/>
	<path fill="#727171" d="M35.993,275.705c0.605-2.295,0.541-3.505-0.716-5.139c-0.779-0.99-2.018-2.313-3.871-2.588
		c-3.642-0.567-6.541,2.623-7.394,5.213C21.379,281.173,33.791,284.052,35.993,275.705z"/>
	<path fill="#727171" d="M87.44,186.828l-1.753-7.789c0-0.945,0.451-1.541,0.522-2.816c-0.044-0.046-0.127-0.175-0.155-0.129
		l-0.927-0.917c-0.854-1.229-1.063-3.669-1.604-4.532c-0.358-0.569-1.799-1.605-1.212,0.651c0.349,1.33,0.515,1.926,0.789,3.349
		c0.569,3.1,1.074,6.99,2.477,9.797C86.119,185.544,86.403,186.167,87.44,186.828z"/>
	<path fill="#727171" d="M262.34,249.119v-1.064c-3.395-1.156-5.854,1.248-5.688,4.696c1.597,0.496,1.834,0.433,3.807,0.11
		L262.34,249.119z"/>
	<path fill="#727171" d="M7.755,278.393c1.12,0.816,2.303,1.174,3.688,0.871l0.349-0.66c-0.284-1.211-3.275-2.33-4.725-1.477
		C7.168,278.089,7.003,277.843,7.755,278.393z"/>
	<path fill="#727171" d="M23.48,191.121l0.055-1.21c-0.651-0.533-1.092-0.762-2.11-1.156c-0.266,0.257,0.009-0.083-0.376,0.404
		C19.278,191.332,20.875,192.865,23.48,191.121z"/>
	<path fill="#727171" d="M46.772,127.29c-0.661-1.413-1.367-2.55-2.037-4.293c-0.624-1.624-1.284-3.432-2.33-4.358
		C42.836,122.153,44.671,125.914,46.772,127.29z"/>
	<path fill="#727171" d="M70.302,165.783c0.35-3.339-1.284-5.063-3.073-5.908c0.35,0.688,0.872,2.055,1.22,3.092
		C68.882,164.297,69.331,165.38,70.302,165.783z"/>
	<path fill="#727171" d="M58.083,249.998c2.265-0.063,6.064,0.635,7.549-0.879C64.074,249.025,59.12,248.402,58.083,249.998z"/>
	<path fill="#727171" d="M0.462,229.898v1c2.018,0.074,3.248-0.366,3.248-2.431C1.499,228.266,1.324,228.67,0.462,229.898z"/>
	<path fill="#727171" d="M149.427,187.599c0.789-0.972,3.321-1.431,3.396-3.321C151.234,184.681,148.913,185.654,149.427,187.599z"
		/>
	<path fill="#727171" d="M58.937,148.536c-1.102-1.596-0.404-2.88-2.193-3.697C56.744,146.481,57.955,148.16,58.937,148.536z"/>
	<path fill="#727171" d="M137.997,288.236c0.284-1.432-0.274-1.945-1.422-2.258C136.456,287.373,136.785,288.033,137.997,288.236z"
		/>
</g>
</svg>
