<?xml version="1.0" encoding="utf-8"?>
<!-- Generator: Adobe Illustrator 16.0.0, SVG Export Plug-In . SVG Version: 6.00 Build 0)  -->
<!DOCTYPE svg PUBLIC "-//W3C//DTD SVG 1.1//EN" "http://www.w3.org/Graphics/SVG/1.1/DTD/svg11.dtd">
<svg version="1.1" id="图层_1" xmlns="http://www.w3.org/2000/svg" xmlns:xlink="http://www.w3.org/1999/xlink" x="0px" y="0px"
	 width="260px" height="400px" viewBox="0 0 260 400" enable-background="new 0 0 260 400" xml:space="preserve">
<metadata><?xpacket begin="﻿" id="W5M0MpCehiHzreSzNTczkc9d"?>
<x:xmpmeta xmlns:x="adobe:ns:meta/" x:xmptk="Adobe XMP Core 5.3-c011 66.145661, 2012/02/06-14:56:27        ">
   <rdf:RDF xmlns:rdf="http://www.w3.org/1999/02/22-rdf-syntax-ns#">
      <rdf:Description rdf:about=""
            xmlns:dc="http://purl.org/dc/elements/1.1/">
         <dc:format>image/svg+xml</dc:format>
         <dc:title>
            <rdf:Alt>
               <rdf:li xml:lang="x-default">打印</rdf:li>
            </rdf:Alt>
         </dc:title>
      </rdf:Description>
      <rdf:Description rdf:about=""
            xmlns:xmp="http://ns.adobe.com/xap/1.0/"
            xmlns:xmpGImg="http://ns.adobe.com/xap/1.0/g/img/">
         <xmp:MetadataDate>2014-11-18T23:11:41+08:00</xmp:MetadataDate>
         <xmp:ModifyDate>2014-11-18T23:11:41+08:00</xmp:ModifyDate>
         <xmp:CreateDate>2014-11-18T23:11:41+08:00</xmp:CreateDate>
         <xmp:CreatorTool>Adobe Illustrator CS6 (Windows)</xmp:CreatorTool>
         <xmp:Thumbnails>
            <rdf:Alt>
               <rdf:li rdf:parseType="Resource">
                  <xmpGImg:width>252</xmpGImg:width>
                  <xmpGImg:height>256</xmpGImg:height>
                  <xmpGImg:format>JPEG</xmpGImg:format>
                  <xmpGImg:image>/9j/4AAQSkZJRgABAgEASABIAAD/7QAsUGhvdG9zaG9wIDMuMAA4QklNA+0AAAAAABAASAAAAAEA&#xA;AQBIAAAAAQAB/+4ADkFkb2JlAGTAAAAAAf/bAIQABgQEBAUEBgUFBgkGBQYJCwgGBggLDAoKCwoK&#xA;DBAMDAwMDAwQDA4PEA8ODBMTFBQTExwbGxscHx8fHx8fHx8fHwEHBwcNDA0YEBAYGhURFRofHx8f&#xA;Hx8fHx8fHx8fHx8fHx8fHx8fHx8fHx8fHx8fHx8fHx8fHx8fHx8fHx8fHx8f/8AAEQgBAAD8AwER&#xA;AAIRAQMRAf/EAaIAAAAHAQEBAQEAAAAAAAAAAAQFAwIGAQAHCAkKCwEAAgIDAQEBAQEAAAAAAAAA&#xA;AQACAwQFBgcICQoLEAACAQMDAgQCBgcDBAIGAnMBAgMRBAAFIRIxQVEGE2EicYEUMpGhBxWxQiPB&#xA;UtHhMxZi8CRygvElQzRTkqKyY3PCNUQnk6OzNhdUZHTD0uIIJoMJChgZhJRFRqS0VtNVKBry4/PE&#xA;1OT0ZXWFlaW1xdXl9WZ2hpamtsbW5vY3R1dnd4eXp7fH1+f3OEhYaHiImKi4yNjo+Ck5SVlpeYmZ&#xA;qbnJ2en5KjpKWmp6ipqqusra6voRAAICAQIDBQUEBQYECAMDbQEAAhEDBCESMUEFURNhIgZxgZEy&#xA;obHwFMHR4SNCFVJicvEzJDRDghaSUyWiY7LCB3PSNeJEgxdUkwgJChgZJjZFGidkdFU38qOzwygp&#xA;0+PzhJSktMTU5PRldYWVpbXF1eX1RlZmdoaWprbG1ub2R1dnd4eXp7fH1+f3OEhYaHiImKi4yNjo&#xA;+DlJWWl5iZmpucnZ6fkqOkpaanqKmqq6ytrq+v/aAAwDAQACEQMRAD8A9U4q7FXYq7FXYq7FXYq7&#xA;FXYq7FXYq7FXYq7FVk08MMbSTOscaAszsQAFUVJJPgBXFXg/mD81r+486W2qWJYaZprlLe3O3qxt&#xA;8MrMPGQdP5du+KvctP1Gzv7O3vLWQSQXUYlhbuVIB6e1d/DFUTirsVdirsVdirsVdirsVdirsVdi&#xA;rsVdirsVdirsVdirsVdirsVdirsVdirsVdirsVdirsVdirEPzJS3udFazuLgwxt+84LPDbtIymqi&#xA;s6hSBTfi4bFXlR06P9O6en6Nh5G0Z2ha3uj6j1NGaEh3dj2+LfrXpir0H8tvQs7dYVmHrXDGSSEv&#xA;ByodqRxp61zwQ/78ZaYq9DxV2KuxV2KuxV2KuxV2KuxV2KuxV2KuxV2KuxV2KuxV2KuxV2KuxV2K&#xA;uxV2KuxV2KuxV2KuxVg3nW+dIp/UkaGKYFQxeS3jKkUX45FubKTlT9rgfliryVjANUhQRF1WAiqw&#xA;qYzVhuEjuPQZN9zzCnuK4q9E8n3dYY7a2lLpHQcLdzKqkfzQ6akcABH+/LhvfFXpkLl4lY7MR8Q2&#xA;2PcbFh198VX4q7FXYq7FXYq7FXYq7FXYq7FXYq7FXYq7FXYq7FXYq7FXYq7FXYq7FXYq7FXYq7FX&#xA;YqpXc3o20klacR1NQB2qSFen3Yq8s8yXnFJrmBikRqZbyDkgavUm605pIyDWlJ7fFXl0t0p1MScU&#xA;oR9krbMD834iPf8AmK19sUvQ/Lly88KSOHurRfhrIJbmNPYNctY2CfQjYoeqaBdR3FgpjkWVEoFZ&#xA;GjkWlOnKFEiqO4WtPHFUyxV2KuxV2KuxV2KuxV2KuxV2KuxV2KuxV2KuxV2KuxV2KuxV2KuxV2Ku&#xA;xV2KuxV2KuxVK9flkW1ogc0+JzGszMPD/eZhMtfFVOKvG/NN8k88kylJ50qA6mO4kUj+aWH6neoB&#xA;/wAWRtirz9pWa4MhdieVeZYlvnypXFLNPL10iOlxccI5AAPrEohQnbYpPftOwP8Axih+WKHsHli6&#xA;ml4yOZGR1Cl3Ny6VO4Ky3IgVq/8AFcVMVZJirsVdirsVdirsVdirsVdirsVdirsVdirsVdirsVdi&#xA;rsVdirsVdirsVdirsVdirsVdirD/ADfdRySmGiTSx/3cBWGZ1O1W9Fmtrjfs0MhxV475uvnkleKV&#xA;2eRPhKytJIyeCBbxFuY/odhirFMUsi8sX3oyoFf0ZagJJG/ovUnYcoYprpq/5FMUPV/Lt0LaeNpw&#xA;tvcE/A8ypA7eKlryS6vX+iNcVehqeSg+IrvUfrxVvFXYq7FXYq7FXYq7FXYq7FXYq7FXYq7FXYq7&#xA;FXYq7FXYq7FXYq7FXYq7FXYq7FVsj8I2bwG3Tr9JA/HFXmfnG+I5208nFXJ/dXBCKTv9m31FGgen&#xA;jDOPbFXkmuTs0wiAaOJfsRESIAOtfTd5VWtf2GpilK8VTDR5pEnKpyYEfFEvqnkvccYWQk/NgMVe&#xA;neU76OJxbwMsbMN4YDHDIfnBpyXF0xH/ABZMMUPVdNd2tVWSoddjyBVjXcEqzyMK/wCUa4qisVdi&#xA;rsVdirsVdirsVdirsVdirsVdirsVdirsVdirsVdirsVdirsVdirsVdirsVS/XLtLexYvIsSts0js&#xA;kahe45yo8dT0o3XFXknmi7eCF+Cm3tZNgih7aKQ9eJ9M3mnSfcmKvMrhg0zkUpXagVR9yfD92KVL&#xA;FV8TcZFO2x7gMPubY/Tir0TyteSTx+lFzkjWjS26evPGh/maG1FnarX/AIslNO+KHqvlS8heJoIi&#xA;gVd2hQ29Y37gx2geNPpkJxVkOKuxV2KuxV2KuxV2KuxV2KuxV2KuxV2KuxV2KuxV2KuxV2KuxV2K&#xA;uxV2KuxV2Ksd813ksMRdC6Ig3dTcRry6/FNbiYJT/iyIjFXi3mW8QmWeAqWkB53MXo9PBp7Fkjdj&#xA;X/dkIOKsOxS1ireKsp8v3AdY2nAkWMjhJMqSop7hmvZI7ZD4fA2KHrvlO/knWKSN3ljjoCVeWeLi&#xA;OvxolpZJT/IDYqzbFXYq7FXYq7FXYq7FXYq7FXYq7FXYq7FXYq7FXYq7FXYq7FXYq7FXYq7FXYq4&#xA;mgJPbw3/AFYq878z3frzzPComuErzeFRK8YH7POze3vouPflGwxV4/5jvPrFySX9V6/FKzLK7EdS&#xA;ZGjhn9qSCuKUmxV2KuxVM9EulguObEBRuWrFGy/5SySJMykf5C1xV6toVyQIrq7qRsVvLgN47MLj&#xA;VJF2/wCMVvih6bYzme1jkJDEjdgSQadwSsda+IXFVfFXYq7FXYq7FXYq7FXYq7FXYq7FXYq7FXYq&#xA;7FXYq7FXYq7FXYq7FXYq7FUPfyOlq4jBMjCigDkfeihoyaDwauKvJPN99HM7QTN6zR7rBKVml8fh&#xA;gvVtr2Mn/iqZsVeYalNJLdN6jEldqEyED2Hq1cfScUoTFXYq7FURYzPDcKyMUPiC6/eY/jp8sVei&#xA;eWL2O1mVkKW88hqQxhtZmNP5iL6/ceHELih67oErtbcWD0b40MqzKx6A/wC9LNMabbsq4qmmKuxV&#xA;2KuxV2KuxV2KuxV2KuxV2KuxVbJLHFG0krhI13Z2IAA9ycVSW0846PdzyxW0qTehIscrRsHALNKA&#xA;fhr1WHkPEHFUTFr9pII9qGXhQE95PQA/6iVxVSn8zWUUTS05KEMgIYbgRzSf8RtyfpxVX/Ttr9YM&#xA;HRg5jr2qJUh8O7Sfhiqn/iKz+rmcCoCl6VG4ECT9/ESKMVbHmC0MzREUKv6ZNf8Ai2aMnb/mGY4q&#xA;3Fr9pIIqChk4UUncGT0aA/8ASSuKqc/mWyijMhBKBC9QR0Ec0n/Ebcn6cVV/03aeuYN+Qcx+1RKk&#xA;P/EpMVWf4hsvQM2/EKXpUVoIUm7+0ijFUl8zeY7AxNauAVDcWif6uebCWWLZLgCN6NbttzU4q8o8&#xA;xaus9nGwciKdA8MD+skdCPtrb3gnh+mGUYqwcmpJGwPbFLWKuxV2Ktjr4+2Ks08p30nJLeF2DuB+&#xA;6gaVTKPBodPRZGP/ABkmGKHpPkvzFprlPq7IomYK0YSCAv8AG0fMRIbmc0MZJMknT6KqsqXzFZMK&#xA;gGvAOASO6wsB1/5eVxVpvMtgrsrVHEMQfEL9YPb2tGOKq8usW0cwiO5L+nX39SOL/iUwxVCyeZ7N&#xA;bX6wFLJ6XrEVH2fq7XHav7Kj78VRUetWbuyK3xCT06Go3EskLdR2MLYqoL5js2FQDXhzpUd1gYD/&#xA;AKelxVa3mazV3VgRxDFTWtQv1g+HcWjHFURJrVqkwj61f0wwI6+rHF/xKb8MVQ0nmezW1+sBeS+l&#xA;61OQ+z9Xa47V/ZUD6cVW3PnHQrWVY7u5S3LSNErStwWqSvE1WaiihiJ3OKppYXsF7aRXUDBo5VDD&#xA;iQ1CRWhp3GKq+Kvnr8zfLvmDT/MSw3N1cX9neMTpss8jPsTT0yWNAyVp8t8VUhenToxHNBNpV0kS&#xA;x+qo5QyvFbzoOYps/wDpCJy7e2Kplpvm+SK/jEzrJCs6OZIyPiVL2y3UV6cLWg33xVbceZmbSijP&#xA;yL2ZQtU/aOmhG8f27o4qirzzXw1J51f4RdNKNxsBfXM48NgsK4qssvNPqW0MHP8AeGOJCK0BLw6Z&#xA;BQCv+RIcVWP5r9SGaUN8RT1B8zFqcwG47tOuKqlr5uWHUkV3/dR3CMwFKlY72yXY17panFVCfzOz&#xA;aUUL1L2bISCT8R00I3j0e6IxVFXnmvhqUk4eii7eUdNgL+5m9uiwriqnZeaedtDBz/eNHChFaVLw&#xA;6Zb0AB/yJCcVSzV9YuLyN7q1u2ilKh2jY8onDG+nYsjKwLcWov8ArH6FWJC/lFl9VUcEJqzK7jlv&#xA;+0vLgf8AgcUoXFXYq7FXYq7FUZFqMkdo9tx5pIKfG8lFPSqorKlf9YHFU70S9urWziklvGWCNaxW&#xA;0TGOqAXTnmy8GJEibCvRvoxQyi082JNcIhk4NzSJhXav1jTVI6mtEgbFUFJ5nZ7WjGjtbufkzadd&#xA;kdv5rvFUavnP0dTAZ+UP1sFN67C/LKOo7Q1OKoc+YidNiQSc1+qxxHeu/wBSsoDXr+3K+Kty+bCG&#xA;a4STixeWU0NK1uNSnPh15oMVVrPzZHNcRoz8X5pE3hX6xpqtTc9EgbFUHJ5mdrWjNR2t2O/Zm067&#xA;I7eN3iqLXzmYNSAZuUP1sMu/QC/LKOv8sAJxVBv5oP6NjjiJcfVo4Wcmig/UrO3NS3+W71piqEud&#xA;QOpCZH5Sxzu8lxFCAsQBup5Vea5l48qPOorttsdxiqA0Dy95m1DzObLS2ktLlm9Sa4ikIWKNjUsz&#xA;xkdOlPHbrir6D/Qj/oD9E/pC69T0vT/SPqH6zz6+pz61r+G2Kobzf5Zg8xaUbGZygB5Iy7FXI4c6&#xA;0J+FWb4f2ulcVef6p5Ukty4hlaOM1JjnPNFVWM1JiftRwqxmnbfk5VBXFWE6t5bMLH0kaJ6gAOaO&#xA;Pg9QB/BxH+/m7JVV2O2KsbmS4hXgSfTYVFRTZqMPlUBTilY08zV5OTWtd/Gv/NRxVpZZFZWDHkpB&#xA;U+FKU/VirfrS7/EdwAfkF4j/AIU0xVoyyk1LsT4knx5fr3xVwlkCFOXwnqPnQ/8AGoxVtp5mrVzv&#xA;Wu/jWv8AxI4q0ssisrBiGUgqa9CKU/Virfry7/EdwAfkFKj/AIU0xVTxV2KuxV2KuxV2KuxVf6sv&#xA;EKGIUCgAPbf/AJqOKtCSQNyDENWtamtetcVXGeUgAt0BA+RUKf8AhRTFWmllY1ZyTWu5PWpP6ycV&#xA;ck0qfYYj+wg/8ajFXerLxChiFAoAD23/AOajirXN615Gta1r38cVXGaU0qx2FB8ioX/iIpiq+Jbm&#xA;4lVFLO7NRQDUljUgD/KJrQdziqeaboRkIKlGYqpSSTeL94eEbsT9mNz8Bf8A3XJ9qmKs1sPK6ySR&#xA;eqXb0maRfXUsUKuvN3h2VpIyoS5j/bWki74oZ75M8pw6FCzW6+j6xJuEry5nfbw4o1fTYUqrUIrv&#xA;irKMVdiqFvtPhu0IcDntxLCoJU8lDDaqhwGIrvTFWEa55ZZaoUD8qhfVpxccjJSR+6u4Nxct3Cqg&#xA;xVgOteXmZiQryOxH958MjtKDIvqfyyT0M8v++4gor2xVht5p8kDVUFoyFZWIpVXBKNTqOYBZR/LQ&#xA;4pQeKuxV2KuxV2KuxV2KuxV2KuxV2KuxV2KuxV2KuxV2KuxV2KuxV2KouysJbmRVCsQTQBacmNOX&#xA;Fa/tFalQftdBvirKdD8viSh4JIsgXqeMbrKaIC37MUpFEk6xSijUxQzvQ9BeWUMKszl2DSICxJ/d&#xA;SM8e1WP91eRdzSRd8VZ1peiw2wDuvx/DxUnlx4CiVY/aZFJQPsSlA1aYqmmKuxV2KuxVTnt4Z4zH&#xA;MgdGFGU9CKgkHxBpuO+KsU13ywXViE+sB+SlSaepzYM6Ow3X15KGZx0iXiMVef615fMhLBTOZCCC&#xA;BxeUznYjsr3TLsP91wLU9cVYPqOjyRPyjo4ahVlFFcMxVWUeEjA+mvUqOVKYpSrFWsVdirsVdirs&#xA;VdirsVdirsVdirsVdirsVdirsVdirsVdiqZWGkSz7lWNTQKgDMTTkQoJFX4/Eq/tioBrirM9G8vg&#xA;xABFkDhFCq3FHWY1jVZD0jmI5QSdY5RwcYoZ5oXl1pF5KA5PM8nTgrFxxkLIfs+rx4XMPZxzWhxV&#xA;mdlp8FpHxSrNtydjVjxHFSx7sEovI7kDfFUTirsVdirsVdirsVadEdGR1DIwIZSKgg9QRiqRa15d&#xA;iuVkdFMnPn6kQPFn9T+8UP2MoCxFj9mOoWmKvP8AW/L5ZmJUyl/ib0Voz+ofSrEvZpyPQtl6JErP&#xA;irA9Y0F1YsoDNQtzj+ywDenVBv8AAZP3UNPtULbDFWPyRPGxVhuK7jcGhpse++KVmKuxV2KuxV2K&#xA;uxV2KuxV2KuxV2KuxV2KuxV2KrkQsaD6T2A8TiqeaboUjyryVufxVCrycFRycKp2Z0Hx8P206UOK&#xA;s30ny/y9NQgb7ACRtRSH+KJY5juFenqWkp+y9YnxQz3R/LiuitIFMZ5cyU4rIJCPV/dU+ETf7tjN&#xA;OMg5DFWURQpEgVB4VYmrMQAKsTuTQdTiq/FXYq7FXYq7FXYq7FXYq7FUv1PR7e8Rq1Vzy5FDxJ5K&#xA;EYg7UcxjgG6gE0xVgeu+XChfmvAijMYl3BoIg0SkfaAIt7RadS0mKsB1vy8ELl1VCvIv6fxKojIj&#xA;fh4xxGkEf+/JORrTFWKXdnNbuVdaUJBHWhU0YV/yTsT44pQ+KuxV2KuxV2KuxV2KuxV2KuxV2Kux&#xA;V2Kq1tbPM1BRVG7MegFaVPtU7ntirJtD0Bi6kq6vVui85FMe8lEP2pIRu8R/vIzUb4oZxovl4FwP&#xA;TA+wAkbmlPtxLHIf+RlnN84nOKs90vy/HH+8nCmoYcAvBSJN3+Hbikho5jI+F60xVPMVdirsVdir&#xA;sVdirsVdirsVdirsVdiqhd2cNynF6qwrwkXZlJBWqnxAY08MVYbrvlxoviFYlWjJJEtfTEa8UaNf&#xA;+KI24QJ1MrF6Yq8+1zy6sYcNGsCoHDrXmkQhFHX/ACktQwVj/uydu9MVYZqGlT2rtVCvElWjbqjK&#xA;Ksh6VZARz8GNMUoDFWsVdirsVdirsVdirsVdirsVbxVF2unyTDkaKppQsaLRm4hmPZOXwluxpXFW&#xA;YaPoPCPlRoynP4jHyZPTHGQmPu8QPG4i/wB2RHmAaVxQzvQ/LjgBREysvBQqOGZfT+KMLK2zGKvO&#xA;2mP2krG9MVZvpmkQWca/CpkFfsDii8iGYIv7KlxyC1PEnbbFUfirsVdirsVdirsVdirsVdirsVdi&#xA;rsVdirsVWvGjrxYVGxHsRuCPcYqxnWvLihPVg4okfEq3HkI/SqY2K7llgHKRV35ymppirx3zQ09n&#xA;NwS2g4ckiS3Zy06AKWSKSNgrsVkJeU0KvJsSaUxVh80c0crpMrJKpIdXBDA96g71xSsxV2KuxV2K&#xA;uxV2KuxV2KuxVtVZmCqCWJoANyScVZNo91f/AFv6rJDb200RQyG6JjIdmEbu0Rq0nqRtxlRVPJfi&#xA;pUVxQ9d8veX3lhgYIYQOBJJYMnpf3QDsAxeHl+6kK/HEeDjvirM7SzgtYhHEgUAU+EUAFSaL1otS&#xA;aL0HbFVbFXYq7FXYq7FXYq7FXYq7FXYq7FXYq7FXYq7FXYqhdTmEVm+wYv8AAqNwIYn9mkjRq1fD&#xA;lirx/wA3LapdN6wC3AVkSO4qvFWPJuFrqKld23rBcYq81v5S9wRQqibIh5jiOtOLs5HyrilDYq7F&#xA;XYq7FXYq7FXYq7FXYqiLKZ4rhStfi2ZVL1IPb4GQn78VZ55cFi09uq8Y5oiWtzAywTKSOLD0rBLm&#xA;8c0NPjlXFD2Hy7IEg+qsnpOihlj4CI8RQAmNpZpvDd8VTjFXYq7FXYq7FXYq7FXYq7FXYq7FXYq7&#xA;FXYq7FXYq7FUh813yQWvpu6xRsDzkkdIlIO3Cs8cluxPg7DFXj3mi7eCNkCtBbyV4QhXt4pCN/7s&#xA;Nd2L08UK4qwJjVif4U/AYpaxV2KuxV2KuxV2KuxV2KuxVvFWZ+V7uWRDAheSICsluonlT2cw2xtY&#xA;f+RkvzxQ9Y8n30SsLeIpxU0a3ia3+Anu0Nikqr/z0mOKsxxV2KuxV2KuxV2KuxV2KuxV2KuxV2Ku&#xA;xV2KuxV2KuxVg/mzUXVZLqJmjg3H1iNpokYDb4ri2N1D02AnixV4z5kuUaRjEFrL9uSMQgEdQC9o&#xA;whdvGsYPjiqQYpdirsVdirsVdirsVdirsVdirsVTrQpkZgsoUrGao0ipIik+P1iRIFr0HJTir1jy&#xA;tfTXMSGJnuFi/ZVpbmEDwPpixsENem7UxQ9Htp0nt45UYMrioIKt891LL9xxVUxV2KuxV2KuxV2K&#xA;uxV2KuxV2KuxV2KuxV2KuxVSupPTt5HoWoOg5kn/AIAM33DFXlfmW8Mssk0BE1zHs9xFxmePj/NP&#xA;Ytb3kfH/AIthbFXlGq3Hr3TMGL/8WMQ7N7l+EbH/AGQrilBYq7FXYq7FW1Uk0GKr3t50n9BkPrVC&#xA;hAKkk9KU617YqtdGRqN779jQ02OKrcVdirsVdiqJ0+YRXKudgOpqoI9wzLJQj2FcVemaFdc1iuLv&#xA;cChivLgcgB0qLnVJFjFB/vq3OKHrGiXRuLMMSX/4sq7hq9w7RxKf9gKYqmGKuxV2KuxV2KuxV2Ku&#xA;xV2KuxV2KuxV2KuxV2KpV5gnIgEEa85nBYKFEhAH7XprJDKfYxmuKvHPN19HLI8cres8X+65CJ5h&#xA;3Chbtba/ip3pI2KvPZnZ5WdjVidzUn/iW/34pWYq7FXYqqwQPM1Bso+056KOlT7b74qyPRNCcuGK&#xA;uGBYfCvKQGMVcKh+1JEDyaI/3kZ23xQr3HlW9nmmniUpMkqraLE8jxhVX93wYpy43D0Fsa02Irti&#xA;qzVtDDIJggjVl5/CrAKqEI3AH4uCNSCOu7vyJOKWM3NrLbuUkWhBIPzU0YfQdq4qo4q7FXYqujdo&#xA;3V1NGU1BBI/EUOKs38s30cEqTKyQSuftFobeTl4iVlvL1lP+Qq1xQ9f8tXLKyGYOqziiSTLKjsew&#xA;5XkpuHHh+7UYqyXFXYq7FXYq7FXYq7FXYq7FXYq7FXYq7FXYq7FWHedL2L4reUoUP2YJTAfUIHVY&#xA;L1Y0kp/xVMDirx7zbdyqfq8nJaf3du/roqLWnIQ3XrcSf+KpSMVYpil2KuxVE29lLNQ7KpoatsKE&#xA;8QxPQLy+EnscVZfo2g8UrRkK89ytWRoxSUlO7wg/v4v92RHkBtXFDOdB8ukcQIypHAcEepHp/HEq&#xA;SnqY/t2k3dKxvTFWZQ+V7MRn1QPW+LhJHtwMhPqGP+XnUsBvwYnjirGtd8uGIkn90q8WDwqPgCKE&#xA;Vo18YUb0bZO8jF6d8Vefa35dVBIrIsKoGDBaukSw0VwP5kt+Xp16yTsetMVYff6bPayMrIV4sQyk&#xA;1KstCyE7bpUBv8rbFKCxV2KuxVkfle7lSURQs6ySVHpxtMvqDuGSzUTPTwMgGKHqnla8it5uEYSK&#xA;V/723UQQSv03MMH128Yj/LcYq9GBqAR38dv14q7FXYq7FXYq7FXYq7FXYq7FXYq7FXYq7FVk8qQw&#xA;vK5oqAkkkDp7sQPvxV5p5uv5YY39UtCk3RGL28T1P/FovNOlJ6tuhOKvIdYkX1vTQALUs3FRGrN4&#xA;hY3khp7pQYpS7FW1VmYKoJYmgA3JJxVMNO0t7hwzU4DifiPFKMeKlm/ZRm+Dn0VqVpirNdM0Ehkq&#xA;ChTm7NIlWUr8ErSRHq0f93dRftJRxXrihn2ieW2ICKrRFTGCQ9Wj9M1T95Q8mhrWCX9uM8HGKsws&#xA;bCC0iCRqoIFKqvECpqVUblV5EkLXbFUTiqyWJJUKsP8AVbup8R4EYqxXXfLYVfUiISNOJSQCoiEQ&#xA;IjPHeogWrRpvzlappTFXnuteXFQMBGsAQEBW+JYlhHJgzb8ktlbnM3+7J2C70xVhGqaNJA7EIyEE&#xA;gxvuykLzKvT9tI/ik/lJ47HFKUkEGhFDirWKo7S5gs3pyDlE5HJaFwD/ADcOcSmn+UaYq9R8pXry&#xA;BbWBy4WnKG2ZpFqR1NvpiQwCvf1Zzih6jpE6y2aqAFaP4WQemAvegWN5Qo9uVcVRuKuxV2KuxV2K&#xA;uxV2KuxV2KuxV2KuxV2KoDWro29kzKSpP7dXRVA7mRI5QtP8paYq8g8x3YjSa4tz6cb19W8gAQNX&#xA;Y/6RpzSW78v+LYAcVea3D85nagFT0HGn/CBV+4YpWKjOaKCSdgB3Phiqe6NoZlYMyhq8dmbihEh4&#xA;pyf9lJD8KyfsSbNTFDNdD0KtJG/y5DJIldv7uV5I/D/dV5D22kU4qz/R/LbB1Z1aFYuNCW5OrRgi&#xA;P4iN3i+wsn7cR4vXFWTwwxQxrHEoSNdlUbADwHtiq/FXYq7FXYqkWreXo5VL24UEcTxcclBjPKMl&#xA;f2lRy0pXq70qaYq8/wBa8uBeQCBVpxCzbqAtZuMzeCb3N037TFYxirA9X0B1YsocEkf3u0nxKXHq&#xA;eDslZpevBSATXFWPPG6GjClQCPkRUH6Rvil0LcZVNAd+h40/4YEffir0Hy7cNPBGJVa5tU2UyLJc&#xA;RrQ7pW4e0sIx/sWxQ9Z8qX6zwhVkE8fH93JG4mQAfs1giitkp4KTXFWQYq7FXYq7FXYq7FXYq7FX&#xA;Yq7FXYq7FXYqxrzTdt8QhDMbcfvHiWV2Su9OVnILmOo6/u2GKvFvNV+kkrT80lmBIWUNFM4PQkzx&#xA;La3A8KTRnFWKwW8k8gRQST4Cp6VNB3NO2KWT6VoFVQcQ7SFBQPwDep/dgP0Alp+6k/ZkHBxihnWi&#xA;6CDHyPFgyu3N0KIef7uRnTqqP/d3cP7D0kWgxVnmjaCluqyTBuYKsqu1ZAyAKjOw6yItYy4PxpTl&#xA;XFU6VVVQqgKqigA2AAxVvFXYq7FXYq7FXYql+paRBdoSEX1PB6lGo3MBgP2TJRmA+1QA7YqwTXPL&#xA;TVZDH6hYleMrAcyzerxkcf79ZTPcv2jCoMVYBrHl9mJKgyM5DKzCju03xIzDYLJPQykbenCBXc4q&#xA;xO4tXhbf4k2KvQioavE0O45AVFe2+KU/8u3cQZZZSgkj2Msn1dSQN/hmvDNxK/8AFcROKHr3lq+k&#xA;Iju5eckYO88v1hwK/wAk981tHv0Pow4qzkEEVG4PQ4q7FXYq7FXYq7FXYq7FXYq7FXYq7FXMQASe&#xA;g32FT9wxV5p5y1OKWcQuFnueX7m1pHPKlankIpPqd7GSAf7t29sVeWak02p3pZ3eVEJQNykmb4d2&#xA;CCYet8IIPBj2O+KU70fy/wApQvAPyKKFjfiGLjlGqSN9n1Pt2sv837tq1xQzvSfLxkMaKiy81djV&#xA;SsbiQ8ZOUXVY5SOM8fWKUBgKHFWdadpcVqgJq8pIYu+7cgvAMx7vw+Ev1am+Ko7FXYq7FXYq7FXY&#xA;q7FXYq7FVC8sba7jKTIGBBXcVqpIJU+KtxHIdxirDNf8suSeSG4MpZSCeJlMp+NeQ+y1ww/esPsQ&#xA;pxFMVef6z5f58mAM5ejB0WjSmY8UKr+ybl14xL+xCvKm+KsYtEl0269YSmNQf96Y2aIUJIWRHRGk&#xA;9Njypw3IGKXovlm/SO4DyqtpfA8GaUR28hJ34iW7a8vZOS/F8Ea4oeq2Uvq2sb8SppQqwkBFP+Mo&#xA;Vz8yN8VV8VdirsVdirsVdirsVdirsVdirsVQOuyzRaPeSwpzlSF2RaIwqFJ3VyqkeIrirwu/1m41&#xA;W1EhdGur+sUdsspuI7ePrK5ilE3FQq8l4uGSrdKjFUR5e0Zbq5AhDSW9qUhj4OoYy05gLIrtwk3M&#xA;ltI2xNYycVeg6D5c9WjlVeJg3IheMbJKeTgKaUimI5NF1hlFQKHFWaW9rFApCVLNu7sasxoBU+5A&#xA;FcVVcVdirsVdirsVdirsVdirsVdirsVWzQxzRNFKoeNwVdT0IOxGKsZ13y2JOcio86Scy6qQrt6t&#xA;FdQw/blHGEN0SMGhGKvNvMWjJbSm6kVZI6A3Pp0USxOfSLRgkEK39zbIP2FZ8VSvSb2fSHLRSIJb&#xA;dKr6cy2SXNs21FmiVXZlkHxMZe3GvTFXs/ku6mutDtrmWD0jcRRyFlChGZl+KjCSV33/AGm64qn2&#xA;KuxV2KuxV2KuxV2KuxV2KuxV2KofUoxJp11GTQPDIpPzUjFXz95I8geb9Su4NQtIvqNspqt7cgqp&#xA;Uih4KPjaoOxWn+sDir1zyt5Mk0yzW1u5muRDzj5vT4kZuXBaAfuzUOAfiR60JBxVlccaRrxUUHU+&#xA;5O5J9ziq7FXYq7FXYq7FXYq7FXYq7FXYq7FXYq7FXEAih3B6jFWPeZPLH1+2LWkz2s6cnWSIKz1M&#xA;fA8Q4PxFBwWhWgJ3xV5F5p/K3zrZxRSKi6la28QRfqxLugAqao1Hbev2a7eAoMVeq/lhK7+RdLEg&#xA;KyRLJE6MKMpjmdKEdvs4qynFXYq7FXYq7FXYq//Z</xmpGImg:image>
               </rdf:li>
            </rdf:Alt>
         </xmp:Thumbnails>
      </rdf:Description>
      <rdf:Description rdf:about=""
            xmlns:xmpMM="http://ns.adobe.com/xap/1.0/mm/"
            xmlns:stRef="http://ns.adobe.com/xap/1.0/sType/ResourceRef#"
            xmlns:stEvt="http://ns.adobe.com/xap/1.0/sType/ResourceEvent#">
         <xmpMM:InstanceID>xmp.iid:ABD2D90B356FE41195E3D1493AEF96AB</xmpMM:InstanceID>
         <xmpMM:DocumentID>xmp.did:ABD2D90B356FE41195E3D1493AEF96AB</xmpMM:DocumentID>
         <xmpMM:OriginalDocumentID>uuid:5D20892493BFDB11914A8590D31508C8</xmpMM:OriginalDocumentID>
         <xmpMM:RenditionClass>proof:pdf</xmpMM:RenditionClass>
         <xmpMM:DerivedFrom rdf:parseType="Resource">
            <stRef:instanceID>xmp.iid:AAD2D90B356FE41195E3D1493AEF96AB</stRef:instanceID>
            <stRef:documentID>xmp.did:AAD2D90B356FE41195E3D1493AEF96AB</stRef:documentID>
            <stRef:originalDocumentID>uuid:5D20892493BFDB11914A8590D31508C8</stRef:originalDocumentID>
            <stRef:renditionClass>proof:pdf</stRef:renditionClass>
         </xmpMM:DerivedFrom>
         <xmpMM:History>
            <rdf:Seq>
               <rdf:li rdf:parseType="Resource">
                  <stEvt:action>saved</stEvt:action>
                  <stEvt:instanceID>xmp.iid:9FB6100F196FE41195E3D1493AEF96AB</stEvt:instanceID>
                  <stEvt:when>2014-11-18T22:56:30+08:00</stEvt:when>
                  <stEvt:softwareAgent>Adobe Illustrator CS6 (Windows)</stEvt:softwareAgent>
                  <stEvt:changed>/</stEvt:changed>
               </rdf:li>
               <rdf:li rdf:parseType="Resource">
                  <stEvt:action>saved</stEvt:action>
                  <stEvt:instanceID>xmp.iid:ABD2D90B356FE41195E3D1493AEF96AB</stEvt:instanceID>
                  <stEvt:when>2014-11-18T23:11:41+08:00</stEvt:when>
                  <stEvt:softwareAgent>Adobe Illustrator CS6 (Windows)</stEvt:softwareAgent>
                  <stEvt:changed>/</stEvt:changed>
               </rdf:li>
            </rdf:Seq>
         </xmpMM:History>
      </rdf:Description>
      <rdf:Description rdf:about=""
            xmlns:illustrator="http://ns.adobe.com/illustrator/1.0/">
         <illustrator:StartupProfile>Print</illustrator:StartupProfile>
      </rdf:Description>
      <rdf:Description rdf:about=""
            xmlns:xmpTPg="http://ns.adobe.com/xap/1.0/t/pg/"
            xmlns:stDim="http://ns.adobe.com/xap/1.0/sType/Dimensions#"
            xmlns:xmpG="http://ns.adobe.com/xap/1.0/g/">
         <xmpTPg:HasVisibleOverprint>False</xmpTPg:HasVisibleOverprint>
         <xmpTPg:HasVisibleTransparency>False</xmpTPg:HasVisibleTransparency>
         <xmpTPg:NPages>1</xmpTPg:NPages>
         <xmpTPg:MaxPageSize rdf:parseType="Resource">
            <stDim:w>260.000000</stDim:w>
            <stDim:h>400.000000</stDim:h>
            <stDim:unit>Pixels</stDim:unit>
         </xmpTPg:MaxPageSize>
         <xmpTPg:PlateNames>
            <rdf:Seq>
               <rdf:li>Cyan</rdf:li>
               <rdf:li>Magenta</rdf:li>
               <rdf:li>Yellow</rdf:li>
               <rdf:li>Black</rdf:li>
            </rdf:Seq>
         </xmpTPg:PlateNames>
         <xmpTPg:SwatchGroups>
            <rdf:Seq>
               <rdf:li rdf:parseType="Resource">
                  <xmpG:groupName>默认色板组</xmpG:groupName>
                  <xmpG:groupType>0</xmpG:groupType>
               </rdf:li>
            </rdf:Seq>
         </xmpTPg:SwatchGroups>
      </rdf:Description>
      <rdf:Description rdf:about=""
            xmlns:pdf="http://ns.adobe.com/pdf/1.3/">
         <pdf:Producer>Adobe PDF library 10.01</pdf:Producer>
      </rdf:Description>
   </rdf:RDF>
</x:xmpmeta>
                                                                                                    
                                                                                                    
                                                                                                    
                                                                                                    
                                                                                                    
                                                                                                    
                                                                                                    
                                                                                                    
                                                                                                    
                                                                                                    
                                                                                                    
                                                                                                    
                                                                                                    
                                                                                                    
                                                                                                    
                                                                                                    
                                                                                                    
                                                                                                    
                                                                                                    
                                                                                                    
                           
<?xpacket end="w"?>
	</metadata>
<polygon fill="#727171" points="132.5,65.59 124.633,76.26 140.48,73.281 125.304,78.512 141.154,75.525 125.976,80.757 
	141.82,77.771 126.647,83.002 142.496,80.023 127.319,85.25 143.17,82.272 127.99,87.5 143.836,84.518 128.661,89.744 
	144.512,86.766 129.33,91.997 145.178,89.011 130.004,94.242 145.852,91.26 130.676,96.487 146.525,93.508 131.346,98.732 
	147.193,95.754 132.018,100.981 147.867,98.003 132.689,103.233 148.534,100.244 133.359,105.475 149.209,102.497 134.029,107.72 
	149.879,104.742 134.703,109.972 150.55,106.99 135.374,112.218 151.225,109.239 136.043,114.466 151.893,111.484 136.716,116.711 
	152.564,113.733 137.387,118.96 153.236,115.982 138.059,121.205 153.906,118.227 138.73,123.45 154.581,120.472 139.398,125.703 
	155.247,122.717 140.073,127.948 155.922,124.969 140.744,130.193 156.592,127.214 141.415,132.442 157.264,129.463 142.089,134.69 
	157.938,131.712 142.755,136.943 158.604,133.953 143.43,139.181 159.277,136.202 144.1,141.433 159.949,138.455 144.771,143.678 
	160.62,140.7 145.441,145.923 161.291,142.944 146.111,148.176 161.96,145.189 146.786,150.421 162.637,147.442 147.457,152.666 
	163.305,149.687 148.128,154.911 163.977,151.933 148.797,157.164 164.646,154.185 149.468,159.412 165.316,156.426 
	150.143,161.657 165.991,158.675 150.813,163.903 166.657,160.923 154.24,170.093 160.766,156.6 160.994,171.593 162.95,156.593 
	163.184,171.589 165.132,156.589 165.361,171.583 167.316,156.586 167.547,171.579 169.504,156.578 169.732,171.575 
	171.689,156.578 171.922,171.567 173.871,156.57 174.105,171.563 176.063,156.567 176.29,171.56 178.246,156.563 178.477,171.557 
	180.432,156.556 180.661,171.553 182.609,156.552 182.848,171.545 184.801,156.548 185.029,171.542 186.986,156.544 
	187.215,171.538 189.168,156.541 189.404,171.534 191.354,156.533 191.584,171.531 193.54,156.53 193.77,171.523 195.727,156.526 
	195.956,171.52 197.912,156.519 198.145,171.516 200.091,156.515 200.326,171.508 202.282,156.511 202.512,171.508 204.469,156.507 
	204.698,171.501 206.654,156.504 206.884,171.497 208.833,156.497 209.07,171.494 211.021,156.493 211.256,171.486 213.208,156.489 
	213.438,171.482 215.395,156.485 215.628,171.478 217.576,156.481 217.807,171.471 219.764,156.475 219.992,171.471 
	221.947,156.471 222.177,171.464 224.133,156.467 224.367,171.46 226.313,156.459 226.549,171.456 228.505,156.459 228.734,171.449 
	230.689,156.452 230.921,171.449 232.877,156.448 233.105,171.442 235.055,156.445 235.292,171.438 237.244,156.438 
	237.475,171.434 239.43,156.434 239.66,171.427 241.613,156.43 241.85,171.427 243.798,156.422 244.027,171.419 245.982,156.422 
	246.213,171.412 255.395,161.55 241.709,158.464 251.113,171.442 239.938,159.85 249.341,172.827 238.168,161.231 247.578,174.205 
	236.396,162.617 245.807,175.591 234.625,164.002 244.035,176.977 232.854,165.388 242.264,178.362 231.091,166.766 240.49,179.748 
	229.314,168.155 238.723,181.129 227.542,169.537 236.952,182.515 225.779,170.923 235.186,183.896 224.008,172.308 
	233.411,185.282 222.232,173.694 231.639,186.668 220.465,175.076 229.875,188.049 218.693,176.462 228.102,189.435 
	216.924,177.843 226.331,190.821 215.152,179.229 224.559,192.203 213.383,180.615 222.793,193.588 211.611,182 221.021,194.974 
	209.841,183.382 219.25,196.356 208.073,184.768 217.479,197.745 206.307,186.149 215.709,199.127 204.527,187.535 213.938,200.509 
	202.766,188.92 212.17,201.895 200.994,190.306 210.396,203.279 199.225,191.688 208.626,204.665 197.452,193.069 206.861,206.044 
	195.682,194.455 205.088,207.434 193.91,195.841 203.316,208.814 192.139,197.226 201.549,210.2 190.368,198.608 199.777,211.586 
	188.598,199.998 198.008,212.973 186.827,201.376 196.236,214.354 185.061,202.761 194.467,215.739 183.292,204.146 
	192.691,217.121 181.514,205.532 190.924,218.506 179.75,206.915 189.157,219.893 177.979,208.3 187.382,221.277 176.204,209.686 
	185.611,222.663 174.438,211.066 183.85,224.041 172.668,212.452 182.073,225.427 168.324,217.547 184.13,219.021 168.975,224.301 
	184.813,221.271 169.65,226.546 185.49,223.508 170.333,228.791 186.167,225.753 171.012,231.032 186.85,228.005 171.689,233.281 
	187.525,230.243 172.371,235.525 188.205,232.488 173.05,237.764 188.887,234.732 173.727,240.016 189.564,236.979 174.408,242.258 
	190.242,239.225 175.086,244.499 190.924,241.469 175.766,246.744 191.604,243.71 176.445,248.988 192.279,245.955 177.123,251.234 
	192.962,248.204 177.802,253.479 193.641,250.441 178.482,255.725 194.316,252.689 179.162,257.965 194.999,254.932 179.84,260.215 
	195.678,257.177 180.521,262.46 196.357,259.422 181.198,264.697 197.037,261.666 181.877,266.945 197.714,263.912 182.559,269.191 
	198.396,266.157 183.236,271.434 199.074,268.402 183.915,273.682 199.753,270.643 184.598,275.922 200.436,272.893 
	185.273,278.167 201.111,275.13 185.952,280.412 201.789,277.374 186.634,282.648 202.468,279.624 187.314,284.902 203.148,281.865 
	187.994,287.145 203.831,284.109 188.672,289.386 204.51,286.355 189.354,291.634 205.188,288.602 190.029,293.879 205.869,290.842 
	190.709,296.12 206.546,293.09 191.391,298.37 207.225,295.332 192.068,300.615 207.906,297.577 192.747,302.854 208.585,299.82 
	193.43,305.102 209.264,302.063 194.105,307.348 209.943,304.309 194.784,309.587 210.622,306.557 195.466,311.832 208.299,317.313 
	206.945,304.057 197.512,315.607 205.184,302.667 195.747,314.218 203.417,301.273 193.977,312.826 201.648,299.881 
	192.209,311.434 199.891,298.491 190.45,310.044 198.119,297.098 188.684,308.65 196.355,295.706 186.915,307.257 194.591,294.314 
	185.152,305.868 192.82,292.924 183.389,304.479 191.059,291.533 181.618,303.086 189.294,290.145 179.854,301.691 187.525,288.748 
	178.091,300.301 185.764,287.359 176.323,298.907 183.996,285.966 174.561,297.518 182.232,284.572 172.792,296.128 
	180.466,283.184 171.029,294.734 178.699,281.79 169.268,293.343 176.936,280.398 167.499,291.953 175.172,279.014 165.732,290.561 
	173.404,277.616 163.968,289.167 171.641,276.227 162.205,287.777 169.873,274.833 160.436,286.385 168.109,273.439 
	158.671,284.992 166.343,272.047 156.906,283.6 164.576,270.662 155.141,282.209 162.813,269.266 153.377,280.818 161.046,267.876 
	151.609,279.428 159.286,266.482 149.848,278.034 157.518,265.094 148.079,276.641 155.752,263.697 146.313,275.248 
	153.986,262.313 144.548,273.857 152.223,260.918 142.785,272.471 150.453,259.525 141.016,271.076 148.689,258.133 
	139.255,269.684 146.923,256.739 137.486,268.294 145.154,255.352 135.718,266.896 143.396,253.961 133.956,265.512 
	141.629,252.568 132.191,264.119 139.861,251.175 130.424,262.727 138.1,249.782 128.661,261.333 131.607,246.751 136.339,261.333 
	125.118,249.782 134.577,262.727 123.355,251.175 132.811,264.119 121.59,252.568 131.045,265.512 119.821,253.961 129.283,266.896 
	118.06,255.352 127.514,268.294 116.292,256.739 125.746,269.684 114.527,258.133 123.985,271.076 112.763,259.525 122.219,272.471 
	110.997,260.918 120.451,273.857 109.229,262.313 118.689,275.248 107.466,263.697 116.92,276.641 105.698,265.094 115.157,278.034 
	103.934,266.482 113.393,279.428 102.169,267.876 111.624,280.818 100.405,269.266 109.86,282.209 98.639,270.662 108.096,283.6 
	96.874,272.047 106.328,284.992 95.108,273.439 104.565,286.385 93.343,274.833 102.797,287.777 91.576,276.227 101.034,289.167 
	89.813,277.616 99.268,290.561 88.045,279.014 97.502,291.953 86.282,280.398 95.736,293.343 84.517,281.79 93.973,294.734 
	82.75,283.184 92.206,296.128 80.986,284.572 90.441,297.518 79.219,285.966 88.678,298.907 77.454,287.359 86.912,300.301 
	75.688,288.748 85.144,301.691 73.924,290.145 83.381,303.086 72.159,291.533 81.613,304.479 70.393,292.924 79.847,305.868 
	68.627,294.314 78.085,307.257 66.864,295.706 76.318,308.65 65.096,297.098 74.55,310.044 63.327,298.491 72.792,311.434 
	61.566,299.881 71.02,312.826 59.801,301.273 69.255,314.218 58.033,302.667 67.494,315.607 56.27,304.057 56.704,317.313 
	67.752,311.832 54.378,306.557 68.431,309.587 55.059,304.309 69.11,307.348 55.738,302.063 69.791,305.102 56.416,299.82 
	70.471,302.854 57.096,297.577 71.147,300.615 57.776,295.332 71.827,298.37 58.454,293.09 72.507,296.12 59.134,290.842 
	73.186,293.879 59.813,288.602 73.866,291.634 60.491,286.355 74.546,289.386 61.171,284.109 75.223,287.145 61.852,281.865 
	75.903,284.902 62.531,279.624 76.584,282.648 63.208,277.374 77.261,280.412 63.888,275.13 77.942,278.167 64.567,272.893 
	78.621,275.922 65.248,270.643 79.298,273.682 65.928,268.402 79.979,271.434 66.604,266.157 80.658,269.191 67.287,263.912 
	81.338,266.945 67.965,261.666 82.018,264.697 68.642,259.422 82.696,262.46 69.323,257.177 83.376,260.215 70.003,254.932 
	84.055,257.965 70.682,252.689 84.733,255.725 71.36,250.441 85.413,253.479 72.039,248.204 86.093,251.234 72.719,245.955 
	86.771,248.988 73.399,243.71 87.45,246.744 74.077,241.469 88.13,244.499 74.757,239.225 88.81,242.258 75.436,236.979 
	89.488,240.016 76.114,234.732 90.168,237.764 76.794,232.488 90.847,235.525 77.474,230.243 91.525,233.281 78.154,228.005 
	92.206,231.032 78.831,225.753 92.884,228.791 79.511,223.508 93.564,226.546 80.191,221.271 94.244,224.301 80.871,219.021 
	94.894,217.547 82.929,225.427 90.55,212.452 81.154,224.041 88.78,211.066 79.389,222.663 87.012,209.686 77.617,221.277 
	85.24,208.3 75.843,219.893 83.468,206.915 74.077,218.506 81.702,205.532 72.308,217.121 79.926,204.146 70.538,215.739 
	78.157,202.761 68.762,214.354 76.386,201.376 66.995,212.973 74.619,199.998 65.226,211.586 72.847,198.608 63.453,210.2 
	71.076,197.226 61.684,208.814 69.308,195.841 59.916,207.434 67.536,194.455 58.141,206.044 65.766,193.069 56.376,204.665 
	63.996,191.688 54.603,203.279 62.226,190.306 52.83,201.895 60.454,188.92 51.063,200.509 58.688,187.535 49.294,199.127 
	56.914,186.149 47.523,197.745 55.144,184.768 45.749,196.356 53.373,183.382 43.981,194.974 51.605,182 42.212,193.588 
	49.833,180.615 40.441,192.203 48.06,179.229 38.67,190.821 46.295,177.843 36.901,189.435 44.522,176.462 35.127,188.049 
	42.751,175.076 33.36,186.668 40.982,173.694 31.591,185.282 39.211,172.308 29.816,183.896 37.44,170.923 28.049,182.515 
	35.673,169.537 26.28,181.129 33.901,168.155 24.511,179.748 32.128,166.766 22.734,178.362 30.359,165.388 20.968,176.977 
	28.592,164.002 19.198,175.591 26.819,162.617 17.425,174.205 25.048,161.231 15.659,172.827 23.281,159.85 13.888,171.442 
	21.508,158.464 9.605,161.55 17.002,171.412 19.017,156.422 19.187,171.419 21.205,156.422 21.368,171.427 23.386,156.43 
	23.557,171.427 25.572,156.434 25.743,171.434 27.757,156.438 27.927,171.438 29.946,156.445 30.108,171.442 32.128,156.448 
	32.297,171.449 34.312,156.452 34.482,171.449 36.498,156.459 36.668,171.456 38.685,156.459 38.85,171.46 40.867,156.467 
	41.038,171.464 43.053,156.471 43.224,171.471 45.239,156.475 45.408,171.471 47.427,156.481 47.589,171.478 49.609,156.485 
	49.779,171.482 51.795,156.489 51.963,171.486 53.979,156.493 54.149,171.494 56.166,156.497 56.331,171.497 58.348,156.504 
	58.519,171.501 60.534,156.507 60.705,171.508 62.72,156.511 62.89,171.508 64.909,156.515 65.072,171.516 67.092,156.519 
	67.259,171.52 69.275,156.526 69.445,171.523 71.461,156.53 71.631,171.531 73.648,156.533 73.814,171.534 75.831,156.541 
	76.001,171.538 78.017,156.544 78.188,171.542 80.203,156.548 80.371,171.545 82.391,156.552 82.553,171.553 84.572,156.556 
	84.742,171.557 86.756,156.563 86.927,171.56 88.942,156.567 89.113,171.563 91.13,156.57 91.294,171.567 93.312,156.578 
	93.481,171.575 95.497,156.578 95.667,171.579 97.683,156.586 97.852,171.583 99.871,156.589 100.034,171.589 102.054,156.593 
	102.224,171.593 104.24,156.6 108.975,170.093 98.339,160.923 112.404,163.903 99.011,158.675 113.075,161.657 99.682,156.426 
	113.747,159.412 100.354,154.185 114.419,157.164 101.025,151.933 115.09,154.911 101.698,149.687 115.761,152.666 102.365,147.442 
	116.431,150.421 103.038,145.189 117.103,148.176 103.71,142.944 117.774,145.923 104.381,140.7 118.446,143.678 105.052,138.455 
	119.117,141.433 105.723,136.202 119.788,139.181 106.396,133.953 120.458,136.943 107.066,131.712 121.131,134.69 107.738,129.463 
	121.803,132.442 108.409,127.214 122.474,130.193 109.082,124.969 123.144,127.948 109.751,122.717 123.816,125.703 
	110.422,120.472 124.487,123.45 111.094,118.227 125.158,121.205 111.765,115.982 125.83,118.96 112.436,113.733 126.501,116.711 
	113.108,111.484 127.173,114.466 113.781,109.239 127.844,112.218 114.448,106.99 128.515,109.972 115.122,104.742 129.187,107.72 
	115.792,102.497 129.856,105.475 116.464,100.244 130.527,103.233 117.135,98.003 131.2,100.981 117.806,95.754 131.871,98.732 
	118.477,93.508 132.541,96.487 119.149,91.26 133.214,94.242 119.821,89.011 133.885,91.997 120.492,86.766 134.557,89.744 
	121.165,84.518 135.227,87.5 121.832,82.272 135.896,85.25 122.504,80.023 136.568,83.002 123.177,77.771 137.242,80.757 
	123.848,75.525 137.913,78.512 124.519,73.281 138.584,76.26 "/>
</svg>
