<?xml version="1.0" encoding="utf-8"?>
<!-- Generator: Adobe Illustrator 16.0.0, SVG Export Plug-In . SVG Version: 6.00 Build 0)  -->
<!DOCTYPE svg PUBLIC "-//W3C//DTD SVG 1.1//EN" "http://www.w3.org/Graphics/SVG/1.1/DTD/svg11.dtd">
<svg version="1.1" id="图层_1" xmlns="http://www.w3.org/2000/svg" xmlns:xlink="http://www.w3.org/1999/xlink" x="0px" y="0px"
	 width="260px" height="400px" viewBox="0 0 260 400" enable-background="new 0 0 260 400" xml:space="preserve">
<metadata><?xpacket begin="﻿" id="W5M0MpCehiHzreSzNTczkc9d"?>
<x:xmpmeta xmlns:x="adobe:ns:meta/" x:xmptk="Adobe XMP Core 5.3-c011 66.145661, 2012/02/06-14:56:27        ">
   <rdf:RDF xmlns:rdf="http://www.w3.org/1999/02/22-rdf-syntax-ns#">
      <rdf:Description rdf:about=""
            xmlns:dc="http://purl.org/dc/elements/1.1/">
         <dc:format>image/svg+xml</dc:format>
         <dc:title>
            <rdf:Alt>
               <rdf:li xml:lang="x-default">打印</rdf:li>
            </rdf:Alt>
         </dc:title>
      </rdf:Description>
      <rdf:Description rdf:about=""
            xmlns:xmp="http://ns.adobe.com/xap/1.0/"
            xmlns:xmpGImg="http://ns.adobe.com/xap/1.0/g/img/">
         <xmp:MetadataDate>2014-11-18T23:11:14+08:00</xmp:MetadataDate>
         <xmp:ModifyDate>2014-11-18T23:11:14+08:00</xmp:ModifyDate>
         <xmp:CreateDate>2014-11-18T23:11:14+08:00</xmp:CreateDate>
         <xmp:CreatorTool>Adobe Illustrator CS6 (Windows)</xmp:CreatorTool>
         <xmp:Thumbnails>
            <rdf:Alt>
               <rdf:li rdf:parseType="Resource">
                  <xmpGImg:width>244</xmpGImg:width>
                  <xmpGImg:height>256</xmpGImg:height>
                  <xmpGImg:format>JPEG</xmpGImg:format>
                  <xmpGImg:image>/9j/4AAQSkZJRgABAgEASABIAAD/7QAsUGhvdG9zaG9wIDMuMAA4QklNA+0AAAAAABAASAAAAAEA&#xA;AQBIAAAAAQAB/+4ADkFkb2JlAGTAAAAAAf/bAIQABgQEBAUEBgUFBgkGBQYJCwgGBggLDAoKCwoK&#xA;DBAMDAwMDAwQDA4PEA8ODBMTFBQTExwbGxscHx8fHx8fHx8fHwEHBwcNDA0YEBAYGhURFRofHx8f&#xA;Hx8fHx8fHx8fHx8fHx8fHx8fHx8fHx8fHx8fHx8fHx8fHx8fHx8fHx8fHx8f/8AAEQgBAAD0AwER&#xA;AAIRAQMRAf/EAaIAAAAHAQEBAQEAAAAAAAAAAAQFAwIGAQAHCAkKCwEAAgIDAQEBAQEAAAAAAAAA&#xA;AQACAwQFBgcICQoLEAACAQMDAgQCBgcDBAIGAnMBAgMRBAAFIRIxQVEGE2EicYEUMpGhBxWxQiPB&#xA;UtHhMxZi8CRygvElQzRTkqKyY3PCNUQnk6OzNhdUZHTD0uIIJoMJChgZhJRFRqS0VtNVKBry4/PE&#xA;1OT0ZXWFlaW1xdXl9WZ2hpamtsbW5vY3R1dnd4eXp7fH1+f3OEhYaHiImKi4yNjo+Ck5SVlpeYmZ&#xA;qbnJ2en5KjpKWmp6ipqqusra6voRAAICAQIDBQUEBQYECAMDbQEAAhEDBCESMUEFURNhIgZxgZEy&#xA;obHwFMHR4SNCFVJicvEzJDRDghaSUyWiY7LCB3PSNeJEgxdUkwgJChgZJjZFGidkdFU38qOzwygp&#xA;0+PzhJSktMTU5PRldYWVpbXF1eX1RlZmdoaWprbG1ub2R1dnd4eXp7fH1+f3OEhYaHiImKi4yNjo&#xA;+DlJWWl5iZmpucnZ6fkqOkpaanqKmqq6ytrq+v/aAAwDAQACEQMRAD8A9U4q7FXYq7FXYq7FXYq7&#xA;FXYq7FXYq7FXYq7FUs8waodP06eRCROY39Fl9IsH4niQkskXM1/ZrvirxXyjqnmjT9euILXWVQtM&#xA;fVtr5lImd6uzFDJxBPdlkr74q96gaRoI2kp6hUF+P2akb03P68VX4q7FXYq7FXYq7FXYq7FXYq7F&#xA;XYq7FXYq7FXYq7FXYq7FXYq7FXYq7FXYq7FXYq0/Pg3AgPQ8SRUV7VG2KvLNO/Oq8W8ksNU0VvrM&#xA;EnpTtayfZcP6Z+CSlPi23fFXpmn3qX1nFdIhjWUVCMUZhvTcxtIn3NirGfPUjPbXEPAuiwEn/Rku&#xA;l3DV5CokXqOmKvNPJ1vI+t3aRq3FbpBxjgiEZ+Ein1eb4/kK7dcVe8gAAAdBtirHvMfnbTNEt5ZG&#xA;U3EkYr6aEDciqip/m/t+zUhVKPy//MtPNV/e2ktqtlLCqy20YcyFo68XqSF3Ukdu+Ks4xV2KuxV2&#xA;KuxV2KuxV2KuxV2KuxV2KuxV2KuxV2KuxV2KuxV2KuxVCavfvp+l3d8kJuDaxPN6CnizBByIBNd6&#xA;DFWI6N+cXlHUpEhYXNrO+ypJC0lW8F9H1D+GKsi8xPI+lB4PUHMggRsI5CCCQOL05e6HrirwnzPH&#xA;6Nw1zC26uQ3pVj48jVlaEmsTE7/Dt9GKs5/Ljz6DbJaXbB1r8T7KVbu1BtQ9/A+24VRv5g3UHqPO&#xA;fTIAorOk0bUoAeM8X2evU4qxP8vDCfME0zmP0xdrylJaRQqqa/6U/anb9rFXoPmfzlFBFJFA/FRU&#xA;M1BXYVIKtTx3rsv7f8hVeOeZfMLagxtkJcufdtyd6E/Hv3r8THrQALirPfyf8pwwXDarNvcItYqE&#xA;7B6gGoNCCtfn1GwBKr03UdW0/TovUvJRGtGPcmiDkxoOwG5PbFWOeXfzO8v6/rraRZpMknps8csy&#xA;hBIyU5Kq1LV41O9OhxVl2KuxV2KuxV2KuxV2KuxV2KuxV2KuxV2KuxV2KuxV2Kpfr2vWGh6edQ1A&#xA;utojqkkiKX4czQFgN6V22xVC6Z518p6pQWWq28jt9mJnEch+SScW/DFVHzfdXcFlSGVokdWEjBea&#xA;U6Ufj+8QGv2lOKvCb5m0e9WSABYmIHEcXiPHuCoCsGU0NRXvir1TSvN1nqnlxbaX0+caqqFwzIwA&#xA;pRqVdSPEb/jRV595zQ9ZKmopCXIfY/75nX7Y/wAht8VYXaXUtrMs0Roy/RillB85epaGCWSUch8R&#xA;SR1ptSnGjIegPSn0EBVCh5d12KzmnlMrCV5C0VWZW3QrWgBQHp8Q+Ifs79FUFq/mCa6YqjfDtRgO&#xA;PQkjYHahNQPp3bfFKC0mBrjUIkpyJbpQmp8Kd6+GKvctB1u00jQWIblPJuPiFAooOdab7tx5EbnZ&#xA;QRxXFDBPN/nCa49VDIeTVQ+OxqAVJNOJ7V2O7Fn+yqp/lT5ZubrzFbX8rtAlu/qIwNHLKOVB7Mp+&#xA;L2PuMVe9ySRxoXkYIi7szEAD5k4qkkfnnyrLrMejQ6hHLqErMixxhmUMoJIMgHCvw0pXriqe4q7F&#xA;XYq7FXYq7FXYq7FXYq7FXYq7FXYqg7/WNK05oVv7uK0NwSITM4jVitKgM1BXfFUVFNFNGJIXWSNt&#xA;1dCGU/IjFWIfmHcTzabcaV+79C7j4lZFKlmrUcJC3AkNTY8fnirx7Sr+PQ9bX90icCQvNSroG3+2&#xA;fi+Fv2q0IxV7Dqmt2esaXBPbMBcLX92snpyAkDeNj8BrTbl16eOKvHPNqASybfHWsoC+i9f+LYTs&#xA;D/lr1xVJ9J1m6sHokjrG1K8SQRQ1qNxilNtQ1uG+icSyKruvKRoxxVn+y3OLZfi6gx+P0BQxnFLW&#xA;KuxV2Kpr5fMYuyWK8uJCqd6k+w3PyHXvtXFU11LzKY7YW8JPKpLEmtWP7XIU+KhpyGwGyU6lQxwP&#xA;JcXCFzWpAoKbKOwrsABil7j+XsltpunvcTbEII1UAklmPIKO9W60+0ftN1AVQlnm3zuzsT6gVV+K&#xA;NA1KdRyBUmp7cx06JVquFXnvlXStT1bzJA9m7QyxyrIlwAP3ZRhxNPY02+jqRir6ZXlxHKnKnxU6&#xA;V9sVQ91qmmWksUV1dwwSzsqQxySKrOzGihVJqST4YqicVdirsVdirsVdirsVdirsVa5LyK1HICpX&#xA;vQ9/wxVvFXnH5qlNV076gYOX1SYTGWNuUqAAq37oqCQVavw17dOyrBfy91Wx0jW4uY35AM6uwBoa&#xA;NsSVYFfi6A1qMVenecJYru2WaAl7eWP94wUSp8JIIlgPxEDoSN174q8S8ybSqyfZ5HiVf1I/9gx+&#xA;ID2bp2xSr6F5pvbYLbu/PccA4Dqw7qwJH2gPv32NCFV/mC8gu4PUjPwndVJ9RACNjHKfiX/Vfft2&#xA;OKGMYpdirsVdirsVdirsVbJJJJ3J3OKozSIw99HXYL8VfCnzBH37Yqy658wfVLN0D/a2oK/ZI6FT&#xA;vQ1JP7T/ALRC7FQw69v57uUs7EgmtCa1PSvzp/QbYper/lXZRRPHNIQiRBndm6fuwa7Gn2Sf9jXu&#xA;xJVQyXzP53hjjaC3JCNsXG5bkKqKChow6KCC3WoX4iq8S1Ca51bzGXtyWnllURtHu1a/DSnEV7Cl&#xA;B2G1MUvprSXvn0y1a/CremJPrAQ1XnQciPmcUIrFXYq7FXYq7FXYq7FXYq8g/N4peXdhqFi0ttcW&#xA;yvC12CAjAkNGodGJUhqj4qdcVRP5YeaZmuWttQ1O6uFaoX6zIsiqKVWvIB0IoQ25FR4b4qmvn6Me&#xA;u7S/ZqBH6pKgGgP7q4XeNv8AJbY4q8Y1mSaHUS/xLIpqOYAfbpUr8LfRilkuj+cGmgWG4C7AK1X9&#xA;Mqeiusm3EjpUmlOvYqoSTzNIkshkWvMmj819OYUNCJAvwvQinIfLFUgxS3U9cVaxV2KuxV2KuxV2&#xA;KuxV2KtqzKwZSQwNQRsQRiq+WeaUgyuXI6VNeu5+/FW7ZOc8a+LD/Pvir0G21c6bayIXKR8Agj+E&#xA;AslK7HY8afZPwJ+1ybYqGI6xr895K3EkKSak1qeX2hv1qftE7t38ApZV+WemrPexPIAXkYAu1QeL&#xA;krWvvuPE9BQczih6/rvma109GiiYNMKqxBWiECpG5A5Abmuyjdj0BVeG+fPNGq6nqH1ZruVrdVA9&#xA;AO4Q133Q0r16kV+QooVe4+Rr7Ub3ytYTaijJdiMJIzf7s4bLJX/LWh+eKp7irsVdiqU635s8uaGP&#xA;9yl/FbvTkISeUpHiI15P+GKpFo35n6ZrF46WdpKtjH8JupiFLyVA4xxjlX7Q3LDqBSrDFWYQTwzx&#xA;iSFw6How+/FXlvnOMrc3HCpnFQ/ACOYr/lxH4JV9x8WKvLItQk07VPXhC/C37AKd9xTqvy7HFLOo&#xA;PNsOoWnGR2X93QPH8ZHAbq8R+F1C/FQUIFabCiqGC6+F+sDgFEa1AEZJT6A3xJ/q9sUpYrMpqpoe&#xA;n34q2ZZSnAuSgNQpJIrSnT5YqsxV2KuxV2KuxV2KuxV2KuxV2KuxV2Krkd0YMjFWHRgaEfSMVV7j&#xA;ULidFRzsAAQBQELsuw2FPb59cVQ4BJAHU4q9F8sag+kwxPGfTohd3Gxow4faA+Gp25UJ/ZQHuoSb&#xA;zF5qnmlKo1SNgOwoaju3Q7hamh3JL7hVR8nWC6hqSyzL6hV/hU/EK7tTfr3NCfdvhBqq+j7GFYbO&#xA;GJeioBUksSabmp674q3dXtpaIHuZViViFXkdyzEKAB1NScVYyv5kaEutwabcOIIryIS2l4zD0y3N&#xA;k9Nz+yaKGB6b0xVlmKsR/MjynpOuaM0lwpTULcEWdyg+IMf2X8Y+7eHbFXkkml6xosgWzZpoR8Jt&#xA;5abt0+Ejap50p/lFdw681WTeVvzCcTJGWKTmlbeSvInqQK/b5dR+0fd/7xVEeZtVtL5JZAVCVMix&#xA;yNzhox2ZZF+O3b8PopiryvV1db1ufKvWrEE0+Y2PzxShobmeH+7crQhgfAqagjFXTXM0wX1W5FRQ&#xA;GgBoO1QMVUsVdirsVdirsVdirsVdirsVdirsVdirsVdirsVdirYJBBHUYqmEut3ckAj2Rx1kXY9K&#xA;V27029hsKDqql5JJqcVeifltBBHJFLcsscfIF2cbAVDdKb+PHv1bYKGUPQNf/MyytCIbH4pGO0jD&#xA;lVQCXKJUfZFDViF9/tFVXmureZ9W1b1Xld+LCT1B6h4oZP3bL6h+18J48EFNz0HIYqi9K/LvUfMA&#xA;mSV2gdamCV/hRSnEP+6A2Ulgpq3Kq16grir3fFWnRXUqwqp6jFWN655ShuQ726ghusJAI6Ebctj1&#xA;Ox8SPsmmKvMvMXlSKjNKpVlNVLEhwamtCasenQ1Pzf8AvVWHy6ndWVwR6vrgVHI/DJwcVKkiqsrV&#xA;rX4hXcbGpUpTPO0xBYBSBT4dh86ePjiqlirsVdirsVdirsVdirsVdirsVdirsVdirsVdirsVdirs&#xA;VdirsVdiqbaNdzCVY4mf1ukYBAHEVqNyAo7k/P3qqyPS/LOq6mSwSquC68uXF3lYLHXmC8hYguee&#xA;23tQqHp/l38vLGyeOeb43jZBG7AcvTh3jABHwhnJcj5Vqd8VZjbW0FtCkMK8I0FFHt16n54qqYql&#xA;2u6/pmhWJvdRkMcAPEECpLUqFHucVYLd/m/bzR0tIjblvsM9GYqTs3QgVG4FD9JHAqsF8wedkv5a&#xA;s5kYfaep3I6fzf59z8JRVhlzKJp3kApzJYkkkkk1JJOKVLFXYq7FXYq7FXYq7FXYq7FXYq7FXYq7&#xA;FXYq7FXYq7FXYq7FXYq7FXYqrWlzJbXMc8Zo8ZqDirMPLv5hTaYoVmcsEt1DkmoaFip6dvTPH78U&#xA;PQNP/NrT1QtcyrNConaooJOMZDR7DuytTfviqcT/AJo+VIfSJuOQeZIHIIITmFPI0J+FQ2/yOKsv&#xA;5CnKvw9a9qYq8m/MLyD5kvZxql1rKX4WQLBYtE0KqCalI1VpB9kEk/aNO5xVglx5Vvxy51BFAvEh&#xA;gwP2KEUHxfsHp+z16qpRc6JcwgncgAkkqQKA0rv4HY16HrilAyQyxkh0K0NDUU3xVTxV2KuxV2Ku&#xA;xV2KuxV2KuxV2KuxV2KuxV2KuxV2KuxV2KuxV2KuxV2Kro43kcIilnboBiqOg0eeUAqakrE9FUtt&#xA;K3Efdiqb2/kyZgVl9T1KzgKq9PQWvU1ruRXFCYQ/lbrF5NHDaOivI0O8zUCrNC0u/EMdgh6Yq9e/&#xA;wtrX+Bv8O/pUfXfR+r/X/TP9304U5V+x8HLw7YqyK7gtJYWF0iNEAeRelABuTU9Ps1xVhOtT+UTH&#xA;JJa3KzMpZWRTzTmaqQd+jkUfrU0/apVV53reoxRkceB5Fqqp5HuAxJqa8fh3HxDZqkEKqwq7lZ5S&#xA;KjgOgWtKdutfHFKHxV2KuxV2KuxV2KuxV2KuxV2KuxV2KuxV2KuxV2KuxV2KuxV2KuxV2KphoN3H&#xA;Z6vbXEtBGhPInwZSv8cVZ1oWreX3s44ncxyLa2UcpqNyk1SK06r+rFDO9HPlhnYTOUlL3tWY7Hke&#xA;Ew5fI16YqyiEaJZsjRtEjSmOJGLVJZUCRqCSd+LUHz98VTDFXj/5m6x54vm+qDSLjTtFSQK9wKO8&#xA;lWCgvJEXVFJpRRXenXbFXnjR6jwCQjgkQ48a0ACnjWvzPxe/sd1KXXMV4XLT8i/fkanbYjfwpiqG&#xA;xV2KuxV2KuxV2KuxV2KuxV2KuxV2KuxV2KuxV2KuxV2KuxV2KuxV2KuxV2Kq0dvctRkRv2aHp9o0&#xA;X8cVTSC28xSQMFkcRsJUKs4+IBf3g38QMVVbn/FpMaNJPM7TRPAI+TMZeAMZTiKnZNqeGKvdf0z5&#xA;q/wJ9f8A0XJ/iH0OP1Si19T7Pq8K1p+3w69sUJ5q2lpqNsIHcqoNaUDKdqUYdxQnFWGaz5NWANIz&#xA;KY935fCW+Ebn46VZV8dmXZt98Vef6ra6elQqVUAqTTiAVYrQVq3UfDUVU/AwxVhd7JE0h9OPitdm&#xA;O3Tw3Ip374pQ2KuxV2KuxV2KuxV2KuxV2KuxV2KuxV2KuxV2KuxV2KuxV2KuxV2KuxVMdAitpdYt&#xA;o7kVhYkMPfieP/DUxVnGjeXrCeyikDRySPa2RoWPwsZtzT3HtihmmleTYblmkrC1Xvfg2NBKOMZI&#xA;6/CdsVZTpnl2KymWYycmUQBVVQoBhgaH7jzJxVN8VebeffzWtNPJ03QZludRJKSzKOcUddqBhXk9&#xA;ey/rxV5tP5z1kxgPcSzyMKzSOWYkglj16AEkinbwNSVUlvtavbr4XPFR+yPlx7+23y26UAUoBmZj&#xA;ViSfE4qtxV2KuxV2KuxV2KuxV2KuxV2KuxV2KuxV2KuxV2KuxV2KuxV2KuxV2KrldlIZSVI3BBoc&#xA;VRVtqt/bf3UzKKIpHsjclH0HFU/t/wAwtchBeKizfvyJRXZp6EmnsVJxQmdx+b/mpvSI/dtFPHIA&#xA;a0KIq1jbpXnx3+ZxV7D/AIz0f/CX+Juf+g+j6vCo58/s+l4c+fw/PFVDzR5Q0vUrWkWm2xuCwZ7g&#xA;RxrMAN/gela139xtirANR8kLAzL9XEbV5U5EUqdiGbotfsMfsn4X8cVYvqvlyGGoccTQnjSn2TQ/&#xA;DuwFdmHVD4qcVYveQQQyMiMxIPQgbfOncYpQ2KuxV2KuxV2KuxV2KuxV2KuxV2KuxV2KuxV2KuxV&#xA;2KuxV2KuxV2KuxVGaRYfX9RhtOXH1OW/+qpb+GKsn07ym01rHNQKrQWky0TkSZJSpxQyqw8lu1Uj&#xA;jdYQ1+AQtCeCfB17NirIdO/LbS5riNr+wD28f1ZysjU5stuwk5BaEn1GWtfDFWa/onS/qP1D6nD9&#xA;Rpx+q+mvpU8OFOOKpZ5s84aX5atFmuzzllqILZCPUcgV2XrTxPQYq82vvzbuLuCkyRx8weMKjoGr&#xA;1Y9fhNDuO422fFWE6p5kExPog1Ygk12AFQKbe/YDbagFVxSkLvzYniFqSdvfFVmKuxV2KuxV2Kux&#xA;V2KuxV2KuxV2KuxV2KuxV2KuxV2KuxV2KuxV2KuxVWs7qS1uY7iMD1IzVa7iuKsg0vzzqVlGsRJe&#xA;NI4YlFa0EL8qgHapG2KGZ6Z+b0ForHdk/wBIf0GG+9GiFfHcriqcz/ndoqekY4i49aNJqVqImVS7&#xA;gGn2Ty29sVejfW7X6p9c9Vfqvp+t61fg9Pjy5V8Kb4q8187flhYTStqov7y41CaQfBcMkqUrWmyo&#xA;VXsN6AkDYYqwe88mNGHMhJI5EMylfhB3LVqRTo/dDvupxVJb3y5NEzAbcagg7NUCpBAr8QG9B1G6&#xA;1xSlM1tJDXkQabVBqPo+eKqOKuxV2KuxV2KuxV2KuxV2KuxV2KuxV2KuxV2KuxV2KuxV2KuxV2Ku&#xA;xVVtbaa6nSCFeUjmigewqfwxVNbXy7POgZUdv3cEppQDjM5Xv+GKp7a+RlYmJojJIDdgtzIH+jr7&#xA;eB+/FCa2n5TLqFxHAlyLYEwNK4UycVmt3lIAqn8gG/c4q9P/AME2f+D/APC/1y5+qcOH1jkvq05c&#xA;+NeNONdqU6bYqnV9eWNpbvLeypFAoJdpKUoOuKsB1Pzh5RukaSyBFKgT14AslQGA3+yOjbbf5FSF&#xA;Xn2t65CTyWQPEvwqlONRWoFF6UJPH+T2H2lWHXMxllLlixqaVAG3Xtt1OKVLFXYq7FXYq7FXYq7F&#xA;XYq7FXYq7FXYq7FXYq7FXYq7FXYq7FXYq7FXYqjdHvhY6lBdMKrETUDuCpU/rxVmei+b9GS0it7i&#xA;FQY4LSHkCRyaOWrgj261/hihn2j+ZvLKK31hEWMNeOZhSlABzPydDXr44qyU+aPLVt6Si5jj9aSO&#xA;BQNvjcLwU/Qw+WKp1iryL8ydI/MPUHE98bYaJBIpS1tpagVNOT+oImdgpNT0Aqdtzirz+fRdTZae&#xA;m0RiJUqARuvYDrUD4vdd/kpSu4028jb4lL9BUb9RUU8QR0xVCMrL9oEfPFWsVdirsVdirsVdirsV&#xA;dirsVdirsVdirsVdirsVdirsVdirsVdirsVdirYBJAAqTsAMVRCafcOAaAAhCKntI3FemKplB5bv&#xA;yh5SiL+9BT4if3a8mr067Yqix5I80TtHDawSXLSvHwT7I/eRF0YliAPhRuvYYoe3/VvO3+BPqnKH&#xA;/Enoel63qGnhz5cf7zh9HLeuKsgvrC2vYwk4J4HlGwNCrD9odq4qxrUfI0cgP1fiygUVD8BoDULU&#xA;eB3Q/sn22xVgfmbSbHTGZLngsvcEUHxb7qDTf9tR/rrtXFXnGpSlpCAhRDvvQkke4qD4e/XFKCxV&#xA;2KuxV2KuxV2KuxV2KuxV2KuxV2KuxV2KuxV2KuxV2KuxV2KuxV2KoiylaGdJ1/3Wa7ryXcHqMVZ3&#xA;5XXTryGOJVQzmG2iLoATVJa1Cmh5EVQ06mnXkBih6dp3lC2b9/66uGa6bmlCON2opQfTyH0Yqntl&#xA;otlaSeqnJpAIgGY9PRiMKkAU/ZY4qj8VU7m5t7W3kubiRYoIlLySMaBVHUnFWBeaPzLgjU2+ln7R&#xA;/wB6qVqi/bZBUV9q7d2IUbqvMru+1HV5wASxnf4qmoAU13buAetftNTZ9qKrX8ru6FpSP3n730vV&#xA;EcvdYx8YKkt1pWvso6qsf1WH0bj0uBQrtxZUDbbbmP4T0xSgsVdirsVdirsVdirsVdirsVdirsVd&#xA;irsVdirsVdirsVdirsVdirsVZr5W0H1bejqxE26V9M1PGnwoGJkPIfD4/Z/3ZsoU9R8qXlnL6+mM&#xA;UY1CojEg1K8QrbV3ZeJ71jbq3wqpt5b/ADKvLOZYdRJjckMJTUL8VTUgfshmr/qswG4Sir1HT/O+&#xA;myWjXF04jhjRnkmrXiqVrypt8PFgadxt9pKqslxV5l+dvmUWulwaFbmt3fn1JqfaSFTQUp/vxtvk&#xA;CO+KsB8v6JqmryLFHbzetwUDmkipyr8NZGqBt8VSa/y06hV635c/LvTtN+Ob964QRIenw1qzexf7&#xA;+O1dziqTed2KmdQJDbq3ELwS8gAQbD00o8fyxV4tqRDXRCcaCigR14167L+zuemKURbaNPLAWAUu&#xA;y1RSwXbkBXcjbrTfc9MVUdQshaBY2DeoSftoyNQeNSV+7FUFirsVdirsVdirsVdirsVdirsVdirs&#xA;VdirsVdirsVbAqQPHFWR2OlqdNIZTzILFyvEHuQDv0Ug1I/UBIoSW70+e3JLCi12Hfv2PyOKWcfl&#xA;jdxG6jhaJXJcK6JZ+q7AnoZSaL8+uKHruqeVLa6DGEKC9eSP9khg1egrQ82BHgzf5PFVgXmTyHHP&#xA;y9aJkkNSH+0/xkmpC05HlU7dW5U/vUoq881zS9e0aA2sxl+oXADhwGMZAYLTnQKRyiHTYgKfDFX0&#xA;9iqz0IPVM3pr6xFDJQcqDtXr3xVtYo1ZnVQGY1Zqbk0A/UoxVdiryL8wLuGGZwYw871+LjJbSqGa&#xA;pNY/hYdqHr3xVguh6O2paiZJiXFWLGVgOmxL03p8uvQYpZ3faALK1M08ZEexAmtjLGSFqDIyHlGf&#xA;5V7DFDzPXWQzjgVK/s+nIZUHcgct169BilDWmnzzjkqlj+wg6saVAA7k/wBvTqqtmszBFykIEhP2&#xA;KlSNt/hYb77bYqhcVdirsVdirsVdirsVdirsVdirsVdirYBJAG5PQYqnsmiKNOWRQC1N3ow3oDsS&#xA;BXr/AJjjzVSWWGWI0dStemKvR/y/tbe7tSVMBupAR6QeR5zx36Abb1P2gfAg8WVQu1vy1zLF46L0&#xA;C0+0fhAA4gbbr9kb1XiN4lxVjWjH9Eaz6oGyUK/vOABPRiQeJBFe9KVIPGj4pe++U9cXW9GjvkX9&#xA;2WaNZKEK/D4WZa705VWu1aVoOmKE2kjSRCjjkp6jFXCOMRiMKBGBxCADjxpSlPDFV2KuxV2KuxV5&#xA;R+Zvl/UtR8w6XpGgQuZzFJPcsXcxokjqoZy5ZUX92dh16UOKsg8k/l2mjyPdahKbm6rxUEkp8JoG&#xA;Cntt8Nd+59lUD+YF3bwzzuChlAWNvSmeG4q9AAA37t+nb6dsVeSfVZ9U1Sr8pKtQtRGc8q0UcKK5&#xA;22oKeO2KWbW/lmOCySeYRxw0O8okMRoasolSp3/af9o+2KGHeaGA4qhPp0AUiUTx7/F8Ln4+3TFU&#xA;jt7eSZiFBIUEsQCaAd9sUti0kJc9AgZqGgag/wAmuKqGKuxV2KuxV2KuxV2KuxVciM7BV6kgD5nF&#xA;UzvdIWKBZYW5g/tA1r02/Ef7RTkql0NEmjLg8agnp0/2W2KvUdD06O7sWIUPIUB+KQTSU5bcgpUg&#xA;ktXqKk7EVDRqEi1ny4zkuU+H9jjuWJoBSgFR8S0oBWq0A5IqqrvIvmC40m/RBLN9XjYco1mijiIO&#xA;/wARNK7LXrSgJrQ8gq9judO0/X9NivrYApOpZSBtIh5DavHZuTUr1DHpybFXnnnnyBq0Wjz6zZkq&#xA;0DcprVeRcxLy5Sg+Pxb7VIqxpXgFXpvlPSv0T5a03TyvGSC3QSj/AIsYcpP+HJxVNsVdirsVdirs&#xA;VdiruIqWp8R2J70H+3irsVeZ/nLC9vplq0DzXF1e3iolqfjUqEJ4oAOf2uOwO+Kpd5G/LfVReJc6&#xA;vH9UjiUf6KAvJuYDEMwqQN6Ghr2r1oqyzzmyW0QSAtEIYdzDNHC6rU/sSUR14r0GKvENcBvdRdYw&#xA;C1WZ3aL03AFAS5Wq++368Usk07yukVogooYkEmUlN6FgzEfZbb4FOw6tihKvNEP1eExgSUO45mOZ&#xA;G5GpdZE+KtBuWxViqqWNBuTilUW2leQxotStanoNhvuaYqpYq1irsVdiq+KMySKg25ECvhXFUTfa&#xA;dLakctwRuQQRuAdiOoow39wejCqq3TpXju0KlgW2HHiSSego/wAO/vir0iHQfV0sPPHI0rGtJXWR&#xA;gD0+wQN9yd925birNEoYlq/l9wzTKCq9iN+XT2X+YdhWo2HIKqll35V61FBMLa7Zvq5UxsgiT0qM&#xA;Du79SvEHfpQV6AkKGe6/5YhuYvrMB9S3ccmGxJDA71bYg82rXxNdmkLKvLfN/lDW9PmtpktwbXVp&#xA;fRiY8uayScQqvWjDkQWUncgnkASVxV7xYWcVlY29nDtFbRJDGP8AJjUKPwGKq+KuxV2KuxV2KuxV&#xA;2KuxV2KuxVSktLWW4huJIlee35CCRgCyc6BuJPSoGKquKsI/NO3aLy3e6i8qenCqKIGjRmYuyx/B&#xA;I26H4q9DirzTyd5b1jWryGWG0WC0b42uZlY1HIgGIAoD9k0oAta+Gyr1jV9LTTtKSC1EvNg3Noij&#xA;uxNKkxv/AHn+ftRV4n5smhe5aOIRiTmefCJ7Zyfs0eLoT74qq6B5ZeVBMylun7Xp1IIqoc7LT9pz&#xA;sOnXFVbXdMS0tyJIuBZQQZYQy79CkqbKAvTlirDtyfc4pVDbyho04kvJTgoFSamgp44q3b2s084h&#xA;RT6hNOPfw6eOKtXFvJA/Ft/Bh0O1dvv+7FUboERl1FFArXwiMx+hOn37djtirONR8vCS0SWSJ+TA&#xA;kq6lSN22KsfHl1O+9SP3jRqGFahpM0MhlVaJWvxAkHfr0G30b+A6BS9e/Le90vUNOOnzrCvwfuhH&#xA;HxFaEH4n5AnZtulB88UK3mTyoys5cfuTWjilCKNUfFt0LV5dia1BlLqvNz5b1JPNVloNxBJB+kZU&#xA;bk1QHgeSrMAd6FEHLlRqrvir6MAAFBsB0GKrJoIZlVZo1kVWWRQwBAdGDKwr3VhUYqvxV2KuxV2K&#xA;uxV2KuxV2KuxV2KuxV2KuxVBavo2n6vbJa6hF61ssiytCT8LlN1Djutd6fwxVFpFGgVUQKEHFAAA&#xA;Ao7CnbFUg852s8umSzKkTw2sUk0vrcgAEUtUMh5g7dsVeDaTBdavexRWkclzOSFdQ3pcEA68/jCK&#xA;P9oYpe1W3lpNL0HkyFrgKoISET8aD/fb8RxX3+Z36KHlPm+eAPKsHpA1YgQM8bCg4jnbv8P0/diq&#xA;S6FoT3TrI4+HY7ioAJoCQNzU7BerHbFLIr3y1FZxSXFxEEYqVQSBanjViAW/dSn+fiysOgrihK9A&#xA;skbUVR0Vw7skYb4D/eMCQshPLbqG2/mqKgqUx17yyqsXcN6gqWBr1qf5qHqGryPWvLcSlFDFYI5t&#xA;PvUmIPphqfbeKo7/ABLRh/nt1GKXtvlK107XNEkEJg9eI/EsUkki1bb42kDAk8OoBHiD0Khj3mXy&#xA;w7LMkqFAoP2hTehPc9hU15eO5HNpVWPeRoLu5842GkD1YxBL6l9E/NQFgUSNGwY1A9RFQgjfitcV&#xA;e/uiOOLqGFQaEVFQag/QRiqGudKsLm+tL6aENd2Jc2037S+ohRx8iDiqKxV2KuxV2KuxV2KuxV2K&#xA;uxV2KuxV2KuxV2KuxV2KuxVB6zpq6ppV1pzStCl3G0MkiU5BHFGpXxXbFVDRvLWiaNZxWmn2qRRx&#xA;GoalXZj1Z26sTTv7eAxV3mGCWexCRxCZg/IJ+8BqAaEGPoa+O2KvnrV7sXeovHNK8/pzNGsbFpGQ&#xA;l2AXccnPiQfCmKXqnkTyg31eO5uYngVSSFcASV6b8SfjI2Zv2R8K71IUNfmFbxW8F0BSGJ4iuwES&#xA;sAlePxAwSU/lbi/gcVYV5Ik9HXV3SNfVdSu8BJWWNwKScuXHl8KEih74q9S8weVIJo3mhU8RuYh2&#xA;Ap0oGNBxXsdgNjxClV5f5l0F1glmUlViHIFQa/DvsF5fZFT12p12LSqo/wDKS8v7nzGllFOz2lnF&#xA;JNdMCOLHaJYxQD4ORDbfaCrXZQAq9kmtLado2ljDtGQyE9iDUfPcA/MA9QMVS+Py1pkXmSTzBGnC&#xA;/mt/q0xH2WHJSGP+VRQK+GKprirsVdirsVdirsVdirsVdirsVdirsVdirsVdirsVdirsVdirsVdi&#xA;q2T1PTb06epQ8OVaVptWnbFWG+Vfyu0TRYBLcVvNVYh5b07cT3WIfsg1Ir9r3G1FWZoiIioihUUA&#xA;KoFAAOgAxVhv5gRKltNMW9IPCVaWvpDofhLsGhbpXjIPkcVeZ+VbiK11jm8scUVX5OaWy8SkMnEm&#xA;XlGQKfYag674q95s5kntIZkPJJEVlagFQRUHaoxVDzaLp812lzJGGMe4Qj4SwIIYj2Ir86Hqq0VS&#xA;ryv5J0/y9qmq3dlQRai6NHDSnpKvIsi/5PJtsVZHirsVdirsVdirsVdirsVdirsVdirsVdirsVdi&#xA;rsVdirsVdirsVdirsVdirsVdirsVQepaRY6lE0V2jMrI0R4uyVRxRgeJFQfA4q8g/Lz8s7q71u4v&#xA;NcUtYabcPFHG9aXE8TcSaHqi8d/Hp44q9rxV2KuxV2KuxV2KuxV2KuxV2KuxV2KuxV2KuxV//9k=</xmpGImg:image>
               </rdf:li>
            </rdf:Alt>
         </xmp:Thumbnails>
      </rdf:Description>
      <rdf:Description rdf:about=""
            xmlns:xmpMM="http://ns.adobe.com/xap/1.0/mm/"
            xmlns:stRef="http://ns.adobe.com/xap/1.0/sType/ResourceRef#"
            xmlns:stEvt="http://ns.adobe.com/xap/1.0/sType/ResourceEvent#">
         <xmpMM:InstanceID>xmp.iid:AAD2D90B356FE41195E3D1493AEF96AB</xmpMM:InstanceID>
         <xmpMM:DocumentID>xmp.did:AAD2D90B356FE41195E3D1493AEF96AB</xmpMM:DocumentID>
         <xmpMM:OriginalDocumentID>uuid:5D20892493BFDB11914A8590D31508C8</xmpMM:OriginalDocumentID>
         <xmpMM:RenditionClass>proof:pdf</xmpMM:RenditionClass>
         <xmpMM:DerivedFrom rdf:parseType="Resource">
            <stRef:instanceID>xmp.iid:A9D2D90B356FE41195E3D1493AEF96AB</stRef:instanceID>
            <stRef:documentID>xmp.did:A9D2D90B356FE41195E3D1493AEF96AB</stRef:documentID>
            <stRef:originalDocumentID>uuid:5D20892493BFDB11914A8590D31508C8</stRef:originalDocumentID>
            <stRef:renditionClass>proof:pdf</stRef:renditionClass>
         </xmpMM:DerivedFrom>
         <xmpMM:History>
            <rdf:Seq>
               <rdf:li rdf:parseType="Resource">
                  <stEvt:action>saved</stEvt:action>
                  <stEvt:instanceID>xmp.iid:9FB6100F196FE41195E3D1493AEF96AB</stEvt:instanceID>
                  <stEvt:when>2014-11-18T22:56:30+08:00</stEvt:when>
                  <stEvt:softwareAgent>Adobe Illustrator CS6 (Windows)</stEvt:softwareAgent>
                  <stEvt:changed>/</stEvt:changed>
               </rdf:li>
               <rdf:li rdf:parseType="Resource">
                  <stEvt:action>saved</stEvt:action>
                  <stEvt:instanceID>xmp.iid:AAD2D90B356FE41195E3D1493AEF96AB</stEvt:instanceID>
                  <stEvt:when>2014-11-18T23:11:14+08:00</stEvt:when>
                  <stEvt:softwareAgent>Adobe Illustrator CS6 (Windows)</stEvt:softwareAgent>
                  <stEvt:changed>/</stEvt:changed>
               </rdf:li>
            </rdf:Seq>
         </xmpMM:History>
      </rdf:Description>
      <rdf:Description rdf:about=""
            xmlns:illustrator="http://ns.adobe.com/illustrator/1.0/">
         <illustrator:StartupProfile>Print</illustrator:StartupProfile>
      </rdf:Description>
      <rdf:Description rdf:about=""
            xmlns:xmpTPg="http://ns.adobe.com/xap/1.0/t/pg/"
            xmlns:stDim="http://ns.adobe.com/xap/1.0/sType/Dimensions#"
            xmlns:xmpG="http://ns.adobe.com/xap/1.0/g/">
         <xmpTPg:HasVisibleOverprint>False</xmpTPg:HasVisibleOverprint>
         <xmpTPg:HasVisibleTransparency>False</xmpTPg:HasVisibleTransparency>
         <xmpTPg:NPages>1</xmpTPg:NPages>
         <xmpTPg:MaxPageSize rdf:parseType="Resource">
            <stDim:w>260.000000</stDim:w>
            <stDim:h>400.000000</stDim:h>
            <stDim:unit>Pixels</stDim:unit>
         </xmpTPg:MaxPageSize>
         <xmpTPg:PlateNames>
            <rdf:Seq>
               <rdf:li>Cyan</rdf:li>
               <rdf:li>Magenta</rdf:li>
               <rdf:li>Yellow</rdf:li>
               <rdf:li>Black</rdf:li>
            </rdf:Seq>
         </xmpTPg:PlateNames>
         <xmpTPg:SwatchGroups>
            <rdf:Seq>
               <rdf:li rdf:parseType="Resource">
                  <xmpG:groupName>默认色板组</xmpG:groupName>
                  <xmpG:groupType>0</xmpG:groupType>
               </rdf:li>
            </rdf:Seq>
         </xmpTPg:SwatchGroups>
      </rdf:Description>
      <rdf:Description rdf:about=""
            xmlns:pdf="http://ns.adobe.com/pdf/1.3/">
         <pdf:Producer>Adobe PDF library 10.01</pdf:Producer>
      </rdf:Description>
   </rdf:RDF>
</x:xmpmeta>
                                                                                                    
                                                                                                    
                                                                                                    
                                                                                                    
                                                                                                    
                                                                                                    
                                                                                                    
                                                                                                    
                                                                                                    
                                                                                                    
                                                                                                    
                                                                                                    
                                                                                                    
                                                                                                    
                                                                                                    
                                                                                                    
                                                                                                    
                                                                                                    
                                                                                                    
                                                                                                    
                           
<?xpacket end="w"?>
	</metadata>
<polygon fill="#727171" points="128.743,54.466 125.956,58.18 134.02,61.588 125.988,59.817 134.048,63.229 126.021,61.463 
	134.082,64.868 126.052,63.101 134.113,66.509 126.083,64.742 134.146,68.151 126.115,66.377 134.176,69.792 126.146,68.023 
	134.208,71.431 126.178,69.665 134.238,73.073 126.211,71.306 134.273,74.714 126.243,72.944 134.305,76.36 126.274,74.589 
	134.335,77.994 126.305,76.227 134.366,79.636 126.337,77.869 134.398,81.281 126.367,79.503 134.43,82.919 126.399,81.148 
	134.461,84.557 126.431,82.79 134.492,86.198 126.465,84.433 134.525,87.84 126.496,86.07 134.559,89.478 126.527,87.712 
	131.367,86.158 136.282,92.277 126.789,85.824 137.576,91.245 128.083,84.792 138.865,90.213 129.375,83.756 140.162,89.177 
	130.664,82.721 141.452,88.141 131.958,81.688 142.748,87.109 133.25,80.656 144.035,86.078 134.546,79.617 145.331,85.042 
	135.835,78.589 146.622,84.01 137.13,77.553 147.918,82.974 138.423,76.521 149.209,81.942 139.713,75.485 150.5,80.906 
	141.01,74.449 151.792,79.874 142.298,73.417 153.088,78.838 143.592,72.386 154.378,77.807 144.883,71.35 155.674,76.771 
	146.178,70.314 156.963,75.739 147.471,69.282 158.258,74.703 148.764,68.25 159.549,73.671 156.477,66.811 151.057,68.434 
	158.716,74.266 150.736,69.983 158.398,75.816 150.417,71.537 158.079,77.373 150.102,73.09 157.762,78.923 149.779,74.644 
	157.441,80.477 149.462,76.198 157.121,82.03 149.143,77.748 156.805,83.583 148.826,79.305 156.484,85.137 148.506,80.854 
	156.167,86.69 148.188,82.412 155.85,88.244 147.868,83.962 155.527,89.794 147.55,85.515 155.21,91.351 147.23,87.069 
	154.891,92.901 146.912,88.623 154.574,94.455 146.592,90.176 154.254,96.008 146.275,91.726 153.936,97.558 145.955,93.283 
	153.616,99.115 145.639,94.833 153.296,100.665 145.316,96.39 150.416,96.317 154.787,102.142 145.292,95.688 156.075,101.114 
	146.585,94.657 157.371,100.078 147.875,93.621 158.662,99.042 149.168,92.589 159.958,98.007 150.462,91.553 161.247,96.978 
	151.757,90.521 162.544,95.942 153.048,89.485 163.834,94.907 154.339,88.454 165.128,93.871 155.632,87.418 166.418,92.843 
	156.926,86.386 167.71,91.807 158.217,85.35 169.004,90.771 159.512,84.315 170.296,89.735 160.803,83.282 171.588,88.707 
	162.098,82.25 172.882,87.671 163.387,81.215 174.174,86.636 164.682,80.179 175.467,85.604 165.975,79.147 176.756,84.572 
	167.266,78.115 178.053,83.536 174.975,76.675 169.563,78.299 177.219,84.131 169.238,79.853 176.898,85.685 168.922,81.406 
	176.584,87.238 168.604,82.956 176.26,88.792 168.282,84.513 175.943,90.345 167.968,86.063 175.625,91.895 167.646,87.62 
	175.305,93.452 167.328,89.17 174.99,95.002 167.01,90.724 174.667,96.559 166.689,92.285 174.352,98.109 166.373,93.831 
	174.035,99.662 166.055,95.384 173.711,101.216 165.734,96.934 173.396,102.77 165.415,98.491 173.076,104.323 165.096,100.041 
	172.756,105.873 164.779,101.599 172.439,107.43 164.461,103.148 172.118,108.98 164.141,104.702 171.802,110.534 163.822,106.255 
	168.922,106.189 173.289,112.014 163.798,105.558 174.586,110.979 165.088,104.521 175.87,109.95 166.381,103.49 177.172,108.91 
	167.674,102.458 178.457,107.878 168.967,101.421 179.756,106.842 170.259,100.386 181.043,105.807 171.553,99.351 182.335,104.779 
	172.841,98.322 183.627,103.743 174.137,97.287 184.924,102.707 175.432,96.251 186.213,101.672 176.719,95.218 187.506,100.639 
	178.016,94.183 188.8,99.607 179.305,93.151 190.096,98.572 180.602,92.115 191.384,97.536 181.891,91.083 192.682,96.504 
	183.188,90.048 193.971,95.472 184.479,89.015 195.264,94.436 185.771,87.98 196.557,93.401 193.486,86.548 188.064,88.164 
	195.727,93.996 187.745,89.717 195.402,95.553 187.426,91.271 195.086,97.103 187.109,92.824 194.768,98.66 186.786,94.377 
	194.448,100.21 186.471,95.931 194.131,101.764 186.15,97.485 193.809,103.317 185.831,99.035 193.493,104.871 185.516,100.592 
	193.174,106.424 185.195,102.142 192.854,107.974 184.877,103.695 192.537,109.531 184.557,105.249 192.215,111.081 
	184.236,106.802 191.898,112.639 183.922,108.356 191.579,114.188 183.6,109.91 191.26,115.742 183.282,111.463 190.943,117.295 
	182.963,113.013 190.62,118.849 182.643,114.57 190.305,120.402 182.327,116.12 187.426,116.053 191.788,121.878 182.298,115.422 
	193.089,120.843 183.592,114.387 194.374,119.815 184.884,113.358 195.674,118.779 186.177,112.322 196.96,117.743 187.471,111.287 
	198.256,116.708 188.758,110.254 199.545,115.675 190.055,109.215 200.839,114.644 191.344,108.187 202.131,113.608 
	192.641,107.151 203.428,112.572 193.934,106.116 204.717,111.54 195.223,105.087 206.009,110.508 196.52,104.048 207.302,109.472 
	197.809,103.016 208.6,108.437 199.105,101.98 209.889,107.405 200.393,100.952 211.18,106.369 201.689,99.916 212.475,105.337 
	202.982,98.881 213.766,104.301 204.271,97.848 215.059,103.269 211.984,96.412 206.566,98.028 214.229,103.864 206.247,99.585 
	213.904,105.417 205.928,101.135 213.59,106.971 205.609,102.692 213.27,108.525 205.29,104.242 212.95,110.075 204.973,105.799 
	212.635,111.632 204.652,107.35 212.313,113.182 204.335,108.903 211.995,114.735 204.02,110.457 211.676,116.289 203.695,112.006 
	211.355,117.839 203.38,113.563 211.038,119.396 203.061,115.113 210.718,120.946 202.74,116.671 210.4,122.503 202.424,118.221 
	210.083,124.053 202.102,119.774 209.764,125.61 201.786,121.328 209.445,127.16 201.466,122.881 209.124,128.713 201.146,124.435 
	208.809,130.267 200.831,125.985 205.928,125.919 210.292,131.744 200.802,125.287 211.584,130.708 202.094,124.255 212.878,129.68 
	203.387,123.223 214.173,128.644 204.676,122.187 215.462,127.611 205.973,121.151 216.759,126.572 207.262,120.124 
	218.048,125.544 208.559,119.087 219.341,124.508 209.852,118.052 220.635,123.473 211.145,117.017 221.93,122.437 212.438,115.984 
	223.219,121.408 213.729,114.952 224.514,120.373 215.021,113.917 225.805,119.337 216.311,112.884 227.098,118.301 
	217.607,111.845 228.391,117.273 218.896,110.816 229.684,116.238 220.188,109.781 230.977,115.202 221.482,108.749 232.27,114.173 
	222.773,107.716 233.563,113.138 230.484,106.277 225.07,107.901 232.73,113.732 224.751,109.451 232.408,115.282 224.432,111.008 
	232.093,116.839 224.116,112.558 231.773,118.389 223.792,114.11 231.454,119.943 223.477,115.664 231.137,121.497 223.156,117.215 
	230.814,123.05 222.837,118.771 230.499,124.604 222.521,120.321 230.18,126.157 222.199,121.878 229.859,127.71 221.882,123.428 
	229.544,129.261 221.563,124.982 229.225,130.818 221.243,126.535 228.904,132.368 220.928,128.089 228.59,133.921 220.604,129.643 
	228.266,135.475 220.288,131.192 227.95,137.024 219.971,132.75 227.63,138.582 219.65,134.299 227.311,140.132 219.333,135.856 
	224.952,136.15 227.873,142.424 220.662,134.755 229.448,141.663 222.246,133.998 231.035,140.903 223.829,133.234 232.613,140.143 
	225.408,132.478 234.193,139.383 226.986,131.718 235.775,138.623 228.574,130.958 237.357,137.862 230.148,130.198 
	238.938,137.105 231.732,129.438 240.518,136.341 233.313,128.68 242.1,135.585 234.891,127.917 243.68,134.821 236.471,127.16 
	245.259,134.065 238.053,126.4 246.841,133.305 239.637,125.64 248.421,132.544 241.216,124.879 250.005,131.788 242.794,124.119 
	251.587,131.023 244.381,123.359 253.166,130.267 245.957,122.599 254.746,129.507 247.54,121.842 256.328,128.747 256.482,123.487 
	251.096,118.944 252.909,131.824 249.611,119.826 251.421,132.706 248.12,120.707 249.936,133.587 246.63,121.588 248.443,134.469 
	245.143,122.47 246.955,135.351 243.654,123.351 245.469,136.231 242.163,124.233 243.98,137.113 240.68,125.114 242.486,137.994 
	239.188,125.996 241.003,138.875 237.705,126.874 239.516,139.757 236.213,127.759 238.023,140.639 234.723,128.64 236.537,141.52 
	233.234,129.522 235.049,142.402 231.747,130.399 233.563,143.283 230.256,131.284 232.07,144.165 228.771,132.162 230.579,145.046 
	227.281,133.047 229.096,145.927 225.798,133.925 227.607,146.809 224.307,134.81 228.831,142.292 225.416,145.637 226.657,138.112 
	227.01,146.177 228.25,138.648 228.604,146.721 229.846,139.192 230.197,147.257 231.438,139.731 231.791,147.8 233.036,140.271 
	233.387,148.341 234.631,140.815 234.979,148.88 236.225,141.352 236.577,149.423 237.822,141.895 238.171,149.96 239.416,142.434 
	239.77,150.503 241.012,142.975 241.361,151.043 242.604,143.514 242.957,151.583 244.197,144.055 244.55,152.124 245.792,144.598 
	246.145,152.663 247.387,145.134 247.738,153.207 248.979,145.678 249.333,153.743 250.573,146.217 250.926,154.286 
	252.172,146.757 252.52,154.827 253.766,147.297 254.113,155.366 259.16,153.203 254.246,145.241 253.637,158.98 252.646,145.74 
	252.043,159.48 251.059,146.236 250.448,159.979 249.461,146.735 248.854,160.475 247.861,147.235 247.26,160.974 246.271,147.734 
	245.667,161.47 244.676,148.23 244.068,161.97 243.077,148.73 242.477,162.469 241.486,149.225 240.885,162.965 239.893,149.725 
	239.283,163.465 238.3,150.224 237.689,163.96 236.701,150.724 236.096,164.459 235.111,151.216 234.506,164.959 233.518,151.716 
	232.907,165.458 231.916,152.215 231.314,165.958 230.33,152.715 229.721,166.45 228.73,153.214 228.126,166.95 227.134,153.713 
	226.532,167.45 225.544,154.206 228.863,162.667 225.416,165.371 226.657,157.842 227.01,165.914 228.25,158.385 228.604,166.45 
	229.846,158.925 230.197,166.994 231.441,159.465 231.791,167.534 233.036,160.008 233.387,168.074 234.634,160.545 
	234.982,168.618 236.229,161.088 236.577,169.153 237.822,161.628 238.174,169.697 239.416,162.168 239.77,170.237 241.012,162.708 
	241.361,170.776 242.604,163.248 242.957,171.317 244.197,163.788 244.55,171.856 245.795,164.328 246.145,172.4 247.387,164.871 
	247.738,172.936 248.979,165.411 249.333,173.479 250.577,165.951 250.926,174.02 252.175,166.49 252.52,174.56 253.766,167.031 
	254.117,175.104 259.16,172.936 254.246,164.974 253.637,178.717 252.648,165.474 252.043,179.213 251.051,165.973 250.448,179.712 
	249.464,166.469 248.854,180.208 247.867,166.965 247.26,180.708 246.27,167.464 245.667,181.208 244.68,167.963 244.068,181.703 
	243.081,168.463 242.477,182.202 241.486,168.959 240.885,182.698 239.893,169.458 239.287,183.198 238.3,169.954 237.689,183.697 
	236.701,170.454 236.096,184.197 235.111,170.953 234.502,184.693 233.518,171.449 232.912,185.188 231.923,171.948 
	231.314,185.688 230.33,172.444 229.721,186.187 228.729,172.944 228.126,186.687 227.139,173.443 226.532,187.183 225.544,173.939 
	228.863,182.404 225.416,185.104 226.657,177.579 227.01,185.644 228.25,178.115 228.604,186.187 229.846,178.658 230.197,186.724 
	231.441,179.198 231.791,187.267 233.036,179.738 233.387,187.807 234.634,180.278 234.982,188.347 236.229,180.818 
	236.577,188.891 237.822,181.361 238.174,189.427 239.416,181.898 239.77,189.97 241.012,182.441 241.361,190.51 242.604,182.981 
	242.957,191.05 244.197,183.521 244.55,191.59 245.795,184.064 246.145,192.129 247.387,184.601 247.738,192.674 248.979,185.144 
	249.333,193.209 250.577,185.685 250.926,193.753 252.175,186.224 252.52,194.293 253.766,186.764 254.117,194.833 259.16,192.674 
	254.246,184.708 253.637,198.447 252.648,185.203 252.043,198.946 251.051,185.702 250.448,199.446 249.464,186.202 
	248.854,199.942 247.867,186.701 247.26,200.438 246.27,187.197 245.667,200.938 244.68,187.697 244.068,201.438 243.081,188.193 
	242.477,201.936 241.486,188.692 240.885,202.432 239.893,189.191 239.287,202.928 238.3,189.691 237.689,203.427 236.701,190.187 
	236.096,203.927 235.111,190.683 234.502,204.426 233.518,191.182 232.912,204.922 231.923,191.682 231.314,205.421 230.33,192.182 
	229.721,205.917 228.729,192.677 228.126,206.417 227.139,193.172 226.532,206.916 225.544,193.672 228.863,202.139 
	225.416,204.837 226.657,197.309 227.01,205.381 228.25,197.852 228.604,205.917 229.846,198.388 230.197,206.46 231.441,198.932 
	231.791,206.997 233.036,199.471 233.387,207.54 234.634,200.011 234.982,208.08 236.229,200.551 236.577,208.62 237.822,201.091 
	238.174,209.164 239.416,201.635 239.77,209.7 241.012,202.171 241.361,210.243 242.604,202.715 242.957,210.783 244.197,203.254 
	244.55,211.323 245.795,203.794 246.145,211.863 247.387,204.338 247.738,212.402 248.979,204.874 249.333,212.947 250.577,205.417 
	250.926,213.482 252.175,205.958 252.52,214.025 253.766,206.497 254.117,214.566 259.16,212.402 254.246,204.439 253.637,218.182 
	252.648,204.939 252.043,218.676 251.051,205.439 250.448,219.175 249.464,205.932 248.854,219.675 247.867,206.432 247.26,220.174 
	246.27,206.932 245.667,220.67 244.68,207.43 244.068,221.166 243.081,207.93 242.477,221.666 241.486,208.426 240.885,222.164 
	239.893,208.921 239.287,222.664 238.3,209.421 237.689,223.16 236.701,209.92 236.096,223.659 235.111,210.42 234.502,224.154 
	233.518,210.915 232.912,224.654 231.923,211.411 231.314,225.154 230.33,211.91 229.721,225.65 228.729,212.41 228.126,226.148 
	227.139,212.91 226.532,226.646 225.544,213.404 228.863,221.871 225.416,224.57 226.657,217.041 227.01,225.109 228.25,217.582 
	228.604,225.65 229.846,218.125 230.197,226.189 231.441,218.661 231.791,226.732 233.036,219.205 233.387,227.271 234.634,219.744 
	234.982,227.813 236.229,220.284 236.577,228.354 237.822,220.824 238.174,228.895 239.416,221.364 239.77,229.438 241.012,221.908 
	241.361,229.973 242.604,222.443 242.957,230.518 244.197,222.986 244.55,231.057 245.795,223.527 246.145,231.596 247.387,224.066 
	247.738,232.137 248.979,224.609 249.333,232.676 250.577,225.146 250.926,233.221 252.175,225.689 252.52,233.756 253.766,226.23 
	254.117,234.299 259.16,232.137 254.246,224.174 253.637,237.913 252.648,224.67 252.043,238.413 251.051,225.169 250.448,238.909 
	249.464,225.668 248.854,239.408 247.867,226.164 247.26,239.904 246.27,226.664 245.667,240.402 244.68,227.16 244.068,240.902 
	243.081,227.659 242.477,241.402 241.486,228.159 240.885,241.895 239.893,228.658 239.287,242.395 238.3,229.152 237.689,242.895 
	236.701,229.652 236.096,243.395 235.111,230.148 234.502,243.893 233.518,230.648 232.912,244.385 231.923,231.148 
	231.314,244.884 230.33,231.645 229.721,245.384 228.729,232.145 228.126,245.883 227.139,232.641 226.532,246.383 225.544,233.139 
	228.82,242.239 224.203,243.947 227.707,237.704 225.695,244.873 229.189,238.626 227.182,245.795 230.684,239.551 228.677,246.721 
	232.173,240.479 230.16,247.646 233.656,241.398 231.652,248.566 235.148,242.32 233.137,249.49 236.637,243.246 234.626,250.415 
	238.13,244.172 236.113,251.341 239.613,245.094 237.602,252.266 241.104,246.016 239.092,253.188 242.593,246.939 240.577,254.109 
	244.08,247.866 242.066,255.036 245.57,248.792 243.559,255.961 247.055,249.71 245.043,256.879 248.547,250.636 246.533,257.809 
	250.034,251.561 248.021,258.729 251.521,252.486 249.509,259.654 253.014,253.408 250.999,260.577 256.428,261.83 256.439,250.893 
	247.43,263.277 254.855,250.089 245.852,262.477 253.275,249.288 244.271,261.672 251.693,248.482 242.691,260.871 250.113,247.684 
	241.105,260.066 248.531,246.879 239.529,259.268 246.952,246.078 237.945,258.466 245.37,245.273 236.367,257.665 243.79,244.473 
	234.781,256.857 242.206,243.672 233.202,256.057 240.629,242.868 231.625,255.256 239.045,242.063 230.043,254.455 
	237.465,241.264 228.464,253.65 235.883,240.462 226.877,252.848 234.305,239.661 225.302,252.046 232.725,238.857 223.719,251.245 
	231.145,238.053 222.141,250.443 229.559,237.252 220.553,249.641 227.979,236.451 224.895,248.305 219.326,242.934 
	227.316,244.348 219.646,244.531 227.635,245.941 219.965,246.125 227.957,247.536 220.279,247.721 228.271,249.129 
	220.604,249.316 228.593,250.729 220.92,250.915 228.912,252.32 221.24,252.509 229.229,253.919 221.561,254.104 229.552,255.514 
	221.875,255.695 229.867,257.109 222.199,257.298 230.188,258.704 222.516,258.893 230.506,260.302 222.834,260.484 230.82,261.896 
	223.152,262.08 231.145,263.489 223.469,263.677 231.461,265.088 223.792,265.273 231.781,266.686 224.107,266.869 232.102,268.279 
	224.43,268.463 232.416,269.873 224.746,270.061 232.738,271.471 225.063,271.654 230.425,278.975 233.648,266.516 222.689,277.387 
	232.355,265.439 221.398,276.309 231.064,264.363 220.104,275.234 229.771,263.287 218.813,274.154 228.479,262.212 217.52,273.083 
	227.188,261.136 216.227,272.004 225.893,260.061 214.934,270.932 224.6,258.979 213.643,269.852 223.309,257.907 212.348,268.777 
	222.014,256.827 211.059,267.702 220.723,255.755 209.764,266.623 219.43,254.675 208.475,265.55 218.137,253.604 207.177,264.471 
	216.844,252.521 205.889,263.396 215.551,251.451 204.591,262.318 214.257,250.371 203.307,261.246 212.965,249.299 
	202.007,260.166 211.673,248.219 200.721,259.094 210.379,247.146 205.87,258.523 200.823,252.803 208.814,254.213 201.145,254.396 
	209.131,255.807 201.462,255.994 209.454,257.4 201.777,257.588 209.771,259.002 202.102,259.186 210.089,260.596 202.418,260.779 
	210.408,262.189 202.736,262.373 210.727,263.783 203.057,263.971 211.045,265.382 203.373,265.568 211.363,266.979 
	203.695,267.163 211.684,268.573 204.012,268.757 212.003,270.167 204.33,270.354 212.318,271.766 204.65,271.948 212.639,273.357 
	204.966,273.542 212.958,274.956 205.285,275.141 213.277,276.55 205.605,276.736 213.598,278.145 205.925,278.332 213.912,279.741 
	206.244,279.93 214.232,281.335 206.561,281.523 211.923,288.843 215.146,276.385 204.188,287.256 213.854,275.309 202.895,286.176 
	212.561,274.232 201.604,285.1 211.27,273.156 200.309,284.023 209.977,272.077 199.018,282.947 208.684,271.004 197.725,281.871 
	207.391,269.925 196.432,280.799 206.098,268.852 195.139,279.721 204.805,267.771 193.846,278.645 203.512,266.695 192.557,277.57 
	202.221,265.62 191.26,276.491 200.926,264.547 189.971,275.415 199.634,263.468 188.674,274.336 198.341,262.396 187.381,273.264 
	197.048,261.314 186.089,272.188 195.758,260.243 184.795,271.109 194.463,259.163 183.503,270.031 193.169,258.084 
	182.214,268.959 191.877,257.011 187.366,268.391 182.32,262.667 190.313,264.077 182.637,264.266 190.628,265.672 182.96,265.857 
	190.947,267.266 183.275,267.453 191.268,268.867 183.596,269.05 191.582,270.461 183.914,270.645 191.906,272.055 184.229,272.242 
	192.223,273.652 184.555,273.836 192.542,275.246 184.869,275.434 192.861,276.844 185.189,277.029 193.182,278.438 
	185.509,278.622 193.499,280.035 185.824,280.219 193.816,281.63 186.146,281.813 194.139,283.223 186.464,283.41 194.455,284.82 
	186.783,285.008 194.773,286.415 187.102,286.602 195.094,288.008 187.418,288.195 195.41,289.607 187.741,289.793 195.732,291.2 
	188.059,291.389 193.422,298.703 196.645,286.25 185.686,297.121 195.352,285.174 184.391,296.04 194.059,284.098 183.1,294.969 
	192.766,283.021 181.807,293.889 191.473,281.945 180.514,292.816 190.182,280.869 179.221,291.736 188.887,279.793 
	177.928,290.664 187.596,278.717 176.635,289.585 186.302,277.641 175.342,288.509 185.009,276.563 174.053,287.436 
	183.716,275.488 172.756,286.355 182.424,274.409 171.468,285.283 181.13,273.336 170.172,284.204 179.838,272.257 168.882,283.131 
	178.546,271.184 167.586,282.052 177.252,270.104 166.301,280.979 175.959,269.027 164.999,279.898 174.667,267.952 
	163.713,278.827 173.373,266.876 168.859,278.258 163.816,272.535 171.809,273.945 164.135,274.13 172.125,275.54 164.455,275.729 
	172.445,277.134 164.771,277.32 172.764,278.73 165.091,278.919 173.083,280.325 165.411,280.512 173.402,281.923 165.729,282.105 
	173.719,283.52 166.051,283.703 174.038,285.114 166.365,285.298 174.357,286.709 166.684,286.893 174.675,288.307 167.005,288.489 
	174.997,289.9 167.32,290.088 175.313,291.497 167.641,291.682 175.632,293.092 167.96,293.275 175.952,294.688 168.279,294.872 
	176.268,296.283 168.6,296.467 176.587,297.877 168.915,298.063 176.907,299.475 169.234,299.662 177.227,301.068 169.555,301.257 
	174.916,308.572 178.143,296.119 167.182,306.988 176.84,295.038 165.885,305.909 175.557,293.967 164.596,304.838 174.256,292.886 
	163.302,303.757 172.969,291.814 162.012,302.686 171.673,290.732 160.716,301.604 170.385,289.662 159.426,300.533 
	169.088,288.581 158.131,299.452 167.799,287.51 156.839,298.376 166.502,286.43 155.546,297.3 165.213,285.357 154.254,296.225 
	163.919,284.277 152.963,295.152 162.63,283.205 151.668,294.073 161.333,282.126 150.377,293 160.043,281.053 149.082,291.921 
	158.747,279.975 147.794,290.848 157.459,278.9 146.497,289.764 156.162,277.816 145.208,288.695 154.874,276.748 150.359,288.122 
	145.314,282.4 153.305,283.814 145.632,283.998 153.623,285.409 145.951,285.593 153.941,287.002 146.271,287.189 154.262,288.602 
	146.589,288.784 154.578,290.193 146.909,290.378 154.898,291.792 147.227,291.977 155.218,293.386 147.545,293.568 
	155.536,294.979 147.863,295.167 155.855,296.577 148.184,296.764 156.173,298.17 148.502,298.357 156.492,299.77 148.82,299.953 
	156.811,301.361 149.141,301.55 157.129,302.961 149.458,303.145 157.448,304.555 149.775,304.741 157.768,306.146 150.096,306.336 
	158.087,307.746 150.414,307.93 158.402,309.339 150.734,309.527 158.723,310.938 151.051,311.121 156.414,318.439 159.637,305.982 
	148.68,316.854 158.343,304.907 147.384,315.773 157.05,303.831 146.092,314.702 155.758,302.755 144.801,313.626 154.464,301.68 
	143.506,312.55 153.172,300.604 142.215,311.475 151.88,299.525 140.92,310.393 150.589,298.45 139.629,309.32 149.292,297.371 
	138.337,308.242 148.003,296.298 137.043,307.166 146.706,295.219 135.75,306.093 145.42,294.146 134.458,305.014 144.123,293.066 
	133.167,303.938 142.832,291.99 131.872,302.861 141.538,290.914 130.582,301.785 140.246,289.838 129.289,300.709 138.954,288.762 
	127.994,299.633 137.66,287.686 126.705,298.561 136.368,286.609 131.318,298.27 126.527,291.107 134.559,294.969 126.496,292.791 
	134.525,296.646 126.465,294.48 134.492,298.336 126.431,296.158 134.461,300.018 126.399,297.84 134.43,301.701 126.367,299.525 
	134.396,303.383 126.336,301.208 134.366,305.064 126.305,302.895 134.335,306.75 126.274,304.572 134.305,308.434 126.24,306.259 
	134.271,310.115 126.208,307.939 134.238,311.801 126.178,309.629 134.208,313.479 126.146,311.309 134.176,315.164 
	126.114,312.991 134.145,316.85 126.083,314.673 134.113,318.531 126.052,316.354 134.079,320.215 126.018,318.043 134.05,321.895 
	125.986,319.723 134.018,323.582 125.956,321.404 128.734,330.744 136.957,320.718 122.605,324.27 136.717,319.035 122.366,322.583 
	136.477,317.354 122.125,320.904 136.232,315.667 121.883,319.219 135.993,313.984 121.642,317.537 135.75,312.305 121.399,315.852 
	135.512,310.618 121.159,314.169 135.27,308.936 120.918,312.486 135.029,307.253 120.678,310.805 134.787,305.566 120.436,309.118 
	134.546,303.886 120.196,307.438 134.307,302.204 119.953,305.751 134.064,300.521 119.711,304.068 133.823,298.835 
	119.472,302.389 133.582,297.152 119.23,300.705 133.342,295.468 118.991,299.023 133.1,293.786 118.748,297.337 132.857,292.104 
	118.508,295.654 132.618,290.421 122.03,298.486 122.466,286.939 126.67,298.227 121.387,288.016 125.588,299.299 120.302,289.092 
	124.503,300.379 119.219,290.168 123.42,301.455 118.137,291.244 122.338,302.529 117.052,292.325 121.254,303.605 115.97,293.396 
	120.169,304.682 114.884,294.477 119.088,305.758 113.801,295.552 118.005,306.839 112.722,296.625 116.92,307.91 111.634,297.704 
	115.838,308.986 110.55,298.779 114.754,310.066 109.47,299.854 113.67,311.139 108.386,300.934 112.588,312.215 107.304,302.009 
	111.503,313.295 106.22,303.085 110.42,314.371 105.134,304.161 109.339,315.443 104.053,305.236 108.253,316.521 102.968,306.313 
	100.9,318.721 112.013,310.408 97.751,311.648 112.122,308.811 97.86,310.053 112.233,307.217 97.969,308.461 112.341,305.624 
	98.079,306.861 112.451,304.025 98.188,305.27 112.559,302.432 98.296,303.673 112.67,300.833 98.407,302.075 112.778,299.239 
	98.516,300.48 112.889,297.646 98.625,298.884 112.997,296.045 98.733,297.29 113.106,294.45 98.844,295.695 113.215,292.855 
	98.954,294.098 113.326,291.259 99.063,292.501 113.435,289.669 99.173,290.909 113.543,288.066 99.281,289.311 113.654,286.475 
	99.392,287.718 113.762,284.879 99.501,286.118 113.872,283.277 99.609,284.523 113.983,281.688 102.98,288.404 103.964,277.075 
	108.167,288.359 102.882,278.148 107.083,289.434 101.797,279.229 106,290.514 100.715,280.301 104.915,291.589 99.632,281.377 
	103.833,292.662 98.546,282.456 102.75,293.738 97.467,283.532 101.667,294.816 96.381,284.607 100.585,295.891 95.297,285.686 
	99.5,296.971 94.218,286.756 98.417,298.046 93.132,287.837 97.334,299.122 92.048,288.916 96.249,300.198 90.966,289.989 
	95.167,301.273 89.881,291.068 94.083,302.352 88.799,292.143 93.001,303.427 87.718,293.216 91.915,304.503 86.63,294.297 
	90.834,305.579 85.551,295.368 89.75,306.654 84.463,296.449 82.398,308.855 93.509,300.543 79.247,301.781 93.62,298.941 
	79.354,300.188 93.728,297.352 79.466,298.594 93.836,295.755 79.575,296.995 93.946,294.157 79.683,295.402 94.055,292.566 
	79.794,293.805 94.165,290.966 79.902,292.206 94.274,289.371 80.012,290.616 94.384,287.777 80.123,289.016 94.494,286.18 
	80.231,287.421 94.604,284.586 80.34,285.831 94.712,282.991 80.452,284.229 94.822,281.391 80.56,282.637 94.933,279.8 
	80.669,281.042 95.041,278.198 80.779,279.443 95.151,276.607 80.888,277.852 95.259,275.016 80.998,276.253 95.37,273.413 
	81.107,274.658 95.478,271.82 84.477,278.537 85.461,267.207 89.662,278.493 84.379,268.283 88.581,279.568 83.294,269.359 
	87.498,280.646 82.211,270.436 86.413,281.723 81.129,271.512 85.331,282.798 80.043,272.591 84.247,283.874 78.962,273.664 
	83.164,284.95 77.877,274.742 82.08,286.025 76.795,275.818 80.996,287.105 75.713,276.893 79.913,288.182 74.626,277.973 
	78.829,289.253 73.543,279.048 77.746,290.334 72.462,280.12 76.665,291.404 71.377,281.199 75.582,292.48 70.297,282.275 
	74.497,293.563 69.213,283.352 73.413,294.639 68.128,284.428 72.331,295.715 67.046,285.504 71.246,296.791 65.961,286.58 
	63.895,298.986 75.004,290.676 60.744,291.916 75.115,289.077 60.852,290.318 75.225,287.484 60.962,288.729 75.333,285.891 
	61.072,287.128 75.444,284.291 61.181,285.533 75.553,282.698 61.291,283.943 75.662,281.104 61.399,282.342 75.772,279.503 
	61.509,280.744 75.882,277.913 61.618,279.15 75.99,276.314 61.728,277.561 76.101,274.723 61.838,275.959 76.209,273.123 
	61.947,274.364 76.32,271.529 62.057,272.771 76.428,269.932 62.167,271.173 76.538,268.334 62.275,269.576 76.649,266.744 
	62.385,267.984 76.757,265.146 62.496,266.385 76.866,263.549 62.604,264.79 76.978,261.954 65.973,268.668 66.958,257.342 
	71.16,268.628 65.877,258.414 70.078,269.704 64.792,259.494 68.994,270.775 63.708,260.573 67.909,271.855 62.626,261.646 
	66.827,272.93 61.54,262.727 65.744,274.009 60.459,263.798 64.659,275.088 59.375,264.871 63.577,276.161 58.29,265.95 
	62.494,277.236 57.209,267.025 61.41,278.313 56.125,268.104 60.329,279.389 55.043,269.18 59.24,280.469 53.96,270.255 
	58.16,281.541 52.873,271.335 57.078,282.617 51.793,272.407 55.993,283.693 50.708,273.486 54.912,284.77 49.626,274.561 
	53.826,285.85 48.542,275.639 52.743,286.925 47.458,276.715 45.39,289.121 56.501,280.811 42.24,282.049 56.612,279.213 
	42.349,280.454 56.722,277.618 42.459,278.857 56.831,276.023 42.567,277.266 56.94,274.428 42.678,275.669 57.049,272.829 
	42.786,274.07 57.159,271.236 42.896,272.479 57.269,269.643 43.006,270.883 57.377,268.044 43.117,269.285 57.488,266.445 
	43.225,267.688 57.598,264.855 43.335,266.098 57.707,263.264 43.445,264.496 57.816,261.661 43.553,262.902 57.927,260.066 
	43.664,261.309 58.035,258.473 43.774,259.714 58.145,256.876 43.883,258.113 58.253,255.281 43.992,256.52 58.364,253.686 
	44.101,254.926 58.474,252.09 47.471,258.805 48.455,247.477 52.659,258.76 47.373,248.549 51.575,259.839 46.29,249.629 
	50.489,260.912 45.206,250.701 49.408,261.988 44.121,251.781 48.324,263.066 43.041,252.854 47.241,264.141 41.956,253.934 
	46.156,265.225 40.876,255.006 45.074,266.293 39.788,256.086 43.992,267.368 38.708,257.158 42.907,268.448 37.623,258.238 
	41.826,269.521 36.542,259.311 40.739,270.602 35.456,260.391 39.659,271.673 34.374,261.466 38.574,272.752 33.288,262.542 
	37.492,273.825 32.207,263.618 36.409,274.904 31.124,264.693 35.323,275.98 30.04,265.771 34.239,277.057 28.955,266.848 
	26.887,279.252 37.999,270.941 23.737,272.184 38.109,269.344 23.846,270.585 38.219,267.751 23.956,268.992 38.327,266.156 
	24.066,267.395 38.438,264.555 24.175,265.805 38.546,262.965 24.285,264.202 38.656,261.367 24.393,262.607 38.766,259.773 
	24.503,261.016 38.875,258.18 24.612,259.417 38.984,256.578 24.722,257.818 39.093,254.986 24.832,256.229 39.204,253.391 
	24.94,254.632 39.312,251.792 25.051,253.033 39.422,250.202 25.159,251.443 39.53,248.602 25.269,249.842 39.64,247.007 
	25.377,248.252 39.75,245.413 25.488,246.654 39.858,243.814 25.596,245.061 39.969,242.223 28.341,248.602 30.929,236.605 
	32.745,249.479 29.554,237.414 31.373,250.283 28.185,238.215 30.003,251.083 26.81,239.02 28.63,251.889 25.443,239.816 
	27.26,252.686 24.066,240.624 25.888,253.492 22.7,241.421 24.516,254.293 21.325,242.227 23.145,255.094 19.957,243.025 
	21.775,255.895 18.581,243.834 20.401,256.702 17.213,244.631 19.029,257.503 15.838,245.436 17.66,258.305 14.469,246.234 
	16.287,259.105 13.094,247.04 14.916,259.904 11.728,247.837 13.544,260.713 10.353,248.645 12.174,261.514 8.984,249.445 
	10.801,262.314 7.609,250.246 9.431,263.115 6.241,251.047 0.541,262.143 12.297,260.357 3.233,253.625 13.573,259.436 4.513,252.7 
	14.857,258.51 5.792,251.777 16.132,257.588 7.072,250.854 17.413,256.662 8.349,249.932 18.691,255.74 9.631,249.005 
	19.972,254.814 10.905,248.087 21.249,253.893 12.189,247.157 22.53,252.968 13.465,246.234 23.806,252.046 14.743,245.311 
	25.087,251.12 16.027,244.385 26.367,250.193 17.301,243.467 27.646,249.27 18.583,242.541 28.924,248.352 19.861,241.615 
	30.204,247.426 21.143,240.689 31.481,246.504 22.419,239.771 32.765,245.574 23.698,238.848 34.037,244.656 24.975,237.921 
	35.319,243.73 23.991,242.313 33.882,233.213 26.255,246.307 32.497,232.713 24.871,245.811 31.111,232.217 23.484,245.311 
	29.729,231.723 22.098,244.811 28.341,231.223 20.715,244.313 26.955,230.723 19.325,243.813 25.57,230.223 17.944,243.318 
	24.186,229.727 16.56,242.82 22.799,229.23 15.173,242.32 21.418,228.73 13.789,241.82 20.028,228.232 12.402,241.325 
	18.646,227.736 11.018,240.829 17.259,227.24 9.629,240.33 15.873,226.741 8.248,239.83 14.488,226.241 6.861,239.331 
	13.107,225.742 5.475,238.832 11.719,225.246 4.093,238.34 10.332,224.747 2.704,237.84 8.948,224.251 -2.383,232.146 
	9.089,234.211 2.563,226.314 10.474,233.672 3.949,225.777 11.86,233.131 5.335,225.234 13.245,232.592 6.719,224.695 
	14.631,232.052 8.105,224.154 16.016,231.508 9.49,223.611 17.4,230.973 10.876,223.075 18.785,230.428 12.261,222.532 
	20.171,229.889 13.641,221.996 21.556,229.35 15.031,221.452 22.94,228.805 16.416,220.908 24.328,228.266 17.801,220.373 
	25.71,227.727 19.187,219.829 27.096,227.186 20.572,219.289 28.485,226.646 21.957,218.75 29.867,226.104 23.343,218.205 
	31.253,225.564 24.727,217.67 32.636,225.021 26.112,217.126 34.023,224.482 23.936,221.878 33.882,213.482 26.255,226.572 
	32.495,212.982 24.869,226.072 31.111,212.482 23.484,225.573 29.728,211.984 22.098,225.077 28.341,211.488 20.713,224.582 
	26.954,210.989 19.323,224.082 25.57,210.493 17.944,223.583 24.184,209.994 16.558,223.083 22.797,209.494 15.173,222.591 
	21.418,209.002 13.786,222.088 20.028,208.499 12.402,221.592 18.644,208.003 11.018,221.093 17.257,207.504 9.629,220.593 
	15.873,207.004 8.247,220.098 14.488,206.509 6.86,219.602 13.105,206.014 5.475,219.102 11.717,205.514 4.09,218.604 
	10.331,205.014 2.704,218.104 8.946,204.514 -2.384,212.418 9.089,214.479 2.563,206.585 10.472,213.938 3.949,206.042 
	11.86,213.398 5.334,205.502 13.243,212.857 6.719,204.962 14.629,212.314 8.105,204.422 16.014,211.779 9.49,203.882 17.4,211.234 
	10.876,203.339 18.785,210.695 12.259,202.803 20.169,210.154 13.645,202.259 21.556,209.611 15.03,201.719 22.94,209.075 
	16.416,201.18 24.325,208.532 17.801,200.635 25.711,207.992 19.186,200.1 27.095,207.452 20.572,199.556 28.482,206.912 
	21.957,199.016 29.866,206.372 23.343,198.477 31.252,205.829 24.727,197.936 32.636,205.292 26.112,197.396 34.023,204.749 
	23.936,202.143 33.882,193.745 26.255,206.839 32.495,193.25 24.869,206.344 31.115,192.754 23.484,205.844 29.724,192.255 
	22.098,205.344 28.341,191.755 20.711,204.846 26.954,191.255 19.327,204.35 25.57,190.76 17.944,203.854 24.188,190.264 
	16.558,203.354 22.797,189.765 15.169,202.854 21.413,189.265 13.786,202.354 20.028,188.766 12.402,201.857 18.647,188.273 
	11.018,201.363 17.257,187.774 9.631,200.863 15.873,187.274 8.243,200.364 14.488,186.775 6.86,199.864 13.102,186.276 
	5.475,199.369 11.723,185.78 4.09,198.873 10.331,185.28 2.704,198.374 8.946,184.785 -2.384,192.68 9.089,194.745 2.563,186.849 
	10.472,194.205 3.949,186.312 11.86,193.665 5.334,185.769 13.243,193.125 6.719,185.229 14.629,192.585 8.105,184.689 
	16.014,192.042 9.49,184.148 17.4,191.506 10.876,183.609 18.785,190.962 12.259,183.066 20.169,190.422 13.645,182.529 
	21.556,189.882 15.03,181.986 22.94,189.338 16.416,181.446 24.325,188.802 17.801,180.906 25.711,188.259 19.186,180.362 
	27.095,187.719 20.572,179.826 28.482,187.179 21.957,179.283 29.866,186.639 23.343,178.743 31.252,186.099 24.727,178.203 
	32.636,185.556 26.112,177.663 34.023,185.019 23.936,182.408 33.882,174.016 26.255,187.105 32.499,173.517 24.869,186.61 
	31.111,173.021 23.484,186.11 29.724,172.521 22.094,185.61 28.341,172.025 20.713,185.115 26.958,171.526 19.327,184.616 
	25.57,171.027 17.944,184.116 24.184,170.527 16.554,183.617 22.797,170.027 15.173,183.125 21.418,169.535 13.786,182.625 
	20.028,169.036 12.398,182.125 18.644,168.536 11.018,181.625 17.257,168.037 9.631,181.13 15.876,167.538 8.247,180.631 
	14.488,167.042 6.858,180.131 13.102,166.542 5.475,179.635 11.717,166.046 4.09,179.136 10.334,165.547 2.704,178.636 
	8.946,165.047 -2.384,172.944 9.089,175.015 2.563,167.119 10.472,174.471 3.949,166.576 11.86,173.932 5.334,166.035 
	13.243,173.392 6.72,165.496 14.628,172.852 8.103,164.955 16.014,172.312 9.491,164.416 17.4,171.769 10.874,163.875 
	18.785,171.232 12.261,163.336 20.171,170.688 13.645,162.792 21.556,170.149 15.034,162.252 22.94,169.608 16.416,161.713 
	24.325,169.069 17.801,161.172 25.711,168.529 19.187,160.633 27.096,167.985 20.572,160.089 28.479,167.45 21.958,159.553 
	29.867,166.906 23.343,159.01 31.253,166.366 24.729,158.473 32.639,165.826 26.114,157.93 34.023,165.286 23.936,162.675 
	33.882,154.286 26.255,167.375 32.501,153.787 24.871,166.877 31.111,153.288 23.484,166.377 29.726,152.788 22.096,165.877 
	28.341,152.292 20.715,165.385 26.958,151.792 19.329,164.886 25.57,151.297 17.944,164.386 24.186,150.797 16.556,163.887 
	22.799,150.297 15.173,163.391 21.418,149.802 13.789,162.892 20.028,149.303 12.398,162.392 18.646,148.807 11.018,161.896 
	17.259,148.307 9.633,161.396 15.876,147.808 8.248,160.897 14.488,147.308 6.858,160.397 13.102,146.809 5.475,159.902 
	11.719,146.313 4.093,159.406 10.336,145.817 2.704,158.907 8.948,145.318 -2.383,153.214 9.089,155.278 2.563,147.385 
	10.474,154.742 3.949,146.846 11.86,154.198 5.334,146.302 13.245,153.659 6.72,145.766 14.629,153.118 8.105,145.223 
	16.014,152.579 9.491,144.682 17.4,152.039 10.876,144.143 18.787,151.495 12.261,143.599 20.169,150.959 13.647,143.063 
	21.558,150.415 15.031,142.52 22.94,149.875 16.416,141.983 24.328,149.335 17.802,141.439 25.714,148.792 19.187,140.899 
	27.096,148.255 20.573,140.36 28.482,147.712 21.957,139.816 29.867,147.173 23.343,139.28 31.253,146.632 24.729,138.736 
	32.639,146.093 26.114,138.196 34.023,145.553 23.975,142.226 35.219,135.016 25.078,146.6 33.937,134.134 23.797,145.718 
	32.662,133.256 22.52,144.837 31.382,132.372 21.244,143.959 30.103,131.494 19.962,143.074 28.821,130.608 18.682,142.196 
	27.544,129.728 17.402,141.311 26.267,128.85 16.128,140.433 24.986,127.968 14.846,139.548 23.705,127.083 13.568,138.67 
	22.428,126.205 12.29,137.789 21.15,125.324 11.008,136.904 19.87,124.442 9.73,136.026 18.588,123.557 8.45,135.145 
	17.313,122.679 7.174,134.263 16.033,121.798 5.892,133.382 14.754,120.916 4.612,132.497 13.473,120.031 3.336,131.619 
	12.196,119.154 0.471,123.179 6.353,128.6 9.316,121.989 7.727,129.356 10.69,122.749 9.095,130.116 12.057,123.506 10.467,130.877 
	13.432,124.27 11.842,131.641 14.802,125.03 13.208,132.397 16.172,125.786 14.582,133.154 17.545,126.55 15.955,133.917 
	18.919,127.307 17.323,134.675 20.289,128.067 18.695,135.435 21.657,128.828 20.069,136.195 23.034,129.588 21.44,136.955 
	24.402,130.348 22.81,137.715 25.774,131.104 24.18,138.472 27.146,131.868 25.558,139.235 28.52,132.625 26.924,139.993 
	29.886,133.382 28.297,140.753 31.263,134.146 29.671,141.513 32.631,134.902 31.039,142.273 28.283,135.842 39.969,136.584 
	25.596,139.405 39.858,135.034 25.488,137.848 39.749,133.477 25.377,136.291 39.64,131.927 25.269,134.744 39.53,130.377 
	25.159,133.187 39.422,128.82 25.051,131.641 39.312,127.271 24.94,130.083 39.201,125.713 24.832,128.526 39.093,124.163 
	24.722,126.977 38.983,122.613 24.612,125.427 38.873,121.056 24.503,123.869 38.765,119.499 24.393,122.319 38.654,117.949 
	24.285,120.766 38.544,116.396 24.175,119.208 38.436,114.846 24.066,117.659 38.326,113.288 23.956,116.105 38.217,111.735 
	23.846,114.555 38.107,110.185 23.737,112.998 37.999,108.627 26.83,105.983 29.036,112.814 34.161,108.04 30.121,113.85 
	35.241,109.069 31.206,114.886 36.327,110.104 32.286,115.914 37.411,111.14 33.371,116.95 38.493,112.168 34.453,117.982 
	39.576,113.204 35.536,119.014 40.659,114.239 36.624,120.057 41.743,115.272 37.703,121.085 42.827,116.307 38.787,122.117 
	43.91,117.339 39.868,123.149 44.991,118.375 40.957,124.189 46.077,119.407 42.037,125.221 47.16,120.442 43.12,126.252 
	48.242,121.475 44.206,127.289 49.327,122.51 45.285,128.32 50.411,123.546 46.37,129.356 51.491,124.575 47.456,130.389 
	52.577,125.61 48.536,131.42 47.416,125.625 58.472,126.72 44.101,129.533 58.364,125.17 43.992,127.982 58.253,123.612 
	43.883,126.43 58.143,122.059 43.774,124.876 58.035,120.505 43.664,123.325 57.925,118.956 43.553,121.769 57.814,117.398 
	43.445,120.219 57.704,115.849 43.335,118.662 57.596,114.291 43.225,117.112 57.486,112.741 43.117,115.558 57.377,111.188 
	43.006,114.001 57.268,109.634 42.896,112.451 57.159,108.081 42.786,110.897 57.049,106.535 42.678,109.348 56.939,104.977 
	42.567,107.791 56.831,103.42 42.459,106.241 56.72,101.87 42.349,104.687 56.61,100.32 42.24,103.134 56.5,98.763 45.333,96.119 
	47.538,102.946 52.664,98.168 48.622,103.978 53.744,99.2 49.709,105.017 54.831,100.24 50.789,106.05 55.912,101.271 
	51.873,107.082 56.996,102.303 52.956,108.113 58.079,103.339 54.038,109.149 59.159,104.367 55.126,110.185 60.246,105.407 
	56.206,111.217 61.329,106.439 57.288,112.249 62.413,107.475 58.371,113.285 63.497,108.51 59.458,114.324 64.578,109.539 
	60.54,115.353 65.664,110.574 61.622,116.384 66.747,111.61 62.705,117.42 67.831,112.646 63.788,118.456 68.913,113.681 
	64.875,119.491 69.993,114.709 65.955,120.52 71.08,115.746 67.039,121.556 65.917,115.76 76.975,116.854 62.604,119.667 
	76.865,115.304 62.496,118.118 76.757,113.747 62.385,116.561 76.646,112.194 62.275,115.011 76.538,110.644 62.167,113.457 
	76.428,109.086 62.057,111.903 76.317,107.533 61.947,110.354 76.209,105.983 61.838,108.796 76.1,104.426 61.728,107.247 
	75.989,102.876 61.618,105.689 75.88,101.319 61.509,104.14 75.771,99.769 61.399,102.582 75.66,98.215 61.291,101.029 
	75.552,96.662 61.181,99.479 75.442,95.112 61.072,97.925 75.333,93.555 60.962,96.368 75.223,92.001 60.852,94.818 75.115,90.451 
	60.744,93.268 75.004,88.897 63.837,86.254 66.041,93.077 71.167,88.303 67.126,94.117 72.247,89.332 68.212,95.149 73.333,90.371 
	69.292,96.181 74.417,91.403 70.375,97.213 75.5,92.438 71.46,98.252 76.581,93.47 72.542,99.284 77.666,94.503 73.627,100.32 
	78.751,95.538 74.709,101.348 79.834,96.574 75.794,102.384 80.914,97.606 76.875,103.42 82,98.642 77.962,104.456 83.082,99.673 
	79.042,105.483 84.164,100.709 80.127,106.52 85.249,101.745 81.209,107.555 86.333,102.777 82.292,108.587 87.417,103.809 
	83.376,109.623 88.499,104.841 84.462,110.655 89.583,105.88 85.541,111.69 84.422,105.895 95.478,106.986 81.107,109.803 
	95.37,105.436 80.998,108.25 95.259,103.879 80.888,106.692 95.151,102.325 80.78,105.146 95.041,100.775 80.669,103.589 
	94.93,99.218 80.56,102.031 94.822,97.668 80.452,100.481 94.712,96.119 80.34,98.932 94.602,94.561 80.232,97.378 94.492,93.004 
	80.123,95.821 94.384,91.454 80.012,94.271 94.273,89.904 79.904,92.718 94.165,88.347 79.794,91.16 94.055,86.797 79.683,89.61 
	93.946,85.247 79.575,88.061 93.836,83.69 79.466,86.503 93.728,82.137 79.354,84.954 93.617,80.586 79.247,83.4 93.508,79.029 
	82.34,76.385 84.544,83.213 89.669,78.438 85.631,84.248 90.75,79.467 86.715,85.284 91.836,80.502 87.797,86.313 92.92,81.538 
	88.879,87.348 94.003,82.574 89.964,88.384 95.085,83.602 91.044,89.416 96.168,84.637 92.132,90.451 97.254,85.674 93.211,91.484 
	98.338,86.709 94.297,92.519 99.418,87.737 95.379,93.551 100.503,88.773 96.464,94.587 101.585,89.809 97.546,95.619 
	102.669,90.84 98.631,96.654 103.754,91.877 99.713,97.687 104.836,92.909 100.796,98.719 105.92,93.944 101.882,99.755 107,94.973 
	102.965,100.79 108.088,96.012 104.046,101.822 102.924,96.03 113.983,97.118 99.611,99.938 113.872,95.568 99.501,98.381 
	113.762,94.011 99.393,96.824 113.654,92.461 99.282,95.278 113.543,90.911 99.174,93.724 113.434,89.354 99.064,92.167 
	113.326,87.804 98.954,90.617 113.215,86.25 98.846,89.067 113.106,84.697 98.736,87.51 112.997,83.139 98.625,85.957 
	112.889,81.589 98.516,84.407 112.778,80.04 98.407,82.853 112.668,78.482 98.296,81.296 112.559,76.929 98.188,79.746 
	112.449,75.379 98.079,78.192 112.34,73.822 97.969,76.639 112.23,72.268 97.86,75.089 112.121,70.718 97.751,73.532 
	112.011,69.161 100.844,66.517 103.05,73.348 108.173,68.573 104.135,74.383 109.255,69.602 105.218,75.419 110.341,70.638 
	106.299,76.448 111.425,71.673 107.382,77.483 112.506,72.708 108.469,78.519 113.588,73.737 109.548,79.547 114.671,74.773 
	110.635,80.586 115.756,75.808 111.717,81.618 116.84,76.844 112.802,82.655 117.922,77.873 113.882,83.683 119.007,78.908 
	114.967,84.719 120.091,79.94 116.051,85.754 121.173,80.972 117.134,86.79 122.258,82.008 118.215,87.818 123.341,83.044 
	119.299,88.854 124.425,84.08 120.384,89.89 125.504,85.108 121.467,90.926 126.59,86.144 122.549,91.954 121.987,85.938 
	132.613,88.417 118.511,88.773 132.855,86.775 118.752,87.135 133.098,85.137 118.994,85.49 133.339,83.499 119.235,83.852 
	133.58,81.854 119.475,82.213 133.82,80.212 119.718,80.568 134.063,78.57 119.959,78.93 134.305,76.933 120.199,77.289 
	134.544,75.291 120.441,75.647 134.787,73.653 120.681,74.009 135.025,72.011 120.922,72.367 135.268,70.369 121.162,70.726 
	135.508,68.728 121.405,69.088 135.749,67.089 121.646,67.442 135.992,65.444 121.886,65.805 136.23,63.81 122.129,64.159 
	136.473,62.165 122.369,62.521 136.714,60.523 122.61,60.883 136.955,58.885 "/>
</svg>
