<?xml version="1.0" encoding="utf-8"?>
<!-- Generator: Adobe Illustrator 16.0.0, SVG Export Plug-In . SVG Version: 6.00 Build 0)  -->
<!DOCTYPE svg PUBLIC "-//W3C//DTD SVG 1.1//EN" "http://www.w3.org/Graphics/SVG/1.1/DTD/svg11.dtd">
<svg version="1.1" id="图层_1" xmlns="http://www.w3.org/2000/svg" xmlns:xlink="http://www.w3.org/1999/xlink" x="0px" y="0px"
	 width="260px" height="400px" viewBox="0 0 260 400" enable-background="new 0 0 260 400" xml:space="preserve">
<metadata><?xpacket begin="﻿" id="W5M0MpCehiHzreSzNTczkc9d"?>
<x:xmpmeta xmlns:x="adobe:ns:meta/" x:xmptk="Adobe XMP Core 5.3-c011 66.145661, 2012/02/06-14:56:27        ">
   <rdf:RDF xmlns:rdf="http://www.w3.org/1999/02/22-rdf-syntax-ns#">
      <rdf:Description rdf:about=""
            xmlns:dc="http://purl.org/dc/elements/1.1/">
         <dc:format>image/svg+xml</dc:format>
         <dc:title>
            <rdf:Alt>
               <rdf:li xml:lang="x-default">打印</rdf:li>
            </rdf:Alt>
         </dc:title>
      </rdf:Description>
      <rdf:Description rdf:about=""
            xmlns:xmp="http://ns.adobe.com/xap/1.0/"
            xmlns:xmpGImg="http://ns.adobe.com/xap/1.0/g/img/">
         <xmp:MetadataDate>2014-11-18T23:03:05+08:00</xmp:MetadataDate>
         <xmp:ModifyDate>2014-11-18T23:03:05+08:00</xmp:ModifyDate>
         <xmp:CreateDate>2014-11-18T23:03:05+08:00</xmp:CreateDate>
         <xmp:CreatorTool>Adobe Illustrator CS6 (Windows)</xmp:CreatorTool>
         <xmp:Thumbnails>
            <rdf:Alt>
               <rdf:li rdf:parseType="Resource">
                  <xmpGImg:width>244</xmpGImg:width>
                  <xmpGImg:height>256</xmpGImg:height>
                  <xmpGImg:format>JPEG</xmpGImg:format>
                  <xmpGImg:image>/9j/4AAQSkZJRgABAgEASABIAAD/7QAsUGhvdG9zaG9wIDMuMAA4QklNA+0AAAAAABAASAAAAAEA&#xA;AQBIAAAAAQAB/+4ADkFkb2JlAGTAAAAAAf/bAIQABgQEBAUEBgUFBgkGBQYJCwgGBggLDAoKCwoK&#xA;DBAMDAwMDAwQDA4PEA8ODBMTFBQTExwbGxscHx8fHx8fHx8fHwEHBwcNDA0YEBAYGhURFRofHx8f&#xA;Hx8fHx8fHx8fHx8fHx8fHx8fHx8fHx8fHx8fHx8fHx8fHx8fHx8fHx8fHx8f/8AAEQgBAAD0AwER&#xA;AAIRAQMRAf/EAaIAAAAHAQEBAQEAAAAAAAAAAAQFAwIGAQAHCAkKCwEAAgIDAQEBAQEAAAAAAAAA&#xA;AQACAwQFBgcICQoLEAACAQMDAgQCBgcDBAIGAnMBAgMRBAAFIRIxQVEGE2EicYEUMpGhBxWxQiPB&#xA;UtHhMxZi8CRygvElQzRTkqKyY3PCNUQnk6OzNhdUZHTD0uIIJoMJChgZhJRFRqS0VtNVKBry4/PE&#xA;1OT0ZXWFlaW1xdXl9WZ2hpamtsbW5vY3R1dnd4eXp7fH1+f3OEhYaHiImKi4yNjo+Ck5SVlpeYmZ&#xA;qbnJ2en5KjpKWmp6ipqqusra6voRAAICAQIDBQUEBQYECAMDbQEAAhEDBCESMUEFURNhIgZxgZEy&#xA;obHwFMHR4SNCFVJicvEzJDRDghaSUyWiY7LCB3PSNeJEgxdUkwgJChgZJjZFGidkdFU38qOzwygp&#xA;0+PzhJSktMTU5PRldYWVpbXF1eX1RlZmdoaWprbG1ub2R1dnd4eXp7fH1+f3OEhYaHiImKi4yNjo&#xA;+DlJWWl5iZmpucnZ6fkqOkpaanqKmqq6ytrq+v/aAAwDAQACEQMRAD8A9U4q7FXYq7FXYq7FXYq7&#xA;FXYq7FXYq7FXmPn38z5oJZdL8vzRo8Z9O81V/ijjfvHEAG5v40Bp4dwqk/lmPVtCvjrVvqyaxqEy&#xA;n9M6LPIkV0IF+L1aySseSdaMAQOoFTir1PR/MWnap+7iLwXiqHlsbhTHOqt0bgftKezLVffFUzxV&#xA;2KuxV2KuxV2KuxV2KuxV2KuxV2KuxV2KuxV2KuxV2KuxV2KuxV2KuxV2KuxV2KuxVgf5tec30LRh&#xA;Y2cnDU9RDKjKfijhGzuPAn7K/f2xV4L9cuBNFKrcWhp6NOiUNRx+nf574pWw3M8FwlxDIyTxsHSV&#xA;TRgwNQa4qjV8w6rHJDJBO0DW0hltChoYS32liP7KH+Xpir2v8t/zOi8wKumaoVi1lFPBxRUnC91H&#xA;Z/FR8x4BQ9AxV2KuxV2KuxV2KuxV2KuxV2KuxV2KuxV2KuxV2KuxV2KuxV2KuxV2KpdqPmPy/psn&#xA;p6hqVtay9fSllRXoe/EmuKrtN1/RNULDTr+3u2Td1hkV2A8SAajFUfirsVfMXnzzC2veab2+Dcrc&#xA;N6Np4CGPZaf627fM4qx/FLsVdiqsj3FndLJE7RXEDho5EJDK6moZT169MVfR/wCXnnBPM+gpcSUX&#xA;ULciK+jGw502cDwcb/Oo7YoTTWfMmmaShE7PNc8S6WVshmuGUdxGu4H+UaD3xV5pq/mT8wLC+fX/&#xA;AK7b20Erhf8AD8zlzDGDRBPReETP15F1NT9GKs+8nec9P8y2jtGpt7+3oLyyf7SFuhB/aVuxxVkO&#xA;KuxV2KuxV2KuxV2KuxV2KuxV2KuxV2KuxV2KuxV2KrJpUhheaQ0jjUu58AoqcVfKWs6nPquq3eoz&#xA;kmW7laVgTWnI1Cj2UbDFKGgnnglWWCRopV3WRCVYfIjfFWQ6b+Y3nXT2Uw6tPIo/YuD6608P3vL8&#xA;MUMq/wCV4ahc6Le2V9ZIt5NA8UF3bsVAd14hmRiela1DfRirzDFLsVdirsVReoqBPGR9loICDt/v&#xA;pQelP2gcVR3lrzbrPlyW6l0yQI91F6L8hyA3qHAO3Jd6V8cVU18za0Hd2und5H9aVmYkySj7Mkh6&#xA;uU6pXYH6aqoCO6uI5XlWQ+pIGEjHfkH2YNXrX3xVMfL3mbUdC1K2vrVqvbNsp/ajb7cRP8jeHY7j&#xA;fFX03pGqWmq6ZbajaNyt7qMSR16ivVT7qdjihF4q7FXYq7FXYq7FXYq7FXYq7FXYq7FXYq7FXYq7&#xA;FUl86zND5Q1qRftCynAPgWjK1/HFXy5il2KuxVcqMwYgVCirfKtP44qtxV2KuxV2Ko3UKfVtOPUm&#xA;2PI/KeUD8AMVQscZkYqOoVm+hVLfwxVZirsVdir2X8ifMDS2t9oMrVMH+lWoPZGIWQfINxP+yOKH&#xA;rGKsU8z/AJl+VvL7NBNObq9XY2ltR2U/5bVCr8ia+2KvOtT/AD31+ZiNOsbe0j7GXlM/31jX/hcV&#xA;SST83vP7tVdSWMfyrBBT/hkY4qrQ/nJ57jZS91FMB1V4IwD8+AU/dir0X8tfzLufM93cafqFvFBe&#xA;RRCaJoeQV1DBXHFixBHId8VegYq7FXYq7FXYq7FXYq7FXYq7FWO/mIrN5I1kKKn6sx+gUJ/DFXzJ&#xA;il2KuxVUglMUqyABqdVPQgihBp4jbFVPFXYqi7axeezvLhOlmqSSf6juI/8AiTriqHjQuSB1oT4f&#xA;ZFT+AxVzzSukaOxKRArGvYAksafScVV7Jf3V5IPtRwVU/wCtIkZ/4VziqFxV2KuxVlH5a6wmk+c9&#xA;PuJpBFbyM0E7sQqhJVKgsTtQNQ4oZL5//N271B5NN8vyNbaeKrLeCqyzf6ndE/E+3TFXmeKVzxlA&#xA;OXU78e4HauKrMVdirMPyluWg8/abQnjL60bgdw0L0/4YDFD6NxV2KuxV2KuxV2KuxV2KuxV2KpP5&#xA;zhM3lHWox1NlcFQO5EbED7xir5axS7FXYq7FXYq7FWZ/lrp9rq0+saHJIIrjU7B47Qt9kyxusq1p&#xA;vsUr06A4oTC0/K7X9H1qNtUt1uNKFvO11dQMCiKbdwwPLiwIJ2NMVeeYpRsCkaTdyDqZYIj/AKrC&#xA;R/1xjFUFireKtYq7FXYqjEjS1iWaYVuXAaCFhUBSKiRwf+FXv1O1OSqFd3d2d2LOxJZiakk9STiq&#xA;3FXYqzL8orYz+fdPalVgWaVvohZR/wAMwxQ+i8VdirsVdirsVdirsVQep6zpOlxCXUbyG0Q/ZMzq&#xA;lafygmp+jFWJ3v5y+R7ZisdxNdkdTBE1Pvk9PFUCv57eUCQDa34B7mOGg+6bFUfF+aXkPVrWa0kv&#xA;jam4jaMrcRsoo6lTVgGTv3OKvnplKsVNCQaVBqNvAjFLWKuxVc8bpxLKQHHJT2I6VH3Yq36ben6g&#xA;FVB4sewJ3FfnTbFVuKploeo3Oia/aX6KfVsZleRB1KqfjX5MtRir6S81zK/k7WJomqradcvG6+Bg&#xA;YgjFD5bAJrQVpucUppHbSny+rIhZru9ESU7tDH9keJ/f4qgrm2kjvpbUDlIkrRBVruQ3GgqTirIt&#xA;W8rG2TzDdMvC30mWKxgIBAebmqk/8i1Yt88UJHp2lz36TCBeTxK00h3+CCJGeVzTsoA/UMUoc2sq&#xA;2q3LDjE7FIyf2itC1P8AVqK4qioLVba2S/ukBD1+p27g/vSNi5/4rU/8Edh+1RVBSSSSyNJIxZ2N&#xA;WY9ScVWYq7FXYq9X/IXSS9/qWrMvwwxrbRE/zSHm9PkEX78UPZsVdirsVdirsVS3zLqraT5f1DUk&#xA;AaS1geSJWqQXA+AGnblSuKvOYvPPm288vQ6tq2o2GiaZNIYw9vHK17IB2jQmZV50PxU264q858z6&#xA;1DqFyzW5iaMmhkKSNO9OjPNOZJCfkw+WKpBilV+ry+mZVHONftMu/Gv83h9OKqWKuxVdGoZwpIWp&#xA;pyPQfPFUbpIs49Ujh1NSto7GG62+KNW+EuK/tRn4vop0xVn3/Kq/MM+l3+lvEr3WnSLPpF6CBFcw&#xA;yg+pEGP2d1VlBOxJ8a4oVvLH5SeZIL/0dXghOlX1u6XZWUM0TFeUZAFP3iSBfs1HUVocVQui/lFN&#xA;qOm6rFJK9trem3TwLG4HoyqsYaMg/aXmWB5b7fPFWY6Z+Uems1hf6jI63q2S219aqVaNnNuYGPKl&#xA;ahT27jFU20eO4vfy0azn+KdbG5sJBvu0Ae2Pv1TFXmmkflTrV5ZTXcCxtZ3mmRT2UhdavcOkcvp0&#xA;rVTzDCp2xVlOl/lre2Vl5USnKW1v/r+pKSP3bNGjkbHfi0Cp88VZbpv5feUtPupbuKwSW6km+set&#xA;P+9ZHDcgU5V40J7Yqkf5nRpfzaF5ahoj6rfCW44gf3UI/eMw7/arv4Yqrflr5R0/TrC4vQiy/XlE&#xA;EbsKh7aJeHMKa0Wdw0lPAjFV/mL8tfL2o351S7SV7a0tgkGl2iiNf3bNK3EJuS/IigpirAtb8l+Z&#xA;P0U+uXOlSXWr3ziO2sIFLpYWyrRB6SdWC0VR0XqfixVg1nol1KLia6raWlmSLuaQUIcGnpIp4l5C&#xA;duP0mgqcUpc3GpKgha7Ampp79MVaxV2Kvpb8tvL50PyjZ28i8Lq4H1m6B2POUA0PuqcV+jFDJ8Vd&#xA;irsVdirsVY/+YMTy+StZVBUi1dz8kHI/gMVfPGrajI8C2DfFHCYpImHSn1dIyaf5QRTilKcVdiq+&#xA;KaWGQSRO0ci/ZdSQRXbqMVRYlsbva4AtJz0uI1/dHb9uNfs/6yf8CcVUbqyuLUr6qjg+8UqkNG4H&#xA;XiwqDTv4d8VUMVZ15P8AKumecbWSIXAttctDH6it9ma2B4NIKfthSAdqVC1+0Tih6R+XmvXttNN5&#xA;O1w8dX0wUtZD0uLYfZKk9eK/8L8jirOsVdirsVSby4ghm1m1H+6dRlYD/mIjjuf1zHFWvJ6CHQ0s&#xA;u9hNPaU8FhmdI/vjCnFU6xV2KsC17RtSvPOkt66tHEbWLTNMk6fHclmuZU94oPU+mmKs6ghighjg&#xA;hUJFEoSNB0VVFAB8hiqVeZPNuheXLX19TuAjMP3VunxTSf6ifxO3virx3zL+c/mLUWaHSgNLtDsG&#xA;WjzsPdyKL/sR9OKsBubq6upmmupnnmb7UsrF2PzZiTilSxVe8UiAc1K1AIB2JB6EA9sVbgZknjZQ&#xA;SysCoFKkg7UqD+rFXufl38wtWXS47zULW61CyWgublbRoZ4u3MhS0MyV6lCrDuuKGU6F558r67eN&#xA;ZaZeetdohleFopYyFUhTvIijYsNgcVT3FXYq7FULqeq6dpdm95qFwltbR/akkNB8gOpPgBvirx3z&#xA;h+dN1fRz2Gh24hs5FaOS6nUPI6sKHihqqgjxr9GKvMZZGkYM3UKq/QqhR+AxSsxV2KuxV2KpjpMm&#xA;pBjDaRfXEk3lsSpkVwO5jG9QP2l3HiMVXX1vaEm5sFeL0/8Aemym+J4mHWhoOcfzFR0bsSqmflW1&#xA;8xRapBq/luCS4ktyzsiAtx4qS8UtOzrXjX7Xb4tgoexa1oqeb9I03zHpDGx1y2UTWMrihDAnlby+&#xA;3IEf2E4qzG1a4e2ha4QR3DIpmjU1CuR8Sg96HFVzuqAEnc7KKgVPgK98VeTeYPz1VJJ4NDs1lA4e&#xA;hezlgp2BesNFPsPi98Vee6x568x6nqv6TNwbOcMJFW0LxKrhBHyHxM1SigbnFUrh1jVoXV4ryZSs&#xA;vrj941PVqDzIJoWqOuKXpnl/89biGNIdcsjckEA3duVVyKAEmMhVJrvsRihmNj+b3km7ulg+tPAD&#xA;EJTPOhSMNtWKp35ivhTwJxVPtM8zeW9Wjhms76CYvVoULKsopVSfTajrtXt0xVB+YPMN8lw2kaDE&#xA;lzq3DncTSV9C0jI2kmIqSx/ZQbnr06qvnXVLnUdVvLnUZ5pbz4h6t3MAvX7I68Vr+yoPyxSl2Kow&#xA;ac8QD3rfVUIDKjCsrA7grHsd+xagPjirRvY4qCzj9Ijf12PKWviDsE9uIr7nFUKzMzFmJLE1JO5J&#xA;OKtYqj9D1C8sNWtbm0na2mSVP3obiKchXkf5fGuKvTPId+dW/M39LRrx+t2lxNNxHEFVmMKEgU3K&#xA;olfffFD2LFXYq7FXytrGt63r1y17qlzJccSFMjA+nHyrRVVRxUbHYDfFKlqR0iqrYNIVUCpkjClm&#xA;6ElvUb57KPl3xVAYq7FXYq7FUXYWtpcyejPci0kbaKWRSYqns7LVkHvxP0dcVZPo35X+cLvVY4BD&#xA;9UjA9VNS5coKD4lZJYywYnbjQ4oezS+QtFvbeyOroL7U7VUWTUqenLMVFD6nH7asNirV2xV57rvl&#xA;vXPy71z/ABB5fDT6I543EDEngjHeKXvx/kft391Xrej6nHqml2uoRxvElzGJBHIKMtex/qNj1GKp&#xA;d5l86+X/AC7btJf3AM1C0dpEQ0z0YKeKkj+bucVeH/mH+YEnmy4t0jtza2VmZPRQtyZ+ZA5vSgBo&#xA;vTem++KsPxS7FXYq7FXYq2CQQQaEbgjFWb+V/wA19e0SkLQxXls3NpIyOEkk0jA+rJKAzM+1N/6Y&#xA;oZl508knWbRPMGq6imhWEVvG508xcxbs4BlqVKc3ZjTZanYYq8/mtXitGu/L2nywafH8P6bviiSO&#xA;w/30zlYoz4BKv/lYqxeQlnLM3NmNWc13J6nffFK3FXYq7FXYq9n/ACN0otDd6uyUVUWxt3IoW+Mz&#xA;Sn5cnUfRih6tirsVdir5x8wwDSrzWvLcvGONrx50kYdwoe1Neu8bOvWg5VOKsQxS7FXYq7FV8cck&#xA;jcY1LN2Ubk/IYqnXl/zILJ0t7/T4NX08mn1WdQZFr/vmWnND7Db2xQ9w8oeePI09nDpunzLpjQ/A&#xA;mnXP7p1JNSoLEqx5E9GrirMMVadEkRo5FDo4KujCoIOxBBxV4/8AmDqFz5GuUsvLd9Paw6jG8klg&#xA;yh4IQTTnbu32CTX4V6ddtsVeSszOxZiWZjVmO5JPc4pW4q7FXYq7FXYq7FXYqn3ka80ez82addau&#xA;P9Bik5OxFQr8T6bMPBXoTir6SaPRdatUZhb6jaBw6H4J4+a9CPtLUVxQ81/OrTvLskUN1Pqht9Tt&#xA;ofTtNMX41deVa8B/d1r9o7Gg8MVeNYpaxV2KuxV2KvW/I/5u6BpWk2mj3mnyWkVsoQXEJEqsx3aR&#xA;1ojDkxJNK4oeqaRruj6xbfWdMu47qL9oxndSezKaMp9iMVR2KuxV5P8Anf5VeSGLzFax8jEogvwB&#xA;vwr+7k+gniT7jFXjWKXYq7FXYq3iqd6P5oayuPUvbG21VKFSl0pLGoI3dSC9O3PlTtQ4oZlo19D5&#xA;3aPTDp2ixXEcZEMcn1yO4EcY/YlQEHiOxfp2xVlvlnyl568t3g+rXMN3pABB02W7kIBPQxlrc8OP&#xA;hXfFWWLq2sJ/vRosx8Wt5reQbf8AGR4W/wCFxV4j+bXma91TzHLYlyLCxKiC3ZAjpI0a+pzPUnl7&#xA;0xVg2KXYq7FXYq7FXYq7FXYq7FWS+UPM/mzTxNo+gy0fUmCqh4/C/TmhchUYjYsf6YoRHmzyneeW&#xA;zBNrcgvtSvg0rr6tVXeh9Qk+rIT4igHicVQWneTfNWrW73cNg8djGpka4dfSiCqCSy7Vf/YAnFUq&#xA;uYLK3YxiZriVdmKKUjB9i/xn5FFxShMVdirsVdiqM0rV9S0m8S9064e2uU6SIaVHgw6MD4HbFX0H&#xA;+XPnuPzVpsnrIItSs+Iu0X7Dcq8ZE9jxO3bFDLsVU7i3gubeS3uEEsEylJY2FVZWFCCPcYq+dvzD&#xA;8gXfli/MsKtLo9wx+qz9ShO/pSf5Q7HuPpxVh+KXYq7FXYq2pAIJFR4Yq9O/KB76bWvWsNCtBbwg&#xA;R3moc5hIivX7HqSyAk8eip8yMUPbsVad1RGdvsqCzUBOw36DFXy55w1tdb8y3+pJ/czyn0PgCH0l&#xA;+GPkATvxAriqTYpdirsVdirsVdirsVdirsVVrS3e5uobdGVHmdY1ZzxUFiACzHoN9zir6B1oeQ/L&#xA;jx6v5gWGfW5Io+UjAzSyvGgTlHExYIPh67D3xQkurXXnPz7bfU7DSBpejMwYXl+8iO+xAPpoRyG/&#xA;Qqy174qwbzN5T8seWZTY3moT6nq9AWtLRFgSMsKrzkf1ux2AX7sVYfPFJHIQ8bRE7hGBBAO4674p&#xA;U8VdirsVdir3T8kPLxs9Cn1iZSJtSfjED2hiJAP+yev3DFD0nFXYqoX1hZ39pLZ3sK3FrMOMsTiq&#xA;kf59Dir5m866ZoumeZLyx0e4a4s4W41enwP+3GGH2gh2r/tlVJ4baebdF+EdXYhUHzZqKPvxSriy&#xA;tkFbi8jUj7UcQaV/oI4xH/kZiq4SaNEdoZ7kjozusKn5ookP3PiqMsdTuVkQ2NjY2hJAE8sayKD4&#xA;8rxplB+WKvV/Itrr2qymf/GQuUsyn1mysol4Ly3C8pEVaHieiYoemYql/mKdoNB1GZY2mZLaUiNP&#xA;tH4D03X9eKvlLFLsVdirsVdirsVdirsVdirsVXxCMyoJGKxlgHYCpC13IHfFX0l5SHkrVrSDUNJh&#xA;iupLJI7QXc0X+kL6KAKCzryrxpuMUMoxV4P+ZnnrXD5mv9OsLtba0tmEJe1+CRiqgOHlAD1BqpAN&#xA;O2+KvO2ZmYsxJYmpJ3JJxS1irsVdiqb+VPLl15h1y20y3BAkPKeUf7riX7bn5Dp77Yq+obS0t7O1&#xA;htLdBHb26LFEg6BUFAPuGKFXFXYqxvz9rd3pmgyrYEDULsNHA5NBEoQtLOx7LEgJr40xV8zk1JNa&#xA;+564pdirWKuxVEWOnX9/OILG2lupz0jhRnanjRQcVe//AJTeWL/QfL0q6jai2vrqcyMOQZzGFATn&#xA;QkAg8tsUM2ZgoLMaKNyT0AxVif5jX2lP5Jv1mvfQhu0McFxGHdWlX41QtEGoHKcTXFXzdil2KuxV&#xA;2KuxV2KuxV2KuxV2KqkFvcTv6cETyv14opY/cMVe0/kZZ6tZ2urxXtpNbQl4HgM0bx8mIcPQsBWg&#xA;C9MUPQtZ1NtMsHu1s7i+ZdltrRPUlYn/ACajbFXh3maxvb6a4vbPyk2kfWJHknvb92WrOamguDFD&#xA;HU1/ZPscVYlLpkUbVu7+3Rh9qOJjO1P8kxBov+HxSsLaNF9lZ7puoZykCg+BVfWJH+yGKqbX7DaC&#xA;GK3H+QvJq+IeQu4+g4qhmZmYsxLMepO5xV7Z+SM3ldNMmitpP9z0h5XiSgK5RT8Ii8UHfvXr2xQ9&#xA;QxV2KqdxcQW1vJcXEixQQqXllc0VVUVJJPYDFXk3mTzHHrtlrfmKKNpdBsIF0yzRiUM00s0UkjMB&#xA;8SxmkfLoSu21TRV5FJI8kjSPTkxqaAAfQBQAewxSsxV2KuxVNdJuYf7q+1K4tLAGrQWwZ3Y/5KFo&#xA;49/Etir0DRvzMtNPsodC8o6UEq3w3GozqC0jmhZkBHIk9lb5DFDJf8A6tqQ+u+edcae2T420+B/Q&#xA;tV325t8H6gf8rFUf5nl8uJ+Wuqx6P9Xl0yGBoY1tirxh+Q7rUEhmDE/Tir52xS7FXYq7FXYq7FXY&#xA;q7FXYq7FXqv5CLKdS1ZhMyxLFFzgBXi5LNxZgRy+HelPHFD2jFULqz3qaZdPYtCl2sbGF7kkQqwF&#xA;ayEb8Rir5l8xNez30txf6pDfXLMxPpyyTAVPRWIK8R2+LFUmxS7FXYq7FVa0vLqzuY7q1laC4hbl&#xA;FKhKspHcEYq+gvy3/MKHzNZm1u+MWs2ygzINhKvT1EH/ABIdsUM1xVZNDFPC8Myh4pVKSI24ZWFC&#xA;D8xirwjzV5Z1XyhdXFrCS+hXrl7OaQcouTCjW8/Ycl7nuqsCKGirAJ1KzOrR+kwJBi3+E+HxVO3v&#xA;ilTxV2KuxVfGsZP7xiqjwHI/QKj9eKp5onmpvL8puNHt1F5xKfW7n42AOxKIvFV+TF8UKepa3r2t&#xA;yrNrWotJGDyVZmPAf6kKDv4hQPfFLKL7zjrPmDQP8NeX9MEWmW1upvpkQKWWGjtIwX4IgzLyIqSe&#xA;lTih55il2KuxV2KuxV2KuxV2KuxV2Kvb/wAsfIF1p2mQ65HdG21S9iIMc0HNI4maoHEmNqtxBrXF&#xA;DMbz/GtvbvJbNp9/MoqkPpy2xY16AmWYdPHFWC6x+aWtwerpWveXksY7lGhlNzJMImR14tQxxPyF&#xA;D+zXFXnmpeXrJZRJHf2FvA4DRrHLcTggnekhj4cl7qWDe2KpJcWUkNWDLNEOk0RqvtWoDL8mAOKU&#xA;PirsVdirsVRmk6re6TqVvqNk/p3Ns4eNu3gVPiGGxHhir6Q/xrpn+DP8U/8AHt6HqelXf1a8PSr4&#xA;+p8OKGQ4qpXdpa3ltJbXUST28o4yRSAMrDwIOKvG/wAyvyx0nSLCTWLK/wDq0CEIljcVerHokL7t&#xA;0GytX5gYq8rxS7FXYq7FUbpei6vqk3pabZzXcgIr6SFgv+sRsv04qzLS/IOi6dcI3m7UVSetV0Wy&#xA;JuLpz14yekG419vvGKHoen+Y57G1Sz0DyVfJZV4hZUS1BrtyYNzJr4t9OKvL/wAwfJGq6Rqd1frY&#xA;+jpUpWUNF8UULTdYuVB9lthsO2KsNxS7FXYq7FXYq7FXYq7FWU/l/oF1q2rSSWkFveXGnoLkWF3y&#xA;EU6g8SvIbBgWBHLbx2xQ958v+a7PVnktJInsNXtx/pWmXG0qf5S9nTwZcVTvFVO5tba6haC5iSeF&#xA;9nikUOp+atUYq8a/MPy5+XcGpSWUE76HqgUOA0MrWcnIVH2QxXw5J8I8MVeY3EElrO0fNWK9JInD&#xA;qw8QynFKjirsVdirsVdiqc/4huv8JfoDkfQ+u/W/+SfHj8q708cVfUmKGndERndgqKCWYmgAHUk4&#xA;q+b/AMxvOcvmbW2aJiNLtCY7KPpUftSEeL0+6mKsTxS7FVSCT05VfgslDsr/AGa++4xVlPlu/wDL&#xA;2j3i6lrJTUJxUppdtBC6VI6yyMvpgDsI6/R0xQymPzN5z883f6L8vIuiaOKh3Q8DwH2qutCTv9hB&#xA;8/HFXpPk7ynYeXNKW2gkFzM55zXhRFaQmn8orx22qT88VT7FUNqemWOp2M1jfwrPazjjJE3Q9wR4&#xA;EHcEdMVeV675N0/zTqbaZ5asobC00hfQutUdXXlMi/Dbqtdytf3jEVr+KrAfOHkjWPK12sd6Fktp&#xA;iRa3aH4ZONCfhryUivQ/RXFWO4pdirsVdiqpbwTXFxFbwqXmmdY40HUsxoB9JOKvS4/yH102Mjya&#xA;hbLfVBihHMxlafEGfiCDXwU4oZJ+VHkPX/Lmo6hc6qiRrLEsUISQOH+LkWoPCg6+OKq35meTtUu5&#xA;08yaDcyrq2nqGa3RiSUXflEOzU6r+0PfqqoeW/zo0uXSUOtRyJqELBLkwIGUqR/fcaggdmABofbo&#xA;qgfzL88a5Lp4bQGjl8u3UYSXU7clpBIx3jcggwmlNmFTirzA+ZdVlsxZX0n6QtFqY47qshjJ7xyV&#xA;EifINQ9wcUpWaVNNh2B3xVrFXYq7FVSC3nuJkgt42mmkPGOKNSzMfAKKk4q9U8jfk1cSyR6h5lX0&#xA;oRRo9NB+N+49Uj7I/wAkb+NMUPXP0bp31P6j9Vi+pU4/VuC+nx8OFOOKonFWEfm1rFza+Xo9KsQW&#xA;1DW5RaQov2ihp6lP9aoT/ZYq8b866bZ6NqEWhW1JH0+NfrtwBvJcyqHff+VRxVR2oe5OKsdxS7FX&#xA;Yq2pANSKgdvHFWf/AJf/AJfar5hkXU76V7PRkBT1FPB5UH2ki/lTszdPnvih6Zp/m21n1W28veU7&#xA;JbqysiiX16CVtYIVNCqMPtuQNvfx3xVmOKuxVaFjjB4gICSzUoBU9ScVQ2p6TpuqWj2moWyXNu4I&#xA;ZJBXr3U9VPuN8VYN5w/KbyxNpU93p1vLa3VlaSG3t7YgiV40ZkDhg7MzNQE1qcVeIWulandySR2l&#xA;nPcSRV9VIo3crTryCg0pillXlf8AK/WPMGmWupW8qR28100EwanKOJB8U3UcviqvHr9HRQyfQPyW&#xA;tLq7iu7i9aTS0aaOe3A4zGWCVoWXkNgtUqe/b3xV6bovlXy9ogYaXYRWxc1ZwCznt9tyzfjiqa4q&#xA;xTzp5h1fy5c2WrKn1nQK+hqkKqOcRdhwmVqV9iDt07muKsZ/NDRrm700+bPLt0xingRdRWBiBNbg&#xA;8o5dqbxnr7fI4q8flvJJZReK3G7BrKf5z3ffqW/bHf6TRSjFaxugJLCU6dqDLxmgL8IJD39OSvwc&#xA;u6P8Pg3RcVSu4hnhmaKeNopV+1Gw4kd+mKqeKuxV2KuxV6p+Q2oQLqmo6e8aetLCJ4ZuI5gIwV15&#xA;daHmDT2xQ9pxV2KuxVgGtBL783tDtZPiisLKS6VT/vxy4/DipxV5N+ZNtJb+edYSQks0/qAn+WVR&#xA;Io+gNTFWNYpdirsVRFnLbwuZZo/WZP7uFvsFvF/EDw74qz7ydF5r82rJDfanJZ+XYVSC7lDCJOAN&#xA;RbxLsgLd9thQdKLih7XpGjaZo9jHY6dAtvbR9EXqT3Zid2J8TiqMxV2KpB5t1aGygiSTdF53t0B1&#xA;+r2QErf8HJ6cf+yxVV8l3+paj5X0+/1Jg15dIZnKqEHF3ZowAPBCuKp1iqyO3gieR441R5TylZVA&#xA;LNSlWI6mg74qk+kFLbzFrVgoCiUwahGo2FJ0ML0/2duSfc4qu8uNwl1ezOxttQlIH+TcqlyD9JmO&#xA;KpzirgQem+KqV1a293bS21zGstvMpSWJhVWVhQg4q8hu9a1f8tr99EkjF9oFxL9YshJ8R9BqrNCD&#xA;0DDkD4bdPixV5vrcNj9aN1pw42FyWaKKtTEwPxxE9+NfhPdSO9cUpbiqLi1BvSWC5QXNuuyoxo6C&#xA;tf3b9V+W6+IOKttZRyjnZSeqO8DUWYfJf2/9j8yBiqExVrFXYqzX8npHTz7YqoJEiTq5HYeizb/S&#xA;oxQ+iMVdirsVec/mJ5D8zaz5gttW0K5S2dLYW8r+q8L1Ds2xQE7h6Yq8q856R5vsb5W8xpJJMFEc&#xA;d637xZFWtP3o+2f9Y8qdcVY7il2KuxV2Kp3p+vek0Et5/pEOnb6dpu4g9XqJJF6EA/E3djt06KE8&#xA;8v8A5i+e31N1XVQUuHEtxJeBWgiRftHf7C0/ZSleg3xV6Jpn5l295qd1q13cLp/lW3DWtl6i/vLq&#xA;4qGL0ALURB0HTkK4qzTRNYtdZ0q31O0Di3uVLRiQcWoGK7gE+GKvKfOPmuDWZL/T7Jw9xq01vp9k&#xA;6moW2SdgWH/GWZGJ/wAnjir1pPqGl2EELSJb2sCJBE0jBFAUBUWpp4YqxLzR+ZGlxeXNRvdAvEur&#xA;uwmt4pCqsUBkk3FWXiwZEcVXFUo8x/mtPY+bJ9PswpsrW0n9QSAAPcLAZomDfapyASnufbFUL+W3&#xA;nW98w+bonv8Aj9cGnzQTMg4K/CZJI24+IDMMVZDrfmODyt5m1S5uUaS3vdPhuokWgLTW0hhdFr34&#xA;OjH2GKsd1P8AOl4NQ06/s7YzaLcW7i4tX4rKtwsjA/GA32V4GnQhvHFVCHzjeaXquvadYXYWPWUO&#xA;p+XrlwGUTXI9UxgPUAuxZaHYOPfFWPaX+cXm6HVLS41C5F1ZxfBc24jjT1EJ+JvhC/GB0/28VQvm&#xA;DX5bqxudB1S4N8tq/wBa0PVHJaQxsOQR2NWKyRnau4YUPsqxBZXEbR1+BiCV9xWh/HFKzFXYq7FV&#xA;8kskhrI3Jv5j1PzPU/Tiro4pJZFjiQvI5oqKCST4ADFWb+Wfyg80auyy3ifouzNCZJx+9I/yYdm/&#xA;4Ljih6R5O/Kiy8ta0uqLfvdukTRpG0YSjPQFqhj2qKe+Ks7xV2KuxV2Kqdxb29zC0FxEk0LijxSK&#xA;GVh4FTUHFWEa3+Tnk2+5zQJJpsm7Frdv3f0o4YAf6tMVeASiMSuIyWjDHgxFCVrsSMUrMVdirsVR&#xA;VlaiYs8rGO0io08oFaV6KB3duij+AJxVff6k95NEGUx2duPTtrVTtHHWtAafaPVmpud8VR1h5n1e&#xA;K8leCYxyXEH1KGjEJDE9Eog3pxQUB69+uKHaTqNlD5utNRYFLG2u1uI0rusUL80UfIKBilEav5lv&#xA;tR0Bo7mUvLe6pPezrU0BWGNUoD2+MgfLFUmS8lj02SzRiI7iVJZhXYmFWEe3t6rYqivMs8snmPU5&#xA;GY8jczLWv7IcqBUduO2Ksn/Jb/lOIv8AmHm/UMUM/wDzs0V7vy1FqUIPrabJVyOvozgI/T/K419q&#xA;4q8I9R/TEZNUB5AeBIoafOgxSmCzNe6P9XY1n00mS3PcwSN+8T/YOeYH+UxxVLmYsxY9Tufnirmd&#xA;2VVY1CCijwBNafecVW4q7FXon5KxWF3r19p1/bRXVvPamQRzIsi84pFA2YEdHOKHqNz+WHkO4blJ&#xA;pEamtf3byxD7o3XFVkP5V+QYW5JpKE/5cs7j7ndhiqfadoejaYtNPsYLSvUwxqhPzIFTiqNxV2Ku&#xA;xV2KuxV2KuxVJ/OV21p5T1i4U0dLObga0oxQhfxOKvlrFLsVdiqrb27zuVUhVUFpJG2VVHUn/Pc7&#xA;DfFV91co4WGEFbaKvAGnJiervTufw6Yqh8VbxVrFW8VV7CET31vCaUllRDXp8TAYqtu5/Xuppz1l&#xA;kZ99vtEnFU78natNpc2qXNrMYL76hItnIKVDiSNm+1t/dK+KGa+UfzO1HXLqHy35hjinsb+KW3uL&#xA;oKVmYsjFfsnh/k7L74q8qNK7dO2KVW0uXtrhJkAYrUMjfZZWHFlb2ZSQcVXXtusE5EZ5QuBJA57o&#xA;24rTao6N4EEYqh8VdirsVZr+T0/p+fbFP9/Rzp90LP8A8aYofRGKuxV2KuxV2KuxV2KuxV2KuxVj&#xA;/wCYELS+StZVeotZH+hByP4DFXzFil2KuxVVaY+kIU+GOvJh3ZqUqfl28MVdbW1xdTx29tG008pC&#xA;xxICzMT2AGKvTU/KCSx8k6nqOo/FrQt/Wgt0NVgWMiRgafbdkUjwH44oeW4pdirsVRelHjqNvKek&#xA;LiZuv2YvjPT2XFUJiqqFeEgutOaErXuGBFcVVNMv5tP1G1v4f721lSaP5xsGA/DFUOeNTSpFdidt&#xA;vlvirWKouNhPZtA397b1kgPcp1kT6Ptj/ZeOKoTFXYq7FWV/lazL590gqaHnIPoMLg4ofSWKuxV2&#xA;KuxV2KuxV2KuxV2KuxVSuraK6tZraYcoZ0aKQeKuCp/A4q+btY/LjzhplzLGdMnuYUZhHcW6GVXQ&#xA;HZ/3fIio33xVKW8u+YFFW0y7UE0BMEg3P+xxSiLXyb5sum4waPeN/lGF1X/gmAGKst0L8kfMt46v&#xA;qksWmwdWWommp7Kh4fe2KHq/lXyL5e8tRf6BBzumFJL2WjTN4itBxHstMVT90SRGjcBkcFWU9CDs&#xA;Rir5Z81aHJofmC+0tweNvIfSY/tRN8UbfShGKUpxV2Kr4pDGxYd1Zf8AglK/xxVZiqO1De205upN&#xA;sQT/AKs8oH4AYqgcVdirsVbVmVgymjA1BHYjFWsVdirsVZj+UduZvP2mmlViE0jddqQuAdv8ojFD&#xA;6MxV2KuxV2KuxV2KuxV2KuxV2KuxV2KuxV2KuxV2KuxV5p+c3kx9RsE12yTld2K8bpR1e3rXl84y&#xA;a/KvhirxI284dk4Esq8yBv8ACBy5CnUcd6+GKW7a1luGcRjaNTJIx6Kg7n6SAPE0HXFU10fyZ5j1&#xA;fUPqFpaN9YVQ83qfAsSkVHqE/ZJ7A74oSeWOSKR4pFKSRkq6MKEMDQgjFKIlYNpdsP2klmX/AGPG&#xA;MgfeWxVCYq7FXYqn/kby2nmLzLbaZKzpbOHe4kjoGVEUnaoI3NB0xQzHWvyK1qBmfSLyK8i6iKas&#xA;Mvyr8SH51GKsRv8A8vPOtiGM+kXBVdy0IEwp41iL4qx4gg0OxHUYperfkRoUzahfa3IhEEUX1aBi&#xA;Nmd2DOV/1QoH04oezYq7FXYq7FXYq7FXYq7FXYq7FXYq7FXYq7FXYq7FXYq4gEUO4PUYq8p84/lf&#xA;e210dU8tQrPEG9Q6WSUaJq1LW7qyEDvwr9/QKq3k7RdS11mlmsP8NadasqzQW8SQ3N1cpuXaT00a&#xA;MKDtwA3Jpir0fT9NsdOtxb2UKwxVLELuWZtyzMaszHuSanFXjf5yeR3s71vMdjHWzumH15FH93Md&#xA;uf8Aqyd/8r54q8xDsIyn7JIb6QCP44pW4q7FXYq9m/Iny+YrW916ZaNOfqtqT14IeUh+RbiP9jih&#xA;6virsVQsulaXLKZpbOCSU9ZGjQt95FcVRSqFAVRRRsAOgGKuxV2KuxV2KuxV2KuxV2KuxV2KuxV2&#xA;KuxV2KuxV2KuxV2KuxV2KuxVTuLeC5gkt7iNZYJVKSxuKqysKEEHFXg/5gflXe6HJJqGko91o5+J&#xA;lFWkg8edN2T/ACvv8SqwyTRtQjiaR4jxWMTKRuHhJ4+ojDZlB2NOn34pQsUEsocxqWWJecjdlWoF&#xA;Se25A+eKpn5d8s6jrmp2thbLR7lvtkbLEp+OU/5K/idhvir6b0nS7TStNttOtF4W9qgjjHfbqT7k&#xA;7nFCLxV2KuxV2KuxV2KuxV2KuxV2KuxV2KuxV2KuxV2KuxV2KuxV2KuxV2KuxV2KuxV2KuxVi2ue&#xA;SjJE0+g3J0y8QvJFAFSS0aRgeXKCQMiF60LIB71xV5dNFrHmW7GkaV5Zi0+a2fhf8aLbLcISGkkC&#xA;pGtR2Vy+3QbnFXq/kvyXZeW7Nvi+s6lcAG8vSKFqdEQfsovYYqyPFXYq7FXYq7FXYq7FXYq7FXYq&#xA;7FXYq//Z</xmpGImg:image>
               </rdf:li>
            </rdf:Alt>
         </xmp:Thumbnails>
      </rdf:Description>
      <rdf:Description rdf:about=""
            xmlns:xmpMM="http://ns.adobe.com/xap/1.0/mm/"
            xmlns:stRef="http://ns.adobe.com/xap/1.0/sType/ResourceRef#"
            xmlns:stEvt="http://ns.adobe.com/xap/1.0/sType/ResourceEvent#">
         <xmpMM:InstanceID>xmp.iid:A6A92EAE336FE41195E3D1493AEF96AB</xmpMM:InstanceID>
         <xmpMM:DocumentID>xmp.did:A6A92EAE336FE41195E3D1493AEF96AB</xmpMM:DocumentID>
         <xmpMM:OriginalDocumentID>uuid:5D20892493BFDB11914A8590D31508C8</xmpMM:OriginalDocumentID>
         <xmpMM:RenditionClass>proof:pdf</xmpMM:RenditionClass>
         <xmpMM:DerivedFrom rdf:parseType="Resource">
            <stRef:instanceID>xmp.iid:A5A92EAE336FE41195E3D1493AEF96AB</stRef:instanceID>
            <stRef:documentID>xmp.did:A5A92EAE336FE41195E3D1493AEF96AB</stRef:documentID>
            <stRef:originalDocumentID>uuid:5D20892493BFDB11914A8590D31508C8</stRef:originalDocumentID>
            <stRef:renditionClass>proof:pdf</stRef:renditionClass>
         </xmpMM:DerivedFrom>
         <xmpMM:History>
            <rdf:Seq>
               <rdf:li rdf:parseType="Resource">
                  <stEvt:action>saved</stEvt:action>
                  <stEvt:instanceID>xmp.iid:9FB6100F196FE41195E3D1493AEF96AB</stEvt:instanceID>
                  <stEvt:when>2014-11-18T22:56:30+08:00</stEvt:when>
                  <stEvt:softwareAgent>Adobe Illustrator CS6 (Windows)</stEvt:softwareAgent>
                  <stEvt:changed>/</stEvt:changed>
               </rdf:li>
               <rdf:li rdf:parseType="Resource">
                  <stEvt:action>saved</stEvt:action>
                  <stEvt:instanceID>xmp.iid:A6A92EAE336FE41195E3D1493AEF96AB</stEvt:instanceID>
                  <stEvt:when>2014-11-18T23:03:05+08:00</stEvt:when>
                  <stEvt:softwareAgent>Adobe Illustrator CS6 (Windows)</stEvt:softwareAgent>
                  <stEvt:changed>/</stEvt:changed>
               </rdf:li>
            </rdf:Seq>
         </xmpMM:History>
      </rdf:Description>
      <rdf:Description rdf:about=""
            xmlns:illustrator="http://ns.adobe.com/illustrator/1.0/">
         <illustrator:StartupProfile>Print</illustrator:StartupProfile>
      </rdf:Description>
      <rdf:Description rdf:about=""
            xmlns:xmpTPg="http://ns.adobe.com/xap/1.0/t/pg/"
            xmlns:stDim="http://ns.adobe.com/xap/1.0/sType/Dimensions#"
            xmlns:xmpG="http://ns.adobe.com/xap/1.0/g/">
         <xmpTPg:HasVisibleOverprint>False</xmpTPg:HasVisibleOverprint>
         <xmpTPg:HasVisibleTransparency>False</xmpTPg:HasVisibleTransparency>
         <xmpTPg:NPages>1</xmpTPg:NPages>
         <xmpTPg:MaxPageSize rdf:parseType="Resource">
            <stDim:w>260.000000</stDim:w>
            <stDim:h>400.000000</stDim:h>
            <stDim:unit>Pixels</stDim:unit>
         </xmpTPg:MaxPageSize>
         <xmpTPg:PlateNames>
            <rdf:Seq>
               <rdf:li>Cyan</rdf:li>
               <rdf:li>Magenta</rdf:li>
               <rdf:li>Yellow</rdf:li>
               <rdf:li>Black</rdf:li>
            </rdf:Seq>
         </xmpTPg:PlateNames>
         <xmpTPg:SwatchGroups>
            <rdf:Seq>
               <rdf:li rdf:parseType="Resource">
                  <xmpG:groupName>默认色板组</xmpG:groupName>
                  <xmpG:groupType>0</xmpG:groupType>
               </rdf:li>
            </rdf:Seq>
         </xmpTPg:SwatchGroups>
      </rdf:Description>
      <rdf:Description rdf:about=""
            xmlns:pdf="http://ns.adobe.com/pdf/1.3/">
         <pdf:Producer>Adobe PDF library 10.01</pdf:Producer>
      </rdf:Description>
   </rdf:RDF>
</x:xmpmeta>
                                                                                                    
                                                                                                    
                                                                                                    
                                                                                                    
                                                                                                    
                                                                                                    
                                                                                                    
                                                                                                    
                                                                                                    
                                                                                                    
                                                                                                    
                                                                                                    
                                                                                                    
                                                                                                    
                                                                                                    
                                                                                                    
                                                                                                    
                                                                                                    
                                                                                                    
                                                                                                    
                           
<?xpacket end="w"?>
	</metadata>
<path fill="#727171" d="M237.637,194.442c7.776-8.707,10.149-17.634,10.813-18.498c1.359-1.71,0.332-4.064,0.332-4.064
	s-1.215-2.307-5.369-5.158c-2.777-1.857-6.896-3.943-12.835-5.708c-0.644-0.193-1.306-0.368-1.986-0.543
	c7.869-13.514,4.433-22.138,4.433-22.138s-2.813,0.239-4.892-0.221c-0.442-0.11-1.932-1.085-4.304-2.335c0,0-0.018,0-0.018-0.028
	c-0.44-0.211-0.901-0.432-1.436-0.708c-0.993-0.47-2.133-0.975-3.384-1.471c0.901-1.692,1.729-3.512,2.502-5.471
	c9.229-23.196,2.151-33.428,2.151-33.428s-6.31-1.72-8.293-1.426c-1.619,0.249-20.332-4.091-37.801,13.984
	c-0.268-1.59-0.607-3.236-1.048-4.955C170.225,78.123,156.9,75.447,156.9,75.447s-1.25,2.354-2.674,3.778
	c-0.295,0.294-1.813,0.947-3.99,2.179c-0.44,0.22-0.911,0.497-1.379,0.781c-0.047,0.028-0.103,0.046-0.119,0.101
	c-1.692,1.012-3.605,2.299-5.59,4c-4.662-11.133-12.412-17.486-17.828-20.915c-0.027-0.028-0.055-0.056-0.102-0.074
	c-0.57-0.35-1.103-0.689-1.599-0.993c-0.019,0-0.074-0.019-0.092-0.019c-2.281-1.352-3.853-2.078-4.174-2.399
	c-1.489-1.572-2.841-4.201-2.841-4.201s-14.599,2.721-21.824,29.235c-0.102,0.313-0.176,0.644-0.25,0.957
	c-8.927-4.34-16.529-4.432-17.339-5.048c-4.237-3.135-11.603-0.644-11.603-0.644s-5.91,6.243-3.043,33.584
	c0.277,2.547,0.671,4.947,1.187,7.208c-13.367-4.303-24.427-1.425-30.955,1.149c-0.046,0-0.073,0.027-0.102,0.027
	c-0.634,0.267-1.195,0.515-1.737,0.736c-0.028,0.019-0.074,0.019-0.101,0.037c-2.4,1.066-3.899,1.921-4.34,1.967
	c-2.179,0.312-5.075-0.147-5.075-0.147s-2.694,5.645,0.147,15.5c-6.353,2.556-9.91,5.737-10.692,6.059
	c-2.014,0.882-5.516,3.088-5.516,3.088s-2.501,18.59,19.794,34.679c0.019,0,0.019,0.027,0.046,0.027
	c-2.924,3.585-4.91,7.116-6.28,9.984c-0.293,0.681-0.588,1.324-0.836,1.913c-1.03,2.4-1.545,4.063-1.839,4.413
	c-1.37,1.692-3.797,3.329-3.797,3.329s2.739,8.586,16.842,14.203c-17.357,19.738-11.869,33.016-11.869,33.016
	s2.822-0.275,4.927,0.119c0.423,0.072,1.839,0.982,4.073,2.133c0.561,0.294,1.204,0.615,1.894,0.928
	c0.018,0,0.046,0.027,0.073,0.027c2.795,1.297,6.445,2.676,10.812,3.513c-5.396,18.802,0.542,27.075,0.542,27.075
	s6.326,1.618,8.311,1.27c1.6-0.268,20.383,3.778,37.576-14.563c0.293,1.59,0.662,3.255,1.121,4.946
	c6.647,24.031,20.015,26.494,20.015,26.494s1.224-2.353,2.602-3.805c0.295-0.294,1.737-0.93,3.825-2.152c0,0,0,0,0.027-0.036
	c0.488-0.267,1.021-0.589,1.591-0.955c0.055-0.019,0.074-0.019,0.102-0.074c1.635-1.028,3.501-2.354,5.441-4.019
	c4.809,11.015,12.605,17.221,18.047,20.576c0.047,0.026,0.073,0.047,0.102,0.073c0.635,0.396,1.251,0.745,1.813,1.058
	c0,0,0,0.019,0.026,0c2.278,1.297,3.853,1.984,4.165,2.298c1.544,1.583,2.924,4.175,2.924,4.175s14.544-2.941,21.385-29.576
	c0.102-0.34,0.174-0.66,0.221-0.982c8.973,4.22,16.604,4.22,17.412,4.808c4.293,3.071,11.621,0.442,11.621,0.442
	s5.787-6.299,2.5-33.604c-0.313-2.537-0.734-4.944-1.269-7.181c13.382,4.046,24.396,1.031,30.903-1.646
	c0.019,0,0.074-0.019,0.093-0.019c0.644-0.275,1.251-0.543,1.782-0.791c0-0.02,0.037-0.02,0.037-0.02
	c2.392-1.103,3.897-1.984,4.34-2.059c2.152-0.322,5.057,0.092,5.057,0.092s3.273-7.189-1.765-19.298c0,0,0.019-0.026,0-0.026
	c0.092-0.047,0.221-0.074,0.313-0.13c8.256-3.153,12.594-8.034,13.514-8.421c1.986-0.911,3.494-1.012,3.494-1.012
	S258.396,209.639,237.637,194.442L237.637,194.442z M23.659,244.593L23.659,244.593c0,0,0,4.542,2.722,6.398
	c-0.533-0.351-5.856-3.575-7.299-2.132c0,0-1.867-10.711,7.942-18.389C27.024,230.473,21.527,239.684,23.659,244.593L23.659,244.593
	z M217.906,135.539L217.906,135.539c1.396,0.073,3.31,0.257,4.727,0.551c2.555,0.551,3.549,4.275,5.977,3.714
	c2.427-0.57,4.634,10.491,0.275,16.31c0.275-0.717,3.512-8.937,0.387-13.753c0,0-0.092,4.45-1.783,5.535
	c-0.313,0.221-0.533,0.368-0.719,0.46c0,0,2.17-3.77,0.516-6.298c-1.637-2.528-10.646-2.28-10.646-2.28s6.951-0.956,8.643-0.469
	c-1.141-0.68-4.779-2.813-7.482-3.604c-0.461-0.129-0.883-0.221-1.269-0.267C216.857,135.464,217.336,135.483,217.906,135.539
	L217.906,135.539z M210.35,137.864L210.35,137.864c-0.92,0.414-9.326,4.267-17.537,8.459c-0.026,0.027-0.055,0.027-0.071,0.046
	c-6.556,3.365-12.954,6.968-15.263,9.23c-5.342,5.268,4.883-0.185,4.883-0.185s3.731-0.414,4.56-0.956
	c0.644-0.404,7.19-3.328,10.058-4.633c0.027,0.027,0.027,0,0.047-0.019c0.44-0.175,0.791-0.321,1.012-0.423
	c-0.221,0.129-0.645,0.331-1.178,0.57c-0.026,0.019-0.055,0.046-0.073,0.046c-3.925,1.913-14.158,6.997-14.866,8.118
	c-0.193,0.276-0.193,0.57-0.045,0.865c0.027,0.073,0.045,0.119,0.092,0.192c0.248,0.414,0.717,0.781,1.23,1.104c0,0,0-0.027,0.027,0
	c0.782,0.441,1.666,0.69,1.986,0.468c0.064-0.055,0.119-0.073,0.146-0.128c-0.056,0.248-0.082,0.735,0.268,1.673
	c0.027,0.074,0.072,0.147,0.119,0.221c-3.725,1.857-7.354,4.045-10.691,6.398c0.027-0.055,0.027-0.128,0.027-0.175
	c0.174-1.866-0.938-1.397-1.721-3.282c-0.781-1.894-2.354-0.468-3.281-1.572c-0.957-1.103-1.571-0.928-2.042-2.822
	c-0.267-1.104,0.735-2.768,1.747-4.267c0.707-1.084,1.443-2.041,1.691-2.629c0.635-1.416-2.041-1.738-3.438-1.738
	c-1.415,0-0.459-2.813-1.737-1.241c-0.045,0.037-0.102,0.111-0.146,0.138c-0.486,0.45-1.203,0.34-1.938,0
	c-0.369-0.175-0.754-0.414-1.103-0.68c0.514-0.497,1.056-1.002,1.617-1.48c0.91-0.827,1.818-1.618,2.693-2.326
	c2.527-2.013,4.734-3.282,5.911-2.896c0,0-3.87,1.719-2.942,4.1c0.957,2.373,4.836-0.533,4.836-0.533l7.971-3.641
	c-1.543,0.763-7.852,3.954-9.541,6.427c-2.135,3.163,0.072,3.163,2.574,1.517c2.526-1.637-1.03,0.864,0.146,1.131
	c1.157,0.248,3.585-1.545,5.129-1.94c0.837-0.221,7.55-3.825,14.517-7.208C201.641,141.027,207.426,138.407,210.35,137.864
	L210.35,137.864z M177.331,168.883L177.331,168.883c-0.388,0.368-0.708,0.671-0.929,0.836c-0.469,0.368-0.957,0.81-1.397,1.271
	c-0.026-0.11-0.026-0.268-0.026-0.387C175.713,170.042,176.504,169.453,177.331,168.883L177.331,168.883z M198.256,130.629
	L198.256,130.629c1.251-0.91,2.279-1.765,2.646-2.28c0.486-0.662-0.293,0.459-1.616,2.179
	C198.943,130.555,198.596,130.573,198.256,130.629L198.256,130.629z M149.842,82.51L149.842,82.51
	c1.719-1.71,5.176-0.607,5.958-2.813c0.781-2.188,10.601,1.691,12.972,8.054c-0.588-0.8-5.313-7.282-10.617-7.282
	c0,0,3.465,2.363,3.465,4.248c0,0.349,0,0.616,0,0.791c0,0-1.895-3.604-4.717-3.604c-2.813,0-7.207,7.208-7.207,7.208
	s2.769-5.958,4.018-7.07c-1.296,0.634-5.93,2.969-7.501,4.937C146.846,86.095,148.491,83.852,149.842,82.51L149.842,82.51z
	 M134.637,125.628L134.637,125.628l1.176-7.907c-0.221,1.894-0.836,8.053,0.248,10.573c1.371,3.292,2.5,1.572,2.5-1.25
	c0-2.813,0.148,1.25,0.931,0.469c0.782-0.782,0.644-3.604,1.103-5.029c0.12-0.368,0.321-2.151,0.569-4.708
	c0.709-6.601,1.858-18.295,3.356-23.471c0.174-0.487,0.321-0.929,0.469-1.296c0,0-0.102,0.735-0.295,1.958
	c-0.614,4.275-2.012,14.664-2.573,22.929c-0.293,4.349-0.367,8.1,0.046,10.085c0.248,1.176,0.469,1.838,0.68,2.132
	c1.014,1.343,1.676-6.058,1.676-6.058s0.266-0.515,0.56-1.204c0.203-0.405,0.396-0.883,0.569-1.343
	c0.24-0.616,0.441-1.214,0.441-1.526c0-0.129,0.02-0.386,0.073-0.753c0.047-0.405,0.119-0.883,0.192-1.453
	c0-0.055,0-0.092,0.027-0.147c0.018-0.248,0.047-0.487,0.102-0.735c0.019-0.166,0.045-0.313,0.074-0.497
	c0.385-2.593,0.9-5.902,1.147-7.299c-0.366,3.107-1.865,15.445-1.323,16.695c0.635,1.397,3.779-0.487,3.779-1.269
	c0-0.073,0-0.128-0.027-0.174c0.146,0.174,0.543,0.441,1.424,0.662c2.061,0.469,2.209-5.029,3.312-7.843
	c0.515-1.379,0.956-3.641,1.251-5.598c-0.571,4.762-1.277,12.337-0.322,12.66c1.426,0.459,4.247-7.705,4.247-9.562
	c0.019,1.443-0.026,8.678-0.79,11.887c-0.957,3.926-3.917,11.63-2.354,12.237c1.086,0.441,4.146-9.653,5.498-16.548
	c-0.248,2.739-0.44,5.562-0.176,5.883c0.616,0.754,1.82-3.631,3.338-8.927c-0.367,1.591-1.518,6.647-0.983,6.887
	c0.589,0.294,3.116-11.547,3.438-13.019c-0.103,0.809-0.543,4.588-1.278,8.955c-0.146,0.267-0.293,0.514-0.441,0.781
	c-5.396,11.694-6.793,16.016-7.088,17.588c-0.026,0.019-0.026,0.046-0.026,0.073c-0.019,0.092-0.045,0.184-0.045,0.267
	c-0.074,0.514,0.026,0.56,0.026,0.56s0.045-0.128,0.119-0.339c0.661-1.738,3.724-9.736,6.84-15.381v-0.019
	c1.792-3.291,3.613-5.792,4.956-5.838c0,0-2.824,2.795-1.204,4.561c0.614,0.689,1.378,0.514,2.06,0.101v-0.027
	c0.071-0.046,0.146-0.101,0.248-0.147c0.982-0.763,1.765-2.013,1.765-2.013l1.159-1.177l2.031-2.041l0.838-0.846l0.19-0.229
	l1.251-1.223c-0.322,0.367-0.764,0.836-1.251,1.425c-0.071,0.064-0.146,0.175-0.221,0.266c-0.294,0.35-0.615,0.717-0.929,1.104
	c-0.67,0.809-1.352,1.718-1.938,2.573c-0.765,1.159-1.37,2.262-1.573,3.144c-0.561,2.373,0.148,2.796,1.178,2.106
	c0.147-0.12,0.321-0.248,0.487-0.414c0.349-0.322,0.716-0.736,1.085-1.232c0.146-0.193,0.266-0.368,0.367-0.488l0.02-0.027
	c0.862-1.149-0.901,1.6,0.101,1.453h0.026c1.104-0.203,2.631-2.528,3.826-3.383c1.224-0.883,15.618-17.928,20.924-21.146
	c-1.186,1.204-20.069,20.281-22.91,26.486c-2.914,6.399,4.221-1.792,4.221-1.792s3.107-1.591,3.678-2.354
	c0.459-0.607,5.563-5.682,7.502-7.576c0.275-0.313,0.495-0.515,0.614-0.643c-0.119,0.156-0.339,0.368-0.614,0.643
	c-2.474,2.648-10.397,11.179-10.693,12.466c-0.313,1.49,3.338,1.83,3.809,1.195c0.027-0.055,0.045-0.101,0.072-0.147
	c0.02,0.22,0.166,0.662,0.781,1.343c1.352,1.599,4.735-2.74,7.291-4.358c1.224-0.791,2.887-2.354,4.283-3.778
	c-2.232,2.427-5.322,5.856-6.812,8.045c-7.089,1.636-14.968,5.249-23.353,11.988c-0.562,0.422-1.104,0.882-1.666,1.379
	c-0.119,0.073-0.22,0.166-0.349,0.276c-0.387,0.386-0.78,0.772-1.177,1.14c-0.018,0.027-0.018,0.027-0.047,0.055
	c-0.689,0.68-1.323,1.324-1.938,1.931c-0.606,0.616-1.177,1.177-1.71,1.747c-0.645-0.588-1.111-1.25-1.203-1.747
	c0,0-0.471,0-1.104,0c-0.644,0-1.103-0.773-3.146-0.46c-2.031,0.313-1.248-0.459-1.709-1.251c-0.469-0.791-1.57,1.104-3.291,0.607
	c-1.738-0.459-1.277-0.607-1.738-1.562c-0.469-0.938-2.039,1.269-3.438,0.955c-1.225-0.275-0.709-1.011-0.543-1.194
	c-0.221,0.184-1.296,1.103-1.986,0.239c-0.781-0.938-0.606-0.763-2.031-0.938c-1.397-0.147-1.571,0-2.039-1.104
	c-0.461-1.076,0,0-1.104,0.322c-1.075,0.322-0.284-0.782-0.284-0.782s0,0-0.496-0.468c-0.461-0.469-0.93,0.634-1.397-0.322
	c-0.468-0.929,0,0-0.468-1.104c-0.047-0.128-0.092-0.22-0.148-0.293c-0.432-0.662-1.048-0.147-3.152,0.147
	c-0.718,0.101-1.142,0.129-1.379,0.073c-1.445-6.454-2.778-14.443-0.957-15.914c0,0-0.645,3.926,1.711,4.395
	C134.958,130.188,134.637,125.628,134.637,125.628L134.637,125.628z M132.55,100.069L132.55,100.069
	c-0.268,0.57-0.543,1.158-0.782,1.765c-0.781-11.308-2.556-24.565-2.556-24.565C130.738,81.112,131.813,91.951,132.55,100.069
	L132.55,100.069z M128.825,130.647L128.825,130.647c0.809,3.925,1.499,7.061,2.06,9.423c-0.469,0-1.103,0.469-1.425,1.223
	c-0.469,1.104-2.5,0-2.971-0.606c-0.486-0.644-1.103,0.606-2.205,2.032c-0.02,0.027-0.047,0.046-0.047,0.073
	c-0.293-3.19-0.882-8.164-2.114-15.841c-1.37-5.958-3.154-11.088-5.24-15.5c1.048-0.321,0.414-8.66-0.129-13.937
	c0.294,2.169,0.716,4.67,1.278,6.187c1.157,3.136,1.222,9.167,3.457,8.707c1.011-0.22,1.425-0.514,1.571-0.717
	c0,0.074-0.027,0.128-0.027,0.203c0,0.882,3.384,2.987,4.101,1.452c0.606-1.36-0.791-14.82-1.158-18.351
	c0.422,2.74,1.599,11.106,1.599,11.97c-0.027,0.828,1.076,3.31,1.489,4.192C128.035,116.673,127.842,123.126,128.825,130.647
	L128.825,130.647z M125.883,94.13L125.883,94.13c0,0,0.047,0.293,0.093,0.791C125.902,94.424,125.883,94.13,125.883,94.13
	L125.883,94.13z M117.646,62.375L117.646,62.375c0.828,2.455,4.606,1.306,6.445,3.218c1.472,1.517,3.209,3.99,3.897,4.974
	c-1.691-2.179-6.692-4.809-8.117-5.544c1.25,1.158,3.897,6.941,4.247,7.722c-0.542-0.882-4.836-7.916-7.704-7.961
	c-3.089-0.055-5.195,3.898-5.195,3.898c0-0.175,0-0.469,0.02-0.864c0.027-2.079,3.824-4.616,3.824-4.616
	c-6.16-0.092-11.767,7.962-11.767,7.962C105.999,64.122,116.836,59.948,117.646,62.375L117.646,62.375z M113.37,105.07
	L113.37,105.07c-0.312-0.515-0.662-1.002-0.974-1.471c0-1.471,0.019-2.574,0.046-2.915c0,0.046,0,0.102,0,0.175
	C112.416,101.614,112.81,103.287,113.37,105.07L113.37,105.07z M105.161,122.263L105.161,122.263
	c-0.221-0.459-0.451-0.956-0.644-1.471c-0.193-0.938-0.414-1.986-0.662-3.089c0.34,1.269,0.716,2.556,1.058,3.779
	C104.986,121.748,105.087,122.024,105.161,122.263L105.161,122.263z M98.367,107.921L98.367,107.921
	c-0.027-0.056-0.027-0.074-0.046-0.102c-0.083-0.266-0.129-0.542-0.156-0.763C98.238,107.304,98.293,107.599,98.367,107.921
	L98.367,107.921z M92.85,96.438L92.85,96.438c0.976,1.443,2.079,3.309,3.228,5.378c-0.037,0.487-0.074,0.975-0.092,1.471
	c-1.251-2.381-2.381-4.486-3.208-6.068c-0.865-1.581-1.454-2.646-1.601-2.933C91.692,94.819,92.235,95.555,92.85,96.438
	L92.85,96.438z M82.839,142.084L82.839,142.084c-0.24-0.368-0.488-0.736-0.763-1.104c0.293,0.368,0.57,0.754,0.863,1.121
	c0.542,0.736,1.077,1.453,1.618,2.133c4.267,5.59,7.356,5.544,2.4-0.901c-0.533-0.717-1.122-1.526-1.709-2.381
	c-0.763-1.131-1.573-2.381-2.336-3.65c-0.092-0.129-0.174-0.249-0.238-0.368c-0.837-1.397-1.674-2.795-2.482-4.174
	c-0.322-0.588-0.635-1.177-0.957-1.738c0,0,0-0.028-0.027-0.028c-2.151-3.871-3.769-7.042-3.972-7.41
	c0.349,0.542,3.263,5.176,5.59,8.605c0.57,0.809,1.103,1.545,1.544,2.17c0.763,1.002,1.306,1.618,1.425,1.489
	c0.056-0.055,0.056-0.166,0-0.368c-0.073-0.313-0.313-0.828-0.615-1.452c-0.956-1.784-2.621-4.331-3.154-5.148
	c2.004,2.758,3.825,5.305,5.094,6.821c0.808,0.938,1.378,1.499,1.673,1.499c0.092,0,0.166-0.046,0.193-0.147
	c0.147-0.441-1.13-3.282-2.455-6.003c4.028,6.564,11.061,15.831,12.026,14.986c1.341-1.232-4.67-8.054-7.116-11.731
	c-1.995-2.97-4.708-10.131-5.352-11.86c0.956,2.096,6.721,9.111,7.971,8.108c0.855-0.689-2.768-8.218-5.176-12.926
	c1.058,1.913,2.354,4.073,3.438,5.277c2.208,2.501,4.46,8.118,6.371,6.84c0.837-0.542,1.132-0.984,1.204-1.205
	c0,0.046,0.029,0.129,0.057,0.193c0.137,0.405,1.222,0.791,2.252,0.865c0.092,0.018,0.22,0.018,0.339,0.018h0.027
	c0.369,0,0.708-0.046,0.984-0.147c0.019,0,0.019,0,0.019,0c0.422-0.166,0.689-0.441,0.717-0.883
	c0.064-1.121-3.539-8.384-5.939-13.184c-0.248-0.422-0.441-0.836-0.635-1.204c-0.689-1.352-1.231-2.363-1.425-2.804
	c0.221,0.422,0.689,1.25,1.269,2.28c0.23,0.405,0.478,0.837,0.716,1.278l0.029,0.028c1.71,3.061,3.843,6.914,4.072,7.502
	c0.22,0.588,1.269,1.747,2.105,2.574c0.589,0.588,1.058,1.03,1.058,1.03s5.121,10.812,3.917,3.163
	c-0.166-1.094-0.636-2.574-1.278-4.339c1.231,2.482,2.307,2.822,2.114,0.422c0.542,1.104,1.103,2.133,1.719,2.427
	c1.103,0.515-0.322-3.75,0.781-0.864c1.085,2.923,2.896,4.293,3.044,0.349c0.1-2.896-2.703-8.752-3.724-10.812l2.299,4.164
	l1.847,3.356c0,0,0.58,1.986,1.59,3.043c0.562,0.588,1.251,0.883,2.06,0.396c2.234-1.38,0.074-5.177,0.074-5.177
	c2.869,0.956,4.735,13.193,5.59,20.677c-0.615,0.192-1.517,0.9-2.748,0.606c-1.251-0.313-1.573-0.313-2.327,0.792
	c-0.791,1.103-2.529,0-3.144,0c-0.634,0-0.322,1.397-0.957,2.032c-0.018,0.027-0.018,0.027-0.046,0.027
	c-0.32,0.293-0.863,0.147-1.277-0.073c-0.386-0.175-0.708-0.424-0.708-0.424l0.459,1.25c0,0,0,0,0,1.104s-1.856,0-3.134,0.322
	c-1.25,0.294-1.076,3.76-2.032,3.898c-0.937,0.174-1.397-0.294-1.866,0.322c-0.488,0.644-0.634,0.791-1.425,1.563
	c-0.782,0.791-0.46-0.773-0.46-0.773s-0.791,0-1.103,0.625c-0.275,0.515-0.763,1.397-0.91,1.655c0,0.037-0.029,0.073-0.029,0.073
	l-0.045-0.055l-0.248-0.147l-0.662-0.441c0,0-0.616-0.459-0.616,0.313c0,0.791-0.781,1.112-1.885,1.112
	c-1.103,0-1.72,0.469-2.969,2.032c-1.224,1.545-0.957-0.092-1.71,1.057c-2.676-1.471-5.894-3.686-9.489-6.941
	c0.46,0.313,0.8,0.571,1.021,0.736c2.363,1.894,7.135,3.972,1.747-1.204c-1.526-1.443-3.365-3.724-5.204-6.224
	c-1.709-2.262-3.439-4.735-4.928-6.969c-0.193-0.267-0.34-0.515-0.515-0.754c-1.397-2.096-2.592-3.935-3.355-5.149
	c0.763,1.104,2.004,2.869,3.99,5.489c0.25,0.34,0.515,0.689,0.81,1.075c0.423,0.57,0.882,1.159,1.37,1.784
	c1.36,1.747,2.381,3.024,3.171,3.935c2.5,2.868,2.62,2.133,3.283,1.618C85.927,146.92,84.631,144.732,82.839,142.084L82.839,142.084
	z M73.499,143.601L73.499,143.601c0.018,0,0.073,0.027,0.092,0.046c1.333,1.582,2.629,2.905,3.907,4.045
	c4.634,5.296,9.975,10.085,15.372,13.497c-0.322,0.487-0.662,0.974-1.343,1.766c-1.251,1.397,0.46,1.397,0.929,2.647
	c0.459,1.269-1.103,2.041-2.042,2.207c-0.045,0-0.092,0.018-0.119,0.018c-0.708,0.202-0.22,0.957-0.046,2.611
	c0,0.074,0.027,0.12,0.027,0.184c0.046,0.497,0.046,0.717,0.046,0.846l-0.027,0.018c-0.019-0.018-0.046-0.018-0.074-0.018
	c-0.074-0.056-0.174-0.074-0.295-0.111c-0.164-0.073-0.414-0.119-0.707-0.183c-1.011-0.276-2.648-0.589-5.203-0.957
	c-0.02-0.009-0.047-0.027-0.074,0c-0.488-0.073-0.974-0.147-1.489-0.229c-0.248-0.046-0.525-0.074-0.81-0.101
	c-2.996-0.387-6.94-0.828-12.19-1.296c-2.869-0.046-5.572,0.027-8.127,0.229c-0.607-0.294-1.196-0.597-1.802-0.882
	c-5.765-2.832-11.337-6.041-12.292-6.602c1.323,0.607,11.749,5.443,13.468,5.646c0.165,0.037,0.266,0.019,0.266-0.037
	c0-0.046-0.027-0.119-0.074-0.193c-0.689-0.854-5.497-3.015-6.794-3.604c2.814,1.104,5.396,2.105,7.264,2.749
	c1.93,0.634,3.08,0.854,2.932,0.34c-0.119-0.441-2.721-2.161-5.313-3.751c6.96,3.383,17.899,7.364,18.221,6.132
	c0.396-1.489-5.792-3.512-10.178-5.148h-0.027c-0.781-0.294-1.526-0.588-2.133-0.864c-1.792-0.782-4.485-2.52-6.775-4.119
	c-1.095-0.754-2.078-1.471-2.869-2.032c-1.296-0.965-1.958-1.499-1.37-1.058c0.662,0.497,2.51,1.251,4.487,1.913
	c0.074,0,0.156,0.027,0.221,0.046c1.7,0.542,3.484,0.984,4.762,1.085c0.027,0,0.046,0,0.074,0c0.9,0.073,1.543-0.045,1.663-0.414
	c0.074-0.202-0.119-0.497-0.486-0.864c-1.646-1.71-7.116-5.029-10.867-7.208c1.913,1.03,4.192,2.152,5.736,2.593
	c2.75,0.791,6.776,3.438,8.441,2.868c0.293-0.073,0.513-0.257,0.634-0.551c0.22-0.478,0.32-0.836,0.349-1.104
	c0.045-0.275,0.045-0.469,0.018-0.598c0.027,0.046,0.074,0.102,0.146,0.156c0.221,0.139,0.691,0.11,1.251-0.055
	c1.278-0.349,2.896-1.379,2.307-2.409c-0.146-0.239-0.707-0.708-1.544-1.323c-1.149-0.809-2.841-1.885-4.688-3.016
	c-0.02-0.019-0.02-0.019-0.047-0.019c-1.59-1.012-3.31-2.023-4.826-2.942c-0.047,0-0.074-0.027-0.119-0.056
	c-1.868-1.103-3.486-2.032-4.349-2.546c1.231,0.634,3.851,2.032,6.187,3.282c0.045,0.027,0.064,0.056,0.092,0.056
	c2.161,1.158,4.054,2.206,4.395,2.454c0.468,0.34,1.884,0.708,3.016,0.975c0.882,0.193,1.618,0.34,1.618,0.34
	s10.149,6.326,4.973,0.552c-5.148-5.792-32.666-20.659-32.666-20.659C51.13,129.618,71.953,143.086,73.499,143.601L73.499,143.601z
	 M10.126,155.966L10.126,155.966c0.268,0,0.516-0.027,0.736-0.128c-0.027,0.055-0.046,0.101-0.073,0.146
	c-1.131,2.869,2.97,8.22,2.97,8.22c-0.175-0.074-0.423-0.175-0.809-0.322c-1.913-0.763-2.97-5.222-2.97-5.222
	c-2.105,5.442,3.264,12.182,3.825,12.899C8.187,166.576,7.552,155.893,10.126,155.966L10.126,155.966z M12.287,154.68L12.287,154.68
	c0.902-1.223,1.563-2.979,3.089-3.641c1.931-0.809,4.854-1.601,6.031-1.895c-2.629,0.809-6.38,2.988-7.557,4.073
	c1.626-0.818,8.338,0.321,8.338,0.321S15.449,153.264,12.287,154.68L12.287,154.68z M16.865,204.049L16.865,204.049
	c2.308-1.121,0.69-4.725,2.381-6.812c1.324-1.618,3.558-3.677,4.441-4.487c-1.94,1.958-3.926,7.254-4.468,8.752
	c1.038-1.471,7.216-5.222,7.216-5.222s-7.354,5.636-7.015,8.679c0.322,3.07,4.515,4.68,4.515,4.68
	c-0.202,0.037-0.469,0.057-0.865,0.103c-2.059,0.221-5.047-3.209-5.047-3.209c0.68,6.133,9.341,10.646,9.341,10.646
	C20.056,215.413,14.567,205.152,16.865,204.049L16.865,204.049z M26.997,130.997L26.997,130.997c-1.838,2.482,0.102,6.5,0.102,6.5
	c-0.147-0.119-0.368-0.267-0.69-0.524c-1.664-1.241-1.471-5.811-1.471-5.811c-2.161,2.869-1.958,7.217-1.443,10.334
	c0.368,2.032,0.855,3.53,0.928,3.797c-0.708-1.076-1.204-2.308-1.526-3.577c-1.535-6.215,0.865-13.763,2.905-13.129
	c2.428,0.763,3.724-2.959,6.371-3.328c2.087-0.294,5.103-0.248,6.326-0.221c-2.768,0.073-7.842,2.575-9.267,3.31
	c1.792-0.367,8.853,1.122,8.853,1.122S28.863,128.542,26.997,130.997L26.997,130.997z M41.514,252.665L41.514,252.665
	c-0.589,0.192-1.104,0.313-1.545,0.414c0,0,0.617-0.295,1.692-0.81C41.596,252.389,41.542,252.518,41.514,252.665L41.514,252.665z
	 M47.719,191.785L47.719,191.785c0.644-0.165,2.014-0.551,3.605-0.993c0.266-0.056,0.57-0.147,0.864-0.221
	c3.189-0.864,6.913-1.839,7.602-1.967c0.02,0,0.02,0,0.047,0c0.102-0.028,0.248-0.055,0.395-0.128c1.177-0.368,3.53-1.857,3.87-2.06
	c0-0.019,0.029-0.019,0.029-0.019s11.722-2.335,3.999-3.016c-2.675-0.248-8.027,0.561-13.855,1.711
	c-5.912,1.14-12.311,2.656-17.026,3.806c-2.327,0.561-4.267,1.048-5.517,1.379c-0.782,0.221-1.296,0.34-1.499,0.386
	c0.322-0.193,0.717-0.368,1.159-0.57c1.278-0.534,2.988-1.094,4.928-1.655c4.606-1.36,10.545-2.703,15.547-3.806
	c5.248-1.158,9.46-2.014,10.057-2.28c0.882-0.423,2.326-0.643,3.531-0.957c0.119-0.027,0.248-0.055,0.367-0.101
	c0.193-0.046,0.369-0.12,0.535-0.174c0.201-0.074,0.349-0.147,0.496-0.239c0.193-0.102,0.34-0.221,0.441-0.35
	c0.027-0.055,0.055-0.091,0.074-0.12c0.248-0.782-3.65-0.515-0.718-0.836c0.322-0.019,0.644-0.073,0.911-0.147
	c1.158-0.22,1.985-0.607,2.233-1.048h0.027c0.268-0.515-0.248-1.131-2.086-1.673c-0.882-0.249-2.077-0.294-3.438-0.221
	c-2.473,0.101-5.34,0.644-7.106,1.012c-0.074,0.019-0.129,0.046-0.174,0.046h-0.02c-0.515,0.119-0.937,0.221-1.177,0.267
	l1.122-0.294l0.174-0.056l5.812-1.517l1.277-0.313l0.441-0.119c0,0,1.94-0.102,3.218-0.763c0.24-0.129,0.46-0.267,0.634-0.414
	c0.386-0.405,0.589-0.883,0.369-1.545c-0.193-0.588-0.571-0.956-1.04-1.213c-0.166-0.093-0.357-0.166-0.56-0.222
	c-0.02-0.018-0.047-0.018-0.092-0.018c-1.472-0.386-3.31,0.129-3.31,0.129c0.238-0.368,0.708-0.663,1.37-0.883
	c4.955-1.747,20.382,0.46,24.666,1.122c-0.092,0.102-0.164,0.276-0.266,0.497c-0.542,1.37,0.102,1.297,0.57,1.986
	c0.092,0.092,0.146,0.221,0.211,0.368c0.176,0.387,0.027,0.635-0.238,0.809c-0.497,0.341-1.325,0.561-1.325,1.37
	c0,1.25,1.251,0.957,0,2.032c-1.25,1.103-1.406,1.103-1.406,1.103s0.275,0.442,0.377,0.984c0.018,0.248,0.018,0.542-0.056,0.809
	c0,0.027-0.018,0.073-0.018,0.101c-0.303,0.929,0,0-0.468,0.929c-0.074,0.146-0.102,0.267-0.102,0.377
	c0.027,0.58,1.058,0.653,1.058,1.048c0,0.46-1.104,0.791-1.104,0.791s0,0.773,0.616,0.919c0.634,0.184-0.303,1.104-0.937,1.104
	c-0.607,0-0.782,0.938,0.321,1.397c0.029,0.037,0.046,0.037,0.074,0.055c0.396,0.193,0.488,0.617,0.441,1.03
	c-0.073,0.662-0.588,1.323-1.15,1.122c-0.367-0.11-0.587,0.11-0.615,0.588c-0.047,0.699,0.266,1.875,0.929,3.171
	c1.113,2.207,0.321,2.032-0.46,2.032s-2.998-0.294-0.781,1.572c1.314,1.131,1.222,3.025,0.947,4.605
	c-0.047,0.322-0.092,0.645-0.148,0.938c-0.1,0.498-0.165,0.957-0.192,1.297c0,0.156,0,0.277,0.027,0.378
	c0.146,1.416,0,1.876-0.322,2.979c-0.074,0.276-0.074,0.425-0.047,0.554c-0.072,0.035-0.174,0.109-0.266,0.164
	c-3.365,2.114-9.774,4.633-15.059,6.573c-0.027,0-0.057,0.028-0.084,0.028c-2.666,0.974-5.047,1.781-6.618,2.298
	c1.001-0.387,2.5-0.976,4.542-1.821c1.37-0.551,2.988-1.25,4.909-2.076c8.449-3.695,7.374-3.916,6.915-4.899
	c-0.175-0.414-3.438,0.651-7.116,2.03c1.351-0.562,2.721-1.12,4.026-1.691c6.472-2.795,7.18-5.791-0.277-2.557
	c-2.178,0.938-4.956,1.896-7.795,2.777c-6.308,1.939-12.954,3.512-14.076,3.75c1.177-0.385,7.916-2.619,11.519-4.063
	c1.472-0.588,2.428-1.066,2.309-1.23c-0.193-0.295-1.838,0.129-3.585,0.644c-1.692,0.487-3.458,1.122-4.093,1.343
	c1.546-0.645,3.016-1.232,4.341-1.766c3.558-1.473,5.957-2.603,5.305-3.017c-0.35-0.22-2.805,0.165-5.424,0.689
	c-0.047,0.019-0.074,0.019-0.102,0.019c-0.313,0.083-0.607,0.129-0.929,0.202c2.428-0.765,5.204-1.747,7.797-2.804
	c0.514-0.193,1.029-0.414,1.544-0.607c0.248-0.101,0.488-0.221,0.736-0.313h0.027c0.855-0.377,1.663-0.744,2.426-1.084
	c3.089-1.425,5.223-2.676,4.956-3.191c-0.781-1.425-7.06,1.618-11.408,3.393c-0.488,0.185-0.929,0.358-1.343,0.532
	c-0.129,0.021-0.248,0.074-0.369,0.119c-0.781,0.269-1.819,0.543-2.941,0.792c0,0-0.027,0-0.045,0
	c-2.438,0.532-5.361,0.946-7.438,1.223c-0.027,0-0.027,0-0.027,0c-1.021,0.119-1.831,0.222-2.299,0.275
	c0.726-0.156,2.004-0.624,3.429-1.23c0.027-0.027,0.027-0.027,0.046-0.027c3.088-1.389,6.748-3.503,6.289-4.487
	c-0.478-1.002-8.662,0.69-13.81,1.866c2.106-0.542,4.534-1.277,5.958-2.041c1.784-0.929,4.708-1.591,6.546-2.446
	c0.221-0.101,0.441-0.22,0.607-0.322c0.422-0.248,0.744-0.514,0.91-0.809c0.074-0.073,0.102-0.156,0.119-0.221
	c0.083-0.22,0.102-0.468,0-0.708c-0.313-0.956-0.652-1.352-0.873-1.471c0.064,0,0.119,0,0.193,0
	c0.146-0.027,0.293-0.129,0.441-0.294c0.855-0.865,1.811-3.411,0.56-3.907c-0.018-0.027-0.046-0.046-0.074-0.046
	c-0.414-0.129-1.839,0.046-3.779,0.368c-0.386,0.073-0.808,0.146-1.249,0.238c0,0,0,0-0.02,0c-2.602,0.497-5.764,1.177-8.412,1.775
	c-0.367,0.101-0.708,0.175-1.031,0.239C49.879,191.27,48.38,191.647,47.719,191.785L47.719,191.785z M87.352,210.236L87.352,210.236
	c-0.662,0.486-1.351,0.975-2.059,1.443c0.441-0.387,0.763-0.709,1.003-0.884c0.322-0.221,0.634-0.496,0.937-0.78
	C87.252,210.09,87.307,210.163,87.352,210.236L87.352,210.236z M113.62,297.73L113.62,297.73c-1.692,1.767-5.148,0.719-5.912,2.924
	c-0.736,2.207-10.619-1.525-13.092-7.868c0.587,0.81,5.441,7.208,10.738,7.134c0,0-3.485-2.299-3.531-4.191c0-0.367,0-0.606,0-0.791
	c0,0,1.94,3.586,4.752,3.53c2.822-0.019,7.089-7.3,7.089-7.3s-2.676,5.977-3.917,7.079c1.325-0.636,5.884-3.034,7.447-5.021
	C116.561,294.128,114.971,296.361,113.62,297.73L113.62,297.73z M128.164,254.395L128.164,254.395l-1.132,8.401
	c0.129-0.938,0.911-8.274-0.313-11.041c-1.452-3.282-2.555-1.517-2.51,1.297c0.055,2.821-0.166-1.251-0.957-0.46
	c-0.753,0.809-0.56,3.622-1.001,5.02c-0.129,0.367-0.295,2.171-0.515,4.744c-0.588,6.619-1.544,18.313-2.969,23.518
	c-0.148,0.486-0.295,0.929-0.443,1.297c0,0,0.102-0.734,0.267-1.995c0.515-4.257,1.774-14.653,2.208-22.92
	c0.229-4.349,0.229-8.101-0.222-10.086c-0.266-1.194-0.514-1.856-0.707-2.132c-1.03-1.27-1.563,6.085-1.563,6.085
	s-0.248,0.516-0.543,1.194c-0.203,0.424-0.396,0.885-0.542,1.324c-0.248,0.645-0.414,1.26-0.414,1.572
	c0,0.119-0.027,0.377-0.074,0.734c0,0.029,0,0.048,0,0.074c-0.055,0.486-0.146,1.178-0.248,1.939c0,0.129-0.028,0.239-0.045,0.34
	c-0.027,0.249-0.056,0.497-0.074,0.708c-0.469,3.42-1.103,7.833-1.103,7.833s1.784-16.016,1.121-17.412
	c-0.634-1.396-3.75,0.514-3.722,1.307c0,0.063,0,0.137,0,0.183c-0.148-0.165-0.515-0.44-1.425-0.634
	c-2.061-0.451-2.106,5.047-3.164,7.896c-0.515,1.37-0.901,3.631-1.177,5.59c0.488-4.763,1.075-12.338,0.129-12.633
	c-1.425-0.439-4.101,7.688-4.101,9.59c-0.055-1.498-0.102-8.679,0.617-11.888c0.854-3.926,3.724-11.647,2.151-12.265
	c-1.103-0.424-4.017,9.736-5.241,16.658c0.211-2.758,0.34-5.599,0.064-5.92c-0.634-0.781-1.784,3.823-3.236,9.248
	c0.275-1.203,1.472-6.896,0.937-7.17c-0.643-0.313-3.263,13.221-3.263,13.221s0.414-4.211,1.177-9.166
	c0.146-0.248,0.294-0.487,0.423-0.728c1.737-3.981,3.061-7.098,4.044-9.553c0-0.026,0.02-0.073,0.02-0.092
	c0-0.027,0.027-0.083,0.045-0.103c0.443-1.121,0.82-2.076,1.132-2.94c0.808-2.188,1.231-3.55,1.452-4.44
	c0.018-0.072,0.018-0.175,0.047-0.221c0.072-0.322,0.1-0.533,0.119-0.707c0.074-0.516-0.02-0.571-0.02-0.571
	s-0.055,0.13-0.129,0.351c-0.634,1.746-3.576,9.781-6.591,15.519v0.028l-0.027,0.027c-1.737,3.281-3.503,5.791-4.854,5.855
	c0,0,2.795-2.841,1.148-4.579c-0.662-0.688-1.415-0.496-2.086,0c-0.092,0.019-0.166,0.093-0.238,0.166
	c-0.957,0.763-1.692,1.985-1.692,1.985l-1.159,1.205l-2.003,2.086l-0.837,0.883l-0.146,0.146l-1.545,1.592
	c0.295-0.322,0.855-0.957,1.545-1.767c0.045-0.073,0.119-0.146,0.165-0.22c0.304-0.35,0.599-0.736,0.938-1.122v-0.037
	c0.662-0.827,1.323-1.737,1.913-2.61c0.734-1.158,1.323-2.263,1.517-3.145c0.515-2.354-0.193-2.775-1.196-2.061
	c-0.174,0.092-0.367,0.239-0.57,0.461c-0.34,0.293-0.68,0.717-1.001,1.177c-0.175,0.248-0.322,0.423-0.414,0.543
	c-0.791,1.057,0.882-1.646-0.102-1.472c-1.085,0.174-2.602,2.574-3.778,3.457c-1.195,0.883-15.372,18.147-20.603,21.457
	c1.177-1.224,19.748-20.604,22.497-26.854c2.813-6.444-4.194,1.84-4.194,1.84s-3.097,1.636-3.63,2.427
	c-0.498,0.689-6.501,6.821-7.852,8.174c1.692-1.84,10.674-11.723,10.941-13.102c0.221-1.076-1.6-1.508-2.804-1.443
	c-0.488,0-0.875,0.119-1.003,0.295c-0.018,0.072-0.045,0.119-0.073,0.174c-0.019-0.129-0.074-0.32-0.212-0.569
	c-0.109-0.221-0.303-0.46-0.57-0.791c-1.397-1.563-4.708,2.832-7.235,4.496c-0.561,0.377-1.222,0.929-1.913,1.571
	c-0.707,0.606-1.443,1.343-2.114,2.031h-0.019c0.515-0.561,1.077-1.203,1.647-1.838c2.941-3.394,6.224-7.4,5.709-8.063
	c-0.882-1.213-7.897,3.787-8.974,5.342c0.783-1.131,5.03-7.089,7.53-9.275c1.913-1.656,5.297-4.045,7.356-5.959
	c1.231-1.147,1.985-2.104,1.635-2.646c-0.285-0.459-2.279,0.718-4.826,2.602c0,0,0,0-0.027,0c-2.887,2.135-6.519,5.148-9.222,7.732
	c1.793-2.098,3.587-4.303,3.567-4.707c-0.055-0.993-3.687,2.004-8.053,5.461c0.763-0.662,3.244-2.852,4.366-4.174
	c0.423-0.488,0.662-0.846,0.589-1.002c-0.121-0.249-1.692,0.982-3.558,2.602c-2.713,2.299-6.125,5.471-6.786,6.059
	c0.369-0.412,2.18-2.437,4.561-4.899c0.679-0.699,1.397-1.435,2.133-2.188c2.693-2.666,5.708-5.543,8.164-7.41
	c0.734-0.562,1.323-1.049,1.792-1.489c3.355-3.125,0.708-3.263-3.704,0.147c-0.865,0.625-1.71,1.323-2.602,2.004
	c-0.101,0.074-0.166,0.146-0.267,0.221c0.074-0.073,0.146-0.119,0.193-0.184c2.527-2.144,4.514-4.026,4.293-4.35
	c-0.312-0.449-0.369-0.91-1.37-0.469c-0.882,0.367-2.482,1.425-5.589,3.806c-2.879,2.181-4.881,3.771-6.207,4.873
	c-0.201,0.185-0.395,0.321-0.542,0.44c-0.027,0.037-0.027,0.037-0.027,0.037c-0.689,0.58-1.122,0.976-1.425,1.25
	c0.303-0.274,0.763-0.717,1.333-1.213c0.092-0.121,0.221-0.222,0.34-0.33c0.027,0,0.027-0.037,0.046-0.037
	c2.602-2.354,7.144-6.372,11.162-9.414c1.737-1.324,3.355-2.446,4.706-3.19c5.958-3.255,1.251-2.565-1.25-1.472
	c-0.248,0.119-0.662,0.249-1.204,0.451c11.16-5.7,17.706-4.689,17.706-4.689l2.574-2.206l0.055-0.026
	c-7.557-0.359-17.072,3.281-25.558,8.613c-1.618-0.615-5.589,1.711-8.238,2.326c-1.544,0.34-3.779,1.296-5.689,2.206
	c4.532-2.326,11.647-6.187,11.38-7.235c-0.422-1.498-8.927,0.709-10.867,1.857c0.617-0.441,2.059-1.389,3.806-2.464
	c1.149-0.027,2.254-0.074,3.31-0.185l-0.422,0.156c0.496-0.083,0.984-0.156,1.479-0.249c0.047,0,0.092,0,0.139-0.019
	c9.073-0.983,15.702-4.201,20.235-7.207c3.145-1.627,6.205-3.438,9.056-5.406c0.357,0.883,0.137,0.734-0.479,1.352
	c-0.782,0.781-0.488,1.397,0.937,2.822c1.425,1.397,0.929,2.18,0.929,2.18c1.103,2.362,1.278,1.25,1.278,2.527
	c0,1.251,0.937,0.781,2.646,1.066c1.747,0.33,0,0.791,0.783,2.042c0.671,1.103,0.763-0.019,1.185,0.624
	c0.064,0.092,0.148,0.268,0.24,0.479c0.615,1.572,1.571-0.919,2.646-1.396c1.112-0.479-0.137,1.26,2.208,1.396
	c0.837,0.083,1.397,0.147,1.793,0.276c-1.739,1.616-3.384,3.53-4.956,5.69l0.791,1.131l0.092,0.146c2.04-2.61,3.806-4.19,4.955-5.11
	c0.174,1.451,0.809,0.863,1.72,0.551c0.927-0.321,0.927,0.606,2.5,1.563c1.571,0.938,1.103,0.146,1.571,0.938
	c0.47,0.781-0.32,1.563,1.251,1.885c1.563,0.32,1.563,1.094,1.563,1.094s1.112,0.938,2.361-0.313c1.242-1.25,1.417,0,2.032,0.938
	c0.636,0.957,0,0,0.47,0.46c0.486,0.497,1.103-0.295,1.269,0.175c0.156,0.469,0.156,0.781,1.259,0.147
	c1.075-0.617,1.075,1.094,1.075,3.134c0,2.042,1.417,0.938,2.842,2.686c0.074,0.092,0.146,0.166,0.22,0.238
	c0.855,0.976,0.937,0.313,1.103-0.396c0.055-0.22,0.129-0.468,0.221-0.634c0.497-0.791,2.215-0.471,2.997-0.957
	c0.193-0.129,0.488-0.072,0.828,0.074c1.028,0.412,2.455,1.672,2.455,1.672l0.146-0.478c1.498,6.308,2.795,13.754,1.058,15.188
	c0,0,0.562-3.926-1.794-4.366C127.768,249.87,128.164,254.395,128.164,254.395L128.164,254.395z M130.637,279.934L130.637,279.934
	c0.275-0.588,0.516-1.178,0.764-1.793c0.91,10.821,2.748,23.453,2.896,24.445C132.725,298.716,131.475,288.005,130.637,279.934
	L130.637,279.934z M133.975,268.771L133.975,268.771c0.909-5.535,1.002-11.987-0.092-19.49c-1.059-4.809-1.923-8.385-2.611-10.939
	v-0.019l0.451-1.333l0.018-0.027l0.543-1.591c0,0,1.058-0.517,1.839,0.707c0.046,0.129,0.119,0.249,0.192,0.405
	c0.746,1.58,0.938,0.212,2.481-1.407c0.093-0.101,0.222-0.192,0.341-0.321c0.368-0.331,0.661-0.533,0.91-0.662
	c0.027,0.147,0.027,0.331,0.027,0.516c0.193,2.924,0.828,8.293,2.574,18.277c1.471,5.93,3.328,11.031,5.488,15.389h-0.027
	c-1.03,0.377-0.239,8.688,0.35,13.938c-0.322-2.161-0.79-4.635-1.354-6.161c-1.203-3.105-1.369-9.138-3.603-8.623
	c-0.976,0.221-1.397,0.516-1.546,0.709c0-0.047,0-0.121,0-0.193c0-0.864-3.409-2.941-4.102-1.379
	c-0.604,1.379,1.113,15.547,1.473,18.59c-0.387-2.372-1.813-11.309-1.813-12.209C135.518,272.109,134.396,269.654,133.975,268.771
	L133.975,268.771z M146.137,317.352L146.137,317.352c-0.854-2.399-4.633-1.195-6.5-3.088c-1.488-1.49-3.281-3.945-3.971-4.93
	c1.718,2.161,6.766,4.708,8.191,5.425c-1.252-1.12-3.973-6.868-4.34-7.649c0.531,0.855,4.928,7.843,7.823,7.843
	c3.062,0,5.121-3.962,5.121-3.962c0,0.166,0,0.432,0,0.846c0,2.059-3.771,4.67-3.771,4.67c6.179,0,11.648-8.127,11.648-8.127
	C157.768,315.467,147.002,319.788,146.137,317.352L146.137,317.352z M149.74,274.582L149.74,274.582
	c0.322,0.497,0.644,0.984,0.982,1.453c0.047,1.305,0.047,2.336,0.029,2.795C150.753,278.066,150.329,276.402,149.74,274.582
	L149.74,274.582z M179.738,237.184L179.738,237.184c0.193,0.274,0.367,0.543,0.562,0.81c-0.248-0.295-0.459-0.562-0.688-0.854
	c-0.561-0.709-1.123-1.426-1.664-2.134c-4.366-5.524-7.456-5.452-2.381,0.929c0.568,0.717,1.158,1.525,1.746,2.392
	c0.811,1.12,1.617,2.344,2.428,3.622c0.074,0.092,0.146,0.221,0.221,0.341c0.883,1.369,1.71,2.804,2.527,4.146
	c0.369,0.606,0.709,1.195,1.049,1.766c2.207,3.824,3.854,6.941,4.046,7.31c-0.34-0.543-3.354-5.147-5.765-8.541
	c-0.59-0.809-1.131-1.563-1.59-2.151c-0.735-0.975-1.278-1.543-1.397-1.414c-0.047,0.035-0.047,0.164-0.026,0.33
	c0.1,0.304,0.319,0.791,0.614,1.379c0,0,0.026,0,0.026,0.019c0.883,1.581,2.373,3.834,3.063,4.873
	c-1.986-2.61-3.751-4.992-5.002-6.437c-0.045-0.045-0.072-0.072-0.119-0.129c-0.716-0.828-1.277-1.322-1.554-1.369h-0.019
	c-0.102,0-0.176,0.074-0.192,0.175c-0.129,0.44,1.177,3.264,2.546,5.957c-4.118-6.527-11.309-15.665-12.234-14.812
	c-1.354,1.277,4.752,7.971,7.278,11.621c2.161,3.135,5.276,11.088,5.619,12.071c0-0.026-0.026-0.073-0.047-0.129
	c-0.735-1.931-6.896-9.193-8.117-8.136c-0.864,0.707,2.896,8.164,5.369,12.843c-1.104-1.875-2.429-4.045-3.513-5.24
	c-2.254-2.455-4.606-8.017-6.49-6.748c-0.838,0.589-1.104,1.011-1.188,1.231c-0.019-0.055-0.019-0.102-0.072-0.176
	c-0.137-0.412-1.224-0.78-2.271-0.836c-0.129-0.019-0.23-0.019-0.322-0.019h-0.027c-0.34,0.019-0.68,0.073-0.955,0.166
	c-0.027,0-0.027,0-0.047,0c-0.396,0.175-0.661,0.44-0.688,0.882c-0.047,1.104,3.603,8.237,6.104,13c0,0.018,0.026,0.018,0.026,0.018
	c0.222,0.451,0.441,0.848,0.636,1.232c0,0,0.026,0.027,0.026,0.046c0.515,0.984,0.956,1.793,1.224,2.337
	c-0.268-0.414-0.635-1.059-1.058-1.767c0-0.027-0.021-0.056-0.021-0.056c-0.221-0.387-0.469-0.826-0.733-1.27c0,0,0,0,0-0.027
	c-1.767-3.033-3.972-6.867-4.192-7.428c-0.229-0.57-1.306-1.691-2.16-2.527c-0.59-0.59-1.076-1.03-1.076-1.03
	s-5.305-10.747-3.952-3.089c0.202,1.131,0.688,2.647,1.397,4.459c0.055,0.127,0.101,0.248,0.146,0.367
	c0.046,0.073,0.101,0.166,0.128,0.275c0.092,0.166,0.166,0.34,0.24,0.568c0,0,0.027,0.02,0.027,0.037
	c0.026,0.102,0.071,0.229,0.118,0.322c0.296,0.709,0.617,1.471,0.956,2.233c1.792,3.972,4.118,8.578,6.354,12.854
	c0.027,0.045,0.047,0.092,0.103,0.146c0.808,1.545,1.617,3.062,2.382,4.459c1.295,2.437,2.473,4.542,3.326,6.114
	c0.883,1.544,1.473,2.574,1.618,2.859c-0.515-0.507-1.075-1.252-1.664-2.135c-1.028-1.443-2.161-3.311-3.354-5.369
	c-4.836-8.355-10.426-20.061-11.189-20.934c-0.458-0.57-0.909-1.48-1.352-2.335c-0.588-1.085-1.148-2.115-1.766-2.409
	c-1.121-0.486,0.35,3.752-0.781,0.863c-1.129-2.896-2.94-4.219-3.043-0.293c-0.072,3.106,3.236,9.533,4.102,11.125l-2.602-4.533
	l-1.867-3.282c0,0-0.615-1.968-1.646-3.017c-0.561-0.588-1.27-0.883-2.059-0.366c-2.207,1.415,0,5.194,0,5.194
	c-3.254-1.059-5.443-16.375-6.226-23.142c-0.026-0.184-0.047-0.331-0.073-0.45c0.192,0.027,0.369,0.092,0.543,0.248
	c0.387,0.313,0.781,0.883,1.488,1.324c1.572,0.938,1.572,0.459,2.51-0.645c0.948-1.104,2.666-2.188,4.387-2.041
	c0.191,0.037,0.367,0.037,0.515,0c0.388,0,0.543-0.146,0.662-0.33c0.092-0.129,0.192-0.276,0.341-0.424
	c0.221-0.222,0.588-0.459,1.305-0.662c2.207-0.606,0,0,1.738-0.293c1.721-0.313,0.293-2.032,2.5-3.137
	c2.188-1.104,0.938,0.139,2.032-0.175c1.103-0.294,1.103-2.041,2.362-1.075c1.049,0.781,2.914,1.463,4.779,1.84
	c0.021,0.026,0.047,0.026,0.047,0.026c0.322,0.074,0.635,0.11,0.957,0.166h0.027c2.178,0.294,1.719-2.813,2.178-3.917
	c0.469-1.104-1.248-2.207-0.146-2.363c1.075-0.138-0.782-3.281-0.313-3.281c0.119,0,0.238-0.174,0.414-0.44
	c2.941,1.397,6.795,3.724,11.234,7.63c-0.469-0.33-0.811-0.551-1.03-0.717c-2.382-1.866-7.216-3.879-1.747,1.232
	c1.545,1.434,3.438,3.677,5.324,6.149c1.746,2.234,3.482,4.681,5.027,6.886c0.176,0.221,0.342,0.479,0.488,0.719
	c1.396,2.004,2.602,3.777,3.363,4.981c-0.79-1.104-2.059-2.851-3.999-5.332c-0.274-0.341-0.515-0.68-0.79-1.028
	c-0.461-0.563-0.93-1.149-1.415-1.767c-1.38-1.737-2.429-2.979-3.219-3.871c-2.547-2.841-2.666-2.086-3.31-1.571
	C176.521,232.348,177.9,234.535,179.738,237.184L179.738,237.184z M189.007,235.473L189.007,235.473
	c-0.026,0-0.046-0.018-0.073-0.018c-1.352-1.555-2.722-2.905-4-4.036c-5.193-5.737-11.225-10.84-17.211-14.168
	c0.414-0.662,0.883-1.25,1.397-1.306c1.269-0.166,0.782-0.781,1.563-1.885c0.34-0.516,0.81-0.709,1.129-0.81
	c0.424-0.147,0.638-0.12,0.295-0.294c-0.192-0.102-0.295-0.322-0.295-0.616c0-0.056,0-0.073,0-0.12
	c0.029-0.707,0.543-1.765,1.692-2.397c0.222-0.13,0.44-0.276,0.617-0.425c0.019,0,0.019,0,0.019,0c1.26,0.295,3.363,0.69,6.94,1.086
	c1.131,0.146,2.409,0.285,3.88,0.44c0.689,1.443,6.178,3.163,10.178,4.606c0.026,0,0.026,0,0.026,0
	c0.81,0.266,1.546,0.542,2.151,0.809c1.813,0.764,4.514,2.455,6.816,3.999c1.104,0.735,2.135,1.416,2.924,1.986
	c0.57,0.423,1.012,0.735,1.27,0.929c-0.698-0.441-2.408-1.104-4.268-1.691c-0.018,0-0.037-0.02-0.092-0.02
	c-1.859-0.568-3.902-1.038-5.226-1.111c-0.837-0.019-1.397,0.129-1.517,0.469c-0.352,1.076,6.854,5.324,11.467,7.926
	c-1.93-1.003-4.209-2.115-5.785-2.528c-2.74-0.718-6.813-3.338-8.486-2.749c-0.268,0.102-0.486,0.294-0.605,0.588
	c-0.193,0.471-0.295,0.838-0.322,1.131h-0.018c-0.029,0.222-0.029,0.388,0,0.498c-0.029,0.019,0,0.035,0,0.072
	c-0.029-0.055-0.084-0.102-0.148-0.156c-0.221-0.146-0.688-0.119-1.23,0.027l-0.027,0.027c-1.27,0.387-2.869,1.443-2.279,2.474
	c0.146,0.239,0.643,0.636,1.404,1.195c0.021-0.019,0.021,0,0.048,0.036c1.177,0.81,2.94,1.875,4.854,3.016c0,0,0,0,0.026,0.02
	c3.623,2.16,7.792,4.469,9.41,5.369c-2.396-1.195-10.054-5.094-10.761-5.617c-0.838-0.606-4.633-1.242-4.633-1.242
	s-10.281-6.158-5.031-0.44c5.269,5.683,33.002,20.134,33.002,20.134C211.563,249.08,190.579,235.96,189.007,235.473L189.007,235.473
	z M201.243,212.121L201.243,212.121c0.717,0.837,5.595,2.941,6.899,3.484c-2.85-1.03-5.476-2.015-7.341-2.621
	c-1.94-0.615-3.116-0.81-2.971-0.293c0.121,0.459,2.776,2.133,5.369,3.648c-3.843-1.793-8.898-3.76-12.724-4.955
	c1.075,0.092,2.234,0.166,3.43,0.275c2.896,0,5.617-0.128,8.219-0.404c0.35-0.02,0.689-0.046,1.011-0.092
	c5.595,2.703,10.892,5.646,11.847,6.178c-1.323-0.588-11.781-5.24-13.537-5.441c-0.176-0.047-0.276-0.02-0.276,0.026
	S201.197,212.047,201.243,212.121L201.243,212.121z M230.777,189.946L230.777,189.946c-0.037,0-0.037,0-0.037,0
	c-0.92,0.368-2.021,0.745-3.235,1.14c-3.989,1.269-9.192,2.574-13.899,3.724c-0.735,0.175-1.473,0.34-2.188,0.487
	c-0.828,0.22-1.638,0.395-2.392,0.57c-0.735,0.193-1.451,0.34-2.113,0.505c-0.811,0.175-1.563,0.377-2.262,0.524
	c-1.863,0.442-3.133,0.754-3.436,0.902c-0.02,0-0.02,0.027-0.047,0.027c-0.514,0.22-1.204,0.414-1.91,0.588
	c-0.047,0.019-0.102,0.019-0.148,0.046c-0.026,0-0.026,0-0.026,0c-0.269,0.055-0.517,0.128-0.754,0.174
	c-0.515,0.119-0.983,0.267-1.397,0.441c-0.496,0.175-0.863,0.368-1.058,0.616c-0.026,0.019-0.026,0.047-0.026,0.074
	c-0.461,0.855,3.678,0.497,0.688,0.882c-0.956,0.127-1.792,0.34-2.354,0.633c-0.854,0.396-1.131,0.931-0.486,1.48
	c0.313,0.258,0.9,0.533,1.812,0.771c0.91,0.258,2.206,0.277,3.623,0.148c0.478-0.021,0.964-0.074,1.452-0.148
	c2.455-0.293,4.95-0.854,6.236-1.148c0.147-0.027,0.24-0.064,0.332-0.064l-0.295,0.093l-5.393,1.489l-0.908,0.248l-1.94,0.543
	c0,0-1.315,0.072-2.492,0.486c-0.129,0.027-0.222,0.073-0.351,0.119c-0.955,0.424-1.69,1.059-1.351,2.135v0.036
	c0.543,1.617,2.528,1.654,3.834,1.462c0.708-0.074,1.224-0.221,1.224-0.221c-0.121,0.202-0.295,0.376-0.535,0.523
	c-3.438,2.299-18.645,0.552-24.407-0.202c0.909-0.938,1.177-2.041,1.177-2.041s0,0-0.929-0.929c-0.956-0.947,0.78-3.136-0.322-3.457
	c-1.103-0.322,2.181-2.031,1.397-2.031c-0.78,0-1.075-0.791-1.719-1.896c-0.064-0.092-0.064-0.193-0.019-0.293
	c0.22-0.488,1.854-0.754,3.704-0.957c0.047,0,0.092,0,0.166,0c1.158-0.12,2.408-0.221,3.363-0.312
	c1.397-0.147,1.518-0.617,1.371-1.232c-0.119-0.588-0.516-1.342-0.119-2.059c0.781-1.397-1.252-0.938-0.616-1.397
	c0.616-0.488,0-1.738,0-2.988c0-0.249-0.046-0.441-0.119-0.634c-0.056-0.129-0.103-0.257-0.177-0.349
	c-0.163-0.221-0.413-0.424-0.706-0.534c-0.147-0.083-0.304-0.129-0.47-0.175c-0.072-0.027-0.164-0.055-0.248-0.082
	c-0.019,0-0.019,0-0.019,0c-0.369-0.074-0.791-0.11-1.251-0.11c-0.322,0-0.57-0.074-0.734-0.23
	c-0.074-0.073-0.146-0.147-0.175-0.211c-0.221-0.331-0.268-0.735-0.176-1.213c0.129-0.781,0.644-1.636,1.251-1.958
	c1.251-0.616-0.313-2.501-0.781-2.647c-0.486-0.174-1.572-1.251,0.146-2.988c1.425-1.435,0.709-2.115,0.322-3.19
	c-0.074-0.23-0.148-0.47-0.176-0.736c-0.046-0.414-0.193-0.763-0.396-1.011c-0.562-0.69-1.617-0.855-2.429-0.855
	c0.369-0.221,0.812-0.488,1.324-0.81c2.729-1.765,7.529-3.879,12.07-5.682c0.02,0,0.02,0,0.02,0
	c4.055-1.626,7.879-2.997,9.912-3.687c-1.5,0.588-4.295,1.719-8.854,3.797c0,0-0.028-0.019-0.028,0
	c-0.293,0.129-0.588,0.249-0.883,0.396c-8.402,3.834-7.326,4.027-6.857,5.011c0.192,0.404,3.43-0.717,7.088-2.17
	c-1.058,0.479-2.113,0.92-3.117,1.38c-0.293,0.129-0.596,0.275-0.881,0.386c-3.219,1.453-5.01,2.923-5.029,3.641
	c-0.027,0.68,1.637,0.588,5.342-1.085c2.041-0.928,4.615-1.857,7.291-2.721c0,0,0.018-0.019,0.045-0.019
	c6.398-2.115,13.316-3.861,14.439-4.128c-1.637,0.57-14.172,4.9-13.75,5.488c0.367,0.57,6.298-1.618,7.621-2.096
	c-1.057,0.459-2.086,0.901-3.062,1.324c-0.026,0-0.026,0-0.055,0c-0.239,0.11-0.515,0.212-0.755,0.34
	c-0.055,0.028-0.119,0.046-0.174,0.064c-2.629,1.141-4.635,2.06-5.342,2.675c-0.275,0.23-0.351,0.423-0.156,0.543
	c0.274,0.165,1.773-0.046,3.612-0.441c0.019,0,0.046,0,0.046,0c0.883-0.166,1.84-0.368,2.769-0.588
	c-5.931,1.967-14.03,5.424-16.548,7.281c-0.617,0.423-0.912,0.763-0.793,0.984c0.322,0.561,1.498,0.414,3.09-0.101v-0.019
	c2.951-0.938,7.264-3.089,9.966-4.119c3.31-1.231,10.918-2.261,12.757-2.482c-1.747,0.349-6.725,2.676-8.813,4.441
	c-0.146,0.119-0.293,0.221-0.396,0.34c-0.44,0.442-0.653,0.837-0.506,1.104c0.237,0.497,2.298,0.322,4.946-0.147
	c2.779-0.487,6.201-1.269,8.83-1.93c-2.115,0.588-4.506,1.37-5.939,2.132c-0.753,0.386-1.709,0.754-2.717,1.104
	c-0.414,0.166-0.855,0.313-1.277,0.46c-0.027,0-0.046,0-0.046,0.027c-0.764,0.267-1.499,0.542-2.134,0.837
	c-0.174,0.046-0.35,0.146-0.486,0.221c-0.892,0.441-1.48,0.956-1.498,1.544c-0.027,0.147,0,0.294,0.045,0.46
	c0.073,0.202,0.147,0.367,0.192,0.514c0.269,0.588,0.543,0.846,0.69,0.938c-0.047,0-0.102,0-0.176,0
	c-0.533,0.073-1.396,1.563-1.543,2.795c-0.074,0.69,0.1,1.306,0.688,1.471c0.708,0.203,4.338-0.515,8.223-1.37
	c0.019-0.028,0.019,0,0.019,0c3.238-0.763,6.676-1.6,8.699-2.114c0.146-0.027,0.274-0.046,0.403-0.064
	c0.458-0.129,0.845-0.23,1.103-0.304c-0.221,0.073-0.569,0.175-0.955,0.304c-0.129,0.037-0.258,0.064-0.367,0.092
	c-3.236,0.956-9.967,2.869-10.754,2.997c-0.532,0.064-1.662,0.681-2.618,1.251c-0.884,0.515-1.618,1.002-1.618,1.002
	s-11.693,2.527-3.943,3.088c2.473,0.175,7.254-0.561,12.627-1.664c0.056-0.027,0.092-0.027,0.164-0.056c0.037,0,0.057,0,0.074,0
	c1.178-0.248,2.391-0.515,3.586-0.781c5.461-1.205,11.088-2.657,15.205-3.724c1.396-0.368,2.631-0.699,3.605-0.956
	c1.342-0.377,2.225-0.616,2.5-0.689C232.249,189.312,231.551,189.634,230.777,189.946L230.777,189.946z M96.5,229.404L96.5,229.404
	c0.148-0.184,0.25-0.284,0.25-0.284s0.072,0.063-0.176,0.562l-0.018-0.02l-0.129-0.184C96.445,229.46,96.473,229.441,96.5,229.404z"
	/>
</svg>
