<?xml version="1.0" encoding="utf-8"?>
<!-- Generator: Adobe Illustrator 16.0.0, SVG Export Plug-In . SVG Version: 6.00 Build 0)  -->
<!DOCTYPE svg PUBLIC "-//W3C//DTD SVG 1.1//EN" "http://www.w3.org/Graphics/SVG/1.1/DTD/svg11.dtd">
<svg version="1.1" id="图层_1" xmlns="http://www.w3.org/2000/svg" xmlns:xlink="http://www.w3.org/1999/xlink" x="0px" y="0px"
	 width="260px" height="400px" viewBox="0 0 260 400" enable-background="new 0 0 260 400" xml:space="preserve">
<metadata><?xpacket begin="﻿" id="W5M0MpCehiHzreSzNTczkc9d"?>
<x:xmpmeta xmlns:x="adobe:ns:meta/" x:xmptk="Adobe XMP Core 5.3-c011 66.145661, 2012/02/06-14:56:27        ">
   <rdf:RDF xmlns:rdf="http://www.w3.org/1999/02/22-rdf-syntax-ns#">
      <rdf:Description rdf:about=""
            xmlns:dc="http://purl.org/dc/elements/1.1/">
         <dc:format>image/svg+xml</dc:format>
         <dc:title>
            <rdf:Alt>
               <rdf:li xml:lang="x-default">打印</rdf:li>
            </rdf:Alt>
         </dc:title>
      </rdf:Description>
      <rdf:Description rdf:about=""
            xmlns:xmp="http://ns.adobe.com/xap/1.0/"
            xmlns:xmpGImg="http://ns.adobe.com/xap/1.0/g/img/">
         <xmp:MetadataDate>2014-11-18T22:59:37+08:00</xmp:MetadataDate>
         <xmp:ModifyDate>2014-11-18T22:59:37+08:00</xmp:ModifyDate>
         <xmp:CreateDate>2014-11-18T22:59:37+08:00</xmp:CreateDate>
         <xmp:CreatorTool>Adobe Illustrator CS6 (Windows)</xmp:CreatorTool>
         <xmp:Thumbnails>
            <rdf:Alt>
               <rdf:li rdf:parseType="Resource">
                  <xmpGImg:width>256</xmpGImg:width>
                  <xmpGImg:height>248</xmpGImg:height>
                  <xmpGImg:format>JPEG</xmpGImg:format>
                  <xmpGImg:image>/9j/4AAQSkZJRgABAgEASABIAAD/7QAsUGhvdG9zaG9wIDMuMAA4QklNA+0AAAAAABAASAAAAAEA&#xA;AQBIAAAAAQAB/+4ADkFkb2JlAGTAAAAAAf/bAIQABgQEBAUEBgUFBgkGBQYJCwgGBggLDAoKCwoK&#xA;DBAMDAwMDAwQDA4PEA8ODBMTFBQTExwbGxscHx8fHx8fHx8fHwEHBwcNDA0YEBAYGhURFRofHx8f&#xA;Hx8fHx8fHx8fHx8fHx8fHx8fHx8fHx8fHx8fHx8fHx8fHx8fHx8fHx8fHx8f/8AAEQgA+AEAAwER&#xA;AAIRAQMRAf/EAaIAAAAHAQEBAQEAAAAAAAAAAAQFAwIGAQAHCAkKCwEAAgIDAQEBAQEAAAAAAAAA&#xA;AQACAwQFBgcICQoLEAACAQMDAgQCBgcDBAIGAnMBAgMRBAAFIRIxQVEGE2EicYEUMpGhBxWxQiPB&#xA;UtHhMxZi8CRygvElQzRTkqKyY3PCNUQnk6OzNhdUZHTD0uIIJoMJChgZhJRFRqS0VtNVKBry4/PE&#xA;1OT0ZXWFlaW1xdXl9WZ2hpamtsbW5vY3R1dnd4eXp7fH1+f3OEhYaHiImKi4yNjo+Ck5SVlpeYmZ&#xA;qbnJ2en5KjpKWmp6ipqqusra6voRAAICAQIDBQUEBQYECAMDbQEAAhEDBCESMUEFURNhIgZxgZEy&#xA;obHwFMHR4SNCFVJicvEzJDRDghaSUyWiY7LCB3PSNeJEgxdUkwgJChgZJjZFGidkdFU38qOzwygp&#xA;0+PzhJSktMTU5PRldYWVpbXF1eX1RlZmdoaWprbG1ub2R1dnd4eXp7fH1+f3OEhYaHiImKi4yNjo&#xA;+DlJWWl5iZmpucnZ6fkqOkpaanqKmqq6ytrq+v/aAAwDAQACEQMRAD8AkPnn8wfMWo69dxW97NaW&#xA;FtK8VvBA7RgqjFeT8SCxald+mKsc/wAS+Y/+rref9JEv/NWKXf4l8x/9XW8/6SJf+asVd/iXzH/1&#xA;dbz/AKSJf+asVd/iXzH/ANXW8/6SJf8AmrFXf4l8x/8AV1vP+kiX/mrFXf4l8x/9XW8/6SJf+asV&#xA;d/iXzH/1dbz/AKSJf+asVcPM3mMGo1W8BHQ/WJf+asVew/k15w1jWbe90/U5Wunsgjw3T7uVeoKO&#xA;erUK1BO+KHpWKvLPzw8z3lnbWmiWkjRC8Vprt1NCYweKpt2Y1r8sVeK4pdirsVdirsVdirsVXRyS&#xA;RuskbFHU1VlNCCO4IxV9Hflbrl/rHlC3uL9zLcwu8DTN9pwhHFie5oaE+2KGW4qx7z95ik8v+V7v&#xA;UIf96qCK1qKgSSGgah/lFW+jFXzlNr2uTStLLqFy8jks7GV6kn6cUrP0zq//AC3XH/I1/wCuKu/T&#xA;Or/8t1x/yNf+uKu/TOr/APLdcf8AI1/64q79M6v/AMt1x/yNf+uKu/TOr/8ALdcf8jX/AK4q79M6&#xA;v/y3XH/I1/64q79M6v8A8t1x/wAjX/rir1L8nPPWq3OoHy/qUzXUbxtJZzSEtIpQVKFjuV41I8MU&#xA;PLdZ/wCOvff8xEv/ABM4pQeKuxV2KuxV2KuxV2KuxV6v+QUgGoavHTdoYWB/1WYf8bYoezYq8S/P&#xA;qOmu6bJX7VqVp/qyE/8AG2KvL8UuxV2KuxV2KuxV2KuxV7/+SUhbyVxI/u7qVR9yt/HFDPsVYD+d&#xA;kfLySWrT07qFvnsy/wDG2KvAMUuxV2KuxV2KuxV2KuxVmv5O/wDKe2X/ABjn/wCTTYoYtrP/AB17&#xA;7/mIl/4mcUoPFXYq7FXYq7FXYq7FVSS3uIkR5InRJBWNmUgMPFSeuKvVPyDt5De6vc0pEkUUZbty&#xA;Zmb9S4oevWmoWF5z+qXMVx6ZpJ6Tq/E+B4k0xV4v+fNzE/mDT7dTWSG1LOB25yGgP/A4q8xxS7FX&#xA;Yq7FXYq7FW1UsQqipOwA6k4qqXFtcW8hiuInhlG5SRSrb+xpir3z8lLeWLySruKLPczSR+6jilf+&#xA;CQ4oZ16kfP0+Q50rwqK08aYqwP8AOyaOPyVwY0aW6iVB4kBm/UuKvAMUuxV2KuxV2KuxV2KuxVmv&#xA;5O/8p7Zf8Y5/+TTYoYtrP/HXvv8AmIl/4mcUoPFXYq7FXYq7FXYqmfljTk1LzFpthIKxXNzFHKN/&#xA;sFxz6f5NcVfUF7pOmX1n9SvLWK4tKACCRFZBQUHEEbU7UxQxTzzBYeWPy/1RNGt0shKFjAhHGpmd&#xA;Y3YnrXgTir5/sdRv9PuBc2NxJazrsJYXZGp4VUjbFLV5e3d7cvdXkz3FzKayTSsWZj03JxVQxV2K&#xA;uxV2KuxV2Ks6/JrTIb7zrHJKoYWMEl0qnccgVjU/QZKj3xQ9z1by/omrqq6nYw3fD7DSICy/6rdR&#xA;iqKhgtbG0WGCNYLW3SiRoKKqqOgAxV8s32vanda3NrP1iSO+llMyzIxVkJOwVhuAo2HtilU1rzT5&#xA;g1tIU1W9kukt6+kr0AFepooFT7nFUqxV2KuxV2KuxV2KuxV2Ks1/J3/lPbL/AIxz/wDJpsUMW1n/&#xA;AI699/zES/8AEzilB4q7FXYq7FXYq7FWSflz/wApxo3/ADED9RxQ+mcVYJ+dP/KDy/8AMRD+s4q+&#xA;fcUuxV2KuxV2KuxV2KuxV6b+Q3/KR6h/zBn/AJOpih7hiqE1gkaTekbEW8tD/sDir5NxS7FXYq7F&#xA;XYq7FXYq7FXYq7FWa/k7/wAp7Zf8Y5/+TTYoYtrP/HXvv+YiX/iZxSg8VdirsVdirsVdiqZeW9TT&#xA;S/MGnai9fTtbiOWWnXgrDnSn+TXFX0pf+bvLNhZJe3WpQJbSjlE4cOXB3+BU5M30DFDHfNt5pvnP&#xA;yFqf6AnF68XF1VFZX5ROHK8HCvUoDx23xV4bpPl3XNXmaHTbGa5dDSTgp4qf8pjRV+k4pQ+p6XqG&#xA;l3sllqEDW11FTnE43FRUHwIPiMVQuKuxV2KuxV2KuxVmv5R65aaR5wja7kWGC8he1MrkBVLFXWpP&#xA;SrRgYoe1az578paMypf6lEkjdI4+Uz08SsQcj6cVTO1u7HVtMW4s5lns7uM+nKu4KtUHY+HcHFXy&#xA;neWk9ndzWlwvCe3dopVPZkNCPvGKWp7W5g4+vE8XMVTmpWo8RXFVLFXYq7FXYq7FXYq7FXYqzX8n&#xA;f+U9sv8AjHP/AMmmxQxbWf8Ajr33/MRL/wATOKUHirsVdirsVdirsVdirsVerfkHLINS1eIH920M&#xA;TMvaquQD/wAMcUPZ8VeK/n3axrrGl3QADy27xse5Eb1H/JzFXlmKXYq7FXYq7FXYq7FXYq9//JKS&#xA;R/JXFmqsd1KqDwFFan3scUMwbQdDbUP0k2n27aht/pRiQy1HQ8qVr74qw387rWCXycJ3QGW3uYzE&#xA;/cc6qwr4EYq8CxS7FXYq7FXYq7FXYq7FWa/k7/yntl/xjn/5NNihi2s/8de+/wCYiX/iZxSg8Vdi&#xA;rsVdirsVdirsVdir1T8gwf0tqppsLeME/Nzih7Tirxb8/Gb9K6StfhEEhA9y4r+rFXleKXYq9N/J&#xA;/wAmeXNdjvbvVE+tTWsiIloWKoFYVDsFILVIIHbbFD1aPyT5PjXiuiWJH+VbxMfvZScVU7jyF5Lu&#xA;FIk0W0UEUPpxLEfvjC4q8U/NTytovl3XYbfSmKxTw+q9qzFzEeRUUY70anffFWF4pdir3z8j/wDl&#xA;DH/5jJf+IJih6DirBPzp/wCUHl/5iIf1nFXz7il2KuxV2KuxV2KuxV2Ks1/J3/lPbL/jHP8A8mmx&#xA;QhPPvk7WdE1q8mmt3OnzzPJbXagtGVdiyhmH2WFaUOKsVxS7FXYq7FXYq3iqo1rdKpZoXCjckqQB&#xA;+GKqYBJAAqTsAMVe0/kj5Y1WwS91W+ha3iu0SK2jkBV2UEsz8TuB0p44oep4q8w/OnynquqQ2Wqa&#xA;dC9ybRXiuIIwWcIxDK6qNzQ1rTFXlsfkfzjIgddFveJ6VgcH7iMUrv8AAnnP/qy3n/Il/wCmKvRv&#xA;ya8peZdK1S8v9Rtns7OW39FYpfhd5OasG4daKFO58dsUPWcVdirwn8yvJHnC682Xt/DYy31rcsrQ&#xA;Swj1KIEChSo3XjSnTFWLf4E85/8AVlvP+RL/ANMUtN5G85KpJ0W9oPCByfuAxV7t+Wnl280HypBa&#xA;Xq8LuV3nmjrXgXoApI7hVFcUMqxVi/5laFd635QvLSzUvdIUnhiHVzG1So9ytae+Kvmx0eN2SRSj&#xA;qSGVhQgjqCDilbirsVdirsVdirsVdir0v8kfL97Nr7a08TLY2sTpHMQQGlk+Hiv81F5V8MUPcsVW&#xA;RwQxkmONUJ6lQBX7sVXMqspVgCp2IO4OKvAvznj0SHzSkOnQxxTpApvxEAq+oxJWoG3LhQn6MVYB&#xA;il2KvoH8m7fRD5QguLOGMXweSO+m4j1PUDEgFutOBWgxQzzFXYq7FXYq7FXYq7FXm/5nfmXqflzU&#xA;IdL0yCP15IRPJczAsArMygIoI3+DcnFXnb/m7+YDNUamEH8qwW9PxjOKqtv+cXnyJgZL2O4ANeMk&#xA;EQHy/dqmKvWfy487z+a9NuJrm2W3urR1SUx19J+QqCvKpHTcVOKsuxV2KuxV2KuxVTe2tnYs8SMx&#xA;6sVBP44qt+p2f++I/wDgF/pirGfzJk0Wx8mak93BEfWiMFsvFameQERlduqn4/oxV83Ypdir0r8j&#xA;ZdL/AE/e211Ej3c0ANo7qDQIayKte5BB+jFD236nZ/74j/4Bf6Yq76nZ/wC+I/8AgF/piqqqqqhV&#xA;ACjYAbAYq1JLFGAZHVAehYgfrxVYbu0FKzRiu4+If1xVwvLQmgnjJPQcl/riryfzx+T2s6hrd3qu&#xA;k3MUqXkhle3mJR1ZuoVqMrCvjTFWIyflF+YCmi6aHHis9vT/AIaQYqvt/wAnvPsrAPZRwAmhaSeI&#xA;ge/wM+KvWfy78nSeUdHmhvbqOS4upRJKU2iSi0CqWoT86D5Yqyn65Z/7/j/4Nf64q765Z/7/AI/+&#xA;DX+uKq2KuxV2KqTXVsrFWmRWHUFgD+vFWvrln/v+P/g1/riryL89rnRJ20z0J45dTiMiyJGwYiE0&#xA;I506fF9mvviryXFLsVfQf5R3OgQ+TraG1uYvrRLyX6FlWQSsxHxKd/sgAHwxQzT65Z/7/j/4Nf64&#xA;q2t1aswVZkLHYAMCT+OKquKuxVbJJHFG0kjBI0BZ3YgKANyST0xVJW89eTVYqdas6jY0mQj7wcVa&#xA;/wAeeTP+r1Z/8jk/riqTeapPJfnTTo9FXXLdLlplktDFIjN6wDKBwqOVQ5FK4qwK6/IjzOjH6ve2&#xA;cyDpyaSNj9HBh/w2KqCfkb5yZqGayQfzNLJT8IzirJ/Kn5e6d5L1CHXfMOr28c0fKO2QHhHzdCp+&#xA;N+JY8CduOKs2/wAeeTP+r1Z/8jk/rirv8eeTP+r1Z/8AI5P64qjNN8x6Bqchj07Ube6lUVaOKVWY&#xA;Dx4g1pir5q81a7f63rt3e3kjOTI6xRk/DHGGIVFHYAYpSjFXYq91/I79Lt5eu5LuSR7EzBbBZCSB&#xA;xFJOFei1p7Vrih6RirsVfOn5tNqv+Nr2O+kdoxxazViSghZRTgOg3rWneuKsNxS7FXtX5F67f3dl&#xA;qGl3MjSwWXpPaljUosnIMgJ/Z+EED54oep4q8l/PDzNqlpLZaPaTPbwTxGe5MZKl6sVVSRvxHE7d&#xA;8VeOYpdirsVdirsVdirsVbxV7z+S3mS91XQrmyvZWnm06RVSVzyb0ZQSiknc8SjU9sUPQ8VeYfnx&#xA;qF1Do2nWUTlYLuZ2nUftekFKg+1WrirxHFLsVZF5A0OfWvNlhaxnikcguJ3/AJY4SGb6T9ke5xQ+&#xA;m8VdirzL89tImudDsdTRvg0+VklT/JuOIDfQyAfTirw/FLsVRGn391p97Be2khiubdxJE4NKEfLs&#xA;e+Krbz/euf8A4yN/xI4qo4q7FXqnkT839P0fRrfSNUs5OFqCsVzbcWqpYt8aMU3FeoO+KGYxfnN5&#xA;Ff7VxNH/AK0Ln/iPLFVOf86vJEYYo9zMR0EcNCflzKfjiryX8wPOK+ataS9jt/q0EEQghVjycqGL&#xA;cmI2rVugxVjGKXYq9Z/IH/ezWf8AjHB/xJ8UPZMVeH/nz/yken/8wf8AzNfFXmWKXYq7FXYq7FXY&#xA;q7FXYq9h/wCcf0YR65J+yxtVHzUSk/8AEsUPXMVeT/n9/vJo3/GSf/iKYq8axS7FUdo2s6lo2oR6&#xA;hp0xguoq8XABBB2IINQQcVZ/a/nx5iSMLc2FrMw25r6kdfmOTYoVv+V96x/1arf/AIN8VYv5s/Mn&#xA;zF5mtxaXZit7IMHNvApAZh0LlizGnzpirFMUuxV2Kq15/vXP/wAZG/4kcVUcVdirsVdirsVdirsV&#xA;T7UPI3mzT9Oi1G602VLOVQ4kFGKg7j1FUlk/2QGKHof5B2F0iatfuhW2l9KKJyDRmTmWp/q8hXFX&#xA;qVtqul3U8tva3kE9xAaTQxSI7oRt8SqSR9OKvGfz5/5SPT/+YMf8nXxV5lil2KuxV2KuxV2KuxV2&#xA;KvXvyBvIg+s2ZIEzCCZFruVXmrGnsWX78UPV59S063nS3nuoYp5aCOJ5FV2qaDipNTirzH8/Y3Nh&#xA;o8gU8FlmVm7AsqkD6eJxV47FbXMqO8UTyJGKyMqlgo8WI6YpUsVdirsVdirsVdirsVdiqtef71z/&#xA;APGRv+JHFVHFXYq7FXYq7FXYqm3lOzjvfM+k2soBimu4VkU909Qch9IxV9T4oSbznqUum+VNVvYm&#xA;4TRW7+k9aFXYcVI+TMMVfMNtd3VrOtxbTPBOm6SxMUcH2ZSDilff6lqGo3Jub+5kurggAyzMXag6&#xA;Cp7YqhsVdirsVdirsVdirsVdiqvZ3t7ZTi4s7iS2nWoWaF2jcV60ZSDiqya4uJ5mmmleWZjVpXYs&#xA;xPiWO+Kvpny6LXzD5M0x9VgS8W4t4mnSZQ4aRRQtQ135CuKE4stO0+xthbWdtFbW4/3TEiom/XZQ&#xA;Bir5j84adDpvmnVLKABYIbmQRIOioTyVfoBpiqTYpdirsVdirsVdirsVVrz/AHrn/wCMjf8AEjiq&#xA;jirsVdirsVdirsVT7yJ/ymei/wDMZD/xMYq+n8UMW/NH/lAtX/4xp/ydTFXzXil2KuxV2KuxV2Ku&#xA;xV2KuxV2KuxV2Kvpr8uf+UH0b/mHH6zihkeKvmr8znV/PerlTUCVR9KxqD+IxVi+KXYq7FXYq7FX&#xA;Yq7FVa8/3rn/AOMjf8SOKqOKuxV2KuxV2KuxVG6JqH6N1mx1ChP1S4inKjqRG4Yj6QMVfSt5518q&#xA;2enR6hcanAtrMoaEq3N3B/lRauffbbFCW3uq6R538oavbaJP9ZcxNGEZSjCUDnGCHA2YrscVeAaf&#xA;5d13UbxrOysJ5rmM8ZYwhBQjb460Cf7LFK3WdD1bRbz6nqls1rccQwRqEFT0KspKsNuxxVAYq7FX&#xA;Yq7FXYq7FXYq7FUz0Hy5rOv3bWmlWxuJkUyOKqiqo2qWcqoxVq/8ua7p+oLp95YzRXkhCxQlalyd&#xA;vgIqG+jFX0INV0jyT5T0yHV5vS9CGK34opZnlCDnxVfeprihG6X5z8r6nZSXtpqMLQQgtNzPpsgA&#xA;qSyPxYfdir5u8y6muq+YNR1FP7u6uJJIwevAseHX/JpilLcVdirsVdirsVdirsVVrz/euf8A4yN/&#xA;xI4qo4q7FXYq7FXYq7FXYq7FXrP5A/7161/xjg/4k+KHsmKvD/z5/wCUj0//AJg/+Zr4q8yxS7FX&#xA;Yq7FXYq7FXYq7FXs35BQILHWLj9t5YYz8kVj/wAb4oer4q8n/P7/AHk0b/jJP/xFMVeNYpdirsVb&#xA;xVV+p3f++JP+Bb+mKqOKuxV2KuxVWvP965/+Mjf8SOKqOKuxV695G/KDRNR0O11XVbmWZ7tPUSCB&#xA;giIp6BmozM3j08MUMq/5U75D/wCWKT/kfL/zViqhc/kr5ImUiOO4tjT7UcxJ/wCSgfFXkXn3ygPK&#xA;2uCwS5+swyxCeFyArhWZl4uB3BXr3xVjeKXYq9Z/IH/ezWf+McH/ABJ8UPZMVeH/AJ8/8pHp/wDz&#xA;B/8AM18VeZYpdirKvy38r6f5k8x/UL+Vo7eOF52VCA0hRlHAE9PtVPsMUPa4Pyx8iQJwXSImHjI0&#xA;kh+9mOKr5Py18iyKVbR4QD/KXU/erA4q81/NX8vNA8v6fBqelO8HqziFrN2LqQys3JC1X+HjvUn+&#xA;qrzHFLsVey/kD/vHrP8Axkg/4i+KHrGKvJ/z+/3k0b/jJP8A8RTFXjWKXYq7FX1B5N0/QLfy/YTa&#xA;Pbxx280COJVUeo5K7l26lq9a4oT3FUu1zS9CvbGc6xbQzWqRs0skyg8EVaswb7S0HcYq+V7j0PrE&#xA;voV9Dm3pcvtcK/DX3pilTxV2Ks482/lf5osdZuTY2Mt9YTSM9tNAOZCsahXUfECtadN8UJL/AIE8&#xA;5/8AVlvP+RL/ANMUu/wJ5z/6st5/yJf+mKvaPyhsNe0/yu9pq8Elv6dw/wBVhlBVxGwUnY9Bz5EY&#xA;oZvirsVfPfnbyr541HzXqd2+l3NwrzuIZY42dDCppFxYDpwAxVJP8Cec/wDqy3n/ACJf+mKXf4D8&#xA;5/8AVlvP+RLf0xV7B+UfknUfL1jd3Wpr6V7flALeoYxxx1I5EGnJi3Tt9+KGf4q8v/OXyZq+rG01&#xA;bTIGu3tozDcW8Y5SceXJWVRu25IIG+KvIW0LXFLBtOuQU2esMgp89tsUrP0Nq/8Ayw3H/Ip/6Yqy&#xA;z8s/Lnmf/FunXsNlPBbW8nK4uZEaNBHQh15MBUsDSgxQ+hcVdiryX87dC8yaheWFxZWst3p0ELKV&#xA;hUyMkrNViyrU0Khd6dsVeU/obWK0+o3FfD0n/pilVHlnzGSANKvCTsB9Xl6n/Y4q9y/KTypf6BoE&#xA;z6jH6N7fSiRoSfiSNVogan7XU09/HFDOcVYl+ZPkqTzTo8cVtIsd/aOZLYvUIwYUZCRWldqH2xV5&#xA;L/yp3z7/AMsUf/I+L/mrFWv+VO+ff+WKP/kfF/zViq+L8m/PbyKrWsUak0MjTxlR7niWP3DFXtnk&#xA;/QZNA8t2WkySieS2VuciggFpHaQgV7AvQYqnOKpb5k0l9X0G+0xJfRe7haNZaVAJ6VHh44q8OuPy&#xA;Y88xSFI4IJ1HSSOZQD/wfA/hiq2P8mvPTV5W0MdP5pk3/wCBLYqj9C/JTzLLqkS6ssVtp6MGndZF&#xA;dnUHdUC13bxNKfhir3bFXYq7FXifnL84PM8OtXun6WI7GCzmkgDlBJKxjYoWPqclFSNhxxVjUn5q&#xA;efnbk2rOD/kxQqPuVBiqIt/zg8+xOGe/SdR+xJBCB/wiofxxV7D+XnnCfzTob31xbC3uIZjBLwr6&#xA;bEKrckrUj7XSpxVlGKuxV2KuxV2KuxV2KsG/OHVNb07yskulyvbiS4SO6niJV1jKtSjDdasAKj5Y&#xA;q+f5riedzJPI0rnq7sWP3nFK1HdGDIxVh0YGh/DFXqn5K675lu9cmspbqW60tIGeVZmLiNqgJxZq&#xA;la77DFD2fFXYq7FXYq7FXYq7FXYq+ate/MDzpf3s/wBY1C4tKOym0t3aFEoacKIVJp0+KuKpT/iX&#xA;zH/1dbz/AKSJf+asUphpn5hec9OlWSHVriVVp+6uHM6EDtxk5bfLFD6T06ee40+1nuI/SnliR5Yt&#xA;xxdlBZd99jiqIxV2KpdqXmPQNLkWPUdQt7SVhVY5ZFViPHiTWmKoP/Hnkz/q9Wf/ACOT+uKu/wAe&#xA;eTP+r1Z/8jk/rirwv80L7RL7zfc3WkSLNBIietKn2GmAoxXxFKb+NcVYnil2KvoHyH5r8j6f5S02&#xA;1XUra2lSFTcxSuEf1yKykhqH7daHwxQn/wDjzyZ/1erP/kcn9cVcPPfkwkAa1Z7+MyD9ZxVO45I5&#xA;Y1kjYPG4DI6kFSDuCCOuKrsVUrq7tbSBri6mS3gTd5ZWCIo92YgDFWK3H5s+QoJ/SOpcyDRnjimd&#xA;B/sglD9FcVd/ytr8vv8Aq6/9O9z/ANU8VYt+YX5peVtR8u3ek6Yz3s12qoJDG0caAMG5H1ArVFNq&#xA;DFXjWKXYq9E/Knz7onlpb211ON0W7dHW6jXnTiCOLgfFQVqKVxQ9J/5W5+X/AA5fpM1pXj9XuK/L&#xA;+7piqmv5weQiwBvnUH9owTUH3LirJtL13RtVQvpt7DdhacxE6sVr/MoNV+nFUdiqyeeC3heeeRYo&#xA;YlLSSuQqqo3JJOwGKsab8z/IasVOrxVBoaJKRt7hKYq1/wArR8hf9XeP/gJf+aMVcfzR8hAV/S8e&#xA;3/Fcv/NGKvA/N+p2OqeZtR1CwQpaXMxeMMKE1pViP8pqtilJ8VR+g3lpZa3YXd5GZbW3uI5Z4xuS&#xA;iOCaDavTpir6ET80/ITKG/SyCorQxzA/SOGKFy/mf5DZgo1eKp8UlA+8piqa6X5n8varIY9O1G3u&#xA;pQORijcF6ePD7X4Yq+X9U1G61LULi/unLz3LtI7Ma9T0+Q6DFKFxV2KuxV2KuxV2KuxV2KvbfyI1&#xA;a6udJ1HTpXZ4rGSN4ORrxWcPVR7Vjr9OKHqGKvF/z6v7s6npun+oRaLAZ/SHQyM7JyPjQLt9OKvK&#xA;sUuxV2KuxV2KuxV2KuxVkHkG/u7LzlpD20hjM11Dby06NHNIEdSO+xxQ+ncVeX/nxqF1Do+nWcbl&#xA;YLqZ2nUGnL0gpUH2q1cVeJYpdirsVdirsVdirsVdiqIsL66sL2C9tXMdxbuskTjsymoxVD4q7FXY&#xA;q7FXYq7FXYq7FXYq9f8A+cf/APpff9Gn/M7FD17FXh/58/8AKR6f/wAwf/M18VeZYpdirsVdirsV&#xA;dirsVdiqceTv+Uu0P/toWv8AyeXFX1Lih5P+f3+8mjf8ZJ/+IpirxrFLsVdirsVdirsVdirsVdir&#xA;sVdirsVdirsVdirsVdirsVepfkVrGnWd7qtndTpBNdrA1uJGChvSMgZQT+1+8G2KHo+qfmN5L0y4&#xA;FvdapEZSaFYQ03H/AFjEHC/I74q83/PG2nub/S9VtkM2nS2oSO6j+KMkuWHxD+ZWBHjirDLTyL5v&#xA;u7F76DSp2tkBYuVCkgd0RiGf/Yg4qkOKXYq7FXYq7FXYqnOj+T/Mus2c15plhJdW1ueMjqVHxAV4&#xA;qGILmh6KDiqK8jaVfTed9LtxC6S2t3FPcIykGNIHDuXBpxoF74oe42H5m+Sr3UXsItRVJVJVJJQY&#xA;4nI2+CRqKfbfftirA/z21iwuJdKsLeZZp4BLLNwYMFD8QgNO54k4q8nxS7FXYq7FXYq7FXYq7FXY&#xA;q7FXYq7FXYq7FXYq7FXYq7FXYq7FX0V+UN5Jc+RLEOSzW7SwgnwWQlfuDUxQzPFXy953s47Pzdq9&#xA;vEAsa3UpRR0AduQA+XKmKpHil2KuxV2KuxV9L/lpZR2nkfSUQAepD6zEd2lYvU/8FihFed7k2flL&#xA;WbqP4ZRaSqrgbgspUGvsWxV8vYpdirsVdirsVdirsVdirsVdirsVdirsVdirsVdirsVdirsVdirs&#xA;Vdir6E/JhGXyNASKB55ivuOVP1jFDOcVfMv5iOred9ZKmo+ssPpFAfxxVjmKXYq7FXYq7FX1B5D/&#xA;AOUM0X/mDh/4gMUKP5jf8oPrP/MOf1jFXzLil2KuxV2KuxV2KuxV2KuxV2KuxV2KuxV2KuxV2Kux&#xA;V2KuxV2Ksl8keR7/AM2Xs8FvMttBbIHnuHBYAsSEUKKVLUP3YoTXV/yb85WVyI7SFNRhf7M0LqlP&#xA;9dZCpH4j3xVnN95rtvy10HR9Ca0OoX3omSYLJ6SKWYs55FXJq5IG3QYqirP87PKE2nyXFx61rdxg&#xA;kWTIzlyBsEdAU3/yuOKvC9SvptQ1G6vpv766leaSnTlIxY0+/FKGxV2KuxV2KuxV7T+Xf5neW7Dy&#xA;nDYatcm2urAMirwdvUTkWThwDb0PHfFCMi/M7y55sluPLSwT2q6pFJbW91LxpzdCFqFJIqenXfFX&#xA;n9l+UHne5vmtpLVLaNCQ11LIvpbd148mavsvzpiqWec/JGqeVLuCG8dJorlS0FxFXixWgZSGAIK1&#xA;H34qx3FLsVdirsVdirsVdirsVdirsVdirsVdirsVdirsVdirsVev/wDOP/8A0vv+jT/mdih69irw&#xA;/wDPn/lI9P8A+YP/AJmvirzLFLsVdirsVdirsVdirsVTjyd/yl2h/wDbQtf+Ty4q+pcUPJ/z+/3k&#xA;0b/jJP8A8RTFXjWKXYq7FXYq7FXYq7FXYq7FXYq7FXYq7FXYq7FXYq7FXYq9f/5x/wD+l9/0af8A&#xA;M7FD17FXh/58/wDKR6f/AMwf/M18VeZYpdirsVdirsVdirsVdiqceTv+Uu0P/toWv/J5cVfUuKHk&#xA;/wCf3+8mjf8AGSf/AIimKvGsUuxV2KuxV2KuxV2KuxV2KvSvMP5J+YYdQmfRvSurB2LQoziORFJr&#xA;xYNQGniDvihKv+VO+ff+WKP/AJHxf81Yq7/lTvn3/lij/wCR8X/NWKu/5U759/5Yo/8AkfF/zVir&#xA;v+VO+ff+WKP/AJHxf81Yq7/lTvn3/lij/wCR8X/NWKu/5U759/5Yo/8AkfF/zVirv+VO+ff+WKP/&#xA;AJHxf81YquT8nPPjMAbSJQerGeOg+4k4q9Z/LnyOfKulSxzyrNqF2we6eOvABAQiKTQkLU7074qy&#xA;3FWAfml+Xt55lW2vtNdRf2qmNoZDxWSMnkKN0DKSevXFXmJ/KT8wa/8AHKr7/WLb/qpirv8AlUn5&#xA;g/8AVq/6eLb/AKq4q7/lUn5g/wDVq/6eLb/qrirv+VSfmD/1av8Ap4tv+quKu/5VJ+YP/Vq/6eLb&#xA;/qrirv8AlUn5g/8AVq/6eLb/AKq4q7/lUn5g/wDVq/6eLb/qrirv+VSfmD/1av8Ap4tv+quKsn8h&#xA;flHr1trtrqetolpBZSLOkAdZJHkQ8k3jLKFDAE7+2KvZsVYn+Y/kp/NWjxw28ixX9o5ktmevBuQo&#xA;yMRUiu2/tiryCT8ovzAVyq6aJAOjrPb0Py5SKfwxVb/yqT8wf+rV/wBPFt/1VxV3/KpPzB/6tX/T&#xA;xbf9VcVd/wAqk/MH/q1f9PFt/wBVcVd/yqT8wf8Aq1f9PFt/1VxV3/KpPzB/6tX/AE8W3/VXFXf8&#xA;qk/MH/q1f9PFt/1VxVtfyj/MBmAOmBQf2jcW9B90hOKproP5K+ZptShGrpHaWCsGnYSK7soO6oEJ&#xA;3Pien4Yq/wD/2Q==</xmpGImg:image>
               </rdf:li>
            </rdf:Alt>
         </xmp:Thumbnails>
      </rdf:Description>
      <rdf:Description rdf:about=""
            xmlns:xmpMM="http://ns.adobe.com/xap/1.0/mm/"
            xmlns:stRef="http://ns.adobe.com/xap/1.0/sType/ResourceRef#"
            xmlns:stEvt="http://ns.adobe.com/xap/1.0/sType/ResourceEvent#">
         <xmpMM:InstanceID>xmp.iid:A3B6100F196FE41195E3D1493AEF96AB</xmpMM:InstanceID>
         <xmpMM:DocumentID>xmp.did:A3B6100F196FE41195E3D1493AEF96AB</xmpMM:DocumentID>
         <xmpMM:OriginalDocumentID>uuid:5D20892493BFDB11914A8590D31508C8</xmpMM:OriginalDocumentID>
         <xmpMM:RenditionClass>proof:pdf</xmpMM:RenditionClass>
         <xmpMM:DerivedFrom rdf:parseType="Resource">
            <stRef:instanceID>xmp.iid:A2B6100F196FE41195E3D1493AEF96AB</stRef:instanceID>
            <stRef:documentID>xmp.did:A2B6100F196FE41195E3D1493AEF96AB</stRef:documentID>
            <stRef:originalDocumentID>uuid:5D20892493BFDB11914A8590D31508C8</stRef:originalDocumentID>
            <stRef:renditionClass>proof:pdf</stRef:renditionClass>
         </xmpMM:DerivedFrom>
         <xmpMM:History>
            <rdf:Seq>
               <rdf:li rdf:parseType="Resource">
                  <stEvt:action>saved</stEvt:action>
                  <stEvt:instanceID>xmp.iid:9FB6100F196FE41195E3D1493AEF96AB</stEvt:instanceID>
                  <stEvt:when>2014-11-18T22:56:30+08:00</stEvt:when>
                  <stEvt:softwareAgent>Adobe Illustrator CS6 (Windows)</stEvt:softwareAgent>
                  <stEvt:changed>/</stEvt:changed>
               </rdf:li>
               <rdf:li rdf:parseType="Resource">
                  <stEvt:action>saved</stEvt:action>
                  <stEvt:instanceID>xmp.iid:A3B6100F196FE41195E3D1493AEF96AB</stEvt:instanceID>
                  <stEvt:when>2014-11-18T22:59:37+08:00</stEvt:when>
                  <stEvt:softwareAgent>Adobe Illustrator CS6 (Windows)</stEvt:softwareAgent>
                  <stEvt:changed>/</stEvt:changed>
               </rdf:li>
            </rdf:Seq>
         </xmpMM:History>
      </rdf:Description>
      <rdf:Description rdf:about=""
            xmlns:illustrator="http://ns.adobe.com/illustrator/1.0/">
         <illustrator:StartupProfile>Print</illustrator:StartupProfile>
      </rdf:Description>
      <rdf:Description rdf:about=""
            xmlns:xmpTPg="http://ns.adobe.com/xap/1.0/t/pg/"
            xmlns:stDim="http://ns.adobe.com/xap/1.0/sType/Dimensions#"
            xmlns:xmpG="http://ns.adobe.com/xap/1.0/g/">
         <xmpTPg:HasVisibleOverprint>False</xmpTPg:HasVisibleOverprint>
         <xmpTPg:HasVisibleTransparency>False</xmpTPg:HasVisibleTransparency>
         <xmpTPg:NPages>1</xmpTPg:NPages>
         <xmpTPg:MaxPageSize rdf:parseType="Resource">
            <stDim:w>260.000000</stDim:w>
            <stDim:h>400.000000</stDim:h>
            <stDim:unit>Pixels</stDim:unit>
         </xmpTPg:MaxPageSize>
         <xmpTPg:PlateNames>
            <rdf:Seq>
               <rdf:li>Cyan</rdf:li>
               <rdf:li>Magenta</rdf:li>
               <rdf:li>Yellow</rdf:li>
               <rdf:li>Black</rdf:li>
            </rdf:Seq>
         </xmpTPg:PlateNames>
         <xmpTPg:SwatchGroups>
            <rdf:Seq>
               <rdf:li rdf:parseType="Resource">
                  <xmpG:groupName>默认色板组</xmpG:groupName>
                  <xmpG:groupType>0</xmpG:groupType>
               </rdf:li>
            </rdf:Seq>
         </xmpTPg:SwatchGroups>
      </rdf:Description>
      <rdf:Description rdf:about=""
            xmlns:pdf="http://ns.adobe.com/pdf/1.3/">
         <pdf:Producer>Adobe PDF library 10.01</pdf:Producer>
      </rdf:Description>
   </rdf:RDF>
</x:xmpmeta>
                                                                                                    
                                                                                                    
                                                                                                    
                                                                                                    
                                                                                                    
                                                                                                    
                                                                                                    
                                                                                                    
                                                                                                    
                                                                                                    
                                                                                                    
                                                                                                    
                                                                                                    
                                                                                                    
                                                                                                    
                                                                                                    
                                                                                                    
                                                                                                    
                                                                                                    
                                                                                                    
                           
<?xpacket end="w"?>
	</metadata>
<path fill="#727171" d="M7.736,75.943h65.292c2.937,0,5.375,2.193,5.776,5.022c-0.45,2.526,0.02,7.029,0.059,11.112v0.95
	c-0.048,5.747-1.213,10.26-7.509,6.452c-6.726-4.083-6.775,7.597-6.746,12.346c0.029,4.328-0.245,14.861,6.912,11.093
	c5.15-2.712,6.863-0.04,7.343,4.249v8.468c-0.117,2.468-0.215,4.798-0.029,6.491l0.029,0.176c-0.048,3.153-2.682,5.404-5.834,5.738
	c-7.441,0.802-26.346-3.457-20.344,7.313c3.995,7.167-7.167,6.892-11.749,6.922c-5.022,0.021-17.387-0.03-13.07-6.756
	c7.539-11.738-15.694-5.6-20.785-7.764c-2.702-1.145-5.169-2.34-5.169-5.541V81.778C1.911,78.567,4.535,75.943,7.736,75.943
	L7.736,75.943z M7.442,164.28L7.442,164.28h0.646c2.369,0.451,6.521,0.107,10.524,0h3.593c5.502,0.206,9.428,1.605,5.659,7.48
	c-4.317,6.735,8.048,6.774,13.07,6.754c4.582-0.028,15.743,0.245,11.749-6.922c-2.82-5.051-0.147-6.793,4.249-7.313h9.82
	c2.359,0.107,4.552,0.176,6.198,0.01c3.103,0.117,5.609,2.692,5.609,5.826v14.92c-0.666,3.554-2.506,5.335-7.127,2.407
	c-6.755-4.268-6.726,8.098-6.667,13.121c0.059,4.592-0.137,15.742,6.99,11.698c3.955-2.231,5.894-1.077,6.804,1.646v16.634
	c0,3.211-2.624,5.834-5.835,5.834H52.272c-1.625-1.046-1.919-2.896,0.186-6.128c4.327-6.618-8.067-6.667-13.1-6.639
	c-4.602,0.021-15.772-0.244-11.768,6.806c1.733,3.063,1.39,4.896-0.167,5.961H7.442c-3.21,0-5.835-2.623-5.835-5.834v-60.425
	C1.607,166.904,4.232,164.28,7.442,164.28L7.442,164.28z M190.48,163.429L190.48,163.429h20.013
	c1.868,0.989,2.368,2.878,0.215,6.354c-4.112,6.629,7.655,6.678,12.424,6.647c4.367-0.029,14.97,0.245,11.17-6.804
	c-1.771-3.299-1.252-5.17,0.511-6.197h20.961c3.211,0,5.834,2.624,5.834,5.835v60.425c0,2.879-2.113,5.287-4.864,5.748
	c-0.313-0.049-0.638-0.08-0.96-0.08c-2.252-0.449-6.217-0.098-10.045,0h-3.231c-5.228-0.186-8.987-1.575-5.403-7.479
	c4.072-6.727-7.606-6.775-12.346-6.745c-4.337,0.028-14.861-0.245-11.092,6.912c2.662,5.062,0.127,6.804-4.044,7.313h-9.192
	c-2.281-0.099-4.406-0.176-5.982,0h-3.965c-0.322,0-0.646,0.029-0.959,0.078c-2.752-0.461-4.865-2.869-4.865-5.746v-15.979
	c0.83-2.713,2.751-3.829,6.9-1.313c6.728,4.082,6.775-7.598,6.756-12.346c-0.028-4.327,0.246-14.861-6.922-11.092
	c-4.297,2.262-6.06,0.753-6.734-2.321v-17.377C184.656,166.053,187.279,163.429,190.48,163.429L190.48,163.429z M211.951,252.373
	L211.951,252.373c2.662-0.882,3.828-2.8,1.714-6.833c-3.771-7.157,6.755-6.883,11.092-6.912c4.738-0.03,16.418,0.019,12.347,6.755
	c-2.615,4.299-1.322,6.197,1.597,6.99h12.433c0.616,0,1.215,0.088,1.771,0.255c1.105,0.011,2.096,0.077,2.879,0.233
	c2.73,0,5.031,1.91,5.658,4.455v0.011l0.011,0.049c0.077,0.313,0.127,0.646,0.146,1.019l0,0l0.01,0.146l0,0v0.146v60.436v0.146
	l-0.01,0.146l0,0l-0.01,0.146l0,0c-0.215,3.004-2.604,5.384-5.492,5.384h-0.322h-3.643c-0.324,0.06-0.656,0.079-0.999,0.079h-60.426
	c-0.772,0-1.488-0.147-2.154-0.401c-2.261-0.803-3.896-2.978-3.896-5.502v-16.095c-0.725-3.34-2.596-5.081-7.1-2.713
	c-7.166,3.77-6.892-6.766-6.91-11.094c-0.029-4.746,0.02-16.427,6.744-12.345c4.896,2.968,6.688,0.882,7.266-2.897v-11.855
	c-0.01-0.527-0.01-1.047,0-1.536v-1.899c0-1.91,0.93-3.612,2.357-4.681c0.862-0.989,1.998-1.635,3.691-1.635L211.951,252.373
	L211.951,252.373z M166.484,80.476L166.484,80.476v1.439c-0.106,1.312-0.067,2.957,0,4.719v9.458
	c-0.51,4.053-2.24,6.403-7.322,3.319c-6.727-4.073-6.773,7.607-6.745,12.355c0.021,4.328-0.255,14.862,6.911,11.083
	c4.631-2.428,6.48-0.519,7.156,3.015v16.262c0,2.174-1.352,4.053-3.289,4.953c-0.51-0.137-1.057-0.215-1.615-0.215h-16.389
	c-3.643-0.616-5.59-2.429-2.684-7.225c4.082-6.727-7.598-6.785-12.345-6.746c-4.327,0.02-14.852-0.255-11.093,6.902
	c2.33,4.436,0.686,6.324-2.555,7.068h-15.361c-0.764,0-1.41,0.128-1.967,0.362c-0.215,0.049-0.421,0.107-0.627,0.166
	c-2.31-0.694-3.887-2.819-4.17-5.267c-0.793-7.029,3.456-24.877-7.313-19.208c-7.156,3.769-6.893-6.765-6.912-11.093
	c-0.029-4.749,0.019-16.428,6.745-12.346c11.749,7.118,5.61-14.822,7.764-19.62c1.146-2.555,2.34-4.885,5.551-4.885h60.425
	C163.861,74.974,166.484,77.451,166.484,80.476L166.484,80.476z M186.947,145.454L186.947,145.454
	c-0.499-0.803-0.833-1.733-0.961-2.713c-0.049-0.303-0.076-0.636-0.076-0.988v-0.069c-0.051-0.91-0.04-1.947,0-3.054v-11.68
	c-0.061-0.372-0.128-0.734-0.217-1.067c-0.861-2.672-2.801-3.877-6.901-1.762c-5.022,2.575-6.413-1.674-6.806-5.923
	c-0.244-2.125-0.225-4.347-0.233-5.826c-0.03-4.748,0.021-16.428,6.755-12.345c5.404,3.27,7.02,0.401,7.402-4.131v-6.667
	c-0.128-3.064-0.295-5.992,0.059-7.823c0.146-0.949,0.508-1.821,1.047-2.565c0.988-1.87,2.262-3.319,4.797-3.319h60.437
	c1.879,0,3.563,0.852,4.63,2.173c1.342,1.048,2.213,2.712,2.213,4.572v59.485c0,0.724-0.137,1.399-0.371,2.008
	c-0.392,2.632-2.859,4.679-5.826,4.679h-18.092c-1.841,1.028-2.418,2.898-0.606,6.257c3.799,7.048-6.813,6.774-11.171,6.803
	c-4.787,0.03-16.545-0.019-12.434-6.646c2.192-3.544,1.645-5.434-0.324-6.413h-18.229
	C189.757,148.439,187.936,147.216,186.947,145.454L186.947,145.454z M72.421,324.743L72.421,324.743H6.992
	c-3.211,0-5.835-2.597-5.835-5.747V259.51c0-0.714,0.138-1.39,0.392-2.007c0.412-2.634,3.006-4.68,6.129-4.68h19.071
	c1.938-1.019,2.536-2.888,0.636-6.246c-3.994-7.05,7.177-6.785,11.778-6.804c5.022-0.03,17.417,0.019,13.089,6.646
	c-2.31,3.534-1.723,5.424,0.343,6.403h19.208c3.143,0,5.454,2.104,6.07,4.759c0.245,0.548,0.392,1.185,0.392,1.928v15.126
	c0.783,3.192,2.791,4.807,7.489,2.518c7.598-3.711,7.313,6.656,7.333,10.916c0.029,4.67-0.02,16.174-7.157,12.15
	c-5.101-2.861-7.02-0.951-7.666,2.641v16.137C78.266,322.158,75.632,324.743,72.421,324.743L72.421,324.743z M98.776,253.039
	L98.776,253.039c-2.682,0.518-4.729,2.888-4.729,5.717v16.684c0.93,2.634,2.966,3.81,7.255,1.713
	c7.607-3.711,7.313,6.658,7.342,10.916c0.03,4.671-0.02,16.175-7.157,12.15c-4.591-2.574-6.608-1.283-7.44,1.614v17.349
	c0,3.211,2.624,5.836,5.835,5.836h65.292c2.896,0,5.326-2.146,5.756-4.925c-0.029-0.255-0.049-0.51-0.049-0.774v-16.096
	c-0.714-3.338-2.594-5.07-7.098-2.701c-7.157,3.76-6.883-6.766-6.912-11.103c-0.029-4.737,0.02-16.417,6.746-12.335
	c4.895,2.966,6.688,0.88,7.264-2.898V262.33c-0.01-0.539-0.01-1.059,0-1.548v-1.89c0-0.304,0.03-0.606,0.068-0.9
	c-0.383-2.848-2.829-5.061-5.775-5.061h-0.137c-0.393-0.207-0.805-0.394-1.215-0.578c-4.797-2.154-26.736,3.983-19.62-7.765
	c4.084-6.726-7.606-6.774-12.345-6.746c-4.329,0.03-14.862-0.254-11.092,6.912c5.668,10.771-12.189,6.521-19.209,7.313
	C100.548,252.188,99.598,252.52,98.776,253.039L98.776,253.039z M167.475,169.754L167.475,169.754
	c-0.117-0.5-0.274-0.892-0.44-1.205c-0.646-2.369-2.937-4.151-5.647-4.151h-16.398c-3.643-0.606-5.592-2.428-2.684-7.225
	c4.084-6.727-7.597-6.775-12.335-6.745c-4.337,0.019-14.862-0.245-11.093,6.912c2.33,4.424,0.675,6.313-2.565,7.058H100.95
	c-0.753,0-1.4,0.138-1.958,0.372c-2.702,0.578-4.846,2.762-4.846,5.719v18.102c-0.989,1.948-2.908,2.496-6.511,0.313
	c-6.726-4.072-6.774,7.607-6.745,12.347c0.029,4.337-0.245,14.86,6.912,11.092c3.407-1.791,5.316-1.225,6.344,0.606v17.966
	c0,2.938,2.085,5.385,4.768,5.774c0.617,0.246,1.302,0.373,2.036,0.373h0.842c1.419-0.138,3.241-0.078,5.199,0h9.917
	c4.053-0.539,6.481-2.301,3.857-7.295c-3.77-7.156,6.765-6.882,11.092-6.912c4.738-0.019,16.429,0.021,12.345,6.756
	c-3.455,5.688-0.067,7.178,4.877,7.451h4.552c3.26-0.107,6.539-0.353,8.684-0.068c0.117-0.02,0.234-0.039,0.354-0.068
	c0.733-0.066,1.341-0.343,1.869-0.742c1.469-0.901,2.496-2.42,2.653-4.152l0,0c2.162-4.807-3.984-26.746,7.764-19.629
	c6.727,4.082,6.785-7.598,6.745-12.346c-0.021-4.327,0.255-14.861-6.912-11.092C164.018,194.63,169.139,176.626,167.475,169.754z"/>
</svg>
